<svg width="146" height="70" viewBox="0 0 146 70" fill="none" xmlns="http://www.w3.org/2000/svg">
<g filter="url(#filter0_d_1721_629)">
<rect x="8" y="8" width="130" height="54" rx="6" fill="#1E0240"/>
<rect x="8.5" y="8.5" width="129" height="53" rx="5.5" stroke="url(#paint0_linear_1721_629)"/>
</g>
<path d="M89.7093 38.754L93.5143 47.1142L93.5378 38.754H95.2054V46.4327H98.6816V47.5459H92.0111L90.8602 45.2059H88.9577V44.1609H90.5079L88.9577 40.8895V38.7767H89.7093V38.754ZM88.9577 45.1832H87.0082L85.8808 47.5232H82.7569V38.8221H84.542V47.2733L88.5114 38.754H88.9577V40.8668L88.8872 40.685L87.431 44.1382H88.9577V45.1832ZM45.9282 47.5686V46.9552L46.304 47.5459L45.9282 47.5686ZM45.9282 46.0919C46.6563 47.3641 48.277 47.7503 49.5688 47.7731C51.1895 47.7958 52.6222 47.0006 53.092 46.3873C53.8906 45.2741 53.6322 41.6165 53.6322 39.7763C56.3098 39.5945 59.0109 40.0035 58.682 43.3885C58.3532 46.4781 56.1689 46.8416 53.2564 46.728C53.0685 47.0688 52.7397 47.3414 52.2699 47.5459C59.2927 48.0684 59.7155 45.9783 60.4671 44.3199V47.5459L67.7718 47.5913V41.2302L73.3619 47.5459H74.7241V39.7763H77.801V47.5459H79.6096V39.799H82.9214V38.8448H73.3619V45.1378L67.7718 38.8448H66.5034V46.6144H61.9703V43.5248H65.7988V42.5933H61.9703L61.9938 39.7536H65.9867V38.8221H60.3262V41.7528C60.0913 41.253 59.8095 40.7304 59.4806 40.2988C58.0244 38.5495 55.2528 38.8903 52.035 38.8903V43.2522C52.035 44.7288 51.8941 46.7507 49.5923 46.7735C47.5958 46.7962 47.1965 45.6376 47.1261 43.7065C47.1496 42.4116 47.0791 40.2988 47.0791 38.8903H45.9282V46.0919ZM45.9282 38.913V46.0919C45.6464 45.6376 45.5289 45.0923 45.5289 44.4108V38.8903H45.9282V38.913ZM45.9282 46.9552L43.7908 43.7292C44.9417 43.1158 45.5289 42.1163 45.1531 40.6623C44.7773 39.3219 43.8613 39.0039 42.1232 38.9812H41.9823V39.7536H42.6634C43.6969 40.1398 43.8378 42.3207 42.9453 42.8432C42.7339 43.0023 42.3816 43.0477 41.9823 43.0704V44.0927H42.1702L44.4485 47.614L45.9282 47.5459V46.9552ZM42.0058 38.9812V39.7536H40.4791V43.0477C40.8314 43.0477 41.4655 43.0931 42.0058 43.0704V44.0927H40.4791V47.614H38.6705L38.694 38.9584H42.0058V38.9812ZM35.1943 44.2972C35.5936 44.2972 36.0164 44.2745 36.3687 44.2063C36.5096 44.1836 37.1673 43.911 37.2378 43.8655C38.741 42.9568 38.741 40.2307 37.2378 39.3219C36.7915 39.072 36.0399 38.9584 35.1943 38.9357V39.8444H35.7345C36.9559 40.0262 37.0733 41.8436 36.5331 42.7751C36.2983 43.184 35.7345 43.343 35.1943 43.3885V44.2972ZM35.1943 38.9357V39.8444H33.5267V43.3657C33.926 43.3885 34.5836 43.4339 35.1943 43.3885V44.2972C34.8655 44.2972 34.5367 44.2972 34.2313 44.2745H33.5267V47.6595H32V39.0039C32.8925 38.9812 34.1139 38.913 35.1943 38.9357Z" fill="white"/>
<path d="M104.083 41.729C104.083 41.729 104.13 41.8199 104.389 42.0016C104.647 42.1834 104.742 42.2061 104.742 42.2061C104.742 42.2061 104.671 42.4787 104.671 42.9103C104.671 43.3647 104.859 44.2053 104.859 44.1826C104.859 44.1598 104.577 43.8418 104.318 43.1148C104.035 42.2969 104.083 41.729 104.083 41.729Z" fill="white"/>
<path d="M102.533 43.9102C102.533 43.9102 102.651 43.7512 102.698 43.5467C102.745 43.3422 102.745 43.1832 102.745 43.1832C102.745 43.1832 102.956 43.1605 103.238 42.9333C103.52 42.7061 103.708 42.5017 103.708 42.5017C103.708 42.5017 103.637 43.0015 103.308 43.3877C102.862 43.9556 102.533 43.9102 102.533 43.9102Z" fill="white"/>
<path d="M103.752 43.4562C103.987 43.4562 103.987 44.9783 103.987 44.9556C103.987 44.9329 104.95 45.4554 104.95 45.9325C104.95 46.5686 103.752 47.0002 103.752 47.0002C103.752 47.0002 103.682 47.5228 103.564 48.0226C103.447 48.5224 103.33 49.1812 103.33 49.1812C103.33 49.1812 103.259 48.6814 103.259 48.1816V47.4092C103.259 47.4092 102.625 47.6136 102.625 48.068C102.625 48.5224 102.789 48.386 102.789 48.6359C102.789 48.8858 102.625 49.1812 102.625 49.1812C102.625 49.1812 102.695 48.7268 102.273 48.4769C101.85 48.227 101.967 47.7727 102.296 47.5909C102.625 47.4092 103.236 47.182 103.236 47.182C103.236 47.182 103.259 46.7503 103.259 46.1824C103.259 45.6144 103.283 45.3418 103.283 45.3418C103.283 45.3418 102.155 45.1828 102.132 44.7966C102.132 44.7057 102.437 44.6603 102.789 44.6603C103.048 44.6603 103.353 44.7284 103.353 44.7284C103.353 44.7284 103.611 43.4562 103.752 43.4562ZM103.964 45.4554C103.964 45.4554 103.917 45.9098 103.87 46.2505C103.823 46.5913 103.776 46.7731 103.776 46.7731C103.776 46.7731 104.457 46.5686 104.48 46.0461C104.527 45.569 103.964 45.4554 103.964 45.4554Z" fill="white"/>
<path d="M107.044 40.7303V41.5482C107.044 41.5482 107.115 41.3437 108.125 41.0256C109.135 40.6849 109.769 40.6621 109.769 40.6621L107.044 40.7303Z" fill="white"/>
<path d="M107.748 42.0467V41.5469C107.748 41.5469 108.17 41.4788 108.57 41.4788C109.274 41.4788 109.721 41.6151 109.721 41.6151C109.721 41.6151 109.509 41.5924 109.321 41.5924C109.133 41.5924 109.086 41.6378 109.086 41.6378C109.086 41.6378 109.204 41.9559 108.969 42.0467C108.734 42.1376 108.711 42.1149 108.617 42.1376C108.523 42.1603 108.382 42.1603 108.382 42.1603L108.523 42.024C108.523 42.024 108.57 42.0013 108.476 41.9104C108.382 41.8196 108.429 41.6832 108.429 41.6832C108.429 41.6832 108.335 41.7514 108.1 41.8423C107.912 41.9559 107.748 42.0467 107.748 42.0467Z" fill="white"/>
<path d="M108.852 45.2749H109.533C109.533 45.2749 109.885 44.8881 110.002 44.8881C110.167 44.8881 110.237 45.1611 110.425 45.1611C110.472 45.1611 110.613 44.9563 110.731 44.9563C110.918 44.9563 110.918 45.2749 110.989 45.2749H111.177V45.3204H110.59C110.59 45.3204 110.543 45.4342 110.425 45.4342C110.308 45.4342 110.167 45.2977 110.167 45.2977H108.852V45.2749Z" fill="white"/>
<path d="M110.871 45.5235C110.871 45.5235 110.683 45.7734 110.19 45.7734C109.767 45.7734 109.579 45.5917 109.461 45.5235C109.438 45.5008 109.391 45.5008 109.344 45.5008C109.297 45.5008 109.32 45.5463 109.367 45.5463C109.414 45.5463 109.414 45.569 109.438 45.569C109.461 45.6144 109.485 45.6598 109.555 45.7507C109.72 45.9552 110.049 46.0915 110.19 46.0915C110.33 46.0915 110.495 46.0461 110.753 45.8189C110.941 45.6371 110.871 45.5235 110.871 45.5235Z" fill="white"/>
<path d="M106.362 46.116C106.362 46.116 108.711 47.1837 109.838 47.1837C110.496 47.1837 110.543 47.0701 110.755 46.8202C110.966 46.5703 112.234 44.8892 112.469 43.7306C112.727 42.5719 112.798 42.2539 112.798 42.2539C112.798 42.2539 112.892 43.4807 112.446 44.662C112.023 45.8661 111.013 47.1156 110.801 47.32C110.59 47.5245 110.261 47.5699 109.604 47.5018C108.946 47.4336 107.748 47.0247 107.208 46.6385C106.644 46.2523 106.362 46.116 106.362 46.116Z" fill="white"/>
<path d="M112.375 50V49.273C112.375 48.9777 112.563 48.6824 112.845 48.4779C113.127 48.2734 113.361 48.2507 113.361 47.6146C113.361 46.9785 113.338 47.0694 113.338 46.7968C113.338 46.5242 113.549 46.2515 113.831 46.2515C114.113 46.2515 114.418 46.615 114.418 46.615C114.418 46.615 113.855 46.615 113.761 47.2966C113.667 47.9781 113.667 48.1826 113.408 48.6142C113.15 49.0231 112.915 49.2049 112.727 49.4548C112.516 49.7047 112.375 50 112.375 50Z" fill="white"/>
<path d="M114.255 47.5456L114.654 47.7955C114.654 47.7955 114.678 47.6137 114.889 47.3865C115.1 47.1594 115.194 47.0912 115.194 47.0912C115.194 47.0912 115.053 47.023 114.678 47.1821C114.325 47.3638 114.255 47.5456 114.255 47.5456Z" fill="white"/>
<path d="M113.735 48.819L114.252 49.1598C114.252 49.1598 114.346 48.8417 114.675 48.4782C114.98 48.1375 115.168 48.0693 115.168 48.0693C115.168 48.0693 114.792 48.0012 114.346 48.2738C113.876 48.5691 113.735 48.819 113.735 48.819Z" fill="white"/>
<path d="M116.999 41.4335C116.999 41.4335 117.023 40.3204 116.506 40.3204C116.13 40.3204 115.52 40.8429 114.698 43.41C114.204 44.9776 114.721 45.8863 114.721 45.8863C114.721 45.8863 114.862 44.1597 115.144 43.569C115.402 42.9784 116.13 41.2064 116.671 41.2064C116.906 41.2064 116.999 41.4335 116.999 41.4335Z" fill="white"/>
<path d="M112.54 41.0484C112.54 41.0484 111.177 40.912 111.083 42.207C111.06 42.5477 111.13 42.525 111.13 43.1157V43.8654C111.13 44.0017 111.201 44.2062 110.802 44.2062H109.416C109.275 44.2062 109.204 44.2743 109.345 44.3198C109.51 44.3652 109.58 44.3879 109.698 44.4333C109.815 44.5015 109.909 44.5242 110.027 44.4561C110.12 44.4106 110.144 44.3652 110.355 44.3652C110.567 44.3652 110.543 44.3652 110.614 44.4333C110.684 44.5015 110.708 44.5015 110.825 44.5015C110.943 44.5015 111.013 44.4561 111.154 44.297C111.295 44.1607 111.389 43.7745 111.412 43.1157C111.459 42.4569 111.483 41.8889 111.741 41.5254C112.046 41.2074 112.54 41.0484 112.54 41.0484Z" fill="white"/>
<path d="M112.494 41.7968C112.494 41.6151 112.353 41.4788 112.164 41.4788C111.976 41.4788 111.835 41.6151 111.835 41.7968C111.835 41.8877 111.882 41.9786 111.976 42.0467C111.976 42.0694 111.952 42.0694 111.952 42.0922C111.882 42.1603 111.764 42.2057 111.764 42.2057C111.764 42.2057 111.858 42.2512 112 42.183C112.07 42.1603 112.141 42.1376 112.188 42.1149C112.211 42.1149 112.235 42.1149 112.258 42.0922C112.4 42.0694 112.494 41.9558 112.494 41.7968Z" fill="white"/>
<path d="M112.588 40.2777V39.4826L111.882 39.3463C111.882 39.3463 112.259 39.4826 112.424 39.7779C112.589 40.0051 112.588 40.2777 112.588 40.2777Z" fill="white"/>
<path d="M112.961 39.0044C112.961 39.1407 112.914 39.2088 112.773 39.3906C112.632 39.5723 112.585 39.8222 112.374 39.6859C112.162 39.5496 111.528 39.1407 108.686 39.1407C106.831 39.1407 105.75 39.4815 105.374 39.4815C104.999 39.4815 104.505 39.2543 104.505 38.6863C104.505 38.1184 104.67 38.0048 104.717 38.0048C104.74 38.0048 104.999 38.8908 106.009 38.8908C107.019 38.8908 108.428 38.232 110.307 38.232C111.81 38.2547 112.961 38.9362 112.961 39.0044Z" fill="white"/>
<path d="M109.367 38.0506C109.367 38.0506 109.203 36.7783 108.569 36.7783C108.357 36.7783 108.216 36.8919 108.052 36.8919C107.606 36.8919 107.206 36.0514 106.572 36.0514C106.29 36.0514 106.102 36.1422 105.938 36.1422C105.68 36.1422 105.492 35.8469 105.492 35.8469C105.492 35.8469 105.492 36.7329 106.572 36.7329C106.83 36.7329 107.112 36.7102 107.394 36.8692C108.522 37.528 109.367 38.0506 109.367 38.0506Z" fill="white"/>
<path d="M108.897 35.71C108.897 35.71 108.662 36.0734 109.484 36.5732C110.306 37.073 110.376 36.8913 110.588 37.3002C110.799 37.6864 110.799 37.7546 110.799 37.7546C110.799 37.7546 110.987 37.5274 110.987 37.1866C110.987 36.8231 110.776 36.596 110.236 36.4369C109.695 36.2779 109.625 36.2779 109.413 36.1416C109.32 36.0734 109.249 35.9826 109.155 35.8917C109.038 35.7781 108.897 35.71 108.897 35.71Z" fill="white"/>
<path d="M111.623 36.8207C111.623 36.8207 111.74 37.1161 111.858 37.3433C111.975 37.5704 112.14 38.0248 112.422 38.0248C112.68 38.0248 112.727 37.5704 112.422 37.4341C112.116 37.2751 112.046 37.2297 111.905 37.1161C111.74 36.9798 111.623 36.8207 111.623 36.8207Z" fill="white"/>
<path d="M104.834 39.9567C104.834 39.9567 103.495 38.6618 102.508 38.6618C101.381 38.6618 101.287 39.2979 99.9953 39.2979H99.9718C98.7739 39.2979 98.7269 38.6163 98.7269 38.6163C98.7269 38.6163 98.4216 38.9344 98.3041 39.2751C98.1632 39.6614 98.2337 40.093 98.8209 40.093C99.455 40.093 100.395 39.3206 101.804 39.3206H102.391C102.391 39.3206 102.649 39.6386 103.096 39.7749C103.542 39.9112 103.847 39.934 103.918 39.934C103.988 39.934 103.988 40.1157 103.894 40.1157C103.8 40.1157 103.424 40.1611 103.119 40.1611C102.814 40.1611 102.25 40.0476 101.663 40.0476C101.076 40.0476 100.535 40.0703 100.16 40.2747C99.7839 40.4792 99.7604 40.6155 99.7369 40.8427C99.7134 41.0699 99.8074 41.5242 99.8074 41.5242C99.8074 41.5242 100.207 40.8881 101.029 40.8881C101.616 40.8881 101.921 41.0699 102.344 41.0699C103.965 41.0699 104.834 39.9567 104.834 39.9567Z" fill="white"/>
<path d="M47.5376 32.2184L50.7265 23.4911H54.756L51.5961 32.2184H47.5376Z" fill="white"/>
<path d="M65.584 32.2184L67.9756 23.4911H70.9978L68.6279 32.2184H65.584Z" fill="white"/>
<path d="M81.8252 32.2184L84.2168 23.4911H87.239L84.8691 32.2184H81.8252Z" fill="white"/>
<path fill-rule="evenodd" clip-rule="evenodd" d="M62.4328 26.4658H65.5086C65.926 24.4972 64.6078 23.4911 61.5979 23.4911C58.1046 23.4911 55.7538 25.1534 54.9409 28.0188C54.2159 30.6217 55.644 32.2184 58.9175 32.2184C62.1911 32.2184 64.1904 31.2123 65.0252 28.9812H61.9494C61.51 29.9655 60.7191 30.4904 59.6206 30.4904C58.1266 30.4904 57.5554 29.5718 58.0168 27.9094C58.5001 26.1814 59.6206 25.2409 61.1146 25.2409C62.0593 25.219 62.4987 25.6346 62.4328 26.4658Z" fill="white"/>
<path fill-rule="evenodd" clip-rule="evenodd" d="M78.675 26.4658H81.7508C82.1682 24.4972 80.85 23.4911 77.8401 23.4911C74.3468 23.4911 71.996 25.1534 71.1831 28.0188C70.4581 30.6217 71.8862 32.2184 75.1597 32.2184C78.4333 32.2184 80.4326 31.2123 81.2674 28.9812H78.1916C77.7522 29.9655 76.9613 30.4904 75.8628 30.4904C74.3688 30.4904 73.7976 29.5718 74.259 27.9094C74.7423 26.1814 75.8628 25.2409 77.3567 25.2409C78.3015 25.219 78.7409 25.6346 78.675 26.4658Z" fill="white"/>
<path fill-rule="evenodd" clip-rule="evenodd" d="M35.7636 22.9546C39.0519 19.8649 43.0448 19.0698 44.642 21.1825C46.2392 23.2953 44.8299 27.5209 41.5416 30.5878C38.2533 33.6775 34.2604 34.4726 32.6633 32.3598C31.0661 30.2698 32.4519 26.0442 35.7636 22.9546Z" fill="#F99D28"/>
<path fill-rule="evenodd" clip-rule="evenodd" d="M37.9243 21.3208C37.572 21.5707 37.1962 21.866 36.8439 22.2068C33.9549 24.8875 32.757 28.5678 34.1897 30.408C35.646 32.2482 39.2161 31.5893 42.1521 28.8632C43.7258 27.4092 44.8062 25.7281 45.229 24.1605C45.3699 23.0019 45.182 21.9796 44.6183 21.2072C43.35 19.5487 40.6489 19.6851 37.9243 21.3208Z" fill="#AF2A30"/>
<path fill-rule="evenodd" clip-rule="evenodd" d="M39.5686 32.1118C38.0184 33.2023 36.4213 33.7475 34.8711 33.5203C35.5287 33.5431 36.0455 32.8615 36.4917 31.9528C36.938 31.0213 37.1964 30.1353 37.4078 29.3175C37.7131 28.0226 37.7366 27.1138 37.5722 26.9094C37.3138 26.5913 36.7031 26.6595 36.022 27.023C35.6932 27.182 35.2704 27.0684 35.7871 26.5004C36.3038 25.9098 38.3473 24.5013 39.0989 24.2741C39.9209 24.0469 40.837 24.3422 40.5316 25.1828C40.2968 25.8189 37.4547 32.8388 39.5686 32.1118ZM41.8939 21.2298C42.2697 21.5933 42.0348 22.3885 41.4007 23.0019C40.743 23.6152 39.874 23.8424 39.4982 23.4789C39.0989 23.1154 39.3338 22.3203 39.9914 21.6842C40.6491 21.0708 41.5181 20.8664 41.8939 21.2298Z" fill="white"/>
<defs>
<filter id="filter0_d_1721_629" x="0" y="0" width="146" height="70" filterUnits="userSpaceOnUse" color-interpolation-filters="sRGB">
<feFlood flood-opacity="0" result="BackgroundImageFix"/>
<feColorMatrix in="SourceAlpha" type="matrix" values="0 0 0 0 0 0 0 0 0 0 0 0 0 0 0 0 0 0 127 0" result="hardAlpha"/>
<feOffset/>
<feGaussianBlur stdDeviation="4"/>
<feComposite in2="hardAlpha" operator="out"/>
<feColorMatrix type="matrix" values="0 0 0 0 0.0862745 0 0 0 0 0.0117647 0 0 0 0 0.176471 0 0 0 1 0"/>
<feBlend mode="normal" in2="BackgroundImageFix" result="effect1_dropShadow_1721_629"/>
<feBlend mode="normal" in="SourceGraphic" in2="effect1_dropShadow_1721_629" result="shape"/>
</filter>
<linearGradient id="paint0_linear_1721_629" x1="4.1228" y1="8" x2="70.9988" y2="107.179" gradientUnits="userSpaceOnUse">
<stop stop-color="#9059D4"/>
<stop offset="0.31" stop-color="#190137"/>
<stop offset="0.76" stop-color="#190137"/>
<stop offset="1" stop-color="#9059D4"/>
</linearGradient>
</defs>
</svg>
