<svg width="146" height="70" viewBox="0 0 146 70" fill="none" xmlns="http://www.w3.org/2000/svg">
<g filter="url(#filter0_d_1721_665)">
<rect x="8" y="8" width="130" height="54" rx="6" fill="#1E0240"/>
<rect x="8.5" y="8.5" width="129" height="53" rx="5.5" stroke="url(#paint0_linear_1721_665)"/>
</g>
<path d="M95.8132 36.5426C95.6916 36.9934 95.4334 37.3743 95.046 37.6852C94.6586 37.9961 94.2408 38.1438 93.8003 38.1438H78.092C77.6514 38.1438 77.3248 37.9883 77.1121 37.6852C76.8918 37.3743 76.8463 36.9934 76.9678 36.5426L80.4619 23.632C80.5834 23.1812 80.8341 22.7925 81.2215 22.4816C81.6089 22.1629 82.019 22.0075 82.4596 22.0075H98.1679C98.6236 22.0075 98.9579 22.1629 99.1781 22.4661C99.3908 22.777 99.4364 23.1656 99.3073 23.632L98.8971 25.1632H83.1888L80.5303 34.988H96.2385L95.8208 36.5426H95.8132Z" fill="white"/>
<path d="M100.728 38.1442H97.5981L101.958 22.0312H105.088L100.728 38.1442Z" fill="white"/>
<path d="M57.6584 22H54.5213L51.6653 32.5554L39.0637 22.0233L34.6885 38.1829H37.8256L40.6664 27.6897L53.268 38.2218L57.6584 22Z" fill="white"/>
<path d="M78.1144 22.4736C77.8941 22.1704 77.5599 22.015 77.1041 22.015H59.8615L59.0108 25.1707H74.6962L73.7847 28.5441H58.1068L55.5015 38.1513H58.6386L60.3856 31.6999H74.4912C74.9317 31.6999 75.3419 31.5444 75.7369 31.2413C76.1243 30.9304 76.3825 30.5573 76.5041 30.0987L78.2511 23.6473C78.3802 23.1809 78.3347 22.7923 78.122 22.4813L78.1144 22.4736Z" fill="white"/>
<path d="M111.028 22.015L115 30.0987L106.652 38.1746L111.028 22.015Z" fill="#008B45"/>
<path d="M108.247 22.015L112.212 30.0987L103.864 38.1746L108.247 22.015Z" fill="#FF6E0C"/>
<path d="M103.356 40.0864C103.5 39.9854 103.652 39.9388 103.804 39.9388C103.956 39.9388 104.108 39.9776 104.267 40.0476C104.351 40.0787 104.427 40.1253 104.503 40.1797C104.685 40.2963 104.845 40.444 104.989 40.615L105.027 40.6616L105.118 40.7782H103.09L103.075 40.716V40.7005C103.06 40.615 103.06 40.5373 103.075 40.4673C103.113 40.3041 103.212 40.1797 103.356 40.0864ZM111.248 41.0347L111.035 41.8509H110.018L110.23 41.0347H111.248ZM105.566 40.7782C105.506 40.6927 105.437 40.6072 105.376 40.514C105.171 40.273 104.974 40.102 104.784 39.9699C104.64 39.8766 104.495 39.7989 104.359 39.7522C104.214 39.7056 104.055 39.6745 103.903 39.6745C103.622 39.6745 103.371 39.7367 103.158 39.861C102.953 39.9854 102.817 40.172 102.748 40.4129C102.726 40.5062 102.718 40.5995 102.748 40.685L102.763 40.7705H102.239L102.171 41.027H102.688L102.072 43.3432H102.437L103.052 41.027H105.498L105.338 41.6177H103.842L103.675 41.6488C103.614 41.6721 103.569 41.7187 103.546 41.7965C103.538 41.8353 103.546 41.9053 103.705 42.1151L103.728 42.1385C103.865 42.3172 103.964 42.395 104.032 42.395C104.138 42.395 104.184 42.3483 104.199 42.3095L104.313 41.8742H105.263L104.875 43.3432H105.24L105.855 41.027H107.162L106.964 41.7654H106.63L106.569 41.7809C106.485 41.7965 106.44 41.8353 106.425 41.8897C106.402 41.9908 106.455 42.1074 106.607 42.2706C106.759 42.4261 106.88 42.5038 106.979 42.5038C107.063 42.5038 107.124 42.4649 107.162 42.3872L107.192 42.2861L107.519 41.0425H108.4L107.784 43.3588H108.157L108.772 41.0425H109.866L109.653 41.8586H109.41L109.304 41.882C109.243 41.8975 109.205 41.9364 109.182 42.0063C109.159 42.0841 109.22 42.1851 109.364 42.3483C109.501 42.5038 109.607 42.5815 109.699 42.5815C109.767 42.5815 109.82 42.5582 109.85 42.5116L109.873 42.4416L109.957 42.1151H110.975L110.648 43.351H111.013L111.628 41.0347H112.114L112.182 40.7782H105.582H105.566Z" fill="white"/>
<path d="M88.9088 41.028H89.5924L89.3569 41.9218H88.4682L88.6581 41.1834C88.6961 41.0435 88.6581 40.9347 88.567 40.8414C88.4758 40.7559 88.3391 40.7093 88.172 40.7093C88.0049 40.7093 87.8529 40.7482 87.7162 40.8259C87.5871 40.9036 87.4959 41.028 87.4504 41.1757C87.4352 41.2223 87.4352 41.2767 87.4504 41.3622V41.3777L87.4807 41.4477V41.4633H87.8302L87.7998 41.4166L87.7846 41.3855V41.1912C87.7998 41.1212 87.8377 41.0668 87.8985 41.0202C87.9517 40.9813 88.02 40.958 88.096 40.958C88.1948 40.958 88.2555 40.9736 88.2859 41.0124L88.3087 41.1523L88.1036 41.9218H87.7618L87.6479 41.9607L87.5491 42.0695C87.5415 42.1162 87.5491 42.2017 87.7694 42.4348C87.9821 42.6758 88.0656 42.6991 88.1112 42.6991L88.2631 42.6369L88.2935 42.5359L88.3847 42.2017H89.2734L88.9847 43.2899C88.8708 43.3132 88.7644 43.3443 88.6581 43.3987C88.6049 43.4298 88.5366 43.4686 88.453 43.523L88.4226 43.5464L88.6581 43.7718L88.6809 43.7562L88.8024 43.6629C88.8936 43.6008 88.9923 43.5697 89.0759 43.5697C89.1746 43.5697 89.243 43.593 89.2886 43.6474C89.3341 43.7018 89.3493 43.764 89.3265 43.8339C89.2962 43.9505 89.2202 44.0438 89.0911 44.1138C88.9619 44.1837 88.8252 44.2226 88.6657 44.2226C88.415 44.2226 88.1948 44.1371 88.0049 43.9739C87.9365 43.9194 87.8681 43.8417 87.7846 43.7329L87.7618 43.7096L87.4655 43.9505L87.4883 43.9739C87.6023 44.0905 87.6934 44.1837 87.7846 44.2381C88.0504 44.4091 88.3315 44.4869 88.6505 44.4869C88.9088 44.4869 89.1442 44.4325 89.3265 44.3159C89.5164 44.1993 89.638 44.0516 89.6911 43.8573C89.7291 43.7018 89.6987 43.5619 89.5924 43.4531C89.524 43.3831 89.4405 43.3365 89.3417 43.3132L89.9418 41.0513H91.2635L91.066 41.7897H90.709L90.671 41.7975C90.6178 41.8053 90.5495 41.8286 90.5267 41.9063C90.5039 41.9996 90.5571 42.1239 90.7014 42.2872C90.8533 42.4426 90.9748 42.5203 91.0736 42.5203C91.1495 42.5203 91.2179 42.4815 91.2559 42.4038L91.2863 42.2949L91.6129 41.0513H92.494L91.8788 43.3676H92.251L92.8662 41.0513H95.3577L95.2285 41.5488H94.0132C93.8385 41.5488 93.6866 41.5876 93.5574 41.6809C93.4283 41.7664 93.3372 41.8908 93.2992 42.054C93.2232 42.3338 93.2992 42.6292 93.5347 42.9479C93.6182 43.0567 93.7397 43.1888 93.8993 43.3287L93.9145 43.3443L94.2031 43.1422L94.1727 43.1189C94.036 42.9945 93.9296 42.8779 93.8537 42.7846C93.6638 42.5203 93.5954 42.2794 93.6562 42.0462C93.679 41.9607 93.7246 41.9063 93.7929 41.8597C93.8689 41.813 93.9752 41.7897 94.1119 41.7897H95.1678L94.75 43.3676H95.1146L95.7299 41.0513H96.611L95.9957 43.3676H96.3603L96.9756 41.0513H99.4215L99.2695 41.642H97.7732L97.6136 41.6731C97.5529 41.6964 97.5073 41.7508 97.4845 41.8286C97.4769 41.8674 97.4845 41.9452 97.6668 42.1783C97.8111 42.3571 97.9023 42.4348 97.9706 42.4348C98.0542 42.4348 98.1074 42.4038 98.1454 42.3493L98.2593 41.9141H99.2088L98.8214 43.3831H99.186L99.8013 41.0668H100.287L100.356 40.8103H88.9771L88.9088 41.0668V41.028Z" fill="white"/>
<path d="M80.2417 41.0281L80.1126 41.51H79.3302C79.1479 41.51 78.9808 41.5488 78.8289 41.6343L78.7301 41.6965C78.6466 41.7509 78.5858 41.8131 78.5403 41.8753L77.8186 41.0281H80.2341H80.2417ZM78.4035 42.1396V42.1629L78.3883 42.2406L78.2972 42.2795C78.1681 42.3339 78.0389 42.365 77.9022 42.365C77.7503 42.365 77.6439 42.3261 77.568 42.2562C77.492 42.1862 77.4768 42.1007 77.5072 41.9841L77.6895 41.2768L78.4187 42.1396H78.4035ZM80.7355 40.0798C80.819 40.0098 80.9178 39.9787 81.0545 39.9787C81.1456 39.9787 81.2292 39.9943 81.3052 40.0176C81.4571 40.0798 81.5634 40.1964 81.647 40.3829C81.6849 40.4684 81.7153 40.6006 81.7381 40.7638H80.6139L80.5759 40.6783V40.6627C80.538 40.5539 80.538 40.4451 80.5759 40.3363C80.6063 40.2197 80.6595 40.1264 80.7355 40.0642V40.0798ZM83.7434 41.168L83.6903 41.0358H84.6246L84.3131 42.2251C84.222 42.3106 84.1536 42.365 84.1004 42.3961C83.9029 42.5127 83.713 42.5748 83.5156 42.5826H83.5004C83.2573 42.5826 83.0902 42.5049 82.999 42.3494C82.9762 42.3106 82.9611 42.2406 82.9459 42.1396C83.0902 42.1162 83.2041 42.0774 83.2953 42.0463C83.5535 41.9375 83.7206 41.7587 83.7814 41.5255C83.8118 41.4167 83.7966 41.2923 83.751 41.1757L83.7434 41.168ZM81.9584 40.2819C81.8369 40.0021 81.647 39.8311 81.3735 39.7689C81.2976 39.7456 81.2064 39.7378 81.0925 39.7378C80.8722 39.7378 80.6899 39.7844 80.538 39.8855C80.3785 39.9865 80.2721 40.1342 80.2265 40.3441C80.1962 40.4451 80.2038 40.5617 80.2493 40.6861L80.2797 40.7793H73.4282L73.3599 41.0358H74.8487L74.6967 41.6188C74.6739 41.7043 74.6284 41.7742 74.5448 41.8287C74.4613 41.8831 74.3625 41.9064 74.241 41.9064C74.165 41.9064 74.1043 41.8986 74.0511 41.8753C73.9827 41.8442 73.9675 41.8209 73.9675 41.8053L73.808 41.44L73.4738 41.611L73.489 41.6421C73.527 41.7276 73.5574 41.7976 73.5801 41.8597C73.6485 42.0307 73.7473 42.2173 73.8764 42.4427C73.9599 42.5826 74.0663 42.7458 74.1878 42.9246C74.2866 43.0645 74.3929 43.2044 74.5144 43.3521L74.5296 43.3754L74.8487 43.1656L74.8259 43.1423L74.7347 43.0334L74.6588 42.9479L74.522 42.7692C74.4689 42.6992 74.4157 42.637 74.3853 42.5904L74.1346 42.1473C74.279 42.1784 74.4461 42.1473 74.6208 42.0852C74.7499 42.0385 74.8563 41.9763 74.917 41.8986C74.9854 41.8209 75.031 41.7432 75.0537 41.6577L75.2209 41.0358H76.1779L75.5627 43.3521H75.9273L76.5425 41.0358H77.3705L77.1274 41.9608C77.0742 42.1551 77.1274 42.3106 77.2717 42.4427C77.4161 42.5671 77.606 42.6293 77.8414 42.6293C77.9402 42.6293 78.0465 42.6137 78.1605 42.5826C78.2288 42.5671 78.3048 42.536 78.3807 42.5049C78.4035 42.6215 78.4491 42.7303 78.5327 42.8313L78.601 42.9091H78.6086C78.7453 43.049 78.9124 43.1423 79.1023 43.1889L77.8642 44.0594H78.4035L79.3226 43.321L79.8164 44.0594H80.2569L79.6265 43.22C79.7936 43.2044 79.9303 43.1656 80.0518 43.1112C80.2341 43.0334 80.4088 42.9246 80.5759 42.7614L80.6063 42.7303L80.3329 42.5748L80.3177 42.5904C80.0746 42.8313 79.7936 42.9479 79.4594 42.9479C79.2087 42.9479 79.0112 42.8702 78.8745 42.7225C78.7529 42.5982 78.7074 42.4583 78.7226 42.295L78.7377 42.2095L78.7605 42.1396C78.7985 42.0541 78.8669 41.9763 78.9656 41.9142C79.0796 41.8364 79.2087 41.7898 79.353 41.7898H80.4088L80.6063 41.0358H81.6925L81.0849 43.3521H81.4495L82.0647 41.0358H83.2725L83.3712 41.1757C83.432 41.3001 83.4472 41.4012 83.4244 41.4944C83.3864 41.6343 83.3105 41.7354 83.1965 41.8053C83.0978 41.8597 82.9762 41.8908 82.8243 41.8908L82.7408 41.8753H82.6876L82.6344 41.852H82.6116V41.8753C82.5509 42.1162 82.5889 42.3339 82.7332 42.5282C82.8775 42.7225 83.1206 42.8236 83.4624 42.8236H83.4776C83.6827 42.8236 83.8726 42.7847 84.0625 42.707L84.2144 42.6293L84.0245 43.3521H84.3891L85.0043 41.0358H85.4905L85.5588 40.7793H82.0875C82.0647 40.5539 82.0192 40.3907 81.966 40.2819H81.9584Z" fill="white"/>
<path d="M66.7512 40.0798C66.8348 40.0098 66.9335 39.9787 67.0626 39.9787C67.1538 39.9787 67.2374 39.9943 67.3133 40.0176C67.4652 40.0798 67.5792 40.2041 67.6627 40.3829C67.7007 40.4606 67.7235 40.5772 67.7539 40.7716H66.6297L66.5917 40.6783C66.5613 40.5695 66.5613 40.4606 66.5917 40.3518C66.6221 40.2352 66.6828 40.142 66.7588 40.0798H66.7512ZM69.7592 41.168L69.706 41.0358H70.6403L70.3289 42.2251C70.2377 42.3106 70.1618 42.365 70.1086 42.3961C69.9187 42.5127 69.7212 42.5748 69.5237 42.5826H69.5085C69.2655 42.5826 69.0983 42.5049 69.0148 42.3494C68.992 42.3028 68.9768 42.2251 68.9616 42.1318C69.1059 42.1007 69.2275 42.0696 69.311 42.0385C69.5693 41.9297 69.7288 41.7509 69.7896 41.5177C69.8199 41.4167 69.8048 41.2923 69.7592 41.168ZM67.9742 40.2819C67.8526 40.0021 67.6551 39.8311 67.3893 39.7689C67.3133 39.7456 67.2222 39.7378 67.1082 39.7378C66.8879 39.7378 66.7056 39.7844 66.5537 39.8855C66.3942 39.9865 66.2879 40.142 66.2347 40.3441C66.2119 40.4373 66.2195 40.5617 66.2575 40.6861L66.2879 40.7793H59.4364L59.368 41.0358H60.0516L59.8162 41.9297H58.9275L59.125 41.1913C59.1629 41.0592 59.125 40.9426 59.0338 40.8493C58.9427 40.7638 58.8135 40.7171 58.6388 40.7171C58.4641 40.7171 58.3198 40.756 58.1831 40.8337C58.0539 40.9115 57.9628 41.0281 57.9248 41.1835V41.3623L57.9552 41.4478V41.4633H58.3046L58.2666 41.4167L58.2514 41.3856V41.1991C58.2666 41.1291 58.3046 41.0669 58.3578 41.0281C58.4109 40.9892 58.4793 40.9659 58.5553 40.9659C58.654 40.9659 58.7224 40.9814 58.7452 41.0203L58.7604 41.1602L58.5553 41.9297H58.221L58.0995 41.9608L58.0084 42.0696C58.0084 42.0696 57.978 42.1707 58.2286 42.4349C58.4489 42.6759 58.5325 42.6992 58.5781 42.6992L58.73 42.637L58.7604 42.536L58.8515 42.2018H59.7402L59.4364 43.3521H59.801L60.4163 41.0358H61.2898L60.6821 43.3521H61.0467L61.662 41.0358H63.5078L63.3559 41.6188C63.3331 41.7043 63.2875 41.7742 63.2039 41.8287C63.1204 41.8831 63.0216 41.9064 62.9001 41.9064C62.8317 41.9064 62.7634 41.8986 62.7102 41.8753L62.6191 41.8053L62.4595 41.44L62.1329 41.611V41.6343C62.1709 41.7043 62.2013 41.782 62.2317 41.8597C62.3 42.0307 62.3988 42.2173 62.5203 42.4349C62.5963 42.5593 62.695 42.707 62.8393 42.9168C62.9609 43.0801 63.0672 43.22 63.166 43.3443L63.1812 43.3677L63.5078 43.1578L63.4774 43.1267C63.409 43.049 63.3559 42.9946 63.3179 42.9479L63.2647 42.878C63.166 42.7614 63.0976 42.6681 63.0444 42.5904L62.7938 42.1473C62.9381 42.1784 63.1052 42.1473 63.2799 42.0852C63.409 42.0385 63.5154 41.9763 63.5837 41.8986C63.6521 41.8209 63.6977 41.7432 63.7205 41.6577L63.8876 41.0358H66.4626L66.3334 41.5333H65.1181C64.9434 41.5333 64.7915 41.5799 64.6623 41.6654C64.5332 41.7509 64.4421 41.8753 64.4041 42.0385C64.3281 42.3183 64.4041 42.6137 64.6396 42.9324C64.7231 43.0412 64.8522 43.1733 65.0042 43.3133L65.0194 43.3288L65.308 43.1267L65.2776 43.1034C65.1333 42.9713 65.0269 42.8547 64.9586 42.7692C64.7687 42.5127 64.7003 42.2639 64.7611 42.0307C64.7839 41.9452 64.8295 41.8831 64.8902 41.8442C64.9738 41.7976 65.0801 41.7742 65.2093 41.7742H66.2651L65.8473 43.3521H66.2119L66.8272 41.0358H67.7007L67.093 43.3521H67.4576L68.0729 41.0358H69.2806L69.3794 41.1757C69.4402 41.2923 69.4553 41.3934 69.4326 41.4944C69.3946 41.6343 69.3186 41.7354 69.2047 41.8053C69.1059 41.8597 68.9768 41.8908 68.8325 41.8908L68.7489 41.8753H68.7034L68.6502 41.852H68.6274V41.8753C68.5666 42.1085 68.6046 42.3261 68.7489 42.5282C68.8933 42.7225 69.1363 42.8236 69.4781 42.8236H69.4933C69.6984 42.8236 69.8883 42.7847 70.0858 42.707L70.2377 42.637L70.0478 43.3599H70.4124L71.0277 41.0436H71.5138L71.5822 40.7871H68.1109C68.0881 40.5617 68.0425 40.3985 67.9893 40.2896L67.9742 40.2819Z" fill="white"/>
<path d="M32 47.899L32.7368 45.1785L33.9294 46.7797L34.0281 46.9274L34.1193 47.0984L34.613 45.2795H35.0004L34.256 48L33.0406 46.3755L32.9495 46.2356L32.8735 46.0801L32.3798 47.899H32Z" fill="white"/>
<path d="M35.7676 46.8729H36.4817L36.3829 46.2744L36.3677 46.1423V45.9791L36.2766 46.1345L36.193 46.2744L35.7676 46.8729ZM36.6412 47.899L36.5348 47.2227H35.5246L35.046 47.899H34.6055L36.5804 45.1785L37.0817 47.899H36.6412Z" fill="white"/>
<path d="M38.3428 45.6443L37.7352 47.8984H37.3174L37.9327 45.6443H37.249L37.3478 45.279H39.1176L39.0189 45.6443H38.3428Z" fill="white"/>
<path d="M38.8057 47.8984L39.5121 45.279H39.9299L39.2234 47.8984H38.8057Z" fill="white"/>
<path d="M42.2167 46.6011C42.2547 46.469 42.2623 46.3446 42.2471 46.228C42.2319 46.1114 42.1939 46.0026 42.1331 45.9093C42.0724 45.816 41.9888 45.7461 41.8901 45.6994C41.7913 45.6528 41.6774 45.6217 41.5483 45.6217C41.4191 45.6217 41.2976 45.645 41.1685 45.6917C41.0393 45.7383 40.9254 45.8083 40.8039 45.9015C40.6899 45.9948 40.5912 46.0959 40.5152 46.2202C40.4393 46.3368 40.3785 46.469 40.3405 46.6011C40.3025 46.7332 40.2949 46.8576 40.3101 46.9742C40.3253 47.0908 40.3633 47.1996 40.4241 47.2929C40.4848 47.3861 40.5684 47.4561 40.6671 47.5027C40.7659 47.5494 40.8798 47.5727 41.009 47.5727C41.1381 47.5727 41.2596 47.5494 41.3812 47.5027C41.5103 47.4561 41.6242 47.3784 41.7458 47.2929C41.8597 47.1996 41.9584 47.0908 42.0344 46.9742C42.1104 46.8576 42.1711 46.7332 42.2091 46.6011H42.2167ZM42.6497 46.6011C42.5965 46.7876 42.5205 46.9664 42.4066 47.1296C42.2927 47.2929 42.1559 47.4406 41.9888 47.5727C41.8217 47.7048 41.647 47.7981 41.4647 47.8681C41.2824 47.938 41.1001 47.9691 40.9178 47.9691C40.7355 47.9691 40.5684 47.938 40.4165 47.8681C40.2722 47.7981 40.1506 47.6971 40.0519 47.5727C39.9531 47.4406 39.9 47.2929 39.8772 47.1296C39.8544 46.9664 39.8696 46.7876 39.9151 46.6011C39.9683 46.4145 40.0519 46.2358 40.1582 46.0725C40.2722 45.9093 40.4089 45.7616 40.576 45.6295C40.7431 45.4974 40.9178 45.4041 41.1001 45.3341C41.2824 45.2642 41.4723 45.2331 41.6546 45.2331C41.8369 45.2331 42.004 45.2642 42.1483 45.3341C42.2927 45.4041 42.4142 45.5051 42.5129 45.6295C42.6117 45.7616 42.6649 45.9093 42.6876 46.0803C42.7104 46.2435 42.6952 46.4223 42.6497 46.6089V46.6011Z" fill="white"/>
<path d="M42.7031 47.899L43.4475 45.1785L44.6325 46.7797L44.7312 46.9274L44.8224 47.0984L45.3161 45.2795H45.7035L44.9667 48L43.7514 46.3755L43.6602 46.2356L43.5842 46.0801L43.0905 47.899H42.7031Z" fill="white"/>
<path d="M46.4703 46.8729H47.1843L47.0855 46.2744L47.0703 46.1423V45.9791L46.9792 46.1345L46.8956 46.2744L46.4703 46.8729ZM47.3438 47.899L47.2375 47.2227H46.2272L45.7487 47.899H45.3081L47.283 45.1785L47.7844 47.899H47.3438Z" fill="white"/>
<path d="M48.0884 47.8984L48.8024 45.279H49.2202L48.6125 47.5175H49.5392L49.4404 47.8984H48.0884Z" fill="white"/>
<path d="M51.7572 46.3749H51.8635C52.0914 46.3749 52.2585 46.3516 52.342 46.2972C52.4332 46.2428 52.494 46.1573 52.5319 46.0252C52.5699 45.8853 52.5547 45.7842 52.4864 45.7298C52.418 45.6754 52.2737 45.6443 52.0534 45.6443H51.947L51.7496 46.3749H51.7572ZM51.6356 46.7247L51.3166 47.8984H50.9292L51.6432 45.279H52.2737C52.4636 45.279 52.5927 45.2867 52.6763 45.3101C52.7598 45.3334 52.8282 45.3645 52.8813 45.4111C52.9421 45.4733 52.9877 45.551 53.0029 45.6598C53.0181 45.7609 53.0105 45.8775 52.9801 46.0018C52.9497 46.1262 52.8889 46.2428 52.8206 46.3438C52.7446 46.4449 52.6611 46.5304 52.5623 46.5926C52.4864 46.6392 52.3952 46.6703 52.3041 46.6936C52.2129 46.7092 52.0686 46.7247 51.8863 46.7247H51.6508H51.6356Z" fill="white"/>
<path d="M53.2376 46.8729H53.9516L53.8528 46.2744L53.8377 46.1423V45.9791L53.7465 46.1345L53.663 46.2744L53.2376 46.8729ZM54.1111 47.899L54.0048 47.2227H52.9945L52.516 47.899H52.083L54.0579 45.1785L54.5593 47.899H54.1187H54.1111Z" fill="white"/>
<path d="M54.7877 47.8984L55.1143 46.7014L54.6357 45.279H55.0687L55.3649 46.1728L55.3953 46.2583L55.4181 46.3827L55.5017 46.2661L55.5852 46.1573L56.3752 45.279H56.793L55.5245 46.7014L55.1978 47.8984H54.7877Z" fill="white"/>
<path d="M58.578 46.6081C58.578 46.6081 58.5856 46.5304 58.6008 46.4371C58.6084 46.3594 58.6236 46.2972 58.6236 46.2505L58.5325 46.4293L58.4109 46.6081L57.3627 47.9994L57.0817 46.577L57.0589 46.406V46.2428L56.9905 46.4138L56.907 46.6003L56.2841 47.8906H55.9043L57.2488 45.1623L57.5526 46.8102L57.5678 46.9423C57.5678 47.0045 57.583 47.0745 57.5906 47.1677C57.6362 47.09 57.6969 46.9967 57.7881 46.8801L57.8412 46.8102L59.0262 45.1623L58.9047 47.8906H58.5173L58.5856 46.6003L58.578 46.6081Z" fill="white"/>
<path d="M59.2998 47.8984L60.0138 45.279H61.4418L61.3431 45.6443H60.3328L60.1505 46.2972H61.1684L61.062 46.6703H60.0518L59.8239 47.5175H60.8342L60.7278 47.8984H59.2998Z" fill="white"/>
<path d="M61.2744 47.899L62.0188 45.1785L63.2038 46.7797L63.3025 46.9274L63.4013 47.0984L63.895 45.2795H64.2748L63.538 48L62.3226 46.3755L62.2315 46.2356L62.1555 46.0801L61.6618 47.899H61.2744Z" fill="white"/>
<path d="M65.6641 45.6443L65.0489 47.8984H64.6311L65.2463 45.6443H64.5703L64.6691 45.279H66.4389L66.3402 45.6443H65.6641Z" fill="white"/>
<path d="M66.113 47.3778L66.4851 47.2223C66.4851 47.3389 66.5155 47.4244 66.5839 47.4866C66.6523 47.5488 66.751 47.5799 66.8801 47.5799C67.0017 47.5799 67.108 47.541 67.1992 47.471C67.2903 47.4011 67.3511 47.3078 67.3815 47.1912C67.4194 47.0358 67.3359 46.8959 67.1232 46.7793L67.0548 46.7404C66.8118 46.6005 66.6599 46.4684 66.5991 46.3595C66.5383 46.2429 66.5231 46.1108 66.5687 45.9398C66.6295 45.7299 66.7434 45.5512 66.9181 45.419C67.0928 45.2869 67.2979 45.2169 67.5258 45.2169C67.7157 45.2169 67.86 45.2558 67.9663 45.3258C68.0727 45.4035 68.1335 45.5045 68.1411 45.6444L67.7689 45.8154C67.7385 45.7299 67.7005 45.6755 67.6473 45.6367C67.5941 45.5978 67.5334 45.5823 67.4498 45.5823C67.3359 45.5823 67.2447 45.6133 67.1612 45.6678C67.0776 45.7299 67.0245 45.8077 66.9941 45.9087C66.9485 46.0642 67.0548 46.2118 67.3055 46.3518L67.3511 46.3751C67.5714 46.4917 67.7157 46.6083 67.7764 46.7249C67.8372 46.8414 67.8448 46.9814 67.7992 47.1524C67.7309 47.4011 67.6017 47.5954 67.4118 47.7431C67.2219 47.8908 66.9941 47.9607 66.7358 47.9607C66.5155 47.9607 66.356 47.9063 66.2421 47.8053C66.1281 47.7042 66.0826 47.5565 66.0902 47.3622L66.113 47.3778Z" fill="white"/>
<path d="M71.6807 45.9168C71.5896 45.8158 71.4908 45.738 71.3693 45.6836C71.2554 45.6292 71.1186 45.6059 70.9743 45.6059C70.6933 45.6059 70.4426 45.6992 70.2147 45.8857C69.9868 46.0723 69.8349 46.3055 69.759 46.6008C69.683 46.8806 69.7058 47.1138 69.8273 47.3004C69.9489 47.4869 70.1388 47.5724 70.397 47.5724C70.5489 47.5724 70.7009 47.5413 70.8528 47.4869C71.0047 47.4325 71.1566 47.347 71.3161 47.2382L71.187 47.7201C71.0503 47.8056 70.9135 47.86 70.7692 47.9067C70.6249 47.9455 70.4806 47.9688 70.3211 47.9688C70.1236 47.9688 69.9565 47.9377 69.8045 47.8678C69.6526 47.8056 69.5387 47.7046 69.4475 47.5802C69.3564 47.4558 69.3032 47.3081 69.2804 47.1371C69.2576 46.9661 69.2804 46.7874 69.326 46.593C69.3792 46.3987 69.4627 46.22 69.5767 46.049C69.6906 45.878 69.8273 45.7303 69.9868 45.6059C70.1464 45.4815 70.3211 45.3805 70.5034 45.3105C70.6857 45.2406 70.8756 45.2095 71.0655 45.2095C71.2174 45.2095 71.3541 45.2328 71.4756 45.2795C71.5972 45.3261 71.7111 45.3883 71.8174 45.4815L71.6807 45.909V45.9168Z" fill="white"/>
<path d="M74.2028 46.6011C74.2408 46.469 74.2484 46.3446 74.2332 46.228C74.218 46.1114 74.18 46.0026 74.1193 45.9093C74.0585 45.816 73.9749 45.7461 73.8762 45.6994C73.7774 45.6528 73.6635 45.6217 73.5344 45.6217C73.4052 45.6217 73.2837 45.645 73.1546 45.6917C73.0255 45.7383 72.9039 45.8083 72.79 45.9015C72.676 45.9948 72.5773 46.0959 72.5013 46.2202C72.4178 46.3368 72.3646 46.469 72.3266 46.6011C72.2887 46.7332 72.2811 46.8576 72.2962 46.9742C72.3114 47.0908 72.3494 47.1996 72.4102 47.2929C72.471 47.3861 72.5545 47.4561 72.6533 47.5027C72.752 47.5494 72.8659 47.5727 72.9951 47.5727C73.1242 47.5727 73.2457 47.5494 73.3673 47.5027C73.4964 47.4561 73.6103 47.3784 73.7319 47.2929C73.8458 47.1996 73.9446 47.0908 74.0205 46.9742C74.0965 46.8576 74.1572 46.7332 74.1952 46.6011H74.2028ZM74.6358 46.6011C74.5826 46.7876 74.5066 46.9664 74.3927 47.1296C74.2788 47.2929 74.142 47.4406 73.9749 47.5727C73.8078 47.7048 73.6331 47.7981 73.4508 47.8681C73.2685 47.938 73.0862 47.9691 72.9039 47.9691C72.7216 47.9691 72.5545 47.938 72.4026 47.8681C72.2507 47.7981 72.1367 47.6971 72.038 47.5727C71.9392 47.4406 71.8861 47.2929 71.8633 47.1296C71.8405 46.9664 71.8557 46.7876 71.9089 46.6011C71.962 46.4145 72.038 46.2358 72.1519 46.0725C72.2659 45.9093 72.4026 45.7616 72.5697 45.6295C72.7368 45.4974 72.9115 45.4041 73.0938 45.3341C73.2761 45.2642 73.466 45.2331 73.6483 45.2331C73.8306 45.2331 73.9977 45.2642 74.142 45.3341C74.2864 45.4041 74.4079 45.5051 74.5066 45.6295C74.5978 45.7616 74.6586 45.9093 74.6814 46.0803C74.7041 46.2435 74.6889 46.4223 74.6434 46.6089L74.6358 46.6011Z" fill="white"/>
<path d="M75.585 46.3983H75.661C75.8812 46.3983 76.0332 46.3749 76.1243 46.3205C76.2079 46.2661 76.2686 46.1728 76.3066 46.0407C76.3446 45.893 76.337 45.792 76.2686 45.7376C76.2079 45.6832 76.0711 45.6521 75.8661 45.6521H75.7901L75.585 46.406V46.3983ZM75.4711 46.7247L75.152 47.8984H74.7646L75.4787 45.279H76.0559C76.2231 45.279 76.3598 45.2945 76.4433 45.3101C76.5269 45.3334 76.6029 45.3722 76.656 45.4267C76.7168 45.4888 76.7548 45.5743 76.77 45.6754C76.7852 45.7764 76.77 45.8853 76.7472 46.0018C76.6864 46.2117 76.5953 46.3749 76.4661 46.4915C76.337 46.6081 76.1699 46.6781 75.9724 46.7014L76.5269 47.8906H76.0559L75.5242 46.7169H75.4787L75.4711 46.7247Z" fill="white"/>
<path d="M77.6663 46.3749H77.7727C78.0005 46.3749 78.1677 46.3516 78.2512 46.2972C78.3424 46.2428 78.4031 46.1573 78.4411 46.0252C78.4791 45.8853 78.4639 45.7842 78.4031 45.7298C78.3348 45.6754 78.1904 45.6443 77.9702 45.6443H77.8638L77.6663 46.3749ZM77.5448 46.7247L77.2258 47.8984H76.8384L77.5524 45.279H78.1828C78.3727 45.279 78.5019 45.2867 78.5854 45.3101C78.669 45.3334 78.7373 45.3645 78.7905 45.4111C78.8513 45.4733 78.8969 45.551 78.9121 45.6598C78.9272 45.7609 78.9197 45.8775 78.8893 46.0018C78.8589 46.1262 78.7981 46.2428 78.7298 46.3438C78.6538 46.4449 78.5702 46.5304 78.4715 46.5926C78.3955 46.6392 78.312 46.6703 78.2132 46.6936C78.1221 46.7092 77.9778 46.7247 77.7955 46.7247H77.56H77.5448Z" fill="white"/>
<path d="M81.2821 46.6011C81.3201 46.469 81.3277 46.3446 81.3125 46.228C81.2973 46.1114 81.2593 46.0026 81.1986 45.9093C81.1378 45.816 81.0543 45.7461 80.9555 45.6994C80.8568 45.6528 80.7428 45.6217 80.6137 45.6217C80.4846 45.6217 80.363 45.645 80.2339 45.6917C80.1048 45.7383 79.9908 45.8083 79.8693 45.9015C79.7554 45.9948 79.6566 46.0959 79.5807 46.2202C79.5047 46.3368 79.4439 46.469 79.4059 46.6011C79.368 46.7332 79.3604 46.8576 79.3756 46.9742C79.3908 47.0908 79.4287 47.1996 79.4895 47.2929C79.5503 47.3861 79.6338 47.4561 79.7326 47.5027C79.8313 47.5494 79.9453 47.5727 80.0744 47.5727C80.2035 47.5727 80.325 47.5494 80.4466 47.5027C80.5681 47.4561 80.6897 47.3784 80.8112 47.2929C80.9251 47.1996 81.0239 47.0908 81.0998 46.9742C81.1758 46.8576 81.2366 46.7332 81.2745 46.6011H81.2821ZM81.7151 46.6011C81.6619 46.7876 81.586 46.9664 81.472 47.1296C81.3581 47.2929 81.2214 47.4406 81.0543 47.5727C80.8871 47.7048 80.7124 47.7981 80.5301 47.8681C80.3478 47.938 80.1655 47.9691 79.9832 47.9691C79.8009 47.9691 79.6338 47.938 79.4819 47.8681C79.3376 47.7981 79.216 47.6971 79.1173 47.5727C79.0262 47.4406 78.9654 47.2929 78.9426 47.1296C78.9198 46.9664 78.935 46.7876 78.9806 46.6011C79.0337 46.4145 79.1097 46.2358 79.2236 46.0725C79.3376 45.9093 79.4743 45.7616 79.6414 45.6295C79.8085 45.4974 79.9832 45.4041 80.1655 45.3341C80.3478 45.2642 80.5377 45.2331 80.72 45.2331C80.9023 45.2331 81.0694 45.2642 81.2138 45.3341C81.3581 45.4041 81.4796 45.5051 81.5784 45.6295C81.6695 45.7616 81.7303 45.9093 81.7531 46.0803C81.7759 46.2435 81.7607 46.4223 81.7151 46.6089V46.6011Z" fill="white"/>
<path d="M82.5206 46.3983H82.5965C82.8168 46.3983 82.9687 46.3749 83.0523 46.3205C83.1358 46.2661 83.2042 46.1728 83.2346 46.0407C83.2725 45.893 83.2649 45.792 83.1966 45.7376C83.1358 45.6832 82.9991 45.6521 82.794 45.6521H82.718L82.513 46.406L82.5206 46.3983ZM82.4066 46.7247L82.0876 47.8984H81.7002L82.4142 45.279H82.9915C83.1586 45.279 83.2877 45.2945 83.3789 45.3101C83.47 45.3334 83.5384 45.3722 83.5916 45.4267C83.6523 45.4888 83.6903 45.5743 83.7131 45.6754C83.7283 45.7764 83.7131 45.8853 83.6903 46.0018C83.6371 46.2117 83.5384 46.3749 83.4093 46.4915C83.2801 46.6081 83.113 46.6781 82.9155 46.7014L83.47 47.8906H82.9991L82.4674 46.7169H82.4218L82.4066 46.7247Z" fill="white"/>
<path d="M84.6622 46.8729H85.3762L85.2774 46.2744L85.2622 46.1423V45.9791L85.1711 46.1345L85.0875 46.2744L84.6622 46.8729ZM85.5357 47.899L85.4293 47.2227H84.4191L83.9406 47.899H83.5L85.4749 45.1785L85.9763 47.899H85.5357Z" fill="white"/>
<path d="M87.2445 45.6443L86.6292 47.8984H86.2114L86.8267 45.6443H86.1431L86.2418 45.279H88.0192L87.9205 45.6443H87.2445Z" fill="white"/>
<path d="M87.7007 47.8984L88.4147 45.279H88.8325L88.1185 47.8984H87.7007Z" fill="white"/>
<path d="M91.1188 46.6011C91.1568 46.469 91.1644 46.3446 91.1492 46.228C91.134 46.1114 91.096 46.0026 91.0353 45.9093C90.9745 45.816 90.891 45.7461 90.7922 45.6994C90.6935 45.6528 90.5795 45.6217 90.4504 45.6217C90.3213 45.6217 90.1997 45.645 90.0706 45.6917C89.9415 45.7383 89.8275 45.8083 89.7136 45.9015C89.5997 45.9948 89.5009 46.0959 89.4249 46.2202C89.349 46.3368 89.2882 46.469 89.2502 46.6011C89.2123 46.7332 89.2047 46.8576 89.2199 46.9742C89.2351 47.0908 89.273 47.1996 89.3338 47.2929C89.3946 47.3861 89.4781 47.4561 89.5769 47.5027C89.6756 47.5494 89.7895 47.5727 89.9187 47.5727C90.0478 47.5727 90.1693 47.5494 90.2909 47.5027C90.4124 47.4561 90.5339 47.3784 90.6555 47.2929C90.7694 47.1996 90.8682 47.0908 90.9441 46.9742C91.0201 46.8576 91.0809 46.7332 91.1188 46.6011ZM91.5518 46.6011C91.4986 46.7876 91.4227 46.9664 91.3087 47.1296C91.1948 47.2929 91.0581 47.4406 90.891 47.5727C90.7238 47.7048 90.5491 47.7981 90.3668 47.8681C90.1845 47.938 90.0022 47.9691 89.8199 47.9691C89.6376 47.9691 89.4705 47.938 89.3186 47.8681C89.1667 47.7981 89.0528 47.6971 88.954 47.5727C88.8553 47.4406 88.8021 47.2929 88.7793 47.1296C88.7565 46.9664 88.7717 46.7876 88.8249 46.6011C88.878 46.4145 88.954 46.2358 89.0679 46.0725C89.1819 45.9093 89.3186 45.7616 89.4857 45.6295C89.6528 45.4974 89.8275 45.4041 90.0098 45.3341C90.1921 45.2642 90.382 45.2331 90.5643 45.2331C90.7466 45.2331 90.9137 45.2642 91.0581 45.3341C91.2024 45.4041 91.3239 45.5051 91.4227 45.6295C91.5214 45.7616 91.5746 45.9093 91.5974 46.0803C91.6202 46.2435 91.605 46.4223 91.5594 46.6089L91.5518 46.6011Z" fill="white"/>
<path d="M91.5293 47.899L92.2661 45.1785L93.4587 46.7797L93.5574 46.9274L93.6485 47.0984L94.1423 45.2795H94.5297L93.7929 48L92.5699 46.3755L92.4864 46.2356L92.4028 46.0801L91.9091 47.899H91.5293Z" fill="white"/>
<path d="M97.7429 46.6011C97.7808 46.469 97.7884 46.3446 97.7732 46.228C97.758 46.1114 97.7201 46.0026 97.6593 45.9093C97.5985 45.816 97.515 45.7461 97.4162 45.6994C97.3175 45.6528 97.2035 45.6217 97.0744 45.6217C96.9453 45.6217 96.8237 45.645 96.6946 45.6917C96.5655 45.7383 96.4515 45.8083 96.3376 45.9015C96.2237 45.9948 96.1249 46.0959 96.049 46.2202C95.973 46.3368 95.9122 46.469 95.8743 46.6011C95.8363 46.7332 95.8287 46.8576 95.8439 46.9742C95.8591 47.0908 95.8971 47.1996 95.9578 47.2929C96.0186 47.3861 96.1021 47.4561 96.2009 47.5027C96.2996 47.5494 96.4136 47.5727 96.5427 47.5727C96.6718 47.5727 96.7934 47.5494 96.9149 47.5027C97.044 47.4561 97.158 47.3784 97.2795 47.2929C97.3934 47.1996 97.4922 47.0908 97.5681 46.9742C97.6441 46.8576 97.7049 46.7332 97.7429 46.6011ZM98.1758 46.6011C98.1226 46.7876 98.0467 46.9664 97.9328 47.1296C97.8188 47.2929 97.6821 47.4406 97.515 47.5727C97.3479 47.7048 97.1732 47.7981 96.9909 47.8681C96.8086 47.938 96.6263 47.9691 96.444 47.9691C96.2617 47.9691 96.0945 47.938 95.9426 47.8681C95.7983 47.7981 95.6768 47.6971 95.578 47.5727C95.4869 47.4406 95.4261 47.2929 95.4033 47.1296C95.3805 46.9664 95.3957 46.7876 95.4489 46.6011C95.5021 46.4145 95.578 46.2358 95.692 46.0725C95.8059 45.9093 95.9426 45.7616 96.1097 45.6295C96.2768 45.4974 96.4515 45.4041 96.6338 45.3341C96.8162 45.2642 96.9985 45.2331 97.1884 45.2331C97.3782 45.2331 97.5378 45.2642 97.6821 45.3341C97.8264 45.4041 97.9479 45.5051 98.0467 45.6295C98.1378 45.7616 98.1986 45.9093 98.2214 46.0803C98.2442 46.2435 98.229 46.4223 98.1758 46.6089V46.6011Z" fill="white"/>
<path d="M98.1523 47.8984L98.8664 45.279H100.294L100.196 45.6443H99.1854L99.0031 46.2972H100.013L99.9146 46.6703H98.9043L98.5701 47.8984H98.1523Z" fill="white"/>
<path d="M101.123 47.8984L101.829 45.279H102.247L101.533 47.8984H101.123Z" fill="white"/>
<path d="M101.92 47.899L102.657 45.1785L103.85 46.7797L103.941 46.9274L104.04 47.0984L104.533 45.2795H104.913L104.176 48L102.961 46.3755L102.87 46.2356L102.794 46.0801L102.3 47.899H101.92Z" fill="white"/>
<path d="M105.171 47.5175H105.52C105.71 47.5175 105.862 47.502 105.961 47.4787C106.067 47.4554 106.159 47.4087 106.25 47.3465C106.371 47.261 106.47 47.16 106.554 47.0279C106.637 46.9035 106.698 46.7558 106.743 46.5926C106.789 46.4293 106.804 46.2817 106.789 46.1495C106.774 46.0252 106.728 45.9163 106.66 45.8386C106.607 45.7764 106.531 45.7298 106.44 45.7065C106.348 45.6832 106.189 45.6676 105.976 45.6676H105.672L105.171 47.5175ZM104.647 47.8984L105.361 45.279H105.923C106.288 45.279 106.538 45.2945 106.675 45.3334C106.812 45.3722 106.926 45.4344 107.017 45.5199C107.131 45.6365 107.207 45.7842 107.23 45.963C107.26 46.1418 107.237 46.3516 107.176 46.5848C107.116 46.818 107.017 47.0201 106.895 47.1989C106.766 47.3776 106.614 47.5253 106.44 47.6419C106.303 47.7274 106.159 47.7896 106.007 47.8284C105.855 47.8673 105.627 47.8829 105.323 47.8829H104.647V47.8984Z" fill="white"/>
<path d="M107.093 47.8984L107.8 45.279H108.217L107.511 47.8984H107.093Z" fill="white"/>
<path d="M108.924 46.8729H109.638L109.539 46.2744L109.524 46.1423V45.9791L109.433 46.1345L109.349 46.2744L108.924 46.8729ZM109.797 47.899L109.691 47.2227H108.673L108.195 47.899H107.762L109.737 45.1785L110.238 47.899H109.797Z" fill="white"/>
<defs>
<filter id="filter0_d_1721_665" x="0" y="0" width="146" height="70" filterUnits="userSpaceOnUse" color-interpolation-filters="sRGB">
<feFlood flood-opacity="0" result="BackgroundImageFix"/>
<feColorMatrix in="SourceAlpha" type="matrix" values="0 0 0 0 0 0 0 0 0 0 0 0 0 0 0 0 0 0 127 0" result="hardAlpha"/>
<feOffset/>
<feGaussianBlur stdDeviation="4"/>
<feComposite in2="hardAlpha" operator="out"/>
<feColorMatrix type="matrix" values="0 0 0 0 0.0862745 0 0 0 0 0.0117647 0 0 0 0 0.176471 0 0 0 1 0"/>
<feBlend mode="normal" in2="BackgroundImageFix" result="effect1_dropShadow_1721_665"/>
<feBlend mode="normal" in="SourceGraphic" in2="effect1_dropShadow_1721_665" result="shape"/>
</filter>
<linearGradient id="paint0_linear_1721_665" x1="4.1228" y1="8" x2="70.9988" y2="107.179" gradientUnits="userSpaceOnUse">
<stop stop-color="#9059D4"/>
<stop offset="0.31" stop-color="#190137"/>
<stop offset="0.76" stop-color="#190137"/>
<stop offset="1" stop-color="#9059D4"/>
</linearGradient>
</defs>
</svg>
