<svg width="146" height="70" viewBox="0 0 146 70" fill="none" xmlns="http://www.w3.org/2000/svg">
<g filter="url(#filter0_d_1721_617)">
<rect x="8" y="8" width="130" height="54" rx="6" fill="#1E0240"/>
<rect x="8.5" y="8.5" width="129" height="53" rx="5.5" stroke="url(#paint0_linear_1721_617)"/>
</g>
<path d="M46.1558 27.2586C40.1543 36.3935 36.8201 41.5288 34.4544 42.7287C32.0251 43.9445 30.7391 40.7769 29.4213 39.1131C29.3419 39.0171 29.4213 38.8891 29.5324 38.9051C30.1199 39.0011 31.4059 39.1771 32.9143 39.1291C34.6925 39.0811 36.5025 36.1215 45.9018 27.0507C46.0447 26.9067 46.267 27.0986 46.1558 27.2586Z" fill="white"/>
<path d="M32.787 38.6331C31.6756 38.4571 30.3419 38.2971 29.167 38.2812C28.9447 38.2812 28.7383 38.2012 28.5795 38.0572C27.4681 37.0653 26.8013 36.3614 26.0709 36.2174C25.9916 36.2174 25.9757 36.1054 26.0392 36.0894C26.5949 35.8335 28.0397 35.2255 29.421 35.2255C30.5483 35.2255 32.1519 36.4094 33.3268 37.4973C33.8031 37.9452 33.4221 38.7291 32.787 38.6331Z" fill="white"/>
<path d="M47.9976 30.4754H50.6967L52.9989 35.2428L55.3804 30.4754H57.9367L54.2055 37.5305V41.2421H51.7763V37.5305L47.9976 30.4754Z" fill="white"/>
<path d="M58.6973 30.4754V41.2421H66.1119V39.0983H61.0947V36.6506H65.1751V34.7469H61.0788V32.4912H65.7785L66.493 30.4754H58.6973Z" fill="white"/>
<path d="M74.3706 30.4747V32.6504H70.3061C70.3061 32.6504 69.5599 32.6824 69.5599 33.3703C69.5599 33.8823 70.3696 34.1862 70.3696 34.1862C70.3696 34.1862 73.7991 35.77 73.9737 35.85C74.1484 35.93 74.9422 36.3459 74.9422 38.1217C74.9422 40.0735 73.5133 41.2253 71.4969 41.2253H67.2735V39.0656H71.862C72.0843 39.0656 72.4336 38.9856 72.4336 38.2177C72.4336 37.4498 71.3857 37.1138 71.1793 37.0179C70.9729 36.9219 68.2262 35.77 67.9563 35.61C67.6864 35.4501 67.0513 35.0341 67.0513 33.2583C67.0513 31.4826 68.3056 30.4587 69.7028 30.4587H74.3548L74.3706 30.4747Z" fill="white"/>
<path d="M86.8021 35.7068C87.2467 35.7068 88.1834 34.6349 88.1834 33.1311C88.1834 31.6273 86.7386 30.4754 85.5637 30.4754H79.8638V41.2421H85.5637C87.0879 41.2421 88.6597 40.0582 88.6597 38.3464C88.6597 36.6346 87.2467 35.7068 86.8021 35.7068ZM82.293 32.5392H84.881C85.3414 32.5392 85.786 32.8911 85.786 33.707C85.786 34.5229 85.262 34.8749 84.7222 34.8749H82.3089V32.5392H82.293ZM84.9762 39.1143H82.293V36.7466H84.9921C85.5478 36.7466 86.1353 37.2426 86.1353 38.0265C86.1353 38.8104 85.389 39.1303 84.9762 39.1303V39.1143Z" fill="white"/>
<path d="M95.2337 30.4754H92.5346L88.8511 41.2421H91.3914L92.0583 38.7944H95.71L96.3768 41.2421H98.9331L95.2337 30.4754ZM92.5504 37.1786L93.9 32.9231L95.2019 37.1786H92.5663H92.5504Z" fill="white"/>
<path d="M99.6943 41.2421H102.076V34.8749L107.014 41.2421H108.824V30.4754H106.442V36.7466L101.711 30.4754H99.6943V41.2421Z" fill="white"/>
<path d="M110.601 30.4754H113.046V35.0668L116.999 30.4754H119.73L115.729 35.3388L120 41.2421H117.285L114.141 36.8746L113.046 38.1065V41.2421H110.601V30.4754Z" fill="white"/>
<defs>
<filter id="filter0_d_1721_617" x="0" y="0" width="146" height="70" filterUnits="userSpaceOnUse" color-interpolation-filters="sRGB">
<feFlood flood-opacity="0" result="BackgroundImageFix"/>
<feColorMatrix in="SourceAlpha" type="matrix" values="0 0 0 0 0 0 0 0 0 0 0 0 0 0 0 0 0 0 127 0" result="hardAlpha"/>
<feOffset/>
<feGaussianBlur stdDeviation="4"/>
<feComposite in2="hardAlpha" operator="out"/>
<feColorMatrix type="matrix" values="0 0 0 0 0.0862745 0 0 0 0 0.0117647 0 0 0 0 0.176471 0 0 0 1 0"/>
<feBlend mode="normal" in2="BackgroundImageFix" result="effect1_dropShadow_1721_617"/>
<feBlend mode="normal" in="SourceGraphic" in2="effect1_dropShadow_1721_617" result="shape"/>
</filter>
<linearGradient id="paint0_linear_1721_617" x1="4.1228" y1="8" x2="70.9988" y2="107.179" gradientUnits="userSpaceOnUse">
<stop stop-color="#9059D4"/>
<stop offset="0.31" stop-color="#190137"/>
<stop offset="0.76" stop-color="#190137"/>
<stop offset="1" stop-color="#9059D4"/>
</linearGradient>
</defs>
</svg>
