<svg width="180" height="56" viewBox="0 0 180 56" fill="none" xmlns="http://www.w3.org/2000/svg">
<path d="M132.352 11C135.321 11 137.728 8.53757 137.728 5.5C137.728 2.46243 135.321 0 132.352 0C129.383 0 126.976 2.46243 126.976 5.5C126.976 8.53757 129.383 11 132.352 11Z" fill="#252529"/>
<path d="M35.8265 40.1426C35.7457 50.2854 28.1494 55.9997 17.8729 55.9997C6.85553 55.9997 0 48.753 0 38.2075C0 27.1036 7.5963 17.9997 19.4622 17.9997C27.476 17.9997 35.3282 23.4802 35.3282 28.3114C35.3282 30.5711 33.7389 33.2984 30.3179 33.2984C27.7319 33.2984 25.981 32.1685 24.5533 28.7919L22.7216 24.5192C21.6306 22.0257 20.2164 20.0127 17.2937 20.0127C12.0275 20.0127 9.36069 27.1036 9.36069 32.4153C9.36069 40.7919 12.7009 49.9607 23.0583 49.9607C28.8228 49.9607 32.823 45.2854 33.8332 40.1426H35.84H35.8265Z" fill="#252529"/>
<path d="M78.5807 46.489C78.5807 48.9257 80.8815 49.4759 82.9443 49.9475V51.834C78.4221 52.8558 74.0585 54.3492 69.695 55.9999V49.5545C66.1249 52.8558 61.3646 55.9999 56.2077 55.9999C47.9567 55.9999 43.4345 51.4409 43.4345 43.2663V24.7947C43.4345 22.358 42.9585 21.8864 38.9123 21.8864V19.9999H52.3202V44.4453C52.3202 48.4541 55.4144 51.7554 59.6986 51.7554C63.1101 51.7554 65.9662 50.6549 69.695 47.275V24.7947C69.695 22.358 69.219 21.8864 64.4588 21.8864V19.9999H78.5807V46.489Z" fill="#252529"/>
<path d="M101.136 50.205C101.136 52.6417 101.626 53.1133 107.183 53.1133V54.9998H86.016V53.1133C91.4917 53.1133 91.9821 52.6417 91.9821 50.205V28.5107C91.9821 26.074 89.612 25.5238 86.1795 25.0522V23.1657C92.1456 22.1439 96.6406 20.6505 101.136 18.9998V29.2181H101.299C104.405 24.895 108.246 18.9998 114.376 18.9998C117.645 18.9998 120.832 21.2007 120.832 24.5806C120.832 27.4103 119.116 29.454 116.01 29.454C114.049 29.454 112.741 28.7465 111.515 28.1177C110.289 27.4103 109.227 26.7815 107.51 26.7815C104.65 26.7815 101.136 32.0478 101.136 34.2487V50.205Z" fill="#252529"/>
<path d="M123.904 23.0085C128.35 22.1439 132.721 20.6505 137.092 18.9998V50.205C137.092 52.6417 137.544 53.1133 141.312 53.1133V54.9998H124.13V53.1133C128.2 53.1133 128.652 52.6417 128.652 50.205V27.0173C128.652 26.074 127.823 25.1308 123.904 24.895V23.0085Z" fill="#252529"/>
<path d="M179.2 43.1966C175.942 51.0897 170.4 55.9997 161.36 55.9997C149.716 55.9997 143.36 48.7534 143.36 37.6399C143.36 26.5263 151.345 17.9997 162.508 17.9997C171.308 17.9997 179.04 24.52 179.04 33.535H152.48C152.066 41.2696 156.967 48.7534 165.433 48.7534C171.055 48.7534 174.727 46.338 178.065 41.9955L179.2 43.2098V43.1966ZM167.876 30.7104C169.425 30.7104 169.92 30.4728 169.92 28.7833C169.92 23.7941 166.167 19.9268 161.774 19.9268C154.937 19.9268 152.974 25.8003 152.654 30.7104H167.89H167.876Z" fill="#252529"/>
</svg>
