<svg width="88" height="28" viewBox="0 0 88 28" fill="none" xmlns="http://www.w3.org/2000/svg">
<path d="M64.9942 5.5C66.4523 5.5 67.6342 4.26878 67.6342 2.75C67.6342 1.23122 66.4523 0 64.9942 0C63.5362 0 62.3542 1.23122 62.3542 2.75C62.3542 4.26878 63.5362 5.5 64.9942 5.5Z" fill="#FFCA10"/>
<path d="M17.5934 20.0712C17.5537 25.1426 13.8234 27.9998 8.77685 27.9998C3.36655 27.9998 0 24.3764 0 19.1037C0 13.5517 3.73033 8.99976 9.55731 8.99976C13.4927 8.99976 17.3487 11.74 17.3487 14.1556C17.3487 15.2855 16.5682 16.6491 14.8882 16.6491C13.6183 16.6491 12.7585 16.0842 12.0574 14.3959L11.1579 12.2595C10.6222 11.0127 9.9277 10.0063 8.49245 10.0063C5.90635 10.0063 4.59677 13.5517 4.59677 16.2075C4.59677 20.3959 6.23705 24.9803 11.3233 24.9803C14.1541 24.9803 16.1185 22.6426 16.6145 20.0712H17.6H17.5934Z" fill="#FFCA10"/>
<path d="M38.5888 23.2445C38.5888 24.4629 39.7187 24.738 40.7316 24.9738V25.917C38.5109 26.4279 36.3681 27.1747 34.2253 28V24.7773C32.4721 26.4279 30.1345 28 27.6021 28C23.5502 28 21.3295 25.7205 21.3295 21.6332V12.3974C21.3295 11.179 21.0957 10.9432 19.1088 10.9432V10H25.693V22.2227C25.693 24.2271 27.2125 25.8777 29.3163 25.8777C30.9916 25.8777 32.3942 25.3275 34.2253 23.6376V12.3974C34.2253 11.179 33.9915 10.9432 31.6539 10.9432V10H38.5888V23.2445Z" fill="#FFCA10"/>
<path d="M49.6648 25.1026C49.6648 26.321 49.9056 26.5568 52.6347 26.5568V27.5H42.24V26.5568C44.929 26.5568 45.1698 26.321 45.1698 25.1026V14.2555C45.1698 13.0371 44.0059 12.762 42.3203 12.5262V11.583C45.2501 11.0721 47.4574 10.3253 49.6648 9.5V14.6092H49.7451C51.2702 12.4476 53.1565 9.5 56.1665 9.5C57.7719 9.5 59.3371 10.6004 59.3371 12.2904C59.3371 13.7052 58.4943 14.7271 56.9692 14.7271C56.006 14.7271 55.3639 14.3734 54.7618 14.059C54.1598 13.7052 53.6381 13.3908 52.7953 13.3908C51.3906 13.3908 49.6648 16.024 49.6648 17.1245V25.1026Z" fill="#FFCA10"/>
<path d="M60.8458 11.5044C63.0292 11.0721 65.1756 10.3253 67.322 9.5V25.1026C67.322 26.321 67.5441 26.5568 69.3944 26.5568V27.5H60.9568V26.5568C62.9552 26.5568 63.1773 26.321 63.1773 25.1026V13.5087C63.1773 13.0371 62.7702 12.5655 60.8458 12.4476V11.5044Z" fill="#FFCA10"/>
<path d="M88 21.5982C86.4 25.5447 83.6787 27.9998 79.2394 27.9998C73.5213 27.9998 70.4 24.3766 70.4 18.8198C70.4 13.263 74.3213 8.99976 79.8033 8.99976C84.1246 8.99976 87.9213 12.2599 87.9213 16.7674H74.8787C74.6754 20.6347 77.082 24.3766 81.2394 24.3766C84 24.3766 85.8033 23.1689 87.4426 20.9977L88 21.6048V21.5982ZM82.4394 15.3551C83.2 15.3551 83.4426 15.2363 83.4426 14.3916C83.4426 11.8969 81.6 9.96328 79.4426 9.96328C76.0853 9.96328 75.1213 12.9001 74.964 15.3551H82.4459H82.4394Z" fill="#FFCA10"/>
</svg>
