<svg width="36" height="10" viewBox="0 0 36 10" fill="none" xmlns="http://www.w3.org/2000/svg">
<g id="Frame 1000002934">
<g id="Vector">
<path fill-rule="evenodd" clip-rule="evenodd" d="M16.5246 0V10H26.2623V0H16.5246ZM18 1.76471V8.38235H24.7869V6.02941H19.7705V4.26471H24.7869V1.76471H18Z" fill="#5D5D66"/>
<path d="M28.0328 10V4.01442H29.5082V10H28.0328Z" fill="#5D5D66"/>
<path d="M29.5082 4.01442H28.0328V6.17647H29.5082V4.01442Z" fill="#5D5D66"/>
<path d="M21.541 6.02941V4.26471H19.7705V6.02941H21.541Z" fill="#5D5D66"/>
<path d="M9.14754 6.17647V4.41177H15.0492V6.17647H9.14754Z" fill="#5D5D66"/>
<path d="M0 1.76471V0H7.67213V6.17647H3.2459L6.4918 8.23529H15.0492V10H5.90164L0 6.17647V4.41177H5.90164V1.76471H0Z" fill="#5D5D66"/>
<path d="M9.14754 1.76471V0H14.9016V1.76471H9.14754Z" fill="#5D5D66"/>
<path d="M28.0328 0V1.76471H31.1311V10H32.9016V1.76471H36V0H28.0328Z" fill="#5D5D66"/>
<path d="M0 8.23529V10H1.77049V8.23529H0Z" fill="#5D5D66"/>
<path d="M34.2295 8.23529V10H36V8.23529H34.2295Z" fill="#5D5D66"/>
<path d="M14.9016 1.76471H13.1311V0H14.9016V1.76471Z" fill="#5D5D66"/>
<path d="M15.0492 6.17647H13.2787V4.41177H15.0492V6.17647Z" fill="#5D5D66"/>
<path d="M15.0492 10H13.2787V8.23529H15.0492V10Z" fill="#5D5D66"/>
</g>
</g>
</svg>
