<svg width="32" height="32" viewBox="0 0 32 32" fill="none" xmlns="http://www.w3.org/2000/svg">
<g id="Group 14572">
<circle id="Ellipse 1287" cx="16" cy="16" r="15.6667" stroke="#FFCA10" stroke-width="0.666667"/>
<path id="Vector 20" d="M16.6667 8C16.6667 7.63181 16.3682 7.33333 16 7.33333C15.6318 7.33333 15.3333 7.63181 15.3333 8L16.6667 8ZM15.5286 24.4714C15.7889 24.7318 16.2111 24.7318 16.4714 24.4714L20.714 20.2288C20.9744 19.9684 20.9744 19.5463 20.714 19.286C20.4537 19.0256 20.0316 19.0256 19.7712 19.286L16 23.0572L12.2288 19.286C11.9684 19.0256 11.5463 19.0256 11.286 19.286C11.0256 19.5463 11.0256 19.9684 11.286 20.2288L15.5286 24.4714ZM15.3333 8L15.3333 24L16.6667 24L16.6667 8L15.3333 8Z" fill="#FFCA10"/>
</g>
</svg>
