<svg width="22" height="22" viewBox="0 0 22 22" fill="none" xmlns="http://www.w3.org/2000/svg">
<g id="Whatsapp Icon-22x22">
<path id="Vector 3458" d="M5.53937 19.5632L1.5995 20.7755C1.36932 20.8463 1.15372 20.6307 1.22454 20.4005L2.4275 16.4909C2.54228 16.1179 2.4614 15.7427 2.2821 15.4583C1.86418 14.7954 1.15833 13.1775 1.15833 11C1.15833 5.80681 5.04516 0.7 11 0.7C17.0111 0.7 21.3 5.409 21.3 11C21.3 16.5555 17.1263 20.8417 11 20.8417C9.12044 20.8417 7.30646 20.1085 6.48597 19.6618L6.15128 20.2766L6.48597 19.6618C6.20759 19.5103 5.86757 19.4622 5.53937 19.5632Z" fill="#FFCA10" stroke="#0C0C0C" stroke-width="1.4" stroke-linejoin="round"/>
<path id="Vector" d="M9.66286 9.48062L9.58727 9.41516C9.54399 9.46513 9.50001 9.51802 9.4568 9.56998L9.45648 9.57036L9.45645 9.5704L9.45154 9.5763C9.36059 9.68555 9.27119 9.79295 9.18945 9.87366L9.189 9.87411C9.17418 9.88893 9.15043 9.91272 9.1294 9.93615C9.11895 9.94779 9.10786 9.96079 9.09841 9.97357C9.09153 9.98287 9.0762 10.004 9.06921 10.0295C9.0649 10.0453 9.06457 10.0616 9.06794 10.0771L9.0686 10.0806C9.06993 10.0868 9.0719 10.0944 9.07491 10.1032C9.08088 10.1209 9.0906 10.143 9.10643 10.1699L9.10651 10.17C9.20085 10.3297 9.57733 10.861 10.1456 11.446C10.714 12.0312 11.4812 12.6775 12.3582 13.0585L12.3583 13.0586C12.3969 13.0752 12.4785 13.1092 12.5522 13.139C12.589 13.1539 12.6244 13.168 12.6518 13.1785C12.6654 13.1837 12.6778 13.1882 12.6876 13.1916C12.6924 13.1933 12.6977 13.195 12.7026 13.1965C12.7051 13.1972 12.7085 13.1981 12.7124 13.1989L12.7126 13.199C12.7149 13.1995 12.7242 13.2015 12.7357 13.2015C12.7651 13.2015 12.7877 13.1902 12.7985 13.1841C12.8112 13.177 12.8221 13.1685 12.8303 13.1616C12.8466 13.1476 12.8617 13.1314 12.8727 13.1189C13.0217 12.9508 13.5112 12.3787 13.6758 12.1341L13.676 12.1338C13.8029 11.9438 13.956 11.8584 14.133 11.8584C14.2464 11.8584 14.3564 11.8933 14.4726 11.9351C14.6089 11.9841 15.0746 12.204 15.5196 12.4183C15.881 12.5924 16.2337 12.7652 16.3528 12.8236C16.3773 12.8356 16.3919 12.8427 16.3947 12.8441C16.3983 12.8458 16.402 12.8473 16.4058 12.8486C16.617 12.9503 16.7491 13.0181 16.8259 13.1444L16.9113 13.0925M9.66286 9.48062L9.58702 9.41544C9.71118 9.27097 9.76577 9.16064 9.83391 9.02272L9.83405 9.02243L9.87008 8.95011L9.87026 8.94973C10.0143 8.66362 9.89333 8.42363 9.84875 8.33606L9.84842 8.33541L9.84842 8.33541C9.82739 8.29336 9.64629 7.8601 9.46471 7.42408C9.35314 7.15616 9.24013 6.8841 9.1607 6.6929C9.10972 6.57016 9.07257 6.48074 9.05854 6.44713C8.97536 6.24818 8.88268 6.11209 8.78062 6.02603C8.6809 5.94195 8.56734 5.90139 8.43086 5.90139C8.42329 5.90139 8.42065 5.90138 8.418 5.90147C8.416 5.90154 8.41401 5.90166 8.40989 5.90189C8.39764 5.90257 8.37362 5.9039 8.31133 5.90653L8.31131 5.90653C8.24332 5.90938 8.00636 5.93691 7.74024 5.99263C7.47157 6.04888 7.19152 6.13029 7.02667 6.23415C6.67257 6.45741 6.03799 7.19758 6.03799 8.52444C6.03799 9.71238 6.79533 10.8445 7.12754 11.2822L7.12789 11.2826C7.13463 11.2916 7.14515 11.307 7.15775 11.3253C7.16339 11.3335 7.16944 11.3423 7.17576 11.3514L7.17605 11.3519C8.44473 13.2049 10.0221 14.5709 11.612 15.2062C13.1573 15.8234 13.88 15.8912 14.2818 15.8912C14.4521 15.8912 14.5884 15.878 14.7124 15.8656L14.7129 15.8656L14.7916 15.8581L14.7921 15.8581C15.0382 15.8363 15.4515 15.6804 15.8398 15.433C16.2288 15.1852 16.5679 14.8613 16.6907 14.52C16.7936 14.234 16.8583 13.9353 16.8803 13.6817C16.8913 13.5548 16.8915 13.4413 16.8811 13.3474C16.8706 13.2519 16.8501 13.1846 16.8257 13.1441L16.9113 13.0925M9.66286 9.48062C9.62025 9.52983 9.57681 9.58206 9.53337 9.6343L9.53334 9.63434L9.25308 6.6546C9.46304 7.16005 9.90733 8.22963 9.93786 8.29069L9.93795 8.29085C9.98423 8.38178 10.127 8.66214 9.95959 8.99469L9.92356 9.06702L9.92315 9.06786C9.85457 9.20665 9.79542 9.32638 9.66286 9.48062ZM16.9113 13.0925C16.8154 12.9347 16.6502 12.8552 16.4415 12.7548L16.4391 12.7537L7.09354 11.4084C8.37009 13.2729 9.96179 14.6545 11.5749 15.2991C13.1281 15.9195 13.8638 15.9912 14.2818 15.9912C14.4575 15.9912 14.598 15.9775 14.7223 15.9651L14.801 15.9577C15.3375 15.9101 16.5167 15.2991 16.7848 14.5538C16.996 13.9667 17.0518 13.3254 16.9113 13.0925ZM13.5929 12.0783C13.4326 12.3164 12.9477 12.8835 12.7979 13.0526C12.7783 13.0749 12.7517 13.1015 12.7357 13.1015C12.7214 13.1015 12.4731 12.9992 12.398 12.9668C10.6776 12.2193 9.37164 10.4222 9.19261 10.1192C9.16983 10.0805 9.16647 10.0605 9.16581 10.0566C9.16573 10.0562 9.16569 10.0559 9.16566 10.0559M13.5929 12.0783L9.27871 10.0683L9.25724 10.081L9.16566 10.0559M13.5929 12.0783C13.7345 11.8662 13.9163 11.7584 14.133 11.7584C14.2655 11.7584 14.3901 11.7991 14.5064 11.8409C14.7646 11.9339 16.1052 12.5909 16.3869 12.7289L13.5929 12.0783ZM9.16566 10.0559C9.1701 10.0397 9.19987 10.0063 9.2276 9.97744C9.21494 9.96746 9.1942 9.95592 9.16566 9.95592V10.0559ZM9.06747 10.0747C9.06748 10.0748 9.06755 10.0752 9.06769 10.0759L9.06747 10.0747ZM9.06747 10.0747C9.06741 10.0744 9.06735 10.0741 9.0673 10.0738M9.06747 10.0747L9.0673 10.0738M9.0673 10.0738L9.06726 10.0736L9.0673 10.0738ZM5.93799 8.52444C5.93799 9.74792 6.71431 10.9032 7.04789 11.3426L8.30711 5.80662C8.15641 5.81294 7.33609 5.92102 6.97336 6.14954C6.58864 6.39209 5.93799 7.16512 5.93799 8.52444ZM9.13714 10.1518C9.13004 10.1497 9.12371 10.1469 9.11816 10.1439C9.12421 10.1472 9.13059 10.1498 9.1372 10.1518C9.13725 10.1518 9.13729 10.1518 9.13734 10.1518C9.14643 10.1545 9.15596 10.1559 9.16566 10.1559C9.15513 10.1559 9.14567 10.1543 9.13727 10.1519C9.13723 10.1518 9.13718 10.1518 9.13714 10.1518Z" fill="#0C0C0C" stroke="#FFCA10" stroke-width="0.2" stroke-linejoin="round"/>
</g>
</svg>
