<svg width="252" height="251" viewBox="0 0 252 251" fill="none" xmlns="http://www.w3.org/2000/svg">
<path d="M125.826 249.915C194.507 249.915 250.183 194.238 250.183 125.557C250.183 56.8767 194.507 1.19995 125.826 1.19995C57.1451 1.19995 1.46826 56.8767 1.46826 125.557C1.46826 194.238 57.1451 249.915 125.826 249.915Z" fill="#38007E" stroke="black" stroke-width="2.11287" stroke-miterlimit="10" stroke-linecap="round"/>
<path d="M125.827 198.834C71.7238 198.834 15.7664 191.295 15.7664 178.679C15.7664 166.063 71.7238 158.525 125.827 158.525C179.93 158.525 235.888 166.063 235.888 178.679C235.888 191.295 179.93 198.834 125.827 198.834Z" fill="#FFCA10"/>
<path d="M145.195 190.795C106.612 190.795 66.7073 183.551 66.7073 171.428C66.7073 159.305 106.612 152.061 145.195 152.061C183.778 152.061 223.683 159.305 223.683 171.428C223.683 183.551 183.778 190.795 145.195 190.795Z" fill="#F4B000"/>
<path d="M126.666 159.91C186.974 159.91 235.86 168.54 235.86 179.198C235.86 189.855 186.974 198.486 126.666 198.486C66.3592 198.486 17.4722 189.855 17.4722 179.198C17.4722 168.54 66.3592 159.91 126.666 159.91ZM126.666 158.177C97.3966 158.177 69.8771 160.187 49.1508 163.844C26.9862 167.76 15.7393 172.924 15.7393 179.18C15.7393 185.436 26.9862 190.601 49.1508 194.517C69.8771 198.174 97.3966 200.184 126.666 200.184C155.936 200.184 183.456 198.174 204.182 194.517C226.347 190.601 237.593 185.436 237.593 179.18C237.593 172.924 226.347 167.76 204.182 163.844C183.456 160.187 155.936 158.177 126.666 158.177Z" fill="black"/>
<path d="M26.4606 147.035L25.7269 145.934L24.9932 127.225L32.6971 126.491L35.6319 146.668L26.4606 147.035Z" fill="#F4B000" stroke="#252529" stroke-width="0.845146" stroke-linecap="round" stroke-linejoin="round"/>
<path d="M104.236 176.015H85.8936L81.1245 171.613L78.9233 137.863H104.236V176.015Z" fill="#F4B000" stroke="#252529" stroke-width="0.845146" stroke-linecap="round" stroke-linejoin="round"/>
<path d="M109.869 168.841C109.869 177 108.981 184.403 106.875 189.209C105.518 192.305 103.647 194.33 101.182 194.77H101.152C100.822 194.836 100.485 194.865 100.132 194.865C93.0594 194.865 85.0474 180.257 85.0474 166.104C85.0474 151.951 88.5912 143.477 95.6641 143.477C97.9679 143.477 100.286 144.673 102.356 146.771C106.626 151.107 109.869 159.303 109.869 168.841Z" fill="black" stroke="#252529" stroke-width="0.845146" stroke-linecap="round" stroke-linejoin="round"/>
<path d="M36.8163 149.037C36.8163 149.602 36.8089 150.145 36.8016 150.673C36.6108 157.944 35.1801 161.686 32.6488 161.686C29.9341 161.686 25.884 151.612 25.884 143.277C25.884 134.942 27.8724 130.767 30.5871 130.767C32.4727 130.767 34.7399 135.559 35.9505 141.274C36.4861 143.791 36.8163 146.491 36.8163 149.037Z" fill="black" stroke="#252529" stroke-width="0.845146" stroke-linecap="round" stroke-linejoin="round"/>
<path d="M46.8351 149.037C46.8351 157.379 45.3824 161.686 42.6603 161.686H32.6452C35.1765 161.686 36.6072 157.944 36.798 150.673C36.8053 150.145 36.8127 149.602 36.8127 149.037C36.8127 146.491 36.4825 143.791 35.9469 141.274C34.7363 135.559 32.4691 130.767 30.5835 130.767H40.6059C43.3207 130.767 46.8351 140.702 46.8351 149.037Z" fill="black" stroke="#252529" stroke-width="0.845146" stroke-linecap="round" stroke-linejoin="round"/>
<path d="M123.749 167.6C123.749 181.746 121.078 193.618 114.005 193.618L101.18 194.77C103.645 194.329 105.516 192.304 106.874 189.208C108.979 184.402 109.867 176.999 109.867 168.84C109.867 159.302 106.624 151.107 102.354 146.771C100.285 144.672 97.9664 143.476 95.6626 143.476L108.084 142.368H108.114L109.537 142.236C116.61 142.236 123.749 153.447 123.749 167.6Z" fill="black" stroke="#252529" stroke-width="0.845146" stroke-linecap="round" stroke-linejoin="round"/>
<path d="M225.693 168.605C225.862 172.875 225.891 175.876 198.37 181.283C170.848 186.698 128.447 192.553 112.651 187.366C112.423 170.923 105.115 143.226 94.1538 139.983C83.1923 136.74 78.1003 161.686 85.951 176.118L38.6342 153.806C37.4456 153.241 37.5997 146.227 35.1785 138.222C35.1785 138.222 32.2436 128.192 28.4577 128.486C24.6718 128.779 25.8824 146.227 25.8824 146.227L23.894 142.624V124.575C23.894 121.259 25.5742 118.184 28.3183 116.313C29.9838 115.176 31.9061 113.643 33.689 111.698C38.15 106.841 50.4909 91.6829 64.3727 91.6756C81.5414 90.0394 128.213 90.4723 143.921 98.2056C159.63 105.939 164.421 115.954 164.421 115.954C164.421 115.954 205.23 121.024 217.116 130.768C217.585 131.164 218.011 131.575 218.392 131.993C219.566 134.04 216.998 138.369 215.67 139C208.443 139.506 170.841 143.035 166.93 144.503C162.711 146.087 154.861 151.077 153.665 155.486C152.799 158.678 163.115 174.577 165.492 177.739C167.869 180.909 172.616 180.77 175.258 180.902C177.892 181.034 197.805 178.121 210.468 175.348C223.125 172.574 223.125 169.933 223.903 166.638C226.397 153.314 226.727 146.205 223.903 144.877C223.712 144.781 223.521 144.679 223.33 144.554C223.096 143.835 223.33 142.008 223.33 142.008C223.492 142.257 223.675 142.463 223.881 142.624C224.475 143.116 225.033 143.49 225.495 143.769C226.316 144.268 226.793 145.17 226.735 146.131C226.427 151.003 225.561 165.09 225.7 168.605H225.693Z" fill="#FFCA10" stroke="#252529" stroke-width="0.845146" stroke-miterlimit="10"/>
<path d="M164.422 115.955C153.717 114.825 98.8432 119.191 88.9529 122.294C85.3944 110.643 82.8191 103.174 79.6201 98.5294C88.1311 94.1345 132.535 95.9394 143.922 98.2066C159.631 105.94 164.422 115.955 164.422 115.955Z" fill="#111111" stroke="#252529" stroke-width="0.845146" stroke-miterlimit="10"/>
<path d="M143.923 98.2058C132.536 95.9386 88.1317 94.1337 79.6207 98.5286C76.0475 93.334 71.7113 91.6758 64.3962 91.6758C81.565 90.0396 128.214 90.4725 143.923 98.2058Z" fill="#500FA2" stroke="#252529" stroke-width="0.845146" stroke-miterlimit="10"/>
<path d="M223.324 144.554C220.793 142.933 218.863 138.941 216.772 138.941C216.611 138.941 216.237 138.963 215.672 139C217 138.369 219.568 134.04 218.394 131.993C221.871 135.757 222.077 140.101 223.324 142.008C223.324 142.008 223.089 143.835 223.324 144.554Z" fill="#FFF5DC" stroke="#252529" stroke-width="0.845146" stroke-linecap="round" stroke-linejoin="round"/>
<path d="M223.899 166.639C223.121 169.933 223.121 172.574 210.464 175.348C197.801 178.121 177.888 181.034 175.254 180.902C172.612 180.77 167.865 180.909 165.488 177.74C163.111 174.577 152.795 158.678 153.661 155.486C154.857 151.077 162.707 146.088 166.926 144.503C170.837 143.035 208.439 139.506 215.666 139.007C216.231 138.963 216.606 138.941 216.767 138.941C218.858 138.941 220.788 142.933 223.319 144.554C223.51 144.679 223.7 144.782 223.891 144.877C226.716 146.205 226.386 153.315 223.891 166.639H223.899Z" stroke="#252529" stroke-width="0.845146" stroke-miterlimit="10"/>
<path d="M64.3978 91.6765H64.3735" stroke="#252529" stroke-width="0.845146" stroke-miterlimit="10"/>
<path d="M104.151 168.839C104.151 180.3 101.481 188.459 96.5721 188.459C91.6636 188.459 86.5129 178.847 86.5129 167.387C86.5129 155.926 89.4845 148.868 94.3856 148.868C99.2868 148.868 104.144 157.379 104.144 168.839H104.151Z" fill="#2F0B41" stroke="#252529" stroke-width="0.845146" stroke-linecap="round" stroke-linejoin="round"/>
<path d="M111.769 141.26L115.635 149.955C115.635 149.955 132.635 155.23 146.678 153.286C151.183 149.808 161.573 143.997 164.427 143.483C142.555 138.604 116.802 139.521 111.776 141.26H111.769Z" fill="#FFF5DC" stroke="#252529" stroke-width="0.845146" stroke-linecap="round" stroke-linejoin="round"/>
<path d="M121.691 169.86C122.101 169.155 122.916 168.788 123.716 168.957C130.576 170.425 145.25 170.263 149.131 170.645C153.255 171.056 157.459 180.176 164.422 181.027C164.363 181.349 165.324 184.108 151.919 184.438C138.514 184.769 124.471 182.538 121.492 181.577C118.814 180.718 119.379 173.77 121.698 169.852L121.691 169.86Z" fill="#F4B000" stroke="#252529" stroke-width="0.845146" stroke-linecap="round" stroke-linejoin="round"/>
<path d="M223.899 166.639C223.121 169.933 223.121 172.574 210.464 175.348C197.801 178.121 177.888 181.034 175.254 180.902C172.612 180.77 167.865 180.909 165.488 177.74C163.111 174.577 152.795 158.678 153.661 155.486C154.857 151.077 162.707 146.088 166.926 144.503C170.837 143.035 208.439 139.506 215.666 139.007C216.231 138.963 216.606 138.941 216.767 138.941C218.858 138.941 220.788 142.933 223.319 144.554C223.51 144.679 223.7 144.782 223.891 144.877C226.716 146.205 226.386 153.315 223.891 166.639H223.899Z" fill="#F4B000" stroke="#252529" stroke-width="0.845146" stroke-linecap="round" stroke-linejoin="round"/>
<path d="M35.4229 148.326C35.4229 154.533 34.3371 157.739 32.3194 157.739C30.3017 157.739 27.2861 150.241 27.2861 144.033C27.2861 137.826 28.7609 134.723 30.7859 134.723C32.8109 134.723 35.4229 142.118 35.4229 148.326Z" fill="#2F0B41" stroke="#252529" stroke-width="0.845146" stroke-linecap="round" stroke-linejoin="round"/>
<path d="M63.4111 95.0505C63.4111 95.0505 57.336 110.194 56.0226 116.269L34.8845 112.513C40.2553 106.57 51.4076 95.5347 62.6773 95.0652C62.9268 95.0578 63.1689 95.0505 63.4111 95.0505Z" fill="#111111" stroke="#252529" stroke-width="0.845146" stroke-linecap="round" stroke-linejoin="round"/>
<path d="M52.8953 158.135C45.3308 154.628 39.0576 151.715 39.0576 151.715C37.0766 135.478 28.859 119.447 32.7183 114.971C33.2686 114.34 33.995 113.496 34.8828 112.513L56.0209 116.27C49.8431 126.043 50.4814 154.569 52.8953 158.135Z" fill="#500FA2" stroke="#252529" stroke-width="0.845146" stroke-miterlimit="10"/>
<path d="M81.5207 120.973L80.6109 120.805H80.6036C78.5786 120.181 74.9394 117.958 74.9174 116.74C74.8587 113.101 74.1103 111.054 66.8319 111.303C59.5535 111.553 57.6899 114.48 57.6899 114.48C57.4845 115.03 57.4111 115.588 57.4772 116.131C57.4918 116.27 57.5212 116.417 57.5579 116.557L56.0244 116.27C57.3377 110.195 63.4128 95.0516 63.4128 95.0516C75.8932 94.8829 78.065 104.267 81.5207 120.973Z" fill="#111111" stroke="#252529" stroke-width="0.845146" stroke-linecap="round" stroke-linejoin="round"/>
<path d="M74.9174 116.74C70.926 117.599 61.4905 117.745 57.4772 116.131C57.4111 115.588 57.4845 115.031 57.6899 114.48C57.6899 114.48 59.5536 111.553 66.8319 111.303C74.1103 111.054 74.8587 113.101 74.9174 116.74Z" stroke="#252529" stroke-width="0.845146" stroke-linecap="round" stroke-linejoin="round"/>
<path d="M81.5203 120.973C80.1262 123.013 79.0844 124.847 78.314 126.579C78.314 124.598 72.6278 122.066 71.7546 120.085C72.2902 119.917 72.7892 119.697 73.2147 119.44C74.2566 118.823 74.9169 117.943 74.9169 116.74C74.9389 117.958 78.5781 120.181 80.6031 120.804H80.6105C80.9773 120.922 81.2928 120.981 81.5203 120.973Z" fill="#2F0B41" stroke="#252529" stroke-width="0.845146" stroke-linecap="round" stroke-linejoin="round"/>
<path d="M78.6632 170.072C76.8656 169.25 63.5928 163.095 52.9027 158.142C52.9027 158.142 52.9027 158.135 52.8954 158.135C50.4815 154.569 49.8432 126.042 56.021 116.269L57.5544 116.556C57.9433 118.111 59.4474 119.505 61.92 120.195C64.1358 120.818 68.6701 121.09 71.7517 120.085C72.6248 122.066 78.311 124.597 78.311 126.578V126.593C76.1025 131.582 76.1099 135.771 76.1099 141.942C76.1099 150.269 77.5186 168.143 78.6632 170.072Z" fill="#500FA2" stroke="#252529" stroke-width="0.845146" stroke-miterlimit="10"/>
<path d="M74.9165 116.739C74.9165 117.943 74.2562 118.823 73.2143 119.439C72.7888 119.696 72.2899 119.916 71.7543 120.085C68.6727 121.09 64.1384 120.819 61.9226 120.195C59.45 119.505 57.9459 118.111 57.557 116.556C57.5203 116.417 57.491 116.27 57.4763 116.13C61.4897 117.745 70.9252 117.598 74.9165 116.739Z" fill="#2F0B41" stroke="#252529" stroke-width="0.845146" stroke-linecap="round" stroke-linejoin="round"/>
<path d="M74.7409 116.54C70.7495 117.398 61.314 117.545 57.3007 115.931C57.2346 115.388 57.308 114.83 57.5134 114.28C57.5134 114.28 59.377 111.353 66.6554 111.103C73.9338 110.854 74.6822 112.901 74.7409 116.54Z" fill="#500FA2" stroke="#252529" stroke-width="0.845146" stroke-linecap="round" stroke-linejoin="round"/>
<path d="M57.4778 116.131C57.4778 116.131 57.4617 116.122 57.4536 116.122" stroke="#252529" stroke-width="0.845146" stroke-linecap="round" stroke-linejoin="round"/>
<path d="M101.185 194.769L101.155 194.776L100.135 194.864" stroke="#252529" stroke-width="0.845146" stroke-linecap="round" stroke-linejoin="round"/>
<path d="M103.134 119.888L117.075 96.0421L132.116 96.7758L121.11 118.053L103.134 119.888Z" fill="#2F270D" stroke="#252529" stroke-width="0.845146" stroke-linecap="round" stroke-linejoin="round"/>
<path d="M164.422 115.955C153.717 114.825 98.8432 119.191 88.9529 122.294C85.3944 110.643 82.8191 103.174 79.6201 98.5294C88.1311 94.1345 132.535 95.9394 143.922 98.2066C159.631 105.94 164.422 115.955 164.422 115.955Z" stroke="#252529" stroke-width="0.845146" stroke-miterlimit="10"/>
<path opacity="0.6" d="M45.8535 55.6293C121.064 -1.61049 197.436 60.4296 196.119 132.417C196.084 134.254 198.649 134.722 199.325 133.024C215.701 91.5883 225.267 88.521 230.622 147.771C230.726 148.949 232.476 148.932 232.546 147.736C239.322 48.3509 180.193 22.599 136.834 17.972C92.0023 13.189 59.5785 38.577 44.3458 53.9657C43.358 54.9535 44.727 56.4785 45.8361 55.6293H45.8535Z" fill="#5E00D4"/>
<path d="M37.5823 201.046C84.8402 230.056 160.935 230.351 198.141 214.65C200.03 213.853 201.434 216.418 199.788 217.613C182.77 229.9 148.249 246.45 105.463 240.506C71.3578 235.775 47.2002 215.239 35.728 203.299C34.5149 202.034 36.1092 200.128 37.5996 201.046H37.5823Z" fill="black"/>
</svg>
