<svg width="209" height="209" viewBox="0 0 209 209" fill="none" xmlns="http://www.w3.org/2000/svg">
<path d="M104.567 207.703C161.479 207.703 207.616 161.567 207.616 104.655C207.616 47.7426 161.479 1.60626 104.567 1.60626C47.6552 1.60626 1.5188 47.7426 1.5188 104.655C1.5188 161.567 47.6552 207.703 104.567 207.703Z" fill="#38007E" stroke="black" stroke-width="2.11287" stroke-miterlimit="10" stroke-linecap="round"/>
<path d="M105.602 165.965C60.7694 165.965 14.4004 159.718 14.4004 149.264C14.4004 138.81 60.7694 132.563 105.602 132.563C150.434 132.563 196.803 138.81 196.803 149.264C196.803 159.718 150.434 165.965 105.602 165.965Z" fill="#FFCA10"/>
<ellipse cx="105.415" cy="146.876" rx="49.1912" ry="8.48124" fill="#F4B000"/>
<path d="M104.766 132.654C154.847 132.654 195.443 139.821 195.443 148.672C195.443 157.522 154.847 164.689 104.766 164.689C54.686 164.689 14.0892 157.522 14.0892 148.672C14.0892 139.821 54.686 132.654 104.766 132.654ZM104.766 131.215C80.4601 131.215 57.6073 132.885 40.3958 135.921C21.9898 139.174 12.6501 143.462 12.6501 148.657C12.6501 153.852 21.9898 158.141 40.3958 161.393C57.6073 164.43 80.4601 166.099 104.766 166.099C129.073 166.099 151.925 164.43 169.137 161.393C187.543 158.141 196.883 153.852 196.883 148.657C196.883 143.462 187.543 139.174 169.137 135.921C151.925 132.885 129.073 131.215 104.766 131.215Z" fill="black"/>
<path d="M115.475 120.62L114.701 124.316C113.503 130.058 110.037 134.69 105.47 137.532C103.478 138.775 101.279 139.674 98.9669 140.18C98.9142 140.193 98.8576 140.201 98.8049 140.213C95.4847 140.909 91.9378 140.792 88.4475 139.691C81.2726 137.431 74.6039 135.508 72.6522 135.508C70.7006 135.508 64.0318 137.431 56.8569 139.691C45.2808 143.339 33.081 136.2 30.603 124.316L29.8297 120.62C28.453 114.016 30.7164 107.371 35.4214 102.998C37.0329 101.496 38.9319 100.261 41.0698 99.3864C48.3094 96.4266 58.6385 93.8433 72.6522 93.8433C86.6659 93.8433 96.995 96.4266 104.235 99.3864C112.612 102.816 117.325 111.756 115.475 120.62Z" fill="#2F0B41" stroke="#252529" stroke-width="0.398495" stroke-miterlimit="10"/>
<path fill-rule="evenodd" clip-rule="evenodd" d="M109.659 108.806C107.795 106.166 105.158 104.022 101.938 102.735C95.2107 100.048 85.6127 97.7034 72.5908 97.7034C59.569 97.7034 49.971 100.048 43.2437 102.735C41.2572 103.529 39.4926 104.65 37.9951 106.013C33.6232 109.983 31.5199 116.014 32.7992 122.008L33.5178 125.364C33.8891 127.104 34.4954 128.731 35.2963 130.224C33.926 128.264 32.9171 126.009 32.387 123.526L31.6684 120.17C30.3891 114.175 32.4923 108.144 36.8643 104.175C38.3618 102.811 40.1263 101.69 42.1129 100.896C48.8402 98.2097 58.4382 95.8649 71.46 95.8649C84.4818 95.8649 94.0799 98.2097 100.807 100.896C104.746 102.471 107.812 105.327 109.659 108.806Z" fill="#BEBEC2"/>
<path d="M118.165 119.038L117.383 122.783C115.954 129.63 111.338 134.922 105.467 137.53C110.035 134.687 113.5 130.055 114.699 124.314L115.472 120.617C117.323 111.754 112.61 102.814 104.232 99.384C96.9926 96.4241 86.6594 93.8409 72.6498 93.8409C58.6401 93.8409 48.307 96.4241 41.0673 99.384C38.9295 100.259 37.0305 101.494 35.4189 102.996C37.3503 100.655 39.8688 98.7564 42.8368 97.5417C47.562 95.6062 53.587 93.8328 61.0736 92.8164C65.1996 92.2536 69.7709 91.9257 74.8079 91.9257C85.9995 91.9257 94.8749 93.5534 101.718 95.7156C103.552 96.2946 105.236 96.91 106.783 97.5417C115.266 101.012 120.04 110.065 118.165 119.038Z" fill="#FFCA10" stroke="#252529" stroke-width="0.398495" stroke-miterlimit="10"/>
<path d="M124.602 118.931C122.812 127.867 115.69 136.998 98.9677 140.176C101.28 139.67 103.478 138.771 105.47 137.528C111.342 134.921 115.957 129.629 117.387 122.782L118.168 119.036C120.043 110.064 115.269 101.01 106.786 97.5399C105.24 96.9083 103.555 96.2928 101.721 95.7138C94.8782 93.5516 86.0027 91.9239 74.8112 91.9239C69.7742 91.9239 65.2029 92.2519 61.0769 92.8147C67.4865 90.8914 76.8722 89.5188 86.4765 89.5755C87.1405 89.5755 87.8005 89.5876 88.4646 89.6079H88.4686C95.6111 89.7941 102.77 90.8064 108.819 92.9969C114.747 95.1389 119.606 98.4105 122.339 103.152C122.541 103.5 122.732 103.865 122.914 104.245C123.132 104.686 123.335 105.152 123.521 105.63C124.987 109.367 125.566 114.121 124.602 118.931Z" fill="#FFCA10" stroke="#252529" stroke-width="0.398495" stroke-miterlimit="10"/>
<path d="M167.518 98.8155C166.044 99.8319 164.287 97.6008 158.339 100.929L147.674 106.618L132.664 114.627L129.36 116.392L124.598 118.931L117.383 122.782L118.164 119.036C118.925 115.392 118.589 111.732 117.35 108.44L123.517 105.63L141.163 97.3053H141.167L152.986 91.7297C153.986 91.2601 154.913 90.6567 155.751 89.9401C163.473 83.3037 170.644 75.6794 166.518 70.5371C170.263 73.8816 168.984 97.8114 167.518 98.8155Z" fill="#FFCA10" stroke="black" stroke-width="0.398495" stroke-miterlimit="10"/>
<path d="M124.599 118.934C122.81 127.87 115.687 137.001 98.9648 140.179C101.277 139.673 103.475 138.774 105.468 137.531C111.339 134.923 115.955 129.631 117.384 122.784L124.599 118.934Z" stroke="#252529" stroke-width="0.398495" stroke-miterlimit="10"/>
<path d="M147.676 103.337V107.24C147.676 110.548 145.898 113.601 143.015 115.229L139.063 117.464C138.545 117.759 138.002 117.933 137.46 118.002L137.193 118.027C136.585 118.067 135.982 117.974 135.427 117.763C133.808 117.172 132.561 115.638 132.561 113.674V110.398C132.561 106.685 134.682 103.3 138.027 101.689L141.995 99.7695C142.776 99.393 143.594 99.2958 144.355 99.4294C144.712 99.4861 145.06 99.5954 145.384 99.7452L145.493 99.7979C146.756 100.438 147.676 101.737 147.676 103.337Z" fill="#FFCA10" stroke="black" stroke-width="0.398495" stroke-miterlimit="10"/>
<path d="M145.386 99.7427C145.062 99.5929 144.714 99.4836 144.358 99.4269C143.597 99.2933 142.779 99.3904 141.997 99.767L138.029 101.686C134.685 103.298 132.563 106.683 132.563 110.396V113.671C132.563 115.635 133.81 117.17 135.43 117.761C135.984 117.971 136.588 118.065 137.195 118.024L133.668 118.368L133.401 118.393C130.935 118.546 128.603 116.611 128.603 113.878V110.756C128.603 106.492 131.061 102.613 134.911 100.787L139.369 98.6738C140.669 98.0583 142.058 98.119 143.212 98.6576L143.406 98.7547L145.386 99.7427Z" fill="#F4B000" stroke="black" stroke-width="0.398495" stroke-miterlimit="10"/>
<path d="M155.756 89.942C154.918 90.6586 153.991 91.262 152.991 91.7316L141.172 97.3072H141.168L123.522 105.632C123.336 105.154 123.133 104.689 122.915 104.247L138.479 97.0197H138.483L151.626 90.9178C152.885 90.3347 154.043 89.5654 155.064 88.626C162.291 81.9613 172.863 71.4581 160.579 68.4538C149.646 65.7814 130.838 68.7696 117.388 73.3369C114.46 74.3289 111.788 75.3978 109.504 76.4992C96.5148 82.763 91.8949 88.1887 88.4694 89.6099H88.4654C87.8013 89.5897 87.1413 89.5776 86.4773 89.5776C92.6116 85.2006 101.281 75.9931 125.077 69.5146C143.625 64.4614 160.263 65.2631 165.413 69.4417C165.842 69.7899 166.211 70.1544 166.515 70.5309C166.519 70.5309 166.519 70.535 166.523 70.539C170.649 75.6813 163.478 83.3056 155.756 89.942Z" fill="#F4B000" stroke="black" stroke-width="0.398495" stroke-miterlimit="10"/>
<path d="M166.512 70.5318C166.491 70.5112 166.471 70.4948 166.45 70.4783" stroke="#252529" stroke-width="0.398495" stroke-miterlimit="10"/>
<path d="M119.443 92.414C115.438 91.4463 112.482 91.8026 108.818 93.0011C102.769 90.8106 95.61 89.7983 88.4675 89.612C91.893 88.1908 96.513 82.7651 109.502 76.5013C111.786 75.3999 114.458 74.331 117.386 73.339C114.264 79.2587 115.948 89.1909 119.443 92.414Z" fill="#FFCA10" stroke="black" stroke-width="0.398495" stroke-miterlimit="10"/>
<path d="M155.064 88.6251C154.044 89.5645 152.886 90.3338 151.626 90.9169L138.483 97.0187H138.479C132.96 96.3871 127.931 95.4761 124.563 94.1156C122.639 93.3382 120.967 92.7794 119.445 92.4109C115.95 89.1879 114.266 79.2556 117.388 73.336C130.839 68.7687 149.646 65.7805 160.579 68.4528C172.864 71.4572 162.292 81.9604 155.064 88.6251Z" fill="#F4B000" stroke="black" stroke-width="0.398495" stroke-miterlimit="10"/>
<path opacity="0.6" d="M38.2966 46.7104C100.62 -0.721205 163.905 50.6882 162.814 110.34C162.785 111.862 164.91 112.25 165.47 110.843C179.041 76.5077 186.967 73.966 191.405 123.063C191.491 124.04 192.941 124.026 192.999 123.035C198.613 40.6792 149.617 19.3399 113.687 15.5058C76.5377 11.5424 49.6698 32.58 37.0472 45.3319C36.2287 46.1504 37.3632 47.4141 38.2822 46.7104H38.2966Z" fill="#5E00D4"/>
<path d="M31.4435 167.208C70.6036 191.247 133.659 191.491 164.49 178.481C166.056 177.82 167.219 179.946 165.855 180.936C151.753 191.118 123.147 204.832 87.6922 199.906C59.4314 195.986 39.4134 178.969 29.907 169.075C28.9017 168.027 30.2229 166.447 31.4578 167.208H31.4435Z" fill="black"/>
</svg>
