<svg width="141" height="141" viewBox="0 0 141 141" fill="none" xmlns="http://www.w3.org/2000/svg">
<g id="Group">
<path id="Vector" d="M70.4401 139.669C108.674 139.669 139.669 108.674 139.669 70.4401C139.669 32.206 108.674 1.21118 70.4401 1.21118C32.206 1.21118 1.21118 32.206 1.21118 70.4401C1.21118 108.674 32.206 139.669 70.4401 139.669Z" fill="#38007E" fill-opacity="0.5" stroke="#5E13B9" stroke-width="1.57499" stroke-miterlimit="10" stroke-linecap="round"/>
<path id="Vector_2" opacity="0.1" d="M70.6435 135.16C106.275 135.16 135.16 106.275 135.16 70.6434C135.16 35.0118 106.275 6.12671 70.6435 6.12671C35.0119 6.12671 6.12674 35.0118 6.12674 70.6434C6.12674 106.275 35.0119 135.16 70.6435 135.16Z" fill="#FFCA10"/>
<g id="Group_2">
<path id="Vector_3" d="M70.4408 111.232C40.322 111.232 9.17086 107.036 9.17086 100.012C9.17086 92.9891 40.322 88.7925 70.4408 88.7925C100.56 88.7925 131.711 92.9891 131.711 100.012C131.711 107.036 100.56 111.232 70.4408 111.232Z" fill="#FFCA10"/>
<path id="Vector_4" d="M80.1141 110.018C56.9128 110.018 32.9164 103.954 32.9164 93.8051C32.9164 83.6563 56.9128 77.5922 80.1141 77.5922C103.315 77.5922 127.312 83.6563 127.312 93.8051C127.312 103.954 103.315 110.018 80.1141 110.018Z" fill="#F4B000"/>
<path id="Vector_5" d="M70.9077 89.5635C104.48 89.5635 131.695 94.3678 131.695 100.301C131.695 106.234 104.48 111.038 70.9077 111.038C37.3351 111.038 10.1201 106.234 10.1201 100.301C10.1201 94.3678 37.3351 89.5635 70.9077 89.5635ZM70.9077 88.5988C54.6134 88.5988 39.2935 89.7179 27.7554 91.7534C15.4165 93.9337 9.15541 96.8086 9.15541 100.291C9.15541 103.774 15.4165 106.649 27.7554 108.829C39.2935 110.865 54.6134 111.984 70.9077 111.984C87.202 111.984 102.522 110.865 114.06 108.829C126.399 106.649 132.66 103.774 132.66 100.291C132.66 96.8086 126.399 93.9337 114.06 91.7534C102.522 89.7179 87.202 88.5988 70.9077 88.5988Z" fill="black"/>
<g id="Group 14589">
<path id="Vector 120" d="M16.3323 84.3411L15.9239 83.7284L15.5154 73.313L19.8041 72.9045L21.4379 84.1369L16.3323 84.3411Z" fill="#F4B000" stroke="#252529" stroke-width="0.629997" stroke-linecap="round" stroke-linejoin="round"/>
<path id="Vector 119" d="M59.6268 100.474H49.4156L46.7607 98.0238L45.5353 79.2351H59.6268V100.474Z" fill="#F4B000" stroke="#252529" stroke-width="0.629997" stroke-linecap="round" stroke-linejoin="round"/>
<path id="Vector_6" d="M62.7635 96.4803C62.7635 101.022 62.2693 105.144 61.097 107.819C60.3414 109.543 59.2998 110.67 57.9275 110.915H57.9111C57.7273 110.952 57.5394 110.968 57.3434 110.968C53.4059 110.968 48.9457 102.836 48.9457 94.9568C48.9457 87.0778 50.9185 82.3602 54.8559 82.3602C56.1385 82.3602 57.4292 83.026 58.581 84.1942C60.9582 86.6081 62.7635 91.1705 62.7635 96.4803Z" fill="black" stroke="#252529" stroke-width="0.629997" stroke-linecap="round" stroke-linejoin="round"/>
<path id="Vector_7" d="M22.095 85.4558C22.095 85.7703 22.0909 86.0725 22.0868 86.3666C21.9806 90.4144 21.1842 92.4975 19.775 92.4975C18.2637 92.4975 16.0091 86.8894 16.0091 82.2495C16.0091 77.6095 17.116 75.2854 18.6273 75.2854C19.677 75.2854 20.9391 77.9526 21.613 81.1344C21.9112 82.5354 22.095 84.0385 22.095 85.4558Z" fill="black" stroke="#252529" stroke-width="0.629997" stroke-linecap="round" stroke-linejoin="round"/>
<path id="Vector_8" d="M27.6744 85.4558C27.6744 90.0999 26.8657 92.4975 25.3503 92.4975H19.775C21.1841 92.4975 21.9806 90.4144 22.0868 86.3666C22.0909 86.0725 22.095 85.7703 22.095 85.4558C22.095 84.0385 21.9112 82.5354 21.613 81.1344C20.9391 77.9526 19.677 75.2854 18.6272 75.2854H24.2067C25.7179 75.2854 27.6744 80.8158 27.6744 85.4558Z" fill="black" stroke="#252529" stroke-width="0.629997" stroke-linecap="round" stroke-linejoin="round"/>
<path id="Vector_9" d="M70.492 95.7901C70.492 103.665 69.0052 110.274 65.0678 110.274L57.9281 110.915C59.3005 110.67 60.342 109.543 61.0976 107.819C62.2699 105.144 62.7641 101.022 62.7641 96.4804C62.7641 91.1706 60.9588 86.6082 58.5816 84.1943C57.4298 83.0261 56.1391 82.3603 54.8565 82.3603L61.7716 81.7436H61.7879L62.5803 81.67C66.5178 81.67 70.492 87.9111 70.492 95.7901Z" fill="black" stroke="#252529" stroke-width="0.629997" stroke-linecap="round" stroke-linejoin="round"/>
<path id="Vector_10" d="M127.242 96.3494C127.336 98.7265 127.352 100.397 112.031 103.407C96.7103 106.422 73.1061 109.681 64.3121 106.793C64.1855 97.6401 60.1174 82.2211 54.0151 80.4158C47.9129 78.6104 45.0783 92.4977 49.4487 100.532L23.1078 88.1109C22.4461 87.7964 22.5319 83.8917 21.184 79.4355C21.184 79.4355 19.5502 73.852 17.4426 74.0154C15.335 74.1787 16.0089 83.8917 16.0089 83.8917L14.902 81.8862V71.8383C14.902 69.9921 15.8374 68.2807 17.365 67.2392C18.2922 66.6061 19.3623 65.7524 20.3548 64.67C22.8382 61.9661 29.7083 53.5275 37.4362 53.5235C46.9939 52.6126 72.9753 52.8536 81.7202 57.1587C90.4651 61.4637 93.1323 67.039 93.1323 67.039C93.1323 67.039 115.85 69.8614 122.467 75.2856C122.729 75.5062 122.965 75.7349 123.178 75.9677C123.831 77.1073 122.402 79.5172 121.663 79.8684C117.639 80.1503 96.7063 82.1149 94.5292 82.9318C92.1806 83.8141 87.8102 86.5915 87.1445 89.0463C86.6625 90.823 92.4053 99.6741 93.7287 101.435C95.052 103.199 97.6947 103.121 99.1651 103.195C100.631 103.268 111.717 101.647 118.767 100.103C125.812 98.5591 125.812 97.0887 126.245 95.2547C127.634 87.8373 127.818 83.8794 126.245 83.1401C126.139 83.087 126.033 83.0298 125.927 82.9604C125.796 82.5601 125.927 81.5431 125.927 81.5431C126.017 81.6819 126.119 81.7963 126.233 81.8862C126.564 82.1598 126.874 82.3681 127.132 82.5234C127.589 82.8011 127.855 83.3035 127.822 83.8386C127.65 86.5507 127.168 94.3929 127.246 96.3494H127.242Z" fill="#FFCA10" stroke="#252529" stroke-width="0.629997" stroke-miterlimit="10"/>
<path id="Vector_11" d="M93.1326 67.0395C87.1733 66.4105 56.6254 68.8408 51.1195 70.5685C49.1385 64.0824 47.7048 59.9244 45.924 57.3389C50.662 54.8923 75.3814 55.897 81.7205 57.1592C90.4654 61.4642 93.1326 67.0395 93.1326 67.0395Z" fill="#111111" stroke="#252529" stroke-width="0.629997" stroke-miterlimit="10"/>
<path id="Vector_12" d="M81.7196 57.1585C75.3805 55.8964 50.6611 54.8916 45.9231 57.3382C43.9339 54.4464 41.52 53.5233 37.4478 53.5233C47.0055 52.6125 72.9747 52.8535 81.7196 57.1585Z" fill="#500FA2" stroke="#252529" stroke-width="0.629997" stroke-miterlimit="10"/>
<path id="Vector_13" d="M125.923 82.9603C124.514 82.0576 123.439 79.8357 122.275 79.8357C122.185 79.8357 121.977 79.8479 121.663 79.8683C122.402 79.5171 123.831 77.1072 123.178 75.9677C125.114 78.063 125.228 80.481 125.923 81.543C125.923 81.543 125.792 82.56 125.923 82.9603Z" fill="#FFF5DC" stroke="#252529" stroke-width="0.629997" stroke-linecap="round" stroke-linejoin="round"/>
<path id="Vector_14" d="M126.242 95.2547C125.809 97.0886 125.809 98.559 118.764 100.103C111.714 101.647 100.628 103.268 99.1621 103.195C97.6917 103.121 95.049 103.199 93.7256 101.434C92.4023 99.6741 86.6595 90.823 87.1414 89.0462C87.8072 86.5914 92.1776 83.814 94.5262 82.9317C96.7032 82.1148 117.636 80.1502 121.659 79.8725C121.974 79.8479 122.182 79.8357 122.272 79.8357C123.436 79.8357 124.51 82.0577 125.92 82.9603C126.026 83.0298 126.132 83.0869 126.238 83.14C127.811 83.8793 127.627 87.8372 126.238 95.2547H126.242Z" stroke="#252529" stroke-width="0.629997" stroke-miterlimit="10"/>
<path id="Vector_15" d="M37.4482 53.5234H37.4358" stroke="#252529" stroke-width="0.629997" stroke-miterlimit="10"/>
<path id="Vector_16" d="M59.5822 96.4793C59.5822 102.859 58.0954 107.401 55.3629 107.401C52.6304 107.401 49.7631 102.051 49.7631 95.6706C49.7631 89.2906 51.4173 85.3613 54.1457 85.3613C56.8742 85.3613 59.5781 90.0993 59.5781 96.4793H59.5822Z" fill="#2F0B41" stroke="#252529" stroke-width="0.629997" stroke-linecap="round" stroke-linejoin="round"/>
<path id="Vector_17" d="M63.8214 81.1263L65.9739 85.9664C65.9739 85.9664 75.4377 88.9032 83.2554 87.8208C85.7633 85.8847 91.5469 82.6498 93.1358 82.3639C80.9599 79.6477 66.6233 80.1583 63.8254 81.1263H63.8214Z" fill="#FFF5DC" stroke="#252529" stroke-width="0.629997" stroke-linecap="round" stroke-linejoin="round"/>
<path id="Vector_18" d="M69.3437 97.0476C69.5725 96.6555 70.0259 96.4513 70.4711 96.5452C74.2901 97.3621 82.4591 97.2723 84.6198 97.4847C86.9152 97.7134 89.2557 102.79 93.1318 103.264C93.0992 103.444 93.6342 104.98 86.1719 105.164C78.7095 105.347 70.8918 104.106 69.2335 103.571C67.7426 103.093 68.0571 99.2247 69.3478 97.0435L69.3437 97.0476Z" fill="#F4B000" stroke="#252529" stroke-width="0.629997" stroke-linecap="round" stroke-linejoin="round"/>
<path id="Vector_19" d="M126.242 95.2547C125.809 97.0886 125.809 98.559 118.764 100.103C111.714 101.647 100.628 103.268 99.1621 103.195C97.6917 103.121 95.049 103.199 93.7256 101.434C92.4023 99.6741 86.6595 90.823 87.1414 89.0462C87.8072 86.5914 92.1776 83.814 94.5262 82.9317C96.7032 82.1148 117.636 80.1502 121.659 79.8725C121.974 79.8479 122.182 79.8357 122.272 79.8357C123.436 79.8357 124.51 82.0577 125.92 82.9603C126.026 83.0298 126.132 83.0869 126.238 83.14C127.811 83.8793 127.627 87.8372 126.238 95.2547H126.242Z" fill="#F4B000" stroke="#252529" stroke-width="0.629997" stroke-linecap="round" stroke-linejoin="round"/>
<path id="Vector_20" d="M21.3198 85.06C21.3198 88.5154 20.7153 90.3004 19.592 90.3004C18.4688 90.3004 16.7901 86.126 16.7901 82.6705C16.7901 79.215 17.611 77.4873 18.7384 77.4873C19.8657 77.4873 21.3198 81.6045 21.3198 85.06Z" fill="#2F0B41" stroke="#252529" stroke-width="0.629997" stroke-linecap="round" stroke-linejoin="round"/>
<path id="Vector_21" d="M36.9019 55.4022C36.9019 55.4022 33.52 63.8326 32.7888 67.2146L21.0214 65.1233C24.0113 61.8149 30.2197 55.6718 36.4935 55.4104C36.6323 55.4063 36.7671 55.4022 36.9019 55.4022Z" fill="#111111" stroke="#252529" stroke-width="0.629997" stroke-linecap="round" stroke-linejoin="round"/>
<path id="Vector_22" d="M31.048 90.5208C26.8369 88.5684 23.3447 86.9469 23.3447 86.9469C22.2419 77.9079 17.6673 68.9833 19.8157 66.4917C20.122 66.1405 20.5264 65.6707 21.0206 65.1234L32.788 67.2147C29.3489 72.6552 29.7043 88.5357 31.048 90.5208Z" fill="#500FA2" stroke="#252529" stroke-width="0.629997" stroke-miterlimit="10"/>
<path id="Vector_23" d="M46.9819 69.8333L46.4754 69.7393H46.4713C45.344 69.3921 43.3181 68.1545 43.3058 67.4765C43.2732 65.4506 42.8566 64.311 38.8047 64.4499C34.7529 64.5888 33.7155 66.2185 33.7155 66.2185C33.6011 66.5248 33.5602 66.8352 33.597 67.1375C33.6052 67.2151 33.6215 67.2968 33.6419 67.3744L32.7883 67.2151C33.5194 63.8331 36.9014 55.4027 36.9014 55.4027C43.8491 55.3088 45.0581 60.5329 46.9819 69.8333Z" fill="#111111" stroke="#252529" stroke-width="0.629997" stroke-linecap="round" stroke-linejoin="round"/>
<path id="Vector_24" d="M43.3059 67.4762C41.0839 67.9541 35.8313 68.0358 33.597 67.1372C33.5603 66.835 33.6011 66.5245 33.7155 66.2182C33.7155 66.2182 34.753 64.5885 38.8048 64.4496C42.8566 64.3107 43.2732 65.4503 43.3059 67.4762Z" stroke="#252529" stroke-width="0.629997" stroke-linecap="round" stroke-linejoin="round"/>
<path id="Vector_25" d="M46.9825 69.8327C46.2065 70.9682 45.6265 71.9893 45.1976 72.9533C45.1976 71.8504 42.0321 70.4413 41.5461 69.3385C41.8442 69.2445 42.122 69.122 42.3589 68.979C42.9389 68.6359 43.3065 68.1458 43.3065 67.476C43.3187 68.154 45.3446 69.3916 46.472 69.7388H46.476C46.6803 69.8041 46.8559 69.8368 46.9825 69.8327Z" fill="#2F0B41" stroke="#252529" stroke-width="0.629997" stroke-linecap="round" stroke-linejoin="round"/>
<path id="Vector_26" d="M45.3926 97.1657C44.3919 96.7082 37.003 93.2813 31.0519 90.5243C31.0519 90.5243 31.0519 90.5202 31.0479 90.5202C29.7041 88.5352 29.3487 72.6547 32.7878 67.2141L33.6415 67.3734C33.858 68.2393 34.6953 69.0154 36.0718 69.3993C37.3053 69.7465 39.8295 69.8976 41.545 69.338C42.0311 70.4409 45.1965 71.85 45.1965 72.9528V72.961C43.9671 75.7384 43.9712 78.0707 43.9712 81.5058C43.9712 86.1417 44.7554 96.0915 45.3926 97.1657Z" fill="#500FA2" stroke="#252529" stroke-width="0.629997" stroke-miterlimit="10"/>
<path id="Vector_27" d="M43.3061 67.4762C43.3061 68.1461 42.9385 68.6362 42.3585 68.9793C42.1216 69.1223 41.8439 69.2448 41.5457 69.3387C39.8302 69.8983 37.306 69.7472 36.0725 69.4C34.696 69.0161 33.8587 68.24 33.6422 67.3741C33.6218 67.2965 33.6055 67.2148 33.5973 67.1372C35.8315 68.0358 41.0842 67.9541 43.3061 67.4762Z" fill="#2F0B41" stroke="#252529" stroke-width="0.629997" stroke-linecap="round" stroke-linejoin="round"/>
<path id="Vector_28" d="M43.2079 67.3649C40.986 67.8428 35.7333 67.9245 33.4991 67.0259C33.4623 66.7236 33.5032 66.4132 33.6175 66.1069C33.6175 66.1069 34.655 64.4772 38.7068 64.3383C42.7586 64.1994 43.1753 65.339 43.2079 67.3649Z" fill="#500FA2" stroke="#252529" stroke-width="0.629997" stroke-linecap="round" stroke-linejoin="round"/>
<path id="Vector_29" d="M33.5971 67.1365C33.5971 67.1365 33.5888 67.1323 33.5847 67.1323" stroke="#252529" stroke-width="0.629997" stroke-linecap="round" stroke-linejoin="round"/>
<path id="Vector_30" d="M57.9284 110.915L57.9121 110.919L57.3443 110.968" stroke="#252529" stroke-width="0.629997" stroke-linecap="round" stroke-linejoin="round"/>
<path id="Vector 121" d="M59.0147 69.2288L66.7752 55.9542L75.1484 56.3627L69.0217 68.2077L59.0147 69.2288Z" fill="#2F270D" stroke="#252529" stroke-width="0.629997" stroke-linecap="round" stroke-linejoin="round"/>
<path id="Vector_31" d="M93.1326 67.0395C87.1733 66.4105 56.6254 68.8408 51.1195 70.5685C49.1385 64.0824 47.7048 59.9244 45.924 57.3389C50.662 54.8923 75.3814 55.897 81.7205 57.1592C90.4654 61.4642 93.1326 67.0395 93.1326 67.0395Z" stroke="#252529" stroke-width="0.629997" stroke-miterlimit="10"/>
</g>
</g>
<path id="Vector_32" opacity="0.6" d="M25.92 31.5113C67.7892 -0.353724 110.305 34.1836 109.572 74.2584C109.552 75.281 110.98 75.5415 111.356 74.596C120.473 51.5294 125.798 49.8218 128.779 82.8059C128.837 83.4619 129.812 83.4523 129.85 82.7866C133.622 27.4594 100.706 13.1235 76.5682 10.5477C51.6107 7.88505 33.5606 22.0183 25.0807 30.5851C24.5308 31.135 25.2929 31.984 25.9103 31.5113H25.92Z" fill="#5E00D4"/>
<path id="Vector_33" d="M21.3169 112.464C47.625 128.614 89.9862 128.778 110.699 120.037C111.751 119.594 112.532 121.021 111.615 121.687C102.142 128.527 82.9244 137.74 59.1053 134.431C40.1194 131.797 26.6711 120.365 20.2846 113.718C19.6093 113.014 20.4968 111.953 21.3265 112.464H21.3169Z" fill="black"/>
</g>
</svg>
