<svg width="198" height="198" viewBox="0 0 198 198" fill="none" xmlns="http://www.w3.org/2000/svg">
<path d="M99.2288 196.485C152.944 196.485 196.488 152.941 196.488 99.2258C196.488 45.511 152.944 1.96655 99.2288 1.96655C45.514 1.96655 1.96948 45.511 1.96948 99.2258C1.96948 152.941 45.514 196.485 99.2288 196.485Z" fill="#38007E" stroke="black" stroke-width="2.11287" stroke-miterlimit="10" stroke-linecap="round"/>
<path d="M99.2284 156.528C56.9146 156.528 13.1506 150.632 13.1506 140.765C13.1506 130.899 56.9146 125.003 99.2284 125.003C141.542 125.003 185.306 130.899 185.306 140.765C185.306 150.632 141.542 156.528 99.2284 156.528Z" fill="#FFCA10"/>
<path d="M106.433 152.719C84.594 152.719 62.0063 149.676 62.0063 144.583C62.0063 139.491 84.594 136.448 106.433 136.448C128.272 136.448 150.86 139.491 150.86 144.583C150.86 149.676 128.272 152.719 106.433 152.719Z" fill="#F4B000"/>
<path d="M99.2276 125.682C146.393 125.682 184.628 132.432 184.628 140.767C184.628 149.102 146.393 155.852 99.2276 155.852C52.0617 155.852 13.8275 149.102 13.8275 140.767C13.8275 132.432 52.0617 125.682 99.2276 125.682ZM99.2276 124.327C76.3359 124.327 54.813 125.899 38.6031 128.759C21.2683 131.822 12.4722 135.861 12.4722 140.753C12.4722 145.646 21.2683 149.685 38.6031 152.748C54.813 155.608 76.3359 157.18 99.2276 157.18C122.119 157.18 143.642 155.608 159.852 152.748C177.187 149.685 185.983 145.646 185.983 140.753C185.983 135.861 177.187 131.822 159.852 128.759C143.642 125.899 122.119 124.327 99.2276 124.327Z" fill="black"/>
<path d="M118.47 30.7842L148.652 143.653H63.0308L42.7962 30.7842H118.47Z" fill="black" stroke="black" stroke-width="0.542555" stroke-linecap="round" stroke-linejoin="round"/>
<path d="M120.898 30.7842L149.249 143.653H65.5933L45.6607 30.7842H120.898Z" fill="#58009E" stroke="black" stroke-width="0.542555" stroke-linecap="round" stroke-linejoin="round"/>
<path d="M53.1092 36.5644L71.4542 136.839H140.579L116.016 36.5644H53.1092Z" fill="#FFCA10" stroke="black" stroke-width="0.542555" stroke-linecap="round" stroke-linejoin="round"/>
<path d="M90.5582 100.923C90.769 101.937 90.8942 102.544 90.9073 102.627C93.0482 104.414 98.1927 108.286 103.838 113.089L123.184 121.501L119.285 109.852C119.285 109.852 114.555 97.6586 108.89 93.8011C108.752 93.8977 107.619 97.4792 101.48 99.2389C95.347 100.999 90.5582 100.923 90.5582 100.923Z" fill="#F4B000" stroke="#252529" stroke-width="0.542555" stroke-linecap="round" stroke-linejoin="round"/>
<path d="M53.1092 36.5644L71.4542 136.839H140.579L116.016 36.5644H53.1092Z" stroke="black" stroke-width="0.542555" stroke-linecap="round" stroke-linejoin="round"/>
<path d="M117.988 35.6561C117.217 35.6561 116.592 35.0011 116.592 34.1931C116.592 33.3852 117.217 32.7302 117.988 32.7302C118.76 32.7302 119.385 33.3852 119.385 34.1931C119.385 35.0011 118.76 35.6561 117.988 35.6561Z" fill="#7B07B5"/>
<path d="M108.721 35.2513C107.95 35.2513 107.325 34.5963 107.325 33.7883C107.325 32.9804 107.95 32.3254 108.721 32.3254C109.492 32.3254 110.118 32.9804 110.118 33.7883C110.118 34.5963 109.492 35.2513 108.721 35.2513Z" fill="#7B07B5"/>
<path d="M98.8162 35.2513C98.0449 35.2513 97.4197 34.5963 97.4197 33.7883C97.4197 32.9804 98.0449 32.3254 98.8162 32.3254C99.5874 32.3254 100.213 32.9804 100.213 33.7883C100.213 34.5963 99.5874 35.2513 98.8162 35.2513Z" fill="#7B07B5"/>
<path d="M88.9202 35.2513C88.1489 35.2513 87.5237 34.5963 87.5237 33.7883C87.5237 32.9804 88.1489 32.3254 88.9202 32.3254C89.6914 32.3254 90.3167 32.9804 90.3167 33.7883C90.3167 34.5963 89.6914 35.2513 88.9202 35.2513Z" fill="#7B07B5"/>
<path d="M79.0108 35.2513C78.2395 35.2513 77.6143 34.5963 77.6143 33.7883C77.6143 32.9804 78.2395 32.3254 79.0108 32.3254C79.782 32.3254 80.4072 32.9804 80.4072 33.7883C80.4072 34.5963 79.782 35.2513 79.0108 35.2513Z" fill="#7B07B5"/>
<path d="M69.1101 35.2513C68.3389 35.2513 67.7137 34.5963 67.7137 33.7883C67.7137 32.9804 68.3389 32.3254 69.1101 32.3254C69.8814 32.3254 70.5066 32.9804 70.5066 33.7883C70.5066 34.5963 69.8814 35.2513 69.1101 35.2513Z" fill="#7B07B5"/>
<path d="M59.2095 35.2513C58.4383 35.2513 57.813 34.5963 57.813 33.7883C57.813 32.9804 58.4383 32.3254 59.2095 32.3254C59.9807 32.3254 60.606 32.9804 60.606 33.7883C60.606 34.5963 59.9807 35.2513 59.2095 35.2513Z" fill="#7B07B5"/>
<path d="M50.001 35.7036C49.2298 35.7036 48.6045 35.0486 48.6045 34.2406C48.6045 33.4327 49.2298 32.7777 50.001 32.7777C50.7722 32.7777 51.3975 33.4327 51.3975 34.2406C51.3975 35.0486 50.7722 35.7036 50.001 35.7036Z" fill="#7B07B5"/>
<path d="M69.2637 141.378C68.3323 141.378 67.5774 140.587 67.5774 139.611C67.5774 138.635 68.3323 137.845 69.2637 137.845C70.195 137.845 70.95 138.635 70.95 139.611C70.95 140.587 70.195 141.378 69.2637 141.378Z" fill="#7B07B5"/>
<path d="M79.6931 141.692C78.7618 141.692 78.0068 140.901 78.0068 139.925C78.0068 138.95 78.7618 138.159 79.6931 138.159C80.6244 138.159 81.3794 138.95 81.3794 139.925C81.3794 140.901 80.6244 141.692 79.6931 141.692Z" fill="#7B07B5"/>
<path d="M90.5661 141.692C89.6348 141.692 88.8799 140.901 88.8799 139.925C88.8799 138.95 89.6348 138.159 90.5661 138.159C91.4975 138.159 92.2524 138.95 92.2524 139.925C92.2524 140.901 91.4975 141.692 90.5661 141.692Z" fill="#7B07B5"/>
<path d="M101.435 141.692C100.503 141.692 99.7483 140.901 99.7483 139.925C99.7483 138.95 100.503 138.159 101.435 138.159C102.366 138.159 103.121 138.95 103.121 139.925C103.121 140.901 102.366 141.692 101.435 141.692Z" fill="#7B07B5"/>
<path d="M112.307 141.692C111.376 141.692 110.621 140.901 110.621 139.925C110.621 138.95 111.376 138.159 112.307 138.159C113.239 138.159 113.994 138.95 113.994 139.925C113.994 140.901 113.239 141.692 112.307 141.692Z" fill="#7B07B5"/>
<path d="M123.176 141.692C122.245 141.692 121.49 140.901 121.49 139.925C121.49 138.95 122.245 138.159 123.176 138.159C124.107 138.159 124.862 138.95 124.862 139.925C124.862 140.901 124.107 141.692 123.176 141.692Z" fill="#7B07B5"/>
<path d="M134.053 141.692C133.122 141.692 132.367 140.901 132.367 139.925C132.367 138.95 133.122 138.159 134.053 138.159C134.985 138.159 135.74 138.95 135.74 139.925C135.74 140.901 134.985 141.692 134.053 141.692Z" fill="#7B07B5"/>
<path d="M144.266 141.692C143.335 141.692 142.58 140.901 142.58 139.925C142.58 138.95 143.335 138.159 144.266 138.159C145.197 138.159 145.952 138.95 145.952 139.925C145.952 140.901 145.197 141.692 144.266 141.692Z" fill="#7B07B5"/>
<path d="M141.918 131.081C140.987 131.081 140.232 130.291 140.232 129.315C140.232 128.339 140.987 127.548 141.918 127.548C142.85 127.548 143.605 128.339 143.605 129.315C143.605 130.291 142.85 131.081 141.918 131.081Z" fill="#7B07B5"/>
<path d="M66.3508 131.081C65.4195 131.081 64.6645 130.291 64.6645 129.315C64.6645 128.339 65.4195 127.548 66.3508 127.548C67.2821 127.548 68.0371 128.339 68.0371 129.315C68.0371 130.291 67.2821 131.081 66.3508 131.081Z" fill="#7B07B5"/>
<path d="M139.576 120.467C138.644 120.467 137.889 119.677 137.889 118.701C137.889 117.725 138.644 116.934 139.576 116.934C140.507 116.934 141.262 117.725 141.262 118.701C141.262 119.677 140.507 120.467 139.576 120.467Z" fill="#7B07B5"/>
<path d="M64.6592 120.467C63.7279 120.467 62.9729 119.677 62.9729 118.701C62.9729 117.725 63.7279 116.934 64.6592 116.934C65.5905 116.934 66.3455 117.725 66.3455 118.701C66.3455 119.677 65.5905 120.467 64.6592 120.467Z" fill="#7B07B5"/>
<path d="M136.885 109.856C135.953 109.856 135.198 109.065 135.198 108.089C135.198 107.113 135.953 106.323 136.885 106.323C137.816 106.323 138.571 107.113 138.571 108.089C138.571 109.065 137.816 109.856 136.885 109.856Z" fill="#7B07B5"/>
<path d="M62.6872 109.856C61.7559 109.856 61.0009 109.065 61.0009 108.089C61.0009 107.113 61.7559 106.323 62.6872 106.323C63.6186 106.323 64.3735 107.113 64.3735 108.089C64.3735 109.065 63.6186 109.856 62.6872 109.856Z" fill="#7B07B5"/>
<path d="M134.225 99.2383C133.294 99.2383 132.539 98.4474 132.539 97.4717C132.539 96.4961 133.294 95.7051 134.225 95.7051C135.156 95.7051 135.911 96.4961 135.911 97.4717C135.911 98.4474 135.156 99.2383 134.225 99.2383Z" fill="#7B07B5"/>
<path d="M60.6069 99.2383C59.6756 99.2383 58.9206 98.4474 58.9206 97.4717C58.9206 96.4961 59.6756 95.7051 60.6069 95.7051C61.5382 95.7051 62.2932 96.4961 62.2932 97.4717C62.2932 98.4474 61.5382 99.2383 60.6069 99.2383Z" fill="#7B07B5"/>
<path d="M131.555 88.5845C130.646 88.5845 129.909 87.8121 129.909 86.8593C129.909 85.9065 130.646 85.1342 131.555 85.1342C132.465 85.1342 133.202 85.9065 133.202 86.8593C133.202 87.8121 132.465 88.5845 131.555 88.5845Z" fill="#7B07B5"/>
<path d="M58.6518 88.5845C57.7423 88.5845 57.005 87.8121 57.005 86.8593C57.005 85.9065 57.7423 85.1342 58.6518 85.1342C59.5613 85.1342 60.2986 85.9065 60.2986 86.8593C60.2986 87.8121 59.5613 88.5845 58.6518 88.5845Z" fill="#7B07B5"/>
<path d="M128.875 77.9287C127.983 77.9287 127.261 77.1717 127.261 76.238C127.261 75.3043 127.983 74.5473 128.875 74.5473C129.766 74.5473 130.489 75.3043 130.489 76.238C130.489 77.1717 129.766 77.9287 128.875 77.9287Z" fill="#7B07B5"/>
<path d="M126.533 67.2807C125.66 67.2807 124.952 66.5392 124.952 65.6245C124.952 64.7099 125.66 63.9684 126.533 63.9684C127.406 63.9684 128.114 64.7099 128.114 65.6245C128.114 66.5392 127.406 67.2807 126.533 67.2807Z" fill="#7B07B5"/>
<path d="M57.0383 77.9287C56.147 77.9287 55.4244 77.1717 55.4244 76.238C55.4244 75.3043 56.147 74.5473 57.0383 74.5473C57.9296 74.5473 58.6521 75.3043 58.6521 76.238C58.6521 77.1717 57.9296 77.9287 57.0383 77.9287Z" fill="#7B07B5"/>
<path d="M55.0587 67.2807C54.1856 67.2807 53.4778 66.5392 53.4778 65.6245C53.4778 64.7099 54.1856 63.9684 55.0587 63.9684C55.9318 63.9684 56.6396 64.7099 56.6396 65.6245C56.6396 66.5392 55.9318 67.2807 55.0587 67.2807Z" fill="#7B07B5"/>
<path d="M123.804 56.5988C122.967 56.5988 122.289 55.8882 122.289 55.0116C122.289 54.1351 122.967 53.4245 123.804 53.4245C124.641 53.4245 125.319 54.1351 125.319 55.0116C125.319 55.8882 124.641 56.5988 123.804 56.5988Z" fill="#7B07B5"/>
<path d="M53.1119 56.5988C52.2752 56.5988 51.5969 55.8882 51.5969 55.0116C51.5969 54.1351 52.2752 53.4245 53.1119 53.4245C53.9486 53.4245 54.627 54.1351 54.627 55.0116C54.627 55.8882 53.9486 56.5988 53.1119 56.5988Z" fill="#7B07B5"/>
<path d="M121.111 45.9192C120.311 45.9192 119.662 45.2395 119.662 44.401C119.662 43.5625 120.311 42.8828 121.111 42.8828C121.911 42.8828 122.56 43.5625 122.56 44.401C122.56 45.2395 121.911 45.9192 121.111 45.9192Z" fill="#7B07B5"/>
<path d="M51.1876 45.9192C50.3872 45.9192 49.7384 45.2395 49.7384 44.401C49.7384 43.5625 50.3872 42.8828 51.1876 42.8828C51.9879 42.8828 52.6367 43.5625 52.6367 44.401C52.6367 45.2395 51.9879 45.9192 51.1876 45.9192Z" fill="#7B07B5"/>
<path d="M82.0297 61.5893C81.7465 60.3334 81.8255 59.0912 82.1878 57.9664C82.1878 57.9595 82.1878 57.9526 82.1944 57.9457C82.9058 54.1848 85.7382 53.474 87.5365 53.474C87.0754 52.4734 86.3245 51.6798 85.6921 51.1346C85.0598 50.5964 84.5394 50.3066 84.5394 50.3066H86.0939C86.0939 50.3066 87.9778 51.4314 88.5246 53.4119H89.6444C92.2002 53.4119 94.4991 55.0612 95.4213 57.5593C96.1854 59.4294 97.3249 63.4801 98.313 67.2548C99.2945 70.9881 97.2986 74.7421 93.9919 75.9774L94.0709 76.2396L96.2578 83.8649C96.2578 83.8649 102.812 84.3687 108.892 89.8686C103.128 74.5489 98.8926 57.1452 96.8441 55.0129C88.3665 44.6479 81.2524 46.6354 76.4834 50.1271C71.7077 53.6258 75.1594 73.6104 75.5151 77.1091C75.8708 80.6078 77.1816 86.853 70.5155 93.7192C80.9758 94.0919 90.6127 102.373 90.9091 102.628C90.8959 102.545 90.7708 101.938 90.56 100.924C90.5402 100.827 90.5205 100.723 90.4941 100.613L90.4546 100.42L90.3426 99.8816L83.9465 70.0841L82.9321 65.5779L82.8992 65.433C82.8267 65.1501 82.7609 64.8741 82.695 64.6187C82.5501 64.0322 82.4315 63.4732 82.3393 62.9487L82.0297 61.5893Z" fill="#252529" stroke="#252529" stroke-width="0.542555" stroke-linecap="round" stroke-linejoin="round"/>
<path d="M82.9333 65.5774L83.9477 70.0836L90.3438 99.881C89.1383 94.043 86.2466 80.1656 84.1387 70.7736C84.1387 70.7736 84.1321 70.7736 84.1321 70.7667C83.6908 68.8 83.2824 67.0334 82.9333 65.5774Z" stroke="#252529" stroke-width="0.542555" stroke-linecap="round" stroke-linejoin="round"/>
<path d="M82.0288 61.5883L82.3384 62.9477C81.9563 60.8775 81.9497 59.242 82.1869 57.9654C81.8246 59.0902 81.7455 60.3324 82.0288 61.5883Z" stroke="#252529" stroke-width="0.542555" stroke-linecap="round" stroke-linejoin="round"/>
<path d="M82.3374 62.947L82.8973 65.4313L82.9302 65.5762C83.2793 67.0323 83.6877 68.7989 84.1291 70.7656C84.1291 70.7725 84.1357 70.7725 84.1357 70.7725C85.183 74.1332 88.1867 76.3966 91.5593 76.3966C91.8294 76.3966 92.0995 76.3828 92.3761 76.3552C92.9426 76.2931 93.4827 76.162 93.99 75.9757C97.2967 74.7404 99.2926 70.9864 98.3111 67.2531C97.323 63.4784 96.1835 59.4276 95.4193 57.5575C94.4972 55.0595 92.1983 53.4102 89.6425 53.4102H88.5227C87.9759 51.4297 86.092 50.3048 86.092 50.3048H84.5375C84.5375 50.3048 85.0579 50.5947 85.6902 51.1329C86.3226 51.6781 87.0735 52.4717 87.5346 53.4723C85.7363 53.4723 82.9039 54.1831 82.1925 57.944C82.1859 57.9509 82.1859 57.9578 82.1859 57.9647C81.9488 59.2413 81.9553 60.8768 82.3374 62.947Z" stroke="#252529" stroke-width="0.542555" stroke-linecap="round" stroke-linejoin="round"/>
<path d="M84.1292 70.7667C83.6878 68.8 83.2794 67.0334 82.9303 65.5774L83.9447 70.0836C83.9974 70.3182 84.0567 70.5459 84.1292 70.7667Z" stroke="#252529" stroke-width="0.542555" stroke-linecap="round" stroke-linejoin="round"/>
<path d="M70.5114 93.7196C71.3677 94.8652 76.0972 98.5295 77.0589 100.924C77.7572 102.649 77.9811 106.01 82.131 108.26C82.3484 109.046 84.4826 112.766 86.9132 117.9C90.0421 116.72 92.2224 118.39 98.467 117.983C98.3221 117.665 98.2298 117.237 98.243 116.678C98.2891 115.174 100.819 114.422 103.835 113.09C98.1903 108.287 93.0458 104.416 90.905 102.629C90.6086 102.373 80.9717 94.0923 70.5114 93.7196Z" fill="#500FA2" stroke="#252529" stroke-width="0.542555" stroke-linecap="round" stroke-linejoin="round"/>
<path d="M82.0288 61.5883L82.3384 62.9477C81.9563 60.8775 81.9497 59.242 82.1869 57.9654C81.8246 59.0902 81.7455 60.3324 82.0288 61.5883Z" stroke="#252529" stroke-width="0.542555" stroke-linecap="round" stroke-linejoin="round"/>
<path d="M84.1376 70.7741C86.2454 80.166 89.1372 94.0435 90.3426 99.8815L90.4546 100.42L90.4941 100.613C90.5205 100.723 90.5402 100.827 90.56 100.924C90.56 100.924 95.3488 100.999 101.481 99.2397C107.621 97.48 108.754 93.8985 108.892 93.8019C103.451 87.3221 96.2578 83.8648 96.2578 83.8648L94.0709 76.2395L93.9919 75.9773C93.4847 76.1636 92.9445 76.2947 92.378 76.3568C92.1014 76.3844 91.8313 76.3982 91.5612 76.3982C88.1886 76.3982 85.1849 74.1348 84.1376 70.7741Z" stroke="#252529" stroke-width="0.542555" stroke-linecap="round" stroke-linejoin="round"/>
<path d="M96.2556 83.8643C96.2556 83.8643 103.449 87.3216 108.89 93.8014C114.554 97.659 119.284 109.853 119.284 109.853L123.184 121.501C123.184 121.501 133.262 128.312 128.302 114.635C122.492 100.923 114.62 98.2386 108.89 89.868C102.81 84.3681 96.2556 83.8643 96.2556 83.8643Z" fill="#500FA2" stroke="#252529" stroke-width="0.542555" stroke-linecap="round" stroke-linejoin="round"/>
<path d="M88.8782 110.205C85.8876 109.826 83.7205 109.122 82.133 108.259" stroke="#252529" stroke-width="0.542555" stroke-linecap="round" stroke-linejoin="round"/>
<path d="M66.307 108.701L71.4581 136.842H93.7224C93.5182 135.849 93.2745 134.848 93.0044 133.854C92.3062 133.923 91.608 133.965 90.9163 133.972C82.9064 134.068 81.2135 121.261 85.3371 118.7C85.9035 118.348 86.4173 118.093 86.918 117.9C84.4873 112.766 82.3531 109.046 82.1357 108.26C77.9859 106.01 77.7619 102.649 77.0637 100.924C76.102 98.5295 71.3724 94.8652 70.5161 93.7196C68.3753 94.4787 65.7536 103.588 66.307 108.701Z" fill="#2F0B41" stroke="black" stroke-width="0.542555" stroke-linecap="round" stroke-linejoin="round"/>
<path d="M93.0026 133.855C93.2727 134.849 93.5164 135.849 93.7206 136.843H124.337C123.909 135.621 123.303 134.359 122.546 133.061C122.289 132.633 122.019 132.199 121.736 131.757C121.788 132.35 121.815 132.923 121.828 133.461C121.847 134.379 120.675 133.827 120.207 133.572C120.234 134.138 120.234 134.745 120.207 135.387C120.161 136.063 119.193 136.394 118.146 135.552C118.06 135.884 117.908 136.167 117.684 136.38C117.065 137.043 116.123 136.553 114.556 132.716C113.587 129.942 111.157 128.396 109.325 128.9C109.128 128.955 108.858 129.052 108.515 129.183C105.946 130.191 99.4975 133.213 93.0026 133.855Z" fill="#500FA2" stroke="#252529" stroke-width="0.542555" stroke-linecap="round" stroke-linejoin="round"/>
<path d="M99.4018 118.888C99.4458 118.901 99.4709 118.907 99.4709 118.907" stroke="#252529" stroke-width="0.542555" stroke-linecap="round" stroke-linejoin="round"/>
<path d="M117.216 120.595C119.844 120.74 123.098 123.155 122.505 130.035C122.4 131.077 121.682 130.27 121.524 130.076C121.616 130.635 121.682 131.201 121.735 131.746C122.018 132.195 122.288 132.63 122.545 133.058C124.271 134.231 130.943 132.961 131.418 127.537C131.892 122.12 130.311 115.419 124.87 111.976C120.911 109.478 115.227 109.202 110.859 110.147C120.259 113.556 117.216 120.595 117.216 120.595Z" fill="#F4B000" stroke="#252529" stroke-width="0.542555" stroke-linecap="round" stroke-linejoin="round"/>
<path d="M103.098 120.626C103.098 120.626 103.117 120.606 103.13 120.6" stroke="#252529" stroke-width="0.542555" stroke-linecap="round" stroke-linejoin="round"/>
<path d="M103.704 125.11V125.103" stroke="#252529" stroke-width="0.542555" stroke-linecap="round" stroke-linejoin="round"/>
<path d="M108.516 129.18C108.773 129.146 109.043 129.056 109.326 128.897" stroke="#252529" stroke-width="0.542555" stroke-linecap="round" stroke-linejoin="round"/>
<path d="M90.9159 133.97C91.6075 133.97 92.3058 133.922 93.004 133.853C99.4989 133.211 105.948 130.189 108.517 129.181C107.311 129.354 106.422 128.36 106.514 127.415C106.099 127.801 105.658 128.036 105.19 128.057C103.339 128.126 103.273 126.359 103.708 125.11C102.68 125.959 101.706 126.476 101.1 126.221C99.6372 125.6 100.217 123.171 103.095 120.624C101.02 122.184 98.8599 123.274 98.2473 122.08C97.8258 121.259 98.4186 120.059 99.4001 118.885C99.2222 118.823 98.7545 118.609 98.4713 117.981C92.2267 118.389 90.0464 116.719 86.9175 117.899C86.4169 118.092 85.9031 118.347 85.3366 118.699C81.2131 121.259 82.906 134.067 90.9159 133.97Z" fill="#F4B000" stroke="#252529" stroke-width="0.542555" stroke-linecap="round" stroke-linejoin="round"/>
<path d="M109.321 128.9C111.152 128.396 113.583 129.942 114.551 132.716C116.119 136.553 117.061 137.043 117.68 136.381C117.904 136.167 118.056 135.884 118.141 135.552C119.189 136.394 120.157 136.063 120.203 135.387C120.229 134.745 120.229 134.138 120.203 133.572C120.671 133.827 121.843 134.379 121.824 133.461C121.81 132.923 121.784 132.35 121.731 131.757C121.679 131.205 121.613 130.639 121.521 130.08C121.679 130.273 122.397 131.081 122.502 130.039C123.095 123.159 119.841 120.743 117.213 120.598C113.346 119.902 112.938 124.29 110.817 127.416C110.323 128.155 109.809 128.624 109.321 128.9Z" stroke="#252529" stroke-width="0.542555" stroke-linecap="round" stroke-linejoin="round"/>
<path d="M121.519 130.081C120.992 126.81 119.688 123.567 116.941 123.45" stroke="#252529" stroke-width="0.542555" stroke-linecap="round" stroke-linejoin="round"/>
<path d="M115.737 126.294C117.812 126.507 119.972 128.688 120.203 133.574" stroke="#252529" stroke-width="0.542555" stroke-linecap="round" stroke-linejoin="round"/>
<path d="M118.141 135.55C118.721 133.315 116.343 128.919 114.868 128.47" stroke="#252529" stroke-width="0.542555" stroke-linecap="round" stroke-linejoin="round"/>
<path d="M94.0155 64.5283C93.7463 64.1256 93.7938 63.6042 94.1216 63.3637C94.4494 63.1232 94.9334 63.2548 95.2026 63.6575C95.4717 64.0602 95.4242 64.5817 95.0964 64.8221C94.7686 65.0626 94.2846 64.931 94.0155 64.5283Z" stroke="#252529" stroke-width="0.542555" stroke-linecap="round" stroke-linejoin="round"/>
<path d="M98.2471 122.08C98.8597 123.274 101.02 122.184 103.095 120.624C100.217 123.171 99.637 125.6 101.099 126.221C101.705 126.476 102.68 125.959 103.708 125.11C103.273 126.359 103.339 128.126 105.19 128.057C105.658 128.036 106.099 127.801 106.514 127.415C106.422 128.36 107.311 129.354 108.516 129.181C108.859 129.05 109.129 128.954 109.327 128.898C109.814 128.622 110.328 128.153 110.822 127.415C112.943 124.289 113.351 119.9 117.218 120.597C117.218 120.597 120.261 113.558 110.861 110.149H110.848C109.221 110.501 107.779 111.025 106.672 111.667C105.723 112.219 104.755 112.682 103.84 113.089C100.823 114.421 98.2932 115.173 98.2471 116.677C98.2339 117.236 98.3261 117.664 98.4711 117.981C98.7543 118.609 99.222 118.823 99.3998 118.885C98.4184 120.059 97.8255 121.259 98.2471 122.08Z" fill="#FFCA10" stroke="#252529" stroke-width="0.542555" stroke-linecap="round" stroke-linejoin="round"/>
<path d="M106.512 117.538C105.702 118.435 104.437 119.608 103.126 120.595C103.113 120.602 103.107 120.616 103.094 120.623" fill="#FFCA10"/>
<path d="M106.512 117.538C105.702 118.435 104.437 119.608 103.126 120.595C103.113 120.602 103.107 120.616 103.094 120.623" stroke="#252529" stroke-width="0.542555" stroke-linecap="round" stroke-linejoin="round"/>
<path d="M99.3962 118.888C100.76 117.266 102.881 115.706 104.106 115.313L99.3962 118.888Z" fill="#FFCA10"/>
<path d="M99.3962 118.888C100.76 117.266 102.881 115.706 104.106 115.313" stroke="#252529" stroke-width="0.542555" stroke-linecap="round" stroke-linejoin="round"/>
<path d="M103.708 125.113C105.17 123.898 106.725 122.021 107.403 120.827L103.708 125.113Z" fill="#FFCA10"/>
<path d="M103.708 125.113C105.17 123.898 106.725 122.021 107.403 120.827" stroke="#252529" stroke-width="0.542555" stroke-linecap="round" stroke-linejoin="round"/>
<path d="M110.072 121.837C109.077 123.245 107.924 126.136 106.515 127.413L110.072 121.837Z" fill="#FFCA10"/>
<path d="M110.072 121.837C109.077 123.245 107.924 126.136 106.515 127.413" stroke="#252529" stroke-width="0.542555" stroke-linecap="round" stroke-linejoin="round"/>
<path d="M88.6873 64.7138C88.4182 64.311 88.4657 63.7896 88.7935 63.5492C89.1213 63.3087 89.6053 63.4402 89.8744 63.843C90.1436 64.2457 90.0961 64.7671 89.7683 65.0076C89.4405 65.248 88.9565 65.1165 88.6873 64.7138Z" stroke="#252529" stroke-width="0.542555" stroke-linecap="round" stroke-linejoin="round"/>
<path d="M95.3823 61.7954C94.9608 61.2571 93.9727 60.8086 93.4589 61.057" stroke="#252529" stroke-width="0.542555" stroke-linecap="round" stroke-linejoin="round"/>
<path d="M88.6387 61.0941C87.9536 61.0941 86.847 61.6047 86.8272 62.3224" stroke="#252529" stroke-width="0.542555" stroke-linecap="round" stroke-linejoin="round"/>
<path d="M92.8443 66.1631C93.7204 66.8807 94.1683 67.6191 93.7599 67.9504C93.3515 68.2816 92.1394 67.9504 91.8167 67.5225" stroke="#252529" stroke-width="0.542555" stroke-linecap="round" stroke-linejoin="round"/>
<path d="M93.6951 71.2162C92.8387 71.2162 91.4752 71.1472 91.0734 70.3467" stroke="#252529" stroke-width="0.542555" stroke-linecap="round" stroke-linejoin="round"/>
<path opacity="0.6" d="M36.68 44.5372C95.5019 -0.229766 155.232 48.2914 154.202 104.592C154.175 106.029 156.18 106.395 156.709 105.067C169.517 72.6605 176.999 70.2615 181.187 116.601C181.268 117.522 182.637 117.509 182.691 116.574C187.99 38.8448 141.746 18.7043 107.835 15.0856C72.7728 11.3448 47.4143 31.2006 35.5009 43.236C34.7283 44.0086 35.7991 45.2013 36.6665 44.5372H36.68Z" fill="#5E00D4"/>
<path d="M30.2137 158.265C67.1738 180.953 126.687 181.184 155.786 168.904C157.263 168.281 158.361 170.287 157.074 171.222C143.764 180.831 116.766 193.775 83.3024 189.126C56.6293 185.426 37.7358 169.365 28.7634 160.027C27.8147 159.038 29.0616 157.547 30.2272 158.265H30.2137Z" fill="black"/>
</svg>
