<svg width="121" height="121" viewBox="0 0 121 121" fill="none" xmlns="http://www.w3.org/2000/svg">
<g id="Group">
<path id="Vector" d="M60.5 120C93.361 120 120 93.3609 120 60.5C120 27.639 93.361 1 60.5 1C27.6391 1 1 27.639 1 60.5C1 93.3609 27.6391 120 60.5 120Z" fill="#38007E" fill-opacity="0.5" stroke="#5E13B9" stroke-width="1.57499" stroke-miterlimit="10" stroke-linecap="round"/>
<path id="Vector_2" opacity="0.1" d="M60.5 116.281C91.3072 116.281 116.281 91.3071 116.281 60.5C116.281 29.6929 91.3072 4.71875 60.5 4.71875C29.6929 4.71875 4.71875 29.6929 4.71875 60.5C4.71875 91.3071 29.6929 116.281 60.5 116.281Z" fill="#FFCA10"/>
<g id="Group_2">
<g id="Group 14588">
<path id="Vector_3" d="M66.2652 69.1627L65.8222 71.2799C65.1358 74.5683 63.1508 77.2212 60.5349 78.8492C59.394 79.5611 58.1348 80.0759 56.8106 80.3658C56.7805 80.3727 56.748 80.3774 56.7178 80.3843C54.8163 80.7832 52.7848 80.716 50.7858 80.0852C46.6766 78.7912 42.8572 77.6897 41.7394 77.6897C40.6217 77.6897 36.8023 78.7912 32.693 80.0852C26.063 82.1746 19.0758 78.0862 17.6566 71.2799L17.2137 69.1627C16.4252 65.3804 17.7215 61.5749 20.4162 59.0704C21.3392 58.2101 22.4268 57.5028 23.6512 57.0019C27.7976 55.3067 33.7134 53.8271 41.7394 53.8271C49.7655 53.8271 55.6813 55.3067 59.8276 57.0019C64.6256 58.9661 67.325 64.0864 66.2652 69.1627Z" fill="#2F0B41" stroke="#252529" stroke-width="0.29705" stroke-miterlimit="10"/>
<path id="Subtract" fill-rule="evenodd" clip-rule="evenodd" d="M62.935 62.3958C61.8674 60.884 60.3571 59.6567 58.5133 58.9194C54.6604 57.3807 49.1634 56.0377 41.7054 56.0377C34.2474 56.0377 28.7503 57.3807 24.8974 58.9194C23.7597 59.3741 22.749 60.0161 21.8914 60.797C19.3875 63.0704 18.1829 66.5247 18.9155 69.9579L19.3271 71.8798C19.5399 72.8764 19.8873 73.8089 20.3462 74.664C19.5611 73.5414 18.9832 72.2496 18.6795 70.8271L18.2679 68.9052C17.5353 65.472 18.7399 62.0177 21.2438 59.7443C22.1015 58.9634 23.1121 58.3214 24.2499 57.8667C28.1028 56.328 33.5998 54.985 41.0578 54.985C48.5158 54.985 54.0129 56.328 57.8657 57.8667C60.1211 58.7686 61.8774 60.4037 62.935 62.3958Z" fill="#BEBEC2"/>
<path id="Vector_4" d="M67.8066 68.2567L67.359 70.4017C66.5404 74.3232 63.8968 77.3541 60.5342 78.8475C63.1501 77.2196 65.1351 74.5667 65.8215 71.2783L66.2645 69.1611C67.3243 64.0848 64.6249 58.9644 59.8269 57.0002C55.6806 55.305 49.7625 53.8255 41.7387 53.8255C33.715 53.8255 27.7969 55.305 23.6505 57.0002C22.4261 57.5011 21.3385 58.2084 20.4155 59.0688C21.5217 57.7284 22.9641 56.6408 24.6639 55.9451C27.3702 54.8366 30.8209 53.8209 35.1087 53.2388C37.4718 52.9165 40.0899 52.7286 42.9748 52.7286C49.3845 52.7286 54.4677 53.6609 58.3868 54.8992C59.4373 55.2308 60.402 55.5833 61.2879 55.9451C66.1462 57.9325 68.8803 63.1178 67.8066 68.2567Z" fill="#FFCA10" stroke="#252529" stroke-width="0.29705" stroke-miterlimit="10"/>
<path id="Vector_5" d="M71.4911 68.1957C70.4661 73.3137 66.387 78.5431 56.8095 80.3635C58.1337 80.0736 59.3929 79.5588 60.5339 78.8468C63.8964 77.3534 66.5401 74.3225 67.3587 70.401L67.8062 68.256C68.8799 63.1171 66.1458 57.9318 61.2875 55.9444C60.4017 55.5826 59.437 55.2301 58.3865 54.8985C54.4673 53.6602 49.3841 52.7279 42.9744 52.7279C40.0895 52.7279 37.4714 52.9158 35.1083 53.2381C38.7793 52.1366 44.1548 51.3505 49.6554 51.3829C50.0357 51.3829 50.4137 51.3899 50.7941 51.4015H50.7964C54.8871 51.5082 58.9871 52.0879 62.4517 53.3425C65.8467 54.5692 68.6295 56.443 70.1948 59.1585C70.3108 59.358 70.4198 59.5667 70.5241 59.7847C70.6493 60.0374 70.7653 60.3041 70.872 60.5778C71.7114 62.7182 72.043 65.4407 71.4911 68.1957Z" fill="#FFCA10" stroke="#252529" stroke-width="0.29705" stroke-miterlimit="10"/>
<path id="Vector_6" d="M96.0729 56.6747C95.2288 57.2567 94.2224 55.979 90.8158 57.8852L84.7075 61.1434L76.111 65.7304L74.2187 66.7414L71.4915 68.1954L67.3591 70.4008L67.8066 68.2557C68.2426 66.1686 68.0501 64.0723 67.3405 62.1869L70.8724 60.5775L80.9786 55.8097H80.9809L87.75 52.6164C88.3228 52.3474 88.8539 52.0019 89.3339 51.5914C93.7562 47.7906 97.8632 43.4239 95.5001 40.4788C97.6452 42.3943 96.9124 56.0995 96.0729 56.6747Z" fill="#FFCA10" stroke="black" stroke-width="0.29705" stroke-miterlimit="10"/>
<path id="Vector_7" d="M71.492 68.1975C70.467 73.3155 66.3879 78.5449 56.8104 80.3653C58.1346 80.0754 59.3938 79.5606 60.5347 78.8487C63.8973 77.3552 66.5409 74.3243 67.3596 70.4029L71.492 68.1975Z" stroke="#252529" stroke-width="0.29705" stroke-miterlimit="10"/>
<path id="Vector_8" d="M84.709 59.2641V61.4996C84.709 63.3942 83.6909 65.1427 82.0398 66.075L79.7764 67.3551C79.4796 67.5243 79.1689 67.6241 78.8581 67.6635L78.7051 67.6774C78.3572 67.7006 78.0117 67.6473 77.694 67.5267C76.7664 67.1881 76.0521 66.3092 76.0521 65.1845V63.3084C76.0521 61.1819 77.2673 59.2432 79.1828 58.3202L81.4554 57.221C81.903 57.0054 82.3714 56.9497 82.8074 57.0262C83.0114 57.0587 83.2109 57.1213 83.3964 57.2071L83.459 57.2373C84.1825 57.6037 84.709 58.3481 84.709 59.2641Z" fill="#FFCA10" stroke="black" stroke-width="0.29705" stroke-miterlimit="10"/>
<path id="Vector_9" d="M83.3954 57.2057C83.2098 57.1199 83.0104 57.0573 82.8063 57.0248C82.3704 56.9483 81.9019 57.004 81.4544 57.2196L79.1817 58.3189C77.2662 59.2418 76.0511 61.1805 76.0511 63.307V65.1831C76.0511 66.3078 76.7653 67.1867 77.6929 67.5253C78.0107 67.6459 78.3562 67.6992 78.704 67.676L76.6842 67.8731L76.5311 67.887C75.1189 67.9752 73.7831 66.8667 73.7831 65.3014V63.5134C73.7831 61.0715 75.1907 58.8499 77.3961 57.804L79.9493 56.5935C80.6937 56.241 81.4892 56.2758 82.1501 56.5842L82.2614 56.6399L83.3954 57.2057Z" fill="#F4B000" stroke="black" stroke-width="0.29705" stroke-miterlimit="10"/>
<path id="Vector_10" d="M89.3359 51.5928C88.8559 52.0032 88.3248 52.3488 87.752 52.6178L80.9829 55.811H80.9806L70.8744 60.5789C70.7677 60.3052 70.6517 60.0386 70.5265 59.7858L79.4408 55.6464H79.4431L86.9705 52.1516C87.6918 51.8177 88.355 51.3771 88.9394 50.8391C93.0788 47.022 99.1337 41.0065 92.0979 39.2858C85.8366 37.7553 75.0648 39.4667 67.3611 42.0825C65.6844 42.6507 64.1539 43.2629 62.846 43.8937C55.4066 47.4812 52.7607 50.5886 50.7988 51.4026H50.7965C50.4162 51.391 50.0382 51.3841 49.6578 51.3841C53.1711 48.8772 58.1361 43.6038 71.7649 39.8934C82.3882 36.9993 91.917 37.4585 94.8667 39.8517C95.1126 40.0511 95.3236 40.2598 95.4975 40.4755C95.4998 40.4755 95.4998 40.4778 95.5021 40.4801C97.8652 43.4253 93.7583 47.7919 89.3359 51.5928Z" fill="#F4B000" stroke="black" stroke-width="0.29705" stroke-miterlimit="10"/>
<path id="Vector_11" d="M95.4967 40.4761C95.4849 40.4643 95.4731 40.4549 95.4613 40.4454" stroke="#252529" stroke-width="0.29705" stroke-miterlimit="10"/>
<path id="Vector_12" d="M68.5385 53.0083C66.245 52.4541 64.5521 52.6581 62.4535 53.3446C58.9889 52.09 54.8889 51.5102 50.7982 51.4036C52.76 50.5896 55.406 47.4821 62.8454 43.8946C64.1533 43.2639 65.6838 42.6517 67.3605 42.0835C65.5725 45.4739 66.5372 51.1624 68.5385 53.0083Z" fill="#FFCA10" stroke="black" stroke-width="0.29705" stroke-miterlimit="10"/>
<path id="Vector_13" d="M88.9376 50.8381C88.3533 51.3761 87.69 51.8167 86.9688 52.1506L79.4413 55.6454H79.439C76.2782 55.2836 73.398 54.7618 71.4686 53.9827C70.3671 53.5374 69.4093 53.2174 68.5374 53.0064C66.5361 51.1604 65.5714 45.4719 67.3593 42.0815C75.0631 39.4657 85.8348 37.7543 92.0961 39.2848C99.132 41.0055 93.0771 47.021 88.9376 50.8381Z" fill="#F4B000" stroke="black" stroke-width="0.29705" stroke-miterlimit="10"/>
</g>
</g>
<path id="Vector_14" opacity="0.6" d="M22.0635 26.8328C57.7578 -0.33265 94.0031 29.111 93.378 63.2756C93.3616 64.1474 94.5788 64.3694 94.8995 63.5634C102.672 43.8986 107.212 42.4429 109.753 70.5624C109.802 71.1217 110.633 71.1135 110.666 70.546C113.882 23.3786 85.8197 11.157 65.242 8.96101C43.9653 6.69105 28.5773 18.7399 21.3479 26.0433C20.8791 26.5121 21.5289 27.2358 22.0552 26.8328H22.0635Z" fill="#5E00D4"/>
<path id="Vector_15" d="M18.1399 95.8448C40.5681 109.613 76.6818 109.752 94.3398 102.301C95.2363 101.923 95.9025 103.14 95.1212 103.707C87.0447 109.539 70.6615 117.393 50.3552 114.572C34.1694 112.327 22.7045 102.581 17.2599 96.914C16.6842 96.3136 17.4408 95.4089 18.1481 95.8448H18.1399Z" fill="black"/>
</g>
</svg>
