<svg width="242" height="241" viewBox="0 0 242 241" fill="none" xmlns="http://www.w3.org/2000/svg">
<path d="M121.168 239.757C187.033 239.757 240.427 186.364 240.427 120.499C240.427 54.6344 187.033 1.2406 121.168 1.2406C55.3037 1.2406 1.90991 54.6344 1.90991 120.499C1.90991 186.364 55.3037 239.757 121.168 239.757Z" fill="#38007E" stroke="black" stroke-width="2.11287" stroke-miterlimit="10" stroke-linecap="round"/>
<path d="M121.166 190.764C69.2809 190.764 15.6179 183.535 15.6179 171.436C15.6179 159.338 69.2809 152.108 121.166 152.108C173.05 152.108 226.713 159.338 226.713 171.436C226.713 183.535 173.05 190.764 121.166 190.764Z" fill="#FFCA10"/>
<path d="M121.169 152.94C179.003 152.94 225.885 161.217 225.885 171.437C225.885 181.658 179.003 189.934 121.169 189.934C63.3344 189.934 16.4519 181.658 16.4519 171.437C16.4519 161.217 63.3344 152.94 121.169 152.94ZM121.169 151.279C93.0991 151.279 66.708 153.206 46.8316 156.713C25.5758 160.469 14.79 165.421 14.79 171.421C14.79 177.42 25.5758 182.373 46.8316 186.129C66.708 189.635 93.0991 191.563 121.169 191.563C149.238 191.563 175.629 189.635 195.506 186.129C216.762 182.373 227.547 177.42 227.547 171.421C227.547 165.421 216.762 160.469 195.506 156.713C175.629 153.206 149.238 151.279 121.169 151.279Z" fill="black"/>
<path opacity="0.6" d="M44.4735 53.4413C116.6 -1.45144 189.84 58.0448 188.577 127.08C188.544 128.842 191.004 129.291 191.652 127.662C207.357 87.9259 216.531 84.9843 221.666 141.805C221.766 142.935 223.444 142.918 223.511 141.772C230.009 46.4614 173.304 21.7654 131.724 17.3281C88.73 12.7412 57.6358 37.0882 43.0276 51.8459C42.0803 52.7932 43.3932 54.2557 44.4569 53.4413H44.4735Z" fill="#5E00D4"/>
<path d="M121.287 116.079V187.259L57.2371 177.586V106.407L121.287 116.079Z" fill="#500FA2" stroke="black" stroke-width="2.11287" stroke-linecap="round" stroke-linejoin="round"/>
<path d="M181.766 95.9198V167.116L171.03 170.656V132.881L156.572 138.165V175.508L121.29 187.258V116.079L149.758 58.7429L181.766 95.9198Z" fill="#FFCA10" stroke="black" stroke-width="2.11287" stroke-linecap="round" stroke-linejoin="round"/>
<path d="M149.772 58.7597L121.287 116.079L57.2371 106.407L85.7388 49.0708L149.772 58.7597Z" fill="#500FA2" stroke="black" stroke-width="2.11287" stroke-linecap="round" stroke-linejoin="round"/>
<path d="M171.028 132.881V170.657L165.261 169.693L165.41 154.968L171.028 132.881Z" fill="#FFCA10" stroke="black" stroke-width="2.11287" stroke-linecap="round" stroke-linejoin="round"/>
<path d="M165.409 154.97L165.259 169.694L156.568 172.586V158.31L165.376 155.02L165.409 154.97Z" fill="#FFCA10" stroke="black" stroke-width="2.11287" stroke-linecap="round" stroke-linejoin="round"/>
<path d="M156.779 138.314L170.723 133.217L165.221 154.85L156.779 158.004V138.314Z" fill="#2F0B41" stroke="black" stroke-width="0.422573"/>
<path d="M128.729 117.267L140.718 92.9826V165.273L128.729 169.244V117.267Z" fill="#500FA2" stroke="black" stroke-width="1.05643"/>
<path d="M87.1809 145.527L69.249 142.569C68.8335 142.503 68.5343 142.137 68.551 141.722L69.6312 109.58C69.6644 108.65 69.8805 107.769 70.2793 106.938L82.7769 81.1284C82.9098 80.8459 83.209 80.6631 83.5247 80.6631C83.5746 80.6631 83.6078 80.6631 83.6577 80.6631L101.59 83.6213C101.856 83.6711 102.072 83.8207 102.188 84.0533C102.304 84.286 102.304 84.5685 102.188 84.8012L89.6738 110.345C89.3747 110.976 89.1918 111.641 89.1752 112.356L88.1282 144.73C88.1282 144.962 88.0119 145.195 87.8291 145.344C87.6795 145.461 87.4967 145.527 87.2973 145.527C87.2474 145.527 87.2142 145.527 87.1643 145.527H87.1809Z" fill="#FFCA10"/>
<path d="M83.5285 81.4947L101.46 84.4529L88.9463 109.996C88.5807 110.728 88.3979 111.525 88.3646 112.34L87.3176 144.714L69.3856 141.755L70.4659 109.614C70.4991 108.816 70.6819 108.019 71.0309 107.304L83.5285 81.4947ZM83.5285 79.8328C82.897 79.8328 82.3153 80.1984 82.0327 80.7635L69.5352 106.573C69.0865 107.504 68.8372 108.517 68.804 109.548L67.7237 141.689C67.6905 142.52 68.2888 143.251 69.1198 143.384L87.0517 146.342C87.1348 146.342 87.2345 146.359 87.3176 146.359C87.6999 146.359 88.0655 146.226 88.3646 145.977C88.7303 145.678 88.9629 145.229 88.9629 144.747L90.0099 112.373C90.0265 111.791 90.1761 111.226 90.4254 110.711L102.94 85.1675C103.172 84.7022 103.172 84.1371 102.94 83.6718C102.707 83.2065 102.258 82.8741 101.726 82.791L83.7944 79.8328C83.7113 79.8328 83.6116 79.8162 83.5285 79.8162V79.8328Z" fill="black"/>
<path d="M36.5465 192.892C81.8667 220.712 154.841 220.995 190.522 205.938C192.334 205.173 193.68 207.633 192.101 208.779C175.781 220.562 142.676 236.434 101.643 230.733C68.9371 226.196 45.7701 206.503 34.7683 195.052C33.605 193.839 35.1339 192.011 36.5631 192.892H36.5465Z" fill="black"/>
</svg>
