<svg width="173" height="70" viewBox="0 0 173 70" fill="none" xmlns="http://www.w3.org/2000/svg">
<g id="Group 38377">
<g id="Rectangle 5257" filter="url(#filter0_d_1687_203)">
<rect x="8.5" y="8" width="156" height="54" rx="6" fill="#1E0240"/>
<rect x="9" y="8.5" width="155" height="53" rx="5.5" stroke="url(#paint0_linear_1687_203)"/>
</g>
<g id="Group 236">
<g id="Group">
<path id="Vector" d="M105.049 39.7195L109.833 50.2299L109.862 39.7195H111.959V49.3731H116.329V50.7726H107.943L106.496 47.8308H104.104V46.517H106.053L104.104 42.4042V39.748H105.049V39.7195ZM104.104 47.8022H101.653L100.236 50.744H96.3089V39.8051H98.553V50.4298L103.543 39.7195H104.104V42.3756L104.016 42.1471L102.185 46.4884H104.104V47.8022ZM50.0098 50.8011V50.03L50.4822 50.7726L50.0098 50.8011ZM50.0098 48.9447C50.9251 50.5441 52.9625 51.0296 54.5866 51.0582C56.624 51.0868 58.4251 50.0871 59.0157 49.316C60.0196 47.9165 59.6948 43.3181 59.6948 41.0047C63.061 40.7762 66.4566 41.2903 66.0432 45.5459C65.6298 49.4302 62.8838 49.8872 59.2224 49.7444C58.9862 50.1728 58.5728 50.5155 57.9822 50.7726C66.811 51.4295 67.3424 48.8019 68.2873 46.7169V50.7726L77.4704 50.8297V42.8326L84.4979 50.7726H86.2105V41.0047H90.0786V50.7726H92.3523V41.0333H96.5156V39.8337H84.4979V47.7451L77.4704 39.8337H75.8759V49.6016H70.1771V45.7173H74.9901V44.5463H70.1771L70.2066 40.9761H75.2263V39.8051H68.1102V43.4895C67.8149 42.8612 67.4606 42.2043 67.0472 41.6616C65.2165 39.4624 61.7322 39.8908 57.687 39.8908V45.3745C57.687 47.231 57.5098 49.7729 54.6161 49.8015C52.1062 49.8301 51.6043 48.3735 51.5157 45.9458C51.5452 44.3178 51.4566 41.6616 51.4566 39.8908H50.0098V48.9447ZM50.0098 39.9194V48.9447C49.6555 48.3735 49.5078 47.688 49.5078 46.8312V39.8908H50.0098V39.9194ZM50.0098 50.03L47.3228 45.9743C48.7696 45.2032 49.5078 43.9465 49.0354 42.1186C48.5629 40.4335 47.4114 40.0336 45.2263 40.0051H45.0492V40.9761H45.9055C47.2047 41.4617 47.3818 44.2035 46.2598 44.8604C45.994 45.0604 45.5511 45.1175 45.0492 45.1461V46.4313H45.2854L48.1496 50.8583L50.0098 50.7726V50.03ZM45.0787 40.0051V40.9761H43.1594V45.1175C43.6023 45.1175 44.3996 45.1746 45.0787 45.1461V46.4313H43.1594V50.8583H40.8858L40.9153 39.9765H45.0787V40.0051ZM36.5157 46.6884C37.0177 46.6884 37.5492 46.6598 37.9921 46.5741C38.1693 46.5455 38.996 46.2028 39.0846 46.1457C40.9744 45.0032 40.9744 41.5759 39.0846 40.4335C38.5236 40.1193 37.5787 39.9765 36.5157 39.9479V41.0904H37.1948C38.7303 41.3189 38.8779 43.6038 38.1988 44.7748C37.9035 45.2889 37.1948 45.4888 36.5157 45.5459V46.6884ZM36.5157 39.9479V41.0904H34.4193V45.5173C34.9212 45.5459 35.748 45.603 36.5157 45.5459V46.6884C36.1023 46.6884 35.6889 46.6884 35.3051 46.6598H34.4193V50.9154H32.5V40.0336C33.622 40.0051 35.1574 39.9194 36.5157 39.9479Z" fill="white"/>
<g id="Group_2">
<path id="Vector_2" d="M123.118 43.4597C123.118 43.4597 123.177 43.5739 123.503 43.8024C123.828 44.0309 123.947 44.0594 123.947 44.0594C123.947 44.0594 123.858 44.4022 123.858 44.9448C123.858 45.5161 124.095 46.5728 124.095 46.5442C124.095 46.5157 123.74 46.1158 123.414 45.2019C123.059 44.1737 123.118 43.4597 123.118 43.4597Z" fill="white"/>
<path id="Vector_3" d="M121.17 46.2018C121.17 46.2018 121.317 46.0019 121.376 45.7449C121.435 45.4878 121.435 45.2879 121.435 45.2879C121.435 45.2879 121.701 45.2593 122.055 44.9737C122.41 44.6881 122.646 44.4311 122.646 44.4311C122.646 44.4311 122.557 45.0594 122.144 45.5449C121.583 46.259 121.17 46.2018 121.17 46.2018Z" fill="white"/>
<path id="Vector_4" d="M122.704 45.6311C122.999 45.6311 122.999 47.5447 122.999 47.5161C122.999 47.4876 124.21 48.1445 124.21 48.7443C124.21 49.544 122.704 50.0866 122.704 50.0866C122.704 50.0866 122.615 50.7435 122.467 51.3719C122.32 52.0002 122.172 52.8285 122.172 52.8285C122.172 52.8285 122.084 52.2001 122.084 51.5718V50.6007C122.084 50.6007 121.286 50.8578 121.286 51.429C121.286 52.0002 121.493 51.8289 121.493 52.143C121.493 52.4572 121.286 52.8285 121.286 52.8285C121.286 52.8285 121.375 52.2573 120.843 51.9431C120.312 51.6289 120.46 51.0577 120.873 50.8292C121.286 50.6007 122.054 50.3151 122.054 50.3151C122.054 50.3151 122.084 49.7725 122.084 49.0584C122.084 48.3444 122.113 48.0017 122.113 48.0017C122.113 48.0017 120.696 47.8017 120.666 47.3162C120.666 47.202 121.05 47.1448 121.493 47.1448C121.818 47.1448 122.202 47.2305 122.202 47.2305C122.202 47.2305 122.526 45.6311 122.704 45.6311ZM122.969 48.1445C122.969 48.1445 122.91 48.7157 122.851 49.1441C122.792 49.5725 122.733 49.801 122.733 49.801C122.733 49.801 123.589 49.544 123.619 48.8871C123.678 48.2873 122.969 48.1445 122.969 48.1445Z" fill="white"/>
<path id="Vector_5" d="M126.841 42.2041V43.2323C126.841 43.2323 126.93 42.9752 128.2 42.5754C129.469 42.147 130.267 42.1184 130.267 42.1184L126.841 42.2041Z" fill="white"/>
<path id="Vector_6" d="M127.725 43.8591V43.2307C127.725 43.2307 128.257 43.1451 128.759 43.1451C129.645 43.1451 130.206 43.3164 130.206 43.3164C130.206 43.3164 129.94 43.2879 129.704 43.2879C129.467 43.2879 129.408 43.345 129.408 43.345C129.408 43.345 129.556 43.7448 129.261 43.8591C128.965 43.9733 128.936 43.9448 128.818 43.9733C128.7 44.0019 128.522 44.0019 128.522 44.0019L128.7 43.8305C128.7 43.8305 128.759 43.802 128.641 43.6877C128.522 43.5735 128.582 43.4021 128.582 43.4021C128.582 43.4021 128.463 43.4878 128.168 43.602C127.932 43.7448 127.725 43.8591 127.725 43.8591Z" fill="white"/>
<path id="Vector_7" d="M129.113 47.9167H129.969C129.969 47.9167 130.412 47.4312 130.56 47.4312C130.766 47.4312 130.855 47.7739 131.091 47.7739C131.15 47.7739 131.327 47.5169 131.475 47.5169C131.711 47.5169 131.711 47.9167 131.8 47.9167H132.036V47.9738H131.298C131.298 47.9738 131.239 48.1166 131.091 48.1166C130.944 48.1166 130.766 47.9453 130.766 47.9453H129.113V47.9167Z" fill="white"/>
<path id="Vector_8" d="M131.652 48.2301C131.652 48.2301 131.415 48.5443 130.795 48.5443C130.264 48.5443 130.028 48.3158 129.88 48.2301C129.85 48.2015 129.791 48.2015 129.732 48.2015C129.673 48.2015 129.703 48.2587 129.762 48.2587C129.821 48.2587 129.821 48.2872 129.85 48.2872C129.88 48.3443 129.909 48.4015 129.998 48.5157C130.205 48.7728 130.618 48.9441 130.795 48.9441C130.972 48.9441 131.179 48.887 131.504 48.6014C131.74 48.3729 131.652 48.2301 131.652 48.2301Z" fill="white"/>
<path id="Vector_9" d="M125.985 48.9749C125.985 48.9749 128.937 50.3173 130.355 50.3173C131.181 50.3173 131.24 50.1745 131.506 49.8603C131.772 49.5461 133.366 47.4326 133.662 45.976C133.987 44.5194 134.075 44.1195 134.075 44.1195C134.075 44.1195 134.193 45.6618 133.632 47.147C133.101 48.6607 131.831 50.2316 131.565 50.4887C131.3 50.7457 130.886 50.8028 130.059 50.7171C129.233 50.6315 127.727 50.1174 127.048 49.6318C126.339 49.1463 125.985 48.9749 125.985 48.9749Z" fill="white"/>
<path id="Vector_10" d="M133.543 53.8579V52.9439C133.543 52.5727 133.779 52.2014 134.134 51.9443C134.488 51.6873 134.783 51.6587 134.783 50.859C134.783 50.0593 134.754 50.1735 134.754 49.8308C134.754 49.4881 135.019 49.1453 135.374 49.1453C135.728 49.1453 136.112 49.6023 136.112 49.6023C136.112 49.6023 135.403 49.6023 135.285 50.4591C135.167 51.316 135.167 51.573 134.842 52.1157C134.517 52.6298 134.222 52.8583 133.986 53.1724C133.72 53.4866 133.543 53.8579 133.543 53.8579Z" fill="white"/>
<path id="Vector_11" d="M135.906 50.7722L136.408 51.0864C136.408 51.0864 136.438 50.8579 136.703 50.5723C136.969 50.2867 137.087 50.201 137.087 50.201C137.087 50.201 136.91 50.1153 136.438 50.3152C135.995 50.5437 135.906 50.7722 135.906 50.7722Z" fill="white"/>
<path id="Vector_12" d="M135.253 52.3732L135.903 52.8016C135.903 52.8016 136.021 52.4017 136.434 51.9448C136.818 51.5163 137.055 51.4307 137.055 51.4307C137.055 51.4307 136.582 51.345 136.021 51.6877C135.431 52.059 135.253 52.3732 135.253 52.3732Z" fill="white"/>
<path id="Vector_13" d="M139.357 43.0882C139.357 43.0882 139.387 41.6887 138.737 41.6887C138.265 41.6887 137.497 42.3456 136.463 45.573C135.843 47.5437 136.493 48.6862 136.493 48.6862C136.493 48.6862 136.67 46.5155 137.024 45.773C137.349 45.0304 138.265 42.8026 138.944 42.8026C139.239 42.8026 139.357 43.0882 139.357 43.0882Z" fill="white"/>
<path id="Vector_14" d="M133.75 42.6039C133.75 42.6039 132.037 42.4326 131.919 44.0606C131.889 44.489 131.978 44.4604 131.978 45.203V46.1455C131.978 46.3169 132.067 46.5739 131.565 46.5739H129.822C129.645 46.5739 129.557 46.6596 129.734 46.7167C129.941 46.7739 130.029 46.8024 130.177 46.8595C130.324 46.9452 130.443 46.9738 130.59 46.8881C130.708 46.831 130.738 46.7739 131.004 46.7739C131.269 46.7739 131.24 46.7739 131.328 46.8595C131.417 46.9452 131.446 46.9452 131.594 46.9452C131.742 46.9452 131.83 46.8881 132.008 46.6882C132.185 46.5168 132.303 46.0313 132.332 45.203C132.391 44.3747 132.421 43.6607 132.746 43.2037C133.13 42.8039 133.75 42.6039 133.75 42.6039Z" fill="white"/>
<path id="Vector_15" d="M133.692 43.5449C133.692 43.3164 133.515 43.1451 133.278 43.1451C133.041 43.1451 132.864 43.3164 132.864 43.5449C132.864 43.6591 132.923 43.7734 133.041 43.8591C133.041 43.8876 133.012 43.8876 133.012 43.9162C132.923 44.0019 132.775 44.059 132.775 44.059C132.775 44.059 132.893 44.1161 133.071 44.0304C133.16 44.0019 133.248 43.9733 133.308 43.9448C133.337 43.9448 133.367 43.9448 133.396 43.9162C133.574 43.8876 133.692 43.7448 133.692 43.5449Z" fill="white"/>
<path id="Vector_16" d="M133.812 41.6351V40.6355L132.924 40.4641C132.924 40.4641 133.397 40.6355 133.605 41.0068C133.812 41.2924 133.812 41.6351 133.812 41.6351Z" fill="white"/>
<path id="Vector_17" d="M134.28 40.0343C134.28 40.2056 134.221 40.2913 134.043 40.5198C133.866 40.7483 133.807 41.0625 133.541 40.8911C133.276 40.7197 132.478 40.2056 128.906 40.2056C126.573 40.2056 125.215 40.6341 124.742 40.6341C124.27 40.6341 123.65 40.3484 123.65 39.6344C123.65 38.9204 123.856 38.7776 123.915 38.7776C123.945 38.7776 124.27 39.8915 125.539 39.8915C126.809 39.8915 128.581 39.0632 130.943 39.0632C132.833 39.0918 134.28 39.9486 134.28 40.0343Z" fill="white"/>
<path id="Vector_18" d="M129.762 38.8348C129.762 38.8348 129.555 37.2354 128.758 37.2354C128.492 37.2354 128.315 37.3782 128.108 37.3782C127.547 37.3782 127.045 36.3215 126.248 36.3215C125.894 36.3215 125.657 36.4357 125.451 36.4357C125.126 36.4357 124.89 36.0644 124.89 36.0644C124.89 36.0644 124.89 37.1783 126.248 37.1783C126.573 37.1783 126.927 37.1497 127.281 37.3497C128.699 38.1779 129.762 38.8348 129.762 38.8348Z" fill="white"/>
<path id="Vector_19" d="M129.17 35.8925C129.17 35.8925 128.875 36.3495 129.909 36.9779C130.942 37.6062 131.031 37.3777 131.296 37.8918C131.562 38.3774 131.562 38.463 131.562 38.463C131.562 38.463 131.798 38.1774 131.798 37.749C131.798 37.292 131.533 37.0064 130.853 36.8065C130.174 36.6066 130.086 36.6066 129.82 36.4352C129.702 36.3495 129.613 36.2353 129.495 36.121C129.347 35.9782 129.17 35.8925 129.17 35.8925Z" fill="white"/>
<path id="Vector_20" d="M132.598 37.289C132.598 37.289 132.746 37.6603 132.893 37.9459C133.041 38.2315 133.248 38.8028 133.602 38.8028C133.927 38.8028 133.986 38.2315 133.602 38.0602C133.218 37.8603 133.13 37.8031 132.952 37.6603C132.746 37.489 132.598 37.289 132.598 37.289Z" fill="white"/>
<path id="Vector_21" d="M124.063 41.2315C124.063 41.2315 122.38 39.6035 121.14 39.6035C119.723 39.6035 119.605 40.4032 117.981 40.4032H117.951C116.445 40.4032 116.386 39.5464 116.386 39.5464C116.386 39.5464 116.002 39.9463 115.855 40.3747C115.678 40.8602 115.766 41.4029 116.504 41.4029C117.302 41.4029 118.483 40.4318 120.254 40.4318H120.993C120.993 40.4318 121.317 40.8317 121.878 41.003C122.439 41.1744 122.823 41.203 122.912 41.203C123 41.203 123 41.4314 122.882 41.4314C122.764 41.4314 122.292 41.4886 121.908 41.4886C121.524 41.4886 120.815 41.3458 120.077 41.3458C119.339 41.3458 118.66 41.3743 118.187 41.6314C117.715 41.8884 117.685 42.0598 117.656 42.3454C117.626 42.631 117.745 43.2022 117.745 43.2022C117.745 43.2022 118.246 42.4025 119.28 42.4025C120.018 42.4025 120.402 42.631 120.933 42.631C122.971 42.631 124.063 41.2315 124.063 41.2315Z" fill="white"/>
</g>
</g>
<g id="Group 231">
<path id="Vector_22" d="M52.0331 31.503L56.042 20.531H61.1078L57.1353 31.503H52.0331Z" fill="white"/>
<path id="Vector_23" d="M74.719 31.503L77.7256 20.531H81.5249L78.5456 31.503H74.719Z" fill="white"/>
<path id="Vector_24" d="M95.1374 31.503L98.144 20.531H101.943L98.964 31.503H95.1374Z" fill="white"/>
<path id="Vector_25" fill-rule="evenodd" clip-rule="evenodd" d="M70.7582 24.2709H74.625C75.1497 21.796 73.4926 20.531 69.7086 20.531C65.3171 20.531 62.3618 22.6209 61.3399 26.2233C60.4284 29.4956 62.2237 31.503 66.339 31.503C70.4544 31.503 72.9678 30.2381 74.0173 27.4332H70.1506C69.5982 28.6707 68.6039 29.3306 67.2229 29.3306C65.3447 29.3306 64.6266 28.1757 65.2066 26.0858C65.8143 23.9134 67.2229 22.7309 69.101 22.7309C70.2887 22.7034 70.8411 23.2259 70.7582 24.2709Z" fill="white"/>
<path id="Vector_26" fill-rule="evenodd" clip-rule="evenodd" d="M91.1774 24.2709H95.0442C95.5689 21.796 93.9118 20.531 90.1279 20.531C85.7363 20.531 82.781 22.6209 81.7591 26.2233C80.8476 29.4956 82.6429 31.503 86.7582 31.503C90.8736 31.503 93.387 30.2381 94.4365 27.4332H90.5698C90.0174 28.6707 89.0231 29.3306 87.6421 29.3306C85.7639 29.3306 85.0458 28.1757 85.6258 26.0858C86.2335 23.9134 87.6421 22.7309 89.5202 22.7309C90.7079 22.7034 91.2603 23.2259 91.1774 24.2709Z" fill="white"/>
</g>
<g id="Group_3">
<path id="Vector_27" fill-rule="evenodd" clip-rule="evenodd" d="M37.2314 19.8565C41.3653 15.9722 46.385 14.9726 48.3928 17.6288C50.4007 20.285 48.6291 25.5973 44.4952 29.4531C40.3614 33.3374 35.3417 34.337 33.3338 31.6808C31.3259 29.0532 33.0681 23.7408 37.2314 19.8565Z" fill="#F99D28"/>
<path id="Vector_28" fill-rule="evenodd" clip-rule="evenodd" d="M39.9472 17.8025C39.5043 18.1167 39.0318 18.488 38.5889 18.9164C34.957 22.2866 33.4511 26.9135 35.2523 29.2269C37.083 31.5404 41.5712 30.7121 45.2621 27.2848C47.2405 25.4568 48.5988 23.3433 49.1302 21.3726C49.3074 19.916 49.0712 18.6308 48.3625 17.6597C46.768 15.5747 43.3724 15.7461 39.9472 17.8025Z" fill="#AF2A30"/>
<path id="Vector_29" fill-rule="evenodd" clip-rule="evenodd" d="M42.0147 31.369C40.0659 32.7399 38.058 33.4254 36.1092 33.1398C36.936 33.1683 37.5856 32.3115 38.1466 31.1691C38.7076 29.9981 39.0324 28.8842 39.2982 27.856C39.682 26.228 39.7115 25.0856 39.5049 24.8285C39.1801 24.4287 38.4123 24.5143 37.556 24.9713C37.1427 25.1712 36.6112 25.0284 37.2608 24.3144C37.9104 23.5718 40.4793 21.801 41.4241 21.5154C42.4576 21.2298 43.6092 21.6011 43.2253 22.6579C42.93 23.4576 39.3572 32.2829 42.0147 31.369ZM44.9379 17.6882C45.4104 18.1452 45.1151 19.1449 44.3178 19.916C43.4911 20.6872 42.3986 20.9728 41.9261 20.5158C41.4241 20.0588 41.7194 19.0592 42.5462 18.2595C43.373 17.4883 44.4655 17.2313 44.9379 17.6882Z" fill="white"/>
</g>
</g>
</g>
<defs>
<filter id="filter0_d_1687_203" x="0.5" y="0" width="172" height="70" filterUnits="userSpaceOnUse" color-interpolation-filters="sRGB">
<feFlood flood-opacity="0" result="BackgroundImageFix"/>
<feColorMatrix in="SourceAlpha" type="matrix" values="0 0 0 0 0 0 0 0 0 0 0 0 0 0 0 0 0 0 127 0" result="hardAlpha"/>
<feOffset/>
<feGaussianBlur stdDeviation="4"/>
<feComposite in2="hardAlpha" operator="out"/>
<feColorMatrix type="matrix" values="0 0 0 0 0.0862745 0 0 0 0 0.0117647 0 0 0 0 0.176471 0 0 0 1 0"/>
<feBlend mode="normal" in2="BackgroundImageFix" result="effect1_dropShadow_1687_203"/>
<feBlend mode="normal" in="SourceGraphic" in2="effect1_dropShadow_1687_203" result="shape"/>
</filter>
<linearGradient id="paint0_linear_1687_203" x1="3.84737" y1="8" x2="65.4619" y2="117.651" gradientUnits="userSpaceOnUse">
<stop stop-color="#9059D4"/>
<stop offset="0.31" stop-color="#190137"/>
<stop offset="0.76" stop-color="#190137"/>
<stop offset="1" stop-color="#9059D4"/>
</linearGradient>
</defs>
</svg>
