<svg width="165" height="70" viewBox="0 0 165 70" fill="none" xmlns="http://www.w3.org/2000/svg">
<g filter="url(#filter0_d_1687_239)">
<rect x="8.5" y="8" width="148" height="54" rx="6" fill="#1E0240"/>
<rect x="9" y="8.5" width="147" height="53" rx="5.5" stroke="url(#paint0_linear_1687_239)"/>
</g>
<g clip-path="url(#clip0_1687_239)">
<path d="M108.823 36.8592C108.675 37.404 108.362 37.8643 107.893 38.24C107.424 38.6157 106.917 38.7942 106.384 38.7942H87.3499C86.816 38.7942 86.4203 38.6063 86.1626 38.24C85.8956 37.8643 85.8404 37.404 85.9877 36.8592L90.2215 21.2577C90.3688 20.7129 90.6725 20.2432 91.1419 19.8675C91.6113 19.4824 92.1083 19.2946 92.6421 19.2946H111.676C112.228 19.2946 112.633 19.4824 112.9 19.8487C113.158 20.2245 113.213 20.6941 113.056 21.2577L112.559 23.1081H93.5257L90.3043 34.9807H109.338L108.832 36.8592H108.823Z" fill="white"/>
<path d="M114.777 38.7947H110.985L116.268 19.3232H120.061L114.777 38.7947Z" fill="white"/>
<path d="M62.591 19.2855H58.7898L55.3291 32.041L40.0598 19.3137L34.7583 38.8415H38.5595L42.0018 26.1611L57.2711 38.8884L62.591 19.2855Z" fill="white"/>
<path d="M87.377 19.8578C87.1101 19.4914 86.7052 19.3036 86.1529 19.3036H65.26L64.2291 23.1171H83.2353L82.1308 27.1936H63.1339L59.9769 38.8032H63.7781L65.895 31.0071H82.9868C83.5206 31.0071 84.0176 30.8193 84.4962 30.4529C84.9656 30.0772 85.2785 29.6264 85.4258 29.0722L87.5427 21.2761C87.6992 20.7125 87.644 20.2429 87.3862 19.8672L87.377 19.8578Z" fill="white"/>
<path d="M127.257 19.3036L132.071 29.0722L121.956 38.8314L127.257 19.3036Z" fill="#008B45"/>
<path d="M123.889 19.3036L128.693 29.0722L118.578 38.8314L123.889 19.3036Z" fill="#FF6E0C"/>
<path d="M117.962 41.1417C118.137 41.0196 118.321 40.9633 118.505 40.9633C118.689 40.9633 118.873 41.0102 119.066 41.0948C119.167 41.1324 119.259 41.1887 119.351 41.2545C119.572 41.3954 119.766 41.5738 119.941 41.7805L119.987 41.8368L120.097 41.9777H117.64L117.621 41.9026V41.8838C117.603 41.7805 117.603 41.6865 117.621 41.602C117.667 41.4047 117.787 41.2545 117.962 41.1417ZM127.525 42.2877L127.267 43.2739H126.034L126.291 42.2877H127.525ZM120.64 41.9777C120.566 41.8744 120.484 41.7711 120.41 41.6584C120.161 41.3672 119.922 41.1605 119.692 41.0009C119.517 40.8881 119.342 40.7942 119.177 40.7379C119.002 40.6815 118.808 40.6439 118.624 40.6439C118.284 40.6439 117.98 40.7191 117.722 40.8693C117.474 41.0196 117.308 41.2451 117.225 41.5362C117.198 41.649 117.189 41.7617 117.225 41.865L117.244 41.9683H116.609L116.526 42.2783H117.152L116.406 45.0774H116.848L117.594 42.2783H120.557L120.364 42.9921H118.551L118.348 43.0297C118.275 43.0579 118.219 43.1142 118.192 43.2082C118.183 43.2551 118.192 43.3397 118.385 43.5933L118.413 43.6215C118.578 43.8375 118.698 43.9314 118.781 43.9314C118.91 43.9314 118.965 43.8751 118.983 43.8281L119.121 43.3021H120.272L119.802 45.0774H120.244L120.99 42.2783H122.573L122.334 43.1706H121.929L121.855 43.1894C121.754 43.2082 121.698 43.2551 121.68 43.3209C121.652 43.443 121.717 43.5839 121.901 43.7811C122.085 43.969 122.232 44.0629 122.352 44.0629C122.453 44.0629 122.527 44.016 122.573 43.922L122.61 43.7999L123.005 42.2971H124.073L123.328 45.0961H123.779L124.524 42.2971H125.849L125.592 43.2833H125.297L125.168 43.3115C125.095 43.3303 125.049 43.3772 125.021 43.4618C124.993 43.5557 125.067 43.6778 125.242 43.8751C125.408 44.0629 125.537 44.1569 125.647 44.1569C125.73 44.1569 125.794 44.1287 125.831 44.0723L125.859 43.9878L125.96 43.5933H127.193L126.797 45.0868H127.239L127.985 42.2877H128.574L128.657 41.9777H120.658H120.64Z" fill="white"/>
<path d="M100.456 42.2795H101.284L100.999 43.3597H99.9222L100.152 42.4674C100.198 42.2983 100.152 42.1668 100.042 42.0541C99.9314 41.9508 99.7657 41.8944 99.5632 41.8944C99.3608 41.8944 99.1767 41.9414 99.011 42.0353C98.8545 42.1292 98.7441 42.2795 98.6889 42.458C98.6705 42.5143 98.6705 42.5801 98.6889 42.6834V42.7022L98.7257 42.7867V42.8055H99.1491L99.1123 42.7492L99.0939 42.7116V42.4768C99.1123 42.3922 99.1583 42.3265 99.2319 42.2701C99.2963 42.2232 99.3792 42.195 99.4712 42.195C99.5909 42.195 99.6645 42.2138 99.7013 42.2607L99.7289 42.4298L99.4804 43.3597H99.0662L98.9282 43.4067L98.8085 43.5382C98.7993 43.5945 98.8085 43.6978 99.0754 43.9796C99.3332 44.2708 99.4344 44.299 99.4896 44.299L99.6737 44.2238L99.7105 44.1017L99.821 43.6978H100.898L100.548 45.0128C100.41 45.041 100.281 45.0786 100.152 45.1443C100.088 45.1819 100.005 45.2289 99.9038 45.2946L99.867 45.3228L100.152 45.5952L100.18 45.5764L100.327 45.4637C100.438 45.3886 100.557 45.351 100.659 45.351C100.778 45.351 100.861 45.3792 100.916 45.4449C100.971 45.5107 100.99 45.5858 100.962 45.6703C100.925 45.8112 100.833 45.924 100.677 46.0085C100.52 46.093 100.355 46.14 100.162 46.14C99.8578 46.14 99.5909 46.0367 99.3608 45.8394C99.2779 45.7737 99.1951 45.6797 99.0939 45.5482L99.0662 45.5201L98.7073 45.8112L98.7349 45.8394C98.873 45.9803 98.9834 46.093 99.0939 46.1588C99.416 46.3654 99.7565 46.4593 100.143 46.4593C100.456 46.4593 100.741 46.3936 100.962 46.2527C101.192 46.1118 101.34 45.9333 101.404 45.6985C101.45 45.5107 101.413 45.3416 101.284 45.2101C101.202 45.1256 101.1 45.0692 100.981 45.041L101.708 42.3077H103.309L103.07 43.2H102.637L102.591 43.2094C102.527 43.2188 102.444 43.247 102.416 43.3409C102.389 43.4536 102.453 43.6039 102.628 43.8012C102.812 43.989 102.96 44.083 103.079 44.083C103.171 44.083 103.254 44.036 103.3 43.9421L103.337 43.8106L103.733 42.3077H104.8L104.055 45.1068H104.506L105.251 42.3077H108.27L108.114 42.9088H106.641C106.429 42.9088 106.245 42.9558 106.089 43.0685C105.932 43.1718 105.822 43.3221 105.776 43.5194C105.684 43.8575 105.776 44.2145 106.061 44.5996C106.162 44.7311 106.31 44.8907 106.503 45.0598L106.521 45.0786L106.871 44.8344L106.834 44.8062C106.669 44.6559 106.54 44.515 106.448 44.4023C106.218 44.083 106.135 43.7918 106.208 43.51C106.236 43.4067 106.291 43.3409 106.374 43.2846C106.466 43.2282 106.595 43.2 106.761 43.2H108.04L107.534 45.1068H107.976L108.721 42.3077H109.789L109.043 45.1068H109.485L110.231 42.3077H113.194L113.01 43.0216H111.197L111.004 43.0591C110.93 43.0873 110.875 43.1531 110.847 43.247C110.838 43.2939 110.847 43.3879 111.068 43.6697C111.243 43.8857 111.353 43.9796 111.436 43.9796C111.538 43.9796 111.602 43.9421 111.648 43.8763L111.786 43.3503H112.937L112.467 45.1256H112.909L113.654 42.3265H114.244L114.326 42.0165H100.539L100.456 42.3265V42.2795Z" fill="white"/>
<path d="M89.9539 42.2796L89.7974 42.862H88.8494C88.6285 42.862 88.4261 42.9089 88.242 43.0123L88.1223 43.0874C88.0211 43.1532 87.9475 43.2283 87.8922 43.3034L87.0179 42.2796H89.9447H89.9539ZM87.7266 43.6228V43.651L87.7082 43.7449L87.5977 43.7919C87.4412 43.8576 87.2848 43.8952 87.1191 43.8952C86.935 43.8952 86.8062 43.8482 86.7141 43.7637C86.6221 43.6792 86.6037 43.5758 86.6405 43.4349L86.8614 42.5802L87.745 43.6228H87.7266ZM90.5522 41.1337C90.6534 41.0491 90.7731 41.0116 90.9387 41.0116C91.0492 41.0116 91.1504 41.0304 91.2425 41.0585C91.4265 41.1337 91.5554 41.2746 91.6566 41.5C91.7027 41.6033 91.7395 41.763 91.7671 41.9603H90.4049L90.3589 41.8569V41.8382C90.3129 41.7067 90.3129 41.5752 90.3589 41.4437C90.3957 41.3028 90.4601 41.19 90.5522 41.1149V41.1337ZM94.1969 42.4487L94.1325 42.289H95.2646L94.8872 43.7261C94.7768 43.8294 94.6939 43.8952 94.6295 43.9328C94.3902 44.0737 94.1601 44.1488 93.9208 44.1582H93.9024C93.6079 44.1582 93.4054 44.0643 93.2949 43.8764C93.2673 43.8294 93.2489 43.7449 93.2305 43.6228C93.4054 43.5946 93.5434 43.5477 93.6539 43.5101C93.9668 43.3786 94.1693 43.1625 94.2429 42.8808C94.2798 42.7493 94.2614 42.599 94.2061 42.4581L94.1969 42.4487ZM92.034 41.3779C91.8867 41.0398 91.6566 40.8331 91.3253 40.758C91.2333 40.7298 91.1228 40.7204 90.9848 40.7204C90.7178 40.7204 90.4969 40.7768 90.3129 40.8989C90.1196 41.021 89.9907 41.1994 89.9355 41.453C89.8987 41.5752 89.9079 41.716 89.9631 41.8663L89.9999 41.979H81.698L81.6151 42.289H83.4191L83.235 42.9935C83.2074 43.0968 83.1522 43.1813 83.051 43.2471C82.9497 43.3128 82.8301 43.341 82.6828 43.341C82.5908 43.341 82.5171 43.3316 82.4527 43.3034C82.3699 43.2659 82.3515 43.2377 82.3515 43.2189L82.1582 42.7774L81.7532 42.9841L81.7716 43.0217C81.8176 43.125 81.8544 43.2095 81.8821 43.2847C81.9649 43.4913 82.0845 43.7167 82.241 43.9891C82.3423 44.1582 82.4711 44.3554 82.6184 44.5715C82.738 44.7406 82.8669 44.9096 83.0141 45.0881L83.0326 45.1163L83.4191 44.8627L83.3915 44.8345L83.2811 44.703L83.189 44.5997L83.0233 44.3836C82.9589 44.2991 82.8945 44.2239 82.8577 44.1676L82.5539 43.6322C82.7288 43.6698 82.9313 43.6322 83.143 43.557C83.2995 43.5007 83.4283 43.4255 83.502 43.3316C83.5848 43.2377 83.64 43.1438 83.6676 43.0404L83.8701 42.289H85.0298L84.2843 45.0881H84.7261L85.4716 42.289H86.4748L86.1803 43.4068C86.1159 43.6416 86.1803 43.8294 86.3552 43.9891C86.53 44.1394 86.7601 44.2146 87.0455 44.2146C87.1651 44.2146 87.294 44.1958 87.432 44.1582C87.5149 44.1394 87.6069 44.1018 87.6989 44.0643C87.7266 44.2052 87.7818 44.3367 87.883 44.4588L87.9659 44.5527H87.9751C88.1407 44.7218 88.3432 44.8345 88.5733 44.8908L87.0731 45.9428H87.7266L88.8402 45.0505L89.4385 45.9428H89.9723L89.2084 44.9284C89.4109 44.9096 89.5766 44.8627 89.7238 44.7969C89.9447 44.703 90.1564 44.5715 90.3589 44.3742L90.3957 44.3367L90.0644 44.1488L90.046 44.1676C89.7514 44.4588 89.4109 44.5997 89.0059 44.5997C88.7022 44.5997 88.4629 44.5057 88.2972 44.3273C88.1499 44.177 88.0947 44.0079 88.1131 43.8107L88.1315 43.7073L88.1591 43.6228C88.2052 43.5195 88.288 43.4255 88.4077 43.3504C88.5457 43.2565 88.7022 43.2001 88.8771 43.2001H90.1564L90.3957 42.289H91.7119L90.9756 45.0881H91.4173L92.1629 42.289H93.6263L93.7459 42.4581C93.8196 42.6084 93.838 42.7305 93.8104 42.8432C93.7643 43.0123 93.6723 43.1344 93.5342 43.2189C93.4146 43.2847 93.2673 43.3222 93.0833 43.3222L92.982 43.3034H92.9176L92.8532 43.2753H92.8255V43.3034C92.7519 43.5946 92.7979 43.8576 92.9728 44.0924C93.1477 44.3273 93.4422 44.4494 93.8564 44.4494H93.8748C94.1233 44.4494 94.3534 44.4024 94.5835 44.3085L94.7676 44.2146L94.5375 45.0881H94.9793L95.7248 42.289H96.3138L96.3967 41.979H92.1905C92.1629 41.7067 92.1076 41.5094 92.0432 41.3779H92.034Z" fill="white"/>
<path d="M73.6082 41.1337C73.7094 41.0491 73.8291 41.0116 73.9855 41.0116C74.096 41.0116 74.1972 41.0304 74.2892 41.0585C74.4733 41.1337 74.6114 41.284 74.7126 41.5C74.7586 41.5939 74.7863 41.7348 74.8231 41.9697H73.4609L73.4149 41.8569C73.3781 41.7254 73.3781 41.5939 73.4149 41.4624C73.4517 41.3215 73.5253 41.2088 73.6174 41.1337H73.6082ZM77.2529 42.4487L77.1885 42.289H78.3206L77.9432 43.7261C77.8328 43.8294 77.7407 43.8952 77.6763 43.9328C77.4462 44.0737 77.2069 44.1488 76.9676 44.1582H76.9492C76.6547 44.1582 76.4522 44.0643 76.3509 43.8764C76.3233 43.82 76.3049 43.7261 76.2865 43.6134C76.4614 43.5758 76.6086 43.5383 76.7099 43.5007C77.0228 43.3692 77.2161 43.1532 77.2897 42.8714C77.3265 42.7493 77.3081 42.599 77.2529 42.4487ZM75.09 41.3779C74.9427 41.0398 74.7034 40.8331 74.3813 40.758C74.2892 40.7298 74.1788 40.7204 74.0407 40.7204C73.7738 40.7204 73.5529 40.7768 73.3689 40.8989C73.1756 41.021 73.0467 41.2088 72.9823 41.453C72.9547 41.5658 72.9639 41.716 73.0099 41.8663L73.0467 41.979H64.7448L64.6619 42.289H65.4903L65.205 43.3692H64.1281L64.3674 42.4769C64.4134 42.3172 64.3674 42.1763 64.257 42.0636C64.1465 41.9603 63.99 41.9039 63.7784 41.9039C63.5667 41.9039 63.3918 41.9509 63.2261 42.0448C63.0697 42.1387 62.9592 42.2796 62.9132 42.4675V42.6835L62.95 42.7868V42.8056H63.3734L63.3274 42.7493L63.309 42.7117V42.4863C63.3274 42.4017 63.3734 42.3266 63.4378 42.2796C63.5022 42.2327 63.5851 42.2045 63.6771 42.2045C63.7968 42.2045 63.8796 42.2233 63.9072 42.2702L63.9256 42.4393L63.6771 43.3692H63.2721L63.1249 43.4068L63.0144 43.5383C63.0144 43.5383 62.9776 43.6604 63.2813 43.9797C63.5483 44.2709 63.6495 44.2991 63.7047 44.2991L63.8888 44.2239L63.9256 44.1018L64.0361 43.6979H65.1129L64.7448 45.0881H65.1866L65.9321 42.289H66.9905L66.2542 45.0881H66.696L67.4415 42.289H69.6781L69.494 42.9935C69.4664 43.0968 69.4112 43.1813 69.3099 43.2471C69.2087 43.3128 69.089 43.341 68.9418 43.341C68.8589 43.341 68.7761 43.3316 68.7117 43.3034L68.6012 43.2189L68.4079 42.7774L68.0122 42.9841V43.0123C68.0582 43.0968 68.095 43.1907 68.1318 43.2847C68.2146 43.4913 68.3343 43.7167 68.4816 43.9797C68.5736 44.13 68.6933 44.3085 68.8681 44.5621C69.0154 44.7593 69.1442 44.9284 69.2639 45.0787L69.2823 45.1069L69.6781 44.8533L69.6413 44.8157C69.5584 44.7218 69.494 44.656 69.448 44.5997L69.3835 44.5151C69.2639 44.3742 69.1811 44.2615 69.1166 44.1676L68.8129 43.6322C68.9878 43.6698 69.1903 43.6322 69.402 43.557C69.5584 43.5007 69.6873 43.4255 69.7701 43.3316C69.853 43.2377 69.9082 43.1438 69.9358 43.0404L70.1383 42.289H73.2584L73.1019 42.8902H71.6293C71.4176 42.8902 71.2335 42.9465 71.0771 43.0498C70.9206 43.1532 70.8102 43.3034 70.7641 43.5007C70.6721 43.8388 70.7641 44.1958 71.0495 44.5809C71.1507 44.7124 71.3072 44.8721 71.4913 45.0411L71.5097 45.0599L71.8594 44.8157L71.8226 44.7875C71.6477 44.6278 71.5189 44.4869 71.436 44.3836C71.2059 44.0737 71.1231 43.7731 71.1967 43.4913C71.2243 43.388 71.2796 43.3128 71.3532 43.2659C71.4544 43.2095 71.5833 43.1813 71.7398 43.1813H73.0191L72.5129 45.0881H72.9547L73.7002 42.289H74.7586L74.0223 45.0881H74.4641L75.2096 42.289H76.6731L76.7927 42.4581C76.8663 42.599 76.8848 42.7211 76.8571 42.8432C76.8111 43.0123 76.7191 43.1344 76.581 43.2189C76.4614 43.2847 76.3049 43.3222 76.13 43.3222L76.0288 43.3034H75.9736L75.9091 43.2753H75.8815V43.3034C75.8079 43.5852 75.8539 43.8482 76.0288 44.0924C76.2037 44.3273 76.4982 44.4494 76.9124 44.4494H76.9308C77.1793 44.4494 77.4094 44.4024 77.6487 44.3085L77.8328 44.2239L77.6027 45.0975H78.0445L78.79 42.2984H79.379L79.4619 41.9884H75.2557C75.2281 41.716 75.1728 41.5188 75.1084 41.3873L75.09 41.3779Z" fill="white"/>
<path d="M31.5 50.5826L32.3927 47.2951L33.8378 49.23L33.9574 49.4085L34.0678 49.6151L34.6661 47.4172H35.1355L34.2335 50.7047L32.7609 48.7416L32.6504 48.5725L32.5584 48.3847L31.9601 50.5826H31.5Z" fill="white"/>
<path d="M36.065 49.3428H36.9302L36.8105 48.6195L36.7921 48.4598V48.2626L36.6817 48.4504L36.5804 48.6195L36.065 49.3428ZM37.1235 50.5826L36.9946 49.7654H35.7705L35.1906 50.5826H34.6568L37.0498 47.2951L37.6573 50.5826H37.1235Z" fill="white"/>
<path d="M39.1855 47.858L38.4492 50.5819H37.9429L38.6885 47.858H37.8601L37.9798 47.4165H40.1243L40.0046 47.858H39.1855Z" fill="white"/>
<path d="M39.7465 50.5819L40.6025 47.4165H41.1087L40.2527 50.5819H39.7465Z" fill="white"/>
<path d="M43.8796 49.0142C43.9256 48.8546 43.9348 48.7043 43.9164 48.5634C43.898 48.4225 43.852 48.291 43.7784 48.1783C43.7047 48.0656 43.6035 47.981 43.4838 47.9247C43.3642 47.8683 43.2261 47.8307 43.0697 47.8307C42.9132 47.8307 42.7659 47.8589 42.6095 47.9153C42.453 47.9716 42.3149 48.0562 42.1677 48.1689C42.0296 48.2816 41.91 48.4037 41.8179 48.554C41.7259 48.6949 41.6523 48.8546 41.6062 49.0142C41.5602 49.1739 41.551 49.3242 41.5694 49.4651C41.5878 49.606 41.6339 49.7375 41.7075 49.8502C41.7811 49.9629 41.8824 50.0474 42.002 50.1038C42.1217 50.1602 42.2597 50.1883 42.4162 50.1883C42.5727 50.1883 42.7199 50.1602 42.8672 50.1038C43.0237 50.0474 43.1617 49.9535 43.309 49.8502C43.447 49.7375 43.5667 49.606 43.6587 49.4651C43.7508 49.3242 43.8244 49.1739 43.8704 49.0142H43.8796ZM44.4042 49.0142C44.3398 49.2397 44.2478 49.4557 44.1097 49.6529C43.9717 49.8502 43.806 50.0287 43.6035 50.1883C43.401 50.348 43.1893 50.4607 42.9684 50.5453C42.7475 50.6298 42.5266 50.6674 42.3057 50.6674C42.0849 50.6674 41.8824 50.6298 41.6983 50.5453C41.5234 50.4607 41.3761 50.3386 41.2565 50.1883C41.1368 50.0287 41.0724 49.8502 41.0448 49.6529C41.0172 49.4557 41.0356 49.2397 41.0908 49.0142C41.1553 48.7888 41.2565 48.5728 41.3854 48.3755C41.5234 48.1783 41.6891 47.9998 41.8916 47.8401C42.0941 47.6804 42.3057 47.5677 42.5266 47.4832C42.7475 47.3987 42.9776 47.3611 43.1985 47.3611C43.4194 47.3611 43.6219 47.3987 43.7968 47.4832C43.9717 47.5677 44.1189 47.6898 44.2386 47.8401C44.3582 47.9998 44.4227 48.1783 44.4503 48.3849C44.4779 48.5822 44.4595 48.7982 44.4042 49.0236V49.0142Z" fill="white"/>
<path d="M44.4687 50.5826L45.3706 47.2951L46.8065 49.23L46.9261 49.4085L47.0365 49.6151L47.6348 47.4172H48.1042L47.2114 50.7047L45.7388 48.7416L45.6283 48.5725L45.5363 48.3847L44.9381 50.5826H44.4687Z" fill="white"/>
<path d="M49.0339 49.3428H49.8991L49.7794 48.6195L49.761 48.4598V48.2626L49.6506 48.4504L49.5493 48.6195L49.0339 49.3428ZM50.0923 50.5826L49.9635 49.7654H48.7394L48.1595 50.5826H47.6257L50.0187 47.2951L50.6262 50.5826H50.0923Z" fill="white"/>
<path d="M50.9944 50.5819L51.8595 47.4165H52.3657L51.6294 50.1217H52.7523L52.6327 50.5819H50.9944Z" fill="white"/>
<path d="M55.4395 48.7409H55.5683C55.8444 48.7409 56.0469 48.7128 56.1482 48.647C56.2586 48.5813 56.3323 48.4779 56.3783 48.3182C56.4243 48.1492 56.4059 48.0271 56.323 47.9613C56.2402 47.8956 56.0653 47.858 55.7984 47.858H55.6696L55.4303 48.7409H55.4395ZM55.2922 49.1636L54.9056 50.5819H54.4362L55.3014 47.4165H56.0653C56.2954 47.4165 56.4519 47.4259 56.5531 47.4541C56.6544 47.4823 56.7372 47.5199 56.8017 47.5762C56.8753 47.6514 56.9305 47.7453 56.9489 47.8768C56.9673 47.9989 56.9581 48.1398 56.9213 48.2901C56.8845 48.4404 56.8109 48.5813 56.728 48.7034C56.636 48.8255 56.5347 48.9288 56.4151 49.0039C56.323 49.0603 56.2126 49.0979 56.1022 49.126C55.9917 49.1448 55.8168 49.1636 55.5959 49.1636H55.3106H55.2922Z" fill="white"/>
<path d="M57.234 49.3428H58.0992L57.9796 48.6195L57.9612 48.4598V48.2626L57.8507 48.4504L57.7495 48.6195L57.234 49.3428ZM58.2925 50.5826L58.1636 49.7654H56.9395L56.3597 50.5826H55.8351L58.2281 47.2951L58.8355 50.5826H58.3017H58.2925Z" fill="white"/>
<path d="M59.1119 50.5819L59.5077 49.1354L58.9278 47.4165H59.4525L59.8114 48.4967L59.8482 48.6L59.8758 48.7503L59.9771 48.6094L60.0783 48.4779L61.0355 47.4165H61.5417L60.0047 49.1354L59.6089 50.5819H59.1119Z" fill="white"/>
<path d="M63.7043 49.0227C63.7043 49.0227 63.7135 48.9288 63.7319 48.816C63.7411 48.7221 63.7595 48.647 63.7595 48.5906L63.6491 48.8066L63.5018 49.0227L62.2317 50.704L61.8911 48.9851L61.8635 48.7785V48.5812L61.7807 48.7879L61.6795 49.0133L60.9247 50.5725H60.4645L62.0936 47.2756L62.4618 49.2669L62.4802 49.4266C62.4802 49.5017 62.4986 49.5863 62.5078 49.699C62.563 49.605 62.6367 49.4923 62.7471 49.3514L62.8115 49.2669L64.2474 47.2756L64.1001 50.5725H63.6307L63.7135 49.0133L63.7043 49.0227Z" fill="white"/>
<path d="M64.579 50.5819L65.4442 47.4165H67.1745L67.0549 47.858H65.8307L65.6098 48.647H66.8432L66.7143 49.0979H65.4902L65.2141 50.1217H66.4382L66.3093 50.5819H64.579Z" fill="white"/>
<path d="M66.9718 50.5826L67.8738 47.2951L69.3096 49.23L69.4293 49.4085L69.5489 49.6151L70.1472 47.4172H70.6074L69.7146 50.7047L68.242 48.7416L68.1315 48.5725L68.0395 48.3847L67.4412 50.5826H66.9718Z" fill="white"/>
<path d="M72.2914 47.858L71.5458 50.5819H71.0396L71.7851 47.858H70.966L71.0856 47.4165H73.2302L73.1105 47.858H72.2914Z" fill="white"/>
<path d="M72.8349 49.9528L73.2859 49.7649C73.2859 49.9058 73.3227 50.0092 73.4056 50.0843C73.4884 50.1594 73.6081 50.197 73.7645 50.197C73.9118 50.197 74.0407 50.1501 74.1511 50.0655C74.2616 49.981 74.3352 49.8683 74.372 49.7274C74.418 49.5395 74.3168 49.3704 74.0591 49.2296L73.9762 49.1826C73.6817 49.0135 73.4976 48.8538 73.424 48.7223C73.3504 48.5814 73.332 48.4218 73.3872 48.2151C73.4608 47.9615 73.5989 47.7455 73.8106 47.5858C74.0223 47.4261 74.2708 47.3416 74.5469 47.3416C74.777 47.3416 74.9518 47.3885 75.0807 47.4731C75.2096 47.567 75.2832 47.6891 75.2924 47.8582L74.8414 48.0648C74.8046 47.9615 74.7586 47.8958 74.6941 47.8488C74.6297 47.8018 74.5561 47.783 74.4548 47.783C74.3168 47.783 74.2063 47.8206 74.1051 47.8864C74.0038 47.9615 73.9394 48.0554 73.9026 48.1775C73.8474 48.3654 73.9762 48.5439 74.28 48.7129L74.3352 48.7411C74.6021 48.882 74.777 49.0229 74.8506 49.1638C74.9242 49.3047 74.9334 49.4738 74.8782 49.6804C74.7954 49.981 74.6389 50.2158 74.4088 50.3943C74.1787 50.5727 73.9026 50.6573 73.5897 50.6573C73.3227 50.6573 73.1295 50.5915 72.9914 50.4694C72.8534 50.3473 72.7981 50.1688 72.8073 49.934L72.8349 49.9528Z" fill="white"/>
<path d="M79.5811 48.1873C79.4707 48.0652 79.351 47.9713 79.2038 47.9055C79.0657 47.8398 78.9 47.8116 78.7251 47.8116C78.3846 47.8116 78.0809 47.9243 77.8048 48.1498C77.5286 48.3752 77.3446 48.657 77.2525 49.0139C77.1605 49.352 77.1881 49.6338 77.3354 49.8593C77.4826 50.0847 77.7127 50.188 78.0256 50.188C78.2097 50.188 78.3938 50.1504 78.5779 50.0847C78.762 50.0189 78.946 49.9156 79.1393 49.7841L78.9829 50.3665C78.8172 50.4698 78.6515 50.5356 78.4766 50.5919C78.3018 50.6389 78.1269 50.6671 77.9336 50.6671C77.6943 50.6671 77.4918 50.6295 77.3077 50.5449C77.1237 50.4698 76.9856 50.3477 76.8752 50.1974C76.7647 50.0471 76.7003 49.8687 76.6727 49.662C76.6451 49.4554 76.6727 49.2393 76.7279 49.0045C76.7923 48.7697 76.8936 48.5537 77.0316 48.347C77.1697 48.1404 77.3354 47.9619 77.5286 47.8116C77.7219 47.6613 77.9336 47.5392 78.1545 47.4547C78.3754 47.3702 78.6055 47.3326 78.8356 47.3326C79.0197 47.3326 79.1853 47.3608 79.3326 47.4171C79.4799 47.4735 79.6179 47.5486 79.7468 47.6613L79.5811 48.1779V48.1873Z" fill="white"/>
<path d="M82.6372 49.0142C82.6832 48.8546 82.6924 48.7043 82.674 48.5634C82.6556 48.4225 82.6095 48.291 82.5359 48.1783C82.4623 48.0656 82.361 47.981 82.2414 47.9247C82.1217 47.8683 81.9837 47.8307 81.8272 47.8307C81.6707 47.8307 81.5235 47.8589 81.367 47.9153C81.2105 47.9716 81.0633 48.0562 80.9252 48.1689C80.7872 48.2816 80.6675 48.4037 80.5755 48.554C80.4742 48.6949 80.4098 48.8546 80.3638 49.0142C80.3178 49.1739 80.3086 49.3242 80.327 49.4651C80.3454 49.606 80.3914 49.7375 80.465 49.8502C80.5387 49.9629 80.6399 50.0474 80.7596 50.1038C80.8792 50.1602 81.0173 50.1883 81.1737 50.1883C81.3302 50.1883 81.4775 50.1602 81.6247 50.1038C81.7812 50.0474 81.9193 49.9535 82.0665 49.8502C82.2046 49.7375 82.3242 49.606 82.4163 49.4651C82.5083 49.3242 82.5819 49.1739 82.628 49.0142H82.6372ZM83.1618 49.0142C83.0974 49.2397 83.0053 49.4557 82.8673 49.6529C82.7292 49.8502 82.5635 50.0287 82.361 50.1883C82.1586 50.348 81.9469 50.4607 81.726 50.5453C81.5051 50.6298 81.2842 50.6674 81.0633 50.6674C80.8424 50.6674 80.6399 50.6298 80.4558 50.5453C80.2717 50.4607 80.1337 50.3386 80.014 50.1883C79.8944 50.0287 79.83 49.8502 79.8023 49.6529C79.7747 49.4557 79.7931 49.2397 79.8576 49.0142C79.922 48.7888 80.014 48.5728 80.1521 48.3755C80.2902 48.1783 80.4558 47.9998 80.6583 47.8401C80.8608 47.6804 81.0725 47.5677 81.2934 47.4832C81.5143 47.3987 81.7444 47.3611 81.9653 47.3611C82.1862 47.3611 82.3887 47.3987 82.5635 47.4832C82.7384 47.5677 82.8857 47.6898 83.0053 47.8401C83.1158 47.9998 83.1894 48.1783 83.217 48.3849C83.2446 48.5822 83.2262 48.7982 83.171 49.0236L83.1618 49.0142Z" fill="white"/>
<path d="M84.3122 48.7691H84.4042C84.6711 48.7691 84.8552 48.7409 84.9657 48.6752C85.0669 48.6094 85.1405 48.4967 85.1866 48.337C85.2326 48.1586 85.2234 48.0365 85.1405 47.9707C85.0669 47.905 84.9012 47.8674 84.6527 47.8674H84.5607L84.3122 48.7785V48.7691ZM84.1741 49.1636L83.7876 50.5819H83.3182L84.1833 47.4165H84.8828C85.0853 47.4165 85.251 47.4353 85.3522 47.4541C85.4535 47.4823 85.5455 47.5292 85.6099 47.595C85.6836 47.6701 85.7296 47.7735 85.748 47.8956C85.7664 48.0177 85.748 48.1492 85.7204 48.2901C85.6468 48.5437 85.5363 48.7409 85.3798 48.8818C85.2234 49.0227 85.0209 49.1073 84.7816 49.1354L85.4535 50.5725H84.8828L84.2386 49.1542H84.1833L84.1741 49.1636Z" fill="white"/>
<path d="M86.8341 48.7409H86.9629C87.2391 48.7409 87.4416 48.7128 87.5428 48.647C87.6532 48.5813 87.7269 48.4779 87.7729 48.3182C87.8189 48.1492 87.8005 48.0271 87.7269 47.9613C87.644 47.8956 87.4692 47.858 87.2023 47.858H87.0734L86.8341 48.7409ZM86.6868 49.1636L86.3003 50.5819H85.8309L86.696 47.4165H87.46C87.6901 47.4165 87.8465 47.4259 87.9478 47.4541C88.049 47.4823 88.1318 47.5199 88.1963 47.5762C88.2699 47.6514 88.3251 47.7453 88.3435 47.8768C88.3619 47.9989 88.3527 48.1398 88.3159 48.2901C88.2791 48.4404 88.2055 48.5813 88.1226 48.7034C88.0306 48.8255 87.9294 48.9288 87.8097 49.0039C87.7177 49.0603 87.6164 49.0979 87.4968 49.126C87.3863 49.1448 87.2115 49.1636 86.9906 49.1636H86.7052H86.6868Z" fill="white"/>
<path d="M91.2151 49.0142C91.2611 48.8546 91.2703 48.7043 91.2519 48.5634C91.2335 48.4225 91.1874 48.291 91.1138 48.1783C91.0402 48.0656 90.9389 47.981 90.8193 47.9247C90.6996 47.8683 90.5616 47.8307 90.4051 47.8307C90.2486 47.8307 90.1014 47.8589 89.9449 47.9153C89.7884 47.9716 89.6504 48.0562 89.5031 48.1689C89.3651 48.2816 89.2454 48.4037 89.1534 48.554C89.0613 48.6949 88.9877 48.8546 88.9417 49.0142C88.8957 49.1739 88.8865 49.3242 88.9049 49.4651C88.9233 49.606 88.9693 49.7375 89.0429 49.8502C89.1166 49.9629 89.2178 50.0474 89.3375 50.1038C89.4571 50.1602 89.5952 50.1883 89.7516 50.1883C89.9081 50.1883 90.0554 50.1602 90.2026 50.1038C90.3499 50.0474 90.4972 49.9535 90.6444 49.8502C90.7825 49.7375 90.9021 49.606 90.9942 49.4651C91.0862 49.3242 91.1598 49.1739 91.2059 49.0142H91.2151ZM91.7397 49.0142C91.6753 49.2397 91.5832 49.4557 91.4452 49.6529C91.3071 49.8502 91.1414 50.0287 90.9389 50.1883C90.7365 50.348 90.5248 50.4607 90.3039 50.5453C90.083 50.6298 89.8621 50.6674 89.6412 50.6674C89.4203 50.6674 89.2178 50.6298 89.0337 50.5453C88.8588 50.4607 88.7116 50.3386 88.5919 50.1883C88.4815 50.0287 88.4079 49.8502 88.3802 49.6529C88.3526 49.4557 88.371 49.2397 88.4263 49.0142C88.4907 48.7888 88.5827 48.5728 88.7208 48.3755C88.8588 48.1783 89.0245 47.9998 89.227 47.8401C89.4295 47.6804 89.6412 47.5677 89.8621 47.4832C90.083 47.3987 90.3131 47.3611 90.534 47.3611C90.7549 47.3611 90.9573 47.3987 91.1322 47.4832C91.3071 47.5677 91.4544 47.6898 91.574 47.8401C91.6845 47.9998 91.7581 48.1783 91.7857 48.3849C91.8133 48.5822 91.7949 48.7982 91.7397 49.0236V49.0142Z" fill="white"/>
<path d="M92.7155 48.7691H92.8075C93.0744 48.7691 93.2585 48.7409 93.3597 48.6752C93.461 48.6094 93.5438 48.4967 93.5806 48.337C93.6266 48.1586 93.6174 48.0365 93.5346 47.9707C93.461 47.905 93.2953 47.8674 93.0468 47.8674H92.9548L92.7063 48.7785L92.7155 48.7691ZM92.5774 49.1636L92.1908 50.5819H91.7214L92.5866 47.4165H93.2861C93.4886 47.4165 93.6451 47.4353 93.7555 47.4541C93.8659 47.4823 93.9488 47.5292 94.0132 47.595C94.0868 47.6701 94.1329 47.7735 94.1605 47.8956C94.1789 48.0177 94.1605 48.1492 94.1329 48.2901C94.0684 48.5437 93.9488 48.7409 93.7923 48.8818C93.6359 49.0227 93.4334 49.1073 93.1941 49.1354L93.866 50.5725H93.2953L92.651 49.1542H92.5958L92.5774 49.1636Z" fill="white"/>
<path d="M95.3105 49.3428H96.1756L96.056 48.6195L96.0376 48.4598V48.2626L95.9271 48.4504L95.8259 48.6195L95.3105 49.3428ZM96.3689 50.5826L96.2401 49.7654H95.016L94.4361 50.5826H93.9023L96.2953 47.2951L96.9028 50.5826H96.3689Z" fill="white"/>
<path d="M98.4401 47.858L97.6946 50.5819H97.1884L97.9339 47.858H97.1056L97.2252 47.4165H99.3789L99.2593 47.858H98.4401Z" fill="white"/>
<path d="M98.9927 50.5819L99.8579 47.4165H100.364L99.4989 50.5819H98.9927Z" fill="white"/>
<path d="M103.134 49.0142C103.18 48.8546 103.19 48.7043 103.171 48.5634C103.153 48.4225 103.107 48.291 103.033 48.1783C102.96 48.0656 102.858 47.981 102.739 47.9247C102.619 47.8683 102.481 47.8307 102.324 47.8307C102.168 47.8307 102.021 47.8589 101.864 47.9153C101.708 47.9716 101.57 48.0562 101.432 48.1689C101.294 48.2816 101.174 48.4037 101.082 48.554C100.99 48.6949 100.916 48.8546 100.87 49.0142C100.824 49.1739 100.815 49.3242 100.833 49.4651C100.852 49.606 100.898 49.7375 100.971 49.8502C101.045 49.9629 101.146 50.0474 101.266 50.1038C101.386 50.1602 101.524 50.1883 101.68 50.1883C101.837 50.1883 101.984 50.1602 102.131 50.1038C102.278 50.0474 102.426 49.9535 102.573 49.8502C102.711 49.7375 102.831 49.606 102.923 49.4651C103.015 49.3242 103.088 49.1739 103.134 49.0142ZM103.659 49.0142C103.595 49.2397 103.503 49.4557 103.365 49.6529C103.226 49.8502 103.061 50.0287 102.858 50.1883C102.656 50.348 102.444 50.4607 102.223 50.5453C102.002 50.6298 101.781 50.6674 101.561 50.6674C101.34 50.6674 101.137 50.6298 100.953 50.5453C100.769 50.4607 100.631 50.3386 100.511 50.1883C100.392 50.0287 100.327 49.8502 100.3 49.6529C100.272 49.4557 100.29 49.2397 100.355 49.0142C100.419 48.7888 100.511 48.5728 100.649 48.3755C100.787 48.1783 100.953 47.9998 101.156 47.8401C101.358 47.6804 101.57 47.5677 101.791 47.4832C102.012 47.3987 102.242 47.3611 102.463 47.3611C102.683 47.3611 102.886 47.3987 103.061 47.4832C103.236 47.5677 103.383 47.6898 103.503 47.8401C103.622 47.9998 103.687 48.1783 103.714 48.3849C103.742 48.5822 103.723 48.7982 103.668 49.0236L103.659 49.0142Z" fill="white"/>
<path d="M103.631 50.5826L104.524 47.2951L105.969 49.23L106.089 49.4085L106.199 49.6151L106.797 47.4172H107.267L106.374 50.7047L104.892 48.7416L104.791 48.5725L104.69 48.3847L104.091 50.5826H103.631Z" fill="white"/>
<path d="M111.16 49.0142C111.206 48.8546 111.216 48.7043 111.197 48.5634C111.179 48.4225 111.133 48.291 111.059 48.1783C110.985 48.0656 110.884 47.981 110.765 47.9247C110.645 47.8683 110.507 47.8307 110.35 47.8307C110.194 47.8307 110.047 47.8589 109.89 47.9153C109.734 47.9716 109.596 48.0562 109.458 48.1689C109.32 48.2816 109.2 48.4037 109.108 48.554C109.016 48.6949 108.942 48.8546 108.896 49.0142C108.85 49.1739 108.841 49.3242 108.859 49.4651C108.878 49.606 108.924 49.7375 108.997 49.8502C109.071 49.9629 109.172 50.0474 109.292 50.1038C109.412 50.1602 109.55 50.1883 109.706 50.1883C109.863 50.1883 110.01 50.1602 110.157 50.1038C110.314 50.0474 110.452 49.9535 110.599 49.8502C110.737 49.7375 110.857 49.606 110.949 49.4651C111.041 49.3242 111.114 49.1739 111.16 49.0142ZM111.685 49.0142C111.621 49.2397 111.529 49.4557 111.39 49.6529C111.252 49.8502 111.087 50.0287 110.884 50.1883C110.682 50.348 110.47 50.4607 110.249 50.5453C110.028 50.6298 109.807 50.6674 109.586 50.6674C109.366 50.6674 109.163 50.6298 108.979 50.5453C108.804 50.4607 108.657 50.3386 108.537 50.1883C108.427 50.0287 108.353 49.8502 108.326 49.6529C108.298 49.4557 108.316 49.2397 108.381 49.0142C108.445 48.7888 108.537 48.5728 108.675 48.3755C108.813 48.1783 108.979 47.9998 109.182 47.8401C109.384 47.6804 109.596 47.5677 109.817 47.4832C110.037 47.3987 110.258 47.3611 110.488 47.3611C110.719 47.3611 110.912 47.3987 111.087 47.4832C111.262 47.5677 111.409 47.6898 111.529 47.8401C111.639 47.9998 111.713 48.1783 111.74 48.3849C111.768 48.5822 111.749 48.7982 111.685 49.0236V49.0142Z" fill="white"/>
<path d="M111.657 50.5819L112.522 47.4165H114.252L114.132 47.858H112.908L112.687 48.647H113.912L113.792 49.0979H112.568L112.163 50.5819H111.657Z" fill="white"/>
<path d="M115.256 50.5819L116.112 47.4165H116.618L115.753 50.5819H115.256Z" fill="white"/>
<path d="M116.222 50.5826L117.115 47.2951L118.56 49.23L118.67 49.4085L118.79 49.6151L119.388 47.4172H119.848L118.956 50.7047L117.483 48.7416L117.373 48.5725L117.28 48.3847L116.682 50.5826H116.222Z" fill="white"/>
<path d="M120.162 50.1217H120.585C120.815 50.1217 120.999 50.1029 121.119 50.0747C121.248 50.0465 121.358 49.9902 121.469 49.915C121.616 49.8117 121.736 49.6896 121.837 49.5299C121.938 49.3796 122.012 49.2012 122.067 49.0039C122.122 48.8067 122.141 48.6282 122.122 48.4685C122.104 48.3182 122.048 48.1867 121.966 48.0928C121.901 48.0177 121.809 47.9613 121.699 47.9331C121.588 47.905 121.395 47.8862 121.137 47.8862H120.769L120.162 50.1217ZM119.527 50.5819L120.392 47.4165H121.073C121.515 47.4165 121.818 47.4353 121.984 47.4823C122.15 47.5292 122.288 47.6044 122.398 47.7077C122.536 47.8486 122.628 48.0271 122.656 48.2431C122.693 48.4591 122.665 48.7128 122.592 48.9945C122.518 49.2763 122.398 49.5205 122.251 49.7366C122.095 49.9526 121.91 50.1311 121.699 50.272C121.533 50.3753 121.358 50.4504 121.174 50.4974C120.99 50.5444 120.714 50.5631 120.346 50.5631H119.527V50.5819Z" fill="white"/>
<path d="M122.49 50.5819L123.346 47.4165H123.853L122.997 50.5819H122.49Z" fill="white"/>
<path d="M124.709 49.3428H125.574L125.454 48.6195L125.436 48.4598V48.2626L125.325 48.4504L125.224 48.6195L124.709 49.3428ZM125.767 50.5826L125.638 49.7654H124.405L123.825 50.5826H123.3L125.693 47.2951L126.301 50.5826H125.767Z" fill="white"/>
</g>
<defs>
<filter id="filter0_d_1687_239" x="0.5" y="0" width="164" height="70" filterUnits="userSpaceOnUse" color-interpolation-filters="sRGB">
<feFlood flood-opacity="0" result="BackgroundImageFix"/>
<feColorMatrix in="SourceAlpha" type="matrix" values="0 0 0 0 0 0 0 0 0 0 0 0 0 0 0 0 0 0 127 0" result="hardAlpha"/>
<feOffset/>
<feGaussianBlur stdDeviation="4"/>
<feComposite in2="hardAlpha" operator="out"/>
<feColorMatrix type="matrix" values="0 0 0 0 0.0862745 0 0 0 0 0.0117647 0 0 0 0 0.176471 0 0 0 1 0"/>
<feBlend mode="normal" in2="BackgroundImageFix" result="effect1_dropShadow_1687_239"/>
<feBlend mode="normal" in="SourceGraphic" in2="effect1_dropShadow_1687_239" result="shape"/>
</filter>
<linearGradient id="paint0_linear_1687_239" x1="4.08596" y1="8" x2="67.3455" y2="114.805" gradientUnits="userSpaceOnUse">
<stop stop-color="#9059D4"/>
<stop offset="0.31" stop-color="#190137"/>
<stop offset="0.76" stop-color="#190137"/>
<stop offset="1" stop-color="#9059D4"/>
</linearGradient>
<clipPath id="clip0_1687_239">
<rect width="100.571" height="31.4286" fill="white" transform="translate(31.5 19.2858)"/>
</clipPath>
</defs>
</svg>
