<svg width="128" height="109" viewBox="0 0 128 109" fill="none" xmlns="http://www.w3.org/2000/svg">
<g id="Group 327">
<path id="Vector" d="M11.7348 25.6972C12.6538 24.3254 14.0235 23.296 15.7636 22.6095C25.9866 18.547 49.2143 26.0084 72.4393 41.5664C95.6644 57.1245 111.389 75.7566 111.522 86.7563C111.549 88.6268 111.119 90.2851 110.2 91.657L115.551 83.6686C121.884 74.2151 104.979 51.7908 77.7906 33.5781C50.6027 15.3653 23.4188 8.25528 17.0861 17.7088L11.7348 25.6972Z" fill="#FFCE22" stroke="black"/>
<path id="Vector_2" d="M81.7182 48.2426C99.7563 62.1849 111.408 77.2944 111.522 86.7563C111.549 88.6268 111.119 90.2851 110.2 91.657L115.551 83.6686C121.127 75.3441 108.685 56.9619 87.0694 40.2542L81.7182 48.2426Z" fill="#500FA3"/>
<path id="Vector_3" d="M11.7348 25.6972C12.6538 24.3254 14.0235 23.296 15.7636 22.6095C25.9866 18.547 49.2143 26.0084 72.4393 41.5664C95.6644 57.1245 111.389 75.7566 111.522 86.7563C111.549 88.6268 111.119 90.2851 110.2 91.657L115.551 83.6686C121.884 74.2151 104.979 51.7908 77.7906 33.5781C50.6027 15.3653 23.4188 8.25528 17.0861 17.7088L11.7348 25.6972Z" stroke="black"/>
<path id="Vector_4" d="M49.509 75.7971C76.6969 94.0098 103.873 101.101 110.2 91.6571C111.119 90.2852 111.549 88.6269 111.522 86.7564C111.389 75.7567 95.6645 57.1246 72.4395 41.5665C49.2144 26.0085 25.9867 18.5471 15.7638 22.6096C14.0236 23.2961 12.6539 24.3254 11.7349 25.6973C5.40845 35.1415 22.3211 57.5844 49.509 75.7971Z" fill="#131313" stroke="black"/>
<path id="Vector_5" d="M49.5088 75.7972L109.626 79.3045C104.781 68.4076 91.0069 54.0047 72.4393 41.5666C49.2142 26.0086 25.9865 18.5472 15.7636 22.6097C14.0234 23.2962 12.6537 24.3255 11.7348 25.6974C5.40827 35.1416 22.3209 57.5845 49.5088 75.7972Z" fill="#FFCA10"/>
<path id="Vector_6" d="M49.509 75.7971C76.6969 94.0098 103.873 101.101 110.2 91.6571C111.119 90.2852 111.549 88.6269 111.522 86.7564C111.389 75.7567 95.6645 57.1246 72.4395 41.5665C49.2144 26.0085 25.9867 18.5471 15.7638 22.6096C14.0236 23.2961 12.6539 24.3254 11.7349 25.6973C5.40845 35.1415 22.3211 57.5844 49.509 75.7971Z" stroke="black"/>
</g>
</svg>
