<svg width="129" height="105" viewBox="0 0 129 105" fill="none" xmlns="http://www.w3.org/2000/svg">
<g id="Group 329">
<path id="Vector" d="M15.8202 86.6088C14.9907 85.1811 14.6667 83.4986 14.8134 81.6337C15.6485 70.6649 32.5452 53.0666 56.7163 39.0233C80.8874 24.9801 104.53 19.0255 114.472 23.7324C116.165 24.5287 117.466 25.6434 118.296 27.0711L113.466 18.7573C107.749 8.91871 80.1815 14.2701 51.8861 30.7095C23.5906 47.149 5.27378 68.4564 10.99 78.295L15.8202 86.6088Z" fill="#FFCE22" stroke="black"/>
<path id="Vector_2" d="M66.7869 33.6148C87.2302 23.5235 105.92 19.6835 114.472 23.7324C116.165 24.5287 117.466 25.6434 118.296 27.0711L113.466 18.7573C108.432 10.0937 86.4545 13.2085 61.9566 25.301L66.7869 33.6148Z" fill="#500FA3"/>
<path id="Vector_3" d="M15.8202 86.6088C14.9907 85.1811 14.6667 83.4986 14.8134 81.6337C15.6485 70.6649 32.5452 53.0666 56.7163 39.0233C80.8874 24.9801 104.53 19.0255 114.472 23.7324C116.165 24.5287 117.466 25.6434 118.296 27.0711L113.466 18.7573C107.749 8.91871 80.1815 14.2701 51.8861 30.7095C23.5906 47.149 5.27379 68.4564 10.99 78.295L15.8202 86.6088Z" stroke="black"/>
<path id="Vector_4" d="M77.4142 74.6482C105.71 58.2087 124.007 36.8999 118.296 27.071C117.466 25.6433 116.165 24.5286 114.473 23.7323C104.53 19.0254 80.8875 24.98 56.7164 39.0232C32.5453 53.0665 15.6486 70.6648 14.8135 81.6336C14.6668 83.4985 14.9908 85.181 15.8203 86.6087C21.5308 96.4376 49.1188 91.0876 77.4142 74.6482Z" fill="#FFCA10" stroke="black"/>
<path id="Vector_5" d="M77.4142 74.6482C105.71 58.2087 124.007 36.8999 118.296 27.071C117.466 25.6433 116.165 24.5286 114.473 23.7323C104.53 19.0254 80.8875 24.98 56.7164 39.0232C32.5453 53.0665 15.6486 70.6648 14.8135 81.6336C14.6668 83.4985 14.9908 85.181 15.8203 86.6087C21.5308 96.4376 49.1188 91.0876 77.4142 74.6482Z" stroke="black"/>
</g>
</svg>
