<svg width="185" height="70" viewBox="0 0 185 70" fill="none" xmlns="http://www.w3.org/2000/svg">
<g id="Group 38376">
<rect id="Rectangle 5253" x="8.5" y="8.5" width="158" height="53" rx="7.5" fill="#20062E" stroke="#20062E"/>
<rect id="Rectangle 5254" x="10" y="10" width="155" height="28" rx="6" fill="url(#paint0_linear_1687_189)"/>
<g id="Rectangle 5255" filter="url(#filter0_d_1687_189)">
<rect x="8.5" y="8" width="168" height="54" rx="6" fill="#1E0240"/>
<rect x="9" y="8.5" width="167" height="53" rx="5.5" stroke="url(#paint1_linear_1687_189)"/>
</g>
<g id="Group 235">
<path id="Vector" d="M55.1299 24.3559C46.9028 36.916 42.3322 43.9769 39.0893 45.6267C35.7593 47.2984 33.9963 42.9431 32.1899 40.6554C32.081 40.5234 32.1899 40.3475 32.3422 40.3695C33.1475 40.5014 34.9104 40.7434 36.9781 40.6774C39.4157 40.6114 41.8969 36.542 54.7816 24.0699C54.9775 23.8719 55.2822 24.1359 55.1299 24.3559Z" fill="white"/>
<path id="Vector_2" d="M36.8037 39.9954C35.2802 39.7535 33.452 39.5335 31.8414 39.5115C31.5367 39.5115 31.2537 39.4015 31.0361 39.2035C29.5125 37.8397 28.5984 36.8719 27.5972 36.6739C27.4884 36.6739 27.4667 36.5199 27.5537 36.4979C28.3155 36.146 30.2961 35.3101 32.1896 35.3101C33.7349 35.3101 35.9331 36.9379 37.5437 38.4337C38.1967 39.0496 37.6743 40.1274 36.8037 39.9954Z" fill="white"/>
<path id="Vector_3" d="M57.6546 28.7789H61.3546L64.5105 35.3339L67.7752 28.7789H71.2793L66.1646 38.4794V43.5827H62.8346V38.4794L57.6546 28.7789Z" fill="white"/>
<path id="Vector_4" d="M72.3225 28.7789V43.5827H82.4866V40.6351H75.6089V37.2696H81.2025V34.652H75.5872V31.5505H82.0295L83.0089 28.7789H72.3225Z" fill="white"/>
<path id="Vector_5" d="M93.8069 28.7779V31.7694H88.2351C88.2351 31.7694 87.2122 31.8134 87.2122 32.7593C87.2122 33.4632 88.3222 33.8811 88.3222 33.8811C88.3222 33.8811 93.0234 36.0588 93.2628 36.1688C93.5022 36.2787 94.5904 36.8506 94.5904 39.2923C94.5904 41.9759 92.6316 43.5596 89.8675 43.5596H84.0781V40.5901H90.3681C90.6728 40.5901 91.1516 40.4801 91.1516 39.4243C91.1516 38.3684 89.7151 37.9065 89.4322 37.7745C89.1493 37.6425 85.384 36.0588 85.014 35.8388C84.644 35.6188 83.7734 35.0469 83.7734 32.6053C83.7734 30.1636 85.4928 28.7559 87.4081 28.7559H93.7851L93.8069 28.7779Z" fill="white"/>
<path id="Vector_6" d="M110.848 35.9718C111.458 35.9718 112.742 34.498 112.742 32.4303C112.742 30.3626 110.761 28.7789 109.151 28.7789H101.337V43.5827H109.151C111.24 43.5827 113.395 41.9549 113.395 39.6013C113.395 37.2476 111.458 35.9718 110.848 35.9718ZM104.667 31.6164H108.215C108.846 31.6164 109.455 32.1004 109.455 33.2222C109.455 34.344 108.737 34.828 107.997 34.828H104.689V31.6164H104.667ZM108.345 40.6571H104.667V37.4016H108.367C109.129 37.4016 109.934 38.0835 109.934 39.1613C109.934 40.2392 108.911 40.6791 108.345 40.6791V40.6571Z" fill="white"/>
<path id="Vector_7" d="M122.407 28.7789H118.707L113.657 43.5827H117.14L118.054 40.2172H123.06L123.974 43.5827H127.478L122.407 28.7789ZM118.728 37.9955L120.578 32.1444L122.363 37.9955H118.75H118.728Z" fill="white"/>
<path id="Vector_8" d="M128.522 43.5827H131.786V34.828L138.555 43.5827H141.036V28.7789H137.772V37.4016L131.286 28.7789H128.522V43.5827Z" fill="white"/>
<path id="Vector_9" d="M143.472 28.7789H146.824V35.0919L152.244 28.7789H155.987L150.502 35.4659L156.357 43.5827H152.635L148.326 37.5776L146.824 39.2713V43.5827H143.472V28.7789Z" fill="white"/>
</g>
</g>
<defs>
<filter id="filter0_d_1687_189" x="0.5" y="0" width="184" height="70" filterUnits="userSpaceOnUse" color-interpolation-filters="sRGB">
<feFlood flood-opacity="0" result="BackgroundImageFix"/>
<feColorMatrix in="SourceAlpha" type="matrix" values="0 0 0 0 0 0 0 0 0 0 0 0 0 0 0 0 0 0 127 0" result="hardAlpha"/>
<feOffset/>
<feGaussianBlur stdDeviation="4"/>
<feComposite in2="hardAlpha" operator="out"/>
<feColorMatrix type="matrix" values="0 0 0 0 0.0862745 0 0 0 0 0.0117647 0 0 0 0 0.176471 0 0 0 1 0"/>
<feBlend mode="normal" in2="BackgroundImageFix" result="effect1_dropShadow_1687_189"/>
<feBlend mode="normal" in="SourceGraphic" in2="effect1_dropShadow_1687_189" result="shape"/>
</filter>
<linearGradient id="paint0_linear_1687_189" x1="93.5" y1="38" x2="93.5" y2="10" gradientUnits="userSpaceOnUse">
<stop stop-color="#260637"/>
<stop offset="1" stop-color="#490C6A"/>
</linearGradient>
<linearGradient id="paint1_linear_1687_189" x1="3.48947" y1="8" x2="62.659" y2="121.4" gradientUnits="userSpaceOnUse">
<stop stop-color="#9059D4"/>
<stop offset="0.31" stop-color="#190137"/>
<stop offset="0.76" stop-color="#190137"/>
<stop offset="1" stop-color="#9059D4"/>
</linearGradient>
</defs>
</svg>
