<svg width="135" height="180" viewBox="0 0 135 180" fill="none" xmlns="http://www.w3.org/2000/svg">
<g id="Group 14542">
<g id="Group">
<path id="Vector" d="M133.787 153.348C133.787 154.2 133.674 155.046 133.457 155.874C130.118 168.6 101.816 178.541 67.393 178.541C32.9696 178.541 4.66823 168.6 1.32895 155.874C1.11252 155.046 0.999146 154.2 0.999146 153.348C0.999146 139.436 30.7228 128.154 67.393 128.154C104.063 128.154 133.787 139.436 133.787 153.348Z" fill="#500FA2" stroke="black" stroke-width="1.31754" stroke-miterlimit="10" stroke-linecap="round"/>
</g>
<g id="Group_2">
<path id="Vector_2" d="M133.787 143.233C133.787 144.085 133.674 144.931 133.457 145.759C130.118 158.486 101.816 168.426 67.393 168.426C32.9696 168.426 4.66823 158.486 1.32895 145.759C1.11252 144.931 0.999146 144.085 0.999146 143.233C0.999146 129.322 30.7228 118.039 67.393 118.039C104.063 118.039 133.787 129.322 133.787 143.233Z" fill="#FFCA10" stroke="black" stroke-width="1.31754" stroke-miterlimit="10" stroke-linecap="round"/>
<path id="Vector_3" d="M127.971 143.353C127.971 144.073 127.867 144.788 127.669 145.488C124.615 156.245 98.7303 164.646 67.246 164.646C35.7618 164.646 9.8768 156.245 6.82264 145.488C6.62469 144.788 6.521 144.073 6.521 143.353C6.521 131.596 33.7068 122.06 67.246 122.06C100.785 122.06 127.971 131.596 127.971 143.353Z" fill="#FFCA10" stroke="black" stroke-width="1.31754" stroke-miterlimit="10" stroke-linecap="round"/>
</g>
<g id="Group 14538">
<path id="Vector_4" d="M90.4326 131.806C89.6752 132.71 88.6828 133.387 87.5054 133.835C80.5848 136.49 67.103 131.474 54.7107 121.101C42.3184 110.728 35.0162 98.3449 36.4111 91.0652C36.6454 89.8273 37.1368 88.7313 37.8942 87.8265L33.484 93.0951C28.2649 99.3299 35.7937 114.226 50.3005 126.369C64.8073 138.513 80.8033 143.309 86.0224 137.074L90.4326 131.806Z" fill="#FFCE22" stroke="black" stroke-width="1.2"/>
<path id="Vector_5" d="M49.8216 116.652C40.4466 107.365 35.2112 97.3272 36.4111 91.0652C36.6454 89.8273 37.1368 88.7313 37.8942 87.8265L33.484 93.0951C28.8882 98.5853 34.1772 110.792 45.4114 121.92L49.8216 116.652Z" fill="#500FA3"/>
<path id="Vector_6" d="M90.4326 131.806C89.6752 132.71 88.6828 133.387 87.5055 133.835C80.5848 136.49 67.103 131.474 54.7107 121.101C42.3184 110.728 35.0162 98.3449 36.4111 91.0652C36.6454 89.8273 37.1368 88.7313 37.8942 87.8265L33.484 93.0951C28.2649 99.3299 35.7937 114.226 50.3005 126.369C64.8073 138.513 80.8033 143.309 86.0224 137.074L90.4326 131.806Z" stroke="black" stroke-width="1.2"/>
<path id="Vector_7" d="M73.6081 98.5236C59.1012 86.3801 43.1075 81.5964 37.8936 87.8251C37.1362 88.7298 36.6448 89.8258 36.4105 91.0637C35.0156 98.3434 42.3178 110.726 54.7101 121.099C67.1024 131.473 80.5842 136.488 87.5048 133.834C88.6822 133.386 89.6746 132.709 90.432 131.804C95.6459 125.575 88.1149 110.667 73.6081 98.5236Z" fill="#FFCA10" stroke="black" stroke-width="1.2"/>
</g>
<g id="Vector_8">
<path d="M133.457 155.875C133.674 155.047 133.787 154.201 133.787 153.349V143.234C133.787 144.087 133.674 144.933 133.457 145.761C130.118 158.487 101.816 168.428 67.393 168.428C32.9696 168.428 4.66823 158.487 1.32895 145.761C1.11252 144.933 0.999146 144.087 0.999146 143.234V153.349C0.999146 154.201 1.11252 155.047 1.32895 155.875C4.66823 168.601 32.9696 178.542 67.393 178.542C101.816 178.542 130.118 168.601 133.457 155.875Z" fill="#FFCA10"/>
<path d="M133.457 155.875C133.674 155.047 133.787 154.201 133.787 153.349V143.234C133.787 144.087 133.674 144.933 133.457 145.761C130.118 158.487 101.816 168.428 67.393 168.428C32.9696 168.428 4.66823 158.487 1.32895 145.761C1.11252 144.933 0.999146 144.087 0.999146 143.234V153.349C0.999146 154.201 1.11252 155.047 1.32895 155.875C4.66823 168.601 32.9696 178.542 67.393 178.542C101.816 178.542 130.118 168.601 133.457 155.875Z" stroke="black" stroke-width="0.77261" stroke-miterlimit="10" stroke-linecap="round"/>
</g>
<path id="Vector_9" d="M0.999146 153.349C0.999146 154.201 1.11252 155.047 1.32895 155.875C4.1153 166.494 24.2816 175.174 50.8825 177.757V167.643C24.2816 165.06 4.1153 156.38 1.32895 145.761C1.11252 144.933 0.999146 144.087 0.999146 143.234V153.349Z" fill="#500FA2" stroke="black" stroke-width="0.77261" stroke-miterlimit="10" stroke-linecap="round"/>
<g id="Group_3">
<path id="Rectangle 1275" opacity="0.2" d="M7.30847 25.0576H127.181V143.353C127.181 143.353 108.648 164.646 67.2449 164.646C25.8414 164.646 7.30847 143.353 7.30847 143.353V25.0576Z" fill="#FFCA10"/>
<path id="Rectangle 1276" opacity="0.2" d="M11.2507 21.0982C11.2507 20.6715 11.5966 20.3256 12.0233 20.3256H59.3736C59.8003 20.3256 60.1462 20.6715 60.1462 21.0982V161.479C60.1462 161.917 59.7713 162.267 59.3339 162.249C28.279 160.979 16.4413 152.748 11.5554 149.101C11.3605 148.956 11.2507 148.73 11.2507 148.487V21.0982Z" fill="#500FA2"/>
<g id="Group_4">
<path id="Vector_10" d="M133.787 26.5918C133.787 27.4439 133.674 28.2899 133.457 29.1178C130.118 41.8446 101.816 51.7854 67.393 51.7854C32.9696 51.7854 4.66823 41.8446 1.32895 29.1178C1.11252 28.2899 0.999146 27.4439 0.999146 26.5918C0.999146 12.6806 30.7228 1.39819 67.393 1.39819C104.063 1.39819 133.787 12.6806 133.787 26.5918Z" fill="#FFCA10" stroke="black" stroke-width="1.31754" stroke-miterlimit="10" stroke-linecap="round"/>
<g id="Vector_11">
<path d="M133.457 39.2734C133.674 38.4455 133.787 37.5995 133.787 36.7474V26.6333C133.787 27.4854 133.674 28.3314 133.457 29.1593C130.118 41.886 101.816 51.8269 67.393 51.8269C32.9696 51.8269 4.66823 41.886 1.32895 29.1593C1.11252 28.3314 0.999146 27.4854 0.999146 26.6333V36.7474C0.999146 37.5995 1.11252 38.4455 1.32895 39.2734C4.66823 52.0002 32.9696 61.9411 67.393 61.9411C101.816 61.9411 130.118 52.0002 133.457 39.2734Z" fill="#FFCA10"/>
<path d="M133.457 39.2734C133.674 38.4455 133.787 37.5995 133.787 36.7474V26.6333C133.787 27.4854 133.674 28.3314 133.457 29.1593C130.118 41.886 101.816 51.8269 67.393 51.8269C32.9696 51.8269 4.66823 41.886 1.32895 29.1593C1.11252 28.3314 0.999146 27.4854 0.999146 26.6333V36.7474C0.999146 37.5995 1.11252 38.4455 1.32895 39.2734C4.66823 52.0002 32.9696 61.9411 67.393 61.9411C101.816 61.9411 130.118 52.0002 133.457 39.2734Z" stroke="black" stroke-width="0.77261" stroke-miterlimit="10" stroke-linecap="round"/>
</g>
<path id="Vector_12" d="M0.999146 36.7474C0.999146 37.5995 1.11252 38.4455 1.32895 39.2734C4.1153 49.8929 24.2816 58.5726 50.8825 61.1559V51.0418C24.2816 48.4585 4.1153 39.7787 1.32895 29.1593C1.11252 28.3314 0.999146 27.4854 0.999146 26.6333V36.7474Z" fill="#500FA2" stroke="black" stroke-width="0.77261" stroke-miterlimit="10" stroke-linecap="round"/>
</g>
</g>
</g>
</svg>
