<svg width="175" height="232" viewBox="0 0 175 232" fill="none" xmlns="http://www.w3.org/2000/svg">
<g id="Group 14541">
<g id="Group">
<path id="Vector" d="M173.368 198.24C173.368 199.346 173.221 200.444 172.94 201.519C168.605 218.039 131.868 230.943 87.1843 230.943C42.5005 230.943 5.76344 218.039 1.42884 201.519C1.14789 200.444 1.00073 199.346 1.00073 198.24C1.00073 180.182 39.584 165.537 87.1843 165.537C134.785 165.537 173.368 180.182 173.368 198.24Z" fill="#500FA2" stroke="black" stroke-width="1.31754" stroke-miterlimit="10" stroke-linecap="round"/>
</g>
<g id="Group_2">
<path id="Vector_2" d="M173.368 185.111C173.368 186.217 173.221 187.315 172.94 188.39C168.605 204.91 131.868 217.814 87.1843 217.814C42.5005 217.814 5.76344 204.91 1.42884 188.39C1.14789 187.315 1.00073 186.217 1.00073 185.111C1.00073 167.053 39.584 152.408 87.1843 152.408C134.785 152.408 173.368 167.053 173.368 185.111Z" fill="#FFCA10" stroke="black" stroke-width="1.31754" stroke-miterlimit="10" stroke-linecap="round"/>
<path id="Vector_3" d="M165.818 185.268C165.818 186.202 165.683 187.13 165.426 188.039C161.462 202.001 127.862 212.907 86.993 212.907C46.1244 212.907 12.524 202.001 8.55952 188.039C8.30257 187.13 8.16797 186.202 8.16797 185.268C8.16797 170.006 43.4569 157.628 86.993 157.628C130.529 157.628 165.818 170.006 165.818 185.268Z" fill="#FFCA10" stroke="black" stroke-width="1.31754" stroke-miterlimit="10" stroke-linecap="round"/>
</g>
<g id="Group 14538">
<path id="Vector_4" d="M100.924 156.308C100.979 157.486 100.706 158.656 100.142 159.783C96.8423 166.42 83.5216 171.849 67.3779 172.595C51.2341 173.341 37.479 169.164 33.5807 162.86C32.9156 161.79 32.5359 160.65 32.4814 159.471L32.7987 166.335C33.1742 174.457 48.7968 180.332 67.6952 179.458C86.5935 178.585 101.617 171.293 101.242 163.171L100.924 156.308Z" fill="#FFCE22" stroke="black" stroke-width="1.2"/>
<path id="Vector_5" d="M60.7676 172.627C47.5808 172.132 36.934 168.283 33.5807 162.86C32.9156 161.79 32.5359 160.65 32.4814 159.471L32.7987 166.335C33.1294 173.487 45.2828 178.897 61.0848 179.49L60.7676 172.627Z" fill="#500FA3"/>
<path id="Vector_6" d="M100.924 156.308C100.979 157.486 100.706 158.656 100.142 159.783C96.8423 166.42 83.5216 171.849 67.3779 172.595C51.2341 173.341 37.479 169.164 33.5807 162.86C32.9156 161.79 32.5359 160.65 32.4814 159.471L32.7987 166.335C33.1742 174.457 48.7968 180.332 67.6952 179.458C86.5935 178.585 101.617 171.293 101.242 163.171L100.924 156.308Z" stroke="black" stroke-width="1.2"/>
<path id="Vector_7" d="M66.017 143.184C47.1186 144.058 32.105 151.357 32.4801 159.471C32.5346 160.649 32.9143 161.789 33.5793 162.859C37.4776 169.163 51.2328 173.34 67.3765 172.594C83.5202 171.848 96.8409 166.419 100.141 159.782C100.705 158.655 100.977 157.486 100.923 156.307C100.548 148.193 84.9153 142.31 66.017 143.184Z" fill="#FFCA10" stroke="black" stroke-width="1.2"/>
</g>
<g id="Group 14539">
<path id="Vector_8" d="M117.981 124.377C116.856 124.731 115.655 124.767 114.422 124.511C107.161 123.02 98.5016 111.534 93.6458 96.12C88.79 80.7057 89.3052 66.3396 94.4008 60.9567C95.2649 60.0398 96.2691 59.3809 97.3945 59.0264L90.8412 61.0908C83.086 63.5339 81.4082 80.14 87.0925 98.1844C92.7769 116.229 103.673 128.884 111.428 126.441L117.981 124.377Z" fill="#FFCE22" stroke="black" stroke-width="1.2"/>
<path id="Vector_9" d="M91.922 89.7383C89.0236 76.8645 90.0176 65.587 94.4008 60.9567C95.2649 60.0398 96.2691 59.3809 97.3945 59.0264L90.8412 61.0908C84.0122 63.2421 81.8956 76.3756 85.3688 91.8027L91.922 89.7383Z" fill="#500FA3"/>
<path id="Vector_10" d="M117.981 124.377C116.856 124.731 115.655 124.767 114.422 124.511C107.161 123.02 98.5016 111.534 93.6458 96.12C88.79 80.7057 89.3052 66.3396 94.4008 60.9567C95.2649 60.0398 96.2691 59.3809 97.3945 59.0264L90.8412 61.0908C83.086 63.5339 81.4082 80.14 87.0925 98.1844C92.7769 116.229 103.673 128.884 111.428 126.441L117.981 124.377Z" stroke="black" stroke-width="1.2"/>
<path id="Vector_11" d="M121.727 87.2723C116.043 69.2279 105.142 56.5842 97.3948 59.0249C96.2695 59.3794 95.2652 60.0383 94.4011 60.9552C89.3056 66.338 88.7903 80.7042 93.6461 96.1184C98.5019 111.533 107.161 123.019 114.422 124.509C115.655 124.765 116.856 124.729 117.981 124.375C125.729 121.934 127.412 105.317 121.727 87.2723Z" fill="#FFCA10" stroke="black" stroke-width="1.2"/>
</g>
<g id="Vector_12">
<path d="M172.939 201.519C173.22 200.445 173.367 199.347 173.367 198.24V185.112C173.367 186.218 173.22 187.316 172.939 188.391C168.604 204.911 131.867 217.815 87.1835 217.815C42.4997 217.815 5.7627 204.911 1.42811 188.391C1.14716 187.316 1 186.218 1 185.112V198.24C1 199.347 1.14716 200.445 1.42811 201.519C5.7627 218.04 42.4997 230.943 87.1835 230.943C131.867 230.943 168.604 218.04 172.939 201.519Z" fill="#FFCA10"/>
<path d="M172.939 201.519C173.22 200.445 173.367 199.347 173.367 198.24V185.112C173.367 186.218 173.22 187.316 172.939 188.391C168.604 204.911 131.867 217.815 87.1835 217.815C42.4997 217.815 5.7627 204.911 1.42811 188.391C1.14716 187.316 1 186.218 1 185.112V198.24C1 199.347 1.14716 200.445 1.42811 201.519C5.7627 218.04 42.4997 230.943 87.1835 230.943C131.867 230.943 168.604 218.04 172.939 201.519Z" stroke="black" stroke-width="0.77261" stroke-miterlimit="10" stroke-linecap="round"/>
</g>
<path id="Vector_13" d="M1 198.24C1 199.347 1.14716 200.445 1.42811 201.519C5.04497 215.304 31.2222 226.571 65.7517 229.924V216.795C31.2222 213.442 5.04497 202.175 1.42811 188.391C1.14716 187.316 1 186.218 1 185.112V198.24Z" fill="#500FA2" stroke="black" stroke-width="0.77261" stroke-miterlimit="10" stroke-linecap="round"/>
<g id="Group_3">
<path id="Rectangle 1275" opacity="0.2" d="M9.18982 31.7118H164.792V185.267C164.792 185.267 140.735 212.907 86.9911 212.907C33.2468 212.907 9.18982 185.267 9.18982 185.267V31.7118Z" fill="#FFCA10"/>
<path id="Rectangle 1276" opacity="0.2" d="M14.3086 26.3413C14.3086 25.9146 14.6545 25.5687 15.0812 25.5687H77.0055C77.4322 25.5687 77.7781 25.9146 77.7781 26.3413V209.034C77.7781 209.471 77.4022 209.821 76.9648 209.804C36.2747 208.18 20.9081 197.366 14.6111 192.659C14.4163 192.513 14.3086 192.289 14.3086 192.046V26.3413Z" fill="#500FA2"/>
<g id="Group_4">
<path id="Vector_14" d="M173.369 33.7029C173.369 34.809 173.221 35.9072 172.941 36.9819C168.606 53.502 131.869 66.4059 87.1851 66.4059C42.5013 66.4059 5.76429 53.502 1.42969 36.9819C1.14875 35.9072 1.00159 34.809 1.00159 33.7029C1.00159 15.6453 39.5848 1 87.1851 1C134.785 1 173.369 15.6453 173.369 33.7029Z" fill="#FFCA10" stroke="black" stroke-width="1.31754" stroke-miterlimit="10" stroke-linecap="round"/>
<g id="Vector_15">
<path d="M172.941 50.1652C173.221 49.0905 173.369 47.9923 173.369 46.8862V33.7574C173.369 34.8635 173.221 35.9617 172.941 37.0364C168.606 53.5565 131.869 66.4604 87.1851 66.4604C42.5013 66.4604 5.76429 53.5565 1.42969 37.0364C1.14875 35.9617 1.00159 34.8635 1.00159 33.7574V46.8862C1.00159 47.9923 1.14875 49.0905 1.42969 50.1652C5.76429 66.6853 42.5013 79.5892 87.1851 79.5892C131.869 79.5892 168.606 66.6853 172.941 50.1652Z" fill="#FFCA10"/>
<path d="M172.941 50.1652C173.221 49.0905 173.369 47.9923 173.369 46.8862V33.7574C173.369 34.8635 173.221 35.9617 172.941 37.0364C168.606 53.5565 131.869 66.4604 87.1851 66.4604C42.5013 66.4604 5.76429 53.5565 1.42969 37.0364C1.14875 35.9617 1.00159 34.8635 1.00159 33.7574V46.8862C1.00159 47.9923 1.14875 49.0905 1.42969 50.1652C5.76429 66.6853 42.5013 79.5892 87.1851 79.5892C131.869 79.5892 168.606 66.6853 172.941 50.1652Z" stroke="black" stroke-width="0.77261" stroke-miterlimit="10" stroke-linecap="round"/>
</g>
<path id="Vector_16" d="M1.00159 46.8862C1.00159 47.9923 1.14875 49.0905 1.42969 50.1652C5.04656 63.9499 31.2238 75.2168 65.7533 78.57V65.4412C31.2238 62.088 5.04656 50.8211 1.42969 37.0364C1.14875 35.9617 1.00159 34.8635 1.00159 33.7574V46.8862Z" fill="#500FA2" stroke="black" stroke-width="0.77261" stroke-miterlimit="10" stroke-linecap="round"/>
</g>
</g>
</g>
</svg>
