<svg width="171" height="227" viewBox="0 0 171 227" fill="none" xmlns="http://www.w3.org/2000/svg">
<g id="Group 14538">
<g id="Group">
<path id="Vector" d="M169.377 193.672C169.377 194.753 169.233 195.826 168.959 196.875C164.724 213.013 128.838 225.618 85.1886 225.618C41.5394 225.618 5.65292 213.013 1.41868 196.875C1.14424 195.826 1.00049 194.753 1.00049 193.672C1.00049 176.033 38.6904 161.727 85.1886 161.727C131.687 161.727 169.377 176.033 169.377 193.672Z" fill="#500FA2" stroke="black" stroke-width="1.70531" stroke-miterlimit="10" stroke-linecap="round"/>
</g>
<g id="Group_2">
<path id="Vector_2" d="M169.377 180.848C169.377 181.929 169.233 183.001 168.959 184.051C164.724 200.189 128.838 212.794 85.1886 212.794C41.5394 212.794 5.65292 200.189 1.41868 184.051C1.14424 183.001 1.00049 181.929 1.00049 180.848C1.00049 163.209 38.6904 148.902 85.1886 148.902C131.687 148.902 169.377 163.209 169.377 180.848Z" fill="#FFCA10" stroke="black" stroke-width="1.70531" stroke-miterlimit="10" stroke-linecap="round"/>
<path id="Vector_3" d="M162 181C162 181.913 161.869 182.82 161.618 183.707C157.745 197.346 124.923 208 85.0005 208C45.0781 208 12.2557 197.346 8.38298 183.707C8.13197 182.82 8.00049 181.913 8.00049 181C8.00049 166.091 42.4724 154 85.0005 154C127.529 154 162 166.091 162 181Z" fill="#FFCA10" stroke="black" stroke-width="1.70531" stroke-miterlimit="10" stroke-linecap="round"/>
</g>
<g id="Vector_4">
<path d="M168.958 196.876C169.233 195.827 169.376 194.754 169.376 193.673V180.849C169.376 181.929 169.233 183.002 168.958 184.052C164.724 200.189 128.837 212.794 85.1881 212.794C41.5389 212.794 5.65243 200.189 1.4182 184.052C1.14375 183.002 1 181.929 1 180.849V193.673C1 194.754 1.14375 195.827 1.4182 196.876C5.65243 213.014 41.5389 225.619 85.1881 225.619C128.837 225.619 164.724 213.014 168.958 196.876Z" fill="#FFCA10"/>
<path d="M168.958 196.876C169.233 195.827 169.376 194.754 169.376 193.673V180.849C169.376 181.929 169.233 183.002 168.958 184.052C164.724 200.189 128.837 212.794 85.1881 212.794C41.5389 212.794 5.65243 200.189 1.4182 184.052C1.14375 183.002 1 181.929 1 180.849V193.673C1 194.754 1.14375 195.827 1.4182 196.876C5.65243 213.014 41.5389 225.619 85.1881 225.619C128.837 225.619 164.724 213.014 168.958 196.876Z" stroke="black" stroke-miterlimit="10" stroke-linecap="round"/>
</g>
<path id="Vector_5" d="M1 193.673C1 194.754 1.14375 195.827 1.4182 196.876C4.95132 210.342 30.5224 221.348 64.2526 224.624V211.799C30.5224 208.523 4.95132 197.517 1.4182 184.052C1.14375 183.002 1 181.929 1 180.849V193.673Z" fill="#500FA2" stroke="black" stroke-miterlimit="10" stroke-linecap="round"/>
<path id="Vector 76" d="M141.262 188.468L75.2825 197.347C72.1633 197.767 70.5849 193.713 73.1668 191.913L96.7842 175.449C97.176 175.176 97.6272 175 98.1005 174.937L149.352 168.054C149.61 168.019 149.871 168.087 150.08 168.242L157.512 173.751C159.198 175 159.113 177.549 157.348 178.684L143.299 187.718C142.683 188.114 141.988 188.37 141.262 188.468Z" fill="#EAB600"/>
<g id="Group_3">
<g id="Group_4">
<g id="Group_5">
<path id="Vector_6" d="M116.487 123.663C116.487 124.728 115.923 125.793 114.784 126.384L70.8805 149.655C69.5013 150.382 68.0386 150.905 66.534 151.205C62.5428 152.038 58.3008 151.379 54.7484 149.278L46.7241 144.532C45.6793 143.913 45.1569 142.905 45.1569 141.889C45.1569 140.823 45.7315 139.758 46.8599 139.167L90.7636 115.896C95.7892 113.223 102.006 113.368 106.896 116.254L114.93 121.009C115.975 121.629 116.487 122.636 116.487 123.653V123.663Z" fill="#FFCA10" stroke="black" stroke-width="1.79171" stroke-miterlimit="10"/>
<path id="Vector_7" d="M66.5237 151.215V198.358C62.5324 199.191 58.2904 198.532 54.738 196.431L46.7137 191.686C45.6689 191.066 45.1465 190.059 45.1465 189.042V141.898C45.1465 142.915 45.6689 143.922 46.7137 144.542L54.738 149.288C58.2904 151.389 62.5324 152.038 66.5237 151.215Z" fill="#500FA2" stroke="black" stroke-width="1.79171" stroke-linecap="round" stroke-linejoin="round"/>
<path id="Vector_8" d="M116.487 123.664V170.807C116.487 171.872 115.923 172.938 114.784 173.528L70.8805 196.8C69.5014 197.526 68.0386 198.049 66.5341 198.359V151.216C68.0386 150.906 69.5014 150.392 70.8805 149.666L114.784 126.395C115.923 125.794 116.487 124.729 116.487 123.673V123.664Z" fill="#FFCA10" stroke="black" stroke-width="1.79171" stroke-miterlimit="10"/>
<path id="Vector_9" d="M83.3762 87.8018C93.5006 82.5723 105.955 89.3513 105.955 100.091V121.542C105.955 123.392 103.614 124.903 100.731 124.903C97.847 124.903 95.5171 123.392 95.5171 121.542V100.343C95.5171 97.215 91.902 95.2297 88.9451 96.7308L80.1268 101.195C70.8905 105.873 65.144 114.86 65.144 124.612V143.206C65.144 145.065 62.8035 146.566 59.9198 146.566C57.0361 146.566 54.6957 145.065 54.6957 143.206V124.457C54.6957 110.967 62.5737 98.5417 75.2892 91.9661L83.3866 87.7824L83.3762 87.8018Z" fill="#FFCA10" stroke="black" stroke-width="1.79171" stroke-linecap="round" stroke-linejoin="round"/>
</g>
<path id="Vector_10" d="M57.6007 120.777C59.2097 105.543 72.4686 94.0965 89.5515 88.2955C77.3375 93.3314 68.8013 100.469 63.9115 110.647C62.3233 113.959 61.4039 117.455 61.3516 120.912C61.268 122.907 57.4544 122.781 57.6112 120.777H57.6007Z" fill="#500FA2"/>
</g>
<path id="Vector_11" d="M81.5067 180.617V182.95C81.5067 184.568 83.3979 185.585 84.9129 184.781L86.9712 183.687L99.9479 176.811L102.205 175.619C104.075 174.622 105.224 172.782 105.224 170.787V144.242C105.224 142.625 103.333 141.608 101.818 142.412L99.9479 143.4L86.9712 150.276L84.5263 151.573C82.656 152.571 81.5067 154.411 81.5067 156.406V180.617Z" fill="#FFDE68"/>
<g id="Vector_12">
<path d="M81.5067 159.292V156.406C81.5067 154.411 82.656 152.571 84.5263 151.574L86.9712 150.276" fill="#FFDE68"/>
<path d="M81.5067 159.292V156.406C81.5067 154.411 82.656 152.571 84.5263 151.574L86.9712 150.276" stroke="black" stroke-width="1.79171" stroke-linecap="round" stroke-linejoin="round"/>
</g>
<g id="Vector_13">
<path d="M81.5067 180.616V182.95C81.5067 184.568 83.3979 185.585 84.9129 184.781L86.9712 183.686" fill="#FFDE68"/>
<path d="M81.5067 180.616V182.95C81.5067 184.568 83.3979 185.585 84.9129 184.781L86.9712 183.686" stroke="black" stroke-width="1.79171" stroke-linecap="round" stroke-linejoin="round"/>
</g>
<g id="Vector_14">
<path d="M99.9475 143.4L101.818 142.412C103.333 141.608 105.224 142.625 105.224 144.242V146.721" fill="#FFDE68"/>
<path d="M99.9475 143.4L101.818 142.412C103.333 141.608 105.224 142.625 105.224 144.242V146.721" stroke="black" stroke-width="1.79171" stroke-linecap="round" stroke-linejoin="round"/>
</g>
<g id="Vector_15">
<path d="M105.224 168.047V170.787C105.224 172.782 104.075 174.622 102.204 175.62L99.9475 176.811" fill="#FFDE68"/>
<path d="M105.224 168.047V170.787C105.224 172.782 104.075 174.622 102.204 175.62L99.9475 176.811" stroke="black" stroke-width="1.79171" stroke-linecap="round" stroke-linejoin="round"/>
</g>
<path id="Rectangle 1275" opacity="0.2" d="M9 31H161V181C161 181 137.5 208 85 208C32.5 208 9 181 9 181V31Z" fill="#FFCA10"/>
<path id="Rectangle 1276" opacity="0.2" d="M14 26C14 25.4477 14.4477 25 15 25H75C75.5523 25 76 25.4477 76 26V203.963C76 204.529 75.5149 204.982 74.9487 204.959C35.6041 203.347 20.5939 192.922 14.3946 188.295C14.1423 188.107 14 187.815 14 187.5V26Z" fill="#500FA2"/>
<g id="Group_6">
<path id="Vector_16" d="M101.087 162.091C100.993 164.415 100.711 166.768 100.136 169.199C100.084 169.431 99.9689 169.722 99.8226 169.877C99.6973 170.013 99.4152 170.09 99.3211 170.003C99.2062 169.896 99.1539 169.625 99.1957 169.393C99.3629 168.356 99.6241 167.301 99.7599 166.274C100.115 163.689 100.22 161.18 99.739 158.943C99.039 155.68 96.2284 154.208 93.2193 155.457C90.0326 156.784 87.3369 160.561 86.6787 164.609C86.6369 164.87 86.4802 165.238 86.3026 165.403C85.9578 165.751 85.6548 165.48 85.7279 164.919C85.8637 163.853 86.1563 162.788 86.5742 161.732C88.1624 157.704 91.2759 154.585 94.3059 153.966C97.5031 153.297 100.011 155.031 100.711 158.517C100.941 159.641 100.972 160.89 101.087 162.091Z" fill="black"/>
<path id="Vector_17" d="M96.2068 163.815C96.1441 167.688 95.3292 171.33 93.6992 175.058C93.6052 175.261 93.4694 175.523 93.3231 175.62C93.1768 175.726 92.9469 175.726 92.832 175.649C92.6544 175.523 92.7066 175.232 92.832 174.922C93.1768 174.041 93.5529 173.16 93.8455 172.279C94.9948 168.87 95.4127 165.635 95.1515 162.556C95.0575 161.384 94.1903 160.822 93.1977 161.268C92.1529 161.742 91.3379 163.079 91.3275 164.347C91.317 165.412 91.3797 166.458 91.2857 167.553C91.0349 170.342 90.1155 173.092 88.6109 175.794C88.3706 176.22 88.0885 176.404 87.8691 176.288C87.6392 176.162 87.6392 175.794 87.89 175.349C89.1438 173.092 89.9796 170.778 90.2617 168.415C90.3976 167.34 90.4394 166.265 90.3767 165.267C90.2513 163.34 91.3275 161.132 92.8738 160.299C94.556 159.398 95.9561 160.183 96.1128 162.139C96.165 162.788 96.1755 163.466 96.1964 163.844L96.2068 163.815Z" fill="black"/>
<path id="Vector_18" d="M88.8937 166.401C88.9668 169.18 88.319 171.93 86.7622 174.719C86.5846 175.029 86.3966 175.301 86.1249 175.291C85.7801 175.281 85.7592 174.845 85.9995 174.332C86.4697 173.335 86.9712 172.327 87.3369 171.311C87.9116 169.684 88.1101 168.105 88.0056 166.604C87.7757 163.108 89.4892 159.534 92.2685 157.714C94.4522 156.29 96.7717 156.678 97.8583 158.624C98.0568 158.973 98.015 159.321 97.7643 159.602C97.4926 159.902 97.2314 159.873 97.0224 159.505C96.1448 158.014 94.494 157.646 92.8013 158.576C91.0251 159.554 89.5415 161.646 89.134 163.883C88.9773 164.735 88.9877 165.558 88.9146 166.401C88.8832 166.401 88.9459 166.401 88.9146 166.401H88.8937Z" fill="black"/>
<path id="Vector_19" d="M93.8982 151.176C95.34 150.663 97.1267 150.634 98.7566 151.283C98.8716 151.331 99.0283 151.37 99.0492 151.496C99.0805 151.699 99.0805 151.98 98.9865 152.184C98.8611 152.474 98.6104 152.561 98.4014 152.503C98.0148 152.387 97.6387 152.232 97.2416 152.154C93.6892 151.38 89.2905 154.082 86.5948 158.75C86.5322 158.856 86.4695 158.972 86.4068 159.079C86.1769 159.456 85.9053 159.602 85.7067 159.466C85.4978 159.321 85.4769 158.943 85.7172 158.556C86.2291 157.742 86.7307 156.9 87.2949 156.144C89.0606 153.82 91.2025 152.164 93.8982 151.176Z" fill="black"/>
<path id="Vector_20" d="M97.6075 163.719C97.6075 163.292 97.6075 162.866 97.6075 162.44C97.6075 162.014 97.7956 161.656 98.0881 161.53C98.3702 161.414 98.5583 161.578 98.5687 161.995C98.7046 165.529 98.0986 169.21 96.7612 173.045C96.7403 173.103 96.7194 173.161 96.6985 173.219C96.5313 173.655 96.291 173.877 96.0403 173.848C95.7686 173.819 95.7059 173.529 95.8417 173.093C96.1865 171.96 96.5522 170.827 96.8448 169.694C97.3672 167.641 97.5971 165.655 97.6075 163.719Z" fill="black"/>
<path id="Vector_21" d="M102.424 159.864C102.351 157.394 101.641 155.438 100.355 153.937C100.303 153.879 100.251 153.831 100.199 153.772C100.011 153.569 100.021 153.288 100.23 152.949C100.429 152.639 100.742 152.533 100.93 152.765C101.338 153.269 101.755 153.763 102.079 154.344C102.957 155.913 103.459 157.743 103.365 159.98C103.333 160.61 103.176 160.949 102.842 161.074C102.497 161.2 102.361 160.987 102.393 160.348C102.393 160.184 102.403 160.019 102.414 159.854L102.424 159.864Z" fill="black"/>
<path id="Vector_22" d="M84.4845 161.674C84.9442 161.49 85.1113 161.839 84.9651 162.41C84.7457 163.253 84.5054 164.095 84.3591 164.938C84.077 166.546 84.077 168.056 84.2859 169.47C84.3486 169.887 84.2128 170.226 83.9307 170.419C83.6277 170.623 83.4083 170.507 83.3456 170.08C82.9695 167.679 83.2098 165.103 84.0665 162.352C84.1606 162.042 84.2859 161.752 84.4845 161.674Z" fill="black"/>
<path id="Vector_23" d="M93.4278 168.734C93.3756 169.132 93.1144 169.441 92.8532 169.49C92.5711 169.538 92.4143 169.296 92.4979 168.86C92.8009 167.185 92.9158 165.577 92.8009 164.047C92.8009 163.979 92.8009 163.912 92.8009 163.844C92.78 163.486 92.9263 163.205 93.2084 163.011C93.4696 162.837 93.7099 162.972 93.7413 163.35C93.7622 163.621 93.898 164.57 93.8353 165.674C93.7726 166.807 93.5218 168.105 93.4383 168.725L93.4278 168.734Z" fill="black"/>
<path id="Vector_24" d="M86.5741 168.347C86.4696 169.916 86.0517 171.455 85.268 172.986C85.0591 173.392 84.7979 173.576 84.568 173.47C84.3277 173.354 84.2859 173.044 84.5053 172.598C85.1845 171.233 85.571 169.877 85.6128 168.502C85.6233 168.105 85.8532 167.756 86.1144 167.659C86.386 167.562 86.5636 167.746 86.5636 168.143C86.5636 168.211 86.5636 168.289 86.5636 168.347H86.5741Z" fill="black"/>
<path id="Vector_25" d="M90.471 176.549C90.3351 176.482 90.1471 176.472 90.0844 176.336C90.0217 176.201 90.0321 175.93 90.1053 175.746C90.5963 174.554 91.1083 173.373 91.6203 172.201C91.777 171.843 92.0069 171.669 92.2576 171.717C92.4979 171.765 92.6024 172.007 92.4666 172.337C91.9442 173.605 91.3904 174.874 90.8367 176.133C90.774 176.269 90.6277 176.375 90.471 176.549Z" fill="black"/>
</g>
<g id="Group_7">
<path id="Vector_26" d="M169.376 32.9458C169.376 34.0262 169.232 35.099 168.958 36.1488C164.724 52.2864 128.837 64.8916 85.1881 64.8916C41.5389 64.8916 5.65243 52.2864 1.4182 36.1488C1.14375 35.099 1 34.0262 1 32.9458C1 15.3063 38.6899 1 85.1881 1C131.686 1 169.376 15.3063 169.376 32.9458Z" fill="#FFCA10" stroke="black" stroke-width="1.70531" stroke-miterlimit="10" stroke-linecap="round"/>
<g id="Vector_27">
<path d="M168.958 49.0278C169.233 47.978 169.376 46.9053 169.376 45.8248V33C169.376 34.0804 169.233 35.1532 168.958 36.203C164.724 52.3406 128.837 64.9458 85.1881 64.9458C41.5389 64.9458 5.65243 52.3406 1.4182 36.203C1.14375 35.1532 1 34.0804 1 33V45.8248C1 46.9053 1.14375 47.978 1.4182 49.0278C5.65243 65.1655 41.5389 77.7706 85.1881 77.7706C128.837 77.7706 164.724 65.1655 168.958 49.0278Z" fill="#FFCA10"/>
<path d="M168.958 49.0278C169.233 47.978 169.376 46.9053 169.376 45.8248V33C169.376 34.0804 169.233 35.1532 168.958 36.203C164.724 52.3406 128.837 64.9458 85.1881 64.9458C41.5389 64.9458 5.65243 52.3406 1.4182 36.203C1.14375 35.1532 1 34.0804 1 33V45.8248C1 46.9053 1.14375 47.978 1.4182 49.0278C5.65243 65.1655 41.5389 77.7706 85.1881 77.7706C128.837 77.7706 164.724 65.1655 168.958 49.0278Z" stroke="black" stroke-miterlimit="10" stroke-linecap="round"/>
</g>
<path id="Vector_28" d="M1 45.8248C1 46.9053 1.14375 47.978 1.4182 49.0278C4.95132 62.4934 30.5224 73.4994 64.2526 76.775V63.9502C30.5224 60.6746 4.95132 49.6685 1.4182 36.203C1.14375 35.1532 1 34.0804 1 33V45.8248Z" fill="#500FA2" stroke="black" stroke-miterlimit="10" stroke-linecap="round"/>
</g>
</g>
</g>
</svg>
