<svg width="175" height="297" viewBox="0 0 175 297" fill="none" xmlns="http://www.w3.org/2000/svg">
<path d="M173.769 253.623C173.769 255.04 173.622 256.448 173.341 257.825C169.006 279.001 132.269 295.541 87.5854 295.541C42.9016 295.541 6.16456 279.001 1.82996 257.825C1.54902 256.448 1.40186 255.04 1.40186 253.623C1.40186 230.476 39.9851 211.704 87.5854 211.704C135.186 211.704 173.769 230.476 173.769 253.623Z" fill="#500FA2" stroke="black" stroke-width="1.31754" stroke-miterlimit="10" stroke-linecap="round"/>
<path d="M173.769 236.794C173.769 238.212 173.622 239.62 173.341 240.997C169.006 262.173 132.269 278.713 87.5854 278.713C42.9016 278.713 6.16456 262.173 1.82996 240.997C1.54902 239.62 1.40186 238.212 1.40186 236.794C1.40186 213.648 39.9851 194.875 87.5854 194.875C135.186 194.875 173.769 213.648 173.769 236.794Z" fill="#FFCA10" stroke="black" stroke-width="1.31754" stroke-miterlimit="10" stroke-linecap="round"/>
<path d="M166.219 236.995C166.219 238.193 166.085 239.383 165.828 240.547C161.863 258.444 128.263 272.424 87.3941 272.424C46.5255 272.424 12.9251 258.444 8.96065 240.547C8.70369 239.383 8.56909 238.193 8.56909 236.995C8.56909 217.432 43.858 201.566 87.3941 201.566C130.93 201.566 166.219 217.432 166.219 236.995Z" fill="#FFCA10" stroke="black" stroke-width="1.31754" stroke-miterlimit="10" stroke-linecap="round"/>
<path d="M94.7343 228.987C94.2263 230.052 93.4338 230.954 92.4053 231.682C86.3644 235.977 72.0581 234.479 57.4718 227.521C42.8855 220.563 32.7281 210.39 32.265 202.993C32.1835 201.735 32.3863 200.551 32.8943 199.486L29.936 205.688C26.4352 213.026 37.4384 225.577 54.5136 233.722C71.5887 241.868 88.2752 242.527 91.776 235.188L94.7343 228.987Z" fill="#FFCE22" stroke="black" stroke-width="1.2"/>
<path d="M51.6283 224.43C40.2349 217.773 32.6633 209.356 32.265 202.993C32.1835 201.735 32.3863 200.551 32.8943 199.486L29.936 205.688C26.8533 212.15 35.0171 222.653 48.67 230.632L51.6283 224.43Z" fill="#500FA3"/>
<path d="M94.7343 228.987C94.2263 230.052 93.4338 230.954 92.4053 231.682C86.3644 235.977 72.0581 234.479 57.4718 227.521C42.8855 220.563 32.7281 210.39 32.265 202.993C32.1835 201.735 32.3863 200.551 32.8943 199.486L29.936 205.688C26.4352 213.026 37.4384 225.577 54.5136 233.722C71.5887 241.868 88.2752 242.527 91.776 235.188L94.7343 228.987Z" stroke="black" stroke-width="1.2"/>
<path d="M70.1474 200.948C53.0722 192.802 36.3909 192.155 32.8935 199.486C32.3855 200.551 32.1827 201.735 32.2643 202.992C32.7273 210.39 42.8848 220.562 57.4711 227.521C72.0574 234.479 86.3637 235.976 92.4046 231.681C93.433 230.954 94.2255 230.051 94.7336 228.986C98.2309 221.655 87.2225 209.093 70.1474 200.948Z" fill="#FFCA10" stroke="black" stroke-width="1.2"/>
<path d="M125.991 114.552C127.126 114.873 128.149 115.503 129.04 116.394C134.29 121.626 135.22 135.981 130.815 151.53C126.41 167.079 118.092 178.803 110.877 180.504C109.652 180.796 108.451 180.795 107.315 180.474L113.926 182.346C121.749 184.563 132.269 171.605 137.426 153.403C142.583 135.2 140.425 118.641 132.602 116.425L125.991 114.552Z" fill="#FFCE22" stroke="black" stroke-width="1.2"/>
<path d="M128.752 157.81C124.106 170.161 117.083 179.041 110.877 180.504C109.652 180.796 108.451 180.795 107.315 180.474L113.926 182.346C120.815 184.298 129.795 174.483 135.363 159.683L128.752 157.81Z" fill="#500FA3"/>
<path d="M125.991 114.552C127.126 114.873 128.149 115.503 129.04 116.394C134.29 121.626 135.22 135.981 130.815 151.53C126.41 167.079 118.092 178.803 110.877 180.504C109.652 180.796 108.451 180.795 107.315 180.474L113.926 182.346C121.749 184.563 132.269 171.605 137.426 153.403C142.583 135.2 140.425 118.641 132.602 116.425L125.991 114.552Z" stroke="black" stroke-width="1.2"/>
<path d="M102.487 143.506C97.3307 161.708 99.4989 178.261 107.314 180.475C108.449 180.796 109.651 180.797 110.876 180.505C118.091 178.804 126.409 167.08 130.814 151.531C135.219 135.982 134.289 121.628 129.038 116.395C128.148 115.504 127.125 114.875 125.99 114.553C118.174 112.339 107.644 125.304 102.487 143.506Z" fill="#FFCA10" stroke="black" stroke-width="1.2"/>
<path d="M173.339 257.826C173.62 256.448 173.767 255.041 173.767 253.623V236.794C173.767 238.212 173.62 239.62 173.339 240.997C169.005 262.173 132.268 278.713 87.5839 278.713C42.9001 278.713 6.16309 262.173 1.8285 240.997C1.54755 239.62 1.40039 238.212 1.40039 236.794V253.623C1.40039 255.041 1.54755 256.448 1.8285 257.826C6.16309 279.001 42.9001 295.542 87.5839 295.542C132.268 295.542 169.005 279.001 173.339 257.826Z" fill="#FFCA10"/>
<path d="M173.339 257.826C173.62 256.448 173.767 255.041 173.767 253.623V236.794C173.767 238.212 173.62 239.62 173.339 240.997C169.005 262.173 132.268 278.713 87.5839 278.713C42.9001 278.713 6.16309 262.173 1.8285 240.997C1.54755 239.62 1.40039 238.212 1.40039 236.794V253.623C1.40039 255.041 1.54755 256.448 1.8285 257.826C6.16309 279.001 42.9001 295.542 87.5839 295.542C132.268 295.542 169.005 279.001 173.339 257.826Z" stroke="black" stroke-width="0.77261" stroke-miterlimit="10" stroke-linecap="round"/>
<path d="M1.40039 253.623C1.40039 255.041 1.54755 256.448 1.8285 257.826C5.44536 275.495 31.6226 289.937 66.1521 294.235V277.407C31.6226 273.108 5.44536 258.666 1.8285 240.997C1.54755 239.62 1.40039 238.212 1.40039 236.794V253.623Z" fill="#500FA2" stroke="black" stroke-width="0.77261" stroke-miterlimit="10" stroke-linecap="round"/>
<path opacity="0.2" d="M9.59106 40.1655H165.194V236.994C165.194 236.994 141.137 272.423 87.3924 272.423C33.6481 272.423 9.59106 236.994 9.59106 236.994V40.1655Z" fill="#FFCA10"/>
<path opacity="0.2" d="M14.7097 33.0642C14.7097 32.6375 15.0556 32.2916 15.4823 32.2916H77.4066C77.8333 32.2916 78.1792 32.6375 78.1792 33.0642V267.676C78.1792 268.117 77.7984 268.468 77.358 268.446C36.5189 266.355 21.1921 252.397 14.9407 246.4C14.789 246.255 14.7097 246.06 14.7097 245.85V33.0642Z" fill="#500FA2"/>
<path d="M173.771 42.719C173.771 44.1367 173.623 45.5444 173.343 46.9219C169.008 68.0976 132.271 84.6379 87.5871 84.6379C42.9033 84.6379 6.16627 68.0976 1.83167 46.9219C1.55073 45.5444 1.40356 44.1367 1.40356 42.719C1.40356 19.5726 39.9868 0.800049 87.5871 0.800049C135.187 0.800049 173.771 19.5726 173.771 42.719Z" fill="#FFCA10" stroke="black" stroke-width="1.31754" stroke-miterlimit="10" stroke-linecap="round"/>
<path d="M173.343 63.8199C173.623 62.4424 173.771 61.0347 173.771 59.6169V42.7883C173.771 44.2061 173.623 45.6138 173.343 46.9913C169.008 68.1669 132.271 84.7073 87.5871 84.7073C42.9033 84.7073 6.16627 68.1669 1.83167 46.9913C1.55073 45.6138 1.40356 44.2061 1.40356 42.7883V59.6169C1.40356 61.0347 1.55073 62.4424 1.83167 63.8199C6.16627 84.9955 42.9033 101.536 87.5871 101.536C132.271 101.536 169.008 84.9955 173.343 63.8199Z" fill="#FFCA10"/>
<path d="M173.343 63.8199C173.623 62.4424 173.771 61.0347 173.771 59.6169V42.7883C173.771 44.2061 173.623 45.6138 173.343 46.9913C169.008 68.1669 132.271 84.7073 87.5871 84.7073C42.9033 84.7073 6.16627 68.1669 1.83167 46.9913C1.55073 45.6138 1.40356 44.2061 1.40356 42.7883V59.6169C1.40356 61.0347 1.55073 62.4424 1.83167 63.8199C6.16627 84.9955 42.9033 101.536 87.5871 101.536C132.271 101.536 169.008 84.9955 173.343 63.8199Z" stroke="black" stroke-width="0.77261" stroke-miterlimit="10" stroke-linecap="round"/>
<path d="M1.40356 59.6169C1.40356 61.0347 1.55073 62.4424 1.83167 63.8199C5.44854 81.4892 31.6257 95.9312 66.1553 100.229V83.4008C31.6257 79.1026 5.44854 64.6606 1.83167 46.9913C1.55073 45.6138 1.40356 44.2061 1.40356 42.7883V59.6169Z" fill="#500FA2" stroke="black" stroke-width="0.77261" stroke-miterlimit="10" stroke-linecap="round"/>
</svg>
