<svg width="113" height="150" viewBox="0 0 113 150" fill="none" xmlns="http://www.w3.org/2000/svg">
<g id="Group 14542">
<g id="Group">
<path id="Vector" d="M111.657 127.624C111.657 128.334 111.562 129.039 111.382 129.729C108.599 140.334 85.0148 148.618 56.3286 148.618C27.6424 148.618 4.05793 140.334 1.2752 129.729C1.09484 129.039 1.00037 128.334 1.00037 127.624C1.00037 116.031 25.7701 106.629 56.3286 106.629C86.8871 106.629 111.657 116.031 111.657 127.624Z" fill="#500FA2" stroke="black" stroke-width="1.09795" stroke-miterlimit="10" stroke-linecap="round"/>
</g>
<g id="Group_2">
<path id="Vector_2" d="M111.657 119.195C111.657 119.905 111.562 120.61 111.382 121.3C108.599 131.906 85.0147 140.19 56.3285 140.19C27.6423 140.19 4.05784 131.906 1.27511 121.3C1.09475 120.61 1.00027 119.905 1.00027 119.195C1.00027 107.602 25.77 98.2003 56.3285 98.2003C86.887 98.2003 111.657 107.602 111.657 119.195Z" fill="#FFCA10" stroke="black" stroke-width="1.09795" stroke-miterlimit="10" stroke-linecap="round"/>
<path id="Vector_3" d="M106.809 119.295C106.809 119.896 106.723 120.491 106.558 121.075C104.013 130.038 82.4418 137.04 56.2049 137.04C29.9681 137.04 8.39725 130.038 5.85211 121.075C5.68715 120.491 5.60074 119.896 5.60074 119.295C5.60074 109.498 28.2556 101.551 56.2049 101.551C84.1543 101.551 106.809 109.498 106.809 119.295Z" fill="#FFCA10" stroke="black" stroke-width="1.09795" stroke-miterlimit="10" stroke-linecap="round"/>
</g>
<g id="Vector_4">
<path d="M111.382 129.729C111.562 129.039 111.656 128.334 111.656 127.624V119.196C111.656 119.906 111.562 120.611 111.382 121.301C108.599 131.906 85.0144 140.19 56.3282 140.19C27.6421 140.19 4.05757 131.906 1.27484 121.301C1.09448 120.611 1 119.906 1 119.196V127.624C1 128.334 1.09448 129.039 1.27484 129.729C4.05757 140.335 27.6421 148.619 56.3282 148.619C85.0144 148.619 108.599 140.335 111.382 129.729Z" fill="#FFCA10"/>
<path d="M111.382 129.729C111.562 129.039 111.656 128.334 111.656 127.624V119.196C111.656 119.906 111.562 120.611 111.382 121.301C108.599 131.906 85.0144 140.19 56.3282 140.19C27.6421 140.19 4.05757 131.906 1.27484 121.301C1.09448 120.611 1 119.906 1 119.196V127.624C1 128.334 1.09448 129.039 1.27484 129.729C4.05757 140.335 27.6421 148.619 56.3282 148.619C85.0144 148.619 108.599 140.335 111.382 129.729Z" stroke="black" stroke-width="0.643842" stroke-miterlimit="10" stroke-linecap="round"/>
</g>
<path id="Vector_5" d="M1 127.624C1 128.334 1.09448 129.039 1.27484 129.729C3.5968 138.579 20.4021 145.812 42.5694 147.965V139.536C20.4021 137.383 3.5968 130.15 1.27484 121.301C1.09448 120.611 1 119.906 1 119.196V127.624Z" fill="#500FA2" stroke="black" stroke-width="0.643842" stroke-miterlimit="10" stroke-linecap="round"/>
<g id="Group_3">
<path id="Rectangle 1275" opacity="0.2" d="M6.2576 20.7161H106.152V119.296C106.152 119.296 90.7075 137.04 56.2046 137.04C21.7017 137.04 6.2576 119.296 6.2576 119.296V20.7161Z" fill="#FFCA10"/>
<path id="Rectangle 1276" opacity="0.2" d="M9.54373 17.4163C9.54373 17.0607 9.83199 16.7725 10.1876 16.7725H49.6461C50.0017 16.7725 50.29 17.0607 50.29 17.4163V134.4C50.29 134.765 49.9776 135.057 49.613 135.042C23.7339 133.983 13.8692 127.125 9.79763 124.086C9.63522 123.964 9.54373 123.776 9.54373 123.574V17.4163Z" fill="#500FA2"/>
<g id="Group_4">
<path id="Vector_6" d="M111.656 21.9947C111.656 22.7048 111.562 23.4098 111.382 24.0997C108.599 34.7053 85.0144 42.9894 56.3282 42.9894C27.6421 42.9894 4.05757 34.7053 1.27484 24.0997C1.09448 23.4098 1 22.7048 1 21.9947C1 10.402 25.7697 1 56.3282 1C86.8867 1 111.656 10.402 111.656 21.9947Z" fill="#FFCA10" stroke="black" stroke-width="1.09795" stroke-miterlimit="10" stroke-linecap="round"/>
<g id="Vector_7">
<path d="M111.382 32.5631C111.562 31.8732 111.656 31.1682 111.656 30.4581V22.0297C111.656 22.7397 111.562 23.4447 111.382 24.1347C108.599 34.7403 85.0144 43.0244 56.3282 43.0244C27.6421 43.0244 4.05757 34.7403 1.27484 24.1347C1.09448 23.4447 1 22.7397 1 22.0297V30.4581C1 31.1682 1.09448 31.8732 1.27484 32.5631C4.05757 43.1687 27.6421 51.4528 56.3282 51.4528C85.0144 51.4528 108.599 43.1687 111.382 32.5631Z" fill="#FFCA10"/>
<path d="M111.382 32.5631C111.562 31.8732 111.656 31.1682 111.656 30.4581V22.0297C111.656 22.7397 111.562 23.4447 111.382 24.1347C108.599 34.7403 85.0144 43.0244 56.3282 43.0244C27.6421 43.0244 4.05757 34.7403 1.27484 24.1347C1.09448 23.4447 1 22.7397 1 22.0297V30.4581C1 31.1682 1.09448 31.8732 1.27484 32.5631C4.05757 43.1687 27.6421 51.4528 56.3282 51.4528C85.0144 51.4528 108.599 43.1687 111.382 32.5631Z" stroke="black" stroke-width="0.643842" stroke-miterlimit="10" stroke-linecap="round"/>
</g>
<path id="Vector_8" d="M1 30.4581C1 31.1682 1.09448 31.8732 1.27484 32.5631C3.5968 41.4126 20.4021 48.6458 42.5694 50.7985V42.37C20.4021 40.2173 3.5968 32.9842 1.27484 24.1347C1.09448 23.4447 1 22.7397 1 22.0297V30.4581Z" fill="#500FA2" stroke="black" stroke-width="0.643842" stroke-miterlimit="10" stroke-linecap="round"/>
</g>
</g>
</g>
</svg>
