<svg width="146" height="248" viewBox="0 0 146 248" fill="none" xmlns="http://www.w3.org/2000/svg">
<g id="Group 14540">
<g id="Group">
<path id="Vector" d="M144.64 211.686C144.64 212.867 144.518 214.04 144.283 215.188C140.671 232.834 110.057 246.618 72.8206 246.618C35.5841 246.618 4.9699 232.834 1.35773 215.188C1.12361 214.04 1.00098 212.867 1.00098 211.686C1.00098 192.397 33.1537 176.753 72.8206 176.753C112.487 176.753 144.64 192.397 144.64 211.686Z" fill="#500FA2" stroke="black" stroke-width="1.09795" stroke-miterlimit="10" stroke-linecap="round"/>
</g>
<g id="Group_2">
<path id="Vector_2" d="M144.64 197.662C144.64 198.843 144.518 200.016 144.283 201.164C140.671 218.811 110.057 232.594 72.8206 232.594C35.5841 232.594 4.9699 218.811 1.35773 201.164C1.12361 200.016 1.00098 198.843 1.00098 197.662C1.00098 178.373 33.1537 162.729 72.8206 162.729C112.487 162.729 144.64 178.373 144.64 197.662Z" fill="#FFCA10" stroke="black" stroke-width="1.09795" stroke-miterlimit="10" stroke-linecap="round"/>
<path id="Vector_3" d="M138.348 197.829C138.348 198.828 138.236 199.819 138.021 200.789C134.718 215.704 106.717 227.353 72.6602 227.353C38.603 227.353 10.6027 215.704 7.29895 200.789C7.08482 199.819 6.97266 198.828 6.97266 197.829C6.97266 181.527 36.3801 168.305 72.6602 168.305C108.94 168.305 138.348 181.527 138.348 197.829Z" fill="#FFCA10" stroke="black" stroke-width="1.09795" stroke-miterlimit="10" stroke-linecap="round"/>
</g>
<g id="Vector_4">
<path d="M144.282 215.189C144.517 214.041 144.639 212.868 144.639 211.686V197.663C144.639 198.844 144.517 200.017 144.282 201.165C140.67 218.811 110.056 232.595 72.8196 232.595C35.5831 232.595 4.96892 218.811 1.35676 201.165C1.12263 200.017 1 198.844 1 197.663V211.686C1 212.868 1.12263 214.041 1.35676 215.189C4.96892 232.835 35.5831 246.619 72.8196 246.619C110.056 246.619 140.67 232.835 144.282 215.189Z" fill="#FFCA10"/>
<path d="M144.282 215.189C144.517 214.041 144.639 212.868 144.639 211.686V197.663C144.639 198.844 144.517 200.017 144.282 201.165C140.67 218.811 110.056 232.595 72.8196 232.595C35.5831 232.595 4.96892 218.811 1.35676 201.165C1.12263 200.017 1 198.844 1 197.663V211.686C1 212.868 1.12263 214.041 1.35676 215.189C4.96892 232.835 35.5831 246.619 72.8196 246.619C110.056 246.619 140.67 232.835 144.282 215.189Z" stroke="black" stroke-width="0.643842" stroke-miterlimit="10" stroke-linecap="round"/>
</g>
<path id="Vector_5" d="M1 211.686C1 212.868 1.12263 214.041 1.35676 215.189C4.37081 229.913 26.1851 241.948 54.9598 245.53V231.506C26.1851 227.925 4.37081 215.89 1.35676 201.165C1.12263 200.017 1 198.844 1 197.663V211.686Z" fill="#500FA2" stroke="black" stroke-width="0.643842" stroke-miterlimit="10" stroke-linecap="round"/>
<g id="Group_3">
<path id="Rectangle 1275" opacity="0.2" d="M7.8252 33.8051H137.494V197.829C137.494 197.829 117.447 227.353 72.6596 227.353C27.8727 227.353 7.8252 197.829 7.8252 197.829V33.8051Z" fill="#FFCA10"/>
<path id="Rectangle 1276" opacity="0.2" d="M12.0898 27.8871C12.0898 27.5315 12.3781 27.2433 12.7337 27.2433H64.3373C64.6928 27.2433 64.9811 27.5315 64.9811 27.8871V223.397C64.9811 223.764 64.6637 224.057 64.2968 224.038C30.2642 222.296 17.4918 210.664 12.2823 205.667C12.1559 205.546 12.0898 205.383 12.0898 205.208V27.8871Z" fill="#500FA2"/>
<g id="Group_4">
<path id="Vector_6" d="M144.639 35.9324C144.639 37.1139 144.517 38.287 144.282 39.4349C140.67 57.0813 110.056 70.8649 72.8196 70.8649C35.5831 70.8649 4.96892 57.0813 1.35676 39.4349C1.12263 38.287 1 37.1139 1 35.9324C1 16.6438 33.1527 1 72.8196 1C112.487 1 144.639 16.6438 144.639 35.9324Z" fill="#FFCA10" stroke="black" stroke-width="1.09795" stroke-miterlimit="10" stroke-linecap="round"/>
<g id="Vector_7">
<path d="M144.282 53.5169C144.517 52.369 144.639 51.1959 144.639 50.0144V35.9906C144.639 37.1721 144.517 38.3451 144.282 39.4931C140.67 57.1394 110.056 70.923 72.8196 70.923C35.5831 70.923 4.96892 57.1394 1.35676 39.4931C1.12263 38.3451 1 37.1721 1 35.9906V50.0144C1 51.1959 1.12263 52.369 1.35676 53.5169C4.96892 71.1633 35.5831 84.9469 72.8196 84.9469C110.056 84.9469 140.67 71.1633 144.282 53.5169Z" fill="#FFCA10"/>
<path d="M144.282 53.5169C144.517 52.369 144.639 51.1959 144.639 50.0144V35.9906C144.639 37.1721 144.517 38.3451 144.282 39.4931C140.67 57.1394 110.056 70.923 72.8196 70.923C35.5831 70.923 4.96892 57.1394 1.35676 39.4931C1.12263 38.3451 1 37.1721 1 35.9906V50.0144C1 51.1959 1.12263 52.369 1.35676 53.5169C4.96892 71.1633 35.5831 84.9469 72.8196 84.9469C110.056 84.9469 140.67 71.1633 144.282 53.5169Z" stroke="black" stroke-width="0.643842" stroke-miterlimit="10" stroke-linecap="round"/>
</g>
<path id="Vector_8" d="M1 50.0144C1 51.1959 1.12263 52.369 1.35676 53.5169C4.37081 68.2414 26.1851 80.2764 54.9598 83.8582V69.8344C26.1851 66.2525 4.37081 54.2175 1.35676 39.4931C1.12263 38.3451 1 37.1721 1 35.9906V50.0144Z" fill="#500FA2" stroke="black" stroke-width="0.643842" stroke-miterlimit="10" stroke-linecap="round"/>
</g>
</g>
</g>
</svg>
