<svg width="146" height="194" viewBox="0 0 146 194" fill="none" xmlns="http://www.w3.org/2000/svg">
<g id="Group 14539">
<g id="Group">
<path id="Vector" d="M144.64 165.366C144.64 166.287 144.517 167.203 144.283 168.098C140.671 181.865 110.057 192.618 72.8203 192.618C35.5838 192.618 4.96959 181.865 1.35743 168.098C1.12331 167.203 1.00067 166.287 1.00067 165.366C1.00067 150.318 33.1534 138.113 72.8203 138.113C112.487 138.113 144.64 150.318 144.64 165.366Z" fill="#500FA2" stroke="black" stroke-width="1.09795" stroke-miterlimit="10" stroke-linecap="round"/>
</g>
<g id="Group_2">
<path id="Vector_2" d="M144.64 154.426C144.64 155.347 144.517 156.262 144.283 157.158C140.671 170.925 110.057 181.678 72.8203 181.678C35.5838 181.678 4.96959 170.925 1.35743 157.158C1.12331 156.262 1.00067 155.347 1.00067 154.426C1.00067 139.378 33.1534 127.173 72.8203 127.173C112.487 127.173 144.64 139.378 144.64 154.426Z" fill="#FFCA10" stroke="black" stroke-width="1.09795" stroke-miterlimit="10" stroke-linecap="round"/>
<path id="Vector_3" d="M138.347 154.556C138.347 155.335 138.235 156.108 138.021 156.865C134.717 168.5 106.717 177.589 72.6598 177.589C38.6026 177.589 10.6023 168.5 7.29853 156.865C7.08439 156.108 6.97223 155.335 6.97223 154.556C6.97223 141.837 36.3797 131.522 72.6598 131.522C108.94 131.522 138.347 141.837 138.347 154.556Z" fill="#FFCA10" stroke="black" stroke-width="1.09795" stroke-miterlimit="10" stroke-linecap="round"/>
</g>
<g id="Vector_4">
<path d="M144.282 168.099C144.517 167.204 144.639 166.288 144.639 165.367V154.426C144.639 155.348 144.517 156.263 144.282 157.158C140.67 170.925 110.056 181.678 72.8196 181.678C35.5831 181.678 4.96892 170.925 1.35676 157.158C1.12263 156.263 1 155.348 1 154.426V165.367C1 166.288 1.12263 167.204 1.35676 168.099C4.96892 181.866 35.5831 192.619 72.8196 192.619C110.056 192.619 140.67 181.866 144.282 168.099Z" fill="#FFCA10"/>
<path d="M144.282 168.099C144.517 167.204 144.639 166.288 144.639 165.367V154.426C144.639 155.348 144.517 156.263 144.282 157.158C140.67 170.925 110.056 181.678 72.8196 181.678C35.5831 181.678 4.96892 170.925 1.35676 157.158C1.12263 156.263 1 155.348 1 154.426V165.367C1 166.288 1.12263 167.204 1.35676 168.099C4.96892 181.866 35.5831 192.619 72.8196 192.619C110.056 192.619 140.67 181.866 144.282 168.099Z" stroke="black" stroke-width="0.643842" stroke-miterlimit="10" stroke-linecap="round"/>
</g>
<path id="Vector_5" d="M1 165.367C1 166.288 1.12263 167.204 1.35676 168.099C4.37081 179.586 26.1851 188.975 54.9598 191.77V180.829C26.1851 178.035 4.37081 168.646 1.35676 157.158C1.12263 156.263 1 155.348 1 154.426V165.367Z" fill="#500FA2" stroke="black" stroke-width="0.643842" stroke-miterlimit="10" stroke-linecap="round"/>
<g id="Group_3">
<g id="Group 14537">
<path id="Vector_6" d="M92.2805 142.656C91.8572 143.543 91.1968 144.295 90.3397 144.902C85.3056 148.481 73.3837 147.233 61.2285 141.434C49.0732 135.636 40.6087 127.159 40.2228 120.994C40.1548 119.946 40.3238 118.96 40.7472 118.072L38.282 123.24C35.3646 129.355 44.5339 139.814 58.7632 146.602C72.9926 153.39 86.898 153.939 89.8153 147.823L92.2805 142.656Z" fill="#FFCE22" stroke="black"/>
<path id="Vector_7" d="M56.3589 138.859C46.8644 133.311 40.5547 126.297 40.2228 120.994C40.1548 119.946 40.3238 118.96 40.7472 118.072L38.282 123.24C35.713 128.625 42.5162 137.378 53.8937 144.027L56.3589 138.859Z" fill="#500FA3"/>
<path id="Vector_8" d="M92.2805 142.656C91.8572 143.543 91.1968 144.295 90.3397 144.902C85.3056 148.481 73.3837 147.233 61.2285 141.434C49.0732 135.636 40.6087 127.159 40.2228 120.994C40.1548 119.946 40.3238 118.96 40.7472 118.072L38.282 123.24C35.3646 129.355 44.5339 139.814 58.7632 146.602C72.9926 153.39 86.898 153.939 89.8153 147.823L92.2805 142.656Z" stroke="black"/>
<path id="Vector_9" d="M71.7919 119.29C57.5626 112.502 43.6615 111.962 40.747 118.072C40.3237 118.959 40.1547 119.946 40.2226 120.994C40.6085 127.158 49.073 135.636 61.2283 141.434C73.3835 147.233 85.3054 148.481 90.3395 144.901C91.1966 144.295 91.857 143.543 92.2804 142.655C95.1949 136.546 86.0212 126.078 71.7919 119.29Z" fill="#FFCA10" stroke="black"/>
</g>
<g id="Group 14538">
<path id="Vector_10" d="M97.6258 66.9992C98.0612 67.8808 98.2437 68.865 98.19 69.9135C97.8882 76.0829 89.5329 84.6781 77.4579 90.6419C65.3828 96.6056 53.4862 98.0126 48.4038 94.5024C47.5385 93.9077 46.8679 93.1647 46.4325 92.2831L48.968 97.4167C51.9684 103.492 65.8579 102.757 79.9933 95.7755C94.1287 88.7942 103.162 78.2081 100.161 72.1329L97.6258 66.9992Z" fill="#FFCE22" stroke="black"/>
<path id="Vector_11" d="M72.4221 92.875C62.1896 96.9029 52.7757 97.5219 48.4038 94.5024C47.5385 93.9077 46.8679 93.1647 46.4325 92.2831L48.968 97.4167C51.6101 102.766 62.6957 102.835 74.9575 98.0086L72.4221 92.875Z" fill="#500FA3"/>
<path id="Vector_12" d="M97.6258 66.9992C98.0612 67.8808 98.2437 68.865 98.19 69.9135C97.8882 76.0829 89.5329 84.6781 77.4579 90.6419C65.3828 96.6056 53.4862 98.0126 48.4038 94.5024C47.5385 93.9077 46.8679 93.1647 46.4325 92.2831L48.968 97.4167C51.9684 103.492 65.8579 102.757 79.9933 95.7755C94.1287 88.7942 103.162 78.2081 100.161 72.1329L97.6258 66.9992Z" stroke="black"/>
<path id="Vector_13" d="M66.5931 68.644C52.4577 75.6254 43.4348 86.2139 46.4323 92.2831C46.8677 93.1647 47.5383 93.9078 48.4036 94.5025C53.486 98.0127 65.3826 96.6057 77.4576 90.6419C89.5327 84.6782 97.888 76.083 98.1898 69.9136C98.2435 68.865 98.061 67.8809 97.6256 66.9993C94.6281 60.93 80.7285 61.6627 66.5931 68.644Z" fill="#FFCA10" stroke="black"/>
</g>
<path id="Rectangle 1275" opacity="0.2" d="M7.82477 26.5928H137.494V154.555C137.494 154.555 117.446 177.589 72.6592 177.589C27.8723 177.589 7.82477 154.555 7.82477 154.555V26.5928Z" fill="#FFCA10"/>
<path id="Rectangle 1276" opacity="0.2" d="M12.0902 22.1178C12.0902 21.7623 12.3785 21.474 12.7341 21.474H64.3376C64.6932 21.474 64.9815 21.7623 64.9815 22.1178V174.361C64.9815 174.726 64.6682 175.018 64.3037 175.003C30.3953 173.65 17.5898 164.638 12.3423 160.716C12.18 160.594 12.0902 160.408 12.0902 160.205V22.1178Z" fill="#500FA2"/>
<g id="Group_4">
<path id="Vector_14" d="M144.639 28.2525C144.639 29.1742 144.517 30.0893 144.282 30.9849C140.67 44.7517 110.056 55.5049 72.8196 55.5049C35.5831 55.5049 4.96892 44.7517 1.35676 30.9849C1.12263 30.0893 1 29.1742 1 28.2525C1 13.2044 33.1527 1 72.8196 1C112.487 1 144.639 13.2044 144.639 28.2525Z" fill="#FFCA10" stroke="black" stroke-width="1.09795" stroke-miterlimit="10" stroke-linecap="round"/>
<g id="Vector_15">
<path d="M144.282 41.9713C144.516 41.0758 144.639 40.1606 144.639 39.2389V28.2982C144.639 29.2199 144.516 30.1351 144.282 31.0306C140.67 44.7974 110.056 55.5507 72.8195 55.5507C35.583 55.5507 4.9688 44.7974 1.35663 31.0306C1.12251 30.1351 0.999878 29.2199 0.999878 28.2982V39.2389C0.999878 40.1606 1.12251 41.0758 1.35663 41.9713C4.9688 55.7381 35.583 66.4913 72.8195 66.4913C110.056 66.4913 140.67 55.7381 144.282 41.9713Z" fill="#FFCA10"/>
<path d="M144.282 41.9713C144.516 41.0758 144.639 40.1606 144.639 39.2389V28.2982C144.639 29.2199 144.516 30.1351 144.282 31.0306C140.67 44.7974 110.056 55.5507 72.8195 55.5507C35.583 55.5507 4.9688 44.7974 1.35663 31.0306C1.12251 30.1351 0.999878 29.2199 0.999878 28.2982V39.2389C0.999878 40.1606 1.12251 41.0758 1.35663 41.9713C4.9688 55.7381 35.583 66.4913 72.8195 66.4913C110.056 66.4913 140.67 55.7381 144.282 41.9713Z" stroke="black" stroke-width="0.643842" stroke-miterlimit="10" stroke-linecap="round"/>
</g>
<path id="Vector_16" d="M0.999878 39.2389C0.999878 40.1606 1.12251 41.0758 1.35663 41.9713C4.37069 53.4586 26.185 62.8476 54.9597 65.642V54.7013C26.185 51.907 4.37069 42.5179 1.35663 31.0307C1.12251 30.1351 0.999878 29.2199 0.999878 28.2982V39.2389Z" fill="#500FA2" stroke="black" stroke-width="0.643842" stroke-miterlimit="10" stroke-linecap="round"/>
</g>
</g>
</g>
</svg>
