<svg width="80" height="66" viewBox="0 0 80 66" fill="none" xmlns="http://www.w3.org/2000/svg">
<g id="Group 38602">
<g id="Union">
<mask id="path-1-inside-1_1_1971" fill="white">
<path fill-rule="evenodd" clip-rule="evenodd" d="M48.0174 47.0284C65.303 37.0485 76.4047 23.9163 72.8138 17.6967C72.7856 17.6479 72.7566 17.5996 72.7268 17.5519L72.7294 17.5504L69.014 11.1152L63.1156 14.5207C55.7952 14.9673 45.4706 18.4679 35.0137 24.5053C24.5567 30.5426 16.3628 37.7336 12.3158 43.85L6.41737 47.2554L10.1327 53.6906L10.1353 53.6891C10.1617 53.7388 10.189 53.7881 10.2172 53.8369C13.8081 60.0565 30.7318 57.0082 48.0174 47.0284Z"/>
</mask>
<path fill-rule="evenodd" clip-rule="evenodd" d="M48.0174 47.0284C65.303 37.0485 76.4047 23.9163 72.8138 17.6967C72.7856 17.6479 72.7566 17.5996 72.7268 17.5519L72.7294 17.5504L69.014 11.1152L63.1156 14.5207C55.7952 14.9673 45.4706 18.4679 35.0137 24.5053C24.5567 30.5426 16.3628 37.7336 12.3158 43.85L6.41737 47.2554L10.1327 53.6906L10.1353 53.6891C10.1617 53.7388 10.189 53.7881 10.2172 53.8369C13.8081 60.0565 30.7318 57.0082 48.0174 47.0284Z" fill="#FFD702"/>
<path d="M72.7268 17.5519L72.5548 17.2541L72.2463 17.4322L72.4352 17.7343L72.7268 17.5519ZM72.7294 17.5504L72.9013 17.8482L73.1991 17.6763L73.0272 17.3785L72.7294 17.5504ZM69.014 11.1152L69.3118 10.9433L69.1399 10.6455L68.8421 10.8174L69.014 11.1152ZM63.1156 14.5207L63.1365 14.864L63.2174 14.859L63.2876 14.8185L63.1156 14.5207ZM12.3158 43.85L12.4877 44.1478L12.5579 44.1073L12.6026 44.0397L12.3158 43.85ZM6.41737 47.2554L6.24542 46.9576L5.9476 47.1296L6.11955 47.4274L6.41737 47.2554ZM10.1327 53.6906L9.83489 53.8625L10.0068 54.1604L10.3047 53.9884L10.1327 53.6906ZM10.1353 53.6891L10.439 53.5278L10.2719 53.2131L9.96336 53.3913L10.1353 53.6891ZM72.516 17.8687C73.344 19.3028 73.3487 21.1745 72.5611 23.3848C71.7741 25.5935 70.2104 28.094 67.9817 30.7304C63.5261 36.0009 56.4631 41.7551 47.8454 46.7305L48.1893 47.3262C56.8572 42.3218 63.9879 36.52 68.5069 31.1745C70.7654 28.5029 72.3842 25.9305 73.209 23.6157C74.0332 21.3026 74.0791 19.2004 73.1117 17.5248L72.516 17.8687ZM72.4352 17.7343C72.4629 17.7786 72.4898 17.8233 72.516 17.8687L73.1117 17.5248C73.0814 17.4724 73.0503 17.4207 73.0183 17.3695L72.4352 17.7343ZM72.5574 17.2526L72.5548 17.2541L72.8987 17.8497L72.9013 17.8482L72.5574 17.2526ZM68.7162 11.2872L72.4315 17.7224L73.0272 17.3785L69.3118 10.9433L68.7162 11.2872ZM63.2876 14.8185L69.186 11.4131L68.8421 10.8174L62.9437 14.2229L63.2876 14.8185ZM35.1856 24.8031C45.6167 18.7807 55.8885 15.3062 63.1365 14.864L63.0947 14.1774C55.7019 14.6285 45.3246 18.1551 34.8417 24.2074L35.1856 24.8031ZM12.6026 44.0397C16.6096 37.9839 24.7545 30.8255 35.1856 24.8031L34.8417 24.2074C24.3588 30.2597 16.116 37.4834 12.029 43.6602L12.6026 44.0397ZM6.58932 47.5533L12.4877 44.1478L12.1438 43.5522L6.24542 46.9576L6.58932 47.5533ZM10.4305 53.5186L6.71519 47.0835L6.11955 47.4274L9.83489 53.8625L10.4305 53.5186ZM9.96336 53.3913L9.96077 53.3928L10.3047 53.9884L10.3073 53.9869L9.96336 53.3913ZM10.515 53.665C10.4888 53.6196 10.4635 53.5739 10.439 53.5278L9.83159 53.8504C9.85988 53.9037 9.88914 53.9565 9.91937 54.0089L10.515 53.665ZM47.8454 46.7305C39.2277 51.706 30.7129 54.9456 23.9208 56.169C20.5232 56.7809 17.5758 56.8849 15.2696 56.4621C12.9616 56.039 11.343 55.0991 10.515 53.665L9.91937 54.0089C10.8868 55.6845 12.7303 56.6959 15.1456 57.1386C17.5627 57.5817 20.5998 57.466 24.0427 56.8459C30.9316 55.6051 39.5214 52.3306 48.1893 47.3262L47.8454 46.7305Z" fill="black" mask="url(#path-1-inside-1_1_1971)"/>
</g>
<path id="Ellipse 1361" d="M68.9497 11.3473C69.8126 12.8419 69.8047 14.7712 69.0079 17.0072C68.2114 19.2424 66.634 21.7609 64.3978 24.4061C59.9263 29.6953 52.8464 35.4614 44.2162 40.4441C35.5859 45.4268 27.0524 48.6751 20.2361 49.9028C16.8272 50.5168 13.8573 50.6237 11.5234 50.1959C9.18854 49.7679 7.51375 48.8101 6.65089 47.3156C5.78803 45.8211 5.79595 43.8918 6.59271 41.6557C7.38917 39.4206 8.96664 36.902 11.2029 34.2568C15.6743 28.9676 22.7542 23.2015 31.3844 18.2188C40.0147 13.2361 48.5482 9.98782 55.3645 8.76007C58.7735 8.14606 61.7433 8.03919 64.0772 8.46702C66.4121 8.89503 68.0869 9.85281 68.9497 11.3473Z" fill="#FFE767" stroke="black" stroke-width="0.343898"/>
<path id="Ellipse 1360" d="M66.0246 13.0359C66.6959 14.1987 66.6013 15.7663 65.7908 17.6417C64.9819 19.5134 63.4732 21.6579 61.3786 23.9401C57.191 28.5029 50.6893 33.5865 42.8651 38.1038C35.0409 42.6211 27.3875 45.71 21.3421 47.0552C18.3184 47.728 15.7069 47.9624 13.6815 47.7271C11.6521 47.4913 10.2472 46.7894 9.57589 45.6266C8.90455 44.4638 8.99909 42.8962 9.80959 41.0208C10.6185 39.1491 12.1273 37.0046 14.2218 34.7224C18.4095 30.1596 24.9112 25.076 32.7354 20.5587C40.5596 16.0414 48.213 12.9525 54.2583 11.6073C57.282 10.9345 59.8936 10.7001 61.919 10.9354C63.9484 11.1712 65.3532 11.8732 66.0246 13.0359Z" fill="#FFD702" stroke="black" stroke-width="0.343898"/>
<path id="Subtract" fill-rule="evenodd" clip-rule="evenodd" d="M66.6254 15.2246C66.6947 14.3675 66.5503 13.6026 66.1735 12.95C63.3287 8.02276 48.3195 11.3626 32.6494 20.4098C16.9793 29.4569 6.58225 40.7854 9.42698 45.7126C9.80363 46.3649 10.3935 46.8724 11.17 47.2409C11.624 41.6273 21.2498 32.0615 34.8444 24.2127C48.4397 16.3634 61.5376 12.8101 66.6254 15.2246Z" fill="black"/>
<path id="Vector 3638" d="M69.0612 16.9382L72.7765 23.3733" stroke="black" stroke-width="0.343898"/>
<path id="Vector 3639" d="M65.9236 22.6496L69.639 29.0848" stroke="black" stroke-width="0.343898"/>
<path id="Vector 3640" d="M60.963 28.2439L64.6784 34.679" stroke="black" stroke-width="0.343898"/>
<path id="Vector 3641" d="M55.4961 32.9602L59.2114 39.3954" stroke="black" stroke-width="0.343898"/>
<path id="Vector 3642" d="M49.691 37.092L53.4064 43.5271" stroke="black" stroke-width="0.343898"/>
<path id="Vector 3643" d="M42.9636 40.9757L46.679 47.4109" stroke="black" stroke-width="0.343898"/>
<path id="Vector 3644" d="M36.0668 44.5677L39.7821 51.0028" stroke="black" stroke-width="0.343898"/>
<path id="Vector 3645" d="M28.8325 47.5745L32.5478 54.0097" stroke="black" stroke-width="0.343898"/>
<path id="Vector 3646" d="M21.8454 49.6581L25.5608 56.0933" stroke="black" stroke-width="0.343898"/>
<path id="Vector 3647" d="M14.4751 50.4034L18.1905 56.8386" stroke="black" stroke-width="0.343898"/>
</g>
</svg>
