<svg width="66" height="57" viewBox="0 0 66 57" fill="none" xmlns="http://www.w3.org/2000/svg">
<g id="Group 38601">
<g id="Union">
<mask id="path-1-inside-1_1_1952" fill="white">
<path fill-rule="evenodd" clip-rule="evenodd" d="M25.6008 40.425C39.7397 49.1815 53.7558 52.1559 56.9065 47.0685C56.9312 47.0286 56.9552 46.9882 56.9785 46.9475L56.9806 46.9488L60.2405 41.6851L55.4158 38.6971C52.2029 33.499 45.5639 27.2992 37.0105 22.002C28.457 16.7047 19.9486 13.5235 13.8634 12.9631L9.03877 9.97508L5.77886 15.2388L5.78096 15.2401C5.75489 15.2791 5.72947 15.3185 5.70473 15.3585C2.55403 20.4459 11.4618 31.6685 25.6008 40.425Z"/>
</mask>
<path fill-rule="evenodd" clip-rule="evenodd" d="M25.6008 40.425C39.7397 49.1815 53.7558 52.1559 56.9065 47.0685C56.9312 47.0286 56.9552 46.9882 56.9785 46.9475L56.9806 46.9488L60.2405 41.6851L55.4158 38.6971C52.2029 33.499 45.5639 27.2992 37.0105 22.002C28.457 16.7047 19.9486 13.5235 13.8634 12.9631L9.03877 9.97508L5.77886 15.2388L5.78096 15.2401C5.75489 15.2791 5.72947 15.3185 5.70473 15.3585C2.55403 20.4459 11.4618 31.6685 25.6008 40.425Z" fill="#FFD702"/>
<path d="M56.9785 46.9475L57.1596 46.6551L56.8567 46.4676L56.6799 46.7769L56.9785 46.9475ZM56.9806 46.9488L56.7996 47.2412L57.0919 47.4223L57.273 47.1299L56.9806 46.9488ZM60.2405 41.6851L60.5329 41.8662L60.714 41.5738L60.4216 41.3927L60.2405 41.6851ZM55.4158 38.6971L55.1233 38.8779L55.1659 38.9468L55.2348 38.9895L55.4158 38.6971ZM13.8634 12.9631L13.6824 13.2554L13.7512 13.2981L13.8319 13.3055L13.8634 12.9631ZM9.03877 9.97508L9.21984 9.68271L8.92747 9.50164L8.7464 9.79401L9.03877 9.97508ZM5.77886 15.2388L5.48649 15.0577L5.30542 15.3501L5.59779 15.5312L5.77886 15.2388ZM5.78096 15.2401L6.06675 15.4314L6.26493 15.1353L5.96203 14.9477L5.78096 15.2401ZM56.6141 46.8874C55.8999 48.0407 54.5466 48.7765 52.6225 49.0681C50.7003 49.3594 48.2557 49.1981 45.4456 48.6018C39.8285 47.4098 32.8267 44.4956 25.7818 40.1327L25.4197 40.7174C32.5138 45.1109 39.5895 48.0622 45.3029 49.2746C48.158 49.8805 50.6919 50.0563 52.7256 49.7481C54.7575 49.4402 56.3378 48.64 57.1989 47.2496L56.6141 46.8874ZM56.6799 46.7769C56.6587 46.8141 56.6367 46.8509 56.6141 46.8874L57.1989 47.2496C57.2257 47.2062 57.2518 47.1624 57.2771 47.1181L56.6799 46.7769ZM57.1617 46.6565L57.1596 46.6551L56.7974 47.2399L56.7996 47.2412L57.1617 46.6565ZM59.9482 41.504L56.6883 46.7678L57.273 47.1299L60.5329 41.8662L59.9482 41.504ZM55.2348 38.9895L60.0595 41.9775L60.4216 41.3927L55.5969 38.4047L55.2348 38.9895ZM36.8294 22.2943C45.3574 27.5758 51.9485 33.7416 55.1233 38.8779L55.7084 38.5163C52.4573 33.2565 45.7704 27.0226 37.1915 21.7096L36.8294 22.2943ZM13.8319 13.3055C19.8448 13.8593 28.3014 17.0128 36.8294 22.2943L37.1915 21.7096C28.6127 16.3966 20.0523 13.1877 13.895 12.6206L13.8319 13.3055ZM8.8577 10.2674L13.6824 13.2554L14.0445 12.6707L9.21984 9.68271L8.8577 10.2674ZM6.07123 15.4199L9.33114 10.1561L8.7464 9.79401L5.48649 15.0577L6.07123 15.4199ZM5.96203 14.9477L5.95993 14.9464L5.59779 15.5312L5.59989 15.5325L5.96203 14.9477ZM5.9971 15.5395C6.01971 15.503 6.04292 15.467 6.06675 15.4314L5.49518 15.0488C5.46685 15.0911 5.43924 15.134 5.41236 15.1774L5.9971 15.5395ZM25.7818 40.1327C18.737 35.7697 13.0084 30.7997 9.43849 26.302C7.65256 24.052 6.41905 21.9353 5.82335 20.0846C5.2271 18.2322 5.28284 16.6929 5.9971 15.5395L5.41236 15.1774C4.55128 16.5678 4.53897 18.3391 5.16864 20.2954C5.79886 22.2533 7.08521 24.4435 8.89976 26.7296C12.5308 31.3043 18.3256 36.3239 25.4197 40.7174L25.7818 40.1327Z" fill="black" mask="url(#path-1-inside-1_1_1952)"/>
</g>
<path id="Ellipse 1361" d="M60.0204 41.7142C59.2695 42.9268 57.8595 43.6787 55.9084 43.9743C53.9583 44.2699 51.4914 44.105 48.6701 43.5063C43.0289 42.3091 36.0086 39.3857 28.9514 35.0151C21.8943 30.6445 16.1491 25.6621 12.5639 21.1452C10.7709 18.8861 9.52413 16.7511 8.9198 14.8736C8.3152 12.9952 8.36008 11.3979 9.11104 10.1853C9.86201 8.9727 11.272 8.22083 13.223 7.92517C15.1732 7.62965 17.6401 7.79451 20.4614 8.39323C26.1026 9.59037 33.1229 12.5138 40.18 16.8844C47.2372 21.255 52.9824 26.2374 56.5676 30.7543C58.3606 33.0134 59.6074 35.1484 60.2117 37.0259C60.8163 38.9044 60.7714 40.5017 60.0204 41.7142Z" fill="#FFE767" stroke="black" stroke-width="0.343898"/>
<path id="Ellipse 1360" d="M57.628 40.2325C57.0459 41.1723 55.869 41.7188 54.1766 41.8626C52.4882 42.0061 50.3227 41.7444 47.8234 41.1066C42.8269 39.8316 36.5351 37.0635 30.137 33.101C23.7389 29.1386 18.4574 24.7392 15.0896 20.8341C13.4051 18.8808 12.206 17.0587 11.5821 15.4832C10.9568 13.904 10.9217 12.6069 11.5038 11.6671C12.0858 10.7272 13.2627 10.1807 14.9551 10.0369C16.6436 9.89341 18.809 10.1551 21.3083 10.7929C26.3049 12.0679 32.5966 14.836 38.9948 18.7985C45.3929 22.761 50.6744 27.1603 54.0421 31.0654C55.7267 33.0187 56.9258 34.8408 57.5496 36.4163C58.1749 37.9955 58.21 39.2926 57.628 40.2325Z" fill="#FFD702" stroke="black" stroke-width="0.343898"/>
<path id="Subtract" fill-rule="evenodd" clip-rule="evenodd" d="M56.2825 41.5512C56.939 41.2643 57.4436 40.8568 57.7742 40.323C60.2702 36.2927 51.9029 26.5904 39.0853 18.6523C26.2677 10.7142 13.8536 7.54625 11.3576 11.5765C11.0271 12.1102 10.887 12.7433 10.9226 13.4587C15.2225 11.5795 26.0388 14.8759 37.1587 21.7627C48.279 28.6496 56.0495 36.8645 56.2825 41.5512Z" fill="black"/>
<path id="Vector 3638" d="M55.9843 44.0145L52.7244 49.2783" stroke="black" stroke-width="0.343898"/>
<path id="Vector 3639" d="M50.5549 43.9622L47.295 49.2259" stroke="black" stroke-width="0.343898"/>
<path id="Vector 3640" d="M44.493 42.5253L41.233 47.789" stroke="black" stroke-width="0.343898"/>
<path id="Vector 3641" d="M38.8759 40.3706L35.616 45.6343" stroke="black" stroke-width="0.343898"/>
<path id="Vector 3642" d="M33.5548 37.7374L30.2949 43.0011" stroke="black" stroke-width="0.343898"/>
<path id="Vector 3643" d="M28.0523 34.3293L24.7923 39.593" stroke="black" stroke-width="0.343898"/>
<path id="Vector 3644" d="M22.6972 30.682L19.4373 35.9457" stroke="black" stroke-width="0.343898"/>
<path id="Vector 3645" d="M17.6387 26.5561L14.3788 31.8198" stroke="black" stroke-width="0.343898"/>
<path id="Vector 3646" d="M13.3553 22.2481L10.0954 27.5118" stroke="black" stroke-width="0.343898"/>
<path id="Vector 3647" d="M9.90345 17.1312L6.64354 22.3949" stroke="black" stroke-width="0.343898"/>
</g>
</svg>
