<svg width="90" height="91" viewBox="0 0 90 91" fill="none" xmlns="http://www.w3.org/2000/svg">
<path d="M26.011 28.1889C14.1485 41.3693 14.0104 60.5824 25.6782 71.0836C27.373 72.6089 29.2381 73.8756 31.2032 74.8688C42.7667 80.7326 58.1675 77.5098 68.301 66.2506C78.4344 54.9915 80.029 39.3307 72.984 28.4465C71.7901 26.5965 70.3347 24.8747 68.6398 23.3493C56.9721 12.8481 37.8735 15.0086 26.011 28.1889Z" fill="#500FA2" stroke="black" stroke-width="0.582018"/>
<path d="M21.6924 23.8706C9.82992 37.0509 9.69179 56.264 21.3596 66.7652C23.0544 68.2906 24.9195 69.5572 26.8846 70.5504C38.4481 76.4142 53.8489 73.1914 63.9824 61.9323C74.1158 50.6731 75.7104 35.0124 68.6654 24.1282C67.4715 22.2782 66.0161 20.5563 64.3212 19.031C52.6535 8.52975 33.5549 10.6903 21.6924 23.8706Z" fill="#131313" stroke="black" stroke-width="0.582018"/>
<path d="M21.6922 23.8708C16.7367 29.3768 13.8272 35.9356 12.9698 42.4723L50.2448 71.3831C55.2657 69.4998 60.0255 66.3287 63.9822 61.9325C74.1156 50.6733 75.7102 35.0126 68.6652 24.1284C67.4713 22.2784 66.0159 20.5565 64.321 19.0311C52.6533 8.52994 33.5547 10.6905 21.6922 23.8708Z" fill="#FFCA10" stroke="black" stroke-width="0.582018"/>
<path d="M54.0212 25.6333C53.4704 25.2703 52.7059 25.4586 52.3136 26.0539L45.0083 37.1383C44.4256 38.0225 43.0607 37.7324 42.8879 36.6876L40.8196 24.1781C40.7075 23.5004 40.0762 23.0843 39.4092 23.2486C38.7424 23.4128 38.2926 24.0953 38.4046 24.7729L40.5234 37.5874C40.689 38.5891 39.5822 39.3079 38.7343 38.7492L28.4065 31.9425C27.8557 31.5795 27.0912 31.7678 26.6988 32.3631C26.3065 32.9584 26.4349 33.7352 26.9857 34.0982L37.3139 40.9051C38.1617 41.4639 37.9377 42.7645 36.9517 43.0073L24.34 46.1137C23.6731 46.278 23.2233 46.9604 23.3354 47.6381C23.4474 48.3157 24.0788 48.7318 24.7457 48.5675L37.0569 45.5352C38.0851 45.2819 38.8899 46.4218 38.3072 47.306L31.0021 58.39C30.6098 58.9853 30.7382 59.7622 31.289 60.1252C31.8398 60.4882 32.6043 60.2999 32.9967 59.7046L40.3017 48.6205C40.8845 47.7363 42.2493 48.0264 42.4221 49.0712L44.4904 61.5805C44.6025 62.2582 45.2338 62.6743 45.9008 62.5101C46.5676 62.3458 47.0174 61.6633 46.9054 60.9857L44.7866 48.1709C44.6209 47.1691 45.7278 46.4504 46.5756 47.0091L56.9037 53.816C57.4545 54.179 58.2191 53.9907 58.6114 53.3954C59.0037 52.8001 58.8753 52.0233 58.3245 51.6603L47.9967 44.8536C47.1488 44.2948 47.3729 42.9942 48.3588 42.7514L60.9703 39.645C61.6373 39.4808 62.0871 38.7983 61.975 38.1207C61.863 37.4431 61.2315 37.0269 60.5647 37.1912L48.2532 40.2237C47.2249 40.4769 46.4201 39.337 47.0028 38.4528L54.3081 27.3685C54.7004 26.7732 54.572 25.9963 54.0212 25.6333Z" fill="black"/>
</svg>
