<svg width="141" height="141" viewBox="0 0 141 141" fill="none" xmlns="http://www.w3.org/2000/svg">
<g id="Group 14570">
<g id="cup">
<path id="Vector" d="M83.0074 76.2995L72.0372 87.5216L55.7115 104.223L55.694 104.248L55.1327 104.817L39.9902 120.313C36.7957 124.256 27.3916 121.932 19.0008 115.127C10.6101 108.322 6.38831 99.605 9.58283 95.6625L21.5492 77.7569L22.1082 76.9177L34.9915 57.6496L43.7787 44.4881C44.9393 50.5629 50.6172 58.6894 59.157 65.6158C67.6968 72.5422 76.8207 76.4283 83.0072 76.3079L83.0074 76.2995Z" fill="#FFCA10" stroke="black" stroke-width="0.477046" stroke-linejoin="round"/>
<g id="Vector_2">
<path d="M82.9997 76.3073L83.0081 76.2988L83.0079 76.3072C83.0051 76.3072 83.0024 76.3073 82.9997 76.3073L72.0379 87.5208L55.7121 104.222L55.6947 104.247L55.1333 104.816L42.5716 117.671L54.7385 61.684C56.1074 63.0215 57.5839 64.3387 59.1576 65.615C67.6937 72.5384 76.8132 76.4241 82.9997 76.3073Z" fill="#F4B000"/>
<path d="M83.0081 76.2988L72.0379 87.5208L55.7121 104.222L55.6947 104.247L55.1333 104.816L42.5716 117.671L54.7385 61.684C56.1074 63.0215 57.5839 64.3387 59.1576 65.615C67.6975 72.5415 76.8213 76.4275 83.0079 76.3072L83.0081 76.2988Z" stroke="black" stroke-width="0.477046" stroke-linejoin="round"/>
</g>
<path id="Vector_3" d="M72.0369 87.5302L55.7027 104.231L55.6853 104.256L55.1239 104.825C51.1382 108.319 41.3115 105.657 32.4818 98.4965C23.652 91.3357 19.0805 82.4163 21.5492 77.7487L22.1081 76.9179L34.9913 57.6497C32.6398 61.991 38.2364 71.4569 47.9938 79.3727C57.7512 87.2886 68.3501 90.8625 72.0285 87.53L72.0369 87.5302Z" fill="#500FA2" stroke="black" stroke-width="0.238523" stroke-linejoin="round"/>
<path id="Vector_4" d="M55.7025 104.23L72.0366 87.5295L72.0282 87.5293C70.0392 89.3312 66.0268 89.1139 61.218 87.2826C57.8848 86.0133 54.169 83.9685 50.4792 81.2833L45.2071 105.538C49.4435 106.792 53.0637 106.63 55.1237 104.825L55.685 104.255L55.7025 104.23Z" fill="#2F0B41"/>
<path id="Vector_5" d="M56.7638 52.425L38.922 134.414" stroke="#2F0B41" stroke-width="0.238523" stroke-linejoin="round"/>
<path id="Vector_6" d="M91.8562 70.4362C91.3961 71.0077 90.8286 71.4756 90.1709 71.8318C90.4799 70.8603 90.5727 69.7489 90.4655 68.5318C89.8894 62.3522 84.0236 53.5888 74.9124 46.1938C65.8011 38.7988 56.02 34.8809 49.8539 35.5838C48.6358 35.7247 47.5655 36.0461 46.6766 36.5488C46.8871 35.8282 47.2308 35.1865 47.691 34.6149C52.0226 29.2728 65.4197 32.9612 77.6122 42.8559C89.8048 52.7506 96.1876 65.1025 91.8562 70.4362Z" fill="#2F0B41" stroke="black" stroke-width="0.477046" stroke-linejoin="round"/>
<g id="Group">
<path id="Vector_7" d="M89.9045 72.4462C89.9045 72.4462 89.8793 72.4714 89.8626 72.4795C89.0033 72.9705 87.9892 73.2837 86.845 73.4199C87.1236 73.0226 87.3284 72.5798 87.4756 72.1005C87.5793 71.784 87.6584 71.4495 87.6882 71.0874C88.3591 65.6121 82.5452 56.1779 73.1029 48.1573C63.6607 40.1366 53.642 36.1251 48.6755 37.9452C48.3429 38.0555 48.0512 38.2017 47.7757 38.3744C47.3502 38.62 46.9817 38.928 46.6705 39.2897C46.5627 38.0935 46.6358 36.9896 46.9142 36.0046C46.9142 36.0046 46.9148 35.9614 46.9316 35.9446C47.7994 35.4366 48.8467 35.1158 50.0405 34.9812C56.084 34.3019 65.7124 38.4046 74.7127 46.0568C83.713 53.7089 89.5408 62.7373 90.1576 69.075C90.2729 70.3233 90.1994 71.4618 89.8961 72.4546L89.9045 72.4462Z" fill="#2F0B41" stroke="black" stroke-width="0.477046" stroke-linejoin="round"/>
<path id="Vector_8" d="M91.5132 70.9941L88.8262 74.4671C88.8262 74.4671 88.7591 74.5341 88.7338 74.5678C88.7002 74.6099 88.0709 75.2463 87.6782 75.5274C86.4414 76.4208 84.8214 76.8958 82.8765 76.9285C76.8106 77.0018 67.8225 72.9472 59.3981 65.7835C50.9738 58.6198 45.3294 50.2581 44.1406 44.0174C43.7161 41.7837 43.8754 39.8192 44.6742 38.2812C44.7505 38.1454 44.8186 38.0094 44.9032 37.8738C44.9034 37.8566 44.9203 37.8312 44.9287 37.8228C44.971 37.7551 45.0132 37.696 45.0555 37.6282C45.0808 37.5945 45.106 37.5607 45.1314 37.5183C45.1737 37.4506 45.2243 37.3831 45.2665 37.324L47.8945 33.9268C47.448 34.5086 47.1164 35.1631 46.916 35.8996C46.9075 35.9166 46.899 35.9336 46.8987 35.9509C46.6205 36.9354 46.5392 38.0386 46.6551 39.2431C46.6687 39.4595 46.6988 39.6764 46.7371 39.9023C46.7369 39.9195 46.7366 39.9368 46.7366 39.9368C46.7665 40.171 46.8047 40.4055 46.8594 40.6405C46.8973 40.8922 46.96 41.1447 47.0228 41.3973C47.0855 41.6498 47.1565 41.9026 47.2273 42.1727C47.2981 42.4427 47.3856 42.6961 47.473 42.958C47.847 44.0498 48.3197 45.1794 48.9079 46.3385C49.0206 46.5668 49.1417 46.7866 49.2627 47.0151C49.2786 47.0588 49.311 47.1117 49.3271 47.1467C49.464 47.4189 49.6175 47.6916 49.7712 47.9471C49.7791 47.9733 49.7953 47.9997 49.8115 48.0261C49.9569 48.2813 50.0941 48.5362 50.2562 48.7833C50.2805 48.8186 50.3049 48.854 50.3291 48.8979C50.442 49.1089 50.5798 49.3206 50.7177 49.5237C50.7661 49.6117 50.8148 49.6824 50.8717 49.7533C50.8962 49.78 50.9121 49.8237 50.9366 49.8504C51.0015 49.9475 51.0581 50.0443 51.1229 50.1414C51.2527 50.3357 51.3741 50.5296 51.512 50.7327C51.5365 50.7594 51.5526 50.7858 51.5688 50.8123C51.723 51.0332 51.869 51.2452 52.0233 51.4575C52.0558 51.5017 52.0883 51.5459 52.1126 51.5899C52.1448 51.6514 52.1936 51.7135 52.2424 51.7755L52.2589 51.776C52.3237 51.8818 52.3888 51.9616 52.4536 52.0587L52.9085 52.678C53.0631 52.873 53.2255 53.0942 53.3964 53.307C53.4777 53.4132 53.5507 53.5192 53.6402 53.6258C53.7541 53.7676 53.868 53.9095 53.9819 54.0514C54.0469 54.1399 54.112 54.2197 54.1854 54.2998C54.1853 54.3084 54.1851 54.3171 54.2098 54.3265C54.4295 54.6013 54.6656 54.8767 54.9018 55.1521C54.9183 55.1612 54.9262 55.1874 54.9507 55.2055C54.9505 55.2227 54.9751 55.2408 54.9997 55.2589C55.0974 55.3743 55.1868 55.4895 55.2846 55.5963C55.3009 55.6141 55.3172 55.6319 55.3418 55.6499C55.4804 55.8012 55.6107 55.9523 55.7493 56.1036C55.8959 56.2724 56.0507 56.4501 56.2139 56.6195C56.2383 56.6462 56.2711 56.6732 56.2871 56.7082C56.499 56.9483 56.7275 57.1802 56.9477 57.4119C57.0863 57.5632 57.2249 57.7145 57.38 57.8663C57.4779 57.9731 57.5757 58.0799 57.6819 58.1783L57.6984 58.1789C57.8941 58.3925 58.0983 58.5891 58.294 58.794C58.3186 58.8121 58.3512 58.8477 58.3757 58.8744C58.5879 59.0885 58.8003 59.2854 59.0126 59.4909C59.4044 59.8835 59.8211 60.2684 60.2381 60.6359C60.5077 60.8864 60.7693 61.1194 61.0472 61.3702L61.1208 61.433C61.4478 61.72 61.7747 62.0155 62.1102 62.2941C62.4456 62.5726 62.7892 62.8601 63.1247 63.13L63.1983 63.1928C63.4847 63.4266 63.7548 63.6426 64.0496 63.868C64.4833 64.2188 64.9254 64.5613 65.3761 64.8867C65.6135 65.0671 65.8429 65.2386 66.0887 65.4106C66.1133 65.4286 66.1543 65.4559 66.1789 65.4739C66.4083 65.6368 66.6378 65.7996 66.8673 65.9539L66.8839 65.9544C66.9984 66.0531 67.1214 66.1348 67.2362 66.2076C67.4082 66.334 67.5805 66.4432 67.7528 66.5524C68.0233 66.7338 68.2856 66.915 68.548 67.0876C68.5809 67.1059 68.6136 67.1329 68.6383 67.1423C68.8269 67.2693 69.0237 67.3965 69.2125 67.5063C69.3848 67.6154 69.5489 67.7157 69.721 67.8335C69.7373 67.8513 69.762 67.8608 69.7866 67.8788C69.9097 67.9519 70.0411 68.0252 70.1642 68.0983C70.1805 68.1161 70.2051 68.1341 70.2216 68.1347C70.2379 68.1525 70.2626 68.1619 70.279 68.1711C70.5827 68.3536 70.8946 68.5363 71.1985 68.7016C71.2149 68.7107 71.2148 68.7194 71.2313 68.7199C71.3299 68.7749 71.4284 68.8299 71.5104 68.8843C71.6664 68.9757 71.8224 69.0585 71.9702 69.141C72.0852 69.2051 72.2085 69.2609 72.3152 69.3248C72.5452 69.4531 72.7833 69.5817 73.0051 69.7011L73.6789 70.0423C73.7858 70.0889 73.8762 70.135 73.9749 70.1814L73.9914 70.1819C74.057 70.2272 74.1311 70.2555 74.1968 70.2922C74.2462 70.311 74.2872 70.3383 74.3365 70.3571C74.575 70.4684 74.797 70.5706 75.0354 70.6819C75.0601 70.6913 75.0929 70.7096 75.1259 70.7193C75.3396 70.8212 75.5452 70.9142 75.7592 70.9988C75.8661 71.0454 75.9649 71.0831 76.0635 71.1295C76.0964 71.1478 76.1376 71.1578 76.1705 71.1761C76.2443 71.2217 76.3267 71.2502 76.4172 71.2877C76.631 71.3809 76.8531 71.4744 77.0838 71.5509C77.125 71.5609 77.1661 71.5795 77.2072 71.5981C77.4705 71.7102 77.7422 71.8053 78.0057 71.9001C78.0304 71.9095 78.0551 71.919 78.0882 71.92C78.3679 72.0327 78.648 72.128 78.9281 72.2148C78.9693 72.2247 79.0186 72.2522 79.0682 72.2538C79.3152 72.3481 79.5706 72.4254 79.8179 72.4938L79.8344 72.4943C80.1311 72.5816 80.4196 72.66 80.7081 72.7383C80.9884 72.8164 81.2853 72.8864 81.5658 72.9472C81.8463 73.008 82.1268 73.0689 82.4075 73.1124C82.4075 73.1124 82.4239 73.1216 82.4322 73.1218C82.6964 73.1649 82.9606 73.2079 83.2247 73.2509C83.4973 73.2856 83.7616 73.32 84.026 73.3457C84.2905 73.3715 84.5384 73.388 84.7947 73.4049C85.0428 73.4129 85.2909 73.4208 85.5392 73.4201C85.7707 73.4275 85.9943 73.4174 86.218 73.3987C86.218 73.3987 86.2345 73.3992 86.251 73.3997C86.458 73.3891 86.6734 73.3701 86.8805 73.3508C88.0242 73.2147 89.0378 72.9103 89.8968 72.4195C89.8968 72.4195 89.9302 72.3947 89.9386 72.3863C90.5806 72.0268 91.1332 71.5521 91.5797 70.9703L91.5132 70.9941Z" fill="#500FA2" stroke="black" stroke-width="0.477046" stroke-linejoin="round"/>
</g>
</g>
<g id="coffee">
<g id="coffee_2">
<path id="Vector_9" d="M87.0436 72.7998C86.8322 72.8203 86.6209 72.8408 86.4012 72.8527C86.3928 72.8525 86.3759 72.8521 86.3675 72.8519C86.1393 72.872 85.9112 72.8837 85.6749 72.8867C85.422 72.8809 85.1686 72.892 84.9159 72.8778C84.6547 72.8634 84.3935 72.849 84.1325 72.8262C83.8715 72.8034 83.6022 72.7719 83.3161 72.7401C83.0555 72.7004 82.778 72.6603 82.5089 72.6204C82.5005 72.6203 82.4921 72.6201 82.4838 72.6114C82.2064 72.5714 81.9206 72.5227 81.6269 72.4569C81.3413 72.3998 81.0476 72.334 80.754 72.2598C80.4688 72.1859 80.1668 72.1115 79.865 72.0287C79.865 72.0287 79.8566 72.0285 79.8481 72.0283C79.5965 71.9635 79.3451 71.8903 79.0856 71.8C65.8334 67.1892 55.3077 57.9171 48.9768 47.3754C48.8553 47.1533 48.7337 46.9396 48.6206 46.7177C48.0307 45.5823 47.558 44.4833 47.1855 43.4288C47.0986 43.1738 47.0116 42.9187 46.9415 42.664C46.8714 42.4094 46.8012 42.1547 46.7394 41.9087C46.6775 41.6626 46.6242 41.4083 46.579 41.1711C46.5338 40.9339 46.488 40.722 46.4597 40.4851C46.4597 40.4851 46.4603 40.4598 46.452 40.4512C46.4147 40.2395 46.386 40.0195 46.3739 39.8083C46.6942 39.4529 47.0723 39.1494 47.5081 38.9063C47.7904 38.7356 48.089 38.5905 48.4289 38.4802C53.5069 36.6643 63.6864 40.4986 73.2451 48.2496C82.8038 56.0007 88.6521 65.1602 87.9226 70.5085C87.8893 70.8621 87.8059 71.1892 87.6976 71.4988C87.5517 71.9763 87.3309 72.4099 87.0438 72.7914L87.0436 72.7998Z" fill="#F4B000" stroke="black" stroke-width="0.477046" stroke-linejoin="round"/>
<circle id="Ellipse 1305" cx="85.8198" cy="63.7578" r="2.44508" transform="rotate(1.30705 85.8198 63.7578)" fill="#2E0068" stroke="black" stroke-width="0.477046"/>
<g id="Union">
<path d="M90.3277 62.2966C75.0073 67.092 60.0235 57.1313 51.8685 51.8003C58.3973 59.7785 69.9917 71.2277 85.6114 72.9262C105.403 75.0785 109.722 56.2261 90.3277 62.2966Z" fill="#2E0068"/>
<path d="M51.8685 51.8003L51.999 51.6006L51.6839 51.9514L51.8685 51.8003ZM90.3277 62.2966L90.2565 62.069L90.3277 62.2966ZM85.6114 72.9262L85.6372 72.6891L85.6114 72.9262ZM51.738 51.9999C55.813 54.6638 61.618 58.501 68.3258 61.0686C75.0353 63.6369 82.6695 64.9436 90.399 62.5243L90.2565 62.069C82.6655 64.445 75.1477 63.1691 68.4963 60.6231C61.8434 58.0764 56.079 54.2678 51.999 51.6006L51.738 51.9999ZM90.399 62.5243C95.2275 61.0129 98.5259 61.0719 100.461 61.9177C101.422 62.3382 102.042 62.9498 102.359 63.6574C102.678 64.366 102.705 65.1959 102.436 66.0722C101.897 67.8308 100.169 69.7526 97.323 71.1042C94.4829 72.4527 90.5473 73.223 85.6372 72.6891L85.5856 73.1634C90.5714 73.7055 94.5975 72.9264 97.5276 71.5351C100.451 70.1469 102.302 68.1386 102.892 66.2119C103.189 65.2456 103.168 64.2941 102.795 63.4619C102.42 62.6287 101.703 61.9402 100.652 61.4806C98.5599 60.5662 95.1252 60.5451 90.2565 62.069L90.399 62.5243ZM85.6372 72.6891C70.1161 71.0013 58.5739 59.6177 52.0531 51.6492L51.6839 51.9514C58.2206 59.9392 69.8673 71.4541 85.5856 73.1634L85.6372 72.6891Z" fill="black"/>
</g>
</g>
<circle id="Ellipse 1298" cx="78.1644" cy="56.2019" r="4.01052" transform="rotate(1.30705 78.1644 56.2019)" fill="#2E0068" stroke="black" stroke-width="0.477046"/>
<path id="Ellipse 1301" d="M87.4018 57.233C87.5987 57.1354 87.8081 57.0084 88.0258 56.8441C89.1693 55.9805 90.5178 54.1021 91.5106 50.0714C92.487 46.1071 94.2798 44.3956 95.9191 44.0252C97.5578 43.6548 99.1528 44.5967 99.8319 46.18C100.516 47.7756 100.37 49.8608 99.4792 51.7729C98.5898 53.6807 96.9697 55.3892 94.7469 56.2354C92.4946 57.093 90.3089 57.2979 88.6839 57.2875C88.2023 57.2844 87.7706 57.2624 87.4018 57.233Z" fill="#2E0068" stroke="black" stroke-width="0.477046"/>
<circle id="Ellipse 1299" cx="77.3019" cy="35.1553" r="4.01052" transform="rotate(1.30705 77.3019 35.1553)" fill="#2E0068" stroke="black" stroke-width="0.477046"/>
<circle id="Ellipse 1305_2" cx="64.354" cy="53.6503" r="2.22145" transform="rotate(1.30705 64.354 53.6503)" fill="#2E0068" stroke="black" stroke-width="0.477046"/>
<circle id="Ellipse 1300" cx="57.6313" cy="44.3252" r="2.44508" transform="rotate(1.30705 57.6313 44.3252)" fill="#2E0068" stroke="black" stroke-width="0.477046"/>
<circle id="Ellipse 1304" cx="106.908" cy="61.1091" r="2.44508" transform="rotate(1.30705 106.908 61.1091)" fill="#2E0068" stroke="black" stroke-width="0.477046"/>
<circle id="Ellipse 1302" cx="97.2503" cy="43.2163" r="1.32691" transform="rotate(1.30705 97.2503 43.2163)" fill="#2E0068" stroke="black" stroke-width="0.477046"/>
<circle id="Ellipse 1303" cx="101.588" cy="68.8163" r="1.32691" transform="rotate(1.30705 101.588 68.8163)" fill="#2E0068" stroke="black" stroke-width="0.477046"/>
</g>
<g id="cover">
<g id="Group_2">
<path id="Vector_10" d="M124.936 58.4086C124.275 58.6604 123.575 58.7642 122.853 58.712C116.926 58.3838 109.196 48.6353 104.584 35.1381C99.9723 21.6322 100.036 8.91759 104.397 4.67095C104.927 4.14709 105.518 3.75481 106.18 3.49442C112.236 1.1805 121.349 11.5915 126.524 26.756C131.699 41.9205 130.985 56.0944 124.928 58.3997L124.936 58.4086Z" fill="#FFCA10" stroke="black" stroke-width="0.477046" stroke-linejoin="round"/>
<path id="Vector_11" d="M125.337 49.5408C125.021 49.667 124.69 49.7067 124.343 49.6856C120.785 47.2359 116.587 40.4208 113.653 31.7679C110.72 23.1236 109.86 15.0268 111.127 10.7212C111.381 10.4638 111.659 10.2761 111.976 10.1584C115.519 8.79826 121.377 16.5159 125.067 27.3887C128.757 38.2615 128.881 48.1892 125.337 49.5494L125.337 49.5408Z" fill="#500FA2" stroke="black" stroke-width="0.477046" stroke-linejoin="round"/>
<path id="Vector_12" d="M123.138 48.8185C122.821 48.9447 122.497 48.9846 122.15 48.9721C118.663 46.7559 114.642 40.4513 111.903 32.3864C109.163 24.3214 108.477 16.752 109.829 12.6714C110.092 12.4228 110.37 12.2436 110.687 12.1173C114.235 10.757 119.896 17.8692 123.332 27.9981C126.776 38.136 126.687 47.4496 123.146 48.8102L123.138 48.8185Z" fill="#2F0B41" stroke="black" stroke-width="0.477046" stroke-linejoin="round"/>
<path id="Vector_13" d="M128.03 50.5123C126.992 50.905 125.78 50.5946 124.48 49.6873C124.827 49.7084 125.159 49.6687 125.476 49.5425C129.025 48.1821 128.9 38.2573 125.202 27.3689C121.504 16.4806 115.633 8.76611 112.083 10.1265C111.766 10.2527 111.488 10.4406 111.233 10.6895C111.692 9.10569 112.437 8.03988 113.475 7.64714C117.334 6.16886 123.726 14.5646 127.746 26.3938C131.765 38.2316 131.889 49.0254 128.038 50.5126L128.03 50.5123Z" fill="#500FA2" stroke="black" stroke-width="0.477046" stroke-linejoin="round"/>
<path id="Vector_14" d="M128.057 50.5475C127.015 50.9404 125.798 50.6291 124.492 49.7201C120.911 47.2638 116.686 40.4332 113.732 31.762C110.777 23.0909 109.908 14.9866 111.18 10.6733C111.64 9.08757 112.388 8.02058 113.43 7.62767C113.462 7.62021 113.486 7.60385 113.517 7.605C117.397 6.27278 123.754 14.6368 127.763 26.4048C131.779 38.1817 131.932 48.9136 128.136 50.516C128.112 50.5323 128.088 50.5401 128.057 50.5561L128.057 50.5475ZM129.648 52.2595L130.039 51.9464C133.623 48.6132 133.481 37.5974 129.449 25.7597C125.418 13.9305 118.881 5.35313 114.112 5.21428L113.621 5.23088C113.303 5.26243 112.994 5.32871 112.691 5.44696C112.254 5.61198 111.855 5.86457 111.487 6.20444C107.872 9.49341 107.998 20.543 112.037 32.4069C116.085 44.2711 122.637 52.8577 127.414 52.9538C127.897 52.9713 128.366 52.885 128.803 52.7199C129.105 52.6017 129.392 52.4484 129.656 52.2598L129.648 52.2595Z" fill="#FFCA10" stroke="black" stroke-width="0.477046" stroke-linejoin="round"/>
<path id="Vector_15" d="M124.232 56.229C119.093 58.1883 111.048 48.4638 106.283 34.5053C101.518 20.5469 101.83 7.62696 106.969 5.66768C107.248 5.55715 107.55 5.48196 107.852 5.44986L108.488 5.42129L108.559 5.42389L113.307 5.23488C112.989 5.26641 112.679 5.33269 112.376 5.45096C111.938 5.61603 111.539 5.86872 111.17 6.20874C107.55 9.49926 107.677 20.5559 111.725 32.4278C115.78 44.3 122.345 52.8929 127.13 52.9897C127.614 53.0073 128.083 52.921 128.521 52.7559C128.824 52.6377 129.111 52.4843 129.375 52.2957L125.558 55.398L125.542 55.4146L125.142 55.7449L125.102 55.7693C124.83 55.9663 124.543 56.1196 124.24 56.2379L124.232 56.229Z" fill="#FFCA10" stroke="black" stroke-width="0.477046" stroke-linejoin="round"/>
<path id="Vector_16" d="M124.607 58.4099L120.744 59.889C114.696 62.2017 105.611 51.7947 100.453 36.6468C95.2952 21.4988 96.0097 7.34777 102.066 5.03535L105.929 3.55629C105.269 3.80797 104.671 4.1997 104.151 4.72345C99.8012 8.97542 99.7348 21.6772 104.331 35.1683C108.928 48.6594 116.635 58.3876 122.545 58.7227C123.266 58.766 123.963 58.6622 124.623 58.4105L124.607 58.4099Z" fill="#500FA2" stroke="black" stroke-width="0.477046" stroke-linejoin="round"/>
</g>
<path id="Vector_17" d="M122.906 35.8357C122.097 36.0409 121.273 35.5536 120.983 34.7414C120.96 34.6808 120.952 34.6293 120.937 34.5605C120.13 31.1775 118.98 27.8863 117.503 24.747C117.059 23.8445 117.499 22.7306 118.391 22.3999C119.193 22.1005 120.075 22.5042 120.438 23.3102C122.027 26.658 123.247 30.1821 124.099 33.7972C124.314 34.7181 123.788 35.6328 122.914 35.853L122.906 35.8357Z" fill="black" stroke="black" stroke-width="0.477046" stroke-linejoin="round"/>
</g>
</g>
</svg>
