<svg width="66" height="62" viewBox="0 0 66 62" fill="none" xmlns="http://www.w3.org/2000/svg">
<g id="Group 327">
<path id="Vector" d="M58.8691 49.412C58.298 50.0866 57.5076 50.5519 56.5408 50.8126C50.8591 52.3599 38.9515 46.9968 27.5313 37.327C16.1112 27.6571 8.86518 16.8024 9.45466 10.9433C9.55244 9.94671 9.8811 9.09045 10.4523 8.41589L7.12629 12.3439C3.19028 16.9924 10.8365 29.9352 24.2053 41.255C37.5741 52.5748 51.6071 57.9885 55.5431 53.34L58.8691 49.412Z" fill="#FFCE22" stroke="black" stroke-width="0.535303"/>
<path id="Vector_2" d="M22.9964 33.2188C14.2383 24.7197 8.94759 15.9832 9.45466 10.9433C9.55244 9.94671 9.8811 9.09045 10.4523 8.41589L7.12629 12.3439C3.66034 16.4372 9.1754 26.9621 19.6704 37.1468L22.9964 33.2188Z" fill="#500FA3"/>
<path id="Vector_3" d="M58.8691 49.412C58.298 50.0866 57.5076 50.5519 56.5408 50.8126C50.8591 52.3599 38.9515 46.9968 27.5313 37.327C16.1112 27.6571 8.86518 16.8024 9.45466 10.9433C9.55244 9.94671 9.8811 9.09045 10.4523 8.41589L7.12629 12.3439C3.19028 16.9924 10.8365 29.9352 24.2053 41.255C37.5741 52.5748 51.6071 57.9885 55.5432 53.34L58.8691 49.412Z" stroke="black" stroke-width="0.535303"/>
<path id="Vector_4" d="M41.7829 20.4952C28.4141 9.1754 14.384 3.772 10.4519 8.41588C9.88071 9.09044 9.55205 9.94669 9.45427 10.9433C8.86479 16.8023 16.1108 27.6571 27.5309 37.327C38.9511 46.9968 50.8587 52.3599 56.5404 50.8126C57.5072 50.5519 58.2976 50.0866 58.8687 49.412C62.8009 44.7681 55.1517 31.815 41.7829 20.4952Z" fill="#131313" stroke="black" stroke-width="0.535303"/>
<path id="Vector_5" d="M41.7827 20.4955L10.0152 15.0213C11.9386 21.1085 18.4007 29.5966 27.5307 37.3272C38.9509 46.997 50.8584 52.3602 56.5401 50.8129C57.507 50.5522 58.2973 50.0868 58.8685 49.4123C62.8006 44.7684 55.1515 31.8152 41.7827 20.4955Z" fill="#FFCA10"/>
<path id="Vector_6" d="M41.7829 20.4952C28.4141 9.1754 14.384 3.772 10.4519 8.41588C9.88071 9.09044 9.55205 9.94669 9.45427 10.9433C8.86479 16.8023 16.1108 27.6571 27.5309 37.3269C38.9511 46.9968 50.8587 52.3599 56.5404 50.8126C57.5072 50.5519 58.2976 50.0866 58.8687 49.412C62.8009 44.7681 55.1517 31.815 41.7829 20.4952Z" stroke="black" stroke-width="0.535303"/>
</g>
</svg>
