<svg width="56" height="77" viewBox="0 0 56 77" fill="none" xmlns="http://www.w3.org/2000/svg">
<path d="M19.9805 5.15964C18.9374 5.53178 18.0252 6.20377 17.2595 7.12933C12.7427 12.5633 13.0441 26.8389 18.4702 42.0485C23.8964 57.2582 32.6957 68.4919 39.632 69.8399C40.8106 70.0718 41.9421 70.0147 42.9852 69.6426L36.911 71.8096C29.7226 74.3741 18.748 62.0205 12.396 44.2156C6.04397 26.4106 6.7179 9.89116 13.9062 7.32667L19.9805 5.15964Z" fill="#FFCE22" stroke="black" stroke-width="0.552334"/>
<path d="M20.9295 48.1783C26.3203 60.206 33.6654 68.6804 39.632 69.8399C40.8106 70.0718 41.9421 70.0147 42.9852 69.6426L36.911 71.8096C30.5811 74.0678 21.3153 64.7584 14.8553 50.3453L20.9295 48.1783Z" fill="#500FA3"/>
<path d="M19.9805 5.15964C18.9374 5.53178 18.0252 6.20377 17.2595 7.12933C12.7427 12.5633 13.0441 26.8389 18.4702 42.0485C23.8964 57.2582 32.6957 68.4919 39.632 69.8399C40.8106 70.0718 41.9421 70.0147 42.9852 69.6426L36.911 71.8096C29.7226 74.3741 18.748 62.0205 12.396 44.2156C6.04397 26.4107 6.7179 9.89116 13.9062 7.32667L19.9805 5.15964Z" stroke="black" stroke-width="0.552334"/>
<path d="M44.4991 32.7631C50.8512 50.568 50.1669 67.081 42.9857 69.6429C41.9425 70.0151 40.811 70.0722 39.6324 69.8403C32.6961 68.4923 23.8968 57.2586 18.4707 42.0489C13.0445 26.8392 12.7432 12.5636 17.2599 7.12967C18.0256 6.20411 18.9378 5.53212 19.9809 5.15998C27.1622 2.59802 38.1471 14.9581 44.4991 32.7631Z" fill="#131313" stroke="black" stroke-width="0.552334"/>
<path d="M44.4992 32.7627L35.277 67.884C29.3026 63.8265 22.8087 54.2082 18.4707 42.0486C13.0446 26.8389 12.7432 12.5633 17.26 7.12936C18.0257 6.20381 18.9378 5.53181 19.981 5.15967C27.1622 2.59771 38.1471 14.9578 44.4992 32.7627Z" fill="#FFCA10"/>
<path d="M44.4991 32.763C50.8512 50.568 50.1669 67.081 42.9857 69.6429C41.9425 70.0151 40.811 70.0722 39.6324 69.8403C32.6961 68.4923 23.8968 57.2586 18.4707 42.0489C13.0445 26.8392 12.7432 12.5636 17.2599 7.12967C18.0256 6.20411 18.9378 5.53212 19.9809 5.15998C27.1622 2.59802 38.1471 14.9581 44.4991 32.763Z" stroke="black" stroke-width="0.552334"/>
</svg>
