<svg width="200" height="181" viewBox="0 0 200 181" fill="none" xmlns="http://www.w3.org/2000/svg">
<g id="Group 14568">
<path id="Vector" d="M179.388 54.851L190.206 72.1908C190.896 73.3006 190.353 74.7723 189.109 75.1481L176.491 78.9878C174.598 79.567 172.549 79.2874 170.878 78.2201L148.351 63.9072L179.388 54.8447L179.388 54.851Z" fill="#2F0B41" stroke="black" stroke-width="0.487355" stroke-miterlimit="10"/>
<path id="Vector_2" d="M131.061 93.7242L50.9374 158.139L11.326 79.3016C8.47194 73.6254 9.97368 66.7042 14.9097 62.757L78.1384 12.1495C79.7599 10.851 81.6764 10.2567 83.5556 10.2827C83.5682 10.2815 83.5745 10.2809 83.5871 10.2797C86.6013 10.3322 89.525 11.9994 91.037 14.9642L131.054 93.7121L131.061 93.7242Z" fill="#2F0B41" stroke="black" stroke-width="0.487355" stroke-miterlimit="10"/>
<path id="Vector_3" d="M133.309 122.804L70.8061 173.149C69.7352 174.01 68.5486 174.586 67.3237 174.889L67.2429 174.909C63.2863 175.866 58.9503 174.064 56.957 170.104L50.9427 158.132L131.066 93.7168L137.01 105.413C140.03 111.362 138.484 118.628 133.314 122.797L133.309 122.804Z" fill="#2F0B41" stroke="black" stroke-width="0.487355" stroke-miterlimit="10"/>
<path id="Vector_4" d="M83.5686 10.2875C81.6888 10.2551 79.7665 10.8564 78.1514 12.1542L14.9226 62.7617C9.98726 66.7153 8.48491 73.6301 11.339 79.3063L50.9504 158.144L46.5429 158.565L7.1837 81.6049C3.90554 75.2048 5.5925 67.3408 11.1929 62.8804L73.5122 13.2271C76.3596 10.9571 79.9701 9.90538 83.5755 10.2932L83.5686 10.2875Z" fill="#500FA2" stroke="black" stroke-width="0.487355" stroke-miterlimit="10"/>
<path id="Vector_5" d="M67.2437 174.916L65.5665 175.417C60.3311 176.984 54.7354 174.569 52.2283 169.676L46.5422 158.559L50.9435 158.139L56.9578 170.111C58.9511 174.07 63.2865 175.866 67.2437 174.916Z" fill="#500FA2" stroke="black" stroke-width="0.487355" stroke-miterlimit="10"/>
<g id="Group">
<path id="Vector_6" d="M56.9711 144.111C55.8874 144.195 54.8466 143.584 54.3201 142.56L19.8095 75.5709C18.7884 73.5861 19.2122 71.1689 20.8157 69.8161L80.359 19.8697C80.6181 19.6536 80.9244 19.5252 81.255 19.4995C81.953 19.4452 82.6224 19.8374 82.9653 20.5031L118.982 90.406C119.452 91.323 119.26 92.4354 118.518 93.0615L58.3565 143.539C57.9563 143.871 57.4792 144.071 56.965 144.111L56.9711 144.111Z" fill="#FFCA10"/>
<path id="Vector_7" d="M81.2941 19.8354C81.839 19.793 82.4046 20.0887 82.6995 20.6602L118.717 90.5642C119.116 91.3432 118.954 92.2899 118.323 92.8159L58.1605 143.294C57.7948 143.604 57.369 143.768 56.9343 143.801C56.0221 143.872 55.0751 143.378 54.5882 142.429L20.0767 75.4391C19.1203 73.5864 19.5154 71.3478 21.0124 70.0881L80.5573 20.141C80.7766 19.9541 81.0316 19.8624 81.2948 19.8419M81.2197 19.1945C80.8279 19.225 80.4626 19.3775 80.1582 19.6298L20.6134 69.577C18.8963 71.017 18.4431 73.6064 19.5358 75.7294L54.0473 142.719C54.6371 143.863 55.7972 144.543 57.0033 144.449C57.5727 144.405 58.1096 144.187 58.5542 143.813L118.717 93.3339C119.567 92.6211 119.795 91.3361 119.252 90.2809L83.2349 20.3769C82.8288 19.5919 82.0401 19.1307 81.2136 19.195L81.2197 19.1945Z" fill="black"/>
</g>
<path id="Vector_8" d="M115.133 88.4284L115.133 88.4283L118.065 86.0253L119.802 89.3867C119.802 89.3867 119.802 89.3867 119.802 89.3868C120.178 90.1209 119.992 91.0199 119.352 91.5337L119.326 91.5543L119.327 91.5608L117.012 93.4338L114.883 89.8783C114.883 89.8783 114.883 89.8783 114.883 89.8783C114.597 89.3995 114.702 88.78 115.133 88.4284Z" fill="white" stroke="black" stroke-width="0.121839"/>
<path id="Vector_9" d="M63.9562 154.549L88.4096 134.046C90.957 131.901 94.7973 132.556 96.504 135.425C98.5799 138.908 97.805 143.402 94.6932 145.973L70.1823 166.405C67.6959 168.454 63.9864 167.838 62.2842 165.084C60.1551 161.645 60.8721 157.144 63.9562 154.549Z" fill="#2F0B41" stroke="black" stroke-width="0.487355" stroke-miterlimit="10"/>
<path id="Vector_10" d="M36.8984 91.8416C36.7962 91.6431 36.8435 91.3963 37.0108 91.2476L37.0118 91.2486L39.5054 89.1408L39.5055 89.1408C39.74 88.9423 40.0972 89.0152 40.242 89.2875C40.242 89.2876 40.2421 89.2877 40.2421 89.2878L56.5784 121.049L56.5787 121.049C56.6815 121.245 56.6363 121.483 56.4748 121.63L56.4745 121.63L54.1313 123.781L54.1312 123.781C53.8978 123.997 53.5308 123.93 53.3855 123.647L53.3854 123.647L36.8984 91.8417C36.8984 91.8416 36.8984 91.8416 36.8984 91.8416Z" fill="white" stroke="black" stroke-width="0.121839"/>
<path id="Vector_11" d="M57.458 122.165C57.3282 121.921 57.3861 121.626 57.5891 121.447L57.5947 121.446L57.6091 121.434L59.9718 119.493C59.9718 119.493 59.9718 119.493 59.9719 119.493C60.255 119.263 60.6774 119.35 60.8462 119.677L60.8463 119.677L64.9313 127.561C64.9313 127.561 64.9314 127.561 64.9314 127.561C65.0588 127.812 64.9943 128.115 64.7808 128.286L64.7804 128.286L62.4987 130.142C62.4986 130.142 62.4986 130.142 62.4986 130.142C62.2155 130.372 61.7992 130.285 61.6309 129.964L61.6307 129.963L57.4581 122.165C57.458 122.165 57.458 122.165 57.458 122.165Z" fill="white" stroke="black" stroke-width="0.121839"/>
<path id="Vector_12" d="M65.8276 128.862C65.6863 128.606 65.7243 128.289 65.9167 128.075L65.9766 128.022L68.1588 126.124C68.1589 126.124 68.1589 126.124 68.1589 126.124C68.4881 125.84 68.9984 125.938 69.1926 126.332L69.1926 126.332L69.1929 126.332L71.2489 130.407L68.0855 132.967L65.8276 128.862L65.8276 128.862Z" fill="white" stroke="black" stroke-width="0.121839"/>
<path id="Vector_13" d="M35.444 79.5056L35.4018 79.422L35.4013 79.4227C35.3457 79.2358 35.4077 79.0274 35.5618 78.8991C35.5618 78.8991 35.5618 78.8991 35.5619 78.8991L38.3128 76.619L38.3128 76.619C38.554 76.419 38.9175 76.4922 39.0633 76.7764L39.0634 76.7765L43.4191 85.2386L43.4192 85.2389C43.53 85.4519 43.4746 85.7092 43.2959 85.858C43.2959 85.858 43.2959 85.858 43.2958 85.8581L40.4787 88.1764L40.4785 88.1766C40.2376 88.3763 39.8677 88.2978 39.7278 88.0137L39.7276 88.0132L35.444 79.5056Z" fill="white" stroke="black" stroke-width="0.121839"/>
<path id="Vector_14" d="M38.57 75.5574L36.5711 71.8542L36.5709 71.8539C36.4553 71.6429 36.5151 71.3803 36.7053 71.2364C36.7053 71.2364 36.7053 71.2364 36.7053 71.2364L39.5514 69.0886L39.5515 69.0885C39.7824 68.9131 40.1168 68.9887 40.2536 69.2437L42.2663 73.0022L42.2666 73.0028C42.3825 73.2143 42.3223 73.482 42.1275 73.6197L42.1275 73.6197L42.1266 73.6203L39.2694 75.7178L38.57 75.5574ZM38.57 75.5574L38.5724 75.5567C38.7097 75.817 39.0372 75.8881 39.2694 75.7179L38.57 75.5574Z" fill="white" stroke="black" stroke-width="0.121839"/>
<path id="Vector_15" d="M37.629 63.8856C37.4943 64.033 37.4654 64.2611 37.568 64.44L37.5681 64.4402L39.4651 67.7793L37.629 63.8856ZM37.629 63.8856L37.6809 63.844L40.61 61.4955L40.61 61.4954C40.8345 61.3153 41.1608 61.3797 41.3033 61.6341L41.3033 61.6341L43.2051 65.0243M37.629 63.8856L43.2051 65.0243M43.2051 65.0243C43.2051 65.0243 43.2051 65.0243 43.2051 65.0243C43.3206 65.2305 43.2706 65.4851 43.0875 65.6272L43.0874 65.6273L40.1531 67.9184M43.2051 65.0243L40.1531 67.9184M40.1531 67.9184C40.1531 67.9184 40.1531 67.9184 40.1531 67.9184M40.1531 67.9184L40.1531 67.9184M40.1531 67.9184C39.9278 68.0931 39.607 68.0279 39.4652 67.7794L40.1531 67.9184Z" fill="white" stroke="black" stroke-width="0.121839"/>
<path id="Vector_16" d="M45.2864 50.931L47.6422 55.0031L47.6425 55.0036C47.7705 55.2203 47.7176 55.5006 47.5163 55.6575L47.5163 55.6576L41.784 60.137L41.7839 60.1371C41.5518 60.3194 41.2173 60.2602 41.0583 60.0173L41.0582 60.0172L38.6189 56.3163L45.2864 50.931Z" fill="white" stroke="black" stroke-width="0.121839"/>
<path id="Vector_17" d="M71.9754 34.3068L70.1554 30.8397L76.7514 25.5132L78.6367 29.4869C78.6367 29.487 78.6367 29.487 78.6368 29.4871C78.8317 29.9044 78.7162 30.3997 78.3596 30.6881C78.3596 30.6881 78.3596 30.6881 78.3595 30.6881L73.4419 34.6204C73.4418 34.6204 73.4417 34.6205 73.4417 34.6205C72.9624 34.9986 72.2598 34.8483 71.9754 34.3068C71.9754 34.3068 71.9754 34.3068 71.9754 34.3068Z" fill="white" stroke="black" stroke-width="0.121839"/>
<path id="Vector_18" d="M79.8561 30.3256L79.8604 30.3291L79.8995 30.2953L82.4477 28.0925C82.4477 28.0925 82.4477 28.0924 82.4478 28.0924C82.6544 27.9149 82.9658 27.97 83.0984 28.1987L83.0984 28.1987L83.0986 28.1992L85.1544 31.6708C85.2678 31.8639 85.2177 32.1169 85.0415 32.2455L85.0415 32.2455L85.0409 32.2459L82.4852 34.1601C82.4852 34.1602 82.4851 34.1602 82.485 34.1603C82.281 34.3093 81.9974 34.2575 81.8602 34.045L79.8126 30.862C79.8126 30.8619 79.8126 30.8618 79.8125 30.8618C79.7035 30.6897 79.7234 30.4726 79.8561 30.3256Z" fill="white" stroke="black" stroke-width="0.121839"/>
<path id="Vector_19" d="M86.0755 32.1508L88.9069 29.4447L91.0732 33.6491L88.5952 36.0931C88.3269 36.3565 87.8844 36.2948 87.6979 35.9638C87.6978 35.9638 87.6978 35.9638 87.6978 35.9637L85.969 32.8535C85.9689 32.8534 85.9688 32.8533 85.9688 32.8532C85.8431 32.62 85.8859 32.3312 86.0754 32.1509L86.0755 32.1508Z" fill="white" stroke="black" stroke-width="0.121839"/>
<path id="Vector_20" d="M74.2345 47.9944L74.2279 47.995L76.8318 45.7633C76.8318 45.7632 76.8319 45.7632 76.8319 45.7632C77.0502 45.5781 77.3871 45.6366 77.5288 45.8896L77.5289 45.8897L79.3849 49.2004C79.385 49.2005 79.385 49.2005 79.385 49.2006C79.4866 49.3842 79.4521 49.621 79.3032 49.7654C79.3031 49.7655 79.3031 49.7655 79.303 49.7656L76.6873 52.2637L76.6872 52.2639C76.4709 52.4716 76.124 52.42 75.9761 52.1617L75.976 52.1616L73.9857 48.7092L73.9857 48.7092L73.9854 48.7087C73.8721 48.5158 73.9157 48.2672 74.0881 48.1196L74.2345 47.9944Z" fill="white" stroke="black" stroke-width="0.121839"/>
<path id="Vector_21" d="M54.2232 64.4635L54.2167 64.4641L56.8205 62.2324C56.8206 62.2324 56.8206 62.2323 56.8207 62.2323C57.039 62.0472 57.3759 62.1057 57.5176 62.3588L57.5176 62.3588L59.3737 65.6695C59.3737 65.6696 59.3738 65.6697 59.3738 65.6697C59.4754 65.8534 59.4408 66.0901 59.292 66.2345C59.2919 66.2346 59.2919 66.2346 59.2918 66.2347L56.6761 68.7329L56.676 68.733C56.4597 68.9407 56.1128 68.8892 55.9649 68.6308L55.9648 68.6307L53.9744 65.1783L53.9744 65.1783L53.9742 65.1779C53.8608 64.9849 53.9045 64.7363 54.0769 64.5887L54.2232 64.4635Z" fill="white" stroke="black" stroke-width="0.121839"/>
<path id="Vector_22" d="M50.8338 79.075L50.8273 79.0757L53.4311 76.8439C53.4312 76.8439 53.4312 76.8438 53.4312 76.8438C53.6496 76.6587 53.9865 76.7172 54.1282 76.9703L54.1282 76.9703L55.9843 80.281C55.9843 80.2811 55.9844 80.2812 55.9844 80.2812C56.086 80.4649 56.0514 80.7016 55.9025 80.8461C55.9025 80.8461 55.9024 80.8461 55.9024 80.8462L53.2867 83.3444L53.2866 83.3445C53.0703 83.5522 52.7234 83.5007 52.5755 83.2424L52.5754 83.2422L50.585 79.7898L50.585 79.7898L50.5848 79.7894C50.4714 79.5964 50.5151 79.3478 50.6875 79.2003L50.8338 79.075Z" fill="white" stroke="black" stroke-width="0.121839"/>
<path id="Vector_23" d="M100.702 91.9382L100.695 91.9388L103.299 89.7071C103.299 89.707 103.299 89.707 103.299 89.707C103.517 89.5219 103.854 89.5804 103.996 89.8334L103.996 89.8335L105.852 93.1442C105.852 93.1443 105.852 93.1443 105.852 93.1444C105.954 93.328 105.919 93.5648 105.77 93.7092C105.77 93.7093 105.77 93.7093 105.77 93.7093L103.154 96.2075L103.154 96.2076C102.938 96.4154 102.591 96.3638 102.443 96.1055L102.443 96.1054L100.453 92.653L100.453 92.653L100.452 92.6525C100.339 92.4596 100.383 92.211 100.555 92.0634L100.702 91.9382Z" fill="white" stroke="black" stroke-width="0.121839"/>
<path id="Vector_24" d="M85.0882 49.4949L85.0817 49.4956L87.6855 47.2638C87.6856 47.2638 87.6856 47.2638 87.6856 47.2637C87.904 47.0786 88.2409 47.1371 88.3826 47.3902L88.3826 47.3902L90.2387 50.701C90.2387 50.701 90.2388 50.7011 90.2388 50.7012C90.3404 50.8848 90.3058 51.1215 90.157 51.2659C90.1569 51.266 90.1569 51.2661 90.1568 51.2661L87.5411 53.7643L87.541 53.7644C87.3247 53.9721 86.9778 53.9206 86.8299 53.6623L86.8298 53.6621L84.8394 50.2097L84.8394 50.2097L84.8392 50.2093C84.7258 50.0164 84.7695 49.7677 84.9419 49.6202L85.0882 49.4949Z" fill="white" stroke="black" stroke-width="0.121839"/>
<path id="Vector_25" d="M65.743 108.368L65.743 108.368L65.7438 108.367L68.0995 106.35L68.0995 106.35C68.4412 106.057 68.9593 106.149 69.1778 106.542L69.178 106.543L70.7889 109.408L70.7889 109.408C70.9509 109.695 70.8967 110.062 70.6603 110.285L70.6601 110.285L68.418 112.427C68.4179 112.427 68.4179 112.427 68.4179 112.427C68.0843 112.743 67.5437 112.664 67.3128 112.266L65.5886 109.276L65.5885 109.276C65.413 108.972 65.4775 108.588 65.743 108.368Z" fill="white" stroke="black" stroke-width="0.121839"/>
<path id="Vector_26" d="M77.5926 112.343L77.5926 112.343L77.5934 112.342L79.9491 110.325L79.9491 110.325C80.2908 110.032 80.8089 110.124 81.0274 110.517L81.0276 110.518L82.6385 113.383L82.6385 113.383C82.8005 113.67 82.7463 114.037 82.5099 114.26L82.5097 114.261L80.2676 116.402C80.2675 116.402 80.2675 116.402 80.2675 116.402C79.9339 116.718 79.3933 116.639 79.1624 116.241L77.4382 113.252L77.4381 113.252C77.2626 112.948 77.3271 112.563 77.5926 112.343Z" fill="white" stroke="black" stroke-width="0.121839"/>
<path id="Vector_27" d="M69.8344 78.3245L69.8456 78.3288L69.8733 78.3059L79.5124 70.3054C79.5124 70.3054 79.5124 70.3053 79.5124 70.3053C79.7132 70.1407 80.0185 70.2014 80.1396 70.4301L86.989 83.44L86.9892 83.4404C87.083 83.6156 87.0371 83.8273 86.8871 83.9544L77.3135 92.0451L77.3134 92.0453C77.1142 92.2146 76.809 92.156 76.6806 91.9202C76.6805 91.9201 76.6804 91.9199 76.6804 91.9198L69.7592 78.821L69.759 78.8207C69.6707 78.6558 69.7058 78.4535 69.8344 78.3245Z" fill="white" stroke="black" stroke-width="0.121839"/>
<path id="Vector_28" d="M67.1115 73.9802L67.1115 73.9803L69.2846 78.1604L69.2848 78.1608C69.3866 78.3541 69.3308 78.5909 69.1584 78.7203C69.1583 78.7204 69.1583 78.7204 69.1583 78.7205L66.4821 80.7106C66.2745 80.865 65.9721 80.799 65.844 80.5682C65.844 80.5682 65.844 80.5682 65.844 80.5681L63.5512 76.3996L63.551 76.3993C63.4438 76.2069 63.4986 75.9589 63.682 75.8284L63.6822 75.8283L66.4784 73.8266L66.4787 73.8263C66.692 73.6713 66.9884 73.7431 67.1115 73.9802Z" fill="white" stroke="black" stroke-width="0.121839"/>
<path id="Vector_29" d="M80.3454 69.5122C80.1413 69.6639 79.851 69.6024 79.7197 69.3798L79.7192 69.3741L79.7132 69.3631L77.5773 65.443C77.5773 65.443 77.5772 65.443 77.5772 65.4429C77.4752 65.2538 77.5211 65.0129 77.6915 64.8851L77.6915 64.8851L77.6923 64.8844L80.7937 62.4745L80.7939 62.4743C81.0065 62.3079 81.3137 62.3733 81.4429 62.6156C81.4429 62.6156 81.443 62.6156 81.443 62.6157L83.5932 66.6885C83.6954 66.8824 83.639 67.1243 83.4621 67.2476L83.4621 67.2476L83.4611 67.2483L80.3459 69.5118L80.3459 69.5118L80.3454 69.5122Z" fill="white" stroke="black" stroke-width="0.121839"/>
<path id="Vector_30" d="M66.6819 72.9392L66.6821 72.9391L64.6663 69.4185L64.6663 69.4185L64.666 69.4179C64.5603 69.2374 64.6055 69.0089 64.7655 68.8817L64.7657 68.8815L74.4691 61.0934C74.4691 61.0933 74.4692 61.0932 74.4693 61.0932C74.6716 60.9333 74.9642 60.9907 75.0841 61.2127L75.0845 61.2134L77.0649 64.763C77.0649 64.763 77.0649 64.763 77.0649 64.763C77.1653 64.9443 77.1195 65.1672 76.9592 65.2947L76.959 65.2949L67.2901 73.0479L67.2899 73.0481C67.0985 73.2032 66.8121 73.1529 66.6819 72.9392Z" fill="white" stroke="black" stroke-width="0.121839"/>
<path id="Vector_31" d="M65.6087 81.5145L62.6771 83.749C62.499 83.885 62.4432 84.1348 62.5464 84.3353C62.5464 84.3354 62.5465 84.3355 62.5465 84.3356L69.4525 97.4746L69.4527 97.4751C69.5831 97.7288 69.9092 97.7997 70.1343 97.6252L65.6087 81.5145ZM65.6087 81.5145L65.6101 81.516C65.836 81.3468 66.1628 81.418 66.2931 81.6718L66.2931 81.6718L73.0705 94.8621L73.0705 94.8622C73.1737 95.0626 73.1177 95.3065 72.9452 95.4422C72.9451 95.4422 72.9451 95.4423 72.945 95.4423L70.1343 97.6251L65.6087 81.5145Z" fill="white" stroke="black" stroke-width="0.121839"/>
<path id="Vector_32" d="M76.4739 92.8952L76.5009 92.8747L76.5004 92.87C76.7241 92.7259 77.0247 92.8016 77.1492 93.0395L77.1494 93.0398L79.1123 96.7448C79.2163 96.9521 79.16 97.2014 78.9767 97.3378C78.9766 97.3378 78.9766 97.3378 78.9766 97.3378L76.2689 99.331L76.2689 99.331C76.0488 99.4935 75.7399 99.4273 75.6047 99.1846L73.6009 95.5863C73.4907 95.3787 73.5419 95.1246 73.724 94.9893L73.724 94.9893L73.7245 94.9889L76.4739 92.8952Z" fill="white" stroke="black" stroke-width="0.121839"/>
<path id="Vector_33" d="M79.7213 96.9152L79.7213 96.9152L79.7222 96.9144L89.6527 88.6999C89.6528 88.6999 89.6529 88.6998 89.6529 88.6998C89.8495 88.5406 90.137 88.5863 90.2736 88.7977L90.2737 88.7979L92.2211 91.7919L92.2722 91.7586L92.2211 91.7919C92.3386 91.9725 92.3052 92.2179 92.1407 92.3569L92.1406 92.3569L82.0438 100.902C82.0437 100.902 82.0437 100.902 82.0436 100.902C81.8371 101.073 81.5256 101.013 81.3978 100.779C81.3978 100.778 81.3977 100.778 81.3977 100.778L79.6164 97.4483C79.6163 97.4482 79.6163 97.4481 79.6163 97.448C79.5205 97.2641 79.5622 97.0417 79.7213 96.9152Z" fill="white" stroke="black" stroke-width="0.121839"/>
<path id="Vector_34" d="M89.7865 87.7927L87.587 84.2237L87.5934 84.2231L87.5419 84.1396C87.4157 83.9355 87.4643 83.6703 87.6584 83.5271L87.6585 83.527L90.6083 81.3374C90.6084 81.3374 90.6085 81.3373 90.6086 81.3373C90.8248 81.1803 91.1272 81.2373 91.2656 81.4611L91.2657 81.4614L93.5112 85.0564L93.5114 85.0567C93.6365 85.2543 93.5887 85.526 93.4003 85.6685L93.4001 85.6686L90.4491 87.9163C90.4491 87.9163 90.4491 87.9163 90.4491 87.9163C90.2336 88.0789 89.9257 88.0227 89.7867 87.7931L89.7865 87.7927Z" fill="white" stroke="black" stroke-width="0.121839"/>
<path id="Vector_35" d="M86.614 65.0474L86.6139 65.0475L84.2361 66.8225C84.0632 66.9588 84.0028 67.2097 84.1054 67.4092C84.1054 67.4092 84.1054 67.4092 84.1055 67.4092L90.7656 80.3282L90.772 80.3276L90.7908 80.3642C90.9216 80.6188 91.2544 80.6937 91.4779 80.5143L91.4781 80.5142L93.8634 78.6164C93.8635 78.6163 93.8636 78.6162 93.8637 78.6162C94.0363 78.4742 94.0861 78.2307 93.9839 78.0366L93.9837 78.0364L87.2908 65.2042L86.614 65.0474ZM86.614 65.0474C86.8388 64.879 87.1605 64.9551 87.2908 65.2041L86.614 65.0474Z" fill="white" stroke="black" stroke-width="0.121839"/>
<path id="Vector_36" d="M26.302 79.5753L26.3093 79.5813L26.2519 79.6281C25.9438 79.8788 25.8551 80.3242 26.0539 80.6761L26.0541 80.6764L27.7829 83.7812L27.7829 83.7813C28.0252 84.2185 28.5987 84.3371 28.9963 84.03L31.3502 82.1991L31.3503 82.199C31.6757 81.9469 31.7632 81.4835 31.5576 81.1256L29.7484 77.9772L26.302 79.5753ZM26.302 79.5753L28.519 77.7473L28.5192 77.7471C28.9082 77.4237 29.4931 77.5339 29.7484 77.9771L26.302 79.5753Z" fill="white" stroke="black" stroke-width="0.121839"/>
<path id="Vector_37" d="M178.58 50.7724L182.798 33.8653C183.016 32.9965 182.229 32.2108 181.366 32.4346L167.273 36.1583C165.827 36.5406 164.561 37.4261 163.696 38.6522L148.822 59.7641L178.58 50.7724Z" fill="#51176D" stroke="black" stroke-width="0.487355" stroke-miterlimit="10"/>
<path id="Vector_38" d="M87.7569 74.3938C85.0771 74.6498 84.8469 77.081 85.404 79.2248C85.9612 81.3687 87.3828 83.0959 89.8845 82.4329" fill="black"/>
<path id="Vector_39" d="M85.2301 78.3231L78.0374 79.9804L78.4668 81.8471L85.752 80.226L85.2301 78.3231Z" fill="black"/>
<path id="Vector_40" d="M75.6697 79.6344L78.3128 77.628C78.7525 77.2969 79.377 77.4428 79.6265 77.9329L81.2987 81.2486C81.4864 81.6226 81.3894 82.0816 81.0641 82.3439L78.5805 84.3544C78.1545 84.697 77.5262 84.5772 77.2584 84.0952L75.4267 80.7754C75.212 80.3848 75.3129 79.8998 75.6634 79.635L75.6697 79.6344Z" fill="black"/>
<g id="Vector_41">
<path d="M177.068 50.3832C177.068 50.3832 131.179 63.2163 131.192 63.35C126.709 64.4593 118.58 62.6471 107.329 65.0585L93.341 68.8107C90.6291 69.5388 88.4537 71.6483 87.7561 74.3875C86.8611 77.8715 88.1144 81.4007 90.9712 83.3056C92.3146 84.1987 93.979 84.4443 95.5384 84.0448L114.615 79.196C120.571 76.7574 122.694 72.0575 132.631 68.6603L178.469 55.286" fill="#50176D"/>
<path d="M177.068 50.3832C177.068 50.3832 131.179 63.2163 131.192 63.35C126.709 64.4593 118.58 62.6471 107.329 65.0585L93.341 68.8107C90.6291 69.5388 88.4537 71.6483 87.7561 74.3875C86.8611 77.8715 88.1144 81.4007 90.9712 83.3056C92.3146 84.1987 93.979 84.4443 95.5384 84.0448L114.615 79.196C120.571 76.7574 122.694 72.0575 132.631 68.6603L178.469 55.286" stroke="black" stroke-width="0.487355" stroke-miterlimit="10"/>
</g>
<g id="Vector_42">
<path d="M108.003 64.9234C104.561 67.6357 104.439 77.4638 112.416 79.7659L108.003 64.9234Z" fill="#50176D"/>
<path d="M108.003 64.9234C104.561 67.6357 104.439 77.4638 112.416 79.7659" stroke="black" stroke-width="0.487355" stroke-miterlimit="10"/>
</g>
<g id="Vector_43">
<path d="M102.576 66.3412C97.7614 69.6151 98.899 79.3099 106.507 81.2683L102.576 66.3412Z" fill="#50176D"/>
<path d="M102.576 66.3412C97.7614 69.6151 98.899 79.3099 106.507 81.2683" stroke="black" stroke-width="0.487355" stroke-miterlimit="10"/>
</g>
<g id="Vector_44">
<path d="M96.5753 67.9497C90.8977 72.4688 95.0729 81.9248 99.9828 82.9268L96.5753 67.9497Z" fill="#50176D"/>
<path d="M96.5753 67.9497C90.8977 72.4688 95.0729 81.9248 99.9828 82.9268" stroke="black" stroke-width="0.487355" stroke-miterlimit="10"/>
</g>
<path id="Vector_45" d="M146.368 62.5679L176.549 54.1462L176.849 55.0362L160.11 75.2598C158.916 76.7038 157.342 77.7728 155.571 78.3532L142.948 82.4889C141.553 82.9434 140.217 81.6514 140.611 80.226L145.171 63.7745C145.332 63.1873 145.791 62.7258 146.368 62.5679Z" fill="#51176D" stroke="black" stroke-width="0.487355" stroke-miterlimit="10"/>
<path id="Vector_46" d="M144.037 60.1697L133.121 42.2547C132.505 41.2472 133.017 39.9262 134.145 39.6L147.509 35.7725C149.28 35.2627 151.176 35.5313 152.743 36.5058L176.262 51.1543L176.362 52.224L146.27 61.0421C145.415 61.2908 144.497 60.9352 144.031 60.1703L144.037 60.1697Z" fill="#2F0B41" stroke="black" stroke-width="0.487355" stroke-miterlimit="10"/>
<path id="Vector_47" d="M134.236 44.0851L133.121 42.2547C132.505 41.2472 133.017 39.9262 134.145 39.6L147.509 35.7725C149.28 35.2627 151.176 35.5313 152.743 36.5058L169.016 46.6409L134.236 44.0851Z" fill="#500FA2" stroke="black" stroke-width="0.487355" stroke-miterlimit="10"/>
<path id="Vector_48" d="M177.971 55.4151C178.949 55.1423 179.439 53.8144 179.065 52.4491C178.692 51.0838 177.596 50.1982 176.619 50.471C175.641 50.7438 175.151 52.0717 175.525 53.437C175.898 54.8023 176.994 55.6879 177.971 55.4151Z" fill="#2F0B41" stroke="black" stroke-width="0.487355" stroke-miterlimit="10"/>
<g id="Vector_49">
<path d="M132.638 68.6661C129.74 65.8465 131.199 63.3558 131.199 63.3558L132.638 68.6661Z" fill="#50176D"/>
<path d="M132.638 68.6661C129.74 65.8465 131.199 63.3558 131.199 63.3558" stroke="black" stroke-width="0.487355" stroke-miterlimit="10"/>
</g>
<path id="Vector_50" d="M90.7127 81.1527C90.4319 81.2116 90.3317 81.5681 90.5412 81.7665C91.8237 82.961 93.1293 83.8577 96.4208 82.9328C100.128 81.8912 111.272 79.6313 115.532 77.6374C119.792 75.6435 122.489 70.8118 131.975 68.0358L131.356 66.8615C124.273 69.0801 119.216 71.7991 115.353 74.8471C113.924 75.8831 109.006 77.1047 90.7127 81.1527Z" fill="black"/>
<g id="Group_2" filter="url(#filter0_d_191_280)">
<path id="Vector_51" d="M67.7178 163.71L65.2902 158.546L65.8591 158.018L68.2791 163.17L67.7117 163.71L67.7178 163.71ZM68.1518 163.297L67.8404 162.636L69.8615 160.729L70.1723 161.384L68.1518 163.297Z" fill="white"/>
<path id="Vector_52" d="M68.9916 156.266C68.9037 156.344 68.8106 156.377 68.705 156.353C68.5993 156.329 68.5245 156.257 68.47 156.151C68.414 156.033 68.3993 155.904 68.4258 155.766C68.4524 155.628 68.5119 155.513 68.5998 155.435C68.693 155.349 68.786 155.316 68.8857 155.341C68.9854 155.365 69.0655 155.43 69.1154 155.549C69.1647 155.662 69.1794 155.791 69.1588 155.929C69.133 156.073 69.0795 156.188 68.9863 156.273L68.9916 156.266ZM70.7698 160.903L69.0898 157.282L69.6256 156.78L71.3101 160.387L70.7698 160.903Z" fill="white"/>
<path id="Vector_53" d="M70.5831 156.802L70.3191 156.233L72.1527 154.54L72.4167 155.109L70.5838 156.808L70.5831 156.802ZM72.5022 159.345L70.6363 155.366C70.4601 154.985 70.3959 154.634 70.4489 154.306C70.5019 153.978 70.6729 153.679 70.9679 153.41C71.0555 153.331 71.1558 153.259 71.2762 153.204C71.3966 153.149 71.5238 153.1 71.6583 153.063L71.7031 153.772C71.6037 153.8 71.5162 153.826 71.4474 153.857C71.3786 153.889 71.3224 153.926 71.2783 153.962C71.1525 154.075 71.0842 154.217 71.0719 154.373C71.0596 154.529 71.1055 154.72 71.2022 154.933L73.0346 158.83L72.4955 159.339L72.5022 159.345Z" fill="white"/>
<path id="Vector_54" d="M75.8471 156.504C75.562 156.761 75.277 156.914 74.9793 156.957C74.6878 156.999 74.4087 156.936 74.1482 156.767C73.8877 156.598 73.6718 156.334 73.4928 155.963C73.3139 155.592 73.2206 155.214 73.2116 154.816C73.2025 154.419 73.2638 154.042 73.4076 153.685C73.5515 153.328 73.7626 153.018 74.0485 152.767C74.3114 152.531 74.5871 152.405 74.8687 152.383C75.1503 152.361 75.4209 152.458 75.6844 152.653C75.9425 152.854 76.1752 153.156 76.3701 153.559L75.8166 154.059C75.6758 153.75 75.5195 153.521 75.3538 153.37C75.1881 153.22 75.0185 153.142 74.8463 153.149C74.6734 153.149 74.4973 153.228 74.3302 153.385C74.1454 153.549 74.0134 153.742 73.9341 153.964C73.8487 154.186 73.8206 154.423 73.8377 154.676C73.8547 154.93 73.9283 155.191 74.0593 155.468C74.1811 155.72 74.3261 155.905 74.4926 156.009C74.6599 156.12 74.8434 156.158 75.0324 156.137C75.2207 156.109 75.4076 156.016 75.5862 155.852C75.7763 155.681 75.9076 155.481 75.9807 155.26C76.0539 155.039 76.0888 154.808 76.0794 154.567L76.7079 154.394C76.7188 154.648 76.6991 154.904 76.6412 155.15C76.584 155.403 76.4886 155.645 76.3542 155.871C76.2198 156.097 76.0533 156.312 75.841 156.505L75.8471 156.504ZM73.9278 155.772L73.6643 155.205L75.8 153.277L76.0681 153.83L73.927 155.766L73.9278 155.772Z" fill="white"/>
<path id="Vector_55" d="M81.4504 151.689C81.0355 152.054 80.6163 152.276 80.1914 152.342C79.7672 152.414 79.3687 152.334 79.0033 152.114C78.638 151.895 78.3311 151.54 78.0942 151.043C77.8504 150.539 77.7277 150.014 77.7205 149.472C77.7133 148.931 77.8193 148.407 78.0394 147.907C78.2533 147.407 78.5681 146.978 78.9844 146.626C79.2091 146.432 79.4521 146.289 79.7003 146.192C79.9492 146.101 80.1973 146.055 80.4453 146.062C80.6871 146.069 80.9097 146.124 81.1131 146.225L80.8305 146.985C80.6791 146.905 80.52 146.866 80.3402 146.86C80.1603 146.854 79.9788 146.888 79.8011 146.954C79.6173 147.021 79.4556 147.118 79.2984 147.254C78.9947 147.513 78.772 147.831 78.6166 148.195C78.4611 148.56 78.3883 148.944 78.3981 149.348C78.4018 149.752 78.5027 150.143 78.6824 150.52C78.8615 150.892 79.0843 151.161 79.3572 151.329C79.6239 151.498 79.9215 151.56 80.2316 151.516C80.5478 151.472 80.8566 151.311 81.1595 151.046C81.4064 150.831 81.593 150.575 81.7261 150.284C81.8591 149.993 81.9295 149.693 81.9363 149.379C81.9432 149.066 81.8711 148.764 81.7332 148.481L82.2572 147.938C82.4675 148.365 82.5744 148.808 82.5718 149.265C82.5693 149.722 82.4718 150.16 82.2849 150.573C82.0926 150.993 81.82 151.36 81.4558 151.682L81.4504 151.689ZM80.7522 149.4L80.4696 148.828L82.0187 147.48L82.2617 147.977L82.0023 148.297L80.7454 149.394L80.7522 149.4Z" fill="white"/>
<path id="Vector_56" d="M85.3871 148.347C85.0948 148.598 84.7966 148.745 84.4987 148.788C84.2007 148.831 83.9214 148.768 83.6622 148.612C83.4022 148.449 83.1808 148.192 83.01 147.839C82.8332 147.487 82.7406 147.116 82.7338 146.738C82.727 146.359 82.7959 145.995 82.9414 145.65C83.0869 145.306 83.3066 145.015 83.5873 144.771C83.8796 144.519 84.1786 144.379 84.4773 144.342C84.776 144.306 85.0553 144.369 85.3153 144.532C85.5752 144.694 85.7906 144.952 85.9674 145.304C86.1443 145.656 86.2354 146.015 86.2422 146.393C86.2482 146.765 86.1793 147.129 86.0392 147.467C85.8937 147.811 85.6802 148.102 85.394 148.353L85.3871 148.347ZM85.0898 147.756C85.264 147.605 85.3969 147.419 85.477 147.203C85.5632 146.988 85.5982 146.756 85.588 146.509C85.5779 146.262 85.5133 146.025 85.399 145.786C85.2785 145.547 85.1411 145.375 84.9737 145.264C84.8062 145.153 84.6272 145.101 84.4373 145.116C84.2473 145.131 84.0649 145.21 83.8908 145.361C83.7105 145.512 83.5776 145.699 83.4921 145.921C83.4066 146.143 83.3717 146.374 83.3826 146.628C83.3927 146.876 83.458 147.119 83.5716 147.352C83.692 147.59 83.8295 147.763 83.9969 147.874C84.1644 147.985 84.3427 148.03 84.5318 148.008C84.7218 147.994 84.9088 147.901 85.0891 147.749L85.0898 147.756Z" fill="white"/>
<path id="Vector_57" d="M88.5628 145.725C88.2136 146.021 87.896 146.163 87.6095 146.146C87.323 146.129 87.0989 145.957 86.9372 145.63C86.761 145.284 86.7319 144.927 86.8392 144.572C86.9465 144.218 87.187 143.892 87.5471 143.583L88.3646 142.899L88.6217 143.408L87.9569 143.969C87.6867 144.199 87.5192 144.408 87.4605 144.596C87.4019 144.783 87.4107 144.966 87.4984 145.135C87.5785 145.292 87.6932 145.375 87.8411 145.37C87.9897 145.372 88.1539 145.293 88.3397 145.135C88.5032 144.998 88.6146 144.839 88.6924 144.657C88.7641 144.475 88.7975 144.283 88.7933 144.087C88.7891 143.892 88.7428 143.706 88.6543 143.53L88.9192 143.307C89.1518 143.765 89.2397 144.203 89.1898 144.625C89.1398 145.047 88.9344 145.409 88.5743 145.718L88.5628 145.725ZM89.3783 144.917L89.054 144.361L88.4659 143.185C88.3446 142.94 88.2117 142.754 88.0794 142.627C87.9472 142.5 87.8101 142.439 87.6676 142.437C87.5251 142.435 87.3718 142.499 87.209 142.642C87.057 142.772 86.9379 142.918 86.8586 143.088C86.7793 143.257 86.7398 143.45 86.7401 143.665L86.1267 143.87C86.1203 143.655 86.1391 143.444 86.1879 143.225C86.2374 143.012 86.3183 142.803 86.4437 142.604C86.5629 142.405 86.7265 142.216 86.9299 142.05C87.2062 141.819 87.4632 141.688 87.7131 141.656C87.9629 141.623 88.1934 141.69 88.4045 141.857C88.6156 142.023 88.8127 142.283 88.9843 142.642L89.8958 144.472L89.3715 144.911L89.3783 144.917Z" fill="white"/>
<path id="Vector_58" d="M90.7111 143.855L88.3824 139.179L88.9319 138.727L91.259 143.39L90.7111 143.855Z" fill="white"/>
<path id="Vector_59" d="M93.2502 141.918C93.0421 142.091 92.8402 142.211 92.6439 142.272C92.4475 142.333 92.2588 142.354 92.0894 142.328C91.9199 142.302 91.7643 142.236 91.6347 142.129L91.992 141.488C92.1254 141.575 92.2773 141.609 92.4476 141.59C92.6187 141.576 92.7769 141.505 92.9284 141.376C93.0974 141.239 93.2153 141.086 93.289 140.924C93.3627 140.762 93.3645 140.618 93.3007 140.493C93.2368 140.367 93.1499 140.309 93.0323 140.305C92.9147 140.301 92.7657 140.345 92.5838 140.425L92.2681 140.573C91.9517 140.715 91.6736 140.763 91.4401 140.716C91.2004 140.669 91.0319 140.545 90.9263 140.325C90.7651 139.999 90.7276 139.676 90.8185 139.342C90.91 139.016 91.139 138.704 91.4993 138.409C91.6737 138.265 91.8534 138.166 92.0307 138.1C92.2088 138.041 92.373 138.021 92.5295 138.042C92.6859 138.062 92.8232 138.13 92.9406 138.238L92.5933 138.859C92.4775 138.763 92.3508 138.734 92.1995 138.759C92.0552 138.79 91.903 138.86 91.7516 138.989C91.594 139.119 91.4929 139.257 91.4429 139.411C91.3929 139.565 91.4033 139.708 91.4687 139.846C91.5082 139.921 91.5807 139.961 91.6922 139.966C91.8036 139.97 91.9412 139.933 92.1177 139.861L92.48 139.689C92.6963 139.588 92.9003 139.539 93.0798 139.545C93.2592 139.55 93.4187 139.596 93.5453 139.678C93.6779 139.759 93.7777 139.875 93.8499 140.019C93.9526 140.214 93.9895 140.426 93.9669 140.656C93.9435 140.88 93.8705 141.1 93.7478 141.319C93.6191 141.537 93.4506 141.733 93.2426 141.906L93.2502 141.918Z" fill="white"/>
</g>
</g>
<defs>
<filter id="filter0_d_191_280" x="63.3409" y="136.085" width="32.5819" height="29.575" filterUnits="userSpaceOnUse" color-interpolation-filters="sRGB">
<feFlood flood-opacity="0" result="BackgroundImageFix"/>
<feColorMatrix in="SourceAlpha" type="matrix" values="0 0 0 0 0 0 0 0 0 0 0 0 0 0 0 0 0 0 127 0" result="hardAlpha"/>
<feOffset/>
<feGaussianBlur stdDeviation="0.97471"/>
<feComposite in2="hardAlpha" operator="out"/>
<feColorMatrix type="matrix" values="0 0 0 0 1 0 0 0 0 1 0 0 0 0 1 0 0 0 0.5 0"/>
<feBlend mode="normal" in2="BackgroundImageFix" result="effect1_dropShadow_191_280"/>
<feBlend mode="normal" in="SourceGraphic" in2="effect1_dropShadow_191_280" result="shape"/>
</filter>
</defs>
</svg>
