<svg width="210" height="207" viewBox="0 0 210 207" fill="none" xmlns="http://www.w3.org/2000/svg">
<path d="M106.178 152.144C109.537 157.227 121.417 157.593 131.549 150.089C139.842 143.944 142.217 134.568 139.065 129.796C134.67 123.144 121.346 125.785 114.351 130.965C104.33 138.39 102.347 146.346 106.178 152.144Z" fill="#500FA2"/>
<path d="M108.869 154.957C114.097 157.552 123.509 156.534 131.765 150.417C140.369 144.043 142.66 134.48 139.4 129.548C137.326 126.409 133.162 124.987 127.675 125.533C122.93 126.007 117.742 127.965 114.135 130.637C109.317 134.207 106.053 138.152 104.696 142.054C103.413 145.739 103.809 149.316 105.841 152.395C106.542 153.455 107.576 154.315 108.869 154.957ZM135.71 127.428C136.938 128.038 137.97 128.896 138.73 130.046C141.718 134.567 139.415 143.778 131.333 149.765C121.578 156.992 109.779 156.841 106.512 151.901C104.619 149.033 104.247 145.708 105.443 142.28C106.742 138.553 109.899 134.756 114.567 131.296C120.126 127.177 130 124.597 135.711 127.433L135.71 127.428Z" fill="black"/>
<path d="M141.198 164.388C145.589 160.198 154.425 146.75 156.226 132.633C157.028 135.252 157.269 138.053 156.988 140.927C156.12 149.89 150.195 159.596 140.386 166.935C138.225 168.554 135.985 169.915 133.711 171.028C136.519 168.631 139.291 166.201 141.195 164.387L141.198 164.388Z" fill="#500FA2"/>
<path d="M133.51 171.404C133.609 171.454 133.729 171.456 133.843 171.402C136.178 170.26 138.446 168.869 140.593 167.267C150.21 160.075 156.49 150.23 157.391 140.935C157.391 140.919 157.393 140.909 157.394 140.894C157.678 137.931 157.416 135.099 156.613 132.474C156.557 132.3 156.392 132.193 156.211 132.226C156.03 132.259 155.882 132.412 155.859 132.601C154.083 146.509 145.271 159.986 140.946 164.111C139.274 165.704 136.76 167.935 133.473 170.738C133.317 170.872 133.272 171.096 133.367 171.263C133.401 171.327 133.454 171.376 133.513 171.406L133.51 171.404ZM156.614 140.954C155.724 149.997 149.578 159.593 140.171 166.628C139.037 167.477 137.866 168.266 136.667 168.987C138.658 167.253 140.255 165.811 141.438 164.685C145.222 161.079 153.908 148.752 156.327 134.6C156.729 136.608 156.827 138.722 156.613 140.915C156.613 140.93 156.611 140.941 156.61 140.956L156.614 140.954Z" fill="black"/>
<path d="M110.478 126.289C113.559 124.004 116.826 122.182 120.134 120.82C123.601 119.392 127.115 118.467 130.526 118.05C140.177 116.853 148.985 119.661 153.44 126.402C154.454 127.94 155.222 129.58 155.751 131.3C153.889 145.714 144.776 159.445 140.248 163.724C138.287 165.573 135.427 168.058 132.531 170.505C121.694 175.764 110.133 175.599 102.515 170.649C102.485 170.63 102.457 170.613 102.427 170.594C100.309 169.204 98.5015 167.446 97.1024 165.324C89.5718 153.926 95.0347 137.73 110.475 126.287L110.478 126.289ZM131.734 150.084C140.019 143.943 142.392 134.576 139.243 129.808C134.852 123.162 121.539 125.8 114.55 130.976C104.539 138.395 102.557 146.344 106.385 152.137C109.741 157.216 121.611 157.581 131.734 150.084Z" fill="#500FA2"/>
<path d="M104.458 172.241C112.267 176.118 122.825 175.659 132.679 170.875C132.713 170.86 132.742 170.839 132.773 170.815C136.172 167.941 138.774 165.655 140.506 164.018C144.581 160.167 154.179 146.589 156.148 131.323C156.156 131.265 156.15 131.207 156.132 131.15C155.589 129.382 154.796 127.703 153.774 126.154C149.418 119.56 140.719 116.377 130.509 117.643C127.006 118.074 123.472 119.017 120.009 120.443C116.582 121.852 113.301 123.707 110.259 125.963C102.732 131.541 97.2389 138.558 94.7967 145.716C92.3476 152.895 93.0473 159.947 96.7642 165.575C98.1621 167.692 99.9878 169.499 102.193 170.948L102.284 171.005C102.981 171.457 103.706 171.872 104.456 172.245L104.458 172.241ZM132.339 170.163C121.798 175.263 110.465 175.31 102.747 170.299L102.662 170.245C100.542 168.85 98.7833 167.112 97.4392 165.08C89.9596 153.758 95.4103 137.941 110.692 126.619C113.676 124.408 116.893 122.584 120.253 121.205C123.646 119.807 127.108 118.883 130.541 118.46C140.469 117.228 148.904 120.291 153.103 126.654C154.072 128.118 154.825 129.703 155.344 131.372C153.486 145.537 144.434 159.241 139.989 163.439C138.273 165.06 135.699 167.321 132.335 170.169L132.339 170.163ZM109.047 154.918C111.016 155.896 113.597 156.372 116.507 156.239C121.712 156.004 127.194 153.933 131.948 150.411C135.87 147.506 138.784 143.644 140.152 139.535C141.433 135.688 141.224 132.053 139.578 129.557C137.508 126.422 133.347 124.997 127.863 125.545C123.122 126.019 117.939 127.975 114.335 130.645C109.521 134.212 106.261 138.153 104.904 142.053C103.622 145.734 104.018 149.308 106.048 152.384C106.733 153.424 107.76 154.276 109.045 154.914L109.047 154.918ZM135.888 127.45C137.156 128.079 138.176 128.951 138.904 130.056C140.418 132.349 140.599 135.726 139.4 139.326C138.089 143.256 135.29 146.962 131.518 149.757C126.902 153.179 121.579 155.191 116.535 155.42C111.983 155.626 108.315 154.308 106.719 151.891C104.827 149.025 104.456 145.703 105.651 142.278C106.949 138.554 110.102 134.76 114.766 131.303C118.256 128.718 123.277 126.827 127.878 126.367C131.095 126.045 133.823 126.425 135.891 127.451L135.888 127.45Z" fill="black"/>
<path d="M106.178 152.144C109.537 157.227 121.417 157.593 131.549 150.089C139.842 143.944 142.217 134.568 139.065 129.796C134.67 123.144 121.346 125.785 114.351 130.965C104.33 138.39 102.347 146.346 106.178 152.144Z" fill="#500FA2"/>
<path d="M108.869 154.957C114.097 157.552 123.509 156.534 131.765 150.417C140.369 144.043 142.66 134.48 139.4 129.548C137.326 126.409 133.162 124.987 127.675 125.533C122.93 126.007 117.742 127.965 114.135 130.637C109.317 134.207 106.053 138.152 104.696 142.054C103.413 145.739 103.809 149.316 105.841 152.395C106.542 153.455 107.576 154.315 108.869 154.957ZM135.71 127.428C136.938 128.038 137.97 128.896 138.73 130.046C141.718 134.567 139.415 143.778 131.333 149.765C121.578 156.992 109.779 156.841 106.512 151.901C104.619 149.033 104.247 145.708 105.443 142.28C106.742 138.553 109.899 134.756 114.567 131.296C120.126 127.177 130 124.597 135.711 127.433L135.71 127.428Z" fill="black"/>
<path d="M106.178 152.144C109.537 157.227 121.417 157.593 131.549 150.089C139.842 143.944 142.217 134.568 139.065 129.796C134.67 123.144 121.346 125.785 114.351 130.965C104.33 138.39 102.347 146.346 106.178 152.144Z" fill="#500FA2"/>
<path d="M108.869 154.957C114.097 157.552 123.509 156.534 131.765 150.417C140.369 144.043 142.66 134.48 139.4 129.548C137.326 126.409 133.162 124.987 127.675 125.533C122.93 126.007 117.742 127.965 114.135 130.637C109.317 134.207 106.053 138.152 104.696 142.054C103.413 145.739 103.809 149.316 105.841 152.395C106.542 153.455 107.576 154.315 108.869 154.957ZM135.71 127.428C136.938 128.038 137.97 128.896 138.73 130.046C141.718 134.567 139.415 143.778 131.333 149.765C121.578 156.992 109.779 156.841 106.512 151.901C104.619 149.033 104.247 145.708 105.443 142.28C106.742 138.553 109.899 134.756 114.567 131.296C120.126 127.177 130 124.597 135.711 127.433L135.71 127.428Z" fill="black"/>
<path d="M140.168 166.673C127.887 175.774 113.108 177.02 103.722 171.387C104.424 172.793 106.107 175.344 109.609 177.005C113.76 178.974 120.515 179.715 131.321 175.741L131.547 175.658L131.548 175.662C142.322 171.642 149.273 164.886 153.227 158.072C156.858 151.815 157.954 145.525 157.186 141.261C155.878 150.114 149.842 159.506 140.168 166.673Z" fill="#2F0B41" stroke="black" stroke-width="0.448817"/>
<path d="M122.843 181.409C123.49 182.393 124.841 182.574 125.844 181.812C157.385 157.745 158.902 142.673 160.507 128.013C160.553 127.573 160.594 127.137 160.623 126.708C160.761 124.686 161.798 122.776 163.417 121.502C166.541 119.042 170.732 115.766 173.248 113.902C172.876 112.534 172.96 111.014 173.527 109.583C174.233 107.785 174.876 105.484 175.014 102.96C174.437 104.865 173.302 107.224 171.101 109.287C168.524 111.7 164.879 114.676 162.146 116.856C161.121 117.674 159.704 117.315 159.278 116.145C156.514 108.556 150.162 104.948 141.565 107.266C133.676 109.396 124.176 117.85 120.238 121.611C123.664 120.196 127.137 119.28 130.509 118.867C130.609 118.773 130.708 118.674 130.813 118.578C136.66 112.984 152.573 104.286 155.369 121.754C155.91 125.127 155.881 128.577 155.441 131.988C153.604 146.263 144.598 159.86 140.123 164.098C138.186 165.929 135.359 168.389 132.498 170.813C128.982 173.791 125.424 176.712 123.405 178.359C122.471 179.122 122.225 180.459 122.849 181.404L122.843 181.409Z" fill="#FFCA10"/>
<path d="M123.398 182.452C123.622 182.564 123.868 182.64 124.129 182.676C124.8 182.765 125.487 182.576 126.061 182.138C157.618 158.057 159.279 142.89 160.881 128.219L160.904 128.024C160.955 127.547 160.994 127.115 161.021 126.704C161.15 124.809 162.105 123.026 163.644 121.817C168.284 118.163 171.496 115.68 173.465 114.226C173.611 114.119 173.678 113.93 173.631 113.763C173.278 112.47 173.371 111.029 173.893 109.711C174.503 108.165 175.257 105.736 175.409 102.949C175.419 102.744 175.283 102.575 175.086 102.555C174.89 102.535 174.701 102.667 174.64 102.867C173.915 105.259 172.64 107.32 170.848 108.998C168.787 110.925 165.784 113.466 161.919 116.543C161.533 116.849 161.061 116.961 160.612 116.855C160.158 116.746 159.807 116.427 159.643 115.979C156.737 107.999 149.949 104.595 141.486 106.876C133.452 109.044 123.765 117.707 119.971 121.33C119.828 121.465 119.791 121.68 119.883 121.843C119.975 122.005 120.168 122.066 120.348 121.992C123.702 120.608 127.124 119.693 130.515 119.277C130.601 119.266 130.687 119.227 130.752 119.165L131.056 118.877C134.717 115.374 142.668 110.459 148.434 112.163C151.908 113.191 154.111 116.452 154.975 121.862C155.481 125.019 155.505 128.423 155.044 131.978C153.235 146.04 144.262 159.657 139.859 163.826C138.157 165.436 135.597 167.691 132.252 170.525C128.677 173.552 125.023 176.551 123.163 178.068C122.058 178.97 121.768 180.551 122.504 181.669C122.731 182.016 123.036 182.284 123.393 182.462L123.398 182.452ZM123.173 181.168C122.664 180.397 122.862 179.304 123.628 178.681C125.489 177.161 129.151 174.161 132.73 171.125C136.09 168.279 138.662 166.015 140.373 164.393C144.401 160.579 153.887 147.132 155.831 132.012C156.301 128.378 156.276 124.892 155.757 121.655C154.843 115.943 152.47 112.481 148.709 111.369C142.585 109.561 134.494 114.516 130.553 118.288C130.498 118.338 130.443 118.393 130.386 118.446L130.353 118.476C127.554 118.832 124.738 119.519 121.954 120.517C126.351 116.477 134.665 109.531 141.631 107.649C149.803 105.445 156.099 108.597 158.906 116.306C159.153 116.982 159.689 117.466 160.377 117.633C161.058 117.801 161.785 117.625 162.372 117.157C166.256 114.066 169.277 111.511 171.355 109.566C172.519 108.475 173.5 107.195 174.257 105.783C173.955 107.254 173.535 108.516 173.168 109.448C172.616 110.844 172.491 112.359 172.803 113.745C170.81 115.226 167.662 117.663 163.198 121.175C161.461 122.542 160.381 124.555 160.235 126.702C160.208 127.106 160.17 127.523 160.121 127.989L160.1 128.181C158.517 142.663 156.88 157.64 125.628 181.486C125.233 181.789 124.757 181.922 124.294 181.858C123.83 181.795 123.431 181.546 123.175 181.158L123.173 181.168Z" fill="black"/>
<path d="M96.6879 85.0246L96.7227 85.0633L96.8039 85.1537C97.1452 85.497 97.7026 85.6019 98.2213 85.3036L98.2215 85.3035C99.0529 84.8267 99.971 84.3413 100.978 83.8565L100.979 83.8562C101.168 83.766 101.362 83.6737 101.555 83.5844C102.216 83.2741 102.909 82.9643 103.637 82.6596C103.824 82.5779 104.016 82.4993 104.2 82.4238C104.366 82.3549 104.534 82.2852 104.709 82.2153C104.821 82.1703 104.942 82.1223 105.063 82.0743C105.177 82.029 105.291 81.9837 105.397 81.9409L105.398 81.9408L105.399 81.9404C105.558 81.8765 105.721 81.8113 105.89 81.7489C106.052 81.6865 106.221 81.6217 106.388 81.5601C106.486 81.5226 106.584 81.4859 106.681 81.4493C106.75 81.4236 106.818 81.3979 106.887 81.3718C106.917 81.3605 106.947 81.3491 106.977 81.3377L106.979 81.3368C107.03 81.3183 107.08 81.2992 107.132 81.2799C107.237 81.2405 107.345 81.2001 107.454 81.1618L107.454 81.1617C107.529 81.1355 107.604 81.1084 107.68 81.081C107.755 81.0537 107.832 81.0261 107.908 80.9992L107.908 80.9992C108.146 80.9141 108.386 80.8282 108.632 80.7451C109.442 80.4615 110.273 80.1885 111.124 79.9182L111.124 79.918C112.23 79.5691 113.377 79.2283 114.553 78.9023M96.6879 85.0246L132.638 75.4593M96.6879 85.0246C96.5645 84.8533 96.4852 84.6384 96.4713 84.3842L96.2776 80.722L96.0573 80.7355L96.2776 80.7219L95.9882 75.2686L95.8206 72.0957C95.6846 69.5139 97.2373 67.019 99.6119 65.965L99.6122 65.9648C123.401 55.3657 143.22 54.7022 157.277 58.5782C171.355 62.4596 179.607 70.8711 180.395 78.3889L182.141 95.5025C177.272 83.9019 166.834 78.3871 155.195 76.1392M96.6879 85.0246L149.846 75.3541M114.553 78.9023C114.553 78.9023 114.552 78.9024 114.552 78.9024L114.611 79.1106L114.553 78.9023ZM114.553 78.9023C114.81 78.8304 115.064 78.7597 115.325 78.6918M115.325 78.6918C117.144 78.2005 119.035 77.7414 120.977 77.3199M115.325 78.6918C115.325 78.692 115.324 78.6921 115.324 78.6922L115.38 78.9009L115.326 78.6916C115.326 78.6917 115.325 78.6918 115.325 78.6918ZM120.977 77.3199C120.977 77.3199 120.978 77.3198 120.978 77.3198L121.023 77.5312L120.977 77.3199ZM120.977 77.3199C121.594 77.1848 122.218 77.0575 122.847 76.9332L122.847 76.9331C123.537 76.7992 124.23 76.6666 124.926 76.5433L124.928 76.543C125.072 76.5184 125.22 76.4922 125.369 76.4658C125.572 76.4298 125.778 76.3935 125.979 76.3603L125.981 76.3601C126.18 76.3289 126.379 76.2966 126.58 76.2639C126.732 76.2393 126.885 76.2144 127.039 76.1899L127.039 76.1899C127.725 76.0827 128.421 75.975 129.122 75.8812L129.122 75.8811L129.13 75.8803C129.178 75.8756 129.213 75.872 129.248 75.8642L129.257 75.8624L129.266 75.8612C129.421 75.8399 129.576 75.8195 129.73 75.7991C129.884 75.7787 130.038 75.7584 130.192 75.7373L130.194 75.737C130.778 75.6625 131.362 75.596 131.952 75.5293C131.952 75.5293 131.953 75.5293 131.953 75.5292L131.976 75.7443M131.976 75.7443C132.203 75.717 132.426 75.696 132.657 75.6748M131.976 75.7443C131.386 75.811 130.803 75.8774 130.22 75.9517L131.976 75.7443ZM132.657 75.6748L132.637 75.4594L132.638 75.4594C132.638 75.4594 132.638 75.4594 132.638 75.4593M132.657 75.6748L132.639 75.4592C132.639 75.4593 132.638 75.4593 132.638 75.4593M132.657 75.6748C132.945 75.6456 133.232 75.6164 133.528 75.5916M132.638 75.4593C132.924 75.4303 133.213 75.401 133.51 75.3761M133.528 75.5916L133.508 75.3763C133.509 75.3762 133.509 75.3761 133.51 75.3761M133.528 75.5916C133.795 75.5646 134.069 75.5413 134.337 75.5185L134.401 75.5131C137.315 75.2652 140.258 75.1477 143.178 75.1872L133.51 75.3761M133.528 75.5916L133.512 75.3759C133.511 75.376 133.511 75.376 133.51 75.3761M148.911 75.2623C148.911 75.2623 148.91 75.2623 148.91 75.2623L148.888 75.4779L148.911 75.2623ZM148.911 75.2623C149.225 75.2902 149.538 75.3213 149.846 75.3541M148.911 75.2623L149.846 75.3541M149.846 75.3541C151.295 75.5052 152.731 75.6975 154.146 75.9471M154.146 75.9471C154.5 76.0068 154.845 76.0699 155.195 76.1392M154.146 75.9471C154.145 75.9471 154.145 75.947 154.145 75.947L154.105 76.1604L154.147 75.9473C154.146 75.9472 154.146 75.9472 154.146 75.9471ZM155.195 76.1392C155.195 76.1392 155.195 76.1393 155.195 76.1393L155.149 76.3515L155.194 76.1391C155.194 76.1391 155.194 76.1392 155.195 76.1392Z" fill="#2F0B41" stroke="black" stroke-width="0.448817"/>
<path d="M98.6366 85.4264C98.3107 85.6143 97.9664 85.6849 97.6427 85.6571L97.6889 85.7103L97.6893 85.7107L98.0386 86.1149C98.0386 86.115 98.0387 86.1151 98.0388 86.1152C99.7939 88.1314 102.66 88.7187 105.259 87.5947L105.259 87.5946C142.316 71.588 166.471 85.311 171.86 93.5195C174.109 96.9424 174.723 100.551 174.543 103.802C174.399 106.448 173.731 108.857 172.992 110.737L172.992 110.737C172.424 112.177 172.339 113.708 172.711 115.082C172.919 115.846 173.272 116.567 173.767 117.191L173.771 117.197L173.775 117.203C173.789 117.222 173.804 117.242 173.816 117.256L173.816 117.256L173.823 117.265C174.543 118.183 175.978 118.159 176.798 117.142C178.606 114.898 180.488 111.639 181.739 108.044C182.99 104.454 183.605 100.547 182.907 96.9901C178.379 84.4596 167.674 78.5848 155.57 76.2409C155.476 76.2234 155.382 76.2057 155.289 76.1881C155.035 76.1401 154.783 76.0925 154.526 76.0491L154.525 76.0489C153.113 75.8025 151.682 75.6069 150.234 75.4556L150.234 75.4556C149.926 75.4227 149.614 75.3917 149.301 75.3638L149.3 75.3637C148.827 75.3204 148.35 75.2834 147.874 75.2511L147.874 75.2512L147.87 75.2508C147.609 75.2278 147.347 75.2126 147.081 75.1972L147.079 75.1971C147.066 75.1964 147.041 75.1951 147.013 75.1902C146.968 75.1878 146.923 75.1853 146.878 75.1829C146.629 75.1694 146.379 75.156 146.128 75.1469L146.128 75.1469L146.123 75.1467C145.907 75.1347 145.689 75.1258 145.473 75.1185L145.47 75.1183C145.162 75.1045 144.854 75.0953 144.548 75.0907L144.548 75.0908L144.543 75.0906C144.222 75.0786 143.903 75.0714 143.584 75.072L143.581 75.0719C140.655 75.0324 137.706 75.1506 134.784 75.4L134.783 75.4001C134.492 75.4232 134.202 75.4509 133.91 75.4789C133.812 75.4883 133.714 75.4975 133.616 75.5067C133.421 75.5249 133.228 75.5431 133.036 75.5626L133.036 75.5627C132.922 75.574 132.809 75.5857 132.696 75.5974L132.694 75.5976L132.693 75.5978C132.58 75.6095 132.467 75.6212 132.353 75.6326C132.257 75.6438 132.16 75.6549 132.064 75.6661C131.572 75.7232 131.083 75.78 130.592 75.8412C130.288 75.88 129.983 75.922 129.676 75.9642C129.641 75.9723 129.608 75.9761 129.585 75.9785C129.553 75.9818 129.54 75.9827 129.524 75.9853L129.524 75.9853L129.519 75.986C128.823 76.0815 128.126 76.1848 127.437 76.2957L127.437 76.2957C127.286 76.3198 127.133 76.3446 126.98 76.3696C126.777 76.4027 126.574 76.4358 126.374 76.4671C126.29 76.4817 126.206 76.4962 126.122 76.5106C125.854 76.5569 125.589 76.6027 125.322 76.6505C124.622 76.7759 123.928 76.9089 123.241 77.042C122.613 77.1685 121.987 77.2947 121.372 77.4298L121.372 77.4299C119.427 77.8533 117.533 78.3144 115.713 78.8077L115.711 78.8082C115.557 78.8483 115.409 78.8897 115.258 78.9314C115.154 78.9604 115.049 78.9896 114.941 79.0188C113.762 79.3492 112.617 79.6879 111.512 80.0379C110.659 80.3097 109.826 80.5819 109.02 80.8672L109.017 80.8682C108.774 80.9507 108.536 81.0361 108.296 81.1224L108.295 81.1228C108.143 81.1763 107.989 81.2308 107.843 81.285C107.735 81.3265 107.627 81.3659 107.522 81.4043C107.47 81.4233 107.418 81.442 107.368 81.4607C107.167 81.5348 106.97 81.6078 106.779 81.6835L106.779 81.6836L106.774 81.6854C106.609 81.7467 106.441 81.8112 106.277 81.8746C106.196 81.906 106.115 81.9377 106.034 81.9698C105.953 82.0017 105.871 82.0339 105.788 82.0658C105.555 82.1573 105.328 82.2487 105.101 82.3406C105.011 82.3781 104.929 82.4112 104.849 82.4438C104.765 82.4783 104.682 82.5121 104.591 82.55L104.59 82.5503L104.572 82.5579C104.391 82.6323 104.209 82.7071 104.033 82.7846L104.03 82.7861C103.304 83.0907 102.612 83.4005 101.954 83.7109C101.862 83.7546 101.773 83.7963 101.686 83.8375C101.583 83.886 101.481 83.9338 101.377 83.9837C100.375 84.4676 99.4621 84.9516 98.6366 85.4264Z" fill="#500FA2" stroke="black" stroke-width="0.448817"/>
<path d="M47.7851 150.755C57.3807 152.192 70.0812 140.077 75.0378 122.126C79.9914 104.174 77.4224 88.6178 64.9515 85.2316C52.6591 81.8949 38.2048 95.2458 33.2512 113.198C28.2975 131.151 34.6048 148.779 47.788 150.756L47.7851 150.755Z" fill="#500FA2"/>
<path d="M42.9513 149.674C44.4341 150.41 46.0205 150.908 47.696 151.161C52.5105 151.884 58.2441 149.271 63.4196 143.992C68.7934 138.51 73.0549 130.776 75.4218 122.206C77.9761 112.954 78.4912 104.612 76.9186 98.0846C75.2221 91.0571 71.1283 86.4738 65.0846 84.8311C60.5265 83.5934 55.5073 84.5433 50.5644 87.5759C42.5361 92.5072 35.9185 102.052 32.8651 113.113C29.8871 123.906 30.8398 134.872 35.4163 142.453C37.4088 145.754 39.9667 148.195 42.9468 149.675L42.9513 149.674ZM67.6854 86.6987C76.8341 91.2428 79.5267 104.394 74.6587 122.038C69.5335 140.609 56.6707 151.67 47.8705 150.351C43.041 149.628 38.9688 146.732 36.1009 141.978C31.6327 134.581 30.7072 123.847 33.6286 113.273C36.5774 102.591 43.2072 93.0089 50.9283 88.2658C55.6724 85.3539 60.4764 84.4381 64.8237 85.6181C65.8366 85.894 66.7934 86.2556 67.6854 86.6987Z" fill="black"/>
<path d="M36.9015 94.644L37.821 95.5612C37.821 95.5612 38.7219 95.8299 48.5922 86.0825C58.5119 76.2894 69.9415 72.2444 73.8618 87.0766C77.6117 101.231 66.7569 122.093 59.7922 129.415C59.4597 129.764 59.1361 130.083 58.8214 130.371C53.7335 135.02 45.7635 141.16 41.9878 144.018C41.3986 144.462 41.0229 145.094 40.8903 145.761C40.883 145.788 40.8803 145.814 40.8759 145.843C40.7652 146.482 40.8774 147.146 41.2412 147.697C42.0032 148.852 43.5913 149.084 44.7773 148.189C48.6624 145.295 56.9483 138.934 62.7495 133.197C71.3012 124.162 78.1278 110.59 78.9581 94.6159C79.1178 91.577 80.5807 88.6561 82.997 86.7122C88.0564 82.6486 95.8477 77.1528 95.8477 77.1528L95.5648 71.8474C92.2668 73.8869 84.2865 80.8128 80.0267 82.8027C79.028 83.2727 77.9082 82.8678 77.4839 81.8928C73.0166 71.6376 62.8452 69.6976 53.2395 76.4895L37.3645 89.5224C35.7431 90.8521 35.5227 93.2605 36.8974 94.638L36.9015 94.644Z" fill="#FFCA10"/>
<path d="M41.9365 148.868C42.1928 148.996 42.4746 149.081 42.7719 149.124C43.5436 149.231 44.3326 149.015 44.9921 148.52C49.262 145.338 57.2857 139.153 63.0136 133.488C72.6487 123.305 78.603 109.141 79.3602 94.6098C79.5161 91.6466 80.926 88.8821 83.2321 87.031C88.2233 83.0222 95.9857 77.5419 96.0621 77.4863C96.1872 77.4004 96.2594 77.2492 96.2504 77.1005L95.9675 71.7944C95.9594 71.6578 95.8841 71.5385 95.769 71.4812C95.6538 71.424 95.5119 71.4314 95.3933 71.505C94.1118 72.2984 92.1988 73.768 89.9855 75.4703C86.4704 78.1703 82.4867 81.2299 79.9008 82.4389C79.095 82.8179 78.2011 82.4942 77.8561 81.7066C75.7024 76.7606 72.2246 73.5732 67.7951 72.4931C63.2127 71.3722 57.9756 72.6779 53.0407 76.165L37.1355 89.2171C36.2695 89.9248 35.7178 90.9603 35.6157 92.0595C35.5136 93.1588 35.8796 94.2102 36.6121 94.9447L37.53 95.8652C37.568 95.9035 37.6165 95.9355 37.6704 95.9505C38.5831 96.2524 44.2556 90.9062 48.8539 86.3668C55.43 79.8754 61.5604 76.8776 66.1157 77.9188C69.583 78.7152 72.0656 81.8405 73.4848 87.2166C77.1959 101.213 66.3672 121.955 59.5225 129.151C59.2132 129.477 58.8912 129.793 58.5732 130.087C53.3888 134.822 45.0937 141.191 41.7688 143.709C41.1122 144.205 40.6602 144.92 40.5031 145.723C40.4963 145.743 40.4895 145.79 40.4844 145.834C40.3538 146.58 40.5055 147.342 40.9103 147.96C41.1725 148.36 41.5273 148.672 41.939 148.877L41.9365 148.868ZM95.449 76.967C94.1877 77.8601 87.3361 82.7409 82.7775 86.4034C80.2734 88.4172 78.74 91.4166 78.5718 94.631C77.8246 108.956 71.96 122.916 62.4803 132.934C56.5899 138.757 47.9873 145.324 44.5621 147.874C44.0771 148.237 43.5003 148.394 42.9379 148.317C42.3697 148.238 41.8832 147.933 41.5702 147.458C41.2737 147.006 41.1637 146.449 41.2617 145.889L41.2717 145.836C41.3912 145.229 41.7203 144.706 42.2008 144.345C45.5363 141.821 53.8589 135.434 59.0697 130.669C59.4061 130.36 59.7391 130.031 60.0639 129.69C67.0282 122.37 78.0353 101.233 74.2472 86.9408C72.7502 81.2844 70.0935 77.9789 66.3433 77.1197C61.514 76.0125 55.117 79.096 48.3287 85.7976C40.6157 93.4155 38.4678 94.8345 37.9461 95.1014L37.184 94.3404C36.6063 93.7607 36.3205 92.9363 36.3981 92.0705C36.4768 91.2091 36.9132 90.393 37.5933 89.8385L53.4711 76.8039C58.1816 73.4742 63.1908 72.215 67.5502 73.2836C71.7522 74.3128 75.0659 77.3563 77.1254 82.0879C77.6345 83.2611 78.9735 83.7398 80.1701 83.177C82.8419 81.9289 86.8641 78.8378 90.4159 76.1092C92.237 74.7109 93.9694 73.3776 95.2084 72.5474L95.4445 76.9686L95.449 76.967Z" fill="black"/>
<path d="M33.948 143.801L34.6191 143.94C35.8218 144.145 37.068 144.032 38.336 143.622C44.8275 141.548 51.8093 131.877 56.1172 118.288C60.5179 104.4 59.2762 91.2737 54.0385 86.6268C53.2052 85.885 52.2686 85.3607 51.236 85.0809C43.7354 83.061 33.9049 94.8299 28.9597 110.977C23.9851 127.214 26.4474 141.781 33.9451 143.8L33.948 143.801Z" fill="#FFCA10"/>
<path d="M32.4846 143.697C32.9077 143.907 33.3519 144.078 33.813 144.202C33.8188 144.205 33.8246 144.208 33.8319 144.207L34.5016 144.349C35.76 144.566 37.0759 144.453 38.4191 144.018C45.14 141.869 52.2325 131.809 56.4921 118.389C60.8137 104.753 59.893 91.2622 54.3078 86.3058C53.422 85.5184 52.4316 84.9713 51.361 84.6804C49.2238 84.1047 46.8862 84.5596 44.4149 86.0354C38.2033 89.7433 32.1303 99.2651 28.5761 110.881C23.8891 126.179 25.6966 140.317 32.4833 143.692L32.4846 143.697ZM34.0607 143.413C30.5535 142.46 28.1028 138.634 27.1582 132.633C26.1892 126.465 26.9612 118.809 29.33 111.077C32.7731 99.8381 38.8344 90.2832 44.7741 86.7402C47.0496 85.3814 49.1824 84.9571 51.1084 85.4785C52.0715 85.7392 52.9656 86.2346 53.7711 86.947C59.0568 91.6375 59.9095 105.071 55.748 118.202C51.5752 131.354 44.7075 141.186 38.2457 143.249C37.0208 143.646 35.8337 143.749 34.7082 143.556L34.0604 143.421L34.0607 143.413Z" fill="black"/>
<path d="M51.5669 85.4442C52.5974 85.7236 53.5338 86.2441 54.3667 86.9893C59.5956 91.6264 60.8322 104.732 56.4435 118.602C52.1417 132.17 45.1769 141.828 38.6968 143.903C37.433 144.309 36.1832 144.426 34.9844 144.219L41.2898 145.559C41.2941 145.53 41.2968 145.504 41.3041 145.477C41.4364 144.811 41.8095 144.183 42.3988 143.737C46.1654 140.884 54.116 134.755 59.1914 130.114C59.5025 129.825 59.8282 129.508 60.1598 129.16C61.4485 126.334 62.6175 123.22 63.6241 119.876C68.475 103.726 65.7449 88.7334 58.2207 86.845L57.7578 86.7469L51.5697 85.4456L51.5669 85.4442Z" fill="#FFCA10"/>
<path d="M34.7867 144.592C34.8125 144.605 34.8429 144.616 34.872 144.623L41.1792 145.963C41.2899 145.987 41.406 145.959 41.5022 145.886C41.5984 145.814 41.6625 145.705 41.677 145.588L41.6817 145.552C41.8009 144.945 42.1293 144.424 42.6088 144.063C45.9366 141.543 54.24 135.167 59.4389 130.41C59.7745 130.102 60.1068 129.773 60.4308 129.432C60.4649 129.395 60.4934 129.354 60.5148 129.306C61.8352 126.414 63.0073 123.273 64.0037 119.962C68.8651 103.778 66.2734 88.4271 58.3428 86.4384L57.8666 86.3377L51.6721 85.0377C51.4668 84.994 51.2527 85.1326 51.1879 85.3456C51.1231 85.5585 51.2332 85.7767 51.4336 85.8297C52.3976 86.0915 53.2916 86.5831 54.091 87.2961C59.3681 91.9769 60.2149 105.393 56.0635 118.502C51.8991 131.636 45.0435 141.457 38.5973 143.519C37.3747 143.914 36.1871 144.016 35.0683 143.821C34.8598 143.784 34.6481 143.931 34.592 144.149C34.5446 144.335 34.6258 144.512 34.7764 144.591L34.7867 144.592ZM41.0044 145.082L38.1447 144.476C38.3561 144.426 38.5665 144.363 38.7802 144.295C45.4879 142.149 52.5663 132.104 56.8173 118.702C61.1301 105.086 60.2126 91.6109 54.6395 86.6661C54.5576 86.5942 54.4729 86.5209 54.3895 86.4522L58.1157 87.2361C65.5001 89.0853 67.9072 104.298 63.2562 119.785C62.2807 123.028 61.1337 126.108 59.8425 128.945C59.5511 129.251 59.2485 129.544 58.9467 129.822C53.7743 134.55 45.4982 140.908 42.181 143.422C41.622 143.844 41.2129 144.423 41.0072 145.084L41.0044 145.082Z" fill="black"/>
<path d="M121.504 141.849C117.095 145.118 114.212 149.317 113.277 153.175C117.199 155.62 123.989 154.707 129.829 150.123C134.779 146.234 137.186 142.628 137.712 139.377C133.93 136.824 127.582 137.347 121.504 141.849Z" fill="#2F0B41" stroke="black" stroke-width="0.448817"/>
<path d="M113.648 154.116C118.047 156.3 124.675 154.938 130.19 150.61C135.062 146.787 137.805 142.982 138.344 139.303C138.367 139.154 138.308 139.01 138.193 138.929C133.955 135.966 127.108 136.937 121.153 141.352C116.722 144.636 113.615 148.959 112.631 153.211C112.592 153.375 112.655 153.54 112.787 153.625C113.062 153.805 113.351 153.972 113.647 154.119L113.648 154.116ZM137.519 139.486C136.927 142.856 134.312 146.383 129.74 149.971C124.312 154.232 117.535 155.5 113.472 153.059C114.477 149.101 117.419 145.085 121.583 142.001C127.167 137.861 133.535 136.868 137.519 139.486Z" fill="black"/>
<path d="M110.955 150.618L110.955 150.618C111.411 151.309 111.98 151.895 112.643 152.369C113.345 149.63 114.985 146.752 117.408 144.153C115.905 143.036 113.951 142.441 111.743 142.43C110.939 142.426 110.17 143.044 109.986 143.889C109.437 146.408 109.733 148.767 110.955 150.618Z" fill="#2F0B41" stroke="black" stroke-width="0.448817"/>
<path d="M110.617 150.865C111.151 151.673 111.839 152.356 112.66 152.895L112.66 152.895L112.66 152.895L112.66 152.895L112.66 152.895L112.66 152.895L112.66 152.895L112.66 152.895L112.66 152.895L112.66 152.895L112.661 152.895L112.661 152.895L112.661 152.895L112.661 152.895L112.661 152.896L112.661 152.896L112.661 152.896L112.661 152.896L112.661 152.896L112.661 152.896L112.661 152.896L112.661 152.896L112.661 152.896L112.662 152.896L112.662 152.896L112.662 152.896L112.662 152.896L112.662 152.896L112.662 152.896L112.662 152.896L112.662 152.896L112.662 152.896L112.662 152.896L112.662 152.896L112.662 152.896L112.662 152.896L112.663 152.896L112.663 152.896L112.663 152.896L112.663 152.896L112.663 152.897L112.663 152.897L112.663 152.897L112.663 152.897L112.663 152.897L112.663 152.897L112.663 152.897L112.663 152.897L112.663 152.897L112.663 152.897L112.664 152.897L112.664 152.897L112.664 152.897L112.664 152.897L112.664 152.897L112.664 152.897L112.664 152.897L112.664 152.897L112.664 152.897L112.664 152.897L112.664 152.897L112.664 152.897L112.664 152.897L112.665 152.897L112.665 152.897L112.665 152.897L112.665 152.897L112.665 152.898L112.665 152.898L112.665 152.898L112.665 152.898L112.665 152.898L112.665 152.898L112.665 152.898L112.665 152.898L112.665 152.898L112.666 152.898L112.666 152.898L112.666 152.898L112.666 152.898L112.666 152.898L112.666 152.898L112.666 152.898L112.666 152.898L112.666 152.898L112.666 152.898L112.666 152.898L112.666 152.898L112.666 152.898L112.667 152.898L112.667 152.898L112.667 152.898L112.667 152.898L112.667 152.899L112.667 152.899L112.667 152.899L112.667 152.899L112.667 152.899L112.667 152.899L112.667 152.899L112.667 152.899L112.667 152.899L112.668 152.899L112.668 152.899L112.668 152.899L112.668 152.899L112.668 152.899L112.668 152.899L112.668 152.899L112.668 152.899L112.668 152.899L112.668 152.899L112.668 152.899L112.668 152.899L112.668 152.899L112.669 152.899L112.669 152.899L112.669 152.899L112.669 152.899L112.669 152.9L112.669 152.9L112.669 152.9L112.669 152.9L112.669 152.9L112.669 152.9L112.669 152.9L112.669 152.9L112.669 152.9L112.67 152.9L112.67 152.9L112.67 152.9L112.67 152.9L112.67 152.9L112.67 152.9L112.67 152.9L112.67 152.9L112.67 152.9L112.67 152.9L112.67 152.9L112.67 152.9L112.67 152.9L112.671 152.9L112.671 152.9L112.671 152.9L112.671 152.9L112.671 152.9L112.671 152.901L112.671 152.901L112.671 152.901L112.671 152.901L112.671 152.901L112.671 152.901L112.671 152.901L112.671 152.901L112.672 152.901L112.672 152.901L112.672 152.901L112.672 152.901L112.672 152.901L112.672 152.901L112.672 152.901L112.672 152.901L112.672 152.901L112.672 152.901L112.672 152.901L112.672 152.901L112.672 152.901L112.673 152.901L112.673 152.901L112.673 152.901L112.673 152.901L112.673 152.901L112.673 152.902L112.673 152.902L112.673 152.902L112.673 152.902L112.673 152.902L112.673 152.902L112.673 152.902L112.673 152.902L112.673 152.902L112.674 152.902L112.674 152.902L112.674 152.902L112.674 152.902L112.674 152.902L112.674 152.902L112.674 152.902L112.674 152.902L112.674 152.902L112.674 152.902L112.674 152.902L112.674 152.902L112.674 152.902L112.675 152.902L112.675 152.902L112.675 152.902L112.675 152.902L112.675 152.902L112.675 152.903L112.675 152.903L112.675 152.903L112.675 152.903L112.675 152.903L112.675 152.903L112.675 152.903L112.675 152.903L112.676 152.903L112.676 152.903L112.676 152.903L112.676 152.903L112.676 152.903L112.676 152.903L112.676 152.903L112.676 152.903L112.676 152.903L112.676 152.903L112.676 152.903L112.676 152.903L112.676 152.903L112.677 152.903L112.677 152.903L112.677 152.903L112.677 152.903L112.677 152.903L112.677 152.903L112.677 152.904L112.677 152.904L112.677 152.904L112.677 152.904L112.677 152.904L112.677 152.904L112.677 152.904L112.677 152.904L112.678 152.904L112.678 152.904L112.678 152.904L112.678 152.904L112.678 152.904L112.678 152.904L112.678 152.904L112.678 152.904L112.678 152.904L112.678 152.904L112.678 152.904L112.678 152.904L112.678 152.904L112.679 152.904L112.679 152.904L112.679 152.904L112.679 152.904L112.679 152.904L112.679 152.904L112.679 152.905L112.679 152.905L112.679 152.905L112.679 152.905L112.679 152.905L112.679 152.905L112.679 152.905L112.679 152.905L112.68 152.905L112.68 152.905L112.68 152.905L112.68 152.905L112.68 152.905L112.68 152.905L112.68 152.905L112.68 152.905L112.68 152.905L112.68 152.905L112.68 152.905L112.68 152.905L112.68 152.905L112.68 152.905L112.681 152.905L112.681 152.905L112.681 152.905L112.681 152.905L112.681 152.905L112.681 152.905L112.681 152.906L112.681 152.906L112.681 152.906L112.681 152.906L112.681 152.906L112.681 152.906L112.681 152.906L112.681 152.906L112.682 152.906L112.682 152.906L112.682 152.906L112.682 152.906L112.682 152.906L112.682 152.906L112.682 152.906L112.682 152.906L112.682 152.906L112.682 152.906L112.682 152.906L112.682 152.906L112.682 152.906L112.682 152.906L112.683 152.906L112.683 152.906L112.683 152.906L112.683 152.906L112.683 152.906L112.683 152.906L112.683 152.907L112.683 152.907L112.683 152.907L112.683 152.907L112.683 152.907L112.683 152.907L112.683 152.907L112.683 152.907L112.684 152.907L112.684 152.907L112.684 152.907L112.684 152.907L112.684 152.907L112.684 152.907L112.684 152.907L112.684 152.907L112.684 152.907L112.684 152.907L112.684 152.907L112.684 152.907L112.684 152.907L112.684 152.907L112.685 152.907L112.685 152.907L112.685 152.907L112.685 152.907L112.685 152.907L112.685 152.907L112.685 152.907L112.685 152.908L112.685 152.908L112.685 152.908L112.685 152.908L112.685 152.908L112.685 152.908L112.685 152.908L112.685 152.908L112.686 152.908L112.686 152.908L112.686 152.908L112.686 152.908L112.686 152.908L112.686 152.908L112.717 152.923C112.75 152.931 112.787 152.929 112.827 152.91L112.827 152.91L112.829 152.91C112.883 152.885 112.933 152.829 112.954 152.75C113.615 149.891 115.355 146.878 117.847 144.255L117.847 144.255L117.848 144.255C117.889 144.211 117.913 144.152 117.911 144.09L117.911 144.09L117.911 144.088C117.911 144.036 117.888 143.992 117.85 143.961C116.259 142.705 114.16 142.027 111.773 142.015L111.773 142.015C110.767 142.009 109.82 142.782 109.592 143.826C109.001 146.544 109.363 148.972 110.617 150.864L110.617 150.865ZM117.33 144.301L117.317 144.326L117.298 144.346C115.084 146.771 113.498 149.491 112.767 152.108L112.677 152.428L112.415 152.223C111.828 151.765 111.326 151.224 110.92 150.609C109.711 148.78 109.383 146.44 109.941 143.858L109.941 143.858C110.121 143.031 110.875 142.398 111.716 142.402L111.716 142.402C113.85 142.414 115.763 142.97 117.266 144.024L117.42 144.131L117.332 144.298L117.33 144.301Z" fill="#2F0B41" stroke="black" stroke-width="0.448817"/>
</svg>
