<svg width="59" height="72" viewBox="0 0 59 72" fill="none" xmlns="http://www.w3.org/2000/svg">
<path d="M39.3789 6.61068C40.4086 7.09482 41.2908 7.83813 42.0123 8.79578C46.2699 14.4211 45.2159 27.5595 38.9578 40.8696C32.6997 54.1798 23.2577 63.3647 16.2097 63.6744C15.0119 63.7296 13.8767 63.5244 12.847 63.0403L18.8431 65.8595C25.9389 69.1958 37.6279 59.2701 44.9538 43.6888C52.2798 28.1076 52.4708 12.7662 45.375 9.42988L39.3789 6.61068Z" fill="#FFCE22" stroke="black" stroke-width="0.553536"/>
<path d="M36.1617 46.1971C30.1065 56.5745 22.2724 63.408 16.2097 63.6744C15.0119 63.7296 13.8767 63.5244 12.847 63.0403L18.8431 65.8595C25.0914 68.7973 34.9014 61.4517 42.1577 49.0163L36.1617 46.1971Z" fill="#500FA3"/>
<path d="M39.3789 6.61068C40.4086 7.09482 41.2908 7.83812 42.0123 8.79578C46.2699 14.4211 45.2159 27.5595 38.9578 40.8696C32.6997 54.1798 23.2577 63.3647 16.2097 63.6744C15.0119 63.7296 13.8767 63.5244 12.847 63.0403L18.8431 65.8595C25.9389 69.1958 37.6279 59.2701 44.9538 43.6888C52.2798 28.1076 52.4708 12.7662 45.375 9.42988L39.3789 6.61068Z" stroke="black" stroke-width="0.553536"/>
<path d="M13.2641 28.7892C5.93815 44.3704 5.75788 59.7072 12.8467 63.0402C13.8764 63.5243 15.0115 63.7295 16.2093 63.6743C23.2574 63.3646 32.6993 54.1797 38.9574 40.8696C45.2155 27.5594 46.2695 14.421 42.012 8.7957C41.2904 7.83805 40.4083 7.09474 39.3786 6.6106C32.2898 3.27762 20.59 13.2079 13.2641 28.7892Z" fill="#131313" stroke="black" stroke-width="0.553536"/>
<path d="M13.2644 28.7898L20.6936 62.4562C26.9165 59.5156 33.9546 51.5112 38.9577 40.8702C45.2158 27.5601 46.2698 14.4217 42.0123 8.79635C41.2907 7.8387 40.4086 7.09539 39.3789 6.61125C32.2901 3.27827 20.5903 13.2086 13.2644 28.7898Z" fill="#FFCA10"/>
<path d="M13.2641 28.7892C5.93815 44.3704 5.75788 59.7072 12.8467 63.0402C13.8764 63.5243 15.0115 63.7295 16.2093 63.6743C23.2574 63.3646 32.6993 54.1797 38.9574 40.8696C45.2155 27.5594 46.2695 14.421 42.012 8.7957C41.2904 7.83805 40.4083 7.09474 39.3786 6.6106C32.2898 3.27762 20.59 13.2079 13.2641 28.7892Z" stroke="black" stroke-width="0.553536"/>
</svg>
