<svg width="280" height="158" viewBox="0 0 280 158" fill="none" xmlns="http://www.w3.org/2000/svg">
<path d="M67.5436 79.2733L16.263 138.406C15.1113 139.734 16.4397 141.394 18.1014 140.704L213.858 59.3703C214.187 59.2336 214.475 59.0136 214.685 58.7391L256.962 3.34758C257.983 2.00988 256.652 0.47484 255.049 1.14096L68.2956 78.7338C68.0048 78.8546 67.7452 79.0409 67.5436 79.2733Z" fill="#FFCA10" stroke="black" stroke-width="1.2"/>
<path d="M76.521 78.7531L29.5985 129.004C28.5447 130.133 29.6737 131.463 31.1611 130.845L206.372 58.0476C206.667 57.9253 206.927 57.7355 207.12 57.503L245.984 10.6C246.923 9.46726 245.788 8.24099 244.353 8.83719L77.2002 78.2863C76.9399 78.3944 76.7054 78.5556 76.521 78.7531Z" fill="#FFCA10" stroke="black" stroke-width="1.2"/>
<path d="M214.431 58.0817L257.051 3.58757C257.439 3.09217 257.494 2.57272 257.328 2.15311L264.208 16.9938C264.36 17.408 264.298 17.9144 263.92 18.3981L223.756 72.8943C223.545 73.1643 223.255 73.3819 222.926 73.5186L26.1585 154.699C25.1504 155.118 24.2724 154.691 23.9965 153.998L15.855 139.643C15.7839 139.55 15.7257 139.447 15.6824 139.339L15.855 139.643C16.2372 140.145 16.9946 140.393 17.8444 140.04L213.601 58.706C213.93 58.5694 214.219 58.3518 214.431 58.0817Z" fill="#FFDE68" stroke="black" stroke-width="1.2"/>
<path d="M15.8575 139.642C15.7863 139.548 15.7281 139.446 15.6848 139.337L15.8575 139.642C16.2397 140.143 16.997 140.391 17.8468 140.038L61.1975 122.027L71.0156 136.192L26.161 154.698C25.1529 155.117 24.2748 154.69 23.999 153.997L15.8575 139.642Z" fill="#A23B0F"/>
<path d="M17.8468 140.038C16.8387 140.457 15.9607 140.03 15.6848 139.337L23.999 153.997C24.2748 154.69 25.1529 155.117 26.161 154.698L71.0156 136.192L61.1975 122.027L17.8468 140.038Z" stroke="black" stroke-width="0.532072"/>
<path d="M166.898 54.2561C167.74 55.1654 167.865 56.5364 167.084 58.3781C166.311 60.2013 164.697 62.3614 162.345 64.7209C157.645 69.4342 150.091 74.8504 140.792 79.837C131.492 84.8235 122.247 88.4149 114.832 90.1976C111.12 91.09 107.903 91.5201 105.386 91.4614C102.843 91.402 101.187 90.8517 100.345 89.9424C99.5019 89.0331 99.377 87.6621 100.158 85.8204C100.931 83.9972 102.545 81.8371 104.898 79.4777C109.597 74.7643 117.151 69.3481 126.45 64.3616C135.75 59.375 144.995 55.7836 152.41 54.0009C156.122 53.1085 159.339 52.6784 161.857 52.7372C164.399 52.7966 166.055 53.3468 166.898 54.2561Z" fill="#FFDE68" stroke="black" stroke-width="1.2"/>
<path d="M60.8725 122.22L108.731 62.4195C108.978 62.1114 109.293 61.8678 109.65 61.7095L133.301 51.2145L87.432 111.427L96.6488 125.692L70.6815 136.308L60.8725 122.22Z" fill="#772400"/>
<path d="M60.8725 122.22L108.731 62.4195C108.978 62.1114 109.293 61.8678 109.65 61.7095L133.301 51.2145L87.432 111.427M60.8725 122.22L70.6815 136.308L96.6488 125.692L87.432 111.427M60.8725 122.22L87.432 111.427" stroke="black" stroke-width="1.2"/>
</svg>
