<svg width="299" height="314" viewBox="0 0 299 314" fill="none" xmlns="http://www.w3.org/2000/svg">
<path d="M107.994 101.759L24.3265 103.382C22.4474 103.418 21.6522 105.589 23.226 106.385L208.622 200.241C208.934 200.399 209.3 200.468 209.672 200.438L284.813 194.498C286.627 194.355 287.304 192.27 285.786 191.501L108.917 101.962C108.642 101.822 108.323 101.752 107.994 101.759Z" fill="#FFCA10" stroke="black"/>
<path d="M113.52 108.288L40.541 107.101C38.9019 107.075 38.3018 108.863 39.7104 109.576L205.648 193.581C205.927 193.722 206.25 193.791 206.574 193.778L271.921 191.1C273.499 191.035 274 189.315 272.641 188.627L114.335 108.485C114.088 108.361 113.807 108.292 113.52 108.288Z" fill="#FFCA10" stroke="black"/>
<path d="M210.142 199.788L284.643 194.733C285.32 194.687 285.833 194.37 286.129 193.952L276.221 209.514C275.922 209.918 275.417 210.221 274.756 210.266L201.633 217.207C201.263 217.232 200.899 217.161 200.588 217.004L14.7656 122.266C13.8108 121.783 13.7142 120.813 14.2022 120.121L22.9517 103.927C22.9984 103.808 23.0606 103.692 23.1373 103.583L22.9517 103.927C22.7008 104.568 22.8959 105.321 23.7007 105.728L209.097 199.584C209.408 199.742 209.773 199.813 210.142 199.788Z" fill="#FFDE68" stroke="black"/>
<path d="M22.9526 103.927C22.9993 103.808 23.0616 103.692 23.1382 103.584L22.9526 103.927C22.7017 104.568 22.8968 105.321 23.7016 105.728L64.7579 126.513L57.1259 143.862L14.7665 122.266C13.8117 121.783 13.7151 120.813 14.2031 120.121L22.9526 103.927Z" fill="#A23B0F"/>
<path d="M23.7016 105.728C22.7469 105.245 22.6502 104.275 23.1382 103.584L14.2031 120.121C13.7151 120.813 13.8117 121.783 14.7665 122.266L57.1259 143.862L64.7579 126.513L23.7016 105.728Z" stroke="black" stroke-width="0.443393"/>
<path d="M187.093 160.697C186.697 162.058 185.434 163.122 183.284 163.799C181.145 164.473 178.224 164.732 174.711 164.561C167.69 164.221 158.417 162.175 148.564 158.493C138.711 154.811 130.182 150.203 124.357 145.743C121.442 143.511 119.229 141.335 117.861 139.35C116.487 137.355 116.028 135.648 116.423 134.287C116.818 132.925 118.082 131.862 120.232 131.184C122.371 130.51 125.292 130.252 128.805 130.422C135.825 130.763 145.099 132.808 154.952 136.49C164.804 140.172 173.334 144.78 179.159 149.24C182.073 151.472 184.287 153.649 185.654 155.633C187.029 157.628 187.488 159.335 187.093 160.697Z" fill="#FFDE68" stroke="black"/>
<path d="M64.3957 126.396L146.809 121.681C147.201 121.659 147.584 121.73 147.917 121.888L170.956 132.773L89.325 139.298L81.2624 156.255L56.8306 143.685L64.3957 126.396Z" fill="#772400"/>
<path d="M64.3957 126.396L146.809 121.681C147.201 121.659 147.584 121.73 147.917 121.888L170.956 132.773L89.325 139.298M64.3957 126.396L56.8306 143.685L81.2624 156.255L89.325 139.298M64.3957 126.396L89.325 139.298" stroke="black"/>
</svg>
