<svg width="83" height="52" viewBox="0 0 83 52" fill="none" xmlns="http://www.w3.org/2000/svg">
<g id="Group 14529">
<path id="Vector" d="M80.5273 27.2705C80.3431 28.5993 79.7949 29.8499 78.9308 30.9923C73.8623 37.7244 57.8448 41.0229 39.6455 38.5006C21.4462 35.9783 6.94029 28.4496 3.89371 20.5928C3.37285 19.2585 3.18536 17.9059 3.36951 16.5772L2.29718 24.3146C1.02818 33.471 17.2685 43.2853 38.5732 46.238C59.8779 49.1906 78.186 44.1644 79.455 35.0079L80.5273 27.2705Z" fill="#FFCE22" stroke="black"/>
<path id="Vector_2" d="M32.2504 37.162C17.6142 33.8669 6.51437 27.3512 3.89371 20.5928C3.37285 19.2585 3.18536 17.9059 3.36951 16.5772L2.29718 24.3146C1.17973 32.3775 13.6392 40.9506 31.178 44.8993L32.2504 37.162Z" fill="#A3290F"/>
<path id="Vector_3" d="M80.5273 27.2705C80.3431 28.5993 79.7949 29.8499 78.9308 30.9923C73.8623 37.7244 57.8448 41.0229 39.6455 38.5006C21.4462 35.9783 6.94029 28.4496 3.89371 20.5928C3.37285 19.2585 3.18536 17.9059 3.36951 16.5772L2.29718 24.3146C1.02818 33.471 17.2685 43.2853 38.5732 46.238C59.8779 49.1906 78.186 44.1644 79.455 35.0079L80.5273 27.2705Z" stroke="black"/>
<path id="Vector_4" d="M44.2407 5.34565C22.936 2.39302 4.63744 7.42976 3.36969 16.5772C3.18554 17.9059 3.37304 19.2585 3.8939 20.5928C6.94047 28.4496 21.4464 35.9783 39.6457 38.5006C57.845 41.0228 73.8625 37.7244 78.931 30.9923C79.7951 29.8499 80.3433 28.5993 80.5275 27.2705C81.7952 18.1231 65.5453 8.29827 44.2407 5.34565Z" fill="#FFCA10" stroke="black"/>
</g>
</svg>
