<svg width="89" height="72" viewBox="0 0 89 72" fill="none" xmlns="http://www.w3.org/2000/svg">
<g id="Group 14537">
<path id="Vector" d="M81.2461 49.037C80.6685 50.2477 79.7675 51.2738 78.5982 52.1011C71.7304 56.9841 55.4657 55.2814 38.8827 47.3706C22.2996 39.4599 10.7517 27.8949 10.2253 19.4846C10.1325 18.0552 10.3631 16.7093 10.9407 15.4985L7.57745 22.5487C3.59737 30.892 16.1068 45.1602 35.5194 54.4208C54.932 63.6814 73.9028 64.4304 77.8828 56.0872L81.2461 49.037Z" fill="#FFCE22" stroke="black"/>
<path id="Vector_2" d="M32.2392 43.8571C19.2862 36.2879 10.6781 26.7191 10.2253 19.4846C10.1325 18.0552 10.3631 16.7093 10.9407 15.4985L7.57745 22.5487C4.0727 29.8956 13.3541 41.8367 28.876 50.9073L32.2392 43.8571Z" fill="#A3290F"/>
<path id="Vector_3" d="M81.2461 49.037C80.6685 50.2477 79.7675 51.2738 78.5982 52.1011C71.7304 56.9841 55.4657 55.2814 38.8827 47.3706C22.2996 39.4599 10.7517 27.8949 10.2253 19.4846C10.1325 18.0552 10.3631 16.7093 10.9407 15.4985L7.57745 22.5487C3.59737 30.892 16.1068 45.1602 35.5194 54.4208C54.932 63.6814 73.9028 64.4304 77.8828 56.0872L81.2461 49.037Z" stroke="black"/>
<path id="Vector_4" d="M53.2944 17.1602C33.8818 7.8996 14.917 7.16348 10.9408 15.4985C10.3633 16.7093 10.1327 18.0552 10.2254 19.4845C10.7519 27.8949 22.2998 39.4599 38.8828 47.3706C55.4658 55.2814 71.7305 56.9841 78.5984 52.1011C79.7677 51.2738 80.6686 50.2477 81.2462 49.037C85.2223 40.7019 72.707 26.4207 53.2944 17.1602Z" fill="#FFCA10" stroke="black"/>
</g>
</svg>
