<svg width="98" height="88" viewBox="0 0 98 88" fill="none" xmlns="http://www.w3.org/2000/svg">
<g id="Group 14521">
<path id="Vector" d="M86.1297 63.973C85.2535 65.2521 84.0611 66.2761 82.6154 67.0373C74.1193 71.5341 56.6794 67.2454 40.1457 55.92C23.612 44.5946 13.3222 29.8887 14.446 20.3419C14.6334 18.7189 15.1575 17.237 16.0336 15.9579L10.9317 23.4061C4.89398 32.2204 15.689 50.1104 35.0438 63.3682C54.3986 76.6261 74.99 80.2355 81.0277 71.4212L86.1297 63.973Z" fill="#FFCE22" stroke="black"/>
<path id="Vector_2" d="M33.5916 50.9952C20.958 40.5836 13.4793 28.554 14.446 20.3419C14.6334 18.7189 15.1575 17.237 16.0336 15.9579L10.9317 23.4061C5.61504 31.1677 13.3506 45.9667 28.4897 58.4434L33.5916 50.9952Z" fill="#A3290F"/>
<path id="Vector_3" d="M86.1297 63.973C85.2535 65.2521 84.0611 66.2761 82.6154 67.0373C74.1193 71.5341 56.6794 67.2454 40.1457 55.92C23.612 44.5946 13.3222 29.8887 14.446 20.3419C14.6334 18.7189 15.1575 17.237 16.0336 15.9579L10.9317 23.4061C4.89398 32.2204 15.689 50.1104 35.0438 63.3682C54.3986 76.6261 74.99 80.2355 81.0277 71.4212L86.1297 63.973Z" stroke="black"/>
<path id="Vector_4" d="M62.008 24.0039C42.6532 10.746 22.0655 7.15205 16.0338 15.9576C15.1577 17.2367 14.6336 18.7186 14.4461 20.3416C13.3224 29.8884 23.6122 44.5944 40.1459 55.9198C56.6795 67.2452 74.1195 71.5339 82.6156 67.037C84.0612 66.2759 85.2537 65.2518 86.1299 63.9728C92.1616 55.1672 81.3628 37.2618 62.008 24.0039Z" fill="#FFCA10" stroke="black"/>
<path id="Vector_5" d="M62.008 24.0039C42.6532 10.746 22.0655 7.15205 16.0338 15.9576C15.1577 17.2367 14.6336 18.7186 14.4461 20.3416C13.3224 29.8884 23.6122 44.5944 40.1459 55.9198C56.6795 67.2452 74.1195 71.5339 82.6156 67.037C84.0612 66.2759 85.2537 65.2518 86.1299 63.9728C92.1616 55.1672 81.3628 37.2618 62.008 24.0039Z" stroke="black"/>
</g>
</svg>
