<svg width="87" height="62" viewBox="0 0 87 62" fill="none" xmlns="http://www.w3.org/2000/svg">
<g id="Group 14530">
<path id="Vector" d="M79.4616 16.0636C79.8381 17.3511 79.8504 18.7166 79.5303 20.1127C77.6653 28.3305 64.4057 37.9025 46.7708 43.0589C29.1359 48.2152 12.8188 47.2913 6.82042 41.3727C5.79856 40.3689 5.0733 39.2119 4.69684 37.9244L6.88904 45.4218C9.48331 54.2943 28.3191 56.5924 48.963 50.5563C69.607 44.5201 84.2481 32.4335 81.6538 23.561L79.4616 16.0636Z" fill="#FFCE22" stroke="black"/>
<path id="Vector_2" d="M39.4765 44.8679C24.7753 47.8593 11.9802 46.4639 6.82042 41.3727C5.79856 40.3689 5.0733 39.2119 4.69684 37.9244L6.88904 45.4218C9.17348 53.2347 24.0518 55.9497 41.6687 52.3653L39.4765 44.8679Z" fill="#A3290F"/>
<path id="Vector_3" d="M79.4616 16.0636C79.8381 17.3511 79.8504 18.7166 79.5303 20.1127C77.6653 28.3305 64.4057 37.9025 46.7708 43.0589C29.1359 48.2152 12.8188 47.2913 6.82042 41.3727C5.79856 40.3689 5.0733 39.2119 4.69684 37.9244L6.88904 45.4218C9.48331 54.2943 28.3191 56.5924 48.963 50.5563C69.607 44.5201 84.2481 32.4335 81.6538 23.561L79.4616 16.0636Z" stroke="black"/>
<path id="Vector_4" d="M37.3773 10.9321C16.7334 16.9683 2.10531 29.0606 4.69702 37.9243C5.07348 39.2118 5.79874 40.3688 6.8206 41.3726C12.819 47.2912 29.1361 48.2151 46.771 43.0588C64.4059 37.9024 77.6655 28.3304 79.5304 20.1126C79.8506 18.7165 79.8383 17.351 79.4618 16.0635C76.8701 7.19974 58.0213 4.89592 37.3773 10.9321Z" fill="#FFCA10" stroke="black"/>
</g>
</svg>
