<svg width="113" height="102" viewBox="0 0 113 102" fill="none" xmlns="http://www.w3.org/2000/svg">
<g id="Group 14521">
<path id="Vector" d="M99.9497 74.1699C98.9383 75.6464 97.5616 76.8286 95.8927 77.7073C86.0848 82.8985 65.9518 77.9476 46.8651 64.8734C27.7784 51.7991 15.8997 34.8224 17.197 23.8014C17.4134 21.9278 18.0183 20.2171 19.0298 18.7405L13.14 27.3388C6.17002 37.5141 18.6319 58.1666 40.9754 73.4717C63.3188 88.7767 87.0899 92.9435 94.0599 82.7682L99.9497 74.1699Z" fill="#FFCE22" stroke="black" stroke-width="1.2"/>
<path id="Vector_2" d="M39.299 59.1881C24.7146 47.1688 16.0811 33.2816 17.197 23.8014C17.4134 21.9278 18.0183 20.2171 19.0298 18.7405L13.14 27.3388C7.00242 36.2989 15.9325 53.3831 33.4092 67.7863L39.299 59.1881Z" fill="#A3290F"/>
<path id="Vector_3" d="M99.9497 74.1699C98.9383 75.6464 97.5616 76.8286 95.8927 77.7073C86.0848 82.8985 65.9518 77.9476 46.8651 64.8734C27.7784 51.7991 15.8997 34.8224 17.197 23.8014C17.4134 21.9278 18.0183 20.2171 19.0298 18.7405L13.14 27.3388C6.17002 37.5141 18.6319 58.1666 40.9754 73.4717C63.3188 88.7767 87.0899 92.9435 94.0599 82.7682L99.9497 74.1699Z" stroke="black" stroke-width="1.2"/>
<path id="Vector_4" d="M72.1015 28.0292C49.758 12.7241 25.9914 8.57514 19.0283 18.7404C18.0168 20.217 17.4118 21.9277 17.1955 23.8013C15.8982 34.8223 27.7769 51.7991 46.8636 64.8733C65.9503 77.9475 86.0833 82.8985 95.8912 77.7072C97.5601 76.8286 98.9367 75.6464 99.9482 74.1698C106.911 64.0045 94.445 43.3342 72.1015 28.0292Z" fill="#FFCA10" stroke="black" stroke-width="1.2"/>
<path id="Vector_5" d="M72.1015 28.0292C49.758 12.7241 25.9914 8.57514 19.0283 18.7404C18.0168 20.217 17.4118 21.9277 17.1955 23.8013C15.8982 34.8223 27.7769 51.7991 46.8636 64.8733C65.9503 77.9475 86.0833 82.8985 95.8912 77.7072C97.5601 76.8286 98.9367 75.6464 99.9482 74.1698C106.911 64.0045 94.445 43.3342 72.1015 28.0292Z" stroke="black" stroke-width="1.2"/>
</g>
</svg>
