<svg width="242" height="137" viewBox="0 0 242 137" fill="none" xmlns="http://www.w3.org/2000/svg">
<path d="M58.0963 68.6755L13.675 119.898C12.6774 121.049 13.8281 122.487 15.2675 121.889L184.84 51.4347C185.125 51.3163 185.375 51.1257 185.556 50.888L222.178 2.9056C223.063 1.74682 221.91 0.417116 220.521 0.994135L58.7477 68.2081C58.4958 68.3128 58.2709 68.4741 58.0963 68.6755Z" fill="#FFCA10" stroke="black"/>
<path d="M65.875 68.2244L25.2288 111.754C24.316 112.732 25.294 113.884 26.5824 113.348L178.357 50.2885C178.612 50.1825 178.838 50.018 179.005 49.8167L212.671 9.18739C213.484 8.2062 212.501 7.14395 211.258 7.66041L66.4633 67.82C66.2379 67.9136 66.0347 68.0533 65.875 68.2244Z" fill="#FFCA10" stroke="black"/>
<path d="M185.338 50.3182L222.258 3.11324C222.593 2.6841 222.641 2.23413 222.497 1.87065L228.457 14.7262C228.589 15.085 228.535 15.5237 228.207 15.9427L193.416 63.1495C193.233 63.3834 192.982 63.5719 192.697 63.6903L22.249 134.012C21.3757 134.375 20.6151 134.005 20.3761 133.405L13.3237 120.97C13.262 120.889 13.2116 120.8 13.1741 120.706L13.3237 120.97C13.6547 121.404 14.3108 121.619 15.0469 121.313L184.619 50.8591C184.904 50.7407 185.155 50.5522 185.338 50.3182Z" fill="#FFDE68" stroke="black"/>
<path d="M13.3243 120.968C13.2626 120.887 13.2122 120.799 13.1747 120.705L13.3243 120.968C13.6553 121.403 14.3114 121.618 15.0475 121.312L52.5997 105.71L61.1045 117.98L22.2496 134.011C21.3763 134.374 20.6157 134.004 20.3768 133.403L13.3243 120.968Z" fill="#A23B0F"/>
<path d="M15.0475 121.312C14.1743 121.675 13.4137 121.305 13.1747 120.705L20.3768 133.403C20.6157 134.004 21.3763 134.374 22.2496 134.011L61.1045 117.98L52.5997 105.71L15.0475 121.312Z" stroke="black" stroke-width="0.443393"/>
<path d="M144.18 46.9945C144.917 47.7894 145.022 48.984 144.345 50.5811C143.674 52.1628 142.275 54.0356 140.236 56.0801C136.164 60.1646 129.619 64.8573 121.562 69.1774C113.505 73.4976 105.495 76.6095 99.0693 78.1543C95.8528 78.9276 93.0637 79.3007 90.8798 79.2497C88.6746 79.1982 87.2311 78.721 86.4944 77.9261C85.7577 77.1311 85.652 75.9366 86.3293 74.3394C87.0001 72.7577 88.3995 70.8849 90.438 68.8404C94.5104 64.756 101.055 60.0633 109.112 55.7431C117.169 51.4229 125.179 48.3111 131.605 46.7662C134.822 45.993 137.611 45.6198 139.795 45.6708C142 45.7223 143.443 46.1996 144.18 46.9945Z" fill="#FFDE68" stroke="black"/>
<path d="M52.3172 105.877L93.7867 54.0602C93.9921 53.8035 94.2548 53.6004 94.552 53.4685L115.057 44.3694L75.324 96.5276L83.308 108.885L60.8142 118.081L52.3172 105.877Z" fill="#772400"/>
<path d="M52.3172 105.877L93.7867 54.0602C93.9921 53.8035 94.2548 53.6004 94.552 53.4685L115.057 44.3694L75.324 96.5276M52.3172 105.877L60.8142 118.081L83.308 108.885L75.324 96.5276M52.3172 105.877L75.324 96.5276" stroke="black"/>
</svg>
