<svg width="97" height="60" viewBox="0 0 97 60" fill="none" xmlns="http://www.w3.org/2000/svg">
<g id="Group 14529">
<path id="Vector" d="M93.5413 31.8065C93.3287 33.3404 92.6958 34.7841 91.6983 36.1029C85.8472 43.8745 67.3564 47.6823 46.3468 44.7706C25.3372 41.8589 8.5914 33.1676 5.07439 24.0976C4.4731 22.5573 4.25665 20.9958 4.46924 19.4619L3.23133 28.394C1.76638 38.9644 20.5144 50.2942 45.1089 53.7027C69.7033 57.1113 90.8385 51.309 92.3034 40.7386L93.5413 31.8065Z" fill="#FFCE22" stroke="black" stroke-width="1.2"/>
<path id="Vector_2" d="M37.8097 43.2253C20.9136 39.4214 8.09971 31.8996 5.07438 24.0976C4.4731 22.5573 4.25665 20.9958 4.46924 19.4619L3.23133 28.394C1.94133 37.702 16.3247 47.5989 36.5718 52.1574L37.8097 43.2253Z" fill="#A3290F"/>
<path id="Vector_3" d="M93.5413 31.8065C93.3287 33.3404 92.6958 34.7841 91.6983 36.1029C85.8472 43.8745 67.3564 47.6823 46.3468 44.7706C25.3372 41.8589 8.5914 33.1676 5.07439 24.0976C4.4731 22.5573 4.25665 20.9958 4.46924 19.4619L3.23133 28.394C1.76638 38.9644 20.5144 50.2942 45.1089 53.7027C69.7033 57.1113 90.8385 51.309 92.3034 40.7386L93.5413 31.8065Z" stroke="black" stroke-width="1.2"/>
<path id="Vector_4" d="M51.6506 6.4966C27.0562 3.08805 5.93211 8.90254 4.4686 19.4625C4.25602 20.9964 4.47246 22.5578 5.07375 24.0982C8.59076 33.1682 25.3366 41.8594 46.3462 44.7712C67.3557 47.6829 85.8465 43.8751 91.6976 36.1034C92.6952 34.7847 93.3281 33.3409 93.5407 31.807C95.0042 21.2471 76.2451 9.90516 51.6506 6.4966Z" fill="#FFCA10" stroke="black" stroke-width="1.2"/>
</g>
</svg>
