<svg width="273" height="141" viewBox="0 0 273 141" fill="none" xmlns="http://www.w3.org/2000/svg">
<path d="M67.1788 71.5469L16.0539 124.016C14.9057 125.194 16.2367 126.644 17.896 126.022L213.362 52.7773C213.691 52.6542 213.978 52.4581 214.187 52.2148L256.322 3.11491C257.339 1.92915 256.006 0.589983 254.405 1.18985L67.9292 71.0658C67.6388 71.1746 67.3797 71.3407 67.1788 71.5469Z" fill="#FFCA10" stroke="black"/>
<path d="M76.1527 71.0116L29.3646 115.629C28.3138 116.631 29.445 117.791 30.9301 117.235L205.881 51.6774C206.175 51.5673 206.435 51.398 206.627 51.1918L245.369 9.58991C246.304 8.58523 245.168 7.51605 243.735 8.05295L76.8305 70.5951C76.5706 70.6925 76.3366 70.8363 76.1527 71.0116Z" fill="#FFCA10" stroke="black"/>
<path d="M213.934 51.6383L256.414 3.32504C256.8 2.88583 256.854 2.42831 256.687 2.06054L263.594 15.059C263.747 15.4221 263.686 15.8683 263.309 16.2971L223.284 64.591C223.074 64.8304 222.785 65.0243 222.457 65.1474L25.9798 138.266C24.9732 138.644 24.0948 138.275 23.8177 137.668L15.651 125.108C15.5796 125.026 15.5213 124.937 15.4778 124.841L15.651 125.108C16.034 125.546 16.7914 125.757 17.6399 125.439L213.106 52.1947C213.435 52.0716 213.723 51.8777 213.934 51.6383Z" fill="#FFDE68" stroke="black"/>
<path d="M15.6523 125.107C15.581 125.025 15.5227 124.936 15.4791 124.841L15.6523 125.107C16.0353 125.545 16.7928 125.757 17.6413 125.439L60.9276 109.219L70.7695 121.598L25.9812 138.266C24.9746 138.643 24.0962 138.275 23.819 137.667L15.6523 125.107Z" fill="#A23B0F"/>
<path d="M17.6413 125.439C16.6347 125.816 15.7563 125.448 15.4791 124.841L23.819 137.667C24.0962 138.275 24.9746 138.643 25.9812 138.266L70.7695 121.598L60.9276 109.219L17.6413 125.439Z" stroke="black" stroke-width="0.443393"/>
<path d="M166.499 48.6427C167.358 49.4491 167.483 50.6719 166.701 52.3105C165.927 53.9312 164.312 55.8527 161.962 57.9523C157.267 62.1472 149.72 66.9826 140.43 71.4531C131.14 75.9237 121.899 79.1671 114.478 80.8023C110.765 81.6207 107.538 82.0291 105.007 81.9989C102.448 81.9683 100.766 81.4944 99.9076 80.688C99.0491 79.8817 98.9241 78.6588 99.7063 77.0202C100.48 75.3996 102.095 73.478 104.445 71.3784C109.14 67.1836 116.687 62.3482 125.977 57.8776C135.267 53.4071 144.508 50.1636 151.929 48.5285C155.643 47.7101 158.869 47.3016 161.4 47.3319C163.96 47.3625 165.641 47.8364 166.499 48.6427Z" fill="#FFDE68" stroke="black"/>
<path d="M60.6024 109.392L108.383 56.2795C108.579 56.062 108.824 55.8915 109.102 55.7805L132.837 46.295L87.1229 99.6672L96.3641 112.14L70.4351 121.703L60.6024 109.392Z" fill="#772400"/>
<path d="M60.6024 109.392L108.383 56.2795C108.579 56.062 108.824 55.8915 109.102 55.7805L132.837 46.295L87.1229 99.6672M60.6024 109.392L70.4351 121.703L96.3641 112.14L87.1229 99.6672M60.6024 109.392L87.1229 99.6672" stroke="black"/>
</svg>
