<svg width="103" height="82" viewBox="0 0 103 82" fill="none" xmlns="http://www.w3.org/2000/svg">
<g id="Group 14537">
<path id="Vector" d="M94.3129 56.1701C93.6462 57.5678 92.6061 58.7524 91.2563 59.7075C83.3279 65.3444 64.5517 63.3788 45.408 54.2465C26.2643 45.1142 12.9332 31.7634 12.3255 22.0544C12.2185 20.4043 12.4846 18.8506 13.1514 17.4529L9.26881 25.5917C4.67415 35.2234 19.1152 51.6948 41.5254 62.3853C63.9356 73.0759 85.8357 73.9406 90.4304 64.309L94.3129 56.1701Z" fill="#FFCE22" stroke="black" stroke-width="1.2"/>
<path id="Vector_2" d="M37.7387 50.1905C22.7855 41.4524 12.8483 30.4061 12.3255 22.0544C12.2185 20.4043 12.4846 18.8506 13.1514 17.4529L9.26881 25.5917C5.22288 34.0731 15.9374 47.8581 33.8562 58.3293L37.7387 50.1905Z" fill="#A3290F"/>
<path id="Vector_3" d="M94.3129 56.1701C93.6462 57.5678 92.6061 58.7524 91.2563 59.7075C83.3279 65.3444 64.5517 63.3788 45.408 54.2465C26.2643 45.1142 12.9332 31.7634 12.3255 22.0544C12.2185 20.4043 12.4846 18.8506 13.1514 17.4529L9.26881 25.5917C4.67415 35.2234 19.1152 51.6948 41.5254 62.3853C63.9356 73.0759 85.8357 73.9406 90.4304 64.309L94.3129 56.1701Z" stroke="black" stroke-width="1.2"/>
<path id="Vector_4" d="M62.0465 19.3708C39.6363 8.68026 17.7431 7.83048 13.153 17.4526C12.4862 18.8503 12.2201 20.404 12.3271 22.0541C12.9348 31.7631 26.2659 45.1139 45.4096 54.2462C64.5533 63.3785 83.3295 65.3441 91.2579 59.7072C92.6077 58.7521 93.6478 57.5675 94.3145 56.1698C98.9047 46.5477 84.4567 30.0613 62.0465 19.3708Z" fill="#FFCA10" stroke="black" stroke-width="1.2"/>
</g>
</svg>
