<svg width="346" height="364" viewBox="0 0 346 364" fill="none" xmlns="http://www.w3.org/2000/svg">
<path d="M125.488 118.127L28.9009 120.001C26.7317 120.043 25.8137 122.548 27.6305 123.468L241.654 231.817C242.014 231.999 242.437 232.078 242.867 232.044L329.61 225.187C331.705 225.021 332.487 222.615 330.734 221.727L126.553 118.362C126.236 118.201 125.868 118.12 125.488 118.127Z" fill="#FFCA10" stroke="black" stroke-width="1.2"/>
<path d="M131.87 125.665L47.6221 124.296C45.7299 124.265 45.0371 126.329 46.6633 127.152L238.224 224.129C238.546 224.292 238.919 224.371 239.292 224.356L314.73 221.265C316.552 221.19 317.13 219.204 315.561 218.41L132.811 125.893C132.526 125.749 132.201 125.67 131.87 125.665Z" fill="#FFCA10" stroke="black" stroke-width="1.2"/>
<path d="M243.411 231.294L329.415 225.459C330.197 225.406 330.79 225.039 331.131 224.556L319.693 242.522C319.348 242.988 318.765 243.338 318.002 243.39L233.587 251.403C233.161 251.432 232.741 251.35 232.381 251.168L17.8653 141.801C16.7632 141.243 16.6516 140.124 17.2149 139.325L27.3155 120.63C27.3695 120.492 27.4413 120.359 27.5297 120.234L27.3155 120.63C27.0259 121.37 27.2511 122.239 28.1802 122.71L242.204 231.059C242.564 231.241 242.984 231.323 243.411 231.294Z" fill="#FFDE68" stroke="black" stroke-width="1.2"/>
<path d="M27.3151 120.631C27.369 120.493 27.4408 120.36 27.5293 120.235L27.3151 120.631C27.0254 121.371 27.2506 122.24 28.1797 122.711L75.5757 146.705L66.7653 166.733L17.8649 141.802C16.7627 141.244 16.6511 140.124 17.2145 139.326L27.3151 120.631Z" fill="#A23B0F"/>
<path d="M28.1797 122.711C27.0775 122.153 26.9659 121.033 27.5293 120.235L17.2145 139.326C16.6511 140.124 16.7627 141.244 17.8649 141.802L66.7653 166.733L75.5757 146.705L28.1797 122.711Z" stroke="black" stroke-width="0.532072"/>
<path d="M216.783 186.158C216.329 187.72 214.879 188.944 212.399 189.726C209.933 190.503 206.565 190.801 202.51 190.604C194.408 190.211 183.705 187.851 172.332 183.601C160.96 179.351 151.115 174.032 144.394 168.885C141.03 166.31 138.477 163.799 136.9 161.511C135.315 159.211 134.79 157.248 135.243 155.686C135.697 154.124 137.147 152.9 139.627 152.119C142.093 151.342 145.461 151.044 149.516 151.24C157.618 151.633 168.321 153.994 179.694 158.244C191.066 162.494 200.911 167.812 207.632 172.959C210.996 175.535 213.549 178.046 215.126 180.334C216.711 182.634 217.236 184.597 216.783 186.158Z" fill="#FFDE68" stroke="black" stroke-width="1.2"/>
<path d="M75.1589 146.57L170.271 141.129C170.741 141.102 171.2 141.188 171.6 141.376L198.173 153.932L103.938 161.464L94.6301 181.04L66.4257 166.528L75.1589 146.57Z" fill="#772400"/>
<path d="M75.1589 146.57L170.271 141.129C170.741 141.102 171.2 141.188 171.6 141.376L198.173 153.932L103.938 161.464M75.1589 146.57L66.4257 166.528L94.6301 181.04L103.938 161.464M75.1589 146.57L103.938 161.464" stroke="black" stroke-width="1.2"/>
</svg>
