<svg width="85" height="57" viewBox="0 0 85 57" fill="none" xmlns="http://www.w3.org/2000/svg">
<g id="Group 14522">
<path id="Vector" d="M81.2383 32.0404C80.9688 33.3545 80.3411 34.5672 79.4051 35.6514C73.9131 42.0428 57.7163 44.3017 39.7175 40.6113C21.7186 36.9209 7.72833 28.4725 5.19466 20.4357C4.76091 19.0706 4.66102 17.7087 4.93045 16.3946L3.36149 24.0467C1.50477 33.1023 17.0785 43.9433 38.1485 48.2634C59.2185 52.5835 77.8126 48.7481 79.6693 39.6925L81.2383 32.0404Z" fill="#FFCE22" stroke="black"/>
<path id="Vector_2" d="M32.424 38.7986C18.0308 34.5667 7.37412 27.349 5.19466 20.4357C4.76091 19.0706 4.66102 17.7087 4.93045 16.3946L3.36149 24.0467C1.72651 32.0208 13.6073 41.3794 30.8551 46.4507L32.424 38.7986Z" fill="#A3290F"/>
<path id="Vector_3" d="M81.2383 32.0404C80.9688 33.3545 80.3411 34.5672 79.4051 35.6514C73.9131 42.0428 57.7163 44.3017 39.7175 40.6113C21.7186 36.9209 7.72833 28.4725 5.19466 20.4357C4.76091 19.0706 4.66102 17.7087 4.93045 16.3946L3.36149 24.0467C1.50477 33.1023 17.0785 43.9433 38.1485 48.2634C59.2185 52.5835 77.8126 48.7481 79.6693 39.6925L81.2383 32.0404Z" stroke="black"/>
<path id="Vector_4" d="M46.4407 7.82153C25.3707 3.50144 6.78551 7.34791 4.93062 16.3946C4.66118 17.7087 4.76108 19.0705 5.19482 20.4357C7.7285 28.4725 21.7188 36.9208 39.7176 40.6112C57.7165 44.3016 73.9133 42.0428 79.4053 35.6514C80.3412 34.5672 80.969 33.3545 81.2384 32.0404C83.0933 22.9937 67.5107 12.1416 46.4407 7.82153Z" fill="#FFCA10" stroke="black"/>
</g>
</svg>
