<svg width="98" height="88" viewBox="0 0 98 88" fill="none" xmlns="http://www.w3.org/2000/svg">
<g id="Group 14505">
<path id="Vector" d="M82.1196 17.137C82.9714 18.432 83.4675 19.9232 83.6245 21.5491C84.5689 31.1135 73.9972 45.6278 57.2572 56.6392C40.5173 67.6505 23.0132 71.6042 14.6045 66.9497C13.1736 66.1618 12.0008 65.1158 11.1489 63.8207L16.1094 71.3619C21.9797 80.2861 42.6214 77.0706 62.2177 64.1803C81.814 51.2901 92.9504 33.6023 87.0801 24.6781L82.1196 17.137Z" fill="#FFCE22" stroke="black" stroke-width="1.2"/>
<path id="Vector_2" d="M50.2185 60.8394C35.8008 68.5878 21.8376 70.9535 14.6045 66.9497C13.1736 66.1618 12.0008 65.1158 11.1489 63.8207L16.1094 71.3619C21.2786 79.2203 37.9018 77.6655 55.179 68.3805L50.2185 60.8394Z" fill="#A3290F"/>
<path id="Vector_3" d="M82.1196 17.137C82.9714 18.432 83.4675 19.9232 83.6245 21.5491C84.5689 31.1135 73.9972 45.6278 57.2572 56.6392C40.5173 67.6505 23.0132 71.6042 14.6045 66.9497C13.1736 66.1618 12.0008 65.1158 11.1489 63.8207L16.1094 71.3619C21.9797 80.2861 42.6214 77.0706 62.2177 64.1803C81.814 51.2901 92.9504 33.6023 87.0801 24.6781L82.1196 17.137Z" stroke="black" stroke-width="1.2"/>
<path id="Vector_4" d="M36.0006 24.3248C16.4043 37.2151 5.28371 54.905 11.1482 63.8205C12.0001 65.1155 13.1729 66.1615 14.6038 66.9495C23.0125 71.604 40.5165 67.6503 57.2565 56.6389C73.9965 45.6275 84.5682 31.1132 83.6238 21.5488C83.4668 19.9229 82.9707 18.4317 82.1189 17.1367C76.2544 8.22123 55.5969 11.4345 36.0006 24.3248Z" fill="#FFCA10" stroke="black" stroke-width="1.2"/>
</g>
</svg>
