<svg width="85" height="76" viewBox="0 0 85 76" fill="none" xmlns="http://www.w3.org/2000/svg">
<g id="Group 14505">
<path id="Vector" d="M71.3364 14.6273C72.0744 15.7491 72.5041 17.0409 72.6401 18.4493C73.4581 26.7344 64.3005 39.3072 49.7997 48.8457C35.2989 58.3842 20.1361 61.809 12.8522 57.7771C11.6127 57.0946 10.5967 56.1885 9.85883 55.0667L14.1558 61.5991C19.2409 69.3297 37.1215 66.5442 54.0966 55.3781C71.0717 44.2121 80.7185 28.8903 75.6334 21.1597L71.3364 14.6273Z" fill="#FFCE22" stroke="black"/>
<path id="Vector_2" d="M43.7025 52.4841C31.2133 59.1961 19.1178 61.2454 12.8522 57.7771C11.6127 57.0946 10.5967 56.1885 9.85883 55.0667L14.1558 61.5991C18.6336 68.4064 33.0332 67.0595 47.9994 59.0165L43.7025 52.4841Z" fill="#A3290F"/>
<path id="Vector_3" d="M71.3364 14.6273C72.0744 15.7491 72.5041 17.0409 72.6401 18.4493C73.4581 26.7344 64.3005 39.3072 49.7997 48.8457C35.2989 58.3842 20.1361 61.809 12.8522 57.7771C11.6127 57.0946 10.5967 56.1885 9.85883 55.0667L14.1558 61.5991C19.2409 69.3297 37.1215 66.5442 54.0966 55.3781C71.0717 44.2121 80.7185 28.8903 75.6334 21.1598L71.3364 14.6273Z" stroke="black"/>
<path id="Vector_4" d="M31.3868 20.8541C14.4117 32.0202 4.77863 47.3439 9.85869 55.0669C10.5966 56.1887 11.6126 57.0948 12.8521 57.7773C20.136 61.8092 35.2987 58.3844 49.7995 48.8459C64.3004 39.3074 73.458 26.7346 72.6399 18.4495C72.504 17.041 72.0742 15.7493 71.3363 14.6275C66.2563 6.90459 48.3619 9.68809 31.3868 20.8541Z" fill="#FFCA10" stroke="black"/>
</g>
</svg>
