<svg width="288" height="273" viewBox="0 0 288 273" fill="none" xmlns="http://www.w3.org/2000/svg">
<path d="M96.4151 97.0507L21.3535 118.255C19.6677 118.731 19.8769 120.839 21.643 121.172L229.699 160.411C230.048 160.477 230.409 160.452 230.734 160.338L296.226 137.328C297.808 136.773 297.528 134.768 295.824 134.447L97.3377 97.0125C97.0286 96.9542 96.7101 96.9674 96.4151 97.0507Z" fill="#FFCA10" stroke="black"/>
<path d="M104.215 101.523L37.6282 117.716C36.1327 118.08 36.3549 119.803 37.9357 120.101L224.155 155.222C224.468 155.281 224.789 155.266 225.077 155.177L283.099 137.369C284.5 136.939 284.217 135.298 282.692 135.011L105.037 101.505C104.761 101.453 104.477 101.459 104.215 101.523Z" fill="#FFCA10" stroke="black"/>
<path d="M230.88 159.652L296.172 137.578C296.765 137.377 297.094 136.975 297.183 136.535L294.875 152.645C294.778 153.073 294.45 153.461 293.871 153.657L230.634 177.075C230.31 177.184 229.95 177.208 229.6 177.142L20.7815 137.223C19.7101 137.021 19.2073 136.186 19.353 135.459L20.3409 119.063C20.3321 118.946 20.339 118.829 20.3619 118.715L20.3409 119.063C20.3881 119.689 20.8872 120.309 21.7904 120.48L229.846 159.719C230.196 159.785 230.556 159.762 230.88 159.652Z" fill="#FFDE68" stroke="black"/>
<path d="M20.3432 119.063C20.3344 118.947 20.3413 118.83 20.3641 118.716L20.3432 119.063C20.3904 119.69 20.8895 120.31 21.7927 120.48L67.867 129.17L68.3855 146.323L20.7838 137.223C19.7124 137.021 19.2096 136.186 19.3552 135.459L20.3432 119.063Z" fill="#A23B0F"/>
<path d="M21.7927 120.48C20.7212 120.278 20.2185 119.443 20.3641 118.716L19.3552 135.459C19.2096 136.186 19.7124 137.021 20.7838 137.223L68.3855 146.323L67.867 129.17L21.7927 120.48Z" stroke="black" stroke-width="0.443393"/>
<path d="M193.273 130.511C193.493 131.775 192.823 133.007 191.16 134.119C189.511 135.221 186.976 136.14 183.72 136.82C177.214 138.178 167.938 138.559 157.437 137.629C146.936 136.699 137.236 134.636 130.049 132.065C126.451 130.778 123.513 129.374 121.424 127.941C119.318 126.495 118.194 125.105 117.975 123.84C117.755 122.575 118.425 121.344 120.087 120.232C121.736 119.13 124.272 118.211 127.528 117.531C134.034 116.173 143.31 115.791 153.811 116.722C164.312 117.652 174.011 119.714 181.199 122.285C184.796 123.572 187.734 124.976 189.823 126.41C191.93 127.855 193.054 129.246 193.273 130.511Z" fill="#FFDE68" stroke="black"/>
<path d="M67.4888 129.153L140.145 105.493C140.456 105.391 140.785 105.366 141.105 105.418L166.704 109.619L95.5854 134.678L95.5462 151.587L68.0419 146.237L67.4888 129.153Z" fill="#772400"/>
<path d="M67.4888 129.153L140.145 105.493C140.456 105.391 140.785 105.366 141.105 105.418L166.704 109.619L95.5854 134.678M67.4888 129.153L68.0419 146.237L95.5462 151.587L95.5854 134.678M67.4888 129.153L95.5854 134.678" stroke="black"/>
</svg>
