<svg width="323" height="163" viewBox="0 0 323 163" fill="none" xmlns="http://www.w3.org/2000/svg">
<path d="M78.1318 82.7129L19.1125 143.283C17.787 144.644 19.3236 146.317 21.2391 145.6L246.888 61.0449C247.267 60.9028 247.599 60.6764 247.84 60.3955L296.481 3.71394C297.656 2.34507 296.117 0.799132 294.269 1.49162L78.998 82.1574C78.6628 82.283 78.3638 82.4748 78.1318 82.7129Z" fill="#FFCA10" stroke="black" stroke-width="1.2"/>
<path d="M88.4936 82.0952L34.4807 133.602C33.2676 134.759 34.5734 136.098 36.2879 135.456L238.254 59.7755C238.593 59.6483 238.894 59.4529 239.115 59.2149L283.839 11.189C284.919 10.0292 283.607 8.79494 281.953 9.41476L89.276 81.6143C88.976 81.7267 88.7058 81.8927 88.4936 82.0952Z" fill="#FFCA10" stroke="black" stroke-width="1.2"/>
<path d="M247.55 59.7304L296.59 3.95691C297.036 3.44989 297.099 2.92171 296.905 2.49717L304.879 17.5028C305.056 17.922 304.985 18.437 304.55 18.932L258.345 74.6832C258.102 74.9596 257.769 75.1835 257.39 75.3256L30.5738 159.735C29.4117 160.171 28.3977 159.745 28.0777 159.045L18.65 144.544C18.5676 144.45 18.5003 144.347 18.45 144.237L18.65 144.544C19.0921 145.05 19.9665 145.295 20.9461 144.928L246.595 60.3728C246.974 60.2307 247.307 60.0068 247.55 59.7304Z" fill="#FFDE68" stroke="black" stroke-width="1.2"/>
<path d="M18.6514 144.544C18.569 144.449 18.5017 144.346 18.4514 144.236L18.6514 144.544C19.0935 145.049 19.9679 145.294 20.9475 144.927L70.9178 126.202L82.2794 140.493L30.5752 159.734C29.4131 160.17 28.3991 159.745 28.0791 159.044L18.6514 144.544Z" fill="#A23B0F"/>
<path d="M20.9475 144.927C19.7854 145.362 18.7714 144.937 18.4514 144.236L28.0791 159.044C28.3991 159.745 29.4131 160.17 30.5752 159.734L82.2794 140.493L70.9178 126.202L20.9475 144.927Z" stroke="black" stroke-width="0.532072"/>
<path d="M192.771 56.2825C193.753 57.2053 193.901 58.6093 192.999 60.4992C192.107 62.3676 190.244 64.5843 187.532 67.0074C182.114 71.8485 173.403 77.4295 162.68 82.5897C151.957 87.7499 141.29 91.4934 132.727 93.3804C128.441 94.3249 124.719 94.7959 121.801 94.761C118.849 94.7257 116.92 94.1791 115.937 93.2563C114.955 92.3336 114.807 90.9296 115.71 89.0397C116.602 87.1712 118.465 84.9546 121.177 82.5314C126.595 77.6904 135.305 72.1094 146.028 66.9491C156.752 61.7889 167.418 58.0455 175.981 56.1585C180.267 55.2139 183.989 54.743 186.908 54.7778C189.859 54.8131 191.789 55.3598 192.771 56.2825Z" fill="#FFDE68" stroke="black" stroke-width="1.2"/>
<path d="M70.5415 126.402L125.686 65.1032C125.921 64.8421 126.216 64.6375 126.549 64.5043L153.93 53.5618L101.157 115.175L111.825 129.574L81.8924 140.614L70.5415 126.402Z" fill="#772400"/>
<path d="M70.5415 126.402L125.686 65.1032C125.921 64.8421 126.216 64.6375 126.549 64.5043L153.93 53.5618L101.157 115.175M70.5415 126.402L81.8924 140.614L111.825 129.574L101.157 115.175M70.5415 126.402L101.157 115.175" stroke="black" stroke-width="1.2"/>
</svg>
