<svg width="99" height="65" viewBox="0 0 99 65" fill="none" xmlns="http://www.w3.org/2000/svg">
<g id="Group 14522">
<path id="Vector" d="M94.2403 37.0993C93.9292 38.6163 93.2045 40.0162 92.124 41.2679C85.784 48.6462 67.0862 51.2539 46.3081 46.9936C25.5299 42.7334 9.37933 32.9805 6.45442 23.7026C5.95369 22.1267 5.83837 20.5545 6.14941 19.0375L4.33819 27.8713C2.19476 38.3252 20.1733 50.8401 44.4968 55.8273C68.8203 60.8145 90.2856 56.3869 92.429 45.933L94.2403 37.0993Z" fill="#FFCE22" stroke="black" stroke-width="1.2"/>
<path id="Vector_2" d="M37.8884 44.9011C21.2726 40.0157 8.97042 31.6834 6.45442 23.7026C5.95369 22.1267 5.83837 20.5545 6.14941 19.0375L4.33819 27.8713C2.45074 37.0767 16.1661 47.8803 36.0772 53.7348L37.8884 44.9011Z" fill="#A3290F"/>
<path id="Vector_3" d="M94.2403 37.0993C93.9292 38.6163 93.2045 40.0162 92.124 41.2679C85.784 48.6462 67.0862 51.2539 46.3081 46.9936C25.5299 42.7334 9.37933 32.9805 6.45442 23.7026C5.95369 22.1267 5.83837 20.5545 6.14941 19.0375L4.33819 27.8713C2.19476 38.3252 20.1733 50.8401 44.4968 55.8273C68.8203 60.8145 90.2856 56.3869 92.429 45.933L94.2403 37.0993Z" stroke="black" stroke-width="1.2"/>
<path id="Vector_4" d="M54.0717 9.14112C29.7482 4.15394 8.29319 8.59436 6.15188 19.038C5.84084 20.555 5.95615 22.1271 6.45688 23.7031C9.38179 32.9809 25.5324 42.7338 46.3105 46.994C67.0887 51.2543 85.7865 48.6466 92.1265 41.2684C93.207 40.0167 93.9317 38.6167 94.2427 37.0997C96.384 26.6561 78.3952 14.1283 54.0717 9.14112Z" fill="#FFCA10" stroke="black" stroke-width="1.2"/>
</g>
</svg>
