<svg width="101" height="72" viewBox="0 0 101 72" fill="none" xmlns="http://www.w3.org/2000/svg">
<g id="Group 14530">
<path id="Vector" d="M92.3235 19.1116C92.7581 20.598 92.7723 22.1743 92.4027 23.786C90.2498 33.2728 74.9427 44.3228 54.5848 50.2754C34.2268 56.228 15.39 55.1614 8.46541 48.3288C7.28576 47.1701 6.44851 45.8344 6.01392 44.3481L8.54462 53.0032C11.5395 63.2458 33.2838 65.8988 57.1155 58.9305C80.9471 51.9623 97.8491 38.0093 94.8542 27.7667L92.3235 19.1116Z" fill="#FFCE22" stroke="black" stroke-width="1.2"/>
<path id="Vector_2" d="M46.1641 52.3638C29.1928 55.8171 14.422 54.2062 8.46541 48.3288C7.28576 47.1701 6.44851 45.8344 6.01392 44.3481L8.54462 53.0032C11.1818 62.0225 28.3575 65.1568 48.6948 61.0189L46.1641 52.3638Z" fill="#A3290F"/>
<path id="Vector_3" d="M92.3235 19.1116C92.7581 20.598 92.7723 22.1743 92.4027 23.786C90.2498 33.2728 74.9427 44.3228 54.5848 50.2754C34.2268 56.228 15.39 55.1614 8.46541 48.3288C7.28576 47.1701 6.44851 45.8344 6.01392 44.3481L8.54462 53.0032C11.5395 63.2458 33.2838 65.8988 57.1155 58.9305C80.9471 51.9623 97.8491 38.0093 94.8542 27.7668L92.3235 19.1116Z" stroke="black" stroke-width="1.2"/>
<path id="Vector_4" d="M43.742 13.1877C19.9103 20.156 3.02345 34.1155 6.01536 44.3479C6.44995 45.8343 7.2872 47.1699 8.46685 48.3287C15.3915 55.1612 34.2282 56.2278 54.5862 50.2752C74.9442 44.3226 90.2512 33.2726 92.4042 23.7858C92.7737 22.1741 92.7595 20.5978 92.3249 19.1115C89.333 8.87902 67.5737 6.21945 43.742 13.1877Z" fill="#FFCA10" stroke="black" stroke-width="1.2"/>
</g>
</svg>
