<svg width="72" height="20" viewBox="0 0 72 20" fill="none" xmlns="http://www.w3.org/2000/svg">
<g id="Frame 1000002933">
<g id="Vector">
<path fill-rule="evenodd" clip-rule="evenodd" d="M33.0492 0V20H52.5246V0H33.0492ZM36 3.52941V16.7647H49.5738V12.0588H39.541V8.52941H49.5738V3.52941H36Z" fill="#5D5D66"/>
<path d="M56.0656 20V8.02884H59.0164V20H56.0656Z" fill="#5D5D66"/>
<path d="M59.0164 8.02884H56.0656V12.3529H59.0164V8.02884Z" fill="#5D5D66"/>
<path d="M43.082 12.0588V8.52941H39.541V12.0588H43.082Z" fill="#5D5D66"/>
<path d="M18.2951 12.3529V8.82353H30.0984V12.3529H18.2951Z" fill="#5D5D66"/>
<path d="M0 3.52941V0H15.3443V12.3529H6.4918L12.9836 16.4706H30.0984V20H11.8033L0 12.3529V8.82353H11.8033V3.52941H0Z" fill="#5D5D66"/>
<path d="M18.2951 3.52941V0H29.8033V3.52941H18.2951Z" fill="#5D5D66"/>
<path d="M56.0656 0V3.52941H62.2623V20H65.8033V3.52941H72V0H56.0656Z" fill="#5D5D66"/>
<path d="M0 16.4706V20H3.54098V16.4706H0Z" fill="#5D5D66"/>
<path d="M68.459 16.4706V20H72V16.4706H68.459Z" fill="#5D5D66"/>
<path d="M29.8033 3.52941H26.2623V0H29.8033V3.52941Z" fill="#5D5D66"/>
<path d="M30.0984 12.3529H26.5574V8.82353H30.0984V12.3529Z" fill="#5D5D66"/>
<path d="M30.0984 20H26.5574V16.4706H30.0984V20Z" fill="#5D5D66"/>
</g>
</g>
</svg>
