<svg width="718" height="541" viewBox="0 0 718 541" fill="none" xmlns="http://www.w3.org/2000/svg">
<path d="M60.1271 149.502C143.038 229.038 419.731 392.363 637.416 467.729C462.942 384.667 520.45 356.898 473.764 277.478C436.415 213.941 325.684 187.042 290.242 227.912C310.775 202.037 267.3 110.857 188.993 48.9888C57.5208 -54.8845 55.7876 75.304 60.1271 149.502Z" fill="white" stroke="#252529"/>
<path d="M127.877 384.045C215.043 433.214 477.015 500.519 668.068 503.114C508.521 479.559 508.134 437.68 449.241 377.165C402.126 328.753 358.709 328.646 330.137 350.878C338.815 319.859 338.018 250.47 259.446 216.592C127.527 159.713 103.476 315.088 127.877 384.045Z" fill="white" stroke="#252529"/>
</svg>
