<svg width="679" height="387" viewBox="0 0 679 387" fill="none" xmlns="http://www.w3.org/2000/svg">
<path d="M531.462 174.5C447.962 229.667 191.362 315.197 0.962402 331.197C158.462 296.5 118.462 254.697 172.962 190.197C216.562 138.597 310.943 141.5 330.462 190.197C319.629 159.864 312.462 56.0073 388.462 16.697C516.062 -49.303 550.962 104 531.462 174.5Z" fill="white" stroke="#252529"/>
<path d="M657.668 229.722C569.613 277.281 306.449 339.762 115.38 338.846C275.333 318.227 307.154 286.988 367.149 227.566C415.145 180.027 440.936 177.332 456.068 227.566C447.962 196.392 450.016 92.3093 529.197 59.8805C662.139 5.43407 683.332 161.225 657.668 229.722Z" fill="white" stroke="#252529"/>
</svg>
