<svg width="215" height="181" viewBox="0 0 215 181" fill="none" xmlns="http://www.w3.org/2000/svg">
<g id="Group 38601">
<g id="Union">
<mask id="path-1-inside-1_1_1173" fill="white">
<path fill-rule="evenodd" clip-rule="evenodd" d="M83.5046 128.977C129.623 157.539 175.34 167.24 185.617 150.646C185.698 150.516 185.776 150.385 185.852 150.252L185.859 150.256L196.492 133.087L180.755 123.341C170.275 106.386 148.62 86.1634 120.721 68.8848C92.8209 51.6061 65.0681 41.2297 45.2196 39.4019L29.4828 29.6558L18.8497 46.825L18.8566 46.8293C18.7716 46.9563 18.6887 47.0849 18.608 47.2152C8.33116 63.8092 37.3863 100.415 83.5046 128.977Z"/>
</mask>
<path fill-rule="evenodd" clip-rule="evenodd" d="M83.5046 128.977C129.623 157.539 175.34 167.24 185.617 150.646C185.698 150.516 185.776 150.385 185.852 150.252L185.859 150.256L196.492 133.087L180.755 123.341C170.275 106.386 148.62 86.1634 120.721 68.8848C92.8209 51.6061 65.0681 41.2297 45.2196 39.4019L29.4828 29.6558L18.8497 46.825L18.8566 46.8293C18.7716 46.9563 18.6887 47.0849 18.608 47.2152C8.33116 63.8092 37.3863 100.415 83.5046 128.977Z" fill="#FFD702"/>
<path d="M185.852 150.252L186.378 149.402L185.498 148.856L184.984 149.756L185.852 150.252ZM185.859 150.256L185.332 151.106L186.182 151.633L186.709 150.783L185.859 150.256ZM196.492 133.087L197.342 133.614L197.869 132.763L197.018 132.237L196.492 133.087ZM180.755 123.341L179.904 123.867L180.028 124.067L180.229 124.191L180.755 123.341ZM45.2196 39.4019L44.6931 40.252L44.8934 40.376L45.1279 40.3976L45.2196 39.4019ZM29.4828 29.6558L30.0094 28.8057L29.1592 28.2791L28.6327 29.1293L29.4828 29.6558ZM18.8497 46.825L17.9996 46.2985L17.473 47.1486L18.3232 47.6751L18.8497 46.825ZM18.8566 46.8293L19.6876 47.3855L20.2639 46.5246L19.3831 45.9791L18.8566 46.8293ZM184.767 150.12C182.411 153.924 177.957 156.335 171.662 157.289C165.372 158.242 157.383 157.714 148.209 155.767C129.87 151.875 107.019 142.363 84.0312 128.127L82.9781 129.827C106.109 144.152 129.175 153.772 147.794 157.723C157.099 159.698 165.348 160.269 171.962 159.266C178.57 158.265 183.685 155.666 186.467 151.173L184.767 150.12ZM184.984 149.756C184.914 149.878 184.841 150 184.767 150.12L186.467 151.173C186.554 151.033 186.638 150.891 186.72 150.748L184.984 149.756ZM186.385 149.406L186.378 149.402L185.325 151.102L185.332 151.106L186.385 149.406ZM195.642 132.561L185.009 149.73L186.709 150.783L197.342 133.614L195.642 132.561ZM180.229 124.191L195.965 133.937L197.018 132.237L181.282 122.491L180.229 124.191ZM120.194 69.735C148.02 86.9678 169.535 107.091 179.904 123.867L181.606 122.815C171.015 105.681 149.221 85.3591 121.247 68.0346L120.194 69.735ZM45.1279 40.3976C64.7663 42.2062 92.3684 52.5021 120.194 69.735L121.247 68.0346C93.2735 50.7102 65.3698 40.2533 45.3113 38.4061L45.1279 40.3976ZM28.9563 30.506L44.6931 40.252L45.7462 38.5517L30.0094 28.8057L28.9563 30.506ZM19.6999 47.3515L30.333 30.1823L28.6327 29.1293L17.9996 46.2985L19.6999 47.3515ZM19.3831 45.9791L19.3762 45.9748L18.3232 47.6751L18.3301 47.6794L19.3831 45.9791ZM19.4582 47.7417C19.5327 47.6215 19.6092 47.5027 19.6876 47.3855L18.0256 46.273C17.934 46.4098 17.8448 46.5484 17.7579 46.6887L19.4582 47.7417ZM84.0312 128.127C61.0437 113.89 42.3465 97.6704 30.6914 82.9864C24.861 75.6409 20.8282 68.7238 18.8791 62.6681C16.9283 56.6074 17.1025 51.5455 19.4582 47.7417L17.7579 46.6887C14.9752 51.1819 14.9274 56.9184 16.9753 63.2809C19.0248 69.6485 23.2113 76.7794 29.1249 84.2298C40.9577 99.1377 59.8473 115.502 82.9781 129.827L84.0312 128.127Z" fill="black" mask="url(#path-1-inside-1_1_1173)"/>
</g>
<path id="Ellipse 1361" d="M195.825 133.214C193.363 137.19 188.743 139.648 182.37 140.614C175.999 141.58 167.945 141.041 158.738 139.087C140.329 135.18 117.424 125.641 94.401 111.383C71.3777 97.1239 52.6324 80.8681 40.9329 66.1281C35.0817 58.7563 31.0105 51.7858 29.0363 45.6522C27.0612 39.516 27.2038 34.2854 29.6662 30.3093C32.1287 26.3331 36.7479 23.875 43.1213 22.9092C49.4921 21.9438 57.5465 22.4828 66.7531 24.4365C85.1619 28.3431 108.067 37.882 131.09 52.1407C154.114 66.3994 172.859 82.6552 184.559 97.3952C190.41 104.767 194.481 111.737 196.455 117.871C198.43 124.007 198.288 129.238 195.825 133.214Z" fill="#FFE767" stroke="black"/>
<path id="Ellipse 1360" d="M188.021 128.381C186.108 131.47 182.245 133.257 176.717 133.727C171.2 134.195 164.129 133.34 155.974 131.259C139.669 127.098 119.141 118.066 98.2676 105.139C77.3945 92.2122 60.1623 77.8587 49.1724 65.1153C43.6754 58.7413 39.7595 52.7923 37.7211 47.6445C35.6785 42.486 35.5571 38.232 37.4704 35.1425C39.3837 32.0531 43.2462 30.2664 48.7746 29.7967C54.2913 29.3279 61.362 30.183 69.5175 32.2642C85.8227 36.4251 106.351 45.457 127.224 58.384C148.097 71.3111 165.329 85.6646 176.319 98.408C181.816 104.782 185.732 110.731 187.77 115.879C189.813 121.037 189.934 125.291 188.021 128.381Z" fill="#FFD702" stroke="black"/>
<path id="Subtract" fill-rule="evenodd" clip-rule="evenodd" d="M183.582 132.65C185.722 131.714 187.368 130.385 188.446 128.644C196.587 115.498 169.295 83.8514 127.487 57.959C85.6789 32.0665 45.1867 21.7334 37.0453 34.8793C35.9672 36.6202 35.5104 38.6855 35.6265 41.0189C49.6512 34.8885 84.9322 45.6408 121.204 68.1044C157.475 90.5679 182.821 117.363 183.582 132.65Z" fill="black"/>
<path id="Vector 3638" d="M182.609 140.685L171.975 157.854" stroke="black"/>
<path id="Vector 3639" d="M164.898 140.514L154.265 157.684" stroke="black"/>
<path id="Vector 3640" d="M145.126 135.827L134.493 152.997" stroke="black"/>
<path id="Vector 3641" d="M126.804 128.799L116.171 145.969" stroke="black"/>
<path id="Vector 3642" d="M109.449 120.21L98.8159 137.38" stroke="black"/>
<path id="Vector 3643" d="M91.4994 109.094L80.8663 126.263" stroke="black"/>
<path id="Vector 3644" d="M74.0331 97.1971L63.4 114.366" stroke="black"/>
<path id="Vector 3645" d="M57.5336 83.7394L46.9005 100.909" stroke="black"/>
<path id="Vector 3646" d="M43.5614 69.6876L32.9283 86.8567" stroke="black"/>
<path id="Vector 3647" d="M32.303 52.9973L21.6699 70.1665" stroke="black"/>
</g>
</svg>
