<svg width="236" height="184" viewBox="0 0 236 184" fill="none" xmlns="http://www.w3.org/2000/svg">
<g id="Group 38600">
<g id="Union">
<mask id="path-1-inside-1_1_1135" fill="white">
<path fill-rule="evenodd" clip-rule="evenodd" d="M139.747 136.109C192.75 109.979 228.096 73.3352 218.694 54.264C218.62 54.1142 218.544 53.9661 218.465 53.8194L218.473 53.8155L208.745 34.0831L190.659 42.9996C168.945 42.8989 137.764 51.238 105.699 67.0459C73.6342 82.8538 48.0317 102.509 34.8891 119.794L16.8029 128.71L26.531 148.443L26.5389 148.439C26.6072 148.591 26.6783 148.741 26.7521 148.891C36.1542 167.962 86.7438 162.24 139.747 136.109Z"/>
</mask>
<path fill-rule="evenodd" clip-rule="evenodd" d="M139.747 136.109C192.75 109.979 228.096 73.3352 218.694 54.264C218.62 54.1142 218.544 53.9661 218.465 53.8194L218.473 53.8155L208.745 34.0831L190.659 42.9996C168.945 42.8989 137.764 51.238 105.699 67.0459C73.6342 82.8538 48.0317 102.509 34.8891 119.794L16.8029 128.71L26.531 148.443L26.5389 148.439C26.6072 148.591 26.6783 148.741 26.7521 148.891C36.1542 167.962 86.7438 162.24 139.747 136.109Z" fill="#FFD702"/>
<path d="M218.465 53.8194L218.023 52.9225L217.094 53.3806L217.584 54.293L218.465 53.8194ZM218.473 53.8155L218.915 54.7124L219.812 54.2702L219.37 53.3733L218.473 53.8155ZM208.745 34.0831L209.642 33.641L209.2 32.744L208.303 33.1862L208.745 34.0831ZM190.659 42.9996L190.654 43.9996L190.89 44.0007L191.101 43.8965L190.659 42.9996ZM34.8891 119.794L35.3313 120.691L35.5425 120.587L35.6851 120.399L34.8891 119.794ZM16.8029 128.71L16.3608 127.813L15.4638 128.255L15.906 129.152L16.8029 128.71ZM26.531 148.443L25.634 148.885L26.0762 149.782L26.9732 149.34L26.531 148.443ZM26.5389 148.439L27.4509 148.028L27.0259 147.084L26.0967 147.542L26.5389 148.439ZM217.797 54.7061C219.968 59.1103 219.617 64.6467 216.861 71.0267C214.106 77.4018 209 84.4877 201.903 91.8451C187.715 106.553 165.731 122.184 139.305 135.212L140.189 137.006C166.766 123.904 188.957 108.147 203.342 93.2336C210.532 85.7799 215.812 78.4959 218.697 71.82C221.579 65.149 222.121 58.9532 219.591 53.8218L217.797 54.7061ZM217.584 54.293C217.658 54.4293 217.728 54.567 217.797 54.7061L219.591 53.8218C219.512 53.6615 219.43 53.5028 219.346 53.3458L217.584 54.293ZM218.031 52.9186L218.023 52.9225L218.907 54.7163L218.915 54.7124L218.031 52.9186ZM207.848 34.5253L217.576 54.2577L219.37 53.3733L209.642 33.641L207.848 34.5253ZM191.101 43.8965L209.187 34.9801L208.303 33.1862L190.217 42.1027L191.101 43.8965ZM106.141 67.9428C138.128 52.1734 169.151 43.8998 190.654 43.9996L190.663 41.9996C168.739 41.8979 137.4 50.3026 105.257 66.149L106.141 67.9428ZM35.6851 120.399C48.7 103.282 74.1545 83.7122 106.141 67.9428L105.257 66.149C73.114 81.9953 47.3633 101.736 34.0931 119.189L35.6851 120.399ZM17.2451 129.607L35.3313 120.691L34.4469 118.897L16.3608 127.813L17.2451 129.607ZM27.4279 148L17.6999 128.268L15.906 129.152L25.634 148.885L27.4279 148ZM26.0967 147.542L26.0888 147.546L26.9732 149.34L26.9811 149.336L26.0967 147.542ZM27.649 148.449C27.5804 148.31 27.5144 148.17 27.4509 148.028L25.6269 148.849C25.7 149.011 25.7761 149.173 25.8551 149.333L27.649 148.449ZM139.305 135.212C112.879 148.24 87.0928 156.16 66.7867 158.457C56.6292 159.606 47.8991 159.342 41.1648 157.644C34.4254 155.946 29.8202 152.853 27.649 148.449L25.8551 149.333C28.3849 154.465 33.6292 157.808 40.6761 159.584C47.7281 161.361 56.721 161.608 67.0115 160.444C87.6016 158.115 113.612 150.109 140.189 137.006L139.305 135.212Z" fill="black" mask="url(#path-1-inside-1_1_1135)"/>
</g>
<path id="Ellipse 1361" d="M208.518 34.7527C210.778 39.3387 210.38 45.0399 207.592 51.4927C204.804 57.943 199.655 65.0784 192.535 72.4598C178.298 87.2195 156.262 102.882 129.798 115.928C103.334 128.975 77.492 136.917 57.1149 139.222C46.9241 140.374 38.1283 140.114 31.3146 138.397C24.4984 136.679 19.7334 133.524 17.4725 128.938C15.2116 124.352 15.6101 118.65 18.3984 112.198C21.1855 105.747 26.3353 98.6119 33.4553 91.2305C47.6923 76.4708 69.7282 60.8087 96.1921 47.762C122.656 34.7154 148.498 26.7738 168.875 24.4687C179.066 23.3159 187.862 23.5762 194.675 25.2933C201.492 27.0111 206.257 30.1667 208.518 34.7527Z" fill="#FFE767" stroke="black"/>
<path id="Ellipse 1360" d="M199.548 39.1745C201.308 42.7438 200.723 47.36 197.964 52.7444C195.211 58.1184 190.337 64.162 183.706 70.4984C170.448 83.1669 150.253 96.9248 126.26 108.753C102.268 120.581 79.0576 128.222 60.9356 131.024C51.8715 132.425 44.1095 132.611 38.17 131.523C32.2191 130.432 28.2014 128.085 26.4417 124.516C24.6821 120.947 25.2669 116.33 28.0257 110.946C30.7792 105.572 35.6534 99.5283 42.2845 93.1919C55.5422 80.5234 75.7373 66.7655 99.7295 54.9374C123.722 43.1093 146.932 35.4682 165.054 32.6665C174.119 31.2652 181.881 31.0792 187.82 32.1676C193.771 33.2581 197.789 35.6053 199.548 39.1745Z" fill="#FFD702" stroke="black"/>
<path id="Subtract" fill-rule="evenodd" clip-rule="evenodd" d="M200.891 45.7596C201.262 43.2416 200.983 40.9542 199.997 38.9534C192.548 23.845 147.558 30.8005 99.5084 54.4889C51.4587 78.1774 18.5449 109.628 25.9933 124.737C26.9797 126.738 28.6244 128.351 30.8475 129.591C33.2761 113.095 63.5702 86.7004 105.257 66.149C146.943 45.5975 186.327 37.6407 200.891 45.7596Z" fill="black"/>
<path id="Vector 3638" d="M207.754 51.2956L217.482 71.0279" stroke="black"/>
<path id="Vector 3639" d="M197.376 67.5609L207.104 87.2932" stroke="black"/>
<path id="Vector 3640" d="M181.636 83.1252L191.364 102.858" stroke="black"/>
<path id="Vector 3641" d="M164.569 95.9987L174.297 115.731" stroke="black"/>
<path id="Vector 3642" d="M146.618 107.078L156.346 126.811" stroke="black"/>
<path id="Vector 3643" d="M125.989 117.249L135.717 136.981" stroke="black"/>
<path id="Vector 3644" d="M104.918 126.522L114.646 146.254" stroke="black"/>
<path id="Vector 3645" d="M82.9619 134.001L92.6899 153.734" stroke="black"/>
<path id="Vector 3646" d="M61.9155 138.802L71.6435 158.535" stroke="black"/>
<path id="Vector 3647" d="M39.9974 139.574L49.7255 159.306" stroke="black"/>
</g>
</svg>
