<svg width="124" height="116" viewBox="0 0 124 116" fill="none" xmlns="http://www.w3.org/2000/svg">
<path d="M109.973 92.3068C108.906 93.5669 107.429 94.4362 105.623 94.9233C95.0093 97.8138 72.7647 87.7949 51.4307 69.7307C30.0967 51.6665 16.5605 31.3887 17.6617 20.4434C17.8444 18.5816 18.4583 16.9821 19.5253 15.7219L13.3121 23.0599C5.9592 31.7437 20.2432 55.9222 45.2174 77.0686C70.1917 98.2151 96.4068 108.329 103.76 99.6447L109.973 92.3068Z" fill="#FFCE22" stroke="black"/>
<path d="M42.959 62.0562C26.598 46.1791 16.7144 29.8585 17.6617 20.4434C17.8444 18.5816 18.4583 16.9821 19.5253 15.7219L13.3121 23.0599C6.83732 30.7066 17.14 50.3681 36.7457 69.3941L42.959 62.0562Z" fill="#500FA3"/>
<path d="M109.973 92.3068C108.906 93.5669 107.429 94.4362 105.623 94.9233C95.0093 97.8138 72.7647 87.7949 51.4307 69.7307C30.0967 51.6665 16.5605 31.3887 17.6617 20.4434C17.8444 18.5816 18.4583 16.9821 19.5253 15.7219L13.3121 23.0599C5.9592 31.7437 20.2432 55.9222 45.2174 77.0686C70.1917 98.2151 96.4068 108.329 103.76 99.6447L109.973 92.3068Z" stroke="black"/>
<path d="M78.0547 38.2873C53.0805 17.1408 26.8708 7.04673 19.5252 15.722C18.4582 16.9821 17.8442 18.5817 17.6616 20.4434C16.5604 31.3887 30.0966 51.6665 51.4306 69.7307C72.7646 87.7949 95.0091 97.8138 105.623 94.9233C107.429 94.4362 108.906 93.567 109.973 92.3068C117.318 83.6316 103.029 59.4338 78.0547 38.2873Z" fill="#131313" stroke="black"/>
<path d="M78.0549 38.287L18.71 28.0606C22.3031 39.4322 34.3749 55.2887 51.4307 69.7304C72.7647 87.7946 95.0093 97.8135 105.623 94.923C107.429 94.4359 108.906 93.5666 109.973 92.3065C117.319 83.6313 103.029 59.4335 78.0549 38.287Z" fill="#FFCA10"/>
<path d="M78.0547 38.2873C53.0805 17.1408 26.8708 7.04673 19.5252 15.722C18.4582 16.9821 17.8442 18.5817 17.6616 20.4434C16.5604 31.3887 30.0966 51.6665 51.4306 69.7307C72.7646 87.7949 95.0091 97.8138 105.623 94.9233C107.429 94.4362 108.906 93.567 109.973 92.3068C117.318 83.6316 103.029 59.4338 78.0547 38.2873Z" stroke="black"/>
</svg>
