<svg width="411" height="371" viewBox="0 0 411 371" fill="none" xmlns="http://www.w3.org/2000/svg">
<path d="M369.637 111.909L391.928 147.638C393.348 149.925 392.23 152.957 389.667 153.732L363.666 161.644C359.767 162.837 355.544 162.261 352.1 160.062L305.683 130.569L369.636 111.896L369.637 111.909Z" fill="#2F0B41" stroke="black" stroke-width="1.00421" stroke-miterlimit="10"/>
<path d="M270.055 192.007L104.958 324.737L23.3368 162.289C17.4559 150.593 20.5503 136.332 30.7211 128.198L161.006 23.9199C164.347 21.2443 168.296 20.0198 172.168 20.0734C172.194 20.0709 172.207 20.0696 172.233 20.0671C178.444 20.1752 184.468 23.6106 187.584 29.7198L270.04 191.982L270.055 192.007Z" fill="#2F0B41" stroke="black" stroke-width="1.00421" stroke-miterlimit="10"/>
<path d="M274.687 251.928L145.899 355.667C143.692 357.439 141.247 358.626 138.723 359.251L138.557 359.294C130.404 361.264 121.47 357.551 117.362 349.392L104.97 324.723L270.067 191.993L282.315 216.093C288.537 228.352 285.352 243.324 274.699 251.914L274.687 251.928Z" fill="#2F0B41" stroke="black" stroke-width="1.00421" stroke-miterlimit="10"/>
<path d="M172.196 20.0839C168.322 20.0172 164.362 21.2561 161.033 23.9304L30.7484 128.209C20.5789 136.355 17.4833 150.604 23.3641 162.3L104.985 324.748L95.903 325.616L14.8021 167.036C8.04732 153.848 11.5234 137.644 23.0632 128.453L151.474 26.1411C157.341 21.4636 164.781 19.2966 172.21 20.0957L172.196 20.0839Z" fill="#500FA2" stroke="black" stroke-width="1.00421" stroke-miterlimit="10"/>
<path d="M138.558 359.306L135.103 360.338C124.315 363.566 112.785 358.592 107.619 348.509L95.9023 325.602L104.971 324.736L117.364 349.404C121.471 357.563 130.404 361.263 138.558 359.306Z" fill="#500FA2" stroke="black" stroke-width="1.00421" stroke-miterlimit="10"/>
<path d="M112.516 294.377C110.205 294.605 108.03 293.42 106.977 291.372L37.9233 157.398C35.8804 153.429 36.9392 148.507 40.4388 145.681L170.363 41.3259C170.929 40.8742 171.589 40.598 172.294 40.5286C173.782 40.382 175.181 41.1418 175.867 42.4732L247.934 182.274C248.876 184.109 248.395 186.373 246.774 187.681L115.5 293.146C114.627 293.839 113.599 294.27 112.502 294.378L112.516 294.377Z" fill="#FFCA10"/>
<path d="M172.355 41.2091C173.517 41.0946 174.701 41.6643 175.291 42.8073L247.357 182.608C248.156 184.166 247.75 186.093 246.374 187.192L115.1 292.657C114.302 293.303 113.386 293.657 112.459 293.748C110.514 293.94 108.532 292.987 107.557 291.09L38.5042 157.117C36.5904 153.412 37.5766 148.853 40.8434 146.222L170.767 41.867C171.246 41.4767 171.794 41.2775 172.356 41.2222M172.238 39.9139C171.403 39.9962 170.616 40.3245 169.952 40.8518L40.0277 145.207C36.2812 148.215 35.1485 153.488 37.3348 157.733L106.388 291.707C107.568 293.993 109.992 295.311 112.564 295.058C113.778 294.938 114.934 294.468 115.904 293.686L247.177 188.222C249.032 186.733 249.6 184.116 248.515 182.006L176.448 42.2049C175.635 40.6352 173.988 39.7416 172.225 39.9152L172.238 39.9139Z" fill="black"/>
<path d="M237.234 181.095L237.235 181.095L243.275 176.143L246.854 183.07C247.63 184.582 247.245 186.435 245.927 187.494L245.874 187.536L245.876 187.549L241.105 191.409L236.719 184.083C236.719 184.083 236.719 184.083 236.719 184.083C236.129 183.096 236.346 181.82 237.234 181.095Z" fill="white" stroke="black" stroke-width="0.251053"/>
<path d="M131.785 317.34L182.172 275.092C187.421 270.672 195.334 272.021 198.85 277.933C203.128 285.109 201.531 294.369 195.119 299.668L144.613 341.768C139.49 345.991 131.847 344.722 128.339 339.048C123.952 331.961 125.43 322.686 131.785 317.34Z" fill="#2F0B41" stroke="black" stroke-width="1.00421" stroke-miterlimit="10"/>
<path d="M76.0301 188.129C75.8196 187.72 75.9169 187.211 76.2616 186.905L76.2638 186.907L81.4019 182.564L81.402 182.564C81.8852 182.155 82.6213 182.305 82.9196 182.866C82.9197 182.866 82.9198 182.866 82.92 182.867L116.581 248.311L116.582 248.313C116.794 248.715 116.701 249.205 116.368 249.508L116.367 249.508L111.539 253.941L111.539 253.941C111.058 254.386 110.302 254.248 110.002 253.665L110.002 253.664L76.0301 188.129C76.0301 188.129 76.0301 188.129 76.0301 188.129Z" fill="white" stroke="black" stroke-width="0.251053"/>
<path d="M118.394 250.611C118.126 250.109 118.246 249.501 118.664 249.132L118.676 249.131L118.705 249.106L123.574 245.107C123.574 245.107 123.574 245.107 123.574 245.107C124.157 244.633 125.028 244.812 125.376 245.486L125.376 245.486L133.793 261.731C133.793 261.731 133.793 261.731 133.793 261.731C134.056 262.248 133.923 262.871 133.483 263.224L133.482 263.224L128.78 267.049C128.78 267.049 128.78 267.049 128.78 267.049C128.197 267.524 127.339 267.343 126.992 266.681L126.992 266.68L118.394 250.611C118.394 250.611 118.394 250.611 118.394 250.611Z" fill="white" stroke="black" stroke-width="0.251053"/>
<path d="M135.639 264.409C135.348 263.882 135.427 263.229 135.823 262.787L135.946 262.68L140.443 258.769C140.443 258.769 140.443 258.768 140.443 258.768C141.121 258.182 142.173 258.385 142.573 259.196L142.573 259.196L142.574 259.197L146.81 267.593L140.292 272.868L135.639 264.409L135.639 264.409Z" fill="white" stroke="black" stroke-width="0.251053"/>
<path d="M81.7472 180.297C82.071 180.954 82.9272 181.137 83.4867 180.673L81.7472 180.297ZM81.7472 180.297L72.9824 162.889L81.7472 180.297ZM73.0328 162.71L72.946 162.538L72.9448 162.539C72.8303 162.154 72.958 161.724 73.2756 161.46C73.2757 161.46 73.2757 161.46 73.2757 161.46L78.9441 156.762L78.9441 156.762C79.4412 156.35 80.1901 156.501 80.4907 157.086L80.4907 157.086L89.4658 174.523L89.4661 174.523C89.6944 174.962 89.5803 175.493 89.2121 175.799C89.212 175.799 89.212 175.799 89.2119 175.799L83.4071 180.576L83.4067 180.577C82.9102 180.988 82.1482 180.827 81.8598 180.241L81.8593 180.24L73.0328 162.71ZM89.5774 174.465L80.6024 157.029L89.5774 174.465Z" fill="white" stroke="black" stroke-width="0.251053"/>
<path d="M79.4745 154.574L75.3558 146.944L75.3554 146.943C75.1172 146.508 75.2404 145.967 75.6323 145.671L79.4745 154.574ZM79.4745 154.574L79.4796 154.573C79.7624 155.109 80.4373 155.256 80.9158 154.905L86.803 150.583L86.8049 150.582L86.8049 150.582C87.2064 150.298 87.3304 149.746 87.0915 149.31L87.0909 149.309L82.9437 141.565C82.6618 141.039 81.9729 140.884 81.497 141.245L81.4967 141.245L75.6324 145.671L79.4745 154.574Z" fill="white" stroke="black" stroke-width="0.251053"/>
<path d="M77.5352 130.524C77.2578 130.827 77.1982 131.298 77.4096 131.666L77.4099 131.667L81.3187 138.547L77.5352 130.524ZM77.5352 130.524L77.6423 130.438L83.6777 125.599L83.6778 125.599C84.1404 125.228 84.8127 125.36 85.1062 125.885L85.1063 125.885L89.025 132.87M77.5352 130.524L89.025 132.87M89.025 132.87C89.025 132.87 89.025 132.87 89.0251 132.87C89.2631 133.295 89.16 133.82 88.7828 134.112L88.7825 134.113L82.7363 138.834M89.025 132.87L82.7363 138.834M82.7363 138.834C82.7362 138.834 82.7361 138.834 82.7361 138.834M82.7363 138.834L82.7361 138.834M82.7361 138.834C82.2719 139.194 81.611 139.059 81.3188 138.547L82.7361 138.834Z" fill="white" stroke="black" stroke-width="0.251053"/>
<path d="M93.3142 103.831L98.1684 112.222L98.169 112.223C98.4328 112.669 98.3236 113.247 97.9089 113.57L97.9088 113.57L86.0973 122.8L86.0971 122.801C85.6189 123.176 84.9295 123.054 84.6019 122.554L84.6017 122.554L79.5755 114.928L93.3142 103.831Z" fill="white" stroke="black" stroke-width="0.251053"/>
<path d="M148.307 69.5762L144.557 62.4321L158.148 51.4566L162.033 59.6447C162.033 59.6448 162.033 59.6448 162.033 59.6449C162.435 60.5048 162.197 61.5254 161.462 62.1195C161.462 62.1196 161.462 62.1197 161.462 62.1198L151.329 70.2223C151.329 70.2224 151.328 70.2225 151.328 70.2226C150.341 71.0016 148.893 70.692 148.307 69.5763C148.307 69.5763 148.307 69.5762 148.307 69.5762Z" fill="white" stroke="black" stroke-width="0.251053"/>
<path d="M164.546 61.3731L164.555 61.3804L164.635 61.3107L169.886 56.7717C169.886 56.7716 169.886 56.7716 169.886 56.7715C170.312 56.4058 170.954 56.5193 171.227 56.9905L171.227 56.9905L171.227 56.9915L175.463 64.145C175.463 64.1451 175.463 64.1452 175.463 64.1453C175.697 64.5431 175.594 65.0641 175.231 65.3291L175.231 65.3291L175.23 65.33L169.963 69.2742C169.963 69.2744 169.963 69.2745 169.963 69.2746C169.543 69.5817 168.958 69.475 168.676 69.0371L164.456 62.4783C164.456 62.4782 164.456 62.4781 164.456 62.478C164.232 62.1233 164.273 61.6761 164.546 61.3731Z" fill="white" stroke="black" stroke-width="0.251053"/>
<path d="M183.195 59.5578L177.361 65.1338L177.36 65.134C176.97 65.5055 176.882 66.1007 177.141 66.5812C177.141 66.5814 177.141 66.5816 177.141 66.5818L180.703 72.9905C180.703 72.9906 180.703 72.9907 180.703 72.9908C181.088 73.6727 181.999 73.7998 182.552 73.2572L183.195 59.5578ZM183.195 59.5578L187.658 68.2212L182.552 73.257L183.195 59.5578Z" fill="white" stroke="black" stroke-width="0.251053"/>
<path d="M152.962 97.7797L152.949 97.781L158.314 93.1824C158.314 93.1824 158.314 93.1823 158.314 93.1822C158.764 92.8008 159.458 92.9214 159.75 93.4428L159.75 93.4429L163.575 100.265C163.575 100.265 163.575 100.265 163.575 100.265C163.784 100.643 163.713 101.131 163.406 101.429C163.406 101.429 163.406 101.429 163.406 101.429L158.016 106.577L158.016 106.577C157.57 107.005 156.856 106.899 156.551 106.367L156.551 106.366L152.449 99.2526L152.449 99.2526L152.449 99.2517C152.215 98.8541 152.305 98.3418 152.661 98.0378L152.962 97.7797Z" fill="white" stroke="black" stroke-width="0.251053"/>
<path d="M111.729 131.715L111.716 131.716L117.081 127.117C117.081 127.117 117.081 127.117 117.081 127.117C117.531 126.736 118.225 126.856 118.517 127.378L118.517 127.378L122.342 134.2C122.342 134.2 122.342 134.2 122.342 134.2C122.552 134.578 122.48 135.066 122.174 135.364C122.173 135.364 122.173 135.364 122.173 135.364L116.783 140.512L116.783 140.512C116.338 140.94 115.623 140.834 115.318 140.301L115.318 140.301L111.217 133.187L111.217 133.187L111.216 133.186C110.982 132.789 111.072 132.277 111.428 131.973L111.729 131.715Z" fill="white" stroke="black" stroke-width="0.251053"/>
<path d="M104.745 161.823L104.731 161.824L110.097 157.226C110.097 157.226 110.097 157.226 110.097 157.226C110.547 156.844 111.241 156.965 111.533 157.486L111.533 157.486L115.358 164.308C115.358 164.308 115.358 164.308 115.358 164.308C115.567 164.687 115.496 165.175 115.189 165.472C115.189 165.472 115.189 165.473 115.189 165.473L109.799 170.62L109.799 170.62C109.353 171.048 108.638 170.942 108.334 170.41L108.333 170.41L104.232 163.296L104.232 163.296L104.232 163.295C103.998 162.897 104.088 162.385 104.443 162.081L104.745 161.823Z" fill="white" stroke="black" stroke-width="0.251053"/>
<path d="M207.5 188.328L207.487 188.329L212.852 183.731C212.852 183.731 212.852 183.731 212.852 183.73C213.302 183.349 213.996 183.47 214.288 183.991L214.288 183.991L218.113 190.813C218.113 190.813 218.113 190.813 218.113 190.813C218.323 191.192 218.251 191.68 217.945 191.977C217.944 191.977 217.944 191.977 217.944 191.978L212.554 197.125L212.554 197.125C212.109 197.553 211.394 197.447 211.089 196.915L211.089 196.915L206.988 189.801L206.988 189.801L206.987 189.8C206.753 189.402 206.843 188.89 207.199 188.586L207.5 188.328Z" fill="white" stroke="black" stroke-width="0.251053"/>
<path d="M175.327 100.871L175.314 100.873L180.679 96.2741C180.679 96.274 180.679 96.274 180.679 96.2739C181.129 95.8925 181.824 96.013 182.115 96.5345L182.116 96.5346L185.94 103.356C185.94 103.357 185.94 103.357 185.94 103.357C186.15 103.735 186.078 104.223 185.772 104.521C185.772 104.521 185.771 104.521 185.771 104.521L180.382 109.669L180.381 109.669C179.936 110.097 179.221 109.991 178.916 109.458L178.916 109.458L174.815 102.344L174.815 102.344L174.814 102.343C174.581 101.946 174.671 101.434 175.026 101.129L175.327 100.871Z" fill="white" stroke="black" stroke-width="0.251053"/>
<path d="M135.466 222.181L135.466 222.181L135.468 222.18L140.322 218.022L140.322 218.022C141.026 217.419 142.093 217.609 142.544 218.42L142.544 218.42L145.863 224.325L145.863 224.325C146.197 224.916 146.085 225.672 145.598 226.132L145.598 226.132L140.978 230.545C140.978 230.545 140.978 230.545 140.978 230.545C140.29 231.195 139.176 231.034 138.701 230.213L135.148 224.053L135.148 224.053C134.786 223.427 134.919 222.634 135.466 222.181Z" fill="white" stroke="black" stroke-width="0.251053"/>
<path d="M159.883 230.373L159.883 230.373L159.884 230.372L164.738 226.215L164.738 226.215C165.442 225.611 166.51 225.801 166.96 226.612L166.96 226.612L170.28 232.517L170.28 232.517C170.613 233.108 170.502 233.864 170.015 234.324L170.014 234.325L165.394 238.737C165.394 238.737 165.394 238.737 165.394 238.737C164.707 239.388 163.593 239.226 163.117 238.406L159.564 232.246L159.564 232.246C159.202 231.619 159.335 230.826 159.883 230.373Z" fill="white" stroke="black" stroke-width="0.251053"/>
<path d="M143.919 160.286L143.896 160.277C143.631 160.542 143.559 160.959 143.741 161.299L143.741 161.3L158.003 188.29C158.003 188.29 158.003 188.291 158.003 188.291C158.268 188.777 158.897 188.898 159.307 188.549L159.307 188.548L179.034 171.877C179.343 171.615 179.438 171.179 179.244 170.818L179.244 170.817L165.13 144.01L143.919 160.286ZM143.919 160.286L143.976 160.238M143.919 160.286L143.976 160.238M143.976 160.238L163.838 143.753M143.976 160.238L163.838 143.753M163.838 143.753C163.838 143.753 163.838 143.753 163.838 143.753M163.838 143.753L163.838 143.753M163.838 143.753C164.252 143.414 164.881 143.539 165.13 144.01L163.838 143.753Z" fill="white" stroke="black" stroke-width="0.251053"/>
<path d="M138.286 151.325L138.286 151.325L142.763 159.938L142.764 159.939C142.974 160.337 142.859 160.825 142.503 161.092C142.503 161.092 142.503 161.092 142.503 161.092L136.989 165.193C136.561 165.511 135.938 165.375 135.674 164.9C135.674 164.9 135.674 164.9 135.674 164.899L130.949 156.31L130.949 156.309C130.728 155.913 130.841 155.402 131.219 155.133L131.219 155.133L136.981 151.008L136.982 151.008C137.421 150.688 138.032 150.836 138.286 151.325Z" fill="white" stroke="black" stroke-width="0.251053"/>
<path d="M165.555 142.118C165.134 142.431 164.536 142.304 164.265 141.845L164.264 141.833L164.252 141.811L159.851 133.733C159.851 133.733 159.851 133.733 159.851 133.733C159.64 133.343 159.735 132.847 160.086 132.584L160.086 132.584L160.088 132.582L166.478 127.616L166.479 127.616C166.917 127.273 167.55 127.408 167.816 127.907C167.816 127.907 167.816 127.907 167.816 127.907L172.247 136.3C172.457 136.699 172.341 137.198 171.977 137.452L171.977 137.452L171.975 137.453L165.556 142.117L165.556 142.117L165.555 142.118Z" fill="white" stroke="black" stroke-width="0.251053"/>
<path d="M137.399 149.18L137.4 149.179L133.246 141.925L133.246 141.925L133.246 141.924C133.028 141.552 133.121 141.081 133.451 140.819L133.451 140.819L153.445 124.771C153.445 124.771 153.445 124.771 153.446 124.771C153.862 124.441 154.465 124.559 154.713 125.017L154.713 125.018L158.794 132.332C158.794 132.332 158.794 132.332 158.794 132.333C159.001 132.706 158.906 133.165 158.576 133.428L158.576 133.428L138.653 149.404L138.652 149.404C138.258 149.724 137.668 149.62 137.399 149.18Z" fill="white" stroke="black" stroke-width="0.251053"/>
<path d="M135.189 166.849L135.192 166.852C135.658 166.503 136.331 166.65 136.599 167.173L136.599 167.173L150.564 194.352L150.565 194.352C150.777 194.765 150.662 195.268 150.306 195.548C150.306 195.548 150.306 195.548 150.306 195.548L144.514 200.046C144.051 200.405 143.379 200.259 143.11 199.736L143.109 199.735L128.879 172.662C128.879 172.662 128.879 172.662 128.879 172.661C128.667 172.248 128.782 171.734 129.148 171.453L135.189 166.849ZM135.189 166.849L129.148 171.453L135.189 166.849Z" fill="white" stroke="black" stroke-width="0.251053"/>
<path d="M157.578 190.3L157.633 190.258L157.632 190.248C158.093 189.952 158.713 190.107 158.969 190.598L158.969 190.598L163.014 198.232C163.228 198.66 163.112 199.173 162.735 199.454C162.735 199.454 162.735 199.454 162.735 199.454L157.155 203.561L157.155 203.562C156.702 203.896 156.065 203.76 155.787 203.26L151.658 195.845C151.431 195.418 151.536 194.894 151.911 194.615L151.911 194.615L151.912 194.614L157.578 190.3Z" fill="white" stroke="black" stroke-width="0.251053"/>
<path d="M164.269 198.582L164.269 198.582L164.271 198.58L184.733 181.654C184.733 181.654 184.733 181.654 184.733 181.653C185.138 181.326 185.731 181.42 186.012 181.855L186.012 181.856L190.025 188.025L190.13 187.956L190.025 188.025C190.267 188.397 190.198 188.903 189.859 189.189L189.859 189.189L169.054 206.797C169.054 206.797 169.054 206.797 169.054 206.797C168.628 207.15 167.986 207.026 167.723 206.542C167.723 206.542 167.723 206.542 167.723 206.542L164.053 199.68C164.052 199.68 164.052 199.68 164.052 199.679C163.855 199.301 163.941 198.842 164.269 198.582Z" fill="white" stroke="black" stroke-width="0.251053"/>
<path d="M185.008 179.786L180.475 172.432L180.489 172.431L180.382 172.259C180.123 171.838 180.223 171.292 180.623 170.997L180.623 170.997L186.701 166.485C186.701 166.485 186.701 166.485 186.702 166.485C187.147 166.161 187.77 166.279 188.055 166.74L188.056 166.74L192.683 174.148L192.683 174.149C192.941 174.556 192.842 175.116 192.454 175.409L192.454 175.41L186.373 180.041C186.373 180.041 186.373 180.041 186.373 180.041C185.929 180.376 185.294 180.26 185.008 179.787L185.008 179.786Z" fill="white" stroke="black" stroke-width="0.251053"/>
<path d="M178.47 132.918L178.47 132.918C178.933 132.571 179.596 132.728 179.865 133.241C179.865 133.241 179.865 133.241 179.865 133.241L193.656 159.683L193.656 159.683C193.867 160.083 193.764 160.585 193.408 160.877C193.408 160.877 193.408 160.878 193.408 160.878L188.493 164.788L188.492 164.788C188.032 165.158 187.346 165.004 187.077 164.479L187.038 164.404L187.025 164.405L173.301 137.785C173.301 137.785 173.301 137.785 173.301 137.785C173.09 137.374 173.214 136.857 173.57 136.576L178.47 132.918Z" fill="white" stroke="black" stroke-width="0.251053"/>
<path d="M54.2111 162.866L54.1961 162.854L58.7642 159.087L58.7646 159.087C59.5663 158.42 60.7715 158.648 61.2975 159.561L65.0254 166.048C65.4491 166.786 65.2686 167.741 64.5982 168.26L64.5981 168.26L59.7477 172.033C59.7476 172.033 59.7476 172.033 59.7475 172.033C58.9283 172.666 57.7467 172.421 57.2475 171.52L57.2474 171.52L53.6852 165.123L53.6848 165.122C53.2752 164.397 53.4579 163.479 54.0928 162.963L54.2111 162.866Z" fill="white" stroke="black" stroke-width="0.251053"/>
<path d="M367.971 103.504L376.662 68.6661C377.11 66.8759 375.49 65.2569 373.711 65.7181L344.673 73.3908C341.692 74.1787 339.084 76.0032 337.302 78.5298L306.653 122.032L367.971 103.504Z" fill="#51176D" stroke="black" stroke-width="1.00421" stroke-miterlimit="10"/>
<path d="M180.825 152.176C175.303 152.704 174.829 157.713 175.977 162.131C177.125 166.548 180.054 170.107 185.209 168.741" fill="black"/>
<path d="M175.619 160.273L160.798 163.688L161.683 167.534L176.695 164.194L175.619 160.273Z" fill="black"/>
<path d="M155.921 162.976L161.367 158.841C162.273 158.159 163.56 158.46 164.074 159.47L167.52 166.302C167.906 167.072 167.707 168.018 167.036 168.559L161.919 172.701C161.041 173.407 159.746 173.16 159.194 172.167L155.42 165.327C154.978 164.522 155.186 163.523 155.908 162.977L155.921 162.976Z" fill="black"/>
<path d="M364.855 102.703C364.855 102.703 270.3 129.146 270.325 129.421C261.088 131.707 244.339 127.973 221.156 132.942L192.332 140.673C186.744 142.174 182.262 146.52 180.824 152.164C178.98 159.343 181.563 166.615 187.449 170.54C190.217 172.381 193.647 172.887 196.86 172.064L236.169 162.072C248.44 157.048 252.815 147.363 273.291 140.363L367.742 112.805" fill="#50176D"/>
<path d="M364.855 102.703C364.855 102.703 270.3 129.146 270.325 129.421C261.088 131.707 244.339 127.973 221.156 132.942L192.332 140.673C186.744 142.174 182.262 146.52 180.824 152.164C178.98 159.343 181.563 166.615 187.449 170.54C190.217 172.381 193.647 172.887 196.86 172.064L236.169 162.072C248.44 157.048 252.815 147.363 273.291 140.363L367.742 112.805" stroke="black" stroke-width="1.00421" stroke-miterlimit="10"/>
<path d="M222.545 132.663C215.453 138.252 215.2 158.503 231.638 163.246L222.545 132.663Z" fill="#50176D"/>
<path d="M222.545 132.663C215.453 138.252 215.2 158.503 231.638 163.246" stroke="black" stroke-width="1.00421" stroke-miterlimit="10"/>
<path d="M211.361 135.584C201.441 142.331 203.785 162.307 219.461 166.342L211.361 135.584Z" fill="#50176D"/>
<path d="M211.361 135.584C201.441 142.331 203.785 162.307 219.461 166.342" stroke="black" stroke-width="1.00421" stroke-miterlimit="10"/>
<path d="M198.995 138.898C187.296 148.21 195.9 167.694 206.017 169.759L198.995 138.898Z" fill="#50176D"/>
<path d="M198.995 138.898C187.296 148.21 195.9 167.694 206.017 169.759" stroke="black" stroke-width="1.00421" stroke-miterlimit="10"/>
<path d="M301.597 127.81L363.785 110.456L364.403 112.29L329.912 153.962C327.451 156.937 324.209 159.14 320.559 160.336L294.55 168.857C291.675 169.794 288.922 167.132 289.734 164.195L299.129 130.296C299.462 129.086 300.408 128.135 301.597 127.81Z" fill="#51176D" stroke="black" stroke-width="1.00421" stroke-miterlimit="10"/>
<path d="M296.794 122.868L274.301 85.9534C273.031 83.8773 274.087 81.1553 276.41 80.4833L303.947 72.5966C307.598 71.5462 311.504 72.0995 314.733 74.1075L363.194 104.291L363.401 106.495L301.394 124.665C299.633 125.178 297.742 124.445 296.781 122.869L296.794 122.868Z" fill="#2F0B41" stroke="black" stroke-width="1.00421" stroke-miterlimit="10"/>
<path d="M276.598 89.7249L274.3 85.9534C273.031 83.8773 274.087 81.1553 276.409 80.4833L303.947 72.5966C307.597 71.5462 311.503 72.0995 314.733 74.1075L348.262 94.9912L276.598 89.7249Z" fill="#500FA2" stroke="black" stroke-width="1.00421" stroke-miterlimit="10"/>
<path d="M366.716 113.071C368.731 112.509 369.74 109.773 368.97 106.959C368.2 104.146 365.943 102.321 363.928 102.883C361.914 103.446 360.904 106.182 361.674 108.995C362.444 111.808 364.701 113.633 366.716 113.071Z" fill="#2F0B41" stroke="black" stroke-width="1.00421" stroke-miterlimit="10"/>
<path d="M273.305 140.374C267.333 134.565 270.339 129.432 270.339 129.432L273.305 140.374Z" fill="#50176D"/>
<path d="M273.305 140.374C267.333 134.565 270.339 129.432 270.339 129.432" stroke="black" stroke-width="1.00421" stroke-miterlimit="10"/>
<path d="M186.916 166.104C186.337 166.225 186.131 166.96 186.562 167.368C189.205 169.83 191.895 171.677 198.677 169.772C206.316 167.625 229.279 162.969 238.057 158.86C246.835 154.752 252.391 144.796 271.938 139.076L270.663 136.656C256.068 141.228 245.647 146.83 237.689 153.111C234.743 155.246 224.609 157.763 186.916 166.104Z" fill="black"/>
<g filter="url(#filter0_d_1747_458)">
<path d="M139.335 336.13L134.505 325.782L135.75 324.682L140.564 335.005L139.322 336.131L139.335 336.13ZM140.285 335.271L139.665 333.946L144.089 329.972L144.708 331.284L140.285 335.271Z" fill="white"/>
<path d="M142.176 320.953C141.979 321.118 141.774 321.191 141.545 321.147C141.317 321.103 141.158 320.96 141.046 320.747C140.932 320.507 140.909 320.245 140.976 319.961C141.043 319.677 141.18 319.439 141.377 319.274C141.585 319.095 141.79 319.022 142.006 319.067C142.221 319.112 142.392 319.24 142.493 319.481C142.592 319.71 142.616 319.972 142.562 320.254C142.496 320.552 142.372 320.788 142.164 320.967L142.176 320.953ZM145.745 330.343L142.323 323.027L143.523 321.971L146.956 329.259L145.745 330.343Z" fill="white"/>
<path d="M145.278 322.025L144.738 320.875L148.861 317.312L149.401 318.461L145.279 322.038L145.278 322.025ZM149.309 327.128L145.489 319.083C145.128 318.312 145.011 317.597 145.149 316.922C145.286 316.248 145.68 315.628 146.343 315.06C146.54 314.896 146.764 314.741 147.032 314.623C147.299 314.504 147.58 314.397 147.877 314.315L147.928 315.764C147.709 315.825 147.516 315.884 147.363 315.952C147.21 316.019 147.085 316.098 146.986 316.174C146.703 316.413 146.545 316.706 146.507 317.027C146.47 317.348 146.558 317.736 146.755 318.166L150.508 326.046L149.295 327.116L149.309 327.128Z" fill="white"/>
<path d="M156.223 321.264C155.599 321.801 154.983 322.126 154.347 322.228C153.724 322.329 153.134 322.215 152.59 321.886C152.047 321.557 151.605 321.033 151.248 320.289C150.891 319.546 150.717 318.784 150.724 317.978C150.73 317.173 150.885 316.405 151.215 315.673C151.544 314.941 152.014 314.301 152.638 313.777C153.213 313.285 153.808 313.015 154.409 312.956C155.009 312.897 155.579 313.079 156.127 313.46C156.663 313.856 157.139 314.456 157.528 315.262L156.317 316.306C156.038 315.686 155.72 315.229 155.377 314.933C155.034 314.637 154.678 314.487 154.311 314.51C153.943 314.52 153.563 314.689 153.198 315.016C152.794 315.359 152.5 315.758 152.317 316.211C152.121 316.666 152.046 317.149 152.065 317.661C152.085 318.174 152.225 318.702 152.486 319.257C152.729 319.761 153.025 320.127 153.373 320.331C153.721 320.547 154.11 320.615 154.513 320.562C154.916 320.496 155.319 320.298 155.71 319.955C156.126 319.598 156.418 319.186 156.588 318.734C156.758 318.282 156.848 317.811 156.843 317.323L158.192 316.939C158.199 317.453 158.14 317.974 158.001 318.476C157.863 318.991 157.644 319.488 157.343 319.953C157.043 320.418 156.674 320.864 156.21 321.266L156.223 321.264ZM152.186 319.88L151.662 318.744L156.333 314.72L156.867 315.829L152.185 319.867L152.186 319.88Z" fill="white"/>
<path d="M167.754 311.301C166.848 312.063 165.942 312.535 165.034 312.691C164.127 312.859 163.285 312.718 162.522 312.291C161.759 311.865 161.129 311.161 160.658 310.165C160.172 309.157 159.945 308.097 159.965 306.999C159.985 305.902 160.244 304.833 160.745 303.807C161.232 302.783 161.929 301.896 162.838 301.159C163.328 300.755 163.854 300.452 164.389 300.241C164.924 300.043 165.455 299.938 165.982 299.939C166.495 299.941 166.965 300.04 167.391 300.236L166.741 301.791C166.424 301.638 166.088 301.565 165.706 301.563C165.324 301.561 164.936 301.639 164.554 301.782C164.158 301.927 163.808 302.133 163.465 302.418C162.802 302.958 162.308 303.614 161.954 304.362C161.599 305.109 161.419 305.892 161.414 306.711C161.396 307.532 161.585 308.318 161.943 309.075C162.299 309.818 162.756 310.354 163.325 310.681C163.882 311.009 164.511 311.119 165.173 311.014C165.848 310.908 166.516 310.565 167.177 310.011C167.716 309.562 168.13 309.033 168.432 308.436C168.734 307.838 168.903 307.228 168.938 306.591C168.973 305.954 168.839 305.347 168.564 304.78L169.714 303.65C170.133 304.506 170.332 305.397 170.297 306.325C170.262 307.252 170.026 308.147 169.602 308.994C169.165 309.855 168.562 310.614 167.766 311.286L167.754 311.301ZM166.418 306.694L165.854 305.548L169.236 302.734L169.721 303.729L169.148 304.392L166.404 306.682L166.418 306.694Z" fill="white"/>
<path d="M175.885 304.454C175.247 304.979 174.604 305.293 173.967 305.395C173.331 305.497 172.741 305.384 172.2 305.081C171.658 304.765 171.204 304.255 170.864 303.55C170.511 302.845 170.338 302.097 170.348 301.331C170.358 300.564 170.529 299.821 170.86 299.116C171.192 298.41 171.678 297.808 172.291 297.299C172.929 296.774 173.573 296.473 174.211 296.384C174.848 296.295 175.438 296.408 175.98 296.724C176.522 297.04 176.963 297.551 177.316 298.255C177.669 298.96 177.84 299.682 177.83 300.448C177.818 301.202 177.648 301.944 177.328 302.636C176.997 303.342 176.524 303.942 175.899 304.466L175.885 304.454ZM175.291 303.272C175.671 302.957 175.966 302.572 176.15 302.132C176.347 301.69 176.437 301.219 176.431 300.718C176.426 300.217 176.304 299.741 176.076 299.262C175.836 298.784 175.555 298.442 175.206 298.226C174.857 298.009 174.48 297.915 174.075 297.954C173.671 297.994 173.278 298.165 172.898 298.479C172.504 298.795 172.21 299.181 172.014 299.636C171.817 300.09 171.728 300.561 171.735 301.075C171.74 301.576 171.863 302.066 172.09 302.532C172.33 303.009 172.611 303.351 172.96 303.568C173.309 303.784 173.685 303.866 174.088 303.813C174.493 303.773 174.897 303.575 175.29 303.259L175.291 303.272Z" fill="white"/>
<path d="M182.403 299.065C181.641 299.681 180.958 299.986 180.35 299.967C179.742 299.947 179.278 299.611 178.955 298.956C178.603 298.265 178.565 297.543 178.816 296.819C179.067 296.095 179.599 295.422 180.384 294.777L182.165 293.348L182.678 294.366L181.229 295.538C180.64 296.019 180.271 296.451 180.134 296.834C179.997 297.217 180.004 297.586 180.18 297.925C180.34 298.239 180.578 298.4 180.892 298.383C181.208 298.378 181.562 298.211 181.967 297.881C182.323 297.595 182.57 297.267 182.747 296.893C182.911 296.521 182.995 296.13 182.999 295.734C183.002 295.337 182.916 294.963 182.74 294.611L183.317 294.145C183.781 295.063 183.939 295.944 183.806 296.802C183.672 297.66 183.212 298.405 182.427 299.049L182.403 299.065ZM184.187 297.385L183.534 296.275L182.361 293.923C182.12 293.432 181.85 293.062 181.577 292.812C181.304 292.562 181.017 292.445 180.714 292.448C180.412 292.452 180.082 292.59 179.727 292.889C179.395 293.159 179.133 293.462 178.953 293.81C178.774 294.157 178.678 294.549 178.664 294.986L177.348 295.433C177.348 294.997 177.402 294.569 177.52 294.122C177.639 293.688 177.824 293.261 178.103 292.851C178.369 292.442 178.729 292.05 179.172 291.703C179.774 291.221 180.329 290.942 180.862 290.863C181.394 290.785 181.88 290.908 182.317 291.235C182.755 291.561 183.157 292.076 183.498 292.794L185.316 296.456L184.173 297.373L184.187 297.385Z" fill="white"/>
<path d="M186.842 295.214L182.094 285.783L183.317 284.83L188.062 294.235L186.842 295.214Z" fill="white"/>
<path d="M192.094 291.216C191.639 291.578 191.2 291.832 190.778 291.966C190.355 292.1 189.951 292.153 189.591 292.11C189.231 292.066 188.904 291.94 188.634 291.729L189.438 290.409C189.717 290.579 190.039 290.64 190.403 290.591C190.769 290.555 191.111 290.402 191.443 290.132C191.812 289.845 192.074 289.529 192.242 289.196C192.409 288.862 192.423 288.571 192.295 288.319C192.167 288.068 191.985 287.954 191.734 287.952C191.484 287.95 191.163 288.048 190.77 288.218L190.087 288.537C189.403 288.841 188.806 288.953 188.311 288.87C187.803 288.788 187.452 288.545 187.241 288.104C186.918 287.449 186.859 286.795 187.075 286.114C187.291 285.446 187.8 284.802 188.588 284.183C188.969 283.881 189.359 283.671 189.742 283.528C190.125 283.398 190.477 283.35 190.809 283.384C191.142 283.417 191.43 283.547 191.674 283.76L190.892 285.039C190.651 284.851 190.383 284.798 190.059 284.857C189.749 284.927 189.42 285.078 189.088 285.348C188.744 285.62 188.519 285.906 188.402 286.221C188.286 286.536 188.299 286.825 188.429 287.103C188.508 287.253 188.66 287.331 188.898 287.334C189.135 287.337 189.431 287.255 189.812 287.098L190.596 286.731C191.065 286.513 191.503 286.404 191.885 286.406C192.268 286.408 192.605 286.493 192.869 286.652C193.147 286.81 193.353 287.04 193.497 287.33C193.703 287.718 193.768 288.148 193.705 288.616C193.641 289.071 193.47 289.523 193.195 289.973C192.906 290.424 192.534 290.83 192.079 291.192L192.094 291.216Z" fill="white"/>
</g>
<defs>
<filter id="filter0_d_1747_458" x="130.488" y="279.356" width="67.2569" height="60.7914" filterUnits="userSpaceOnUse" color-interpolation-filters="sRGB">
<feFlood flood-opacity="0" result="BackgroundImageFix"/>
<feColorMatrix in="SourceAlpha" type="matrix" values="0 0 0 0 0 0 0 0 0 0 0 0 0 0 0 0 0 0 127 0" result="hardAlpha"/>
<feOffset/>
<feGaussianBlur stdDeviation="2.00842"/>
<feComposite in2="hardAlpha" operator="out"/>
<feColorMatrix type="matrix" values="0 0 0 0 1 0 0 0 0 1 0 0 0 0 1 0 0 0 0.5 0"/>
<feBlend mode="normal" in2="BackgroundImageFix" result="effect1_dropShadow_1747_458"/>
<feBlend mode="normal" in="SourceGraphic" in2="effect1_dropShadow_1747_458" result="shape"/>
</filter>
</defs>
</svg>
