<svg width="138" height="103" viewBox="0 0 138 103" fill="none" xmlns="http://www.w3.org/2000/svg">
<g id="Group 14593">
<path id="Vector" d="M13.4545 79.5877C12.7193 77.7222 12.5489 75.6781 12.8986 73.5316C14.9267 60.9002 34.7489 44.3055 61.9496 33.585C89.1503 22.8646 114.948 21.4794 125.049 29.3305C126.769 30.6612 128.039 32.2719 128.774 34.1375L124.493 23.2744C119.426 10.4189 89.5102 10.1723 57.6682 22.722C25.8263 35.2716 4.1065 55.8692 9.17314 68.7247L13.4545 79.5877Z" fill="#FFCE22" stroke="black"/>
<path id="Vector_2" d="M73.2365 29.6359C96.0567 22.6578 116.36 22.577 125.049 29.3305C126.769 30.6612 128.039 32.2719 128.774 34.1375L124.493 23.2744C120.032 11.9542 96.3013 10.411 68.9551 18.7729L73.2365 29.6359Z" fill="#500FA3"/>
<path id="Vector_3" d="M13.4545 79.5877C12.7193 77.7222 12.5489 75.6781 12.8986 73.5316C14.9267 60.9002 34.7489 44.3055 61.9496 33.585C89.1503 22.8646 114.948 21.4794 125.049 29.3305C126.769 30.6612 128.039 32.2719 128.774 34.1375L124.493 23.2744C119.426 10.4189 89.5102 10.1723 57.6682 22.722C25.8263 35.2716 4.1065 55.8692 9.17314 68.7247L13.4545 79.5877Z" stroke="black"/>
<path id="Vector_4" d="M80.2955 80.1336C112.137 67.5839 133.836 46.98 128.774 34.1373C128.039 32.2717 126.769 30.661 125.049 29.3303C114.948 21.4792 89.1503 22.8644 61.9496 33.5848C34.7489 44.3053 14.9267 60.9 12.8986 73.5314C12.5489 75.6779 12.7193 77.722 13.4545 79.5875C18.5161 92.4303 48.4536 92.6832 80.2955 80.1336Z" fill="#131313" stroke="black"/>
<path id="Vector_5" d="M80.2955 80.1338L117.194 25.7223C104.545 22.4104 83.6955 25.0144 61.9495 33.585C34.7488 44.3054 14.9266 60.9002 12.8986 73.5316C12.5488 75.6781 12.7192 77.7222 13.4544 79.5877C18.5161 92.4305 48.4535 92.6834 80.2955 80.1338Z" fill="#FFCA10"/>
<path id="Vector_6" d="M80.2955 80.1336C112.137 67.5839 133.836 46.98 128.774 34.1372C128.039 32.2717 126.769 30.661 125.049 29.3303C114.948 21.4792 89.1503 22.8644 61.9496 33.5848C34.7489 44.3053 14.9267 60.9 12.8986 73.5314C12.5489 75.6779 12.7193 77.722 13.4545 79.5875C18.5161 92.4303 48.4536 92.6832 80.2955 80.1336Z" stroke="black"/>
</g>
</svg>
