<svg width="138" height="70" viewBox="0 0 138 70" fill="none" xmlns="http://www.w3.org/2000/svg">
    <g id="Group 343">
        <path id="Vector"
            d="M13.4543 46.588C12.7191 44.7225 12.5487 42.6783 12.8985 40.5318C14.9265 27.9005 34.7487 11.3057 61.9494 0.585277C89.1501 -10.1351 114.948 -11.5203 125.049 -3.66923C126.769 -2.33854 128.039 -0.727808 128.774 1.1377L124.493 -9.72537C119.426 -22.5808 89.51 -22.8274 57.668 -10.2778C25.8261 2.27186 4.10632 22.8694 9.17296 35.7249L13.4543 46.588Z"
            fill="#FFCE22" stroke="black" />
        <path id="Vector_2"
            d="M73.2363 -3.36386C96.0566 -10.3419 116.36 -10.4227 125.049 -3.66923C126.769 -2.33854 128.039 -0.727808 128.774 1.1377L124.493 -9.72537C120.031 -21.0456 96.3012 -22.5887 68.9549 -14.2269L73.2363 -3.36386Z"
            fill="#500FA3" />
        <path id="Vector_3"
            d="M13.4543 46.588C12.7191 44.7225 12.5487 42.6783 12.8985 40.5318C14.9265 27.9005 34.7487 11.3057 61.9494 0.585277C89.1501 -10.1351 114.948 -11.5204 125.049 -3.66923C126.769 -2.33854 128.039 -0.727808 128.774 1.1377L124.493 -9.72537C119.426 -22.5808 89.51 -22.8274 57.668 -10.2778C25.8261 2.27187 4.10631 22.8694 9.17296 35.7249L13.4543 46.588Z"
            stroke="black" />
        <path id="Vector_4"
            d="M80.2953 47.1338C112.137 34.5842 133.836 13.9803 128.774 1.13749C128.039 -0.728009 126.769 -2.33874 125.049 -3.66943C114.948 -11.5206 89.15 -10.1354 61.9493 0.585076C34.7486 11.3055 14.9264 27.9003 12.8983 40.5316C12.5486 42.6781 12.719 44.7223 13.4542 46.5878C18.5159 59.4306 48.4533 59.6835 80.2953 47.1338Z"
            fill="#131313" stroke="black" />
        <path id="Vector_5"
            d="M80.2953 47.134L117.194 -7.27743C104.545 -10.5894 83.6953 -7.98534 61.9493 0.585261C34.7486 11.3057 14.9264 27.9005 12.8984 40.5318C12.5486 42.6783 12.719 44.7225 13.4542 46.588C18.5159 59.4307 48.4533 59.6837 80.2953 47.134Z"
            fill="#FFCA10" />
        <path id="Vector_6"
            d="M80.2953 47.1338C112.137 34.5842 133.836 13.9803 128.774 1.13749C128.039 -0.728009 126.769 -2.33874 125.049 -3.66943C114.948 -11.5206 89.15 -10.1354 61.9493 0.585075C34.7486 11.3055 14.9264 27.9003 12.8983 40.5316C12.5486 42.6781 12.719 44.7223 13.4542 46.5878C18.5159 59.4306 48.4533 59.6835 80.2953 47.1338Z"
            stroke="black" />
    </g>
</svg>
    