<svg width="346" height="341" viewBox="0 0 346 341" fill="none" xmlns="http://www.w3.org/2000/svg">
<path d="M202.027 183.269L175.137 210.752L135.12 251.651L135.077 251.712L133.701 253.106L96.5845 291.056C88.7542 300.711 65.7027 295.022 45.1351 278.357C24.5674 261.693 14.2187 240.345 22.049 230.69L51.3803 186.841L52.7507 184.785L84.3295 137.599L105.868 105.368C108.713 120.244 122.631 140.145 143.564 157.107C164.497 174.069 186.862 183.585 202.026 183.29L202.027 183.269Z" fill="#FFCA10" stroke="black" stroke-width="0.888672" stroke-linejoin="round"/>
<path d="M202.006 183.29L202.027 183.269L202.027 183.29C202.02 183.29 202.013 183.29 202.006 183.29L175.137 210.751L135.12 251.651L135.077 251.712L133.701 253.106L102.911 284.588L132.732 147.48C136.088 150.755 139.707 153.981 143.564 157.107C164.488 174.061 186.842 183.576 202.006 183.29Z" fill="#F4B000"/>
<path d="M202.027 183.269L175.137 210.751L135.12 251.651L135.077 251.712L133.701 253.106L102.911 284.588L132.732 147.48C136.088 150.755 139.707 153.981 143.564 157.107C164.497 174.068 186.862 183.585 202.027 183.29L202.027 183.269Z" stroke="black" stroke-width="0.888672" stroke-linejoin="round"/>
<path d="M175.136 210.772L135.098 251.671L135.055 251.732L133.679 253.126C123.909 261.683 99.8221 255.164 78.1784 237.629C56.5346 220.093 45.3287 198.25 51.3798 186.819L52.7497 184.785L84.3284 137.599C78.5644 148.23 92.2833 171.411 116.201 190.796C140.119 210.181 166.099 218.932 175.115 210.771L175.136 210.772Z" fill="#500FA2" stroke="black" stroke-width="0.444336" stroke-linejoin="round"/>
<path d="M135.098 251.671L175.136 210.771L175.115 210.771C170.24 215.184 160.405 214.651 148.618 210.167C140.447 207.059 131.339 202.051 122.294 195.476L109.372 254.873C119.756 257.944 128.63 257.548 133.68 253.126L135.056 251.732L135.098 251.671Z" fill="#2F0B41"/>
<path d="M137.698 124.805L93.9667 325.59" stroke="#2F0B41" stroke-width="0.444336" stroke-linejoin="round"/>
<path d="M223.716 168.91C222.588 170.31 221.197 171.456 219.584 172.328C220.342 169.949 220.569 167.227 220.307 164.246C218.894 149.113 204.516 127.653 182.182 109.544C159.848 91.4343 135.873 81.8399 120.758 83.5614C117.772 83.9065 115.149 84.6937 112.97 85.9249C113.486 84.1601 114.328 82.5886 115.456 81.1889C126.074 68.1065 158.913 77.1384 188.8 101.369C218.686 125.6 234.333 155.848 223.716 168.91Z" fill="#2F0B41" stroke="black" stroke-width="0.888672" stroke-linejoin="round"/>
<path d="M219.581 172.328C219.581 172.328 219.518 172.389 219.476 172.409C217.319 173.599 214.779 174.368 211.917 174.716C212.621 173.761 213.142 172.698 213.52 171.55C213.785 170.792 213.989 169.991 214.071 169.125C215.859 156.027 201.524 133.596 178.095 114.615C154.665 95.6337 129.713 86.2447 117.266 90.6921C116.433 90.9624 115.701 91.3176 115.009 91.7357C113.941 92.3311 113.014 93.0744 112.229 93.9448C111.984 91.0884 112.189 88.4488 112.905 86.0893C112.905 86.0893 112.907 85.9861 112.95 85.9457C115.128 84.7145 117.752 83.9272 120.737 83.582C135.852 81.8395 159.827 91.4543 182.16 109.564C204.493 127.673 218.871 149.134 220.283 164.267C220.545 167.248 220.338 169.97 219.56 172.349L219.581 172.328Z" fill="#2F0B41" stroke="black" stroke-width="0.888672" stroke-linejoin="round"/>
<path d="M223.713 168.91L216.925 177.267C216.925 177.267 216.756 177.428 216.692 177.509C216.607 177.611 215.021 179.145 214.034 179.825C210.924 181.985 206.865 183.153 202.003 183.269C186.838 183.565 164.454 174.048 143.542 157.087C122.631 140.125 108.692 120.245 105.848 105.347C104.832 100.015 105.271 95.3147 107.299 91.6217C107.492 91.2955 107.665 90.9689 107.88 90.6433C107.88 90.602 107.923 90.541 107.944 90.5208C108.051 90.358 108.158 90.2158 108.265 90.053C108.329 89.9718 108.393 89.8906 108.457 89.7888C108.565 89.6259 108.692 89.4636 108.799 89.3214L115.437 81.1472C114.31 82.5469 113.467 84.1185 112.951 85.8833C112.93 85.9242 112.908 85.965 112.907 86.0063C112.191 88.3657 111.966 91.0048 112.231 93.8824C112.26 94.3995 112.331 94.9176 112.422 95.4568C112.421 95.4981 112.42 95.5394 112.42 95.5394C112.49 96.0987 112.581 96.6586 112.713 97.2194C112.803 97.8205 112.954 98.423 113.106 99.0256C113.258 99.6281 113.43 100.231 113.601 100.875C113.773 101.52 113.986 102.124 114.2 102.748C115.112 105.351 116.271 108.043 117.717 110.803C117.994 111.346 118.292 111.869 118.59 112.413C118.629 112.517 118.709 112.643 118.748 112.727C119.085 113.375 119.463 114.024 119.842 114.631C119.862 114.694 119.901 114.757 119.941 114.82C120.3 115.427 120.637 116.034 121.038 116.621C121.098 116.705 121.158 116.789 121.217 116.894C121.495 117.396 121.835 117.899 122.176 118.382C122.295 118.592 122.416 118.76 122.556 118.928C122.617 118.991 122.656 119.096 122.717 119.159C122.877 119.39 123.016 119.62 123.176 119.851C123.497 120.313 123.796 120.774 124.137 121.257C124.197 121.321 124.237 121.383 124.277 121.446C124.658 121.971 125.019 122.475 125.4 122.98C125.481 123.085 125.561 123.19 125.621 123.295C125.7 123.441 125.821 123.589 125.941 123.736L125.983 123.737C126.142 123.988 126.303 124.178 126.464 124.409L127.588 125.881C127.97 126.344 128.372 126.869 128.795 127.375C128.996 127.627 129.176 127.879 129.398 128.132C129.679 128.469 129.961 128.806 130.243 129.143C130.404 129.353 130.565 129.543 130.747 129.733C130.746 129.754 130.746 129.774 130.807 129.796C131.351 130.449 131.935 131.103 132.52 131.757C132.561 131.778 132.58 131.841 132.641 131.883C132.64 131.925 132.701 131.967 132.762 132.01C133.004 132.284 133.226 132.558 133.468 132.811C133.508 132.853 133.549 132.895 133.61 132.938C133.953 133.297 134.276 133.656 134.619 134.015C134.982 134.416 135.365 134.837 135.77 135.239C135.83 135.302 135.912 135.366 135.951 135.45C136.476 136.02 137.042 136.57 137.588 137.119C137.931 137.478 138.275 137.837 138.659 138.197C138.902 138.45 139.144 138.704 139.407 138.937L139.449 138.938C139.934 139.445 140.44 139.911 140.925 140.397C140.986 140.44 141.067 140.524 141.127 140.588C141.654 141.095 142.181 141.562 142.707 142.049C143.678 142.98 144.712 143.892 145.747 144.762C146.416 145.356 147.065 145.908 147.754 146.502L147.937 146.651C148.749 147.33 149.56 148.031 150.393 148.69C151.225 149.349 152.078 150.03 152.912 150.669L153.094 150.817C153.805 151.371 154.476 151.882 155.208 152.415C156.285 153.245 157.384 154.055 158.503 154.824C159.093 155.251 159.663 155.656 160.274 156.063C160.335 156.105 160.437 156.17 160.498 156.212C161.068 156.597 161.639 156.982 162.209 157.346L162.251 157.347C162.535 157.581 162.841 157.774 163.126 157.946C163.554 158.245 163.982 158.502 164.41 158.76C165.083 159.188 165.735 159.616 166.387 160.024C166.469 160.067 166.55 160.131 166.612 160.153C167.081 160.453 167.57 160.753 168.04 161.012C168.468 161.269 168.876 161.506 169.304 161.784C169.345 161.826 169.406 161.848 169.467 161.891C169.773 162.063 170.1 162.236 170.407 162.408C170.447 162.45 170.508 162.493 170.549 162.494C170.59 162.536 170.651 162.558 170.692 162.58C171.447 163.01 172.223 163.441 172.98 163.83C173.02 163.852 173.02 163.872 173.061 163.873C173.306 164.003 173.552 164.132 173.756 164.261C174.143 164.476 174.532 164.671 174.9 164.866C175.186 165.017 175.493 165.148 175.758 165.298C176.33 165.6 176.923 165.903 177.475 166.184L179.152 166.987C179.419 167.096 179.644 167.205 179.889 167.314L179.931 167.314C180.094 167.421 180.278 167.488 180.442 167.574C180.565 167.618 180.667 167.682 180.79 167.727C181.384 167.988 181.936 168.228 182.53 168.489C182.592 168.511 182.673 168.554 182.756 168.577C183.288 168.816 183.8 169.035 184.333 169.233C184.599 169.342 184.845 169.43 185.091 169.539C185.173 169.582 185.276 169.605 185.357 169.648C185.541 169.756 185.746 169.823 185.972 169.91C186.504 170.129 187.058 170.348 187.633 170.527C187.735 170.55 187.838 170.593 187.94 170.637C188.596 170.9 189.273 171.122 189.93 171.343C189.992 171.365 190.053 171.387 190.136 171.389C190.833 171.653 191.531 171.875 192.229 172.077C192.332 172.1 192.455 172.165 192.579 172.168C193.194 172.388 193.831 172.568 194.448 172.727L194.489 172.728C195.229 172.931 195.948 173.112 196.668 173.294C197.367 173.475 198.108 173.636 198.808 173.776C199.508 173.916 200.207 174.056 200.908 174.155C200.908 174.155 200.949 174.176 200.97 174.177C201.629 174.274 202.289 174.372 202.948 174.47C203.629 174.547 204.289 174.624 204.949 174.68C205.61 174.737 206.229 174.772 206.87 174.807C207.49 174.821 208.11 174.835 208.73 174.829C209.309 174.842 209.868 174.813 210.427 174.764C210.427 174.764 210.469 174.765 210.51 174.766C211.028 174.736 211.566 174.686 212.084 174.636C214.946 174.288 217.486 173.54 219.643 172.35C219.643 172.35 219.727 172.29 219.748 172.27C221.361 171.397 222.752 170.252 223.879 168.852L223.713 168.91Z" fill="#500FA2" stroke="black" stroke-width="0.888672" stroke-linejoin="round"/>
<path d="M211.922 174.693C211.404 174.744 210.886 174.794 210.347 174.823C210.327 174.822 210.285 174.821 210.265 174.821C209.705 174.87 209.146 174.899 208.567 174.906C207.947 174.892 207.326 174.919 206.707 174.884C206.066 174.849 205.426 174.814 204.786 174.758C204.146 174.702 203.486 174.625 202.785 174.547C202.146 174.45 201.466 174.352 200.807 174.254C200.786 174.254 200.765 174.253 200.745 174.232C200.065 174.134 199.365 174.015 198.644 173.854C197.945 173.714 197.225 173.553 196.505 173.371C195.806 173.19 195.066 173.008 194.326 172.805C194.326 172.805 194.305 172.805 194.284 172.804C193.668 172.646 193.051 172.466 192.415 172.245C159.931 160.954 134.13 138.248 118.612 112.433C118.314 111.889 118.016 111.366 117.739 110.822C116.292 108.042 115.134 105.35 114.221 102.768C114.008 102.143 113.794 101.519 113.623 100.895C113.451 100.272 113.279 99.6479 113.127 99.0454C112.975 98.4428 112.845 97.8201 112.734 97.2392C112.623 96.6582 112.511 96.1392 112.442 95.5592C112.442 95.5592 112.443 95.4973 112.423 95.4762C112.331 94.9576 112.261 94.4189 112.231 93.9018C113.016 93.0314 113.943 92.2882 115.011 91.6928C115.703 91.2747 116.435 90.9196 117.268 90.6493C129.715 86.2022 154.668 95.5916 178.098 114.573C201.529 133.554 215.865 155.985 214.077 169.082C213.995 169.948 213.79 170.749 213.525 171.507C213.167 172.677 212.626 173.739 211.923 174.673L211.922 174.693Z" fill="#F4B000" stroke="black" stroke-width="0.888672" stroke-linejoin="round"/>
<circle cx="207.796" cy="152.552" r="6.12755" transform="rotate(1.30625 207.796 152.552)" fill="#2E0068" stroke="black" stroke-width="0.888672"/>
<path d="M218.834 148.969C181.316 160.713 144.621 136.321 124.65 123.266C140.639 142.804 169.033 170.841 207.284 175C255.752 180.27 266.329 134.102 218.834 148.969Z" fill="#2E0068"/>
<path d="M124.65 123.266L124.894 122.894L124.307 123.548L124.65 123.266ZM218.834 148.969L218.966 149.393L218.834 148.969ZM207.284 175L207.236 175.442L207.284 175ZM124.407 123.638C134.388 130.162 148.592 139.551 165.003 145.832C181.417 152.115 200.078 155.306 218.966 149.393L218.701 148.545C200.071 154.377 181.626 151.243 165.321 145.002C149.012 138.76 134.884 129.425 124.894 122.894L124.407 123.638ZM218.966 149.393C230.803 145.688 238.92 145.822 243.704 147.913C246.086 148.954 247.631 150.474 248.426 152.244C249.221 154.015 249.286 156.083 248.62 158.256C247.285 162.612 243.018 167.343 236.025 170.664C229.043 173.979 219.379 175.868 207.332 174.559L207.236 175.442C219.424 176.767 229.257 174.862 236.406 171.467C243.543 168.078 248.039 163.185 249.47 158.516C250.187 156.176 250.135 153.882 249.236 151.88C248.336 149.876 246.608 148.213 244.06 147.099C238.983 144.879 230.612 144.817 218.701 148.545L218.966 149.393ZM207.332 174.559C169.265 170.42 140.968 142.504 124.994 122.985L124.307 123.548C140.31 143.103 168.801 171.263 207.236 175.442L207.332 174.559Z" fill="black"/>
<circle cx="189.045" cy="134.047" r="9.96115" transform="rotate(1.30625 189.045 134.047)" fill="#2E0068" stroke="black" stroke-width="0.888672"/>
<path d="M214.808 136.843C213.386 136.834 212.141 136.758 211.128 136.664C211.735 136.41 212.406 136.04 213.113 135.506C215.877 133.419 219.168 128.854 221.595 118.999C223.992 109.267 228.406 105.013 232.496 104.089C236.584 103.165 240.552 105.517 242.237 109.447C243.933 113.4 243.567 118.549 241.372 123.258C239.18 127.959 235.188 132.171 229.706 134.258C224.17 136.366 218.799 136.869 214.808 136.843Z" fill="#2E0068" stroke="black" stroke-width="0.888672"/>
<circle cx="186.934" cy="82.5053" r="9.96115" transform="rotate(1.30625 186.934 82.5053)" fill="#2E0068" stroke="black" stroke-width="0.888672"/>
<circle cx="155.225" cy="127.797" r="5.57989" transform="rotate(1.30625 155.225 127.797)" fill="#2E0068" stroke="black" stroke-width="0.888672"/>
<circle cx="138.762" cy="104.963" r="6.12755" transform="rotate(1.30625 138.762 104.963)" fill="#2E0068" stroke="black" stroke-width="0.888672"/>
<circle cx="259.438" cy="146.061" r="6.12755" transform="rotate(1.30625 259.438 146.061)" fill="#2E0068" stroke="black" stroke-width="0.888672"/>
<circle cx="235.785" cy="102.244" r="3.38926" transform="rotate(1.30625 235.785 102.244)" fill="#2E0068" stroke="black" stroke-width="0.888672"/>
<circle cx="246.408" cy="164.935" r="3.38926" transform="rotate(1.30625 246.408 164.935)" fill="#2E0068" stroke="black" stroke-width="0.888672"/>
<path d="M305.459 137.719C303.728 138.341 301.902 138.61 300.023 138.505C284.591 137.885 264.732 114.751 253.103 82.5485C241.474 50.3256 242.005 19.8666 253.489 9.5713C254.883 8.30152 256.435 7.34521 258.166 6.70285C274.011 0.989647 297.454 25.6724 310.502 61.8527C323.549 98.033 321.284 132.006 305.438 137.698L305.459 137.719Z" fill="#FFCA10" stroke="black" stroke-width="0.888672" stroke-linejoin="round"/>
<path d="M306.313 116.646C305.479 116.958 304.608 117.062 303.699 117.021C294.423 111.232 283.588 94.9755 276.121 74.2714C268.654 53.5879 266.617 34.1641 270.059 23.7893C270.735 23.1642 271.469 22.7058 272.303 22.4149C281.643 19.0534 296.814 37.4331 306.206 63.4489C315.599 89.4647 315.653 113.306 306.313 116.667L306.313 116.646Z" fill="#500FA2" stroke="black" stroke-width="0.888672" stroke-linejoin="round"/>
<path d="M300.851 114.931C300.017 115.243 299.167 115.347 298.258 115.327C289.176 110.1 278.808 95.0732 271.847 75.7853C264.885 56.4974 263.294 38.3439 266.952 28.5111C267.648 27.9071 268.382 27.4693 269.216 27.1578C278.556 23.7963 293.202 40.718 301.932 64.9421C310.683 89.1874 310.192 111.549 300.872 114.911L300.851 114.931Z" fill="#2F0B41" stroke="black" stroke-width="0.888672" stroke-linejoin="round"/>
<path d="M312.982 118.885C310.251 119.856 307.083 119.144 303.7 117.001C304.609 117.042 305.479 116.938 306.314 116.627C315.654 113.265 315.599 89.4448 306.207 63.4084C296.815 37.3719 281.644 19.0129 272.304 22.3743C271.469 22.6859 270.735 23.1443 270.06 23.7487C271.305 19.9346 273.287 17.3561 276.018 16.3853C286.171 12.7324 302.691 32.7128 312.9 60.9989C323.108 89.3057 323.136 115.212 313.003 118.886L312.982 118.885Z" fill="#500FA2" stroke="black" stroke-width="0.888672" stroke-linejoin="round"/>
<path d="M313.003 118.886C310.272 119.857 307.104 119.144 303.721 117.002C294.445 111.213 283.609 94.9563 276.142 74.2521C268.675 53.5479 266.638 34.1447 270.08 23.7699C271.325 19.9557 273.307 17.3772 276.038 16.4064C276.121 16.3876 276.184 16.3477 276.267 16.3496C286.433 13.0482 302.789 32.9217 312.92 61.0201C323.071 89.1397 323.165 114.862 313.212 118.808C313.149 118.848 313.086 118.867 313.003 118.907L313.003 118.886ZM317.108 122.946L318.139 122.184C327.587 114.094 327.529 87.6917 317.34 59.4267C307.151 31.1823 290.33 10.8025 277.887 10.6021L276.604 10.6556C275.775 10.74 274.964 10.9075 274.172 11.1994C273.025 11.6071 271.977 12.2237 271.007 13.0486C261.478 21.0333 261.493 47.5176 271.701 75.8451C281.93 104.173 298.792 124.574 311.258 124.672C312.519 124.701 313.744 124.481 314.89 124.073C315.683 123.781 316.436 123.406 317.129 122.946L317.108 122.946Z" fill="#FFCA10" stroke="black" stroke-width="0.888672" stroke-linejoin="round"/>
<path d="M303.593 132.533C290.145 137.371 269.457 114.3 257.44 80.9939C245.422 47.6879 246.606 16.7273 260.053 11.8892C260.783 11.6166 261.573 11.428 262.361 11.3426L264.017 11.2563L264.203 11.2606L276.582 10.6744C275.753 10.7589 274.943 10.9264 274.15 11.2182C273.004 11.626 271.956 12.2425 270.986 13.0675C261.457 21.0521 261.472 47.5365 271.68 75.864C281.909 104.192 298.77 124.593 311.236 124.691C312.497 124.72 313.722 124.5 314.869 124.092C315.661 123.8 316.414 123.425 317.107 122.965L307.071 130.504L307.029 130.545L305.977 131.347L305.872 131.407C305.158 131.886 304.405 132.262 303.613 132.554L303.593 132.533Z" fill="#FFCA10" stroke="black" stroke-width="0.888672" stroke-linejoin="round"/>
<path d="M305.458 137.719L295.325 141.373C279.459 147.085 256.017 122.382 242.97 86.2018C229.922 50.0215 232.187 16.0694 248.074 10.3572L258.207 6.70384C256.476 7.32556 254.904 8.28139 253.531 9.55164C242.046 19.8675 241.515 50.3265 253.144 82.5494C264.772 114.772 284.632 137.886 300.064 138.526C301.943 138.61 303.769 138.342 305.5 137.72L305.458 137.719Z" fill="#500FA2" stroke="black" stroke-width="0.888672" stroke-linejoin="round"/>
<path d="M299.886 83.9234C297.827 84.4343 295.745 83.2713 295.024 81.3131C294.966 81.1671 294.948 81.0428 294.91 80.8767C292.925 72.7129 290.067 64.7771 286.373 57.2148C285.265 55.0411 286.402 52.3401 288.674 51.5242C290.717 50.7857 292.95 51.7454 293.856 53.6873C297.828 61.7517 300.86 70.2492 302.956 78.9733C303.484 81.1958 302.131 83.4167 299.906 83.9651L299.886 83.9234Z" fill="black" stroke="black" stroke-width="0.888672" stroke-linejoin="round"/>
</svg>
