<svg width="155" height="155" viewBox="0 0 155 155" fill="none" xmlns="http://www.w3.org/2000/svg">
<path d="M44.6911 48.433C24.3095 71.0789 24.0721 104.09 44.1192 122.133C47.0312 124.754 50.2357 126.93 53.6121 128.636C73.48 138.711 99.9411 133.174 117.352 113.829C134.763 94.484 137.503 67.5764 125.398 48.8756C123.347 45.697 120.846 42.7386 117.934 40.1178C97.8871 22.075 65.0728 25.7872 44.6911 48.433Z" fill="#500FA2" stroke="black"/>
<path d="M37.2713 41.0134C16.8897 63.6592 16.6523 96.6704 36.6994 114.713C39.6114 117.334 42.8159 119.51 46.1923 121.217C66.0602 131.292 92.5213 125.754 109.932 106.409C127.343 87.0643 130.083 60.1567 117.978 41.4559C115.927 38.2773 113.426 35.3189 110.514 32.6981C90.4673 14.6554 57.653 18.3675 37.2713 41.0134Z" fill="#131313" stroke="black"/>
<path d="M37.2712 41.0135C28.7568 50.4737 23.7579 61.7428 22.2846 72.9739L86.3291 122.647C94.9557 119.411 103.134 113.963 109.932 106.41C127.343 87.0645 130.083 60.1568 117.978 41.4561C115.927 38.2774 113.426 35.3191 110.514 32.6982C90.4671 14.6555 57.6528 18.3676 37.2712 41.0135Z" fill="#FFCA10" stroke="black"/>
<path d="M92.8158 44.0423C91.8694 43.4186 90.5559 43.7421 89.8818 44.7649L77.3302 63.8096C76.329 65.3288 73.9839 64.8304 73.6871 63.0353L70.1334 41.5419C69.9408 40.3776 68.856 39.6627 67.7101 39.9449C66.5643 40.2271 65.7915 41.3997 65.984 42.5639L69.6243 64.5812C69.9089 66.3024 68.0072 67.5374 66.5505 66.5774L48.8056 54.8824C47.8593 54.2587 46.5457 54.5823 45.8716 55.6051C45.1976 56.6279 45.4182 57.9626 46.3646 58.5863L64.11 70.2816C65.5667 71.2417 65.1817 73.4763 63.4877 73.8935L41.8187 79.2308C40.6729 79.513 39.9001 80.6856 40.0926 81.8499C40.2851 83.0141 41.37 83.7292 42.5158 83.4469L63.6684 78.2368C65.435 77.8016 66.8179 79.7601 65.8166 81.2794L53.2654 100.324C52.5913 101.346 52.8119 102.681 53.7583 103.305C54.7047 103.928 56.0182 103.605 56.6923 102.582L69.2435 83.538C70.2448 82.0187 72.5899 82.5172 72.8867 84.3123L76.4403 105.805C76.6329 106.97 77.7177 107.685 78.8636 107.402C80.0093 107.12 80.7821 105.947 80.5897 104.783L76.9492 82.7655C76.6646 81.0442 78.5663 79.8092 80.023 80.7693L97.7684 92.4646C98.7148 93.0883 100.028 92.7647 100.702 91.7419C101.377 90.7191 101.156 89.3844 100.21 88.7607L82.4646 77.0657C81.008 76.1057 81.3929 73.8711 83.0869 73.4538L104.756 68.1166C105.901 67.8344 106.674 66.6618 106.482 65.4975C106.289 64.3333 105.204 63.6183 104.058 63.9005L82.9054 69.1108C81.1387 69.5459 79.7558 67.5874 80.7571 66.0682L93.3087 47.0235C93.9828 46.0007 93.7622 44.666 92.8158 44.0423Z" fill="black"/>
</svg>
