<svg width="462" height="418" viewBox="0 0 462 418" fill="none" xmlns="http://www.w3.org/2000/svg">
<path d="M415.943 126.551L441.026 166.756C442.625 169.329 441.366 172.741 438.483 173.613L409.224 182.516C404.836 183.859 400.085 183.211 396.209 180.736L343.977 147.549L415.942 126.536L415.943 126.551Z" fill="#2F0B41" stroke="black" stroke-width="1.13001" stroke-miterlimit="10"/>
<path d="M303.887 216.684L118.107 366.042L26.2607 183.243C19.6431 170.082 23.1251 154.034 34.57 144.882L181.176 27.5395C184.936 24.5288 189.38 23.1508 193.737 23.2111C193.766 23.2083 193.781 23.2069 193.81 23.2041C200.799 23.3258 207.578 27.1914 211.084 34.066L303.869 216.656L303.887 216.684Z" fill="#2F0B41" stroke="black" stroke-width="1.13001" stroke-miterlimit="10"/>
<path d="M309.099 284.111L164.176 400.845C161.693 402.84 158.942 404.175 156.102 404.879L155.914 404.926C146.74 407.144 136.687 402.965 132.065 393.784L118.12 366.025L303.9 216.667L317.682 243.787C324.683 257.581 321.099 274.429 309.112 284.094L309.099 284.111Z" fill="#2F0B41" stroke="black" stroke-width="1.13001" stroke-miterlimit="10"/>
<path d="M193.767 23.2227C189.409 23.1476 184.952 24.5417 181.207 27.5511L34.6003 144.893C23.1568 154.06 19.6734 170.093 26.291 183.254L118.137 366.053L107.917 367.03L16.6563 188.584C9.05532 173.744 12.9668 155.51 25.9523 145.168L170.45 30.0387C177.052 24.7752 185.424 22.3367 193.783 23.236L193.767 23.2227Z" fill="#500FA2" stroke="black" stroke-width="1.13001" stroke-miterlimit="10"/>
<path d="M155.916 404.941L152.027 406.102C139.888 409.735 126.914 404.138 121.1 392.792L107.917 367.015L118.122 366.04L132.067 393.799C136.689 402.98 146.741 407.144 155.916 404.941Z" fill="#500FA2" stroke="black" stroke-width="1.13001" stroke-miterlimit="10"/>
<path d="M127.802 332.26C125.221 332.502 122.781 331.149 121.588 328.829L43.3814 177.004C41.0677 172.506 42.2138 166.952 46.1041 163.782L190.538 46.7319C191.167 46.2254 191.902 45.9177 192.69 45.8439C194.353 45.688 195.922 46.5556 196.699 48.0645L278.318 206.493C279.385 208.572 278.864 211.127 277.062 212.594L131.129 330.889C130.158 331.666 129.012 332.147 127.787 332.262L127.802 332.26Z" fill="#FFCA10"/>
<path d="M192.763 46.6126C194.061 46.491 195.389 47.1424 196.057 48.4377L277.677 206.867C278.581 208.632 278.142 210.807 276.612 212.04L130.678 330.334C129.791 331.059 128.769 331.453 127.734 331.551C125.561 331.754 123.337 330.664 122.234 328.515L44.0275 176.69C41.8602 172.491 42.9278 167.347 46.5594 164.395L190.994 47.3455C191.526 46.9076 192.138 46.6862 192.765 46.6274M192.623 45.1485C191.69 45.236 190.813 45.6017 190.075 46.1931L45.6399 163.243C41.4749 166.618 40.2489 172.567 42.725 177.379L120.932 329.204C122.268 331.794 124.987 333.3 127.86 333.031C129.217 332.904 130.506 332.38 131.584 331.503L277.518 213.208C279.58 211.538 280.195 208.585 278.966 206.194L197.347 47.7647C196.426 45.9858 194.577 44.9653 192.609 45.1498L192.623 45.1485Z" fill="black"/>
<path d="M266.954 204.405L266.955 204.405L273.751 198.833L277.779 206.627C277.779 206.627 277.779 206.627 277.779 206.628C278.652 208.33 278.219 210.414 276.736 211.605L276.677 211.653L276.678 211.668L271.31 216.011L266.374 207.767C266.374 207.767 266.374 207.767 266.374 207.767C265.71 206.657 265.954 205.221 266.954 204.405Z" fill="white" stroke="black" stroke-width="0.282504"/>
<path d="M148.293 357.717L204.993 310.177C210.899 305.204 219.804 306.721 223.761 313.374C228.574 321.449 226.778 331.869 219.562 337.832L162.73 385.206C156.965 389.957 148.364 388.53 144.417 382.144C139.48 374.17 141.142 363.733 148.293 357.717Z" fill="#2F0B41" stroke="black" stroke-width="1.13001" stroke-miterlimit="10"/>
<path d="M85.5549 212.319C85.3181 211.859 85.4276 211.287 85.8155 210.942L85.818 210.945L91.5998 206.057L91.5999 206.057C92.1436 205.597 92.9719 205.766 93.3075 206.397C93.3077 206.398 93.3078 206.398 93.308 206.398L131.186 280.042L131.187 280.043C131.425 280.495 131.321 281.047 130.946 281.388L130.945 281.388L125.512 286.376L125.512 286.377C124.971 286.877 124.12 286.722 123.783 286.066L123.783 286.065L85.555 212.32C85.555 212.32 85.555 212.319 85.5549 212.319Z" fill="white" stroke="black" stroke-width="0.282504"/>
<path d="M133.226 282.629C132.925 282.064 133.06 281.38 133.53 280.964L133.543 280.963L133.577 280.935L139.055 276.435C139.055 276.435 139.055 276.435 139.055 276.435C139.712 275.901 140.691 276.103 141.083 276.862L141.083 276.862L150.555 295.142C150.555 295.142 150.555 295.142 150.555 295.142C150.85 295.723 150.701 296.425 150.205 296.821L150.205 296.822L144.914 301.126C144.914 301.126 144.914 301.126 144.914 301.126C144.257 301.66 143.292 301.457 142.902 300.712L142.901 300.711L133.227 282.629C133.227 282.629 133.227 282.629 133.226 282.629Z" fill="white" stroke="black" stroke-width="0.282504"/>
<path d="M152.632 298.157C152.304 297.564 152.393 296.828 152.839 296.331L152.978 296.21L158.038 291.81C158.038 291.809 158.038 291.809 158.038 291.809C158.801 291.149 159.984 291.378 160.434 292.29L160.435 292.291L165.202 301.739L157.867 307.675L152.632 298.157L152.632 298.157Z" fill="white" stroke="black" stroke-width="0.282504"/>
<path d="M82.1821 183.716L82.0844 183.522L82.0831 183.524C81.9542 183.09 82.0979 182.607 82.4553 182.309C82.4554 182.309 82.4554 182.309 82.4554 182.309L88.8339 177.023L88.8339 177.023C89.3933 176.559 90.236 176.729 90.5742 177.388L90.5743 177.388L100.674 197.009L100.674 197.009C100.931 197.503 100.803 198.1 100.388 198.445C100.388 198.445 100.388 198.445 100.388 198.445L93.856 203.821L93.8556 203.821C93.2969 204.284 92.4393 204.102 92.1149 203.443L92.1144 203.442L82.1821 183.716Z" fill="white" stroke="black" stroke-width="0.282504"/>
<path d="M89.4305 174.561L84.7958 165.975L84.7954 165.974C84.5272 165.485 84.6659 164.876 85.107 164.542L91.706 159.562L91.7064 159.562C92.2418 159.155 93.0171 159.331 93.3343 159.922L98.001 168.637L98.0017 168.638C98.2705 169.128 98.131 169.749 97.6792 170.068L97.6791 170.068L97.6771 170.07L91.0523 174.933C90.5139 175.328 89.7544 175.163 89.4362 174.56L89.4305 174.561Z" fill="white" stroke="black" stroke-width="0.282504"/>
<path d="M87.1072 148.784C86.8693 148.369 86.9363 147.84 87.2485 147.498L87.369 147.402L94.1605 141.956L94.1606 141.956C94.6811 141.538 95.4377 141.688 95.7679 142.278L95.768 142.278L100.178 150.138C100.446 150.616 100.33 151.207 99.9051 151.536L99.9048 151.537L93.1011 156.849C93.1011 156.849 93.101 156.849 93.1009 156.849C92.5786 157.254 91.8349 157.103 91.5061 156.527C91.506 156.527 91.506 156.526 91.506 156.526L87.1075 148.784L87.1072 148.784Z" fill="white" stroke="black" stroke-width="0.282504"/>
<path d="M105.004 117.461L110.466 126.903L110.467 126.904C110.764 127.407 110.641 128.056 110.174 128.42L110.174 128.42L96.8829 138.807L96.8826 138.807C96.3445 139.23 95.5688 139.092 95.2001 138.529L95.1998 138.529L89.544 129.948L105.004 117.461Z" fill="white" stroke="black" stroke-width="0.282504"/>
<path d="M166.886 78.9154L162.666 70.8763L177.96 58.5258L182.331 67.7397C182.331 67.7398 182.331 67.7399 182.331 67.7401C182.783 68.7077 182.515 69.8561 181.689 70.5247C181.689 70.5247 181.688 70.5248 181.688 70.5248L170.286 79.6424C170.286 79.6425 170.286 79.6426 170.286 79.6427C169.174 80.5193 167.545 80.1709 166.886 78.9154Z" fill="white" stroke="black" stroke-width="0.282504"/>
<path d="M185.16 69.6843L185.17 69.6925L185.261 69.614L191.169 64.5064C191.169 64.5064 191.169 64.5063 191.169 64.5063C191.648 64.0946 192.37 64.2223 192.678 64.7526L192.678 64.7537L197.445 72.8034C197.445 72.8034 197.445 72.8034 197.445 72.8034C197.708 73.251 197.592 73.8376 197.183 74.1358L197.183 74.1358L197.182 74.1368L191.256 78.5752C191.256 78.5753 191.256 78.5755 191.255 78.5756C190.783 78.9212 190.125 78.8011 189.807 78.3084L185.059 70.9279C185.059 70.9278 185.059 70.9276 185.059 70.9275C184.806 70.5285 184.852 70.0252 185.16 69.6843Z" fill="white" stroke="black" stroke-width="0.282504"/>
<path d="M199.58 73.9163L206.145 67.6417L211.167 77.3905L205.422 83.0571C205.422 83.0571 205.422 83.0571 205.422 83.0572C204.8 83.6679 203.774 83.5249 203.341 82.7576C203.341 82.7574 203.341 82.7573 203.341 82.7572L199.332 75.5457C199.332 75.5454 199.332 75.5452 199.332 75.5449C199.041 75.0043 199.14 74.3345 199.579 73.9165L199.58 73.9163Z" fill="white" stroke="black" stroke-width="0.282504"/>
<path d="M172.125 110.652L172.109 110.653L178.147 105.479C178.147 105.478 178.147 105.478 178.147 105.478C178.653 105.049 179.435 105.185 179.763 105.772L179.763 105.772L184.067 113.448C184.067 113.448 184.067 113.448 184.067 113.449C184.303 113.874 184.222 114.423 183.877 114.758C183.877 114.758 183.877 114.758 183.877 114.759L177.812 120.551L177.812 120.551C177.31 121.033 176.506 120.913 176.163 120.314L176.163 120.314L171.548 112.309L171.548 112.309L171.547 112.308C171.284 111.861 171.385 111.284 171.785 110.942L172.125 110.652Z" fill="white" stroke="black" stroke-width="0.282504"/>
<path d="M125.726 148.838L125.711 148.84L131.748 143.665C131.749 143.665 131.749 143.665 131.749 143.665C132.255 143.236 133.036 143.371 133.365 143.958L133.365 143.958L137.668 151.635C137.668 151.635 137.669 151.635 137.669 151.635C137.904 152.061 137.824 152.61 137.479 152.945C137.479 152.945 137.479 152.945 137.478 152.945L131.414 158.737L131.413 158.738C130.912 159.219 130.107 159.1 129.765 158.501L129.764 158.501L125.149 150.496L125.149 150.496L125.149 150.495C124.886 150.047 124.987 149.471 125.387 149.129L125.726 148.838Z" fill="white" stroke="black" stroke-width="0.282504"/>
<path d="M117.867 182.718L117.852 182.719L123.889 177.545C123.889 177.544 123.889 177.544 123.889 177.544C124.396 177.115 125.177 177.251 125.505 177.838L125.505 177.838L129.809 185.514C129.809 185.514 129.809 185.514 129.809 185.515C130.045 185.94 129.965 186.489 129.619 186.824C129.619 186.824 129.619 186.824 129.619 186.825L123.554 192.617L123.554 192.617C123.052 193.099 122.248 192.979 121.905 192.38L121.905 192.38L117.29 184.375L117.29 184.375L117.289 184.374C117.026 183.927 117.128 183.35 117.527 183.008L117.867 182.718Z" fill="white" stroke="black" stroke-width="0.282504"/>
<path d="M233.495 212.543L233.48 212.544L239.517 207.37C239.517 207.37 239.517 207.369 239.517 207.369C240.024 206.94 240.805 207.076 241.133 207.663L241.133 207.663L245.437 215.339C245.437 215.339 245.437 215.34 245.437 215.34C245.673 215.765 245.593 216.314 245.247 216.649C245.247 216.649 245.247 216.649 245.247 216.65L239.182 222.442L239.182 222.442C238.68 222.924 237.876 222.804 237.533 222.206L237.533 222.205L232.918 214.2L232.918 214.2L232.917 214.199C232.654 213.752 232.756 213.175 233.155 212.833L233.495 212.543Z" fill="white" stroke="black" stroke-width="0.282504"/>
<path d="M197.292 114.131L197.277 114.133L203.314 108.958C203.314 108.958 203.314 108.958 203.314 108.958C203.821 108.529 204.602 108.664 204.93 109.251L204.93 109.251L209.234 116.928C209.234 116.928 209.234 116.928 209.234 116.928C209.47 117.354 209.39 117.903 209.044 118.238C209.044 118.238 209.044 118.238 209.044 118.238L202.979 124.03L202.979 124.031C202.477 124.512 201.673 124.393 201.33 123.794L201.33 123.793L196.715 115.789L196.715 115.789L196.714 115.788C196.452 115.34 196.553 114.764 196.953 114.422L197.292 114.131Z" fill="white" stroke="black" stroke-width="0.282504"/>
<path d="M152.437 250.637L152.437 250.637L152.438 250.636L157.901 245.958L157.901 245.958C158.693 245.279 159.894 245.493 160.401 246.405L160.401 246.406L164.136 253.05L164.136 253.05C164.512 253.715 164.386 254.565 163.838 255.083L163.838 255.084L158.639 260.049C158.639 260.049 158.639 260.049 158.639 260.049C157.865 260.781 156.612 260.6 156.077 259.676C156.077 259.676 156.077 259.676 156.077 259.676L152.079 252.745L152.078 252.744C151.671 252.039 151.821 251.147 152.437 250.637Z" fill="white" stroke="black" stroke-width="0.282504"/>
<path d="M179.912 259.855L179.912 259.855L179.914 259.854L185.376 255.176L185.376 255.176C186.168 254.496 187.369 254.711 187.876 255.623L187.876 255.623L191.611 262.267L191.612 262.268C191.987 262.933 191.862 263.783 191.313 264.301L191.313 264.302L186.114 269.267C186.114 269.267 186.114 269.267 186.114 269.267C185.34 269.999 184.087 269.818 183.552 268.894C183.552 268.894 183.552 268.894 183.552 268.894L179.554 261.962L179.554 261.962C179.146 261.257 179.296 260.365 179.912 259.855Z" fill="white" stroke="black" stroke-width="0.282504"/>
<path d="M161.923 180.977L161.949 180.988L162.013 180.934L184.363 162.384C184.363 162.384 184.363 162.384 184.363 162.384C184.829 162.002 185.537 162.143 185.817 162.673L201.699 192.839L201.699 192.84C201.917 193.246 201.81 193.737 201.463 194.031L179.265 212.791L179.264 212.791C178.803 213.184 178.095 213.048 177.797 212.501C177.797 212.501 177.797 212.501 177.797 212.501L161.749 182.129L161.748 182.128C161.544 181.746 161.625 181.277 161.923 180.977Z" fill="white" stroke="black" stroke-width="0.282504"/>
<path d="M155.61 170.905L155.61 170.905L160.648 180.598L160.649 180.598C160.885 181.047 160.755 181.596 160.356 181.896C160.355 181.896 160.355 181.896 160.355 181.896L154.15 186.511C153.669 186.869 152.968 186.716 152.671 186.18C152.671 186.18 152.671 186.18 152.671 186.18L147.354 176.515L147.354 176.514C147.105 176.068 147.233 175.493 147.658 175.19L147.658 175.19L154.142 170.549L154.142 170.549L154.142 170.548C154.637 170.189 155.324 170.355 155.61 170.905Z" fill="white" stroke="black" stroke-width="0.282504"/>
<path d="M186.295 160.545C185.821 160.897 185.148 160.754 184.844 160.238L184.843 160.225L184.829 160.199L179.876 151.11C179.876 151.11 179.876 151.11 179.876 151.11C179.639 150.671 179.746 150.112 180.141 149.816L180.141 149.816L180.143 149.815L187.334 144.227L187.335 144.226C187.827 143.84 188.54 143.992 188.839 144.554C188.839 144.554 188.839 144.554 188.839 144.554L193.825 153.998C194.062 154.447 193.931 155.008 193.521 155.294L193.521 155.294L193.519 155.295L186.296 160.544L186.295 160.545Z" fill="white" stroke="black" stroke-width="0.282504"/>
<path d="M156.021 168.743C155.578 169.103 154.914 168.986 154.612 168.491L154.612 168.49L149.938 160.327L149.938 160.327L149.938 160.326C149.692 159.907 149.797 159.378 150.168 159.083L150.169 159.082L172.668 141.024C172.668 141.024 172.668 141.024 172.668 141.024C173.137 140.653 173.816 140.786 174.094 141.301L174.094 141.301L174.095 141.302L178.686 149.533C178.686 149.533 178.686 149.533 178.686 149.533C178.919 149.953 178.813 150.47 178.441 150.766L178.441 150.766L156.022 168.743L156.021 168.743Z" fill="white" stroke="black" stroke-width="0.282504"/>
<path d="M152.125 188.374L152.128 188.378C152.652 187.985 153.41 188.15 153.712 188.739L153.712 188.739L169.426 219.323L169.427 219.323C169.666 219.788 169.536 220.354 169.135 220.668L162.618 225.729C162.097 226.134 161.34 225.97 161.038 225.381L161.037 225.38L145.025 194.915C145.025 194.915 145.025 194.915 145.025 194.915C144.785 194.45 144.915 193.87 145.328 193.555L152.125 188.374Z" fill="white" stroke="black" stroke-width="0.282504"/>
<path d="M177.318 214.763L177.381 214.715L177.38 214.704C177.898 214.37 178.595 214.545 178.884 215.097L178.884 215.098L183.436 223.689C183.677 224.169 183.546 224.747 183.121 225.063C183.121 225.063 183.121 225.064 183.121 225.064L176.843 229.685L176.843 229.685C176.332 230.062 175.616 229.909 175.303 229.346C175.303 229.346 175.303 229.346 175.303 229.346L170.657 221.002C170.401 220.521 170.52 219.932 170.942 219.618L170.942 219.618L170.943 219.617L177.318 214.763Z" fill="white" stroke="black" stroke-width="0.282504"/>
<path d="M184.847 224.083L184.847 224.083L184.85 224.081L207.875 205.034C207.875 205.034 207.875 205.034 207.876 205.034C208.331 204.665 208.998 204.771 209.315 205.261L209.315 205.262L213.83 212.204L213.949 212.126L213.83 212.204C214.103 212.622 214.025 213.191 213.644 213.514L213.644 213.514L190.233 233.327C190.232 233.327 190.232 233.327 190.232 233.328C189.753 233.725 189.031 233.585 188.735 233.041C188.735 233.041 188.734 233.04 188.734 233.04L184.604 225.319C184.604 225.319 184.604 225.318 184.604 225.318C184.382 224.892 184.479 224.376 184.847 224.083Z" fill="white" stroke="black" stroke-width="0.282504"/>
<path d="M209.805 203.331L216.648 198.119L209.72 203.218C209.221 203.595 208.507 203.465 208.185 202.932L208.184 202.931L203.084 194.656L203.099 194.655L202.979 194.461C202.687 193.988 202.8 193.373 203.25 193.041L203.25 193.041L210.09 187.964L210.007 187.85L210.091 187.963L210.09 187.963C210.592 187.599 211.293 187.732 211.614 188.251L211.614 188.251L216.82 196.587L216.821 196.588C217.111 197.046 217 197.676 216.563 198.006L216.563 198.006L209.72 203.218L209.805 203.331ZM209.805 203.331C209.24 203.757 208.43 203.611 208.064 203.006L209.805 203.331Z" fill="white" stroke="black" stroke-width="0.282504"/>
<path d="M200.828 150.193L200.828 150.193C201.349 149.802 202.095 149.979 202.397 150.556L217.916 180.31L217.916 180.31C218.153 180.76 218.038 181.325 217.638 181.654C217.637 181.654 217.637 181.655 217.637 181.655L212.106 186.055L212.106 186.055C211.587 186.471 210.816 186.298 210.513 185.707L210.469 185.622L210.454 185.624L195.011 155.669C194.773 155.206 194.913 154.625 195.314 154.309L200.828 150.193Z" fill="white" stroke="black" stroke-width="0.282504"/>
<path d="M61.0026 183.892L60.9857 183.878L66.126 179.639L66.1265 179.639C67.0287 178.889 68.3848 179.145 68.9767 180.172L73.1716 187.473C73.6484 188.302 73.4453 189.377 72.691 189.961L72.6908 189.962L67.2327 194.207C67.2327 194.207 67.2326 194.207 67.2326 194.207C66.3107 194.919 64.9811 194.644 64.4194 193.63L64.4192 193.63L60.4108 186.431L60.4104 186.43C59.9494 185.614 60.155 184.582 60.8694 184L61.0026 183.892Z" fill="white" stroke="black" stroke-width="0.282504"/>
<path d="M414.068 117.093L423.848 77.8912C424.352 75.8768 422.529 74.0549 420.528 74.5739L387.851 83.2079C384.497 84.0944 381.562 86.1475 379.557 88.9905L345.068 137.942L414.068 117.093Z" fill="#51176D" stroke="black" stroke-width="1.13001" stroke-miterlimit="10"/>
<path d="M203.478 171.864C197.265 172.457 196.731 178.094 198.023 183.065C199.315 188.036 202.611 192.041 208.411 190.504" fill="black"/>
<path d="M197.62 180.974L180.942 184.817L181.938 189.145L198.83 185.386L197.62 180.974Z" fill="black"/>
<path d="M175.454 184.015L181.582 179.363C182.602 178.595 184.05 178.933 184.628 180.07L188.506 187.758C188.941 188.625 188.716 189.689 187.962 190.297L182.203 194.959C181.215 195.754 179.758 195.476 179.137 194.358L174.891 186.661C174.393 185.755 174.626 184.63 175.439 184.016L175.454 184.015Z" fill="black"/>
<path d="M410.562 116.191C410.562 116.191 304.161 145.947 304.19 146.257C293.796 148.829 274.948 144.627 248.861 150.218L216.427 158.919C210.138 160.607 205.095 165.498 203.477 171.849C201.402 179.928 204.308 188.111 210.932 192.527C214.047 194.598 217.906 195.168 221.522 194.241L265.755 182.999C279.563 177.344 284.486 166.447 307.527 158.57L413.81 127.559" fill="#50176D"/>
<path d="M410.562 116.191C410.562 116.191 304.161 145.947 304.19 146.257C293.796 148.829 274.948 144.627 248.861 150.218L216.427 158.919C210.138 160.607 205.095 165.498 203.477 171.849C201.402 179.928 204.308 188.111 210.932 192.527C214.047 194.598 217.906 195.168 221.522 194.241L265.755 182.999C279.563 177.344 284.486 166.447 307.527 158.57L413.81 127.559" stroke="black" stroke-width="1.13001" stroke-miterlimit="10"/>
<path d="M250.424 149.905C242.443 156.194 242.159 178.982 260.656 184.32L250.424 149.905Z" fill="#50176D"/>
<path d="M250.424 149.905C242.443 156.194 242.159 178.982 260.656 184.32" stroke="black" stroke-width="1.13001" stroke-miterlimit="10"/>
<path d="M237.84 153.192C226.676 160.784 229.314 183.263 246.954 187.803L237.84 153.192Z" fill="#50176D"/>
<path d="M237.84 153.192C226.676 160.784 229.314 183.263 246.954 187.803" stroke="black" stroke-width="1.13001" stroke-miterlimit="10"/>
<path d="M223.925 156.921C210.76 167.4 220.441 189.325 231.826 191.648L223.925 156.921Z" fill="#50176D"/>
<path d="M223.925 156.921C210.76 167.4 220.441 189.325 231.826 191.648" stroke="black" stroke-width="1.13001" stroke-miterlimit="10"/>
<path d="M339.379 144.444L409.359 124.916L410.054 126.98L371.241 173.872C368.472 177.22 364.825 179.699 360.717 181.045L331.45 190.634C328.215 191.688 325.116 188.692 326.031 185.387L336.603 147.241C336.977 145.88 338.042 144.81 339.379 144.444Z" fill="#51176D" stroke="black" stroke-width="1.13001" stroke-miterlimit="10"/>
<path d="M333.975 138.883L308.664 97.344C307.235 95.0078 308.423 91.9449 311.037 91.1887L342.024 82.314C346.132 81.1319 350.527 81.7546 354.161 84.0142L408.694 117.979L408.926 120.46L339.151 140.906C337.169 141.482 335.041 140.658 333.961 138.884L333.975 138.883Z" fill="#2F0B41" stroke="black" stroke-width="1.13001" stroke-miterlimit="10"/>
<path d="M311.249 101.588L308.663 97.344C307.235 95.0078 308.423 91.9449 311.037 91.1887L342.023 82.314C346.132 81.1319 350.527 81.7546 354.161 84.0142L391.891 107.514L311.249 101.588Z" fill="#500FA2" stroke="black" stroke-width="1.13001" stroke-miterlimit="10"/>
<path d="M412.656 127.859C414.923 127.226 416.059 124.147 415.193 120.982C414.327 117.816 411.787 115.762 409.519 116.395C407.252 117.028 406.116 120.107 406.983 123.272C407.849 126.438 410.389 128.491 412.656 127.859Z" fill="#2F0B41" stroke="black" stroke-width="1.13001" stroke-miterlimit="10"/>
<path d="M307.543 158.583C300.823 152.045 304.206 146.27 304.206 146.27L307.543 158.583Z" fill="#50176D"/>
<path d="M307.543 158.583C300.823 152.045 304.206 146.27 304.206 146.27" stroke="black" stroke-width="1.13001" stroke-miterlimit="10"/>
<path d="M210.331 187.535C209.68 187.672 209.448 188.498 209.934 188.958C212.908 191.728 215.935 193.807 223.567 191.663C232.162 189.247 258.002 184.008 267.88 179.384C277.757 174.761 284.009 163.558 306.005 157.121L304.57 154.398C288.147 159.543 276.421 165.847 267.465 172.914C264.15 175.317 252.747 178.149 210.331 187.535Z" fill="black"/>
<g filter="url(#filter0_d_191_217)">
<path d="M156.838 378.885L151.362 367.163L152.745 365.929L158.204 377.623L156.824 378.886L156.838 378.885ZM157.894 377.92L157.191 376.42L162.106 371.96L162.807 373.446L157.894 377.92Z" fill="white"/>
<path d="M159.983 361.763C159.765 361.948 159.538 362.029 159.283 361.978C159.029 361.927 158.852 361.765 158.726 361.523C158.597 361.252 158.569 360.957 158.641 360.637C158.713 360.317 158.864 360.049 159.082 359.865C159.312 359.664 159.539 359.583 159.779 359.635C160.019 359.687 160.21 359.834 160.324 360.106C160.437 360.364 160.465 360.659 160.407 360.978C160.336 361.313 160.2 361.579 159.97 361.779L159.983 361.763ZM164.023 372.373L160.162 364.102L161.489 362.919L165.361 371.159L164.023 372.373Z" fill="white"/>
<path d="M163.518 362.978L162.909 361.679L167.461 357.688L168.07 358.988L163.519 362.993L163.518 362.978ZM168.034 368.756L163.73 359.663C163.324 358.792 163.188 357.985 163.336 357.226C163.483 356.466 163.916 355.77 164.648 355.134C164.865 354.95 165.113 354.778 165.409 354.646C165.705 354.513 166.016 354.395 166.345 354.304L166.413 355.938C166.17 356.005 165.956 356.07 165.787 356.146C165.618 356.221 165.48 356.309 165.37 356.394C165.058 356.661 164.884 356.991 164.845 357.352C164.806 357.714 164.907 358.152 165.13 358.638L169.357 367.544L168.018 368.743L168.034 368.756Z" fill="white"/>
<path d="M175.808 362.162C175.116 362.764 174.429 363.127 173.719 363.238C173.023 363.348 172.363 363.216 171.753 362.84C171.143 362.465 170.645 361.87 170.241 361.027C169.836 360.185 169.636 359.324 169.638 358.413C169.639 357.503 169.806 356.637 170.169 355.812C170.531 354.987 171.051 354.267 171.745 353.68C172.384 353.128 173.047 352.827 173.718 352.764C174.388 352.701 175.026 352.91 175.642 353.345C176.244 353.796 176.78 354.476 177.221 355.39L175.876 356.56C175.559 355.859 175.2 355.341 174.815 355.004C174.429 354.667 174.03 354.495 173.621 354.519C173.209 354.528 172.786 354.716 172.38 355.083C171.931 355.468 171.606 355.916 171.405 356.427C171.189 356.94 171.109 357.485 171.135 358.064C171.161 358.644 171.321 359.24 171.616 359.869C171.891 360.44 172.226 360.856 172.616 361.088C173.007 361.335 173.441 361.414 173.892 361.357C174.341 361.285 174.791 361.064 175.225 360.68C175.687 360.278 176.011 359.815 176.197 359.305C176.384 358.796 176.48 358.264 176.472 357.713L177.976 357.289C177.988 357.869 177.926 358.457 177.774 359.023C177.624 359.604 177.383 360.164 177.051 360.688C176.718 361.211 176.31 361.712 175.794 362.163L175.808 362.162ZM171.286 360.571L170.692 359.284L175.881 354.769L176.487 356.026L171.285 360.557L171.286 360.571Z" fill="white"/>
<path d="M188.788 350.961C187.781 351.816 186.772 352.343 185.758 352.513C184.746 352.697 183.803 352.532 182.947 352.045C182.092 351.558 181.382 350.759 180.848 349.631C180.297 348.489 180.035 347.29 180.049 346.05C180.063 344.81 180.345 343.605 180.896 342.449C181.433 341.295 182.206 340.297 183.216 339.471C183.761 339.017 184.347 338.679 184.942 338.444C185.539 338.224 186.131 338.109 186.72 338.113C187.295 338.119 187.821 338.234 188.298 338.458L187.583 340.211C187.228 340.035 186.852 339.951 186.425 339.946C185.998 339.942 185.564 340.027 185.138 340.186C184.697 340.347 184.308 340.578 183.926 340.897C183.19 341.503 182.642 342.241 182.252 343.083C181.862 343.925 181.667 344.809 181.667 345.734C181.652 346.661 181.87 347.551 182.276 348.408C182.68 349.25 183.194 349.859 183.833 350.231C184.458 350.606 185.161 350.734 185.901 350.619C186.655 350.504 187.398 350.121 188.133 349.5C188.732 348.996 189.19 348.401 189.523 347.728C189.856 347.056 190.04 346.367 190.075 345.647C190.109 344.928 189.955 344.241 189.643 343.599L190.92 342.33C191.395 343.3 191.624 344.309 191.592 345.356C191.559 346.404 191.303 347.412 190.835 348.366C190.354 349.337 189.685 350.19 188.801 350.944L188.788 350.961ZM187.259 345.747L186.62 344.449L190.379 341.292L190.928 342.419L190.293 343.165L187.243 345.734L187.259 345.747Z" fill="white"/>
<path d="M197.933 343.246C197.224 343.834 196.507 344.185 195.797 344.296C195.086 344.408 194.426 344.276 193.819 343.93C193.211 343.569 192.699 342.99 192.314 342.191C191.914 341.393 191.715 340.546 191.72 339.68C191.726 338.814 191.91 337.976 192.276 337.181C192.641 336.386 193.18 335.708 193.861 335.137C194.57 334.549 195.288 334.213 196 334.116C196.712 334.02 197.372 334.152 197.98 334.512C198.589 334.873 199.086 335.453 199.486 336.251C199.886 337.049 200.082 337.867 200.076 338.733C200.07 339.584 199.885 340.422 199.533 341.201C199.167 341.996 198.643 342.672 197.949 343.259L197.933 343.246ZM197.26 341.906C197.683 341.553 198.009 341.12 198.212 340.623C198.429 340.125 198.525 339.594 198.515 339.028C198.505 338.462 198.366 337.923 198.108 337.38C197.835 336.839 197.518 336.451 197.127 336.204C196.735 335.957 196.313 335.848 195.861 335.89C195.409 335.932 194.971 336.123 194.548 336.475C194.111 336.83 193.785 337.263 193.569 337.776C193.353 338.288 193.257 338.82 193.268 339.401C193.278 339.967 193.419 340.52 193.676 341.048C193.948 341.59 194.265 341.978 194.657 342.225C195.048 342.472 195.469 342.566 195.92 342.509C196.372 342.467 196.822 342.246 197.259 341.891L197.26 341.906Z" fill="white"/>
<path d="M205.273 337.179C204.427 337.87 203.665 338.21 202.985 338.184C202.306 338.158 201.784 337.774 201.418 337.032C201.02 336.249 200.971 335.433 201.246 334.616C201.521 333.8 202.111 333.043 202.984 332.32L204.964 330.717L205.545 331.871L203.935 333.186C203.28 333.725 202.87 334.211 202.72 334.642C202.57 335.074 202.581 335.491 202.779 335.875C202.96 336.231 203.228 336.415 203.58 336.397C203.933 336.394 204.327 336.208 204.777 335.837C205.173 335.517 205.447 335.148 205.642 334.727C205.823 334.307 205.913 333.866 205.914 333.418C205.916 332.97 205.816 332.547 205.616 332.148L206.258 331.625C206.784 332.665 206.968 333.662 206.825 334.631C206.682 335.599 206.174 336.438 205.301 337.161L205.273 337.179ZM207.256 335.292L206.518 334.033L205.188 331.367C204.914 330.811 204.609 330.392 204.302 330.107C203.996 329.823 203.674 329.689 203.335 329.691C202.997 329.692 202.629 329.846 202.235 330.182C201.866 330.485 201.575 330.825 201.377 331.217C201.179 331.609 201.074 332.051 201.063 332.545L199.594 333.04C199.591 332.548 199.648 332.065 199.776 331.561C199.906 331.071 200.11 330.59 200.419 330.128C200.714 329.668 201.113 329.227 201.606 328.838C202.275 328.298 202.893 327.986 203.488 327.901C204.083 327.815 204.627 327.958 205.118 328.33C205.61 328.701 206.063 329.286 206.45 330.1L208.51 334.249L207.24 335.278L207.256 335.292Z" fill="white"/>
<path d="M210.266 332.843L204.912 322.177L206.264 321.111L211.616 331.747L210.266 332.843Z" fill="white"/>
<path d="M216.17 328.348C215.665 328.753 215.177 329.038 214.706 329.186C214.235 329.335 213.784 329.392 213.382 329.34C212.979 329.288 212.613 329.144 212.31 328.903L213.198 327.418C213.511 327.612 213.87 327.683 214.277 327.63C214.686 327.592 215.067 327.422 215.435 327.119C215.845 326.797 216.135 326.441 216.32 326.066C216.505 325.691 216.517 325.361 216.372 325.076C216.227 324.792 216.024 324.662 215.744 324.658C215.464 324.654 215.106 324.762 214.669 324.953L213.908 325.307C213.146 325.647 212.481 325.769 211.927 325.672C211.359 325.576 210.965 325.3 210.726 324.8C210.361 324.059 210.29 323.319 210.525 322.551C210.762 321.798 211.326 321.074 212.201 320.38C212.625 320.042 213.058 319.808 213.484 319.648C213.912 319.504 214.304 319.452 214.676 319.492C215.047 319.532 215.371 319.68 215.644 319.923L214.781 321.362C214.511 321.148 214.21 321.087 213.849 321.151C213.503 321.228 213.137 321.396 212.768 321.7C212.386 322.004 212.137 322.326 212.009 322.681C211.881 323.036 211.898 323.363 212.045 323.677C212.135 323.847 212.306 323.936 212.571 323.941C212.836 323.946 213.166 323.855 213.591 323.681L214.464 323.271C214.985 323.028 215.473 322.908 215.901 322.913C216.328 322.917 216.705 323.016 217.002 323.197C217.313 323.377 217.544 323.639 217.708 323.967C217.941 324.407 218.017 324.892 217.95 325.421C217.882 325.935 217.695 326.444 217.39 326.95C217.071 327.458 216.659 327.914 216.153 328.319L216.17 328.348Z" fill="white"/>
</g>
<defs>
<filter id="filter0_d_191_217" x="146.842" y="314.959" width="75.6517" height="68.4473" filterUnits="userSpaceOnUse" color-interpolation-filters="sRGB">
<feFlood flood-opacity="0" result="BackgroundImageFix"/>
<feColorMatrix in="SourceAlpha" type="matrix" values="0 0 0 0 0 0 0 0 0 0 0 0 0 0 0 0 0 0 127 0" result="hardAlpha"/>
<feOffset/>
<feGaussianBlur stdDeviation="2.26003"/>
<feComposite in2="hardAlpha" operator="out"/>
<feColorMatrix type="matrix" values="0 0 0 0 1 0 0 0 0 1 0 0 0 0 1 0 0 0 0.5 0"/>
<feBlend mode="normal" in2="BackgroundImageFix" result="effect1_dropShadow_191_217"/>
<feBlend mode="normal" in="SourceGraphic" in2="effect1_dropShadow_191_217" result="shape"/>
</filter>
</defs>
</svg>
