<svg width="389" height="384" viewBox="0 0 389 384" fill="none" xmlns="http://www.w3.org/2000/svg">
<path d="M227.142 207.077L196.912 238.002L151.924 284.025L151.876 284.094L150.329 285.662L108.602 328.367C99.799 339.231 73.8841 332.828 50.7615 314.077C27.639 295.325 16.0048 271.302 24.8078 260.438L57.7826 211.095L59.3232 208.782L94.8246 155.685L119.039 119.416C122.238 136.156 137.884 158.55 161.418 177.636C184.951 196.723 210.094 207.432 227.142 207.1L227.142 207.077Z" fill="#FFCA10" stroke="black" stroke-linejoin="round"/>
<path d="M227.119 207.1L227.142 207.077L227.142 207.1C227.134 207.1 227.127 207.1 227.119 207.1L196.912 238.002L151.924 284.025L151.876 284.094L150.329 285.662L115.714 321.088L149.24 166.804C153.012 170.49 157.081 174.119 161.417 177.636C184.94 196.715 210.071 207.422 227.119 207.1Z" fill="#F4B000"/>
<path d="M227.142 207.077L196.912 238.002L151.924 284.025L151.876 284.094L150.329 285.662L115.714 321.088L149.24 166.804C153.012 170.49 157.081 174.119 161.417 177.636C184.951 196.723 210.093 207.432 227.142 207.1L227.142 207.077Z" stroke="black" stroke-linejoin="round"/>
<path d="M196.911 238.024L151.9 284.047L151.852 284.116L150.305 285.684C139.322 295.313 112.242 287.978 87.91 268.245C63.5776 248.513 50.9798 223.934 57.7825 211.071L59.3226 208.782L94.824 155.684C88.344 167.648 103.767 193.732 130.656 215.546C157.544 237.359 186.752 247.207 196.888 238.023L196.911 238.024Z" fill="#500FA2" stroke="black" stroke-width="0.5" stroke-linejoin="round"/>
<path d="M151.9 284.047L196.911 238.024L196.888 238.023C191.407 242.989 180.35 242.39 167.098 237.344C157.913 233.846 147.673 228.211 137.505 220.812L122.978 287.65C134.652 291.106 144.628 290.661 150.305 285.684L151.852 284.115L151.9 284.047Z" fill="#2F0B41"/>
<path d="M154.823 141.287L105.659 367.225" stroke="#2F0B41" stroke-width="0.5" stroke-linejoin="round"/>
<path d="M251.526 190.919C250.258 192.494 248.694 193.783 246.881 194.764C247.733 192.087 247.989 189.025 247.693 185.671C246.105 168.642 229.941 144.493 204.833 124.115C179.725 103.737 152.771 92.9406 135.779 94.8778C132.422 95.2661 129.473 96.152 127.024 97.5374C127.603 95.5514 128.55 93.7831 129.819 92.2081C141.755 77.4867 178.673 87.6501 212.273 114.916C245.872 142.183 263.461 176.22 251.526 190.919Z" fill="#2F0B41" stroke="black" stroke-linejoin="round"/>
<path d="M246.88 194.765C246.88 194.765 246.809 194.833 246.762 194.855C244.337 196.195 241.481 197.059 238.264 197.451C239.055 196.377 239.64 195.181 240.065 193.889C240.364 193.036 240.593 192.134 240.685 191.16C242.695 176.422 226.579 151.181 200.238 129.822C173.897 108.463 145.845 97.8974 131.852 102.902C130.915 103.206 130.092 103.605 129.314 104.076C128.113 104.746 127.071 105.582 126.189 106.562C125.913 103.347 126.144 100.377 126.948 97.7222C126.948 97.7222 126.951 97.606 126.998 97.5606C129.448 96.1753 132.397 95.2894 135.754 94.9011C152.746 92.9407 179.7 103.76 204.808 124.138C229.916 144.516 246.08 168.665 247.668 185.694C247.964 189.048 247.731 192.111 246.856 194.788L246.88 194.765Z" fill="#2F0B41" stroke="black" stroke-linejoin="round"/>
<path d="M251.525 190.919L243.894 200.322C243.894 200.322 243.704 200.504 243.632 200.595C243.537 200.709 241.754 202.435 240.643 203.2C237.147 205.631 232.584 206.945 227.118 207.076C210.07 207.408 184.904 196.699 161.394 177.613C137.883 158.527 122.213 136.156 119.015 119.392C117.873 113.392 118.366 108.103 120.646 103.948C120.863 103.581 121.058 103.213 121.299 102.847C121.3 102.8 121.348 102.732 121.372 102.709C121.492 102.526 121.612 102.366 121.732 102.183C121.804 102.091 121.876 102 121.948 101.885C122.069 101.702 122.212 101.519 122.332 101.359L129.795 92.1615C128.527 93.7366 127.58 95.5049 127 97.4908C126.976 97.5368 126.952 97.5827 126.951 97.6292C126.146 100.284 125.892 103.254 126.191 106.492C126.224 107.074 126.304 107.657 126.406 108.263C126.405 108.31 126.404 108.356 126.404 108.356C126.482 108.986 126.584 109.616 126.733 110.247C126.833 110.923 127.004 111.601 127.175 112.279C127.345 112.957 127.539 113.636 127.732 114.361C127.924 115.086 128.164 115.765 128.404 116.468C129.43 119.397 130.733 122.426 132.359 125.531C132.67 126.143 133.006 126.731 133.34 127.343C133.384 127.461 133.474 127.602 133.518 127.696C133.897 128.425 134.322 129.156 134.748 129.84C134.77 129.91 134.815 129.981 134.86 130.051C135.262 130.735 135.642 131.417 136.092 132.079C136.16 132.173 136.227 132.268 136.294 132.385C136.607 132.95 136.989 133.517 137.372 134.06C137.506 134.296 137.641 134.485 137.8 134.675C137.868 134.746 137.912 134.863 137.98 134.934C138.16 135.194 138.317 135.453 138.497 135.713C138.857 136.233 139.194 136.752 139.576 137.295C139.645 137.367 139.689 137.437 139.734 137.508C140.163 138.099 140.568 138.666 140.997 139.234C141.087 139.352 141.177 139.471 141.245 139.588C141.334 139.753 141.469 139.919 141.605 140.085L141.652 140.086C141.831 140.369 142.012 140.582 142.192 140.842L143.456 142.498C143.886 143.019 144.338 143.611 144.813 144.179C145.039 144.463 145.242 144.747 145.491 145.032C145.808 145.411 146.125 145.79 146.441 146.169C146.622 146.406 146.803 146.619 147.008 146.833C147.007 146.856 147.006 146.879 147.076 146.904C147.687 147.639 148.344 148.374 149.001 149.11C149.047 149.134 149.069 149.204 149.138 149.253C149.137 149.299 149.205 149.347 149.274 149.395C149.546 149.704 149.795 150.011 150.067 150.297C150.112 150.344 150.158 150.392 150.226 150.44C150.612 150.844 150.975 151.247 151.361 151.651C151.769 152.102 152.2 152.577 152.655 153.029C152.723 153.1 152.814 153.172 152.859 153.266C153.449 153.907 154.085 154.526 154.699 155.144C155.085 155.548 155.471 155.952 155.904 156.357C156.176 156.642 156.448 156.928 156.745 157.19L156.791 157.191C157.336 157.761 157.905 158.286 158.451 158.833C158.52 158.881 158.61 158.976 158.678 159.047C159.27 159.619 159.862 160.144 160.454 160.692C161.546 161.74 162.709 162.766 163.872 163.745C164.624 164.413 165.354 165.034 166.129 165.703L166.334 165.87C167.247 166.635 168.159 167.423 169.095 168.165C170.031 168.907 170.99 169.672 171.927 170.391L172.132 170.559C172.932 171.181 173.686 171.756 174.509 172.356C175.72 173.29 176.954 174.202 178.213 175.067C178.877 175.547 179.517 176.004 180.204 176.461C180.273 176.509 180.387 176.582 180.456 176.63C181.097 177.063 181.738 177.496 182.38 177.905L182.426 177.907C182.746 178.169 183.089 178.387 183.411 178.58C183.891 178.916 184.373 179.206 184.854 179.496C185.61 179.978 186.343 180.46 187.077 180.918C187.169 180.967 187.26 181.039 187.329 181.064C187.856 181.401 188.407 181.739 188.935 182.03C189.416 182.32 189.875 182.586 190.356 182.899C190.402 182.947 190.471 182.972 190.539 183.02C190.884 183.213 191.251 183.408 191.596 183.602C191.641 183.649 191.71 183.697 191.756 183.698C191.802 183.746 191.871 183.771 191.917 183.795C192.766 184.279 193.638 184.764 194.488 185.202C194.534 185.226 194.534 185.249 194.58 185.25C194.856 185.396 195.131 185.542 195.361 185.687C195.797 185.929 196.234 186.148 196.647 186.367C196.969 186.537 197.314 186.684 197.612 186.854C198.256 187.194 198.922 187.534 199.542 187.851L201.428 188.754C201.728 188.877 201.981 188.999 202.257 189.121L202.303 189.123C202.486 189.243 202.694 189.317 202.878 189.415C203.016 189.464 203.131 189.537 203.269 189.586C203.937 189.88 204.558 190.15 205.226 190.444C205.295 190.469 205.387 190.518 205.479 190.543C206.077 190.813 206.653 191.058 207.252 191.281C207.552 191.404 207.828 191.503 208.105 191.626C208.196 191.674 208.312 191.7 208.404 191.749C208.61 191.87 208.841 191.945 209.095 192.044C209.694 192.29 210.316 192.536 210.962 192.737C211.078 192.763 211.193 192.812 211.308 192.861C212.045 193.157 212.807 193.407 213.545 193.656C213.614 193.681 213.683 193.706 213.776 193.708C214.56 194.005 215.345 194.255 216.13 194.482C216.245 194.508 216.383 194.581 216.523 194.584C217.214 194.832 217.931 195.035 218.624 195.213L218.67 195.214C219.502 195.442 220.311 195.647 221.12 195.851C221.906 196.055 222.739 196.237 223.525 196.394C224.312 196.552 225.099 196.709 225.887 196.82C225.887 196.82 225.933 196.844 225.956 196.845C226.698 196.955 227.439 197.065 228.181 197.175C228.946 197.262 229.688 197.348 230.43 197.412C231.173 197.475 231.869 197.514 232.589 197.554C233.286 197.57 233.983 197.586 234.681 197.578C235.331 197.593 235.96 197.561 236.589 197.506C236.589 197.506 236.635 197.507 236.682 197.508C237.264 197.475 237.869 197.419 238.452 197.362C241.669 196.971 244.524 196.129 246.949 194.79C246.949 194.79 247.044 194.722 247.068 194.699C248.88 193.718 250.444 192.429 251.712 190.854L251.525 190.919Z" fill="#500FA2" stroke="black" stroke-linejoin="round"/>
<path d="M238.265 197.429C237.683 197.486 237.1 197.542 236.495 197.575C236.472 197.574 236.426 197.573 236.402 197.573C235.773 197.628 235.145 197.66 234.494 197.669C233.797 197.653 233.099 197.683 232.402 197.644C231.682 197.604 230.962 197.565 230.243 197.502C229.524 197.439 228.782 197.352 227.994 197.265C227.275 197.155 226.511 197.045 225.769 196.935C225.746 196.934 225.723 196.934 225.7 196.91C224.935 196.8 224.148 196.666 223.339 196.484C222.552 196.327 221.742 196.146 220.933 195.941C220.147 195.737 219.315 195.533 218.483 195.304C218.483 195.304 218.46 195.304 218.437 195.303C217.744 195.125 217.051 194.923 216.336 194.674C179.816 181.969 150.811 156.418 133.364 127.369C133.029 126.757 132.694 126.168 132.383 125.556C130.757 122.428 129.454 119.399 128.428 116.493C128.188 115.79 127.949 115.088 127.755 114.386C127.562 113.684 127.369 112.982 127.198 112.304C127.028 111.626 126.881 110.926 126.756 110.272C126.632 109.618 126.506 109.034 126.428 108.381C126.428 108.381 126.429 108.312 126.406 108.288C126.304 107.704 126.224 107.098 126.191 106.516C127.074 105.537 128.116 104.701 129.317 104.031C130.094 103.56 130.917 103.16 131.854 102.856C145.847 97.8522 173.899 108.418 200.24 129.777C226.581 151.136 242.698 176.377 240.688 191.115C240.596 192.089 240.366 192.991 240.068 193.844C239.666 195.16 239.057 196.355 238.266 197.406L238.265 197.429Z" fill="#F4B000" stroke="black" stroke-linejoin="round"/>
<circle cx="234.894" cy="172.513" r="6.89518" transform="rotate(1.30625 234.894 172.513)" fill="#2E0068" stroke="black"/>
<path d="M247.315 168.482C205.097 181.697 163.806 154.249 141.333 139.559C159.324 161.544 191.275 193.094 234.318 197.774C288.858 203.704 300.76 151.752 247.315 168.482Z" fill="#2E0068"/>
<path d="M141.333 139.559L141.606 139.14L140.946 139.875L141.333 139.559ZM247.315 168.482L247.165 168.005L247.315 168.482ZM234.318 197.774L234.264 198.271L234.318 197.774ZM141.059 139.977C152.29 147.319 168.274 157.883 186.74 164.952C205.211 172.021 226.21 175.612 247.464 168.959L247.165 168.005C226.201 174.567 205.446 171.041 187.098 164.018C168.746 156.993 152.848 146.489 141.606 139.14L141.059 139.977ZM247.464 168.959C260.783 164.79 269.917 164.94 275.301 167.293C277.981 168.465 279.719 170.175 280.614 172.167C281.509 174.16 281.582 176.487 280.833 178.932C279.331 183.833 274.529 189.158 266.659 192.894C258.803 196.625 247.928 198.751 234.372 197.277L234.264 198.271C247.979 199.762 259.043 197.618 267.088 193.798C275.12 189.984 280.179 184.478 281.789 179.225C282.596 176.591 282.538 174.009 281.526 171.757C280.513 169.502 278.569 167.63 275.701 166.377C269.989 163.88 260.569 163.809 247.165 168.005L247.464 168.959ZM234.372 197.277C191.536 192.619 159.695 161.207 141.72 139.242L140.946 139.875C158.954 161.881 191.015 193.568 234.264 198.271L234.372 197.277Z" fill="black"/>
<circle cx="213.794" cy="151.69" r="11.209" transform="rotate(1.30625 213.794 151.69)" fill="#2E0068" stroke="black"/>
<path d="M242.783 154.837C241.183 154.827 239.782 154.741 238.642 154.635C239.326 154.35 240.08 153.933 240.876 153.332C243.987 150.983 247.69 145.847 250.421 134.757C253.118 123.806 258.086 119.019 262.687 117.979C267.288 116.939 271.752 119.586 273.649 124.009C275.557 128.457 275.145 134.251 272.675 139.549C270.209 144.839 265.716 149.579 259.548 151.927C253.318 154.299 247.275 154.866 242.783 154.837Z" fill="#2E0068" stroke="black"/>
<circle cx="211.418" cy="93.6916" r="11.209" transform="rotate(1.30625 211.418 93.6916)" fill="#2E0068" stroke="black"/>
<circle cx="175.736" cy="144.658" r="6.27891" transform="rotate(1.30625 175.736 144.658)" fill="#2E0068" stroke="black"/>
<circle cx="157.213" cy="118.962" r="6.89518" transform="rotate(1.30625 157.213 118.962)" fill="#2E0068" stroke="black"/>
<circle cx="293.005" cy="165.208" r="6.89518" transform="rotate(1.30625 293.005 165.208)" fill="#2E0068" stroke="black"/>
<circle cx="266.39" cy="115.904" r="3.81385" transform="rotate(1.30625 266.39 115.904)" fill="#2E0068" stroke="black"/>
<circle cx="278.343" cy="186.449" r="3.81385" transform="rotate(1.30625 278.343 186.449)" fill="#2E0068" stroke="black"/>
<path d="M343.427 155.821C341.482 156.52 339.429 156.822 337.316 156.704C319.966 156.006 297.637 129.973 284.561 93.7371C271.486 57.4778 272.081 23.2038 284.992 11.6196C286.559 10.1909 288.304 9.11487 290.25 8.39214C308.065 1.9641 334.422 29.7394 349.093 70.4519C363.765 111.164 361.219 149.392 343.404 155.797L343.427 155.821Z" fill="#FFCA10" stroke="black" stroke-linejoin="round"/>
<path d="M344.387 132.108C343.449 132.459 342.47 132.576 341.448 132.529C331.019 126.015 318.836 107.722 310.44 84.4242C302.043 61.1496 299.752 39.2929 303.621 27.6187C304.381 26.9154 305.207 26.3996 306.144 26.0723C316.646 22.2902 333.703 42.9727 344.264 72.2475C354.825 101.522 354.888 128.349 344.386 132.131L344.387 132.108Z" fill="#500FA2" stroke="black" stroke-linejoin="round"/>
<path d="M338.246 130.178C337.309 130.529 336.353 130.647 335.33 130.623C325.119 124.742 313.462 107.832 305.634 86.1278C297.807 64.4237 296.017 43.9963 300.129 32.9321C300.911 32.2526 301.736 31.76 302.674 31.4094C313.176 27.6274 329.643 46.6692 339.459 73.9279C349.299 101.21 348.748 126.373 338.27 130.156L338.246 130.178Z" fill="#2F0B41" stroke="black" stroke-linejoin="round"/>
<path d="M351.885 134.628C348.815 135.72 345.253 134.918 341.449 132.507C342.471 132.553 343.45 132.436 344.387 132.086C354.889 128.304 354.826 101.5 344.265 72.2018C333.704 42.9037 316.647 22.2445 306.145 26.0265C305.207 26.3771 304.382 26.8929 303.623 27.573C305.022 23.2812 307.25 20.3798 310.321 19.2875C321.736 15.1776 340.31 37.6613 351.79 69.4909C363.268 101.344 363.301 130.495 351.908 134.628L351.885 134.628Z" fill="#500FA2" stroke="black" stroke-linejoin="round"/>
<path d="M351.908 134.628C348.837 135.72 345.275 134.918 341.471 132.507C331.042 125.993 318.859 107.699 310.463 84.4017C302.067 61.1039 299.775 39.2704 303.645 27.5962C305.044 23.3044 307.272 20.403 310.343 19.3108C310.436 19.2896 310.507 19.2448 310.6 19.2469C322.03 15.5325 340.42 37.8958 351.812 69.5141C363.225 101.156 363.333 130.1 352.142 134.54C352.071 134.585 352.001 134.607 351.907 134.651L351.908 134.628ZM356.523 139.196L357.682 138.339C368.304 129.237 368.238 99.5271 356.781 67.7213C345.324 35.9388 326.411 13.0056 312.421 12.7796L310.979 12.8397C310.047 12.9347 309.136 13.1231 308.245 13.4515C306.956 13.9102 305.777 14.604 304.687 15.5322C293.974 24.5165 293.992 54.318 305.47 86.194C316.972 118.07 335.93 141.028 349.946 141.138C351.363 141.171 352.741 140.923 354.03 140.464C354.921 140.136 355.767 139.714 356.546 139.197L356.523 139.196Z" fill="#FFCA10" stroke="black" stroke-linejoin="round"/>
<path d="M341.329 149.985C326.21 155.428 302.949 129.467 289.437 91.9888C275.924 54.5107 277.253 19.6723 292.372 14.2289C293.193 13.9221 294.081 13.7099 294.967 13.6139L296.829 13.5169L297.038 13.5217L310.955 12.8627C310.023 12.9577 309.112 13.1461 308.221 13.4745C306.932 13.9332 305.754 14.627 304.663 15.5552C293.95 24.5395 293.968 54.341 305.447 86.217C316.948 118.093 335.906 141.051 349.922 141.161C351.34 141.194 352.717 140.946 354.006 140.487C354.897 140.159 355.744 139.737 356.523 139.22L345.24 147.703L345.192 147.748L344.009 148.651L343.892 148.718C343.089 149.258 342.242 149.68 341.352 150.008L341.329 149.985Z" fill="#FFCA10" stroke="black" stroke-linejoin="round"/>
<path d="M343.427 155.821L332.035 159.931C314.197 166.359 287.84 138.56 273.169 97.8477C258.498 57.1352 261.043 18.9307 278.904 12.5037L290.297 8.39328C288.351 9.09278 286.583 10.1683 285.039 11.5975C272.128 23.205 271.532 57.4789 284.608 93.7383C297.683 129.998 320.012 156.007 337.362 156.728C339.476 156.823 341.528 156.521 343.474 155.822L343.427 155.821Z" fill="#500FA2" stroke="black" stroke-linejoin="round"/>
<path d="M337.159 95.2853C334.844 95.8602 332.503 94.5515 331.693 92.3479C331.627 92.1837 331.607 92.0438 331.565 91.8569C329.333 82.6704 326.119 73.7405 321.966 65.2308C320.72 62.7848 321.998 59.7455 324.553 58.8274C326.85 57.9965 329.36 59.0765 330.379 61.2616C334.845 70.3363 338.254 79.8983 340.611 89.7153C341.205 92.2161 339.683 94.7152 337.181 95.3323L337.159 95.2853Z" fill="black" stroke="black" stroke-linejoin="round"/>
</svg>
