<svg width="106" height="129" viewBox="0 0 106 129" fill="none" xmlns="http://www.w3.org/2000/svg">
<path d="M71.1395 10.9125C72.9997 11.7872 74.5934 13.13 75.8969 14.8601C83.5885 25.0225 81.6844 48.758 70.3787 72.8037C59.0729 96.8493 42.0155 113.443 29.2827 114.002C27.1188 114.102 25.068 113.731 23.2078 112.856L34.0401 117.95C46.8591 123.977 67.9761 106.045 81.2109 77.8967C94.4457 49.7482 94.7908 22.0328 81.9718 16.0056L71.1395 10.9125Z" fill="#FFCE22" stroke="black"/>
<path d="M65.3273 82.4282C54.3881 101.176 40.2354 113.521 29.2827 114.002C27.1188 114.102 25.068 113.731 23.2078 112.856L34.0401 117.95C45.3282 123.257 63.0506 109.987 76.1595 87.5212L65.3273 82.4282Z" fill="#500FA3"/>
<path d="M71.1395 10.9125C72.9997 11.7872 74.5934 13.13 75.8969 14.8601C83.5885 25.0225 81.6844 48.758 70.3787 72.8037C59.0729 96.8493 42.0155 113.443 29.2827 114.002C27.1188 114.102 25.068 113.731 23.2078 112.856L34.0401 117.95C46.8591 123.977 67.9761 106.045 81.2109 77.8967C94.4457 49.7482 94.7908 22.0328 81.9718 16.0056L71.1395 10.9125Z" stroke="black"/>
<path d="M23.962 50.9795C10.7272 79.1281 10.4015 106.835 23.2079 112.856C25.0681 113.731 27.1189 114.102 29.2827 114.002C42.0155 113.442 59.073 96.8493 70.3787 72.8036C81.6844 48.7579 83.5886 25.0225 75.897 14.86C74.5935 13.1299 72.9998 11.7871 71.1396 10.9125C58.3332 4.8912 37.1968 22.8309 23.962 50.9795Z" fill="#131313" stroke="black"/>
<path d="M23.9618 50.9794L37.3831 111.8C48.6252 106.488 61.34 92.0272 70.3785 72.8035C81.6842 48.7579 83.5883 25.0224 75.8967 14.8599C74.5933 13.1298 72.9995 11.787 71.1393 10.9124C58.333 4.89112 37.1966 22.8309 23.9618 50.9794Z" fill="#FFCA10"/>
<path d="M23.962 50.9795C10.7272 79.1281 10.4015 106.835 23.2079 112.856C25.0681 113.731 27.1189 114.102 29.2827 114.002C42.0155 113.442 59.073 96.8493 70.3787 72.8036C81.6844 48.7579 83.5886 25.0225 75.897 14.86C74.5935 13.1299 72.9998 11.7871 71.1396 10.9125C58.3332 4.8912 37.1968 22.8309 23.962 50.9795Z" stroke="black"/>
</svg>
