<svg width="428" height="419" viewBox="0 0 428 419" fill="none" xmlns="http://www.w3.org/2000/svg">
<path d="M216.633 312.888C224.983 324.81 252.912 326.767 276.019 310.596C294.932 297.351 299.656 276.174 291.82 264.982C280.897 249.381 249.852 254.148 233.898 265.313C211.045 281.315 207.111 299.29 216.633 312.888Z" fill="#500FA2"/>
<path d="M223.207 319.56C235.717 325.979 257.722 324.545 276.55 311.362C296.173 297.627 300.68 276.013 292.579 264.447C287.424 257.086 277.518 253.446 264.684 254.174C253.588 254.807 241.585 258.786 233.36 264.545C222.372 272.239 215.069 280.934 212.235 289.714C209.558 298.003 210.814 306.206 215.865 313.426C217.607 315.913 220.114 317.973 223.207 319.56ZM283.722 259.26C286.661 260.768 289.161 262.825 291.052 265.52C298.477 276.123 293.907 296.931 275.477 309.835C253.231 325.409 225.514 323.947 217.395 312.363C212.689 305.637 211.515 298.012 214.012 290.3C216.722 281.914 223.787 273.545 234.433 266.089C247.11 257.212 270.058 252.258 283.725 259.271L283.722 259.26Z" fill="black"/>
<path d="M297.263 342.562C307.514 333.214 327.682 302.705 330.744 269.949C332.928 276.138 333.77 282.694 333.354 289.371C332.076 310.195 318.617 332.259 295.531 348.423C290.445 351.99 285.144 354.947 279.738 357.32C286.32 352.004 292.812 346.605 297.256 342.558L297.263 342.562Z" fill="#500FA2"/>
<path d="M279.327 358.156C279.571 358.281 279.861 358.298 280.132 358.182C285.676 355.747 291.037 352.725 296.084 349.199C318.69 333.369 332.978 311.027 334.302 289.444C334.303 289.409 334.307 289.384 334.307 289.349C334.722 282.469 333.828 275.842 331.641 269.643C331.491 269.231 331.081 268.968 330.646 269.027C330.211 269.085 329.868 269.428 329.828 269.865C326.814 302.118 306.733 332.681 296.647 341.876C292.748 345.428 286.87 350.384 279.175 356.6C278.811 356.897 278.722 357.415 278.966 357.813C279.056 357.964 279.187 358.085 279.334 358.16L279.327 358.156ZM332.426 289.414C331.104 310.409 317.116 332.183 295.004 347.668C292.337 349.538 289.578 351.263 286.743 352.827C291.401 348.978 295.132 345.771 297.89 343.261C306.713 335.223 326.595 307.33 331.145 274.571C332.304 279.293 332.736 284.231 332.42 289.323C332.42 289.358 332.416 289.382 332.415 289.417L332.426 289.414Z" fill="black"/>
<path d="M223.893 254.214C230.926 249.287 238.439 245.433 246.087 242.634C254.105 239.699 262.279 237.918 270.258 237.287C292.831 235.466 313.786 242.716 324.868 258.539C327.39 262.148 329.346 265.967 330.744 269.949C327.682 302.706 307.514 333.215 297.262 342.562C292.822 346.602 286.326 352.007 279.744 357.324C254.754 368.314 227.57 366.844 209.217 354.814C209.144 354.768 209.078 354.725 209.005 354.679C203.9 351.303 199.493 347.115 196.012 342.134C177.277 315.38 188.641 278.893 223.886 254.21L223.893 254.214ZM276.011 310.592C294.924 297.347 299.648 276.169 291.813 264.977C280.889 249.376 249.844 254.144 233.89 265.309C211.037 281.311 207.103 299.286 216.626 312.883C224.975 324.806 252.904 326.763 276.011 310.592Z" fill="#500FA2"/>
<path d="M213.929 358.631C232.633 368.228 257.403 368.177 280.124 358.179C280.201 358.148 280.268 358.104 280.339 358.052C288.065 351.808 293.972 346.831 297.892 343.255C307.119 334.842 328.438 304.73 331.674 270.039C331.69 269.906 331.67 269.773 331.622 269.643C330.184 265.552 328.169 261.641 325.626 258.004C314.789 242.527 294.057 234.432 270.181 236.358C261.987 237.012 253.768 238.831 245.761 241.762C237.834 244.656 230.293 248.583 223.351 253.452C206.17 265.483 193.9 280.993 188.813 297.117C183.711 313.286 185.997 329.463 195.243 342.673C198.721 347.642 203.176 351.943 208.489 355.462L208.709 355.6C210.388 356.7 212.129 357.716 213.926 358.638L213.929 358.631ZM279.259 356.521C254.952 367.175 228.326 366.211 209.733 354.032L209.528 353.9C204.42 350.514 200.128 346.376 196.784 341.607C178.177 315.032 189.547 279.41 224.428 254.99C231.239 250.221 238.633 246.359 246.404 243.527C254.249 240.653 262.3 238.871 270.329 238.23C293.547 236.353 313.648 244.15 324.095 259.084C326.504 262.52 328.419 266.213 329.79 270.076C326.713 302.261 306.689 332.712 296.625 341.883C292.74 345.425 286.897 350.347 279.252 356.535L279.259 356.521ZM223.136 319.489C227.852 321.908 233.963 323.24 240.787 323.213C252.998 323.168 265.693 318.955 276.543 311.358C285.495 305.092 291.992 296.546 294.833 287.286C297.494 278.619 296.67 270.294 292.575 264.436C287.427 257.078 277.517 253.428 264.68 254.162C253.584 254.796 241.581 258.775 233.356 264.533C222.368 272.227 215.064 280.923 212.231 289.703C209.554 297.991 210.809 306.194 215.86 313.415C217.565 315.856 220.054 317.898 223.133 319.478L223.136 319.489ZM283.714 259.273C286.751 260.831 289.226 262.92 291.037 265.512C294.804 270.895 295.536 278.627 293.046 286.738C290.324 295.594 284.083 303.796 275.473 309.823C264.937 317.203 252.611 321.298 240.779 321.343C230.102 321.382 221.362 318.024 217.391 312.352C212.685 305.626 211.511 298.001 214.007 290.289C216.717 281.903 223.783 273.534 234.428 266.078C242.393 260.503 254.02 256.656 264.79 256.04C272.323 255.611 278.768 256.736 283.721 259.277L283.714 259.273Z" fill="black"/>
<path d="M216.633 312.888C224.983 324.81 252.912 326.767 276.019 310.596C294.932 297.351 299.656 276.174 291.82 264.982C280.897 249.381 249.852 254.148 233.898 265.313C211.045 281.315 207.111 299.29 216.633 312.888Z" fill="#500FA2"/>
<path d="M223.207 319.56C235.717 325.979 257.722 324.545 276.55 311.362C296.173 297.627 300.68 276.013 292.579 264.447C287.424 257.086 277.518 253.446 264.684 254.174C253.588 254.807 241.585 258.786 233.36 264.545C222.372 272.239 215.069 280.934 212.235 289.714C209.558 298.003 210.814 306.206 215.865 313.426C217.607 315.913 220.114 317.973 223.207 319.56ZM283.722 259.26C286.661 260.768 289.161 262.825 291.052 265.52C298.477 276.123 293.907 296.931 275.477 309.835C253.231 325.409 225.514 323.947 217.395 312.363C212.689 305.637 211.515 298.012 214.012 290.3C216.722 281.914 223.787 273.545 234.433 266.089C247.11 257.212 270.058 252.258 283.725 259.271L283.722 259.26Z" fill="black"/>
<path d="M216.633 312.888C224.983 324.81 252.912 326.767 276.019 310.596C294.932 297.351 299.656 276.174 291.82 264.982C280.897 249.381 249.852 254.148 233.898 265.313C211.045 281.315 207.111 299.29 216.633 312.888Z" fill="#500FA2"/>
<path d="M223.207 319.56C235.717 325.979 257.722 324.545 276.55 311.362C296.173 297.627 300.68 276.013 292.579 264.447C287.424 257.086 277.518 253.446 264.684 254.174C253.588 254.807 241.585 258.786 233.36 264.545C222.372 272.239 215.069 280.934 212.235 289.714C209.558 298.003 210.814 306.206 215.865 313.426C217.607 315.913 220.114 317.973 223.207 319.56ZM283.722 259.26C286.661 260.768 289.161 262.825 291.052 265.52C298.477 276.123 293.907 296.931 275.477 309.835C253.231 325.409 225.514 323.947 217.395 312.363C212.689 305.637 211.515 298.012 214.012 290.3C216.722 281.914 223.787 273.545 234.433 266.089C247.11 257.212 270.058 252.258 283.725 259.271L283.722 259.26Z" fill="black"/>
<path d="M275.9 368.743L276.376 368.59L276.379 368.6C301.418 360.42 317.179 345.607 325.87 330.384C333.884 316.346 335.873 301.99 333.622 292.154C331.372 312.338 317.994 333.314 295.829 348.83C267.724 368.507 233.053 369.943 210.467 356.186C212.269 359.487 216.471 365.452 224.841 369.572C234.82 374.484 250.812 376.817 275.9 368.743Z" fill="#2F0B41" stroke="black"/>
<path d="M257.772 380.836C259.4 383.167 262.63 383.715 264.944 382.052C337.739 329.548 339.966 294.92 342.438 261.254C342.508 260.242 342.564 259.241 342.596 258.254C342.739 253.602 345.028 249.295 348.762 246.511C355.964 241.134 365.63 233.976 371.442 229.919C370.432 226.726 370.493 223.228 371.711 219.981C373.224 215.9 374.542 210.654 374.638 204.843C373.441 209.183 370.959 214.518 365.914 219.066C360.008 224.387 351.613 230.903 345.313 235.67C342.952 237.459 339.548 236.496 338.428 233.756C331.162 215.984 315.726 207.051 295.496 211.578C276.933 215.737 255.117 234.331 246.098 242.63C254.116 239.696 262.289 237.914 270.269 237.283C270.499 237.075 270.725 236.857 270.965 236.646C284.358 224.299 321.398 205.755 329.649 246.323C331.244 254.155 331.491 262.113 330.758 269.938C327.696 302.695 307.528 333.204 297.276 342.551C292.836 346.591 286.34 351.997 279.758 357.314C271.671 363.847 263.478 370.247 258.829 373.854C256.679 375.523 256.216 378.585 257.786 380.825L257.772 380.836Z" fill="#FFCA10"/>
<path d="M259.193 383.281C259.736 383.56 260.329 383.758 260.952 383.867C262.556 384.135 264.171 383.767 265.497 382.811C338.313 330.283 340.871 295.455 343.337 261.768L343.373 261.32C343.451 260.225 343.503 259.231 343.531 258.286C343.663 253.928 345.771 249.905 349.318 247.263C360.014 239.279 367.424 233.859 371.97 230.692C372.309 230.461 372.45 230.032 372.324 229.642C371.365 226.624 371.456 223.309 372.576 220.32C373.883 216.811 375.454 211.281 375.559 204.867C375.564 204.394 375.225 203.992 374.756 203.927C374.288 203.863 373.851 204.149 373.723 204.603C372.22 210.053 369.378 214.684 365.271 218.384C360.548 222.631 353.641 228.204 344.733 234.932C343.844 235.602 342.732 235.815 341.656 235.527C340.567 235.232 339.703 234.463 339.273 233.415C331.631 214.728 315.181 206.227 295.271 210.68C276.371 214.913 254.134 233.968 245.447 241.962C245.118 242.26 245.05 242.753 245.284 243.137C245.518 243.521 245.982 243.68 246.404 243.527C254.25 240.653 262.301 238.871 270.326 238.237C270.529 238.218 270.73 238.136 270.878 238.001L271.574 237.364C279.957 229.636 298.408 219.057 312.273 223.54C320.628 226.242 326.164 233.976 328.712 246.538C330.204 253.868 330.574 261.722 329.803 269.88C326.792 302.143 306.707 332.695 296.621 341.89C292.722 345.442 286.844 350.399 279.149 356.614C270.929 363.255 262.516 369.824 258.234 373.144C255.689 375.121 255.143 378.739 256.996 381.388C257.569 382.21 258.318 382.859 259.182 383.302L259.193 383.281ZM258.541 380.298C257.261 378.471 257.63 375.967 259.395 374.603C263.681 371.275 272.111 364.707 280.343 358.045C288.069 351.802 293.975 346.824 297.896 343.248C307.122 334.835 328.442 304.724 331.678 270.032C332.462 261.696 332.083 253.653 330.554 246.137C327.856 232.873 321.898 224.659 312.856 221.736C298.129 216.978 279.348 227.633 270.325 235.957C270.198 236.068 270.074 236.189 269.943 236.307L269.866 236.373C263.245 236.927 256.614 238.241 250.087 240.277C260.169 231.38 279.299 216.151 295.686 212.477C314.913 208.174 330.171 216.047 337.55 234.098C338.199 235.68 339.517 236.849 341.168 237.301C342.802 237.752 344.515 237.416 345.866 236.394C354.817 229.634 361.766 224.031 366.527 219.742C369.196 217.336 371.411 214.477 373.079 211.294C372.498 214.657 371.614 217.529 370.828 219.643C369.643 222.81 369.485 226.293 370.354 229.52C365.751 232.746 358.49 238.066 348.199 245.739C344.194 248.726 341.811 253.267 341.662 258.207C341.634 259.134 341.582 260.093 341.508 261.164L341.476 261.605C339.039 294.858 336.52 329.249 264.407 381.266C263.496 381.925 262.377 382.187 261.269 381.996C260.161 381.806 259.19 381.194 258.545 380.273L258.541 380.298Z" fill="black"/>
<path d="M250.174 140.304C245.719 141.068 241.385 141.92 237.221 142.852C236.625 142.98 236.043 143.115 235.454 143.252C232.763 143.873 230.142 144.53 227.615 145.209L227.614 145.209C225.67 145.736 223.772 146.271 221.923 146.831C221.361 146.994 220.814 147.165 220.272 147.333C220.098 147.386 219.923 147.441 219.751 147.495C219.577 147.549 219.406 147.603 219.236 147.655L219.236 147.655C218.988 147.731 218.742 147.811 218.502 147.89C218.384 147.928 218.268 147.966 218.154 148.003L218.148 148.005C217.923 148.08 217.701 148.153 217.479 148.226L217.474 148.228C217.252 148.301 217.029 148.374 216.805 148.449C216.424 148.571 216.04 148.701 215.67 148.826C215.285 148.95 214.915 149.08 214.552 149.209L214.549 149.21L214.549 149.21C214.307 149.296 214.046 149.387 213.786 149.478C213.511 149.574 213.236 149.67 212.982 149.76C212.582 149.901 212.199 150.042 211.821 150.181C211.82 150.181 211.82 150.181 211.819 150.181L211.779 150.196C211.373 150.344 210.951 150.497 210.541 150.657C208.884 151.272 207.307 151.902 205.808 152.536C205.369 152.718 204.928 152.907 204.499 153.092L204.497 153.092C202.21 154.085 200.129 155.088 198.248 156.08L198.248 156.08C197.081 156.697 195.758 156.419 194.913 155.593L194.717 155.382L194.631 155.29C194.326 154.889 194.124 154.398 194.069 153.832M250.174 140.304C250.173 140.304 250.173 140.304 250.173 140.304L250.258 140.797L250.174 140.304ZM250.174 140.304C251.588 140.059 253.019 139.831 254.462 139.612L254.463 139.611C256.046 139.376 257.638 139.143 259.237 138.932L259.241 138.931C259.573 138.889 259.913 138.845 260.256 138.799C260.722 138.738 261.193 138.675 261.656 138.62L261.66 138.619C262.118 138.568 262.576 138.514 263.038 138.46C263.387 138.419 263.738 138.377 264.091 138.337L264.093 138.337C265.67 138.16 267.27 137.984 268.881 137.839L268.89 137.838L268.899 137.838C269.011 137.832 269.092 137.827 269.175 137.813L269.194 137.809L269.213 137.808C269.569 137.774 269.924 137.743 270.278 137.712L270.28 137.712L270.283 137.711C270.637 137.68 270.99 137.649 271.344 137.616L271.348 137.616C272.694 137.503 274.039 137.409 275.398 137.314M275.398 137.314C275.398 137.314 275.399 137.314 275.399 137.314L275.434 137.813L275.396 137.314C275.396 137.314 275.397 137.314 275.398 137.314ZM275.398 137.314C275.926 137.274 276.446 137.247 276.978 137.221C277.637 137.183 278.301 137.144 278.986 137.116C279.603 137.08 280.237 137.054 280.854 137.028L281.001 137.021C287.733 136.737 294.544 136.748 301.318 137.11C302.064 137.139 302.81 137.186 303.557 137.242C304.269 137.281 304.984 137.331 305.703 137.391C306.218 137.425 306.718 137.469 307.22 137.516C307.625 137.549 308.035 137.586 308.444 137.622C308.733 137.648 309.022 137.674 309.308 137.699L309.312 137.699C309.338 137.701 309.399 137.706 309.469 137.721C310.068 137.776 310.676 137.845 311.277 137.913L311.278 137.913C312.382 138.03 313.49 138.157 314.592 138.298M314.592 138.298C314.592 138.298 314.591 138.298 314.591 138.298L314.529 138.794L314.593 138.298C314.592 138.298 314.592 138.298 314.592 138.298ZM314.592 138.298C315.322 138.39 316.048 138.489 316.763 138.591M316.763 138.591C316.763 138.591 316.764 138.592 316.764 138.592L316.693 139.087L316.763 138.591ZM316.763 138.591C320.128 139.065 323.466 139.63 326.759 140.322M326.759 140.322C326.758 140.322 326.758 140.322 326.757 140.321L326.658 140.812L326.761 140.322C326.76 140.322 326.76 140.322 326.759 140.322ZM326.759 140.322C327.584 140.489 328.387 140.662 329.202 140.85M329.202 140.85C356.324 146.976 380.954 160.312 393.243 186.786M329.202 140.85C329.202 140.85 329.202 140.85 329.202 140.85L329.09 141.338M329.202 140.85C329.201 140.85 329.201 140.85 329.2 140.85L329.09 141.338M393.243 186.786L387.679 148.301M393.243 186.786C393.497 187.332 393.745 187.883 393.988 188.44L388.173 148.228M393.243 186.786L393.503 188.579C381.56 161.246 356.668 147.566 329.09 141.338M387.679 148.301C386.433 139.848 380.863 130.708 371.453 122.413C362.05 114.124 348.843 106.709 332.401 101.705C299.523 91.6987 253.733 91.34 199.658 112.881L199.657 112.881C194.272 115.018 190.922 120.443 191.465 126.221L192.136 133.35L191.639 133.397M387.679 148.301L388.173 148.228M387.679 148.301L387.678 148.299L388.173 148.228M191.639 133.397L192.136 133.35L193.294 145.603L192.796 145.65M191.639 133.397L192.796 145.65M191.639 133.397L190.967 126.268C190.403 120.267 193.882 114.634 199.473 112.416C307.809 69.2607 383.101 113.797 388.173 148.228M192.796 145.65L193.294 145.603L194.069 153.832M192.796 145.65L193.572 153.88M194.069 153.832L193.572 153.88M194.069 153.832L194.07 153.833L193.572 153.88M193.572 153.88L329.09 141.338M309.265 138.197C308.974 138.172 308.684 138.146 308.394 138.12C307.987 138.083 307.581 138.047 307.177 138.014C306.673 137.967 306.176 137.923 305.665 137.89C304.948 137.83 304.234 137.78 303.524 137.741C302.779 137.685 302.037 137.638 301.295 137.61C294.537 137.249 287.741 137.237 281.022 137.521L280.875 137.527C280.256 137.553 279.625 137.58 279.011 137.616C278.328 137.644 277.666 137.682 277.004 137.721L277.003 137.721L309.265 138.197ZM309.265 138.197C309.307 138.201 309.349 138.205 309.388 138.216L309.265 138.197ZM254.537 140.106C256.119 139.87 257.707 139.638 259.303 139.427C259.643 139.385 259.985 139.339 260.328 139.294C260.79 139.233 261.252 139.172 261.715 139.116C262.173 139.065 262.636 139.011 263.1 138.956C263.449 138.915 263.799 138.873 264.148 138.833C265.726 138.657 267.321 138.481 268.926 138.337C269.035 138.331 269.143 138.325 269.259 138.305C269.615 138.272 269.969 138.241 270.324 138.21C270.679 138.178 271.034 138.147 271.39 138.114L254.537 140.106ZM218.307 148.479C218.426 148.441 218.545 148.402 218.663 148.363C218.901 148.285 219.138 148.208 219.382 148.133L218.307 148.479Z" fill="#2F0B41" stroke="black"/>
<path d="M198.719 156.957C198.009 157.332 197.257 157.461 196.541 157.389L196.594 157.448L196.595 157.449L197.435 158.381C201.675 163.052 208.352 164.621 214.231 162.363L214.232 162.363C256.188 146.276 291.357 146.434 317.679 152.951C343.978 159.463 361.473 172.334 368.041 181.716C373.52 189.536 375.256 197.623 375.131 204.848C375.035 210.728 373.708 216.034 372.172 220.153L372.172 220.153C370.998 223.288 370.936 226.677 371.912 229.764C372.46 231.483 373.336 233.123 374.535 234.562L374.544 234.573L374.553 234.586C374.586 234.631 374.624 234.677 374.655 234.711L374.663 234.72L374.671 234.73C376.45 236.887 379.772 236.914 381.535 234.768C385.493 229.948 389.532 222.88 392.092 215.007C394.649 207.144 395.718 198.518 393.798 190.548C382.255 162.239 357.072 148.162 328.985 141.819C328.767 141.771 328.55 141.723 328.334 141.675C327.745 141.545 327.159 141.415 326.563 141.295L326.56 141.294C323.287 140.615 319.974 140.046 316.627 139.575L316.626 139.575C315.915 139.473 315.194 139.375 314.47 139.284L314.469 139.283C313.375 139.143 312.274 139.016 311.175 138.9L311.175 138.9L311.165 138.899C310.562 138.824 309.957 138.765 309.344 138.706C309.318 138.704 309.257 138.699 309.188 138.685C309.084 138.675 308.98 138.665 308.876 138.656C308.3 138.603 307.724 138.549 307.143 138.506L307.143 138.506L307.134 138.505C306.634 138.458 306.131 138.418 305.632 138.381L305.627 138.381C304.915 138.321 304.206 138.272 303.5 138.234L303.5 138.234L303.489 138.233C302.749 138.177 302.013 138.131 301.279 138.102L301.272 138.102C294.531 137.742 287.751 137.731 281.046 138.014L281.043 138.014C280.376 138.038 279.71 138.073 279.041 138.108C278.816 138.12 278.591 138.131 278.367 138.142C277.92 138.165 277.476 138.187 277.036 138.213L277.035 138.213C276.773 138.228 276.513 138.243 276.252 138.259C275.993 138.275 275.732 138.29 275.469 138.305C275.249 138.321 275.029 138.337 274.81 138.353C273.681 138.434 272.56 138.515 271.433 138.605C270.737 138.664 270.037 138.729 269.334 138.794C269.254 138.809 269.181 138.814 269.127 138.817C269.106 138.819 269.089 138.819 269.074 138.82C269.037 138.822 269.013 138.824 268.986 138.827L268.976 138.828C267.381 138.975 265.786 139.14 264.209 139.323L264.208 139.323C263.864 139.363 263.515 139.404 263.165 139.445C262.7 139.5 262.235 139.555 261.778 139.606C261.585 139.63 261.393 139.655 261.202 139.679C260.589 139.757 259.982 139.835 259.372 139.916C257.771 140.13 256.186 140.361 254.616 140.593C253.181 140.816 251.752 141.039 250.347 141.282L250.346 141.283C245.906 142.044 241.588 142.893 237.441 143.822L237.436 143.823C237.086 143.898 236.747 143.976 236.405 144.055C236.167 144.11 235.927 144.165 235.681 144.22C232.997 144.845 230.392 145.492 227.878 146.168C225.938 146.693 224.045 147.222 222.216 147.781L222.209 147.783C221.656 147.944 221.116 148.112 220.57 148.282L220.568 148.282C220.224 148.387 219.874 148.494 219.542 148.601C219.298 148.683 219.053 148.761 218.813 148.837C218.695 148.874 218.578 148.911 218.464 148.948C218.009 149.094 217.562 149.238 217.129 149.389L217.129 149.389L217.118 149.393C216.742 149.514 216.362 149.641 215.99 149.767L215.83 149.294L215.99 149.767C215.805 149.829 215.623 149.893 215.438 149.956L215.435 149.957C215.252 150.021 215.066 150.085 214.879 150.148C214.35 150.33 213.837 150.512 213.322 150.695C213.119 150.77 212.936 150.835 212.756 150.9C212.563 150.969 212.374 151.037 212.168 151.113L212.166 151.114L212.123 151.129C211.714 151.278 211.303 151.427 210.905 151.583L210.897 151.586C209.253 152.196 207.688 152.821 206.2 153.45C205.994 153.539 205.794 153.623 205.597 153.706C205.364 153.805 205.134 153.902 204.898 154.003C202.634 154.986 200.576 155.978 198.719 156.957Z" fill="#500FA2" stroke="black"/>
<path d="M84.3462 310.438C107.125 314.646 135.996 288.065 146.056 247.363C156.109 206.657 148.626 170.734 118.883 161.782C89.5649 152.961 56.6679 182.21 46.6146 222.916C36.5614 263.622 53.0571 304.653 84.3531 310.442L84.3462 310.438Z" fill="#500FA2"/>
<path d="M72.8424 307.493C76.4089 309.322 80.1981 310.615 84.1752 311.354C95.6032 313.469 108.896 308.022 120.628 296.407C132.809 284.345 142.16 267.012 146.964 247.583C152.148 226.606 152.602 207.524 148.295 192.405C143.65 176.127 133.57 165.227 119.158 160.885C108.288 157.614 96.5295 159.316 85.1414 165.801C66.6449 176.347 51.8991 197.609 45.7027 222.686C39.6598 247.155 42.909 272.396 54.4011 290.216C59.4045 297.975 65.664 303.818 72.8318 307.496L72.8424 307.493ZM125.466 165.415C147.471 176.706 155.026 207.122 145.148 247.126C134.747 289.229 105.402 313.375 84.513 309.512C73.05 307.397 63.1753 300.368 55.9734 289.193C44.7535 271.803 41.5898 247.098 47.519 223.125C53.5032 198.908 68.2745 177.562 86.063 167.418C96.9931 161.19 108.247 159.546 118.614 162.665C121.029 163.394 123.32 164.315 125.466 165.415Z" fill="black"/>
<path d="M54.4395 180.309L56.7066 182.511C56.7066 182.511 58.8702 183.216 81.4132 161.696C104.069 140.075 130.837 131.845 141.503 166.401C151.703 199.38 127.84 246.42 111.974 262.628C111.217 263.401 110.477 264.104 109.757 264.737C98.1019 274.966 79.7404 288.354 71.0372 294.58C69.6791 295.546 68.8449 296.966 68.5909 298.49C68.5763 298.553 68.5722 298.613 68.5645 298.679C68.3602 300.141 68.6873 301.681 69.6016 302.986C71.5165 305.72 75.3085 306.407 78.0425 304.457C87.002 298.16 106.093 284.293 119.342 271.626C138.819 251.622 153.785 220.995 154.294 184.262C154.395 177.274 157.601 170.683 163.16 166.434C174.801 157.553 192.797 145.632 192.797 145.632L191.639 133.378C183.995 137.763 165.681 152.962 155.75 157.141C153.421 158.128 150.725 157.088 149.629 154.801C138.083 130.74 113.754 125.298 91.5693 140.032L55.0697 168.551C51.3418 171.46 51.0391 176.989 54.4291 180.295L54.4395 180.309Z" fill="#FFCA10"/>
<path d="M71.3655 305.74C71.9854 306.058 72.6624 306.282 73.3719 306.408C75.2139 306.729 77.0671 306.307 78.5875 305.23C88.4324 298.305 106.914 284.82 119.993 272.312C141.934 249.77 154.772 217.7 155.239 184.29C155.338 177.477 158.432 171.241 163.737 167.196C175.218 158.436 193.144 146.549 193.32 146.429C193.61 146.243 193.767 145.901 193.732 145.558L192.575 133.304C192.543 132.989 192.353 132.706 192.075 132.564C191.796 132.421 191.46 132.424 191.185 132.582C188.216 134.288 183.809 137.492 178.71 141.203C170.613 147.089 161.436 153.758 155.408 156.297C153.53 157.093 151.378 156.262 150.487 154.414C144.921 142.812 136.373 135.135 125.759 132.223C114.778 129.202 102.465 131.711 91.0692 139.274L54.5062 167.83C52.5152 169.378 51.3004 171.712 51.1585 174.235C51.0167 176.758 51.9821 179.216 53.788 180.978L56.0515 183.187C56.1451 183.279 56.2633 183.357 56.3925 183.397C58.5868 184.18 71.5637 172.403 82.0641 162.382C97.0809 148.052 111.36 141.73 122.269 144.565C130.573 146.731 136.753 154.17 140.614 166.693C150.706 199.299 126.898 246.06 111.308 261.987C110.604 262.708 109.868 263.404 109.14 264.051C97.2665 274.467 78.1575 288.352 70.495 293.836C68.9816 294.916 67.9739 296.52 67.6747 298.355C67.6602 298.4 67.6486 298.509 67.6405 298.61C67.3986 300.316 67.8284 302.086 68.8461 303.549C69.5051 304.495 70.3761 305.25 71.3722 305.761L71.3655 305.74ZM191.817 145.173C188.905 147.111 173.087 157.703 162.6 165.707C156.84 170.108 153.474 176.873 153.369 184.263C152.907 217.201 140.263 248.808 118.676 270.986C105.226 283.84 85.4052 298.151 77.5074 303.699C76.3892 304.489 75.0344 304.797 73.6922 304.566C72.3361 304.328 71.1533 303.58 70.3667 302.455C69.6215 301.386 69.3093 300.091 69.4907 298.811L69.5095 298.689C69.7376 297.301 70.4711 296.129 71.5788 295.342C79.2659 289.844 98.4383 275.922 110.372 265.44C111.143 264.762 111.903 264.035 112.643 263.279C128.505 247.078 152.7 199.425 142.399 166.13C138.327 152.953 131.718 145.083 122.736 142.745C111.17 139.732 96.2666 146.227 80.7652 161.02C63.1523 177.837 58.1832 180.902 56.9693 181.467L55.0905 179.64C53.6659 178.249 52.9121 176.323 53.0168 174.335C53.125 172.358 54.086 170.519 55.6498 169.306L92.1494 140.788C103.027 133.565 114.803 131.142 125.25 134.021C135.32 136.794 143.465 144.124 148.787 155.223C150.103 157.975 153.326 159.206 156.115 158.023C162.343 155.403 171.609 148.664 179.791 142.716C183.986 139.668 187.976 136.761 190.842 134.967L191.807 145.177L191.817 145.173Z" fill="black"/>
<path d="M51.8339 294.601L53.4406 294.986C56.3163 295.572 59.2661 295.432 62.2405 294.608C77.47 290.446 93.1686 268.819 102.157 237.907C111.338 206.31 107.186 175.932 94.3194 164.72C92.2721 162.93 89.9991 161.632 87.5207 160.888C69.5192 155.515 47.2462 181.706 36.9786 218.456C26.6492 255.412 33.8324 289.228 51.8269 294.598L51.8339 294.601Z" fill="#FFCA10"/>
<path d="M48.3578 294.208C49.3818 294.733 50.4523 295.168 51.5588 295.498C51.5728 295.505 51.5867 295.512 51.6042 295.513L53.2073 295.904C56.2157 296.524 59.33 296.388 62.48 295.514C78.2434 291.203 94.1647 268.696 103.051 238.171C112.065 207.157 108.643 175.976 94.9258 164.018C92.7501 162.119 90.3482 160.763 87.7791 159.991C82.6512 158.46 77.1417 159.285 71.4082 162.45C56.997 170.402 43.4476 191.768 36.0712 218.201C26.342 253.01 31.9289 285.77 48.3544 294.197L48.3578 294.208ZM52.0747 293.704C43.6589 291.172 37.4889 282.119 34.6961 268.2C31.8303 253.89 32.9622 236.317 37.8795 218.724C45.0264 193.15 58.5452 171.707 72.3259 164.109C77.605 161.194 82.6308 160.42 87.2524 161.806C89.5632 162.499 91.7319 163.726 93.7099 165.445C106.691 176.761 109.947 207.804 101.267 237.67C92.5621 267.584 77.1537 289.588 61.9979 293.727C59.1253 294.523 56.3158 294.648 53.6253 294.095L52.0746 293.721L52.0747 293.704Z" fill="black"/>
<path d="M87.5173 160.894C89.9957 161.638 92.2722 162.929 94.3229 164.729C107.193 175.935 111.338 206.309 102.164 237.909C93.1688 268.818 77.4771 290.449 62.244 294.618C59.2732 295.434 56.3093 295.586 53.4372 294.992L68.5674 298.69C68.5751 298.623 68.5792 298.564 68.5939 298.501C68.8479 296.977 69.6784 295.564 71.0402 294.59C79.7433 288.364 98.1049 274.977 109.76 264.747C110.473 264.11 111.22 263.411 111.977 262.638C114.785 256.238 117.282 249.16 119.371 241.538C129.437 204.719 121.564 169.845 103.483 164.765L102.372 164.495L87.5243 160.898L87.5173 160.894Z" fill="#FFCA10"/>
<path d="M53.0118 295.821C53.0745 295.853 53.1477 295.882 53.2176 295.9L68.3478 299.598C68.6132 299.664 68.8869 299.611 69.1091 299.452C69.3314 299.293 69.474 299.049 69.4978 298.78L69.5057 298.696C69.7337 297.308 70.4672 296.136 71.5749 295.349C79.2621 289.851 98.4345 275.929 110.368 265.447C111.139 264.769 111.899 264.042 112.639 263.286C112.717 263.203 112.781 263.112 112.827 263.004C115.704 256.455 118.205 249.317 120.272 241.771C130.356 204.883 122.782 169.203 103.73 163.854L102.588 163.576L87.7298 159.983C87.2373 159.862 86.7405 160.162 86.6059 160.647C86.4713 161.132 86.7531 161.646 87.2348 161.788C89.5526 162.484 91.7248 163.705 93.6923 165.427C106.677 176.736 109.922 207.783 101.246 237.641C92.5411 267.555 77.1291 289.566 61.9803 293.709C59.1077 294.505 56.2912 294.626 53.6113 294.07C53.1117 293.963 52.6216 294.283 52.5079 294.779C52.4124 295.206 52.6217 295.621 52.9873 295.817L53.0118 295.821ZM67.8509 297.548L60.9913 295.876C61.4895 295.78 61.9845 295.655 62.4867 295.517C78.25 291.206 94.1714 268.7 103.058 238.175C112.071 207.161 108.653 175.972 94.9394 164.025C94.7381 163.852 94.5299 163.674 94.325 163.508L103.263 165.674C121.002 170.649 128.124 205.99 118.477 241.291C116.454 248.682 114.007 255.681 111.195 262.105C110.529 262.784 109.836 263.432 109.143 264.044C97.2698 274.46 78.1608 288.345 70.4983 293.829C69.2071 294.75 68.2867 296.047 67.8578 297.551L67.8509 297.548Z" fill="black"/>
<path d="M250.971 290.632C240.887 297.696 234.487 307.029 232.638 315.757C242.139 321.768 258.083 320.304 271.419 310.364C282.724 301.931 288.052 293.911 288.993 286.536C279.814 280.291 264.874 280.903 250.971 290.632Z" fill="#2F0B41" stroke="black"/>
<path d="M233.629 317.973C244.189 323.392 259.678 320.902 272.273 311.516C283.4 303.225 289.514 294.773 290.448 286.4C290.49 286.061 290.336 285.726 290.058 285.531C279.807 278.344 263.768 279.917 250.142 289.461C240.004 296.561 233.08 306.164 231.152 315.805C231.074 316.178 231.238 316.562 231.555 316.768C232.219 317.206 232.915 317.616 233.625 317.98L233.629 317.973ZM288.522 286.74C287.434 294.401 281.596 302.229 271.154 310.009C258.757 319.251 242.91 321.512 233.119 315.538C235.124 306.57 241.688 297.654 251.215 290.988C263.991 282.038 278.9 280.369 288.522 286.74Z" fill="black"/>
<path d="M227.565 310.942L227.565 310.942C228.711 312.581 230.119 313.988 231.741 315.145C233.148 308.948 236.743 302.526 242.197 296.816C238.54 294.103 233.868 292.55 228.655 292.314C226.74 292.228 225.014 293.576 224.664 295.455C223.604 301.156 224.512 306.58 227.565 310.942Z" fill="#2F0B41" stroke="black"/>
<path d="M223.734 295.277C222.594 301.424 223.661 307.012 226.792 311.469L226.792 311.469C228.127 313.374 229.813 315.01 231.804 316.325L231.804 316.325L231.804 316.326L231.804 316.326L231.805 316.326L231.805 316.326L231.805 316.326L231.805 316.326L231.805 316.326L231.805 316.326L231.806 316.326L231.806 316.326L231.806 316.326L231.806 316.327L231.806 316.327L231.807 316.327L231.807 316.327L231.807 316.327L231.807 316.327L231.807 316.327L231.807 316.327L231.808 316.327L231.808 316.327L231.808 316.327L231.808 316.328L231.808 316.328L231.808 316.328L231.809 316.328L231.809 316.328L231.809 316.328L231.809 316.328L231.809 316.328L231.81 316.328L231.81 316.328L231.81 316.328L231.81 316.329L231.81 316.329L231.81 316.329L231.811 316.329L231.811 316.329L231.811 316.329L231.811 316.329L231.811 316.329L231.812 316.329L231.812 316.329L231.812 316.33L231.812 316.33L231.812 316.33L231.812 316.33L231.813 316.33L231.813 316.33L231.813 316.33L231.813 316.33L231.813 316.33L231.814 316.33L231.814 316.33L231.814 316.331L231.814 316.331L231.814 316.331L231.815 316.331L231.815 316.331L231.815 316.331L231.815 316.331L231.815 316.331L231.815 316.331L231.816 316.331L231.816 316.331L231.816 316.332L231.816 316.332L231.816 316.332L231.817 316.332L231.817 316.332L231.817 316.332L231.817 316.332L231.817 316.332L231.817 316.332L231.818 316.332L231.818 316.333L231.818 316.333L231.818 316.333L231.818 316.333L231.819 316.333L231.819 316.333L231.819 316.333L231.819 316.333L231.819 316.333L231.819 316.333L231.82 316.333L231.82 316.334L231.82 316.334L231.82 316.334L231.82 316.334L231.821 316.334L231.821 316.334L231.821 316.334L231.821 316.334L231.821 316.334L231.821 316.334L231.822 316.334L231.822 316.335L231.822 316.335L231.822 316.335L231.822 316.335L231.823 316.335L231.823 316.335L231.823 316.335L231.823 316.335L231.823 316.335L231.823 316.335L231.824 316.336L231.824 316.336L231.824 316.336L231.824 316.336L231.824 316.336L231.825 316.336L231.825 316.336L231.825 316.336L231.825 316.336L231.825 316.336L231.826 316.336L231.826 316.337L231.826 316.337L231.826 316.337L231.826 316.337L231.826 316.337L231.827 316.337L231.827 316.337L231.827 316.337L231.827 316.337L231.827 316.337L231.828 316.338L231.828 316.338L231.828 316.338L231.828 316.338L231.828 316.338L231.828 316.338L231.829 316.338L231.829 316.338L231.829 316.338L231.829 316.338L231.829 316.338L231.83 316.339L231.83 316.339L231.83 316.339L231.83 316.339L231.83 316.339L231.83 316.339L231.831 316.339L231.831 316.339L231.831 316.339L231.831 316.339L231.831 316.339L231.832 316.34L231.832 316.34L231.832 316.34L231.832 316.34L231.832 316.34L231.832 316.34L231.833 316.34L231.833 316.34L231.833 316.34L231.833 316.34L231.833 316.341L231.834 316.341L231.834 316.341L231.834 316.341L231.834 316.341L231.834 316.341L231.834 316.341L231.835 316.341L231.835 316.341L231.835 316.341L231.835 316.341L231.835 316.342L231.836 316.342L231.836 316.342L231.836 316.342L231.836 316.342L231.836 316.342L231.836 316.342L231.837 316.342L231.837 316.342L231.837 316.342L231.837 316.342L231.837 316.343L231.838 316.343L231.838 316.343L231.838 316.343L231.838 316.343L231.838 316.343L231.839 316.343L231.839 316.343L231.839 316.343L231.839 316.343L231.839 316.344L231.839 316.344L231.84 316.344L231.84 316.344L231.84 316.344L231.84 316.344L231.84 316.344L231.841 316.344L231.841 316.344L231.841 316.344L231.841 316.344L231.841 316.345L231.841 316.345L231.842 316.345L231.842 316.345L231.842 316.345L231.842 316.345L231.842 316.345L231.842 316.345L231.843 316.345L231.843 316.345L231.843 316.345L231.843 316.346L231.843 316.346L231.844 316.346L231.844 316.346L231.844 316.346L231.844 316.346L231.844 316.346L231.844 316.346L231.845 316.346L231.845 316.346L231.845 316.346L231.845 316.347L231.845 316.347L231.846 316.347L231.846 316.347L231.846 316.347L231.846 316.347L231.846 316.347L231.846 316.347L231.847 316.347L231.847 316.347L231.847 316.347L231.847 316.348L231.847 316.348L231.848 316.348L231.848 316.348L231.848 316.348L231.848 316.348L231.848 316.348L231.848 316.348L231.849 316.348L231.849 316.348L231.849 316.349L231.849 316.349L231.849 316.349L231.849 316.349L231.85 316.349L231.85 316.349L231.85 316.349L231.85 316.349L231.85 316.349L231.851 316.349L231.851 316.349L231.851 316.35L231.851 316.35L231.851 316.35L231.851 316.35L231.852 316.35L231.852 316.35L231.852 316.35L231.852 316.35L231.852 316.35L231.853 316.35L231.853 316.35L231.853 316.351L231.853 316.351L231.853 316.351L231.853 316.351L231.854 316.351L231.854 316.351L231.854 316.351L231.854 316.351L231.854 316.351L231.854 316.351L231.855 316.351L231.855 316.351L231.855 316.352L231.855 316.352L231.855 316.352L231.855 316.352L231.856 316.352L231.856 316.352L231.856 316.352L231.856 316.352L231.856 316.352L231.857 316.352L231.857 316.352L231.857 316.353L231.857 316.353L231.857 316.353L231.857 316.353L231.858 316.353L231.858 316.353L231.858 316.353L231.858 316.353L231.858 316.353L231.858 316.353L231.859 316.353L231.859 316.354L231.859 316.354L231.859 316.354L231.859 316.354L231.859 316.354L231.86 316.354L231.86 316.354L231.86 316.354L231.86 316.354L231.86 316.354L231.861 316.354L231.861 316.355L231.861 316.355L231.861 316.355L231.861 316.355L231.861 316.355L231.862 316.355L231.862 316.355L231.862 316.355L231.862 316.355L231.862 316.355L231.862 316.355L231.863 316.355L231.863 316.356L231.863 316.356L231.863 316.356L231.863 316.356L231.863 316.356L231.864 316.356L231.864 316.356L231.864 316.356L231.864 316.356L231.864 316.356L231.864 316.356L231.865 316.357L231.865 316.357L231.865 316.357L231.865 316.357L231.865 316.357L231.865 316.357L231.866 316.357L231.866 316.357L231.866 316.357L231.866 316.357L231.866 316.357L231.866 316.357L231.867 316.358L231.867 316.358L231.867 316.358L231.867 316.358L231.867 316.358L231.867 316.358L231.868 316.358L231.868 316.358L231.868 316.358L231.868 316.358L231.868 316.358L231.868 316.358L231.869 316.359L231.869 316.359L231.869 316.359L231.869 316.359L231.869 316.359L231.869 316.359L231.87 316.359L231.87 316.359L231.87 316.359L231.87 316.359L231.951 316.401C232.045 316.429 232.145 316.424 232.239 316.385L232.239 316.385L232.243 316.384C232.362 316.336 232.462 316.223 232.501 316.062C233.799 309.573 237.623 302.836 243.255 297.069L243.255 297.069L243.256 297.068C243.339 296.983 243.385 296.865 243.377 296.733L243.377 296.733L243.376 296.728C243.37 296.616 243.315 296.502 243.207 296.415C239.334 293.38 234.317 291.627 228.689 291.372L228.688 291.372C226.297 291.262 224.167 292.946 223.734 295.277ZM241.983 297.11L241.951 297.172L241.903 297.223C236.918 302.555 233.44 308.619 231.959 314.525L231.773 315.268L231.168 314.799C229.75 313.701 228.524 312.42 227.514 310.977C224.51 306.688 223.518 301.302 224.6 295.436L224.6 295.436C224.954 293.523 226.698 292.154 228.655 292.242L228.655 292.242C233.672 292.472 238.209 293.923 241.829 296.466L242.185 296.716L241.987 297.103L241.983 297.11Z" fill="#2F0B41" stroke="black"/>
</svg>
