<svg width="124" height="116" viewBox="0 0 124 116" fill="none" xmlns="http://www.w3.org/2000/svg">
<path d="M109.973 92.3068C108.906 93.5669 107.43 94.4362 105.624 94.9233C95.0097 97.8138 72.7651 87.7949 51.4311 69.7307C30.0971 51.6665 16.5609 31.3887 17.6621 20.4434C17.8448 18.5816 18.4588 16.9821 19.5258 15.7219L13.3125 23.0599C5.95963 31.7437 20.2436 55.9222 45.2178 77.0686C70.1921 98.2151 96.4072 108.329 103.76 99.6447L109.973 92.3068Z" fill="#FFCE22" stroke="black"/>
<path d="M42.9594 62.0562C26.5984 46.1791 16.7149 29.8585 17.6621 20.4434C17.8448 18.5816 18.4588 16.9821 19.5258 15.7219L13.3125 23.0599C6.83775 30.7066 17.1404 50.3681 36.7462 69.3941L42.9594 62.0562Z" fill="#500FA3"/>
<path d="M109.973 92.3068C108.906 93.5669 107.43 94.4362 105.624 94.9233C95.0097 97.8138 72.7651 87.7949 51.4311 69.7307C30.0971 51.6665 16.5609 31.3887 17.6621 20.4434C17.8448 18.5816 18.4588 16.9821 19.5258 15.7219L13.3125 23.0599C5.95963 31.7437 20.2436 55.9222 45.2178 77.0686C70.1921 98.2151 96.4072 108.329 103.76 99.6447L109.973 92.3068Z" stroke="black"/>
<path d="M78.0552 38.2872C53.081 17.1407 26.8713 7.0466 19.5257 15.7218C18.4587 16.982 17.8447 18.5815 17.6621 20.4433C16.5608 31.3886 30.097 51.6664 51.4311 69.7306C72.7651 87.7948 95.0096 97.8137 105.624 94.9232C107.43 94.4361 108.906 93.5668 109.973 92.3067C117.319 83.6315 103.029 59.4337 78.0552 38.2872Z" fill="#131313" stroke="black"/>
<path d="M78.0554 38.2871L18.7105 28.0608C22.3036 39.4323 34.3754 55.2888 51.4312 69.7305C72.7652 87.7947 95.0098 97.8136 105.624 94.9231C107.43 94.436 108.906 93.5667 109.973 92.3066C117.319 83.6314 103.03 59.4336 78.0554 38.2871Z" fill="#FFCA10"/>
<path d="M78.0552 38.2872C53.081 17.1407 26.8713 7.0466 19.5257 15.7218C18.4587 16.982 17.8447 18.5815 17.6621 20.4433C16.5608 31.3886 30.097 51.6664 51.4311 69.7306C72.7651 87.7948 95.0096 97.8137 105.624 94.9232C107.43 94.4361 108.906 93.5668 109.973 92.3067C117.319 83.6315 103.029 59.4337 78.0552 38.2872Z" stroke="black"/>
</svg>
