<svg width="58" height="50" viewBox="0 0 58 50" fill="none" xmlns="http://www.w3.org/2000/svg">
<path d="M5.23352 11.4587C5.65298 10.8325 6.27818 10.3626 7.07248 10.0493C11.7388 8.19496 22.3411 11.6007 32.9422 18.7022C43.5433 25.8037 50.7209 34.3084 50.7816 39.3292C50.7941 40.183 50.5974 40.94 50.178 41.5662L52.6206 37.9199C55.5112 33.6048 47.7948 23.3691 35.3848 15.0559C22.9748 6.74268 10.5667 3.49727 7.67612 7.81236L5.23352 11.4587Z" fill="#FFCE22" stroke="black"/>
<path d="M37.1776 21.7496C45.4111 28.1136 50.7294 35.0103 50.7816 39.3292C50.7941 40.183 50.5974 40.94 50.178 41.5662L52.6206 37.9199C55.166 34.1201 49.4866 25.7295 39.6202 18.1033L37.1776 21.7496Z" fill="#500FA3"/>
<path d="M5.23352 11.4587C5.65298 10.8325 6.27818 10.3626 7.07248 10.0493C11.7388 8.19496 22.3411 11.6007 32.9422 18.7022C43.5433 25.8037 50.7209 34.3084 50.7816 39.3292C50.7941 40.183 50.5974 40.94 50.178 41.5662L52.6206 37.9199C55.5112 33.6048 47.7948 23.3691 35.3848 15.0559C22.9748 6.74268 10.5667 3.49727 7.67612 7.81236L5.23352 11.4587Z" stroke="black"/>
<path d="M22.4755 34.3267C34.8855 42.6399 47.2902 45.8768 50.1779 41.566C50.5974 40.9398 50.794 40.1829 50.7815 39.3291C50.7208 34.3082 43.5433 25.8035 32.9421 18.702C22.341 11.6005 11.7387 8.19479 7.0724 10.0491C6.2781 10.3625 5.65291 10.8323 5.23344 11.4585C2.3457 15.7693 10.0655 26.0134 22.4755 34.3267Z" fill="#131313" stroke="black"/>
<path d="M22.4757 34.3268L49.9164 35.9278C47.7046 30.9538 41.4175 24.3796 32.9423 18.7022C22.3412 11.6007 11.7389 8.19496 7.07258 10.0493C6.27828 10.3626 5.65309 10.8325 5.23362 11.4587C2.34588 15.7695 10.0657 26.0136 22.4757 34.3268Z" fill="#FFCA10"/>
<path d="M22.4755 34.3267C34.8855 42.6399 47.2902 45.8768 50.1779 41.566C50.5974 40.9398 50.794 40.1829 50.7815 39.3291C50.7208 34.3082 43.5433 25.8035 32.9421 18.702C22.341 11.6005 11.7387 8.19479 7.07241 10.0491C6.2781 10.3625 5.65291 10.8323 5.23344 11.4585C2.3457 15.7693 10.0655 26.0134 22.4755 34.3267Z" stroke="black"/>
</svg>
