<svg width="24" height="26" viewBox="0 0 24 26" fill="none" xmlns="http://www.w3.org/2000/svg">
<g id="Group 14543">
<path id="Vector" d="M16.0595 5.53877H12.0191L11.9965 5.5L11.9738 5.53877H-0.00354004V18.8986V25.5H23.9965V5.53877H16.0595ZM16.0595 5.69595H23.8075V12.1401H16.0595V5.69595ZM16.0595 25.2129V18.8997H19.8516L16.0595 25.2129ZM7.93347 25.2129L4.14134 18.8997H7.93347V25.2129ZM11.9965 18.7425L8.12622 12.2983H15.868L11.9977 18.7425H11.9965ZM11.9133 18.8997L8.12118 25.2129V18.8997H11.9133ZM12.0784 18.8997H15.8705V25.2129L12.0784 18.8997ZM7.93347 12.3444L4.09095 18.7425H0.185436V12.2983H7.93347V12.3444ZM15.8705 5.69699V11.9515L12.1136 5.69699H15.8705ZM11.8793 5.69699L8.12244 11.9515V5.69699H11.8793ZM0.185436 5.69699H7.93347V12.1412H0.185436V5.69699ZM3.97756 18.8997L0.185436 25.2118V18.8986H3.97756V18.8997ZM23.8075 25.2129L20.0154 18.8997H23.8075V25.2129ZM19.902 18.7425L16.0595 12.3444V12.2983H23.8075V18.7425H19.902Z" fill="#252529"/>
<path id="Vector_2" d="M2.62064 2.9433H4.23072L3.47355 1.3284L2.62064 2.9433ZM0.929932 4.61243V4.3252C1.10757 4.29931 1.25119 4.24754 1.3608 4.17111C1.4704 4.09345 1.57875 3.95908 1.68836 3.76677L3.48993 0.5H4.44237L6.19607 3.83334C6.28552 4.00469 6.38631 4.12303 6.49592 4.19207C6.60552 4.25987 6.76174 4.30548 6.96206 4.32643V4.61366H4.08584V4.32643C4.34285 4.31534 4.52048 4.29192 4.62001 4.25494C4.71828 4.21795 4.76867 4.15755 4.76867 4.07619C4.76867 4.0429 4.74977 3.98373 4.71324 3.89991C4.7082 3.89004 4.70568 3.88265 4.70568 3.88141L4.41214 3.23176H2.47702L2.23513 3.74335L2.22757 3.76307C2.1608 3.89621 2.1293 3.99236 2.1293 4.04907C2.1293 4.13166 2.1734 4.1933 2.26285 4.23275C2.35355 4.27343 2.51733 4.30548 2.75544 4.32643V4.61366H0.929932V4.61243Z" fill="#252529"/>
<path id="Vector_3" d="M8.3101 0.781065H8.23451V3.85183C8.23451 4.0429 8.28112 4.16618 8.37435 4.22165C8.46632 4.27589 8.68301 4.31041 9.02443 4.32643V4.61366H6.95325V4.32643C7.29466 4.31164 7.51136 4.27712 7.60207 4.22165C7.69277 4.16618 7.73939 4.0429 7.73939 3.85183V1.2606C7.73939 1.06953 7.69277 0.946253 7.60207 0.89078C7.51136 0.836539 7.29466 0.802022 6.95325 0.785996V0.5H9.53592L10.8373 3.26504L12.0543 0.5H14.661V0.787229C14.317 0.802022 14.0991 0.836539 14.0071 0.893245C13.9139 0.948718 13.8673 1.07199 13.8673 1.2606V3.85183C13.8673 4.04044 13.9151 4.16371 14.0084 4.21919C14.1016 4.27589 14.3195 4.31041 14.661 4.3252V4.61243H11.6651V4.3252C12.0065 4.31041 12.2232 4.27589 12.3139 4.22042C12.4046 4.16495 12.4512 4.04167 12.4512 3.8506V0.781065H12.3869L10.7051 4.61243H10.1104L8.30884 0.781065H8.3101Z" fill="#252529"/>
<path id="Vector_4" d="M17.2597 3.85183C17.2597 4.03551 17.3076 4.15508 17.4021 4.21302C17.4978 4.26973 17.7107 4.30671 18.0408 4.32643V4.61366H15.0928V4.32643C15.3863 4.30794 15.5766 4.26973 15.6635 4.21302C15.7492 4.15508 15.792 4.03674 15.792 3.85183V1.2606C15.792 1.07692 15.7492 0.957348 15.6635 0.899409C15.5766 0.842703 15.3876 0.80572 15.0928 0.785996V0.5H20.4937L20.6084 1.88314H20.1599C20.0654 1.50715 19.855 1.22978 19.5312 1.0535C19.2062 0.875987 18.7514 0.787229 18.163 0.787229C17.7901 0.787229 17.5457 0.815582 17.4298 0.871056C17.3151 0.927762 17.2572 1.0572 17.2572 1.26184V2.33679H17.5898C17.9337 2.33679 18.192 2.27145 18.3658 2.14078C18.5397 2.01011 18.6443 1.80301 18.6808 1.51825H19.0852V3.45119H18.6808C18.6443 3.16642 18.5384 2.95932 18.3658 2.82865C18.192 2.69798 17.9337 2.63265 17.5898 2.63265H17.2572V3.85183H17.2597Z" fill="#252529"/>
<path id="Vector_5" d="M21.626 1.2606C21.626 1.07692 21.5831 0.957348 21.4975 0.899409C21.4105 0.842703 21.2216 0.80572 20.9268 0.785996V0.5H23.7841V0.787229C23.4956 0.804488 23.3091 0.840237 23.2222 0.895711C23.1365 0.951184 23.0937 1.07323 23.0937 1.2606V3.85183C23.0937 4.03921 23.1365 4.16125 23.2222 4.21672C23.3091 4.27343 23.4956 4.30918 23.7841 4.3252V4.61243H20.9268V4.3252C21.2203 4.30671 21.4105 4.2685 21.4975 4.21179C21.5831 4.15385 21.626 4.03428 21.626 3.8506V1.2606Z" fill="#252529"/>
</g>
</svg>
