<svg width="63" height="28" viewBox="0 0 63 28" fill="none" xmlns="http://www.w3.org/2000/svg">
<g id="Group 38598">
<g id="rH2Dpu.tif">
<g id="Group">
<g id="Group 38599">
<path id="Vector" d="M38.7532 11.8184L40.4504 14.2599V11.8184H41.8649V16.2212H40.1875L38.5531 13.8061L38.4297 13.7797V16.2212H37.0557V11.8184H38.7532Z" fill="#252529"/>
<path id="Vector_2" d="M57.9487 11.8184L59.6063 15.1405L61.3637 11.8184H63.0002L60.5962 16.1819L58.7353 16.224L56.2516 11.8184H57.9487Z" fill="#252529"/>
<path id="Vector_3" d="M51.5227 11.8184V12.7391H49.2396C49.1797 12.7391 48.9367 12.984 48.9141 13.057C48.8651 13.2137 48.9116 13.4153 48.8959 13.5797H50.9165C50.8146 13.7344 50.4216 14.4603 50.2497 14.4603H48.8959C48.9136 14.6351 48.8623 14.8563 48.9141 15.0227C48.9359 15.0928 49.1409 15.3009 49.1991 15.3009H51.5227V16.2216H47.4409V11.8188H51.5227V11.8184Z" fill="#252529"/>
<path id="Vector_4" d="M46.876 11.8984V12.7791H44.0672C43.9216 12.7791 43.8197 13.3399 44.2196 13.4689C44.5431 13.5732 45.178 13.4653 45.5577 13.5046C46.0321 13.5539 46.6778 13.8249 46.8675 14.2887C46.9577 14.5087 46.9338 14.6887 46.9738 14.9036C46.9872 14.9753 47.06 15.0402 47.0673 15.0879C47.079 15.1621 46.9451 15.4259 46.8938 15.4984C46.1404 16.5618 43.8488 16.1285 42.7138 16.2215V15.2611H45.0777C45.2629 15.2611 45.525 15.0286 45.4938 14.8114C45.3964 14.1239 44.8424 14.346 44.3507 14.2999C43.7142 14.2402 42.812 14.1155 42.5221 13.4693C42.3053 12.9863 42.4388 12.3835 42.9034 12.1073C43.0025 12.0484 43.368 11.8992 43.461 11.8992H46.876V11.8984Z" fill="#252529"/>
<path id="Vector_5" d="M56.6954 16.2613H55.0993L54.132 14.6575L53.1445 14.615L52.8967 13.7396H54.3314C54.4697 13.7396 54.7046 13.5793 54.7588 13.4422C54.8906 13.1095 54.7442 12.7824 54.3726 12.7379C54.0964 12.705 52.5808 12.7868 52.4979 12.7335L52.1692 11.8184H54.9375C55.0241 11.8184 55.6343 12.0156 55.7313 12.0729C56.4782 12.513 56.5934 13.4682 56.0488 14.12C55.9258 14.2671 55.6363 14.3417 55.644 14.4772L56.6954 16.2613Z" fill="#252529"/>
<path id="Vector_6" d="M34.5092 11.8184L34.0413 12.5756C33.9633 12.705 33.8197 12.7275 33.6822 12.7403C33.1865 12.786 32.5896 12.6802 32.1035 12.7379C31.7153 12.784 31.4755 13.247 31.6599 13.5793H33.6604L33.1751 14.3196C33.1452 14.3545 33.0231 14.4599 32.9936 14.4599H31.6599L31.5993 14.52V16.2212H30.2252V11.8184H34.5088H34.5092Z" fill="#252529"/>
<path id="Vector_7" d="M36.4097 11.8184H34.9952V16.1811H36.4097V11.8184Z" fill="#252529"/>
</g>
<g id="Vector_8">
<path d="M27.4379 0.411621V27.5888H-0.00170898V0.411621C9.14403 0.411621 18.2918 0.412423 27.4379 0.411621ZM9.61634 5.85507V14.0202H11.2933L11.3539 13.9601V7.61598H16.4054C16.2562 7.92342 16.0742 8.27937 15.8866 8.56317C15.7495 8.7704 15.6852 8.82813 15.4155 8.85699C14.7992 8.92313 13.9994 8.7672 13.4045 8.86621C13.2011 8.89988 12.8089 9.23979 12.8089 9.43701V11.2981L12.9702 10.9578C13.02 10.8869 13.2339 10.6981 13.3139 10.6981H15.8397C15.8473 10.7426 15.834 10.7782 15.8211 10.8195C15.7713 10.977 15.5085 11.5005 15.4175 11.6605C15.0976 12.2245 13.8473 11.8741 13.2828 11.9876C13.1174 12.0208 12.8089 12.3139 12.8089 12.4786V14.0194C13.4069 14.0002 14.0111 14.0447 14.6087 14.021C15.9832 13.9669 17.6197 13.7449 17.7742 12.073C17.8842 10.8853 17.4034 10.3994 16.4224 9.90038C16.3803 9.87874 16.3459 9.92163 16.3645 9.81701C17.0702 9.70597 17.7362 8.97283 17.8154 8.27175C18.0136 6.51887 16.5368 5.95047 15.0532 5.85267L9.61634 5.85507ZM16.2436 18.4632H14.9909V21.1248C14.9909 21.1761 14.7798 21.3849 14.728 21.3849H12.2832C12.3588 21.6371 12.5966 22.0796 12.8784 22.1361C13.6411 22.058 15.295 22.365 15.8999 21.9048C16.0479 21.7926 16.2436 21.4651 16.2436 21.2847V18.4632ZM26.1043 18.4632H24.8516V21.0847C24.8516 21.14 24.6595 21.3849 24.5887 21.3849H22.1641L22.1232 21.4643C22.3068 21.69 22.3828 22.0543 22.7068 22.1285C23.0557 22.2083 24.6219 22.1826 25.0327 22.1449C25.4694 22.1053 25.8629 21.9489 26.0145 21.5164C26.0364 21.4543 26.1043 21.2094 26.1043 21.1653V18.4632ZM1.41279 18.5033V22.1854H4.86817C5.18035 22.1854 5.96686 21.8054 6.20261 21.5862C6.75943 21.0683 6.21393 20.5251 5.6563 20.3439L6.1371 20.0802C6.387 19.7992 6.52732 19.5014 6.37528 19.1318C6.17269 18.6384 5.34089 18.5321 4.86777 18.5037C3.74037 18.4355 2.54706 18.5534 1.41279 18.5033ZM12.3236 22.1854L10.0842 18.5398L8.55324 18.5105L6.26205 22.185H7.69677L9.25321 19.4637L9.36765 19.5294L10.0203 20.744H9.07084C9.01948 20.744 8.83347 20.8518 8.78939 20.9055C8.68021 21.039 8.55081 21.3797 8.4849 21.5445H10.5864L10.9095 22.185L12.3236 22.1854ZM22.1843 22.1854L19.9574 18.5674C19.9267 18.5061 19.8818 18.5073 19.8228 18.5005C19.5619 18.47 18.7394 18.4664 18.4847 18.5009C18.4402 18.5069 18.3969 18.5049 18.3626 18.5402L16.1223 22.1854H17.4762L19.1135 19.4236L19.881 20.7444H18.8911C18.8729 20.7444 18.6982 20.855 18.6687 20.8843L18.2647 21.5449H20.3864L20.7702 22.1854H22.1843Z" fill="#252529"/>
<path d="M2.58472 22.1055V20.6644H4.74691C4.95759 20.6644 5.11327 21.1783 4.82293 21.3403C4.56615 21.4838 3.5904 21.3118 3.19815 21.4124C2.85282 21.5006 2.81481 21.8898 2.58472 22.1055Z" fill="#252529"/>
<path d="M4.86782 19.3036C5.2176 19.3637 5.17029 19.8163 4.7465 19.864C4.32272 19.9117 3.18198 19.7189 2.90741 20.0436L2.58472 20.5843V19.3036H4.86782Z" fill="#252529"/>
</g>
</g>
</g>
</g>
</svg>
