<svg width="64" height="20" viewBox="0 0 64 20" fill="none" xmlns="http://www.w3.org/2000/svg">
<g id="Layer_1" clip-path="url(#clip0_1_1032)">
<path id="Vector" d="M49.2045 11.1829C49.1108 11.5296 48.9116 11.8225 48.6129 12.0616C48.3142 12.3006 47.9921 12.4142 47.6524 12.4142H35.54C35.2003 12.4142 34.9484 12.2947 34.7844 12.0616C34.6146 11.8225 34.5794 11.5296 34.6732 11.1829L37.3674 1.25462C37.4611 0.907941 37.6544 0.609077 37.9531 0.369986C38.2518 0.124917 38.5681 0.00537109 38.9078 0.00537109H51.0202C51.3716 0.00537109 51.6293 0.124917 51.7992 0.358031C51.9632 0.597122 51.9983 0.895987 51.8987 1.25462L51.5825 2.43215H39.4701L37.4201 9.98744H49.5325L49.2104 11.1829H49.2045Z" fill="#252529"/>
<path id="Vector_2" d="M52.9939 12.4148H50.5808L53.9428 0.0239258H56.3559L52.9939 12.4148Z" fill="#252529"/>
<path id="Vector_3" d="M19.7844 0H17.3654L15.1631 8.11716L5.44629 0.0179319L2.07263 12.4447H4.49159L6.68213 4.37537L16.399 12.4746L19.7844 0Z" fill="#252529"/>
<path id="Vector_4" d="M35.5573 0.36389C35.3874 0.130776 35.1297 0.0112305 34.7783 0.0112305H21.4828L20.8268 2.43801H32.9216L32.2188 5.03215H20.1298L18.1208 12.4201H20.5398L21.8869 7.45893H32.7635C33.1032 7.45893 33.4195 7.33938 33.724 7.10627C34.0227 6.86718 34.2219 6.58027 34.3156 6.22761L35.6627 1.26646C35.7623 0.907823 35.7271 0.608959 35.5632 0.369868L35.5573 0.36389Z" fill="#252529"/>
<path id="Vector_5" d="M60.9357 0.0112305L63.9989 6.22761L57.562 12.438L60.9357 0.0112305Z" fill="#008B45"/>
<path id="Vector_6" d="M58.7921 0.0112305L61.8495 6.22761L55.4126 12.438L58.7921 0.0112305Z" fill="#FF6E0C"/>
<path id="Vector_7" d="M55.0202 13.9086C55.1315 13.8309 55.2487 13.795 55.3658 13.795C55.4829 13.795 55.6001 13.8249 55.7231 13.8787C55.7875 13.9026 55.8461 13.9385 55.9047 13.9803C56.0452 14.07 56.1682 14.1835 56.2795 14.315L56.3088 14.3509L56.3791 14.4406H54.8152L54.8035 14.3928V14.3808C54.7918 14.315 54.7918 14.2553 54.8035 14.2015C54.8328 14.076 54.909 13.9803 55.0202 13.9086ZM61.1057 14.6378L60.9417 15.2654H60.1569L60.3209 14.6378H61.1057ZM56.7246 14.4406C56.6778 14.3748 56.6251 14.3091 56.5782 14.2373C56.4201 14.052 56.2678 13.9205 56.1214 13.8189C56.0101 13.7472 55.8988 13.6874 55.7934 13.6516C55.6821 13.6157 55.5591 13.5918 55.4419 13.5918C55.2252 13.5918 55.032 13.6396 54.868 13.7353C54.7098 13.8309 54.6044 13.9743 54.5517 14.1596C54.5341 14.2314 54.5282 14.3031 54.5517 14.3688L54.5634 14.4346H54.1593L54.1065 14.6318H54.5048L54.0304 16.4131H54.3115L54.786 14.6318H56.6719L56.5489 15.0861H55.3951L55.2662 15.11C55.2194 15.128 55.1842 15.1638 55.1667 15.2236C55.1608 15.2535 55.1667 15.3073 55.2897 15.4687L55.3072 15.4866C55.4127 15.6241 55.4888 15.6838 55.5415 15.6838C55.6235 15.6838 55.6587 15.648 55.6704 15.6181L55.7582 15.2834H56.4904L56.1916 16.4131H56.4728L56.9472 14.6318H57.9546L57.8023 15.1997H57.5446L57.4978 15.2116C57.4333 15.2236 57.3982 15.2535 57.3865 15.2953C57.3689 15.373 57.4099 15.4627 57.5271 15.5882C57.6442 15.7078 57.7379 15.7675 57.8141 15.7675C57.8785 15.7675 57.9253 15.7376 57.9546 15.6779L57.978 15.6002L58.2299 14.6438H58.9093L58.4349 16.425H58.7219L59.1963 14.6438H60.0397L59.8757 15.2714H59.6883L59.6063 15.2893C59.5595 15.3013 59.5302 15.3312 59.5126 15.385C59.495 15.4448 59.5419 15.5225 59.6532 15.648C59.7586 15.7675 59.8406 15.8273 59.9109 15.8273C59.9636 15.8273 60.0046 15.8094 60.028 15.7735L60.0456 15.7197L60.11 15.4687H60.8949L60.643 16.4191H60.9241L61.3986 14.6378H61.7734L61.8261 14.4406H56.7364H56.7246Z" fill="#252529"/>
<path id="Vector_8" d="M43.8803 14.6323H44.4074L44.2259 15.3197H43.5406L43.687 14.7518C43.7163 14.6442 43.687 14.5605 43.6167 14.4888C43.5464 14.4231 43.441 14.3872 43.3122 14.3872C43.1833 14.3872 43.0662 14.4171 42.9607 14.4769C42.8612 14.5366 42.7909 14.6323 42.7557 14.7458C42.744 14.7817 42.744 14.8235 42.7557 14.8893V14.9013L42.7792 14.955V14.967H43.0486L43.0252 14.9311L43.0134 14.9072V14.7578C43.0252 14.704 43.0544 14.6622 43.1013 14.6263C43.1423 14.5964 43.195 14.5785 43.2536 14.5785C43.3297 14.5785 43.3766 14.5904 43.4 14.6203L43.4176 14.7279L43.2594 15.3197H42.9959L42.908 15.3496L42.8319 15.4332C42.826 15.4691 42.8319 15.5348 43.0017 15.7142C43.1657 15.8995 43.2302 15.9174 43.2653 15.9174L43.3824 15.8696L43.4059 15.7919L43.4762 15.5348H44.1614L43.9389 16.3717C43.851 16.3896 43.769 16.4135 43.687 16.4553C43.646 16.4793 43.5933 16.5091 43.5289 16.551L43.5054 16.5689L43.687 16.7423L43.7046 16.7303L43.7983 16.6586C43.8686 16.6108 43.9447 16.5868 44.0091 16.5868C44.0853 16.5868 44.138 16.6048 44.1731 16.6466C44.2083 16.6885 44.22 16.7363 44.2024 16.7901C44.179 16.8797 44.1204 16.9515 44.0209 17.0053C43.9213 17.0591 43.8159 17.0889 43.6929 17.0889C43.4996 17.0889 43.3297 17.0232 43.1833 16.8977C43.1306 16.8558 43.0779 16.7961 43.0134 16.7124L42.9959 16.6944L42.7674 16.8797L42.785 16.8977C42.8729 16.9873 42.9432 17.0591 43.0134 17.1009C43.2184 17.2324 43.4352 17.2922 43.6811 17.2922C43.8803 17.2922 44.0619 17.2503 44.2024 17.1607C44.3489 17.071 44.4426 16.9574 44.4836 16.808C44.5128 16.6885 44.4894 16.5809 44.4074 16.4972C44.3547 16.4434 44.2903 16.4075 44.2141 16.3896L44.6768 14.6502H45.696L45.5437 15.218H45.2684L45.2391 15.224C45.1981 15.23 45.1454 15.2479 45.1278 15.3077C45.1103 15.3794 45.1513 15.4751 45.2626 15.6006C45.3797 15.7201 45.4734 15.7799 45.5495 15.7799C45.6081 15.7799 45.6608 15.75 45.6901 15.6903L45.7135 15.6066L45.9654 14.6502H46.6448L46.1704 16.4314H46.4574L46.9318 14.6502H48.8529L48.7534 15.0328H47.8162C47.6815 15.0328 47.5644 15.0626 47.4648 15.1344C47.3652 15.2001 47.2949 15.2958 47.2657 15.4213C47.2071 15.6365 47.2657 15.8636 47.4472 16.1087C47.5117 16.1923 47.6054 16.294 47.7284 16.4016L47.7401 16.4135L47.9627 16.2581L47.9392 16.2402C47.8338 16.1445 47.7518 16.0549 47.6932 15.9831C47.5468 15.7799 47.4941 15.5946 47.5409 15.4153C47.5585 15.3496 47.5937 15.3077 47.6464 15.2718C47.7049 15.236 47.7869 15.218 47.8924 15.218H48.7065L48.3844 16.4314H48.6655L49.1399 14.6502H49.8193L49.3449 16.4314H49.6261L50.1005 14.6502H51.9864L51.8693 15.1045H50.7155L50.5925 15.1284C50.5456 15.1463 50.5105 15.1882 50.4929 15.2479C50.487 15.2778 50.4929 15.3376 50.6335 15.5169C50.7448 15.6544 50.815 15.7142 50.8677 15.7142C50.9322 15.7142 50.9732 15.6903 51.0025 15.6484L51.0903 15.3137H51.8225L51.5237 16.4434H51.8049L52.2793 14.6622H52.6542L52.7069 14.4649H43.933L43.8803 14.6622V14.6323Z" fill="#252529"/>
<path id="Vector_9" d="M37.1971 14.6324L37.0975 15.003H36.4943C36.3537 15.003 36.2248 15.0328 36.1077 15.0986L36.0316 15.1464C35.9671 15.1883 35.9203 15.2361 35.8851 15.2839L35.3287 14.6324H37.1913H37.1971ZM35.7797 15.4871V15.5051L35.768 15.5648L35.6977 15.5947C35.5981 15.6366 35.4986 15.6605 35.3931 15.6605C35.276 15.6605 35.194 15.6306 35.1354 15.5768C35.0769 15.523 35.0651 15.4572 35.0886 15.3676L35.2291 14.8236L35.7914 15.4871H35.7797ZM37.5778 13.9031C37.6423 13.8493 37.7184 13.8254 37.8238 13.8254C37.8941 13.8254 37.9585 13.8374 38.0171 13.8553C38.1342 13.9031 38.2162 13.9928 38.2807 14.1363C38.31 14.202 38.3334 14.3036 38.351 14.4291H37.4841L37.4548 14.3634V14.3514C37.4255 14.2678 37.4255 14.1841 37.4548 14.1004C37.4783 14.0107 37.5193 13.939 37.5778 13.8912V13.9031ZM39.8972 14.74L39.8562 14.6383H40.5766L40.3365 15.5529C40.2662 15.6186 40.2135 15.6605 40.1725 15.6844C40.0202 15.774 39.8738 15.8218 39.7215 15.8278H39.7098C39.5224 15.8278 39.3935 15.7681 39.3232 15.6485C39.3057 15.6186 39.2939 15.5648 39.2822 15.4871C39.3935 15.4692 39.4814 15.4393 39.5516 15.4154C39.7508 15.3317 39.8796 15.1942 39.9265 15.0149C39.9499 14.9312 39.9382 14.8356 39.9031 14.7459L39.8972 14.74ZM38.5208 14.0585C38.4271 13.8434 38.2807 13.7119 38.0698 13.664C38.0112 13.6461 37.941 13.6401 37.8531 13.6401C37.6832 13.6401 37.5427 13.676 37.4255 13.7537C37.3025 13.8314 37.2205 13.945 37.1854 14.1064C37.162 14.1841 37.1678 14.2737 37.203 14.3694L37.2264 14.4411H31.9433L31.8906 14.6383H33.0386L32.9215 15.0866C32.9039 15.1524 32.8688 15.2062 32.8043 15.248C32.7399 15.2899 32.6638 15.3078 32.57 15.3078C32.5115 15.3078 32.4646 15.3018 32.4236 15.2839C32.3709 15.26 32.3592 15.242 32.3592 15.2301L32.2362 14.9492L31.9785 15.0807L31.9902 15.1046C32.0195 15.1703 32.0429 15.2241 32.0605 15.2719C32.1132 15.4034 32.1893 15.5469 32.2889 15.7202C32.3533 15.8278 32.4353 15.9533 32.529 16.0908C32.6052 16.1984 32.6872 16.306 32.7809 16.4196L32.7926 16.4375L33.0386 16.2761L33.021 16.2582L32.9507 16.1745L32.8922 16.1088L32.7868 15.9713C32.7458 15.9175 32.7048 15.8697 32.6813 15.8338L32.488 15.4931C32.5993 15.517 32.7282 15.4931 32.8629 15.4453C32.9625 15.4094 33.0445 15.3616 33.0913 15.3018C33.144 15.242 33.1792 15.1823 33.1967 15.1165L33.3256 14.6383H34.0636L33.5892 16.4196H33.8703L34.3447 14.6383H34.9831L34.7957 15.3496C34.7547 15.4991 34.7957 15.6186 34.907 15.7202C35.0183 15.8159 35.1647 15.8637 35.3463 15.8637C35.4224 15.8637 35.5044 15.8517 35.5923 15.8278C35.645 15.8159 35.7036 15.792 35.7621 15.7681C35.7797 15.8577 35.8148 15.9414 35.8793 16.0191L35.932 16.0789H35.9378C36.0433 16.1865 36.1721 16.2582 36.3186 16.2941L35.3639 16.9635H35.7797L36.4884 16.3957L36.8691 16.9635H37.2088L36.7227 16.318C36.8515 16.306 36.957 16.2761 37.0507 16.2343C37.1913 16.1745 37.326 16.0908 37.4548 15.9653L37.4783 15.9414L37.2674 15.8218L37.2557 15.8338C37.0683 16.0191 36.8515 16.1088 36.5938 16.1088C36.4006 16.1088 36.2483 16.049 36.1428 15.9354C36.0491 15.8398 36.014 15.7322 36.0257 15.6067L36.0374 15.5409L36.055 15.4871C36.0843 15.4214 36.137 15.3616 36.2131 15.3138C36.301 15.254 36.4006 15.2181 36.5118 15.2181H37.326L37.4783 14.6383H38.3158L37.8472 16.4196H38.1284L38.6028 14.6383H39.5341L39.6102 14.7459C39.6571 14.8416 39.6688 14.9193 39.6512 14.991C39.6219 15.0986 39.5634 15.1763 39.4755 15.2301C39.3994 15.2719 39.3057 15.2958 39.1885 15.2958L39.1241 15.2839H39.0831L39.0421 15.266H39.0245V15.2839C38.9777 15.4692 39.0069 15.6366 39.1182 15.786C39.2295 15.9354 39.4169 16.0131 39.6805 16.0131H39.6922C39.8504 16.0131 39.9968 15.9832 40.1432 15.9235L40.2604 15.8637L40.1139 16.4196H40.3951L40.8695 14.6383H41.2443L41.2971 14.4411H38.6204C38.6028 14.2678 38.5677 14.1422 38.5267 14.0585H38.5208Z" fill="#252529"/>
<path id="Vector_10" d="M26.7953 13.9031C26.8597 13.8493 26.9358 13.8254 27.0354 13.8254C27.1057 13.8254 27.1701 13.8374 27.2287 13.8553C27.3458 13.9031 27.4337 13.9988 27.4981 14.1363C27.5274 14.196 27.545 14.2857 27.5684 14.4351H26.7016L26.6723 14.3634C26.6488 14.2797 26.6488 14.196 26.6723 14.1123C26.6957 14.0227 26.7426 13.951 26.8011 13.9031H26.7953ZM29.1147 14.74L29.0737 14.6383H29.7941L29.5539 15.5529C29.4837 15.6186 29.4251 15.6605 29.3841 15.6844C29.2377 15.774 29.0854 15.8218 28.9331 15.8278H28.9214C28.734 15.8278 28.6051 15.7681 28.5407 15.6485C28.5231 15.6126 28.5114 15.5529 28.4997 15.4811C28.611 15.4572 28.7047 15.4333 28.7691 15.4094C28.9682 15.3257 29.0912 15.1883 29.1381 15.0089C29.1615 14.9312 29.1498 14.8356 29.1147 14.74ZM27.7383 14.0585C27.6445 13.8434 27.4923 13.7119 27.2873 13.664C27.2287 13.6461 27.1584 13.6401 27.0706 13.6401C26.9007 13.6401 26.7601 13.676 26.643 13.7537C26.52 13.8314 26.438 13.951 26.397 14.1064C26.3794 14.1781 26.3853 14.2737 26.4146 14.3694L26.438 14.4411H21.1549L21.1022 14.6383H21.6294L21.4478 15.3257H20.7625L20.9148 14.7579C20.9441 14.6563 20.9148 14.5666 20.8445 14.4949C20.7742 14.4291 20.6747 14.3933 20.5399 14.3933C20.4052 14.3933 20.2939 14.4232 20.1885 14.4829C20.0889 14.5427 20.0187 14.6324 19.9894 14.7519V14.8894L20.0128 14.9551V14.9671H20.2822L20.2529 14.9312L20.2412 14.9073V14.7639C20.2529 14.7101 20.2822 14.6623 20.3232 14.6324C20.3642 14.6025 20.4169 14.5845 20.4755 14.5845C20.5517 14.5845 20.6044 14.5965 20.6219 14.6264L20.6337 14.734L20.4755 15.3257H20.2178L20.1241 15.3496L20.0538 15.4333C20.0538 15.4333 20.0304 15.511 20.2237 15.7143C20.3935 15.8996 20.4579 15.9175 20.4931 15.9175L20.6102 15.8697L20.6337 15.792L20.7039 15.5349H21.3892L21.1549 16.4196H21.4361L21.9105 14.6383H22.5841L22.1155 16.4196H22.3966L22.871 14.6383H24.2943L24.1772 15.0866C24.1596 15.1524 24.1245 15.2062 24.06 15.248C23.9956 15.2899 23.9195 15.3078 23.8257 15.3078C23.773 15.3078 23.7203 15.3018 23.6793 15.2839L23.609 15.2301L23.486 14.9492L23.2342 15.0807V15.0986C23.2635 15.1524 23.2869 15.2122 23.3103 15.2719C23.363 15.4034 23.4392 15.5469 23.5329 15.7143C23.5915 15.8099 23.6676 15.9235 23.7789 16.0848C23.8726 16.2104 23.9546 16.318 24.0307 16.4136L24.0425 16.4315L24.2943 16.2701L24.2709 16.2462C24.2182 16.1865 24.1772 16.1446 24.1479 16.1088L24.1069 16.055C24.0307 15.9653 23.978 15.8936 23.937 15.8338L23.7437 15.4931C23.855 15.517 23.9839 15.4931 24.1186 15.4453C24.2182 15.4094 24.3002 15.3616 24.3529 15.3018C24.4056 15.242 24.4407 15.1823 24.4583 15.1165L24.5872 14.6383H26.5727L26.4731 15.0209H25.536C25.4013 15.0209 25.2842 15.0568 25.1846 15.1225C25.085 15.1883 25.0147 15.2839 24.9854 15.4094C24.9269 15.6246 24.9854 15.8517 25.167 16.0968C25.2314 16.1805 25.331 16.2821 25.4482 16.3897L25.4599 16.4016L25.6824 16.2462L25.659 16.2283C25.5477 16.1267 25.4657 16.037 25.413 15.9713C25.2666 15.774 25.2139 15.5828 25.2607 15.4034C25.2783 15.3377 25.3134 15.2899 25.3603 15.26C25.4247 15.2241 25.5067 15.2062 25.6063 15.2062H26.4204L26.0983 16.4196H26.3794L26.8538 14.6383H27.5274L27.0588 16.4196H27.34L27.8144 14.6383H28.7457L28.8218 14.7459C28.8687 14.8356 28.8804 14.9133 28.8628 14.991C28.8335 15.0986 28.775 15.1763 28.6871 15.2301C28.611 15.2719 28.5114 15.2958 28.4001 15.2958L28.3357 15.2839H28.3005L28.2595 15.266H28.242V15.2839C28.1951 15.4632 28.2244 15.6306 28.3357 15.786C28.447 15.9354 28.6344 16.0131 28.898 16.0131H28.9097C29.0678 16.0131 29.2142 15.9832 29.3665 15.9235L29.4837 15.8697L29.3372 16.4256H29.6184L30.0928 14.6443H30.4676L30.5204 14.4471H27.8437C27.8261 14.2737 27.791 14.1482 27.75 14.0645L27.7383 14.0585Z" fill="#252529"/>
<path id="Vector_11" d="M-0.000854492 19.9163L0.56728 17.8242L1.48684 19.0555L1.56298 19.1691L1.63326 19.3006L2.01397 17.9019H2.31268L1.73869 19.994L0.801562 18.7447L0.731277 18.6371L0.672706 18.5176L0.291998 19.9163H-0.000854492Z" fill="#252529"/>
<path id="Vector_12" d="M2.90419 19.1273H3.45475L3.37861 18.667L3.36689 18.5654V18.4399L3.29661 18.5594L3.23218 18.667L2.90419 19.1273ZM3.57775 19.9163L3.49575 19.3962H2.71676L2.34777 19.9163H2.00806L3.53089 17.8242L3.91746 19.9163H3.57775Z" fill="#252529"/>
<path id="Vector_13" d="M4.88992 18.1823L4.42136 19.9157H4.09922L4.57364 18.1823H4.04651L4.12265 17.9014H5.48734L5.4112 18.1823H4.88992Z" fill="#252529"/>
<path id="Vector_14" d="M5.24695 19.9157L5.79165 17.9014H6.11379L5.56909 19.9157H5.24695Z" fill="#252529"/>
<path id="Vector_15" d="M7.87711 18.9182C7.90639 18.8166 7.91225 18.721 7.90054 18.6313C7.88882 18.5416 7.85954 18.458 7.81268 18.3862C7.76582 18.3145 7.7014 18.2607 7.62526 18.2248C7.54911 18.189 7.46126 18.1651 7.36169 18.1651C7.26212 18.1651 7.1684 18.183 7.06883 18.2189C6.96926 18.2547 6.88141 18.3085 6.7877 18.3803C6.69984 18.452 6.6237 18.5297 6.56513 18.6253C6.50656 18.715 6.4597 18.8166 6.43042 18.9182C6.40113 19.0198 6.39527 19.1155 6.40699 19.2051C6.4187 19.2948 6.44799 19.3785 6.49484 19.4502C6.5417 19.5219 6.60613 19.5757 6.68227 19.6116C6.75841 19.6474 6.84627 19.6654 6.94584 19.6654C7.04541 19.6654 7.13912 19.6474 7.23283 19.6116C7.3324 19.5757 7.42026 19.5159 7.51397 19.4502C7.60183 19.3785 7.67797 19.2948 7.73654 19.2051C7.79511 19.1155 7.84197 19.0198 7.87125 18.9182H7.87711ZM8.21096 18.9182C8.16996 19.0617 8.11139 19.1991 8.02353 19.3247C7.93568 19.4502 7.83025 19.5638 7.7014 19.6654C7.57254 19.767 7.43783 19.8387 7.29726 19.8925C7.15669 19.9463 7.01612 19.9702 6.87555 19.9702C6.73498 19.9702 6.60613 19.9463 6.48899 19.8925C6.3777 19.8387 6.28399 19.761 6.20785 19.6654C6.13171 19.5638 6.09071 19.4502 6.07314 19.3247C6.05557 19.1991 6.06728 19.0617 6.10242 18.9182C6.14342 18.7748 6.20785 18.6373 6.28985 18.5118C6.3777 18.3862 6.48313 18.2727 6.61198 18.1711C6.74084 18.0694 6.87555 17.9977 7.01612 17.9439C7.15669 17.8901 7.30312 17.8662 7.44369 17.8662C7.58426 17.8662 7.71311 17.8901 7.82439 17.9439C7.93568 17.9977 8.02939 18.0754 8.10553 18.1711C8.18167 18.2727 8.22267 18.3862 8.24025 18.5177C8.25782 18.6433 8.2461 18.7807 8.21096 18.9242V18.9182Z" fill="#252529"/>
<path id="Vector_16" d="M8.25195 19.9163L8.82594 17.8242L9.73964 19.0555L9.81579 19.1691L9.88607 19.3006L10.2668 17.9019H10.5655L9.99735 19.994L9.06023 18.7447L8.98994 18.6371L8.93137 18.5176L8.55066 19.9163H8.25195Z" fill="#252529"/>
<path id="Vector_17" d="M11.1571 19.1273H11.7077L11.6315 18.667L11.6198 18.5654V18.4399L11.5495 18.5594L11.4851 18.667L11.1571 19.1273ZM11.8307 19.9163L11.7487 19.3962H10.9697L10.6007 19.9163H10.261L11.7838 17.8242L12.1704 19.9163H11.8307Z" fill="#252529"/>
<path id="Vector_18" d="M12.4047 19.9157L12.9552 17.9014H13.2774L12.8088 19.6228H13.5234L13.4472 19.9157H12.4047Z" fill="#252529"/>
<path id="Vector_19" d="M15.2334 18.7442H15.3154C15.4911 18.7442 15.62 18.7262 15.6844 18.6844C15.7547 18.6426 15.8015 18.5768 15.8308 18.4752C15.8601 18.3676 15.8484 18.2899 15.7957 18.248C15.743 18.2062 15.6317 18.1823 15.4618 18.1823H15.3798L15.2275 18.7442H15.2334ZM15.1397 19.0131L14.8937 19.9157H14.595L15.1455 17.9014H15.6317C15.7781 17.9014 15.8777 17.9073 15.9421 17.9253C16.0065 17.9432 16.0592 17.9671 16.1002 18.003C16.1471 18.0508 16.1822 18.1106 16.1939 18.1943C16.2057 18.272 16.1998 18.3616 16.1764 18.4573C16.1529 18.5529 16.1061 18.6426 16.0534 18.7203C15.9948 18.798 15.9304 18.8637 15.8542 18.9115C15.7957 18.9474 15.7254 18.9713 15.6551 18.9892C15.5848 19.0012 15.4735 19.0131 15.333 19.0131H15.1514H15.1397Z" fill="#252529"/>
<path id="Vector_20" d="M16.3754 19.1273H16.9259L16.8498 18.667L16.8381 18.5654V18.4399L16.7678 18.5594L16.7034 18.667L16.3754 19.1273ZM17.0489 19.9163L16.9669 19.3962H16.188L15.819 19.9163H15.4851L17.0079 17.8242L17.3945 19.9163H17.0548H17.0489Z" fill="#252529"/>
<path id="Vector_21" d="M17.5704 19.9157L17.8222 18.9952L17.4532 17.9014H17.7871L18.0155 18.5888L18.039 18.6545L18.0565 18.7501L18.121 18.6605L18.1854 18.5768L18.7945 17.9014H19.1166L18.1385 18.9952L17.8867 19.9157H17.5704Z" fill="#252529"/>
<path id="Vector_22" d="M20.4928 18.9233C20.4928 18.9233 20.4987 18.8635 20.5104 18.7918C20.5163 18.732 20.528 18.6842 20.528 18.6483L20.4577 18.7858L20.364 18.9233L19.5557 19.9932L19.339 18.8994L19.3214 18.7679V18.6424L19.2687 18.7739L19.2043 18.9173L18.724 19.9096H18.4312L19.4679 17.8115L19.7021 19.0787L19.7138 19.1803C19.7138 19.2281 19.7256 19.2819 19.7314 19.3537C19.7666 19.2939 19.8134 19.2222 19.8837 19.1325L19.9247 19.0787L20.8384 17.8115L20.7447 19.9096H20.446L20.4987 18.9173L20.4928 18.9233Z" fill="#252529"/>
<path id="Vector_23" d="M21.0494 19.9157L21.6 17.9014H22.7011L22.625 18.1823H21.846L21.7054 18.6844H22.4903L22.4083 18.9713H21.6293L21.4536 19.6228H22.2326L22.1506 19.9157H21.0494Z" fill="#252529"/>
<path id="Vector_24" d="M22.5721 19.9163L23.1461 17.8242L24.0598 19.0555L24.136 19.1691L24.2121 19.3006L24.5928 17.9019H24.8857L24.3175 19.994L23.3804 18.7447L23.3101 18.6371L23.2516 18.5176L22.8709 19.9163H22.5721Z" fill="#252529"/>
<path id="Vector_25" d="M25.9573 18.1823L25.4829 19.9157H25.1607L25.6352 18.1823H25.1139L25.19 17.9014H26.5547L26.4786 18.1823H25.9573Z" fill="#252529"/>
<path id="Vector_26" d="M26.3032 19.5152L26.5902 19.3957C26.5902 19.4853 26.6137 19.5511 26.6664 19.5989C26.7191 19.6467 26.7952 19.6706 26.8948 19.6706C26.9885 19.6706 27.0705 19.6407 27.1408 19.5869C27.2111 19.5331 27.2579 19.4614 27.2814 19.3717C27.3106 19.2522 27.2462 19.1446 27.0822 19.0549L27.0295 19.0251C26.8421 18.9175 26.7249 18.8159 26.6781 18.7322C26.6312 18.6425 26.6195 18.5409 26.6547 18.4094C26.7015 18.248 26.7894 18.1105 26.9241 18.0089C27.0588 17.9073 27.2169 17.8535 27.3926 17.8535C27.5391 17.8535 27.6503 17.8834 27.7323 17.9372C27.8143 17.997 27.8612 18.0747 27.8671 18.1823L27.5801 18.3138C27.5566 18.248 27.5274 18.2062 27.4864 18.1763C27.4454 18.1464 27.3985 18.1344 27.3341 18.1344C27.2462 18.1344 27.1759 18.1584 27.1115 18.2002C27.0471 18.248 27.0061 18.3078 26.9826 18.3855C26.9475 18.505 27.0295 18.6186 27.2228 18.7262L27.2579 18.7441C27.4278 18.8338 27.5391 18.9234 27.5859 19.0131C27.6328 19.1028 27.6386 19.2104 27.6035 19.3419C27.5508 19.5331 27.4512 19.6826 27.3048 19.7961C27.1584 19.9097 26.9826 19.9635 26.7835 19.9635C26.6137 19.9635 26.4907 19.9217 26.4028 19.844C26.3149 19.7662 26.2798 19.6527 26.2857 19.5032L26.3032 19.5152Z" fill="#252529"/>
<path id="Vector_27" d="M30.5962 18.3921C30.526 18.3144 30.4498 18.2546 30.3561 18.2128C30.2683 18.1709 30.1628 18.153 30.0515 18.153C29.8348 18.153 29.6415 18.2247 29.4658 18.3682C29.2901 18.5116 29.173 18.6909 29.1144 18.9181C29.0558 19.1333 29.0734 19.3126 29.1671 19.456C29.2608 19.5995 29.4073 19.6652 29.6064 19.6652C29.7235 19.6652 29.8407 19.6413 29.9578 19.5995C30.075 19.5576 30.1921 19.4919 30.3151 19.4082L30.2155 19.7788C30.1101 19.8446 30.0047 19.8864 29.8934 19.9223C29.7821 19.9522 29.6708 19.9701 29.5478 19.9701C29.3956 19.9701 29.2667 19.9462 29.1496 19.8924C29.0324 19.8446 28.9446 19.7669 28.8743 19.6712C28.804 19.5756 28.763 19.462 28.7454 19.3305C28.7278 19.199 28.7454 19.0615 28.7806 18.9121C28.8216 18.7627 28.886 18.6252 28.9738 18.4937C29.0617 18.3622 29.1671 18.2486 29.2901 18.153C29.4131 18.0573 29.5478 17.9796 29.6884 17.9258C29.829 17.8721 29.9754 17.8481 30.1218 17.8481C30.239 17.8481 30.3444 17.8661 30.4381 17.9019C30.5318 17.9378 30.6197 17.9856 30.7017 18.0573L30.5962 18.3861V18.3921Z" fill="#252529"/>
<path id="Vector_28" d="M32.541 18.9182C32.5703 18.8166 32.5761 18.721 32.5644 18.6313C32.5527 18.5416 32.5234 18.458 32.4766 18.3862C32.4297 18.3145 32.3653 18.2607 32.2892 18.2248C32.213 18.189 32.1252 18.1651 32.0256 18.1651C31.926 18.1651 31.8323 18.183 31.7327 18.2189C31.6332 18.2547 31.5394 18.3085 31.4516 18.3803C31.3637 18.452 31.2876 18.5297 31.229 18.6253C31.1646 18.715 31.1236 18.8166 31.0943 18.9182C31.065 19.0198 31.0592 19.1155 31.0709 19.2051C31.0826 19.2948 31.1119 19.3785 31.1587 19.4502C31.2056 19.5219 31.27 19.5757 31.3462 19.6116C31.4223 19.6474 31.5102 19.6654 31.6097 19.6654C31.7093 19.6654 31.803 19.6474 31.8967 19.6116C31.9963 19.5757 32.0842 19.5159 32.1779 19.4502C32.2657 19.3785 32.3419 19.2948 32.4004 19.2051C32.459 19.1155 32.5059 19.0198 32.5351 18.9182H32.541ZM32.8749 18.9182C32.8339 19.0617 32.7753 19.1991 32.6874 19.3247C32.5996 19.4502 32.4941 19.5638 32.3653 19.6654C32.2364 19.767 32.1017 19.8387 31.9612 19.8925C31.8206 19.9463 31.68 19.9702 31.5394 19.9702C31.3989 19.9702 31.27 19.9463 31.1529 19.8925C31.0357 19.8387 30.9479 19.761 30.8717 19.6654C30.7956 19.5638 30.7546 19.4502 30.737 19.3247C30.7195 19.1991 30.7312 19.0617 30.7722 18.9182C30.8132 18.7748 30.8717 18.6373 30.9596 18.5118C31.0475 18.3862 31.1529 18.2727 31.2817 18.1711C31.4106 18.0694 31.5453 17.9977 31.6859 17.9439C31.8264 17.8901 31.9729 17.8662 32.1134 17.8662C32.254 17.8662 32.3829 17.8901 32.4941 17.9439C32.6054 17.9977 32.6991 18.0754 32.7753 18.1711C32.8456 18.2727 32.8924 18.3862 32.91 18.5177C32.9276 18.6433 32.9159 18.7807 32.8807 18.9242L32.8749 18.9182Z" fill="#252529"/>
<path id="Vector_29" d="M33.6069 18.7621H33.6655C33.8354 18.7621 33.9525 18.7442 34.0228 18.7023C34.0872 18.6605 34.1341 18.5888 34.1633 18.4871C34.1926 18.3736 34.1868 18.2959 34.1341 18.254C34.0872 18.2122 33.9818 18.1883 33.8236 18.1883H33.7651L33.6069 18.7681V18.7621ZM33.5191 19.0131L33.2731 19.9157H32.9744L33.5249 17.9014H33.9701C34.0989 17.9014 34.2043 17.9133 34.2688 17.9253C34.3332 17.9432 34.3918 17.9731 34.4328 18.0149C34.4796 18.0628 34.5089 18.1285 34.5206 18.2062C34.5323 18.2839 34.5206 18.3676 34.5031 18.4573C34.4562 18.6186 34.3859 18.7442 34.2863 18.8338C34.1868 18.9235 34.0579 18.9773 33.9056 18.9952L34.3332 19.9097H33.9701L33.5601 19.0072H33.5249L33.5191 19.0131Z" fill="#252529"/>
<path id="Vector_30" d="M35.2118 18.7442H35.2938C35.4695 18.7442 35.5983 18.7262 35.6628 18.6844C35.7331 18.6426 35.7799 18.5768 35.8092 18.4752C35.8385 18.3676 35.8268 18.2899 35.7799 18.248C35.7272 18.2062 35.6159 18.1823 35.4461 18.1823H35.3641L35.2118 18.7442ZM35.1181 19.0131L34.8721 19.9157H34.5734L35.1239 17.9014H35.6101C35.7565 17.9014 35.8561 17.9073 35.9205 17.9253C35.9849 17.9432 36.0376 17.9671 36.0786 18.003C36.1255 18.0508 36.1606 18.1106 36.1723 18.1943C36.1841 18.272 36.1782 18.3616 36.1548 18.4573C36.1313 18.5529 36.0845 18.6426 36.0318 18.7203C35.9732 18.798 35.9088 18.8637 35.8326 18.9115C35.7741 18.9474 35.7096 18.9713 35.6335 18.9892C35.5632 19.0012 35.4519 19.0131 35.3114 19.0131H35.1298H35.1181Z" fill="#252529"/>
<path id="Vector_31" d="M37.9997 18.9182C38.029 18.8166 38.0348 18.721 38.0231 18.6313C38.0114 18.5416 37.9821 18.458 37.9352 18.3862C37.8884 18.3145 37.824 18.2607 37.7478 18.2248C37.6717 18.189 37.5838 18.1651 37.4842 18.1651C37.3847 18.1651 37.291 18.183 37.1914 18.2189C37.0918 18.2547 37.004 18.3085 36.9103 18.3803C36.8224 18.452 36.7463 18.5297 36.6877 18.6253C36.6291 18.715 36.5823 18.8166 36.553 18.9182C36.5237 19.0198 36.5178 19.1155 36.5295 19.2051C36.5413 19.2948 36.5705 19.3785 36.6174 19.4502C36.6643 19.5219 36.7287 19.5757 36.8048 19.6116C36.881 19.6474 36.9688 19.6654 37.0684 19.6654C37.168 19.6654 37.2617 19.6474 37.3554 19.6116C37.4491 19.5757 37.5428 19.5159 37.6365 19.4502C37.7244 19.3785 37.8005 19.2948 37.8591 19.2051C37.9177 19.1155 37.9645 19.0198 37.9938 18.9182H37.9997ZM38.3335 18.9182C38.2925 19.0617 38.2339 19.1991 38.1461 19.3247C38.0582 19.4502 37.9528 19.5638 37.824 19.6654C37.6951 19.767 37.5604 19.8387 37.4198 19.8925C37.2792 19.9463 37.1387 19.9702 36.9981 19.9702C36.8575 19.9702 36.7287 19.9463 36.6115 19.8925C36.5003 19.8387 36.4065 19.761 36.3304 19.6654C36.2601 19.5638 36.2133 19.4502 36.1957 19.3247C36.1781 19.1991 36.1898 19.0617 36.225 18.9182C36.266 18.7748 36.3245 18.6373 36.4124 18.5118C36.5003 18.3862 36.6057 18.2727 36.7345 18.1711C36.8634 18.0694 36.9981 17.9977 37.1387 17.9439C37.2792 17.8901 37.4257 17.8662 37.5662 17.8662C37.7068 17.8662 37.8357 17.8901 37.947 17.9439C38.0582 17.9977 38.1519 18.0754 38.2281 18.1711C38.2984 18.2727 38.3452 18.3862 38.3628 18.5177C38.3804 18.6433 38.3687 18.7807 38.3335 18.9242V18.9182Z" fill="#252529"/>
<path id="Vector_32" d="M38.9545 18.7621H39.013C39.1829 18.7621 39.3 18.7442 39.3645 18.7023C39.4289 18.6605 39.4816 18.5888 39.505 18.4871C39.5343 18.3736 39.5285 18.2959 39.4757 18.254C39.4289 18.2122 39.3235 18.1883 39.1653 18.1883H39.1067L38.9486 18.7681L38.9545 18.7621ZM38.8666 19.0131L38.6206 19.9157H38.3219L38.8725 17.9014H39.3176C39.4465 17.9014 39.546 17.9133 39.6163 17.9253C39.6866 17.9432 39.7393 17.9731 39.7803 18.0149C39.8272 18.0628 39.8564 18.1285 39.874 18.2062C39.8857 18.2839 39.874 18.3676 39.8564 18.4573C39.8154 18.6186 39.7393 18.7442 39.6397 18.8338C39.5402 18.9235 39.4113 18.9773 39.259 18.9952L39.6866 19.9097H39.3235L38.9135 19.0072H38.8783L38.8666 19.0131Z" fill="#252529"/>
<path id="Vector_33" d="M40.6058 19.1273H41.1564L41.0803 18.667L41.0686 18.5654V18.4399L40.9983 18.5594L40.9338 18.667L40.6058 19.1273ZM41.2794 19.9163L41.1974 19.3962H40.4184L40.0494 19.9163H39.7097L41.2325 17.8242L41.6191 19.9163H41.2794Z" fill="#252529"/>
<path id="Vector_34" d="M42.5974 18.1823L42.123 19.9157H41.8009L42.2753 18.1823H41.7482L41.8243 17.9014H43.1949L43.1187 18.1823H42.5974Z" fill="#252529"/>
<path id="Vector_35" d="M42.9491 19.9157L43.4997 17.9014H43.8218L43.2712 19.9157H42.9491Z" fill="#252529"/>
<path id="Vector_36" d="M45.5847 18.9182C45.614 18.8166 45.6199 18.721 45.6081 18.6313C45.5964 18.5416 45.5671 18.458 45.5203 18.3862C45.4734 18.3145 45.409 18.2607 45.3329 18.2248C45.2567 18.189 45.1689 18.1651 45.0693 18.1651C44.9697 18.1651 44.876 18.183 44.7764 18.2189C44.6769 18.2547 44.589 18.3085 44.5012 18.3803C44.4133 18.452 44.3372 18.5297 44.2786 18.6253C44.22 18.715 44.1732 18.8166 44.1439 18.9182C44.1146 19.0198 44.1087 19.1155 44.1204 19.2051C44.1322 19.2948 44.1614 19.3785 44.2083 19.4502C44.2552 19.5219 44.3196 19.5757 44.3957 19.6116C44.4719 19.6474 44.5597 19.6654 44.6593 19.6654C44.7589 19.6654 44.8526 19.6474 44.9463 19.6116C45.04 19.5757 45.1337 19.5159 45.2274 19.4502C45.3153 19.3785 45.3914 19.2948 45.45 19.2051C45.5086 19.1155 45.5554 19.0198 45.5847 18.9182ZM45.9186 18.9182C45.8776 19.0617 45.819 19.1991 45.7311 19.3247C45.6433 19.4502 45.5378 19.5638 45.409 19.6654C45.2801 19.767 45.1454 19.8387 45.0049 19.8925C44.8643 19.9463 44.7237 19.9702 44.5832 19.9702C44.4426 19.9702 44.3137 19.9463 44.1966 19.8925C44.0794 19.8387 43.9916 19.761 43.9154 19.6654C43.8393 19.5638 43.7983 19.4502 43.7807 19.3247C43.7632 19.1991 43.7749 19.0617 43.8159 18.9182C43.8569 18.7748 43.9154 18.6373 44.0033 18.5118C44.0912 18.3862 44.1966 18.2727 44.3254 18.1711C44.4543 18.0694 44.589 17.9977 44.7296 17.9439C44.8701 17.8901 45.0166 17.8662 45.1571 17.8662C45.2977 17.8662 45.4266 17.8901 45.5378 17.9439C45.6491 17.9977 45.7428 18.0754 45.819 18.1711C45.8951 18.2727 45.9361 18.3862 45.9537 18.5177C45.9713 18.6433 45.9596 18.7807 45.9244 18.9242L45.9186 18.9182Z" fill="#252529"/>
<path id="Vector_37" d="M45.9009 19.9163L46.469 17.8242L47.3886 19.0555L47.4647 19.1691L47.535 19.3006L47.9157 17.9019H48.2144L47.6463 19.994L46.7033 18.7447L46.6389 18.6371L46.5744 18.5176L46.1937 19.9163H45.9009Z" fill="#252529"/>
<path id="Vector_38" d="M50.6921 18.9182C50.7214 18.8166 50.7273 18.721 50.7156 18.6313C50.7038 18.5416 50.6746 18.458 50.6277 18.3862C50.5808 18.3145 50.5164 18.2607 50.4403 18.2248C50.3641 18.189 50.2763 18.1651 50.1767 18.1651C50.0771 18.1651 49.9834 18.183 49.8839 18.2189C49.7843 18.2547 49.6964 18.3085 49.6086 18.3803C49.5207 18.452 49.4446 18.5297 49.386 18.6253C49.3274 18.715 49.2806 18.8166 49.2513 18.9182C49.222 19.0198 49.2162 19.1155 49.2279 19.2051C49.2396 19.2948 49.2689 19.3785 49.3157 19.4502C49.3626 19.5219 49.427 19.5757 49.5031 19.6116C49.5793 19.6474 49.6671 19.6654 49.7667 19.6654C49.8663 19.6654 49.96 19.6474 50.0537 19.6116C50.1533 19.5757 50.2411 19.5159 50.3348 19.4502C50.4227 19.3785 50.4988 19.2948 50.5574 19.2051C50.616 19.1155 50.6628 19.0198 50.6921 18.9182ZM51.026 18.9182C50.985 19.0617 50.9264 19.1991 50.8386 19.3247C50.7507 19.4502 50.6453 19.5638 50.5164 19.6654C50.3876 19.767 50.2528 19.8387 50.1123 19.8925C49.9717 19.9463 49.8311 19.9702 49.6906 19.9702C49.55 19.9702 49.4211 19.9463 49.304 19.8925C49.1927 19.8387 49.099 19.761 49.0229 19.6654C48.9526 19.5638 48.9057 19.4502 48.8882 19.3247C48.8706 19.1991 48.8823 19.0617 48.9233 18.9182C48.9643 18.7748 49.0229 18.6373 49.1107 18.5118C49.1986 18.3862 49.304 18.2727 49.4329 18.1711C49.5617 18.0694 49.6964 17.9977 49.837 17.9439C49.9776 17.8901 50.1181 17.8662 50.2646 17.8662C50.411 17.8662 50.534 17.8901 50.6453 17.9439C50.7566 17.9977 50.8503 18.0754 50.9264 18.1711C50.9967 18.2727 51.0436 18.3862 51.0611 18.5177C51.0787 18.6433 51.067 18.7807 51.026 18.9242V18.9182Z" fill="#252529"/>
<path id="Vector_39" d="M51.0079 19.9157L51.5585 17.9014H52.6596L52.5835 18.1823H51.8045L51.6639 18.6844H52.4429L52.3668 18.9713H51.5878L51.3301 19.9157H51.0079Z" fill="#252529"/>
<path id="Vector_40" d="M53.2982 19.9157L53.8429 17.9014H54.1651L53.6145 19.9157H53.2982Z" fill="#252529"/>
<path id="Vector_41" d="M53.9132 19.9163L54.4813 17.8242L55.4009 19.0555L55.4712 19.1691L55.5473 19.3006L55.928 17.9019H56.2209L55.6527 19.994L54.7156 18.7447L54.6453 18.6371L54.5868 18.5176L54.2061 19.9163H53.9132Z" fill="#252529"/>
<path id="Vector_42" d="M56.4203 19.6228H56.6897C56.8361 19.6228 56.9532 19.6109 57.0294 19.5929C57.1114 19.575 57.1817 19.5391 57.252 19.4913C57.3457 19.4256 57.4218 19.3479 57.4862 19.2463C57.5507 19.1506 57.5975 19.0371 57.6327 18.9115C57.6678 18.786 57.6795 18.6724 57.6678 18.5708C57.6561 18.4752 57.6209 18.3915 57.5682 18.3317C57.5272 18.2839 57.4687 18.248 57.3984 18.2301C57.3281 18.2122 57.2051 18.2002 57.0411 18.2002H56.8068L56.4203 19.6228ZM56.0161 19.9157L56.5667 17.9014H57.0001C57.2812 17.9014 57.4745 17.9133 57.5799 17.9432C57.6854 17.9731 57.7732 18.0209 57.8435 18.0867C57.9314 18.1763 57.9899 18.2899 58.0075 18.4274C58.0309 18.5648 58.0134 18.7262 57.9665 18.9056C57.9197 19.0849 57.8435 19.2403 57.7498 19.3778C57.6502 19.5152 57.5331 19.6288 57.3984 19.7185C57.293 19.7842 57.1817 19.832 57.0645 19.8619C56.9474 19.8918 56.7717 19.9038 56.5374 19.9038H56.0161V19.9157Z" fill="#252529"/>
<path id="Vector_43" d="M57.9022 19.9157L58.4469 17.9014H58.7691L58.2244 19.9157H57.9022Z" fill="#252529"/>
<path id="Vector_44" d="M59.3137 19.1273H59.8643L59.7882 18.667L59.7764 18.5654V18.4399L59.7062 18.5594L59.6417 18.667L59.3137 19.1273ZM59.9873 19.9163L59.9053 19.3962H59.1205L58.7515 19.9163H58.4176L59.9404 17.8242L60.327 19.9163H59.9873Z" fill="#252529"/>
</g>
<defs>
<clipPath id="clip0_1_1032">
<rect width="64" height="20" fill="white" transform="translate(-0.000854492)"/>
</clipPath>
</defs>
</svg>
