<svg width="60" height="28" viewBox="0 0 60 28" fill="none" xmlns="http://www.w3.org/2000/svg">
<g id="PCI DSS">
<g id="Page-1">
<g id="Group">
<g id="Group_2">
<path id="Vector" d="M40.9605 15.9847L41.5604 16.1632C41.5204 16.3317 41.4604 16.4705 41.3704 16.5796C41.2805 16.6886 41.1805 16.7779 41.0505 16.8275C40.9205 16.8869 40.7605 16.9167 40.5606 16.9167C40.3206 16.9167 40.1306 16.8869 39.9707 16.8175C39.8207 16.7481 39.6907 16.6292 39.5807 16.4507C39.4708 16.2821 39.4108 16.0541 39.4108 15.7864C39.4108 15.4295 39.5107 15.1518 39.7007 14.9535C39.8907 14.7552 40.1706 14.666 40.5206 14.666C40.8005 14.666 41.0105 14.7255 41.1705 14.8346C41.3304 14.9436 41.4504 15.1122 41.5204 15.3501L40.9205 15.479C40.9005 15.4096 40.8805 15.3601 40.8505 15.3303C40.8105 15.2807 40.7705 15.2411 40.7105 15.2113C40.6506 15.1816 40.5906 15.1717 40.5306 15.1717C40.3806 15.1717 40.2606 15.2312 40.1806 15.3601C40.1206 15.4493 40.0907 15.598 40.0907 15.7864C40.0907 16.0244 40.1306 16.1929 40.2006 16.2821C40.2706 16.3714 40.3806 16.4209 40.5106 16.4209C40.6406 16.4209 40.7405 16.3813 40.8005 16.3119C40.8805 16.2226 40.9305 16.1235 40.9605 15.9847Z" fill="#252529"/>
<path id="Vector_2" d="M41.8002 15.7856C41.8002 15.4286 41.9002 15.151 42.1001 14.9527C42.3001 14.7544 42.58 14.6553 42.94 14.6553C43.2999 14.6553 43.5899 14.7544 43.7898 14.9428C43.9898 15.1411 44.0898 15.4088 44.0898 15.7657C44.0898 16.0235 44.0498 16.2317 43.9598 16.3904C43.8698 16.549 43.7498 16.6779 43.5799 16.7671C43.4199 16.8564 43.2099 16.9059 42.97 16.9059C42.73 16.9059 42.5201 16.8663 42.3501 16.787C42.1901 16.7076 42.0601 16.5887 41.9501 16.4102C41.8402 16.2317 41.8002 16.0434 41.8002 15.7856ZM42.4801 15.7856C42.4801 16.0037 42.5201 16.1623 42.6 16.2615C42.68 16.3606 42.79 16.4102 42.94 16.4102C43.09 16.4102 43.1999 16.3606 43.2799 16.2714C43.3599 16.1722 43.3999 16.0037 43.3999 15.7657C43.3999 15.5575 43.3599 15.4088 43.2699 15.3196C43.1899 15.2204 43.07 15.1808 42.93 15.1808C42.79 15.1808 42.68 15.2303 42.6 15.3295C42.5201 15.4088 42.4801 15.5674 42.4801 15.7856Z" fill="#252529"/>
<path id="Vector_3" d="M44.44 14.6958H45.3299L45.6698 16.0244L46.0098 14.6958H46.8996V16.8771H46.3397V15.2114L45.9098 16.8771H45.4099L44.98 15.2114V16.8771H44.42V14.6958H44.44Z" fill="#252529"/>
<path id="Vector_4" d="M47.3391 14.6958H48.4689C48.7189 14.6958 48.8989 14.7553 49.0188 14.8743C49.1388 14.9932 49.1988 15.1519 49.1988 15.37C49.1988 15.5881 49.1288 15.7666 48.9988 15.8856C48.8689 16.0145 48.6589 16.074 48.3889 16.074H48.019V16.887H47.3391V14.6958ZM48.019 15.6278H48.189C48.3189 15.6278 48.4089 15.608 48.4689 15.5584C48.5189 15.5088 48.5489 15.4592 48.5489 15.3898C48.5489 15.3204 48.5289 15.2609 48.4789 15.2114C48.4289 15.1618 48.3489 15.142 48.219 15.142H48.029V15.6278H48.019Z" fill="#252529"/>
<path id="Vector_5" d="M49.5592 14.6958H50.2391V16.3417H51.2989V16.8771H49.5592V14.6958Z" fill="#252529"/>
<path id="Vector_6" d="M51.6388 14.6958H52.3187V16.8771H51.6388V14.6958Z" fill="#252529"/>
<path id="Vector_7" d="M54.1578 16.5094H53.3879L53.2779 16.8663H52.588L53.4179 14.6851H54.1578L54.9876 16.8663H54.2777L54.1578 16.5094ZM54.0178 16.0434L53.7778 15.2601L53.5379 16.0434H54.0178Z" fill="#252529"/>
<path id="Vector_8" d="M55.1978 14.6958H55.8277L56.6575 15.9054V14.6958H57.2974V16.8771H56.6575L55.8376 15.6774V16.8771H55.1978V14.6958Z" fill="#252529"/>
<path id="Vector_9" d="M57.5974 14.6958H59.6671V15.2312H58.9772V16.8771H58.2973V15.2312H57.6074V14.6958H57.5974Z" fill="#252529"/>
</g>
<g id="Rectangle-3-+-Letters">
<path id="Rectangle-3" d="M32.7822 18.0177L34.7519 17.403L34.112 15.995C33.6421 16.58 33.1722 17.3336 32.7822 18.0177ZM32.1123 11.5829L28.253 3.05615L-0.00231934 4.64253L7.82638 25.8207L22.8939 21.1111C21.934 19.7429 21.5841 18.1168 22.6939 17.3236C23.9337 16.4313 25.8034 17.4624 26.9932 18.9199C28.143 17.0163 31.3725 12.5843 32.1123 11.5829Z" fill="#252529"/>
<g id="Letters">
<path id="Oval-1" d="M27.3733 9.21849C28.5531 9.21849 29.5129 8.32616 29.5129 7.21569C29.5129 6.10523 28.5531 5.21289 27.3733 5.21289C26.1935 5.21289 25.2336 6.10523 25.2336 7.21569C25.2336 8.31624 26.1935 9.21849 27.3733 9.21849ZM25.6236 10.0811H29.123V19.1532H25.6236V10.0811Z" fill="white"/>
<path id="Path-3" d="M23.8943 12.7283C23.9243 12.7382 23.9443 12.7283 23.9443 12.6986V10.3983C23.9443 10.3686 23.9243 10.3389 23.8943 10.319C23.8943 10.319 23.4343 10.0216 22.0346 9.94226C21.9646 9.9026 20.7348 9.89268 20.4048 9.94226C15.3057 10.3488 15.1157 14.0073 15.1157 14.166V15.0583C15.1157 15.1674 15.1157 18.9053 20.4048 19.2325C20.9248 19.2721 21.9346 19.2325 22.0346 19.2325C23.2544 19.2325 24.0942 18.8656 24.0942 18.8656C24.1242 18.8557 24.1442 18.826 24.1442 18.7962V16.6447C24.1442 16.615 24.1242 16.605 24.1042 16.6249C24.1042 16.6249 23.7243 16.9223 22.0646 17.0909C21.5946 17.1404 21.3647 17.1206 21.1947 17.0909C18.8351 16.6943 18.7251 14.9889 18.7251 14.9889C18.7251 14.9592 18.7151 14.9096 18.7151 14.8898V14.2354C18.7151 14.2056 18.7151 14.1561 18.7251 14.1362C18.7251 14.1362 18.8851 12.302 21.1947 12.1037H22.0646C23.0744 12.2326 23.8943 12.7283 23.8943 12.7283Z" fill="white"/>
<path id="Path-1" d="M5.39722 19.1236C5.39722 19.1534 5.41721 19.1732 5.44721 19.1732H8.85664C8.88664 19.1732 8.90663 19.1534 8.90663 19.1236V16.4863C8.90663 16.4565 8.92663 16.4367 8.95662 16.4367C8.95662 16.4367 14.4057 16.8234 14.4057 13.2044C14.4057 10.339 10.9863 10.0317 9.86647 10.0813H5.44721C5.41721 10.0813 5.39722 10.1011 5.39722 10.1308V19.1236ZM8.84664 14.424V12.0543H9.6865C9.6865 12.0543 10.8963 12.1039 10.9963 12.9268C11.0163 12.9863 11.0163 13.3928 10.9963 13.4126C10.8363 14.3744 9.78649 14.424 9.78649 14.424H8.84664Z" fill="white"/>
</g>
<path id="Path-7" d="M27.4732 23.5304C27.7532 23.5304 27.9731 23.5304 28.3331 23.3717C29.5729 22.7273 33.7622 12.5844 38.1814 9.46119C38.2114 9.44136 38.2414 9.41162 38.2614 9.38187C38.2914 9.34221 38.2914 9.30255 38.2914 9.30255C38.2914 9.30255 38.2914 9.09434 37.6415 9.09434C33.7122 8.98528 29.6229 17.165 27.4732 20.3973C27.4432 20.4369 27.3033 20.3973 27.3033 20.3973C27.3033 20.3973 25.8635 18.7118 24.6137 18.0673C24.5837 18.0574 24.4437 18.0078 24.2938 18.0177C24.1938 18.0177 23.6139 18.1367 23.3439 18.4143C23.024 18.7514 23.034 18.9398 23.034 19.3463C23.034 19.3761 23.054 19.5149 23.094 19.5843C23.4039 20.1197 24.7937 22.0233 25.9435 23.0743C26.1135 23.2032 26.3834 23.5304 27.4732 23.5304Z" fill="#2BBC5D"/>
</g>
<g id="Group_3">
<path id="Vector_10" d="M39.3413 6.39648H42.6108C43.2607 6.39648 43.7806 6.48572 44.1705 6.65427C44.5704 6.83274 44.9004 7.08061 45.1503 7.39788C45.4103 7.72508 45.6003 8.10184 45.7102 8.52818C45.8302 8.95452 45.8902 9.4106 45.8902 9.89643C45.8902 10.65 45.8002 11.2349 45.6303 11.6514C45.4603 12.0678 45.2203 12.4148 44.9104 12.7023C44.6004 12.98 44.2705 13.1683 43.9205 13.2675C43.4406 13.3964 43.0007 13.4559 42.6108 13.4559H39.3413V6.39648ZM41.5409 7.99278V11.8497H42.0809C42.5408 11.8497 42.8707 11.8001 43.0607 11.7009C43.2507 11.6018 43.4106 11.4233 43.5206 11.1754C43.6306 10.9276 43.6906 10.5112 43.6906 9.946C43.6906 9.19247 43.5706 8.68682 43.3206 8.4092C43.0707 8.13158 42.6708 7.99278 42.0909 7.99278H41.5409Z" fill="#252529"/>
<path id="Vector_11" d="M46.4999 11.1263L48.5995 10.9975C48.6495 11.3346 48.7395 11.5923 48.8795 11.7708C49.1094 12.0583 49.4294 12.1972 49.8493 12.1972C50.1593 12.1972 50.4092 12.1277 50.5792 11.979C50.7492 11.8303 50.8392 11.6618 50.8392 11.4734C50.8392 11.2949 50.7592 11.1263 50.5992 10.9776C50.4392 10.8289 50.0593 10.7 49.4694 10.5711C48.4995 10.353 47.8197 10.0655 47.3997 9.70852C46.9798 9.35159 46.7798 8.8955 46.7798 8.34027C46.7798 7.97342 46.8898 7.63632 47.0998 7.30913C47.3097 6.98194 47.6297 6.73406 48.0596 6.54568C48.4895 6.3573 49.0695 6.26807 49.8093 6.26807C50.7192 6.26807 51.4191 6.43662 51.889 6.77372C52.3689 7.11083 52.6489 7.64623 52.7388 8.37993L50.6592 8.49891C50.5992 8.18163 50.4892 7.95359 50.3092 7.80487C50.1293 7.65615 49.8893 7.58674 49.5794 7.58674C49.3194 7.58674 49.1294 7.63632 48.9995 7.74538C48.8695 7.85444 48.8095 7.98334 48.8095 8.14197C48.8095 8.25104 48.8595 8.3601 48.9695 8.44934C49.0694 8.53857 49.3194 8.6278 49.7093 8.70712C50.6692 8.91533 51.3591 9.12355 51.779 9.33176C52.1989 9.53997 52.4989 9.80767 52.6888 10.115C52.8788 10.4224 52.9688 10.7793 52.9688 11.166C52.9688 11.6221 52.8388 12.0385 52.5889 12.4153C52.3389 12.802 51.979 13.0895 51.529 13.2878C51.0791 13.4861 50.4992 13.5852 49.8093 13.5852C48.5995 13.5852 47.7597 13.3572 47.2897 12.8912C46.8298 12.4252 46.5699 11.8402 46.4999 11.1263Z" fill="#252529"/>
</g>
<g id="Group_4">
<path id="Vector_12" d="M53.5283 11.1263L55.628 10.9975C55.678 11.3346 55.7679 11.5923 55.9079 11.7708C56.1379 12.0583 56.4578 12.1972 56.8778 12.1972C57.1877 12.1972 57.4377 12.1277 57.6076 11.979C57.7776 11.8303 57.8676 11.6618 57.8676 11.4734C57.8676 11.2949 57.7876 11.1263 57.6276 10.9776C57.4677 10.8289 57.0877 10.7 56.4978 10.5711C55.528 10.353 54.8481 10.0655 54.4282 9.70852C54.0182 9.35159 53.8083 8.8955 53.8083 8.34027C53.8083 7.97342 53.9183 7.63632 54.1282 7.30913C54.3382 6.98194 54.6581 6.73406 55.0881 6.54568C55.518 6.3573 56.0979 6.26807 56.8378 6.26807C57.7476 6.26807 58.4475 6.43662 58.9174 6.77372C59.3973 7.11083 59.6773 7.64623 59.7673 8.37993L57.6876 8.49891C57.6276 8.18163 57.5177 7.95359 57.3377 7.80487C57.1577 7.65615 56.9178 7.58674 56.6078 7.58674C56.3478 7.58674 56.1579 7.63632 56.0279 7.74538C55.8979 7.85444 55.8379 7.98334 55.8379 8.14197C55.8379 8.25104 55.8879 8.3601 55.9979 8.44934C56.0979 8.53857 56.3478 8.6278 56.7378 8.70712C57.6976 8.91533 58.3875 9.12355 58.8074 9.33176C59.2274 9.53997 59.5273 9.80767 59.7173 10.115C59.9073 10.4224 59.9972 10.7793 59.9972 11.166C59.9972 11.6221 59.8673 12.0385 59.6173 12.4153C59.3673 12.802 59.0074 13.0895 58.5575 13.2878C58.1076 13.4861 57.5277 13.5852 56.8378 13.5852C55.628 13.5852 54.7881 13.3572 54.3182 12.8912C53.8483 12.4252 53.5883 11.8402 53.5283 11.1263Z" fill="#252529"/>
</g>
</g>
</g>
</g>
</svg>
