<svg width="54" height="14" viewBox="0 0 54 14" fill="none" xmlns="http://www.w3.org/2000/svg">
<g id="Group 14545">
<path id="Vector" d="M30.4389 2.8387C30.6935 0.835737 29.158 0.000488281 27.2423 0.000488281H22.2076L19.2362 10.7712H22.4351L23.3349 7.45007L25.8839 7.46523C25.8839 7.46523 29.8313 7.63088 30.4389 2.83753V2.8387ZM27.1497 3.90843C26.7332 5.06331 25.586 4.92682 25.586 4.92682H24.0199L24.6382 2.63922C24.6382 2.63922 25.6294 2.64389 26.284 2.64389C27.0852 2.64389 27.3761 3.27732 27.1497 3.90726V3.90843Z" fill="#252529"/>
<path id="Vector_2" d="M12.164 2.9458H15.0814L13.879 7.54317C13.879 7.54317 13.5799 8.56856 14.5442 8.64789C15.3055 8.71088 15.8732 7.80681 16.0586 7.19437C16.3026 6.39062 17.2516 2.9458 17.2516 2.9458H20.257L17.9695 10.771H15.3454L15.6679 9.65345C15.6679 9.65345 14.3283 11.2773 12.34 11.0825C10.571 10.9098 10.4197 9.63362 10.7258 8.04245C10.876 7.26086 12.164 2.9458 12.164 2.9458Z" fill="#252529"/>
<path id="Vector_3" d="M37.5364 6.91185C37.9211 5.60999 38.4068 4.37694 38.015 3.69451C37.4155 2.64929 36.334 2.55713 34.7503 2.55713C33.0001 2.55713 30.8405 2.88726 30.1367 5.20169H33.0494C33.0494 5.20169 33.3145 4.33028 34.4078 4.38511C35.3756 4.43411 35.3228 5.09554 34.9662 5.46183C34.3409 6.10344 32.613 5.74764 30.6998 6.40791C29.0282 6.98418 28.4428 9.17029 28.8064 10.0429C29.1584 10.8886 29.8141 10.9971 30.6974 11.0834C32.118 11.2223 33.2066 10.4348 33.7134 9.97288C33.7134 10.4862 33.7274 10.7731 33.7274 10.7731H36.7926L36.7856 10.4862C36.7856 10.4862 36.5123 10.4138 36.5428 10.0324C36.5651 9.7524 37.0941 8.40854 37.5364 6.91302V6.91185ZM33.1292 9.17729C32.6294 9.30328 32.023 9.37211 31.9033 8.92065C31.5737 7.68294 34.4876 7.32131 34.4876 7.32131C34.5075 8.44937 33.5139 9.08163 33.1303 9.17846L33.1292 9.17729Z" fill="#252529"/>
<path id="Vector_4" d="M11.438 2.50857C11.6925 0.505604 9.92004 0.000488281 8.00443 0.000488281H2.96965L-0.00170898 10.7712H3.19723L4.19668 7.1141L5.99146 7.1281C5.99146 7.1281 6.73166 7.08494 6.74691 7.7767C6.76216 8.51396 6.19675 9.86949 6.23311 10.7701H9.52003L9.51299 10.4831C9.51299 10.4831 9.23967 10.4108 9.27017 10.0293C9.28307 9.87066 9.45903 9.36787 9.69012 8.69011C9.82972 8.39147 10.0397 7.68338 10.0198 7.10594C9.99512 6.38501 9.54114 6.05138 8.8854 5.8169C10.9289 5.34095 11.4392 2.50623 11.4392 2.50623L11.438 2.50857ZM8.04432 3.88393C7.63023 4.837 6.34807 4.72851 6.34807 4.72851L4.85476 4.72151L5.40024 2.70338C5.40024 2.70338 6.73635 2.70805 7.39092 2.70805C8.09241 2.70805 8.31177 3.26799 8.04432 3.88393Z" fill="#252529"/>
<path id="Vector_5" d="M38.9233 2.94501H41.8947V7.64037L44.466 2.94501H47.1934L41.6952 12.4372C41.6952 12.4372 41.1849 13.234 40.5515 13.6551C40.0307 14.0016 39.3913 13.9864 39.1966 13.9992C38.1104 13.9899 36.8 13.9864 36.8 13.9864L37.4323 11.7233L38.4552 11.721C38.4552 11.721 38.9233 11.6731 39.1039 11.4445C39.2764 11.2263 39.3644 11.007 39.3644 10.6862C39.3644 10.2056 38.9245 2.94385 38.9245 2.94385L38.9233 2.94501Z" fill="#252529"/>
<path id="Vector_6" d="M51.0069 1.13818L47.5757 13.0078L53.9982 7.07241L51.0069 1.13818Z" fill="#008B45"/>
<path id="Vector_7" d="M48.8067 1.13818L45.3755 13.0078L51.798 7.07241L48.8067 1.13818Z" fill="#FF6E0C"/>
</g>
</svg>
