<svg width="82" height="14" viewBox="0 0 82 14" fill="none" xmlns="http://www.w3.org/2000/svg">
<g id="Group 235">
<path id="Vector" d="M17.5826 0.226375C12.3472 8.21918 9.43861 12.7125 7.37492 13.7624C5.25583 14.8262 4.13396 12.0546 2.98439 10.5988C2.91514 10.5148 2.98439 10.4029 3.08134 10.4169C3.5938 10.5008 4.71567 10.6548 6.03145 10.6128C7.58268 10.5708 9.16161 7.98122 17.361 0.0444023C17.4856 -0.0815789 17.6795 0.086396 17.5826 0.226375Z" fill="#CB2448"/>
<path id="Vector_2" d="M5.92055 10.1788C4.95103 10.0248 3.78761 9.88486 2.76269 9.87087C2.56878 9.87087 2.38873 9.80088 2.25023 9.6749C1.28071 8.80702 0.698998 8.19112 0.0618855 8.06514C-0.00736586 8.06514 -0.0212161 7.96715 0.0341849 7.95315C0.518944 7.72919 1.77932 7.19727 2.98429 7.19727C3.96766 7.19727 5.36654 8.23311 6.39146 9.18497C6.80697 9.57691 6.47456 10.2628 5.92055 10.1788Z" fill="#CB2448"/>
<path id="Vector_3" d="M19.1893 3.04102H21.5439L23.5522 7.21239L25.6297 3.04102H27.8596L24.6048 9.21409V12.4616H22.4857V9.21409L19.1893 3.04102Z" fill="#252529"/>
<path id="Vector_4" d="M28.5234 3.04102V12.4616H34.9915V10.5859H30.6148V8.44421H34.1743V6.77846H30.6009V4.80475H34.7006L35.3239 3.04102H28.5234Z" fill="#252529"/>
<path id="Vector_5" d="M42.1953 3.04037V4.94408H38.6497C38.6497 4.94408 37.9987 4.97208 37.9987 5.57399C37.9987 6.02192 38.7051 6.28788 38.7051 6.28788C38.7051 6.28788 41.6967 7.67367 41.8491 7.74366C42.0014 7.81365 42.6939 8.1776 42.6939 9.73136C42.6939 11.4391 41.4474 12.447 39.6884 12.447H36.0043V10.5572H40.007C40.2009 10.5572 40.5056 10.4873 40.5056 9.81535C40.5056 9.14345 39.5915 8.8495 39.4114 8.76551C39.2314 8.68152 36.8353 7.67367 36.5998 7.53369C36.3644 7.39371 35.8104 7.02977 35.8104 5.476C35.8104 3.92223 36.9045 3.02637 38.1234 3.02637H42.1815L42.1953 3.04037Z" fill="#252529"/>
<path id="Vector_6" d="M53.0399 7.61833C53.4277 7.61833 54.2449 6.68047 54.2449 5.36467C54.2449 4.04886 52.9845 3.04102 51.9596 3.04102H46.9874V12.4616H51.9596C53.2892 12.4616 54.6604 11.4258 54.6604 9.92799C54.6604 8.43021 53.4277 7.61833 53.0399 7.61833ZM49.1065 4.84675H51.3641C51.7657 4.84675 52.1535 5.1547 52.1535 5.86859C52.1535 6.58249 51.6965 6.89044 51.2255 6.89044H49.1203V4.84675H49.1065ZM51.4472 10.5999H49.1065V8.52819H51.461C51.9458 8.52819 52.4582 8.96213 52.4582 9.64803C52.4582 10.3339 51.8073 10.6139 51.4472 10.6139V10.5999Z" fill="#252529"/>
<path id="Vector_7" d="M60.3952 3.04102H58.0407L54.8274 12.4616H57.0434L57.6251 10.3199H60.8107L61.3924 12.4616H63.6223L60.3952 3.04102ZM58.0545 8.90614L59.2318 5.1827L60.3675 8.90614H58.0683H58.0545Z" fill="#252529"/>
<path id="Vector_8" d="M64.2865 12.4616H66.364V6.89044L70.6715 12.4616H72.2504V3.04102H70.1729V8.52819L66.0455 3.04102H64.2865V12.4616Z" fill="#252529"/>
<path id="Vector_9" d="M73.8006 3.04102H75.9335V7.05841L79.3823 3.04102H81.7645L78.2742 7.29638L82 12.4616H79.6316L76.8892 8.64018L75.9335 9.71802V12.4616H73.8006V3.04102Z" fill="#252529"/>
</g>
</svg>
