<svg width="24" height="28" viewBox="0 0 24 28" fill="none" xmlns="http://www.w3.org/2000/svg">
<g id="Group 14543">
<path id="Vector" d="M16.0585 4.51583H12.0182L11.9955 4.47021L11.9728 4.51583H-0.0045166V20.2333V27.9996H23.9955V4.51583H16.0585ZM16.0585 4.70074H23.8065V12.2821H16.0585V4.70074ZM16.0585 27.6618V20.2345H19.8506L16.0585 27.6618ZM7.93249 27.6618L4.14037 20.2345H7.93249V27.6618ZM11.9955 20.0496L8.12525 12.4683H15.867L11.9967 20.0496H11.9955ZM11.9123 20.2345L8.12021 27.6618V20.2345H11.9123ZM12.0774 20.2345H15.8695V27.6618L12.0774 20.2345ZM7.93249 12.5225L4.08997 20.0496H0.18446V12.4683H7.93249V12.5225ZM15.8695 4.70197V12.0602L12.1126 4.70197H15.8695ZM11.8783 4.70197L8.12147 12.0602V4.70197H11.8783ZM0.18446 4.70197H7.93249V12.2833H0.18446V4.70197ZM3.97659 20.2345L0.18446 27.6606V20.2333H3.97659V20.2345ZM23.8065 27.6618L20.0144 20.2345H23.8065V27.6618ZM19.901 20.0496L16.0585 12.5225V12.4683H23.8065V20.0496H19.901Z" fill="#9B9B9B"/>
<path id="Vector_2" d="M2.63309 2.44379H4.24317L3.486 0.828892L2.63309 2.44379ZM0.942383 4.11292V3.82569C1.12002 3.7998 1.26364 3.74803 1.37325 3.6716C1.48286 3.59393 1.5912 3.45957 1.70081 3.26726L3.50238 0.000488281H4.45482L6.20852 3.33383C6.29797 3.50518 6.39876 3.62352 6.50837 3.69255C6.61797 3.76035 6.77419 3.80597 6.97451 3.82692V4.11415H4.09829V3.82692C4.3553 3.81583 4.53293 3.79241 4.63246 3.75542C4.73073 3.71844 4.78112 3.65804 4.78112 3.57668C4.78112 3.54339 4.76223 3.48422 4.72569 3.40039C4.72065 3.39053 4.71813 3.38314 4.71813 3.3819L4.42459 2.73225H2.48947L2.24758 3.24384L2.24002 3.26356C2.17325 3.3967 2.14175 3.49285 2.14175 3.54956C2.14175 3.63215 2.18585 3.69379 2.2753 3.73323C2.366 3.77392 2.52978 3.80597 2.76789 3.82692V4.11415H0.942383V4.11292Z" fill="#9B9B9B"/>
<path id="Vector_3" d="M8.32267 0.281554H8.24708V3.35232C8.24708 3.54339 8.29369 3.66667 8.38692 3.72214C8.47889 3.77638 8.69558 3.8109 9.037 3.82692V4.11415H6.96582V3.82692C7.30724 3.81213 7.52393 3.77761 7.61464 3.72214C7.70535 3.66667 7.75196 3.54339 7.75196 3.35232V0.761091C7.75196 0.570016 7.70535 0.446741 7.61464 0.391268C7.52393 0.337027 7.30724 0.30251 6.96582 0.286485V0.000488281H9.5485L10.8499 2.76553L12.0669 0.000488281H14.6735V0.287717C14.3296 0.30251 14.1116 0.337027 14.0197 0.393733C13.9264 0.449207 13.8798 0.572481 13.8798 0.761091V3.35232C13.8798 3.54093 13.9277 3.6642 14.0209 3.71967C14.1142 3.77638 14.3321 3.8109 14.6735 3.82569V4.11292H11.6776V3.82569C12.019 3.8109 12.2357 3.77638 12.3264 3.72091C12.4172 3.66543 12.4638 3.54216 12.4638 3.35108V0.281554H12.3995L10.7176 4.11292H10.123L8.32141 0.281554H8.32267Z" fill="#9B9B9B"/>
<path id="Vector_4" d="M17.2723 3.35232C17.2723 3.536 17.3202 3.65557 17.4146 3.71351C17.5104 3.77022 17.7233 3.8072 18.0534 3.82692V4.11415H15.1053V3.82692C15.3989 3.80843 15.5891 3.77022 15.6761 3.71351C15.7617 3.65557 15.8046 3.53723 15.8046 3.35232V0.761091C15.8046 0.577412 15.7617 0.457836 15.6761 0.399897C15.5891 0.343191 15.4001 0.306209 15.1053 0.286485V0.000488281H20.5063L20.6209 1.38363H20.1724C20.0779 1.00764 19.8676 0.730272 19.5438 0.55399C19.2187 0.376475 18.7639 0.287717 18.1756 0.287717C17.8027 0.287717 17.5583 0.316071 17.4424 0.371544C17.3277 0.42825 17.2698 0.557688 17.2698 0.762323V1.83728H17.6024C17.9463 1.83728 18.2046 1.77194 18.3784 1.64127C18.5523 1.5106 18.6568 1.3035 18.6934 1.01873H19.0978V2.95168H18.6934C18.6568 2.66691 18.551 2.45981 18.3784 2.32914C18.2046 2.19847 17.9463 2.13313 17.6024 2.13313H17.2698V3.35232H17.2723Z" fill="#9B9B9B"/>
<path id="Vector_5" d="M21.6384 0.761091C21.6384 0.577412 21.5956 0.457836 21.5099 0.399897C21.423 0.343191 21.234 0.306209 20.9392 0.286485V0.000488281H23.7965V0.287717C23.508 0.304976 23.3216 0.340725 23.2346 0.396199C23.149 0.451672 23.1061 0.573714 23.1061 0.761091V3.35232C23.1061 3.53969 23.149 3.66174 23.2346 3.71721C23.3216 3.77392 23.508 3.80966 23.7965 3.82569V4.11292H20.9392V3.82569C21.2328 3.8072 21.423 3.76898 21.5099 3.71228C21.5956 3.65434 21.6384 3.53476 21.6384 3.35108V0.761091Z" fill="#9B9B9B"/>
</g>
</svg>
