<svg width="21" height="24" viewBox="0 0 21 24" fill="none" xmlns="http://www.w3.org/2000/svg">
<g id="Group 14543">
<path id="Vector" d="M13.9274 3.87094H10.5185L10.4994 3.83185L10.4802 3.87094H0.374512V17.3431V23.9999H20.6242V3.87094H13.9274ZM13.9274 4.02944H20.4647V10.5278H13.9274V4.02944ZM13.9274 23.7104V17.3441H17.127L13.9274 23.7104ZM7.07126 23.7104L3.8717 17.3441H7.07126V23.7104ZM10.4994 17.1856L7.23389 10.6873H13.7659L10.5004 17.1856H10.4994ZM10.4292 17.3441L7.22964 23.7104V17.3441H10.4292ZM10.5684 17.3441H13.768V23.7104L10.5684 17.3441ZM7.07126 10.7338L3.82918 17.1856H0.533958V10.6873H7.07126V10.7338ZM13.768 4.0305V10.3376L10.5982 4.0305H13.768ZM10.4005 4.0305L7.2307 10.3376V4.0305H10.4005ZM0.533958 4.0305H7.07126V10.5288H0.533958V4.0305ZM3.73351 17.3441L0.533958 23.7093V17.3431H3.73351V17.3441ZM20.4647 23.7104L17.2652 17.3441H20.4647V23.7104ZM17.1695 17.1856L13.9274 10.7338V10.6873H20.4647V17.1856H17.1695Z" fill="#FFCA10"/>
<path id="Vector_2" d="M2.60034 2.09413H3.95882L3.31998 0.709938L2.60034 2.09413ZM1.17383 3.52482V3.27862C1.32371 3.25643 1.44489 3.21205 1.53737 3.14654C1.62984 3.07997 1.72126 2.9648 1.81374 2.79997L3.33379 -0.00012207H4.1374L5.61707 2.85702C5.69254 3.0039 5.77758 3.10533 5.87005 3.16451C5.96253 3.22262 6.09434 3.26172 6.26335 3.27968V3.52588H3.83658V3.27968C4.05343 3.27017 4.20331 3.25009 4.28728 3.21839C4.3702 3.18669 4.41271 3.13492 4.41271 3.06518C4.41271 3.03665 4.39677 2.98593 4.36594 2.91408C4.36169 2.90563 4.35957 2.89929 4.35957 2.89823L4.11189 2.34139H2.47916L2.27507 2.77989L2.26869 2.7968C2.21236 2.91091 2.18578 2.99333 2.18578 3.04194C2.18578 3.11273 2.22298 3.16556 2.29846 3.19937C2.37499 3.23424 2.51318 3.26172 2.71408 3.27968V3.52588H1.17383V3.52482Z" fill="#FFCA10"/>
<path id="Vector_3" d="M7.40068 0.240791H7.33691V2.87287C7.33691 3.03665 7.37624 3.14232 7.4549 3.18986C7.53249 3.23636 7.71532 3.26594 8.00339 3.27968V3.52588H6.25586V3.27968C6.54393 3.267 6.72676 3.23741 6.80329 3.18986C6.87983 3.14232 6.91916 3.03665 6.91916 2.87287V0.651823C6.91916 0.488044 6.87983 0.382381 6.80329 0.334832C6.72676 0.28834 6.54393 0.258754 6.25586 0.245018V-0.00012207H8.43496L9.53301 2.36991L10.5598 -0.00012207H12.7591V0.246074C12.469 0.258754 12.2851 0.28834 12.2075 0.336945C12.1288 0.384494 12.0895 0.490157 12.0895 0.651823V2.87287C12.0895 3.03454 12.1299 3.1402 12.2085 3.18775C12.2872 3.23636 12.4711 3.26594 12.7591 3.27862V3.52482H10.2314V3.27862C10.5195 3.26594 10.7023 3.23636 10.7788 3.18881C10.8554 3.14126 10.8947 3.0356 10.8947 2.87182V0.240791H10.8405L9.4214 3.52482H8.91968L7.39962 0.240791H7.40068Z" fill="#FFCA10"/>
<path id="Vector_4" d="M14.9519 2.87287C14.9519 3.03031 14.9922 3.13281 15.072 3.18247C15.1528 3.23107 15.3324 3.26277 15.6109 3.27968V3.52588H13.1235V3.27968C13.3712 3.26383 13.5317 3.23107 13.6051 3.18247C13.6773 3.13281 13.7135 3.03137 13.7135 2.87287V0.651823C13.7135 0.494384 13.6773 0.39189 13.6051 0.342228C13.5317 0.293623 13.3723 0.261924 13.1235 0.245018V-0.00012207H17.6805L17.7772 1.18542H17.3988C17.3191 0.86315 17.1416 0.625407 16.8684 0.474308C16.5941 0.322152 16.2104 0.246074 15.714 0.246074C15.3994 0.246074 15.1931 0.270377 15.0954 0.317926C14.9986 0.366531 14.9497 0.477478 14.9497 0.65288V1.57427H15.2304C15.5205 1.57427 15.7385 1.51827 15.8851 1.40626C16.0318 1.29426 16.1201 1.11674 16.1509 0.87266H16.4921V2.52947H16.1509C16.1201 2.28538 16.0308 2.10787 15.8851 1.99587C15.7385 1.88386 15.5205 1.82786 15.2304 1.82786H14.9497V2.87287H14.9519Z" fill="#FFCA10"/>
<path id="Vector_5" d="M18.6354 0.651823C18.6354 0.494384 18.5992 0.39189 18.5269 0.342228C18.4536 0.293623 18.2941 0.261924 18.0454 0.245018V-0.00012207H20.4562V0.246074C20.2128 0.260867 20.0555 0.29151 19.9822 0.339058C19.9099 0.386607 19.8737 0.491214 19.8737 0.651823V2.87287C19.8737 3.03348 19.9099 3.13809 19.9822 3.18564C20.0555 3.23424 20.2128 3.26489 20.4562 3.27862V3.52482H18.0454V3.27862C18.2931 3.26277 18.4536 3.23002 18.5269 3.18141C18.5992 3.13175 18.6354 3.02926 18.6354 2.87182V0.651823Z" fill="#FFCA10"/>
</g>
</svg>
