<svg width="68" height="24" viewBox="0 0 68 24" fill="none" xmlns="http://www.w3.org/2000/svg">
<g id="Group 236">
<g id="Group">
<path id="Vector" d="M46.1668 15.0032L49.2108 21.6917L49.2296 15.0032H50.5637V21.1464H53.3446V22.037H48.0082L47.0875 20.1649H45.5655V19.3289H46.8056L45.5655 16.7116V15.0213H46.1668V15.0032ZM45.5655 20.1468H44.0059L43.104 22.0188H40.6049V15.0577H42.0329V21.8189L45.2085 15.0032H45.5655V16.6935L45.5091 16.5481L44.3441 19.3107H45.5655V20.1468ZM11.1418 22.0552V21.5644L11.4424 22.037L11.1418 22.0552ZM11.1418 20.8738C11.7243 21.8916 13.0208 22.2006 14.0542 22.2187C15.3508 22.2369 16.497 21.6008 16.8728 21.11C17.5117 20.2195 17.305 17.2933 17.305 15.8211C19.447 15.6757 21.6079 16.0028 21.3449 18.7109C21.0818 21.1827 19.3343 21.4736 17.0043 21.3827C16.854 21.6553 16.5909 21.8734 16.2151 22.037C21.8334 22.455 22.1716 20.7829 22.7729 19.4561V22.037L28.6167 22.0733V16.9843L33.0888 22.037H34.1786V15.8211H36.6401V22.037H38.087V15.8392H40.7364V15.0759H33.0888V20.1104L28.6167 15.0759H27.602V21.2918H23.9755V18.82H27.0383V18.0748H23.9755L23.9943 15.8029H27.1886V15.0577H22.6602V17.4023C22.4723 17.0024 22.2468 16.5844 21.9837 16.2391C20.8187 14.8396 18.6015 15.1122 16.0272 15.1122V18.6019C16.0272 19.7833 15.9145 21.4009 14.073 21.419C12.4759 21.4372 12.1564 20.5103 12.1001 18.9654C12.1188 17.9294 12.0625 16.2391 12.0625 15.1122H11.1418V20.8738ZM11.1418 15.1304V20.8738C10.9163 20.5103 10.8223 20.0741 10.8223 19.5288V15.1122H11.1418V15.1304ZM11.1418 21.5644L9.43185 18.9835C10.3526 18.4928 10.8223 17.6931 10.5217 16.5299C10.221 15.4576 9.48822 15.2031 8.09774 15.1849H7.985V15.8029H8.52991C9.35668 16.1119 9.46943 17.8567 8.7554 18.2747C8.58629 18.4019 8.30443 18.4383 7.985 18.4565V19.2744H8.13532L9.95797 22.0915L11.1418 22.037V21.5644ZM8.00379 15.1849V15.8029H6.78242V18.4383C7.06428 18.4383 7.57161 18.4746 8.00379 18.4565V19.2744H6.78242V22.0915H5.33557L5.35436 15.1668H8.00379V15.1849ZM2.55462 19.4379C2.87405 19.4379 3.21228 19.4198 3.49413 19.3652C3.60687 19.3471 4.133 19.1289 4.18937 19.0926C5.39195 18.3656 5.39195 16.1846 4.18937 15.4576C3.83236 15.2576 3.23107 15.1668 2.55462 15.1486V15.8756H2.9868C3.96389 16.021 4.05784 17.475 3.62567 18.2202C3.43776 18.5473 2.98679 18.6746 2.55462 18.7109V19.4379ZM2.55462 15.1486V15.8756H1.22051V18.6927C1.53995 18.7109 2.06607 18.7473 2.55462 18.7109V19.4379C2.29156 19.4379 2.02849 19.4379 1.78422 19.4198H1.22051V22.1279H-0.000854492V15.2031C0.713175 15.1849 1.69027 15.1304 2.55462 15.1486Z" fill="#9B9B9B"/>
<g id="Group_2">
<path id="Vector_2" d="M57.6653 17.3833C57.6653 17.3833 57.703 17.456 57.9101 17.6014C58.1173 17.7468 58.1926 17.765 58.1926 17.765C58.1926 17.765 58.1361 17.9831 58.1361 18.3284C58.1361 18.6919 58.2868 19.3644 58.2868 19.3462C58.2868 19.328 58.0608 19.0736 57.8536 18.492C57.6277 17.8377 57.6653 17.3833 57.6653 17.3833Z" fill="#9B9B9B"/>
<path id="Vector_3" d="M56.4253 19.1283C56.4253 19.1283 56.5192 19.0011 56.5568 18.8375C56.5944 18.6739 56.5944 18.5467 56.5944 18.5467C56.5944 18.5467 56.7635 18.5285 56.989 18.3468C57.2145 18.165 57.3648 18.0015 57.3648 18.0015C57.3648 18.0015 57.3084 18.4013 57.0454 18.7103C56.6884 19.1647 56.4253 19.1283 56.4253 19.1283Z" fill="#9B9B9B"/>
<path id="Vector_4" d="M57.4015 18.7651C57.5894 18.7651 57.5894 19.9829 57.5894 19.9647C57.5894 19.9465 58.3598 20.3646 58.3598 20.7462C58.3598 21.2551 57.4015 21.6005 57.4015 21.6005C57.4015 21.6005 57.3451 22.0185 57.2511 22.4184C57.1572 22.8182 57.0632 23.3453 57.0632 23.3453C57.0632 23.3453 57.0069 22.9454 57.0069 22.5456V21.9276C57.0069 21.9276 56.4995 22.0912 56.4995 22.4547C56.4995 22.8182 56.6311 22.7092 56.6311 22.9091C56.6311 23.109 56.4995 23.3453 56.4995 23.3453C56.4995 23.3453 56.5559 22.9818 56.2177 22.7819C55.8795 22.5819 55.9734 22.2184 56.2365 22.073C56.4995 21.9276 56.9881 21.7459 56.9881 21.7459C56.9881 21.7459 57.0069 21.4005 57.0069 20.9462C57.0069 20.4918 57.0257 20.2737 57.0257 20.2737C57.0257 20.2737 56.1237 20.1465 56.1049 19.8375C56.1049 19.7648 56.3492 19.7284 56.6311 19.7284C56.8378 19.7284 57.082 19.7829 57.082 19.7829C57.082 19.7829 57.2887 18.7651 57.4015 18.7651ZM57.5706 20.3646C57.5706 20.3646 57.533 20.7281 57.4954 21.0007C57.4578 21.2733 57.4202 21.4187 57.4202 21.4187C57.4202 21.4187 57.9652 21.2551 57.984 20.8371C58.0215 20.4554 57.5706 20.3646 57.5706 20.3646Z" fill="#9B9B9B"/>
<path id="Vector_5" d="M60.0347 16.5843V17.2386C60.0347 17.2386 60.091 17.075 60.899 16.8206C61.707 16.548 62.2143 16.5298 62.2143 16.5298L60.0347 16.5843Z" fill="#9B9B9B"/>
<path id="Vector_6" d="M60.597 17.6375V17.2376C60.597 17.2376 60.9353 17.1831 61.2547 17.1831C61.8184 17.1831 62.1754 17.2922 62.1754 17.2922C62.1754 17.2922 62.0063 17.274 61.856 17.274C61.7057 17.274 61.6681 17.3103 61.6681 17.3103C61.6681 17.3103 61.762 17.5648 61.5741 17.6375C61.3862 17.7102 61.3674 17.692 61.2923 17.7102C61.2171 17.7284 61.1044 17.7284 61.1044 17.7284L61.2171 17.6193C61.2171 17.6193 61.2547 17.6011 61.1795 17.5284C61.1044 17.4557 61.142 17.3467 61.142 17.3467C61.142 17.3467 61.0668 17.4012 60.8789 17.4739C60.7286 17.5648 60.597 17.6375 60.597 17.6375Z" fill="#9B9B9B"/>
<path id="Vector_7" d="M61.4801 20.2196H62.025C62.025 20.2196 62.3069 19.9106 62.4008 19.9106C62.5323 19.9106 62.5887 20.1287 62.7391 20.1287C62.7766 20.1287 62.8894 19.9652 62.9833 19.9652C63.1336 19.9652 63.1336 20.2196 63.19 20.2196H63.3403V20.256H62.8706C62.8706 20.256 62.833 20.3468 62.7391 20.3468C62.6451 20.3468 62.5324 20.2378 62.5324 20.2378H61.4801V20.2196Z" fill="#9B9B9B"/>
<path id="Vector_8" d="M63.0956 20.4191C63.0956 20.4191 62.9453 20.619 62.5507 20.619C62.2125 20.619 62.0621 20.4736 61.9682 20.4191C61.9494 20.4009 61.9118 20.4009 61.8742 20.4009C61.8367 20.4009 61.8555 20.4372 61.893 20.4372C61.9306 20.4372 61.9306 20.4554 61.9494 20.4554C61.9682 20.4918 61.987 20.5281 62.0434 20.6008C62.1749 20.7644 62.438 20.8734 62.5507 20.8734C62.6634 20.8734 62.795 20.8371 63.0017 20.6553C63.152 20.5099 63.0956 20.4191 63.0956 20.4191Z" fill="#9B9B9B"/>
<path id="Vector_9" d="M59.4894 20.893C59.4894 20.893 61.3684 21.7472 62.2703 21.7472C62.7965 21.7472 62.834 21.6564 63.0032 21.4564C63.1723 21.2565 64.1869 19.9115 64.3748 18.9846C64.5815 18.0577 64.6379 17.8032 64.6379 17.8032C64.6379 17.8032 64.7131 18.7847 64.3561 19.7298C64.0178 20.6931 63.2099 21.6927 63.0407 21.8563C62.8716 22.0199 62.6086 22.0562 62.0824 22.0017C61.5563 21.9472 60.598 21.62 60.1658 21.311C59.7149 21.0021 59.4894 20.893 59.4894 20.893Z" fill="#9B9B9B"/>
<path id="Vector_10" d="M64.2993 24.0004V23.4188C64.2993 23.1825 64.4496 22.9462 64.6751 22.7826C64.9006 22.6191 65.0885 22.6009 65.0885 22.092C65.0885 21.5831 65.0697 21.6558 65.0697 21.4377C65.0697 21.2196 65.2388 21.0015 65.4643 21.0015C65.6898 21.0015 65.9341 21.2923 65.9341 21.2923C65.9341 21.2923 65.4831 21.2923 65.4079 21.8375C65.3328 22.3828 65.3328 22.5464 65.1261 22.8917C64.9194 23.2188 64.7315 23.3642 64.5812 23.5642C64.4121 23.7641 64.2993 24.0004 64.2993 24.0004Z" fill="#9B9B9B"/>
<path id="Vector_11" d="M65.8031 22.0367L66.1225 22.2367C66.1225 22.2367 66.1413 22.0913 66.3104 21.9095C66.4796 21.7278 66.5547 21.6732 66.5547 21.6732C66.5547 21.6732 66.442 21.6187 66.1413 21.7459C65.8595 21.8913 65.8031 22.0367 65.8031 22.0367Z" fill="#9B9B9B"/>
<path id="Vector_12" d="M65.3877 23.0555L65.8011 23.3282C65.8011 23.3282 65.8762 23.0737 66.1393 22.7829C66.3836 22.5103 66.5339 22.4558 66.5339 22.4558C66.5339 22.4558 66.2333 22.4012 65.8762 22.6193C65.5004 22.8556 65.3877 23.0555 65.3877 23.0555Z" fill="#9B9B9B"/>
<path id="Vector_13" d="M67.9991 17.1469C67.9991 17.1469 68.0179 16.2563 67.6045 16.2563C67.3039 16.2563 66.8154 16.6744 66.1577 18.7282C65.7631 19.9823 66.1765 20.7093 66.1765 20.7093C66.1765 20.7093 66.2892 19.328 66.5147 18.8554C66.7214 18.3828 67.3039 16.9652 67.7361 16.9652C67.924 16.9652 67.9991 17.1469 67.9991 17.1469Z" fill="#9B9B9B"/>
<path id="Vector_14" d="M64.4308 16.8387C64.4308 16.8387 63.3409 16.7297 63.2658 17.7657C63.247 18.0383 63.3034 18.0201 63.3034 18.4927V19.0925C63.3034 19.2015 63.3597 19.3651 63.0403 19.3651H61.9317C61.8189 19.3651 61.7626 19.4196 61.8753 19.456C62.0068 19.4923 62.0632 19.5105 62.1572 19.5469C62.2511 19.6014 62.3263 19.6196 62.4202 19.565C62.4954 19.5287 62.5142 19.4923 62.6833 19.4923C62.8524 19.4923 62.8336 19.4923 62.89 19.5469C62.9463 19.6014 62.9651 19.6014 63.0591 19.6014C63.153 19.6014 63.2094 19.565 63.3221 19.4378C63.4349 19.3288 63.51 19.0198 63.5288 18.4927C63.5664 17.9656 63.5852 17.5112 63.7919 17.2204C64.0362 16.966 64.4308 16.8387 64.4308 16.8387Z" fill="#9B9B9B"/>
<path id="Vector_15" d="M64.3942 17.4376C64.3942 17.2922 64.2812 17.1831 64.1306 17.1831C63.9799 17.1831 63.8669 17.2922 63.8669 17.4376C63.8669 17.5103 63.9046 17.583 63.9799 17.6375C63.9799 17.6557 63.9611 17.6557 63.9611 17.6738C63.9046 17.7284 63.8104 17.7647 63.8104 17.7647C63.8104 17.7647 63.8858 17.8011 63.9987 17.7465C64.0552 17.7284 64.1117 17.7102 64.1494 17.692C64.1682 17.692 64.1871 17.692 64.2059 17.6738C64.3189 17.6557 64.3942 17.5648 64.3942 17.4376Z" fill="#9B9B9B"/>
<path id="Vector_16" d="M64.4702 16.2222V15.5861L63.9053 15.4771C63.9053 15.4771 64.2066 15.5861 64.3384 15.8224C64.4702 16.0041 64.4702 16.2222 64.4702 16.2222Z" fill="#9B9B9B"/>
<path id="Vector_17" d="M64.768 15.2035C64.768 15.3126 64.7304 15.3671 64.6177 15.5125C64.505 15.6579 64.4674 15.8578 64.2983 15.7488C64.1292 15.6397 63.6218 15.3126 61.3482 15.3126C59.8638 15.3126 58.9994 15.5852 58.6988 15.5852C58.3981 15.5852 58.0035 15.4034 58.0035 14.9491C58.0035 14.4947 58.1351 14.4038 58.1726 14.4038C58.1914 14.4038 58.3981 15.1126 59.2061 15.1126C60.0141 15.1126 61.1415 14.5856 62.6447 14.5856C63.8473 14.6037 64.768 15.149 64.768 15.2035Z" fill="#9B9B9B"/>
<path id="Vector_18" d="M61.893 14.4402C61.893 14.4402 61.7615 13.4224 61.2541 13.4224C61.085 13.4224 60.9723 13.5133 60.8407 13.5133C60.4837 13.5133 60.1643 12.8408 59.6569 12.8408C59.4315 12.8408 59.2811 12.9135 59.1496 12.9135C58.9429 12.9135 58.7926 12.6772 58.7926 12.6772C58.7926 12.6772 58.7926 13.3861 59.6569 13.3861C59.8636 13.3861 60.0891 13.3679 60.3146 13.4951C61.2165 14.0222 61.893 14.4402 61.893 14.4402Z" fill="#9B9B9B"/>
<path id="Vector_19" d="M61.5167 12.5679C61.5167 12.5679 61.3288 12.8587 61.9864 13.2585C62.6441 13.6584 62.7004 13.513 62.8696 13.8401C63.0387 14.1491 63.0387 14.2036 63.0387 14.2036C63.0387 14.2036 63.189 14.0219 63.189 13.7493C63.189 13.4585 63.0199 13.2767 62.5877 13.1495C62.1555 13.0223 62.0992 13.0223 61.93 12.9132C61.8549 12.8587 61.7985 12.786 61.7234 12.7133C61.6294 12.6224 61.5167 12.5679 61.5167 12.5679Z" fill="#9B9B9B"/>
<path id="Vector_20" d="M63.698 13.4565C63.698 13.4565 63.7919 13.6928 63.8859 13.8746C63.9799 14.0563 64.1114 14.4198 64.3369 14.4198C64.5436 14.4198 64.5811 14.0563 64.3369 13.9473C64.0926 13.82 64.0362 13.7837 63.9235 13.6928C63.792 13.5838 63.698 13.4565 63.698 13.4565Z" fill="#9B9B9B"/>
<path id="Vector_21" d="M58.2668 15.9654C58.2668 15.9654 57.1957 14.9294 56.4066 14.9294C55.5046 14.9294 55.4295 15.4383 54.396 15.4383H54.3772C53.4189 15.4383 53.3813 14.8931 53.3813 14.8931C53.3813 14.8931 53.1371 15.1475 53.0431 15.4201C52.9304 15.7291 52.9867 16.0745 53.4565 16.0745C53.9638 16.0745 54.7154 15.4565 55.8428 15.4565H56.3126C56.3126 15.4565 56.5193 15.711 56.8763 15.82C57.2333 15.9291 57.4776 15.9472 57.534 15.9472C57.5903 15.9472 57.5903 16.0926 57.5152 16.0926C57.44 16.0926 57.1394 16.129 56.8951 16.129C56.6508 16.129 56.1999 16.0381 55.7301 16.0381C55.2603 16.0381 54.8282 16.0563 54.5275 16.2199C54.2269 16.3834 54.2081 16.4925 54.1893 16.6742C54.1705 16.856 54.2457 17.2195 54.2457 17.2195C54.2457 17.2195 54.5651 16.7106 55.2228 16.7106C55.6925 16.7106 55.9368 16.856 56.275 16.856C57.5715 16.856 58.2668 15.9654 58.2668 15.9654Z" fill="#9B9B9B"/>
</g>
</g>
<g id="Group 231">
<path id="Vector_22" d="M12.4293 9.77466L14.9804 2.79248H18.2041L15.6762 9.77466H12.4293Z" fill="#9B9B9B"/>
<path id="Vector_23" d="M26.8657 9.77466L28.779 2.79248H31.1968L29.3009 9.77466H26.8657Z" fill="#9B9B9B"/>
<path id="Vector_24" d="M39.8593 9.77466L41.7726 2.79248H44.1903L42.2944 9.77466H39.8593Z" fill="#9B9B9B"/>
<path id="Vector_25" fill-rule="evenodd" clip-rule="evenodd" d="M24.3453 5.17237H26.8059C27.1399 3.59744 26.0853 2.79248 23.6774 2.79248C20.8828 2.79248 19.0021 4.12242 18.3518 6.41481C17.7718 8.49722 18.9142 9.77466 21.5331 9.77466C24.1519 9.77466 25.7514 8.96969 26.4193 7.18478H23.9586C23.6071 7.97224 22.9743 8.39222 22.0955 8.39222C20.9003 8.39222 20.4433 7.65725 20.8124 6.32732C21.1991 4.94488 22.0955 4.19242 23.2907 4.19242C24.0465 4.17492 24.398 4.5074 24.3453 5.17237Z" fill="#9B9B9B"/>
<path id="Vector_26" fill-rule="evenodd" clip-rule="evenodd" d="M37.3393 5.17237H39.7999C40.1339 3.59744 39.0793 2.79248 36.6714 2.79248C33.8768 2.79248 31.9961 4.12242 31.3458 6.41481C30.7658 8.49722 31.9082 9.77466 34.5271 9.77466C37.1459 9.77466 38.7454 8.96969 39.4133 7.18478H36.9526C36.6011 7.97224 35.9683 8.39222 35.0895 8.39222C33.8943 8.39222 33.4374 7.65725 33.8065 6.32732C34.1931 4.94488 35.0895 4.19242 36.2847 4.19242C37.0405 4.17492 37.392 4.5074 37.3393 5.17237Z" fill="#9B9B9B"/>
</g>
<g id="Group_3">
<path id="Vector_27" fill-rule="evenodd" clip-rule="evenodd" d="M3.01007 2.36325C5.6407 -0.108579 8.83504 -0.744711 10.1128 0.945584C11.3905 2.63588 10.2631 6.01647 7.63246 8.47013C5.00183 10.942 1.80749 11.5781 0.529754 9.88779C-0.747982 8.21567 0.360642 4.83508 3.01007 2.36325Z" fill="#F99D28"/>
<path id="Vector_28" fill-rule="evenodd" clip-rule="evenodd" d="M4.73825 1.05613C4.4564 1.25606 4.15575 1.49234 3.8739 1.76497C1.5627 3.90964 0.604398 6.85403 1.7506 8.32622C2.9156 9.79841 5.77171 9.27133 8.12049 7.09031C9.37944 5.92709 10.2438 4.58213 10.582 3.32803C10.6948 2.4011 10.5444 1.58321 10.0935 0.965256C9.07879 -0.361535 6.91792 -0.252484 4.73825 1.05613Z" fill="#AF2A30"/>
<path id="Vector_29" fill-rule="evenodd" clip-rule="evenodd" d="M6.05395 9.68935C4.81379 10.5618 3.53605 10.998 2.2959 10.8162C2.82203 10.8344 3.23541 10.2891 3.59242 9.56212C3.94944 8.81694 4.15613 8.10811 4.32524 7.4538C4.56952 6.41781 4.58831 5.6908 4.45678 5.52722C4.25008 5.27277 3.76154 5.3273 3.21662 5.6181C2.95356 5.74533 2.61533 5.65445 3.02872 5.20007C3.4421 4.72751 5.07685 3.60065 5.67814 3.4189C6.3358 3.23715 7.06862 3.47342 6.82435 4.14591C6.63644 4.65481 4.36282 10.271 6.05395 9.68935ZM7.91418 0.983418C8.21482 1.27422 8.02692 1.91035 7.51958 2.40109C6.99346 2.89182 6.29822 3.07357 5.99758 2.78277C5.67814 2.49196 5.86604 1.85583 6.39217 1.34692C6.9183 0.856192 7.61353 0.692615 7.91418 0.983418Z" fill="#9B9B9B"/>
</g>
</g>
</svg>
