<svg width="62" height="22" viewBox="0 0 62 22" fill="none" xmlns="http://www.w3.org/2000/svg">
<g id="Group 236">
<g id="Group">
<path id="Vector" d="M41.7603 13.7531L44.5037 19.8842L44.5207 13.7531H45.7231V19.3844H48.2295V20.2007H43.4199L42.5901 18.4847H41.2183V17.7183H42.3361L41.2183 15.3192V13.7698H41.7603V13.7531ZM41.2183 18.468H39.8127L38.9999 20.1841H36.7475V13.8031H38.0346V20.0008L40.8966 13.7531H41.2183V15.3025L41.1675 15.1693L40.1176 17.7016H41.2183V18.468ZM10.1934 20.2174V19.7675L10.4643 20.2007L10.1934 20.2174ZM10.1934 19.1344C10.7183 20.0674 11.8869 20.3507 12.8183 20.3673C13.9868 20.384 15.0198 19.8009 15.3585 19.351C15.9343 18.5347 15.7481 15.8523 15.7481 14.5028C17.6786 14.3696 19.6262 14.6694 19.3891 17.1519C19.152 19.4177 17.577 19.6842 15.4771 19.6009C15.3416 19.8508 15.1045 20.0508 14.7658 20.2007C19.8294 20.5839 20.1342 19.0511 20.6761 17.8349V20.2007L25.9429 20.234V15.5691L29.9735 20.2007H30.9557V14.5028H33.1742V20.2007H34.4782V14.5195H36.8661V13.8198H29.9735V18.4347L25.9429 13.8198H25.0285V19.5176H21.76V17.2518H24.5204V16.5687H21.76L21.7769 14.4862H24.6559V13.8031H20.5745V15.9523C20.4052 15.5858 20.202 15.2026 19.9649 14.886C18.9149 13.6032 16.9166 13.8531 14.5965 13.8531V17.0519C14.5965 18.1348 14.4949 19.6176 12.8352 19.6343C11.3957 19.6509 11.1078 18.8012 11.057 17.3851C11.074 16.4355 11.0232 14.886 11.0232 13.8531H10.1934V19.1344ZM10.1934 13.8697V19.1344C9.99014 18.8012 9.90546 18.4014 9.90546 17.9016V13.8531H10.1934V13.8697ZM10.1934 19.7675L8.65227 17.4018C9.48209 16.9519 9.90546 16.2189 9.6345 15.1526C9.36354 14.1696 8.70308 13.9364 7.44988 13.9197H7.34827V14.4862H7.83939C8.58453 14.7694 8.68614 16.3688 8.04261 16.752C7.89019 16.8686 7.63617 16.9019 7.34827 16.9186V17.6683H7.48375L9.12645 20.2507L10.1934 20.2007V19.7675ZM7.36521 13.9197V14.4862H6.26443V16.9019C6.51846 16.9019 6.9757 16.9353 7.36521 16.9186V17.6683H6.26443V20.2507H4.96043L4.97737 13.9031H7.36521V13.9197ZM2.45405 17.8183C2.74194 17.8183 3.04677 17.8016 3.3008 17.7516C3.40241 17.735 3.87659 17.535 3.9274 17.5017C5.01124 16.8353 5.01124 14.836 3.9274 14.1696C3.60563 13.9864 3.06371 13.9031 2.45405 13.8864V14.5528H2.84355C3.72417 14.6861 3.80885 16.0189 3.41934 16.702C3.24999 17.0019 2.84355 17.1185 2.45405 17.1519V17.8183ZM2.45405 13.8864V14.5528H1.25166V17.1352C1.53955 17.1519 2.01373 17.1852 2.45405 17.1519V17.8183C2.21695 17.8183 1.97986 17.8183 1.75971 17.8016H1.25166V20.284H0.150879V13.9364C0.79441 13.9197 1.67503 13.8697 2.45405 13.8864Z" fill="#FFCA10"/>
<g id="Group_2">
<path id="Vector_2" d="M52.1232 15.9354C52.1232 15.9354 52.1572 16.002 52.3439 16.1353C52.5305 16.2686 52.5984 16.2852 52.5984 16.2852C52.5984 16.2852 52.5475 16.4852 52.5475 16.8017C52.5475 17.1349 52.6833 17.7514 52.6833 17.7347C52.6833 17.718 52.4796 17.4848 52.2929 16.9517C52.0893 16.3519 52.1232 15.9354 52.1232 15.9354Z" fill="#FFCA10"/>
<path id="Vector_3" d="M51.0059 17.5346C51.0059 17.5346 51.0905 17.418 51.1244 17.268C51.1583 17.1181 51.1583 17.0015 51.1583 17.0015C51.1583 17.0015 51.3107 16.9848 51.5139 16.8182C51.7171 16.6516 51.8526 16.5016 51.8526 16.5016C51.8526 16.5016 51.8018 16.8682 51.5647 17.1514C51.2429 17.5679 51.0059 17.5346 51.0059 17.5346Z" fill="#FFCA10"/>
<path id="Vector_4" d="M51.8855 17.2007C52.0548 17.2007 52.0548 18.3169 52.0548 18.3003C52.0548 18.2836 52.7492 18.6668 52.7492 19.0167C52.7492 19.4832 51.8855 19.7997 51.8855 19.7997C51.8855 19.7997 51.8347 20.1829 51.75 20.5494C51.6653 20.916 51.5807 21.3991 51.5807 21.3991C51.5807 21.3991 51.5299 21.0326 51.5299 20.6661V20.0996C51.5299 20.0996 51.0726 20.2496 51.0726 20.5828C51.0726 20.916 51.1912 20.816 51.1912 20.9993C51.1912 21.1825 51.0726 21.3991 51.0726 21.3991C51.0726 21.3991 51.1234 21.0659 50.8186 20.8827C50.5138 20.6994 50.5984 20.3662 50.8355 20.2329C51.0726 20.0996 51.5129 19.933 51.5129 19.933C51.5129 19.933 51.5299 19.6165 51.5299 19.1999C51.5299 18.7834 51.5468 18.5835 51.5468 18.5835C51.5468 18.5835 50.7339 18.4669 50.717 18.1837C50.717 18.117 50.9371 18.0837 51.1912 18.0837C51.3774 18.0837 51.5976 18.1337 51.5976 18.1337C51.5976 18.1337 51.7839 17.2007 51.8855 17.2007ZM52.0379 18.6668C52.0379 18.6668 52.004 19 51.9702 19.2499C51.9363 19.4998 51.9024 19.6331 51.9024 19.6331C51.9024 19.6331 52.3935 19.4832 52.4105 19.1C52.4443 18.7501 52.0379 18.6668 52.0379 18.6668Z" fill="#FFCA10"/>
<path id="Vector_5" d="M54.2583 15.2019V15.8017C54.2583 15.8017 54.3091 15.6517 55.0373 15.4185C55.7655 15.1686 56.2228 15.1519 56.2228 15.1519L54.2583 15.2019Z" fill="#FFCA10"/>
<path id="Vector_6" d="M54.7656 16.1677V15.8012C54.7656 15.8012 55.0705 15.7512 55.3584 15.7512C55.8664 15.7512 56.1882 15.8512 56.1882 15.8512C56.1882 15.8512 56.0358 15.8345 55.9003 15.8345C55.7648 15.8345 55.7309 15.8678 55.7309 15.8678C55.7309 15.8678 55.8156 16.1011 55.6462 16.1677C55.4769 16.2344 55.46 16.2177 55.3922 16.2344C55.3245 16.251 55.2229 16.251 55.2229 16.251L55.3245 16.1511C55.3245 16.1511 55.3583 16.1344 55.2906 16.0678C55.2229 16.0011 55.2567 15.9012 55.2567 15.9012C55.2567 15.9012 55.189 15.9511 55.0197 16.0178C54.8842 16.1011 54.7656 16.1677 54.7656 16.1677Z" fill="#FFCA10"/>
<path id="Vector_7" d="M55.561 18.5343H56.0521C56.0521 18.5343 56.3062 18.2511 56.3908 18.2511C56.5094 18.2511 56.5602 18.451 56.6957 18.451C56.7296 18.451 56.8312 18.3011 56.9158 18.3011C57.0513 18.3011 57.0513 18.5343 57.1021 18.5343H57.2376V18.5676H56.8142C56.8142 18.5676 56.7804 18.6509 56.6957 18.6509C56.611 18.6509 56.5094 18.551 56.5094 18.551H55.561V18.5343Z" fill="#FFCA10"/>
<path id="Vector_8" d="M57.0172 18.7174C57.0172 18.7174 56.8817 18.9007 56.5261 18.9007C56.2212 18.9007 56.0858 18.7674 56.0011 18.7174C55.9841 18.7007 55.9503 18.7007 55.9164 18.7007C55.8825 18.7007 55.8995 18.7341 55.9334 18.7341C55.9672 18.7341 55.9672 18.7507 55.9842 18.7507C56.0011 18.784 56.018 18.8174 56.0688 18.884C56.1874 19.034 56.4245 19.1339 56.5261 19.1339C56.6277 19.1339 56.7462 19.1006 56.9325 18.934C57.068 18.8007 57.0172 18.7174 57.0172 18.7174Z" fill="#FFCA10"/>
<path id="Vector_9" d="M53.7671 19.1513C53.7671 19.1513 55.4606 19.9344 56.2735 19.9344C56.7477 19.9344 56.7815 19.8511 56.9339 19.6678C57.0864 19.4845 58.0008 18.2516 58.1702 17.402C58.3565 16.5523 58.4073 16.319 58.4073 16.319C58.4073 16.319 58.475 17.2187 58.1533 18.085C57.8484 18.968 57.1202 19.8844 56.9678 20.0343C56.8154 20.1843 56.5783 20.2176 56.1041 20.1676C55.63 20.1176 54.7663 19.8177 54.3768 19.5345C53.9703 19.2513 53.7671 19.1513 53.7671 19.1513Z" fill="#FFCA10"/>
<path id="Vector_10" d="M58.1025 21.9999V21.4668C58.1025 21.2502 58.238 21.0336 58.4412 20.8836C58.6445 20.7337 58.8138 20.717 58.8138 20.2505C58.8138 19.7841 58.7969 19.8507 58.7969 19.6508C58.7969 19.4508 58.9493 19.2509 59.1525 19.2509C59.3557 19.2509 59.5759 19.5175 59.5759 19.5175C59.5759 19.5175 59.1694 19.5175 59.1017 20.0173C59.034 20.5171 59.034 20.6671 58.8477 20.9836C58.6614 21.2835 58.492 21.4168 58.3566 21.6C58.2041 21.7833 58.1025 21.9999 58.1025 21.9999Z" fill="#FFCA10"/>
<path id="Vector_11" d="M59.4575 20.2002L59.7454 20.3834C59.7454 20.3834 59.7624 20.2502 59.9148 20.0836C60.0672 19.917 60.1349 19.867 60.1349 19.867C60.1349 19.867 60.0333 19.817 59.7623 19.9336C59.5083 20.0669 59.4575 20.2002 59.4575 20.2002Z" fill="#FFCA10"/>
<path id="Vector_12" d="M59.083 21.1329L59.4556 21.3828C59.4556 21.3828 59.5233 21.1496 59.7604 20.883C59.9806 20.6331 60.116 20.5831 60.116 20.5831C60.116 20.5831 59.8451 20.5331 59.5233 20.7331C59.1846 20.9497 59.083 21.1329 59.083 21.1329Z" fill="#FFCA10"/>
<path id="Vector_13" d="M61.4365 15.7182C61.4365 15.7182 61.4534 14.9018 61.0808 14.9018C60.8099 14.9018 60.3696 15.285 59.7768 17.1676C59.4212 18.3172 59.7938 18.9836 59.7938 18.9836C59.7938 18.9836 59.8954 17.7174 60.0986 17.2842C60.2849 16.8511 60.8099 15.5516 61.1994 15.5516C61.3687 15.5516 61.4365 15.7182 61.4365 15.7182Z" fill="#FFCA10"/>
<path id="Vector_14" d="M58.2204 15.4358C58.2204 15.4358 57.2381 15.3359 57.1704 16.2855C57.1535 16.5354 57.2043 16.5188 57.2043 16.9519V17.5017C57.2043 17.6017 57.2551 17.7516 56.9672 17.7516H55.968C55.8664 17.7516 55.8156 17.8016 55.9172 17.8349C56.0357 17.8683 56.0866 17.8849 56.1712 17.9182C56.2559 17.9682 56.3236 17.9849 56.4083 17.9349C56.4761 17.9016 56.493 17.8683 56.6454 17.8683C56.7978 17.8683 56.7809 17.8683 56.8317 17.9182C56.8825 17.9682 56.8994 17.9682 56.9841 17.9682C57.0688 17.9682 57.1196 17.9349 57.2212 17.8183C57.3228 17.7183 57.3905 17.4351 57.4075 16.9519C57.4414 16.4688 57.4583 16.0523 57.6446 15.7857C57.8647 15.5524 58.2204 15.4358 58.2204 15.4358Z" fill="#FFCA10"/>
<path id="Vector_15" d="M58.1873 15.9845C58.1873 15.8512 58.0854 15.7512 57.9497 15.7512C57.8139 15.7512 57.7121 15.8512 57.7121 15.9845C57.7121 16.0511 57.746 16.1178 57.8139 16.1677C57.8139 16.1844 57.7969 16.1844 57.7969 16.2011C57.746 16.251 57.6611 16.2844 57.6611 16.2844C57.6611 16.2844 57.729 16.3177 57.8309 16.2677C57.8818 16.251 57.9327 16.2344 57.9666 16.2177C57.9836 16.2177 58.0006 16.2177 58.0176 16.2011C58.1194 16.1844 58.1873 16.1011 58.1873 15.9845Z" fill="#FFCA10"/>
<path id="Vector_16" d="M58.2562 14.8697V14.2866L57.7471 14.1866C57.7471 14.1866 58.0186 14.2866 58.1374 14.5032C58.2562 14.6698 58.2562 14.8697 58.2562 14.8697Z" fill="#FFCA10"/>
<path id="Vector_17" d="M58.5248 13.9361C58.5248 14.036 58.491 14.086 58.3894 14.2193C58.2877 14.3526 58.2539 14.5358 58.1015 14.4359C57.949 14.3359 57.4918 14.036 55.4427 14.036C54.1048 14.036 53.3258 14.2859 53.0548 14.2859C52.7839 14.2859 52.4282 14.1193 52.4282 13.7028C52.4282 13.2863 52.5468 13.203 52.5806 13.203C52.5976 13.203 52.7839 13.8528 53.5121 13.8528C54.2403 13.8528 55.2564 13.3696 56.6112 13.3696C57.695 13.3863 58.5248 13.8861 58.5248 13.9361Z" fill="#FFCA10"/>
<path id="Vector_18" d="M55.9339 13.2361C55.9339 13.2361 55.8154 12.3031 55.3581 12.3031C55.2057 12.3031 55.1041 12.3864 54.9856 12.3864C54.6638 12.3864 54.3759 11.7699 53.9187 11.7699C53.7154 11.7699 53.58 11.8366 53.4614 11.8366C53.2751 11.8366 53.1396 11.62 53.1396 11.62C53.1396 11.62 53.1396 12.2698 53.9187 12.2698C54.1049 12.2698 54.3082 12.2531 54.5114 12.3697C55.3243 12.8529 55.9339 13.2361 55.9339 13.2361Z" fill="#FFCA10"/>
<path id="Vector_19" d="M55.5942 11.5203C55.5942 11.5203 55.4248 11.7868 56.0175 12.1534C56.6103 12.5199 56.6611 12.3866 56.8135 12.6865C56.9659 12.9697 56.9659 13.0197 56.9659 13.0197C56.9659 13.0197 57.1014 12.8531 57.1014 12.6032C57.1014 12.3366 56.949 12.17 56.5595 12.0534C56.17 11.9368 56.1191 11.9368 55.9667 11.8368C55.899 11.7868 55.8482 11.7202 55.7805 11.6535C55.6958 11.5702 55.5942 11.5203 55.5942 11.5203Z" fill="#FFCA10"/>
<path id="Vector_20" d="M57.5601 12.3351C57.5601 12.3351 57.6447 12.5517 57.7294 12.7183C57.8141 12.8849 57.9326 13.2181 58.1359 13.2181C58.3221 13.2181 58.356 12.8849 58.1359 12.785C57.9157 12.6684 57.8649 12.635 57.7633 12.5517C57.6447 12.4518 57.5601 12.3351 57.5601 12.3351Z" fill="#FFCA10"/>
<path id="Vector_21" d="M52.6652 14.6356C52.6652 14.6356 51.6999 13.6859 50.9886 13.6859C50.1758 13.6859 50.108 14.1524 49.1766 14.1524H49.1597C48.296 14.1524 48.2621 13.6526 48.2621 13.6526C48.2621 13.6526 48.0419 13.8858 47.9573 14.1357C47.8557 14.419 47.9065 14.7355 48.3298 14.7355C48.7871 14.7355 49.4645 14.1691 50.4806 14.1691H50.904C50.904 14.1691 51.0903 14.4023 51.412 14.5023C51.7338 14.6022 51.9539 14.6189 52.0048 14.6189C52.0556 14.6189 52.0555 14.7522 51.9878 14.7522C51.9201 14.7522 51.6491 14.7855 51.429 14.7855C51.2088 14.7855 50.8024 14.7022 50.379 14.7022C49.9556 14.7022 49.5661 14.7189 49.2951 14.8688C49.0242 15.0187 49.0073 15.1187 48.9903 15.2853C48.9734 15.4519 49.0411 15.7851 49.0411 15.7851C49.0411 15.7851 49.329 15.3186 49.9217 15.3186C50.3451 15.3186 50.5653 15.4519 50.8701 15.4519C52.0386 15.4519 52.6652 14.6356 52.6652 14.6356Z" fill="#FFCA10"/>
</g>
</g>
<g id="Group 231">
<path id="Vector_22" d="M11.3535 8.96076L13.6527 2.56049H16.5581L14.2798 8.96076H11.3535Z" fill="#FFCA10"/>
<path id="Vector_23" d="M24.3647 8.9607L26.0892 2.56042H28.2682L26.5595 8.9607H24.3647Z" fill="#FFCA10"/>
<path id="Vector_24" d="M36.0752 8.9607L37.7996 2.56042H39.9786L38.2699 8.9607H36.0752Z" fill="#FFCA10"/>
<path id="Vector_25" fill-rule="evenodd" clip-rule="evenodd" d="M22.0929 4.74197H24.3107C24.6116 3.2983 23.6612 2.56042 21.491 2.56042C18.9723 2.56042 17.2773 3.77952 16.6912 5.88087C16.1685 7.78972 17.1981 8.9607 19.5584 8.9607C21.9187 8.9607 23.3602 8.22282 23.9622 6.58666H21.7444C21.4276 7.3085 20.8573 7.69348 20.0653 7.69348C18.9881 7.69348 18.5763 7.01976 18.9089 5.80066C19.2574 4.53344 20.0653 3.84369 21.1425 3.84369C21.8236 3.82765 22.1405 4.13242 22.0929 4.74197Z" fill="#FFCA10"/>
<path id="Vector_26" fill-rule="evenodd" clip-rule="evenodd" d="M33.8044 4.74197H36.0221C36.3231 3.2983 35.3726 2.56042 33.2024 2.56042C30.6837 2.56042 28.9887 3.77952 28.4026 5.88087C27.8799 7.78972 28.9095 8.9607 31.2698 8.9607C33.6301 8.9607 35.0716 8.22282 35.6736 6.58666H33.4559C33.139 7.3085 32.5688 7.69348 31.7767 7.69348C30.6996 7.69348 30.2877 7.01976 30.6203 5.80066C30.9688 4.53344 31.7767 3.84369 32.8539 3.84369C33.5351 3.82765 33.8519 4.13242 33.8044 4.74197Z" fill="#FFCA10"/>
</g>
<g id="Group_3">
<path id="Vector_27" fill-rule="evenodd" clip-rule="evenodd" d="M2.86452 2.16674C5.23543 -0.0990821 8.11439 -0.682199 9.26597 0.867226C10.4176 2.41665 9.40145 5.5155 7.03054 7.76467C4.65964 10.0305 1.78068 10.6136 0.629099 9.06418C-0.522483 7.53142 0.476684 4.43257 2.86452 2.16674Z" fill="#F99D28"/>
<path id="Vector_28" fill-rule="evenodd" clip-rule="evenodd" d="M4.42192 0.968032C4.16789 1.1513 3.89693 1.36788 3.6429 1.61779C1.5599 3.58373 0.696208 6.28273 1.72925 7.63223C2.77922 8.98172 5.35334 8.49857 7.47022 6.49931C8.60487 5.43304 9.38388 4.20017 9.68871 3.05059C9.79032 2.20091 9.65484 1.45119 9.2484 0.88473C8.33391 -0.331486 6.38638 -0.231523 4.42192 0.968032Z" fill="#AF2A30"/>
<path id="Vector_29" fill-rule="evenodd" clip-rule="evenodd" d="M5.6082 8.88202C4.49049 9.68173 3.3389 10.0816 2.22119 9.91497C2.69537 9.93163 3.06794 9.43182 3.38971 8.7654C3.71147 8.08232 3.89776 7.43256 4.05018 6.83278C4.27033 5.88313 4.28727 5.21671 4.16872 5.06677C3.98243 4.83352 3.54212 4.8835 3.05101 5.15007C2.81392 5.2667 2.50909 5.18339 2.88166 4.76688C3.25423 4.33371 4.72758 3.30076 5.2695 3.13415C5.86222 2.96755 6.52269 3.18414 6.30253 3.80057C6.13318 4.26707 4.08405 9.41516 5.6082 8.88202ZM7.28477 0.901649C7.55573 1.16822 7.38638 1.75133 6.92913 2.20117C6.45495 2.651 5.82835 2.8176 5.55739 2.55104C5.2695 2.28447 5.43885 1.70135 5.91303 1.23486C6.38721 0.785025 7.01381 0.635081 7.28477 0.901649Z" fill="#FFCA10"/>
</g>
</g>
</svg>
