<svg width="59" height="18" viewBox="0 0 59 18" fill="none" xmlns="http://www.w3.org/2000/svg">
<g id="Layer_1" clip-path="url(#clip0_60_1105)">
<path id="Vector" d="M44.9619 10.0651C44.8771 10.3771 44.6969 10.6407 44.4266 10.8559C44.1563 11.0711 43.8648 11.1733 43.5574 11.1733H32.597C32.2896 11.1733 32.0617 11.0657 31.9133 10.8559C31.7596 10.6407 31.7278 10.3771 31.8126 10.0651L34.2506 1.12964C34.3354 0.817623 34.5103 0.548645 34.7806 0.333463C35.0509 0.112901 35.3371 0.00531006 35.6445 0.00531006H46.6049C46.9229 0.00531006 47.1561 0.112901 47.3098 0.322704C47.4582 0.537886 47.49 0.806864 47.3999 1.12964L47.1137 2.18941H36.1533L34.2983 8.98917H45.2587L44.9672 10.0651H44.9619Z" fill="#FFCA10"/>
<path id="Vector_2" d="M48.3897 11.1732H46.2061L49.2483 0.0213623H51.4318L48.3897 11.1732Z" fill="#FFCA10"/>
<path id="Vector_3" d="M18.3397 -6.10352e-05H16.1508L14.158 7.30538L5.3653 0.0160776L2.3125 11.2002H4.5014L6.4836 3.93778L15.2763 11.2271L18.3397 -6.10352e-05Z" fill="#FFCA10"/>
<path id="Vector_4" d="M32.6121 0.328014C32.4584 0.118211 32.2252 0.0106201 31.9072 0.0106201H19.8762L19.2826 2.19472H30.2271L29.5911 4.52945H18.6519L16.834 11.1786H19.0229L20.2419 6.71355H30.084C30.3914 6.71355 30.6776 6.60596 30.9532 6.39615C31.2235 6.18097 31.4037 5.92275 31.4885 5.60536L32.7075 1.14033C32.7976 0.817554 32.7658 0.548576 32.6174 0.333394L32.6121 0.328014Z" fill="#FFCA10"/>
<path id="Vector_5" d="M55.5772 0.0106201L58.3491 5.60536L52.5244 11.1947L55.5772 0.0106201Z" fill="#008B45"/>
<path id="Vector_6" d="M53.6372 0.0106201L56.4038 5.60536L50.5791 11.1947L53.6372 0.0106201Z" fill="#FF6E0C"/>
<path id="Vector_7" d="M50.2238 12.5179C50.3245 12.448 50.4305 12.4157 50.5365 12.4157C50.6425 12.4157 50.7485 12.4426 50.8598 12.491C50.9181 12.5125 50.9711 12.5448 51.0241 12.5825C51.1513 12.6632 51.2626 12.7654 51.3633 12.8837L51.3898 12.916L51.4534 12.9967H50.0383L50.0277 12.9536V12.9429C50.0171 12.8837 50.0171 12.8299 50.0277 12.7815C50.0542 12.6685 50.1231 12.5825 50.2238 12.5179ZM55.7305 13.1742L55.5821 13.7391H54.8719L55.0203 13.1742H55.7305ZM51.7661 12.9967C51.7237 12.9375 51.676 12.8783 51.6336 12.8138C51.4905 12.647 51.3527 12.5287 51.2202 12.4372C51.1195 12.3727 51.0188 12.3189 50.9234 12.2866C50.8227 12.2543 50.7114 12.2328 50.6054 12.2328C50.4093 12.2328 50.2344 12.2758 50.086 12.3619C49.9429 12.448 49.8475 12.5771 49.7998 12.7438C49.7839 12.8084 49.7786 12.873 49.7998 12.9321L49.8104 12.9913H49.4447L49.397 13.1688H49.7574L49.3281 14.7719H49.5825L50.0118 13.1688H51.7184L51.6071 13.5777H50.563L50.4464 13.5992C50.404 13.6153 50.3722 13.6476 50.3563 13.7014C50.351 13.7283 50.3563 13.7767 50.4676 13.922L50.4835 13.9381C50.5789 14.0618 50.6478 14.1156 50.6955 14.1156C50.7697 14.1156 50.8015 14.0834 50.8121 14.0565L50.8916 13.7552H51.5541L51.2838 14.7719H51.5382L51.9675 13.1688H52.8791L52.7413 13.6799H52.5081L52.4657 13.6906C52.4074 13.7014 52.3756 13.7283 52.365 13.766C52.3491 13.8359 52.3862 13.9166 52.4922 14.0296C52.5982 14.1372 52.683 14.1909 52.7519 14.1909C52.8102 14.1909 52.8526 14.164 52.8791 14.1103L52.9003 14.0403L53.1282 13.1796H53.743L53.3137 14.7827H53.5734L54.0027 13.1796H54.7659L54.6175 13.7444H54.4479L54.3737 13.7606C54.3313 13.7713 54.3048 13.7982 54.2889 13.8467C54.273 13.9005 54.3154 13.9704 54.4161 14.0834C54.5115 14.1909 54.5857 14.2447 54.6493 14.2447C54.697 14.2447 54.7341 14.2286 54.7553 14.1963L54.7712 14.1479L54.8295 13.922H55.5397L55.3118 14.7773H55.5662L55.9955 13.1742H56.3347L56.3824 12.9967H51.7767H51.7661Z" fill="#FFCA10"/>
<path id="Vector_8" d="M40.1432 13.1695H40.6202L40.4559 13.7881H39.8358L39.9683 13.2771C39.9948 13.1802 39.9683 13.1049 39.9047 13.0404C39.8411 12.9812 39.7457 12.9489 39.6291 12.9489C39.5125 12.9489 39.4065 12.9758 39.3111 13.0296C39.221 13.0834 39.1574 13.1695 39.1256 13.2717C39.115 13.304 39.115 13.3416 39.1256 13.4008V13.4116L39.1468 13.46V13.4707H39.3906L39.3694 13.4385L39.3588 13.4169V13.2824C39.3694 13.234 39.3959 13.1964 39.4383 13.1641C39.4754 13.1372 39.5231 13.1211 39.5761 13.1211C39.645 13.1211 39.6874 13.1318 39.7086 13.1587L39.7245 13.2555L39.5814 13.7881H39.3429L39.2634 13.815L39.1945 13.8903C39.1892 13.9226 39.1945 13.9818 39.3482 14.1432C39.4966 14.3099 39.5549 14.3261 39.5867 14.3261L39.6927 14.283L39.7139 14.2131L39.7775 13.9818H40.3976L40.1962 14.7349C40.1167 14.7511 40.0425 14.7726 39.9683 14.8102C39.9312 14.8318 39.8835 14.8587 39.8252 14.8963L39.804 14.9125L39.9683 15.0685L39.9842 15.0577L40.069 14.9931C40.1326 14.9501 40.2015 14.9286 40.2598 14.9286C40.3287 14.9286 40.3764 14.9447 40.4082 14.9824C40.44 15.02 40.4506 15.0631 40.4347 15.1115C40.4135 15.1922 40.3605 15.2567 40.2704 15.3052C40.1803 15.3536 40.0849 15.3805 39.9736 15.3805C39.7987 15.3805 39.645 15.3213 39.5125 15.2083C39.4648 15.1707 39.4171 15.1169 39.3588 15.0416L39.3429 15.0254L39.1362 15.1922L39.1521 15.2083C39.2316 15.289 39.2952 15.3536 39.3588 15.3912C39.5443 15.5096 39.7404 15.5634 39.963 15.5634C40.1432 15.5634 40.3075 15.5257 40.4347 15.445C40.5672 15.3643 40.652 15.2621 40.6891 15.1276C40.7156 15.02 40.6944 14.9232 40.6202 14.8479C40.5725 14.7995 40.5142 14.7672 40.4453 14.7511L40.864 13.1856H41.7862L41.6484 13.6967H41.3993L41.3728 13.7021C41.3357 13.7074 41.288 13.7236 41.2721 13.7774C41.2562 13.8419 41.2933 13.928 41.394 14.041C41.5 14.1486 41.5848 14.2024 41.6537 14.2024C41.7067 14.2024 41.7544 14.1755 41.7809 14.1217L41.8021 14.0463L42.03 13.1856H42.6448L42.2155 14.7887H42.4752L42.9045 13.1856H44.6429L44.5528 13.5299H43.7048C43.5829 13.5299 43.4769 13.5568 43.3868 13.6214C43.2967 13.6805 43.2331 13.7666 43.2066 13.8796C43.1536 14.0732 43.2066 14.2777 43.3709 14.4982C43.4292 14.5735 43.514 14.665 43.6253 14.7618L43.6359 14.7726L43.8373 14.6327L43.8161 14.6166C43.7207 14.5305 43.6465 14.4498 43.5935 14.3853C43.461 14.2024 43.4133 14.0356 43.4557 13.8742C43.4716 13.815 43.5034 13.7774 43.5511 13.7451C43.6041 13.7128 43.6783 13.6967 43.7737 13.6967H44.5104L44.2189 14.7887H44.4733L44.9026 13.1856H45.5174L45.0881 14.7887H45.3425L45.7718 13.1856H47.4784L47.3724 13.5945H46.3283L46.217 13.616C46.1746 13.6321 46.1428 13.6698 46.1269 13.7236C46.1216 13.7505 46.1269 13.8043 46.2541 13.9656C46.3548 14.0894 46.4184 14.1432 46.4661 14.1432C46.5244 14.1432 46.5615 14.1217 46.588 14.084L46.6675 13.7827H47.33L47.0597 14.7995H47.3141L47.7434 13.1964H48.0826L48.1303 13.0188H40.1909L40.1432 13.1964V13.1695Z" fill="#FFCA10"/>
<path id="Vector_9" d="M34.0967 13.1694L34.0066 13.5029H33.4607C33.3335 13.5029 33.2169 13.5298 33.1109 13.589L33.042 13.632C32.9837 13.6697 32.9413 13.7127 32.9095 13.7557L32.406 13.1694H34.0914H34.0967ZM32.8141 13.9387V13.9548L32.8035 14.0086L32.7399 14.0355C32.6498 14.0731 32.5597 14.0947 32.4643 14.0947C32.3583 14.0947 32.2841 14.0678 32.2311 14.0193C32.1781 13.9709 32.1675 13.9118 32.1887 13.8311L32.3159 13.3415L32.8247 13.9387H32.8141ZM34.4412 12.5131C34.4995 12.4647 34.5684 12.4431 34.6638 12.4431C34.7274 12.4431 34.7857 12.4539 34.8387 12.47C34.9447 12.5131 35.0189 12.5938 35.0772 12.7229C35.1037 12.782 35.1249 12.8735 35.1408 12.9865H34.3564L34.3299 12.9273V12.9165C34.3034 12.8412 34.3034 12.7659 34.3299 12.6906C34.3511 12.6099 34.3882 12.5453 34.4412 12.5023V12.5131ZM36.54 13.2662L36.5029 13.1748H37.1548L36.9375 13.9978C36.8739 14.057 36.8262 14.0947 36.7891 14.1162C36.6513 14.1969 36.5188 14.2399 36.381 14.2453H36.3704C36.2008 14.2453 36.0842 14.1915 36.0206 14.0839C36.0047 14.057 35.9941 14.0086 35.9835 13.9387C36.0842 13.9225 36.1637 13.8956 36.2273 13.8741C36.4075 13.7988 36.5241 13.6751 36.5665 13.5137C36.5877 13.4384 36.5771 13.3523 36.5453 13.2716L36.54 13.2662ZM35.2945 12.6529C35.2097 12.4593 35.0772 12.3409 34.8864 12.2979C34.8334 12.2817 34.7698 12.2764 34.6903 12.2764C34.5366 12.2764 34.4094 12.3086 34.3034 12.3786C34.1921 12.4485 34.1179 12.5507 34.0861 12.696C34.0649 12.7659 34.0702 12.8466 34.102 12.9327L34.1232 12.9972H29.3426L29.2949 13.1748H30.3337L30.2277 13.5782C30.2118 13.6374 30.18 13.6858 30.1217 13.7235C30.0634 13.7611 29.9945 13.7773 29.9097 13.7773C29.8567 13.7773 29.8143 13.7719 29.7772 13.7557C29.7295 13.7342 29.7189 13.7181 29.7189 13.7073L29.6076 13.4545L29.3744 13.5728L29.385 13.5944C29.4115 13.6535 29.4327 13.7019 29.4486 13.745C29.4963 13.8633 29.5652 13.9924 29.6553 14.1485C29.7136 14.2453 29.7878 14.3583 29.8726 14.482C29.9415 14.5788 30.0157 14.6756 30.1005 14.7779L30.1111 14.794L30.3337 14.6488L30.3178 14.6326L30.2542 14.5573L30.2012 14.4981L30.1058 14.3744C30.0687 14.326 30.0316 14.2829 30.0104 14.2507L29.8355 13.944C29.9362 13.9655 30.0528 13.944 30.1747 13.901C30.2648 13.8687 30.339 13.8257 30.3814 13.7719C30.4291 13.7181 30.4609 13.6643 30.4768 13.6051L30.5934 13.1748H31.2612L30.8319 14.7779H31.0863L31.5156 13.1748H32.0933L31.9237 13.8149C31.8866 13.9494 31.9237 14.057 32.0244 14.1485C32.1251 14.2345 32.2576 14.2776 32.4219 14.2776C32.4908 14.2776 32.565 14.2668 32.6445 14.2453C32.6922 14.2345 32.7452 14.213 32.7982 14.1915C32.8141 14.2722 32.8459 14.3475 32.9042 14.4174L32.9519 14.4712H32.9572C33.0526 14.5681 33.1692 14.6326 33.3017 14.6649L32.4378 15.2674H32.8141L33.4554 14.7563L33.7999 15.2674H34.1073L33.6674 14.6864C33.784 14.6756 33.8794 14.6488 33.9642 14.6111C34.0914 14.5573 34.2133 14.482 34.3299 14.369L34.3511 14.3475L34.1603 14.2399L34.1497 14.2507C33.9801 14.4174 33.784 14.4981 33.5508 14.4981C33.3759 14.4981 33.2381 14.4443 33.1427 14.3421C33.0579 14.256 33.0261 14.1592 33.0367 14.0462L33.0473 13.9871L33.0632 13.9387C33.0897 13.8795 33.1374 13.8257 33.2063 13.7826C33.2858 13.7288 33.3759 13.6966 33.4766 13.6966H34.2133L34.3511 13.1748H35.109L34.685 14.7779H34.9394L35.3687 13.1748H36.2114L36.2803 13.2716C36.3227 13.3577 36.3333 13.4276 36.3174 13.4921C36.2909 13.589 36.2379 13.6589 36.1584 13.7073C36.0895 13.745 36.0047 13.7665 35.8987 13.7665L35.8404 13.7557H35.8033L35.7662 13.7396H35.7503V13.7557C35.7079 13.9225 35.7344 14.0731 35.8351 14.2076C35.9358 14.3421 36.1054 14.4121 36.3439 14.4121H36.3545C36.4976 14.4121 36.6301 14.3852 36.7626 14.3314L36.8686 14.2776L36.7361 14.7779H36.9905L37.4198 13.1748H37.759L37.8067 12.9972H35.3846C35.3687 12.8412 35.3369 12.7283 35.2998 12.6529H35.2945Z" fill="#FFCA10"/>
<path id="Vector_10" d="M24.6835 12.5131C24.7418 12.4647 24.8107 12.4431 24.9008 12.4431C24.9644 12.4431 25.0227 12.4539 25.0757 12.47C25.1817 12.5131 25.2612 12.5991 25.3195 12.7229C25.346 12.7767 25.3619 12.8574 25.3831 12.9918H24.5987L24.5722 12.9273C24.551 12.852 24.551 12.7767 24.5722 12.7014C24.5934 12.6207 24.6358 12.5561 24.6888 12.5131H24.6835ZM26.7823 13.2662L26.7452 13.1748H27.3971L27.1798 13.9978C27.1162 14.057 27.0632 14.0947 27.0261 14.1162C26.8936 14.1969 26.7558 14.2399 26.618 14.2453H26.6074C26.4378 14.2453 26.3212 14.1915 26.2629 14.0839C26.247 14.0516 26.2364 13.9978 26.2258 13.9333C26.3265 13.9118 26.4113 13.8902 26.4696 13.8687C26.6498 13.7934 26.7611 13.6697 26.8035 13.5083C26.8247 13.4384 26.8141 13.3523 26.7823 13.2662ZM25.5368 12.6529C25.452 12.4593 25.3142 12.3409 25.1287 12.2979C25.0757 12.2817 25.0121 12.2764 24.9326 12.2764C24.7789 12.2764 24.6517 12.3086 24.5457 12.3786C24.4344 12.4485 24.3602 12.5561 24.3231 12.696C24.3072 12.7605 24.3125 12.8466 24.339 12.9327L24.3602 12.9972H19.5796L19.5319 13.1748H20.0089L19.8446 13.7934H19.2245L19.3623 13.2823C19.3888 13.1909 19.3623 13.1102 19.2987 13.0456C19.2351 12.9865 19.145 12.9542 19.0231 12.9542C18.9012 12.9542 18.8005 12.9811 18.7051 13.0349C18.615 13.0887 18.5514 13.1694 18.5249 13.277V13.4007L18.5461 13.4599V13.4706H18.7899L18.7634 13.4384L18.7528 13.4168V13.2877C18.7634 13.2393 18.7899 13.1963 18.827 13.1694C18.8641 13.1425 18.9118 13.1263 18.9648 13.1263C19.0337 13.1263 19.0814 13.1371 19.0973 13.164L19.1079 13.2608L18.9648 13.7934H18.7316L18.6468 13.8149L18.5832 13.8902C18.5832 13.8902 18.562 13.9602 18.7369 14.1431C18.8906 14.3098 18.9489 14.326 18.9807 14.326L19.0867 14.2829L19.1079 14.213L19.1715 13.9817H19.7916L19.5796 14.7779H19.834L20.2633 13.1748H20.8728L20.4488 14.7779H20.7032L21.1325 13.1748H22.4204L22.3144 13.5782C22.2985 13.6374 22.2667 13.6858 22.2084 13.7235C22.1501 13.7611 22.0812 13.7773 21.9964 13.7773C21.9487 13.7773 21.901 13.7719 21.8639 13.7557L21.8003 13.7073L21.689 13.4545L21.4611 13.5728V13.589C21.4876 13.6374 21.5088 13.6912 21.53 13.745C21.5777 13.8633 21.6466 13.9924 21.7314 14.1431C21.7844 14.2291 21.8533 14.3314 21.954 14.4766C22.0388 14.5896 22.113 14.6864 22.1819 14.7725L22.1925 14.7886L22.4204 14.6434L22.3992 14.6219C22.3515 14.5681 22.3144 14.5304 22.2879 14.4981L22.2508 14.4497C22.1819 14.369 22.1342 14.3045 22.0971 14.2507L21.9222 13.944C22.0229 13.9655 22.1395 13.944 22.2614 13.901C22.3515 13.8687 22.4257 13.8257 22.4734 13.7719C22.5211 13.7181 22.5529 13.6643 22.5688 13.6051L22.6854 13.1748H24.4821L24.392 13.519H23.544C23.4221 13.519 23.3161 13.5513 23.226 13.6105C23.1359 13.6697 23.0723 13.7557 23.0458 13.8687C22.9928 14.0624 23.0458 14.2668 23.2101 14.4874C23.2684 14.5627 23.3585 14.6541 23.4645 14.751L23.4751 14.7617L23.6765 14.6219L23.6553 14.6057C23.5546 14.5143 23.4804 14.4336 23.4327 14.3744C23.3002 14.1969 23.2525 14.0247 23.2949 13.8633C23.3108 13.8042 23.3426 13.7611 23.385 13.7342C23.4433 13.702 23.5175 13.6858 23.6076 13.6858H24.3443L24.0528 14.7779H24.3072L24.7365 13.1748H25.346L24.922 14.7779H25.1764L25.6057 13.1748H26.4484L26.5173 13.2716C26.5597 13.3523 26.5703 13.4222 26.5544 13.4921C26.5279 13.589 26.4749 13.6589 26.3954 13.7073C26.3265 13.745 26.2364 13.7665 26.1357 13.7665L26.0774 13.7557H26.0456L26.0085 13.7396H25.9926V13.7557C25.9502 13.9171 25.9767 14.0678 26.0774 14.2076C26.1781 14.3421 26.3477 14.4121 26.5862 14.4121H26.5968C26.7399 14.4121 26.8724 14.3852 27.0102 14.3314L27.1162 14.2829L26.9837 14.7832H27.2381L27.6674 13.1801H28.0066L28.0543 13.0026H25.6322C25.6163 12.8466 25.5845 12.7336 25.5474 12.6583L25.5368 12.6529Z" fill="#FFCA10"/>
<path id="Vector_11" d="M0.436035 17.9247L0.950135 16.0419L1.78223 17.1501L1.85113 17.2523L1.91473 17.3706L2.25923 16.1118H2.52953L2.01013 17.9947L1.16213 16.8703L1.09853 16.7735L1.04553 16.6659L0.701035 17.9247H0.436035Z" fill="#FFCA10"/>
<path id="Vector_12" d="M3.06529 17.2146H3.56349L3.49459 16.8004L3.48399 16.7089V16.596L3.42039 16.7036L3.36209 16.8004L3.06529 17.2146ZM3.67479 17.9247L3.60059 17.4567H2.89569L2.56179 17.9247H2.25439L3.63239 16.0419L3.98219 17.9247H3.67479Z" fill="#FFCA10"/>
<path id="Vector_13" d="M4.86183 16.3643L4.43783 17.9244H4.14633L4.57563 16.3643H4.09863L4.16753 16.1115H5.40243L5.33353 16.3643H4.86183Z" fill="#FFCA10"/>
<path id="Vector_14" d="M5.18506 17.9244L5.67796 16.1115H5.96946L5.47656 17.9244H5.18506Z" fill="#FFCA10"/>
<path id="Vector_15" d="M7.56451 17.0261C7.59101 16.9347 7.59631 16.8486 7.58571 16.7679C7.57511 16.6872 7.54861 16.6119 7.50621 16.5474C7.46381 16.4828 7.40551 16.4344 7.33661 16.4021C7.26771 16.3698 7.18821 16.3483 7.09811 16.3483C7.00801 16.3483 6.92321 16.3645 6.83311 16.3967C6.74301 16.429 6.66351 16.4774 6.57871 16.542C6.49921 16.6065 6.43031 16.6765 6.37731 16.7625C6.32431 16.8432 6.28191 16.9347 6.25541 17.0261C6.22891 17.1176 6.22361 17.2037 6.23421 17.2844C6.24481 17.3651 6.27131 17.4404 6.31371 17.5049C6.35611 17.5695 6.41441 17.6179 6.48331 17.6502C6.55221 17.6825 6.63171 17.6986 6.72181 17.6986C6.81191 17.6986 6.89671 17.6825 6.98151 17.6502C7.07161 17.6179 7.15111 17.5641 7.23591 17.5049C7.31541 17.4404 7.38431 17.3651 7.43731 17.2844C7.49031 17.2037 7.53271 17.1176 7.55921 17.0261H7.56451ZM7.86661 17.0261C7.82951 17.1553 7.77651 17.279 7.69701 17.392C7.61751 17.5049 7.52211 17.6071 7.40551 17.6986C7.28891 17.79 7.16701 17.8546 7.03981 17.903C6.91261 17.9514 6.78541 17.973 6.65821 17.973C6.53101 17.973 6.41441 17.9514 6.30841 17.903C6.20771 17.8546 6.12291 17.7847 6.05401 17.6986C5.98511 17.6071 5.94801 17.5049 5.93211 17.392C5.91621 17.279 5.92681 17.1553 5.95861 17.0261C5.99571 16.897 6.05401 16.7733 6.12821 16.6603C6.20771 16.5474 6.30311 16.4452 6.41971 16.3537C6.53631 16.2623 6.65821 16.1977 6.78541 16.1493C6.91261 16.1009 7.04511 16.0793 7.17231 16.0793C7.29951 16.0793 7.41611 16.1009 7.51681 16.1493C7.61751 16.1977 7.70231 16.2676 7.77121 16.3537C7.84011 16.4452 7.87721 16.5474 7.89311 16.6657C7.90901 16.7787 7.89841 16.9024 7.86661 17.0315V17.0261Z" fill="#FFCA10"/>
<path id="Vector_16" d="M7.90381 17.9247L8.42321 16.0419L9.25001 17.1501L9.31891 17.2523L9.38251 17.3706L9.72701 16.1118H9.99731L9.48321 17.9947L8.63521 16.8703L8.57161 16.7735L8.51861 16.6659L8.17411 17.9247H7.90381Z" fill="#FFCA10"/>
<path id="Vector_17" d="M10.5326 17.2146H11.0308L10.9619 16.8004L10.9513 16.7089V16.596L10.8877 16.7036L10.8294 16.8004L10.5326 17.2146ZM11.1421 17.9247L11.0679 17.4567H10.363L10.0291 17.9247H9.72168L11.0997 16.0419L11.4495 17.9247H11.1421Z" fill="#FFCA10"/>
<path id="Vector_18" d="M11.6616 17.9244L12.1598 16.1115H12.4513L12.0273 17.6608H12.6739L12.605 17.9244H11.6616Z" fill="#FFCA10"/>
<path id="Vector_19" d="M14.2213 16.87H14.2955C14.4545 16.87 14.5711 16.8538 14.6294 16.8162C14.693 16.7785 14.7354 16.7193 14.7619 16.6279C14.7884 16.5311 14.7778 16.4611 14.7301 16.4235C14.6824 16.3858 14.5817 16.3643 14.428 16.3643H14.3538L14.216 16.87H14.2213ZM14.1365 17.112L13.9139 17.9244H13.6436L14.1418 16.1115H14.5817C14.7142 16.1115 14.8043 16.1168 14.8626 16.133C14.9209 16.1491 14.9686 16.1706 15.0057 16.2029C15.0481 16.2459 15.0799 16.2997 15.0905 16.375C15.1011 16.445 15.0958 16.5257 15.0746 16.6117C15.0534 16.6978 15.011 16.7785 14.9633 16.8484C14.9103 16.9184 14.852 16.9776 14.7831 17.0206C14.7301 17.0529 14.6665 17.0744 14.6029 17.0905C14.5393 17.1013 14.4386 17.112 14.3114 17.112H14.1471H14.1365Z" fill="#FFCA10"/>
<path id="Vector_20" d="M15.2543 17.2146H15.7525L15.6836 16.8004L15.673 16.7089V16.596L15.6094 16.7036L15.5511 16.8004L15.2543 17.2146ZM15.8638 17.9247L15.7896 17.4567H15.0847L14.7508 17.9247H14.4487L15.8267 16.0419L16.1765 17.9247H15.8691H15.8638Z" fill="#FFCA10"/>
<path id="Vector_21" d="M16.3365 17.9244L16.5644 17.0959L16.2305 16.1115H16.5326L16.7393 16.7301L16.7605 16.7893L16.7764 16.8753L16.8347 16.7947L16.893 16.7193L17.4442 16.1115H17.7357L16.8506 17.0959L16.6227 17.9244H16.3365Z" fill="#FFCA10"/>
<path id="Vector_22" d="M18.9808 17.0318C18.9808 17.0318 18.9861 16.978 18.9967 16.9134C19.002 16.8596 19.0126 16.8166 19.0126 16.7843L18.949 16.9081L18.8642 17.0318L18.1328 17.9947L17.9367 17.0103L17.9208 16.8919V16.7789L17.8731 16.8973L17.8148 17.0264L17.3802 17.9194H17.1152L18.0533 16.0312L18.2653 17.1717L18.2759 17.2631C18.2759 17.3061 18.2865 17.3546 18.2918 17.4191C18.3236 17.3653 18.366 17.3008 18.4296 17.2201L18.4667 17.1717L19.2935 16.0312L19.2087 17.9194H18.9384L18.9861 17.0264L18.9808 17.0318Z" fill="#FFCA10"/>
<path id="Vector_23" d="M19.4839 17.9244L19.9821 16.1115H20.9785L20.9096 16.3643H20.2047L20.0775 16.8162H20.7877L20.7135 17.0744H20.0086L19.8496 17.6608H20.5545L20.4803 17.9244H19.4839Z" fill="#FFCA10"/>
<path id="Vector_24" d="M20.8628 17.9247L21.3822 16.0419L22.209 17.1501L22.2779 17.2523L22.3468 17.3706L22.6913 16.1118H22.9563L22.4422 17.9947L21.5942 16.8703L21.5306 16.7735L21.4776 16.6659L21.1331 17.9247H20.8628Z" fill="#FFCA10"/>
<path id="Vector_25" d="M23.9253 16.3643L23.496 17.9244H23.2045L23.6338 16.3643H23.1621L23.231 16.1115H24.4659L24.397 16.3643H23.9253Z" fill="#FFCA10"/>
<path id="Vector_26" d="M24.2381 17.5642L24.4978 17.4566C24.4978 17.5373 24.519 17.5965 24.5667 17.6395C24.6144 17.6825 24.6833 17.704 24.7734 17.704C24.8582 17.704 24.9324 17.6772 24.996 17.6287C25.0596 17.5803 25.102 17.5158 25.1232 17.4351C25.1497 17.3275 25.0914 17.2306 24.943 17.15L24.8953 17.1231C24.7257 17.0262 24.6197 16.9348 24.5773 16.8595C24.5349 16.7788 24.5243 16.6873 24.5561 16.569C24.5985 16.4237 24.678 16.3 24.7999 16.2085C24.9218 16.1171 25.0649 16.0687 25.2239 16.0687C25.3564 16.0687 25.4571 16.0956 25.5313 16.144C25.6055 16.1978 25.6479 16.2677 25.6532 16.3645L25.3935 16.4829C25.3723 16.4237 25.3458 16.3861 25.3087 16.3592C25.2716 16.3323 25.2292 16.3215 25.1709 16.3215C25.0914 16.3215 25.0278 16.343 24.9695 16.3807C24.9112 16.4237 24.8741 16.4775 24.8529 16.5474C24.8211 16.655 24.8953 16.7572 25.0702 16.8541L25.102 16.8702C25.2557 16.9509 25.3564 17.0316 25.3988 17.1123C25.4412 17.193 25.4465 17.2898 25.4147 17.4082C25.367 17.5803 25.2769 17.7148 25.1444 17.817C25.0119 17.9192 24.8529 17.9676 24.6727 17.9676C24.519 17.9676 24.4077 17.93 24.3282 17.8601C24.2487 17.7901 24.2169 17.6879 24.2222 17.5534L24.2381 17.5642Z" fill="#FFCA10"/>
<path id="Vector_27" d="M28.1234 16.5528C28.0598 16.4829 27.9909 16.4291 27.9061 16.3914C27.8266 16.3538 27.7312 16.3377 27.6305 16.3377C27.4344 16.3377 27.2595 16.4022 27.1005 16.5313C26.9415 16.6604 26.8355 16.8218 26.7825 17.0262C26.7295 17.2199 26.7454 17.3813 26.8302 17.5104C26.915 17.6395 27.0475 17.6987 27.2277 17.6987C27.3337 17.6987 27.4397 17.6772 27.5457 17.6395C27.6517 17.6018 27.7577 17.5427 27.869 17.4674L27.7789 17.8009C27.6835 17.8601 27.5881 17.8977 27.4874 17.93C27.3867 17.9569 27.286 17.973 27.1747 17.973C27.0369 17.973 26.9203 17.9515 26.8143 17.9031C26.7083 17.8601 26.6288 17.7901 26.5652 17.7041C26.5016 17.618 26.4645 17.5158 26.4486 17.3974C26.4327 17.2791 26.4486 17.1553 26.4804 17.0209C26.5175 16.8864 26.5758 16.7626 26.6553 16.6443C26.7348 16.5259 26.8302 16.4237 26.9415 16.3377C27.0528 16.2516 27.1747 16.1816 27.3019 16.1332C27.4291 16.0848 27.5616 16.0633 27.6941 16.0633C27.8001 16.0633 27.8955 16.0794 27.9803 16.1117C28.0651 16.144 28.1446 16.187 28.2188 16.2516L28.1234 16.5475V16.5528Z" fill="#FFCA10"/>
<path id="Vector_28" d="M29.8827 17.0261C29.9092 16.9347 29.9145 16.8486 29.9039 16.7679C29.8933 16.6872 29.8668 16.6119 29.8244 16.5474C29.782 16.4828 29.7237 16.4344 29.6548 16.4021C29.5859 16.3698 29.5064 16.3483 29.4163 16.3483C29.3262 16.3483 29.2414 16.3645 29.1513 16.3967C29.0612 16.429 28.9764 16.4774 28.8969 16.542C28.8174 16.6065 28.7485 16.6765 28.6955 16.7625C28.6372 16.8432 28.6001 16.9347 28.5736 17.0261C28.5471 17.1176 28.5418 17.2037 28.5524 17.2844C28.563 17.3651 28.5895 17.4404 28.6319 17.5049C28.6743 17.5695 28.7326 17.6179 28.8015 17.6502C28.8704 17.6825 28.9499 17.6986 29.04 17.6986C29.1301 17.6986 29.2149 17.6825 29.2997 17.6502C29.3898 17.6179 29.4693 17.5641 29.5541 17.5049C29.6336 17.4404 29.7025 17.3651 29.7555 17.2844C29.8085 17.2037 29.8509 17.1176 29.8774 17.0261H29.8827ZM30.1848 17.0261C30.1477 17.1553 30.0947 17.279 30.0152 17.392C29.9357 17.5049 29.8403 17.6071 29.7237 17.6986C29.6071 17.79 29.4852 17.8546 29.358 17.903C29.2308 17.9514 29.1036 17.973 28.9764 17.973C28.8492 17.973 28.7326 17.9514 28.6266 17.903C28.5206 17.8546 28.4411 17.7847 28.3722 17.6986C28.3033 17.6071 28.2662 17.5049 28.2503 17.392C28.2344 17.279 28.245 17.1553 28.2821 17.0261C28.3192 16.897 28.3722 16.7733 28.4517 16.6603C28.5312 16.5474 28.6266 16.4452 28.7432 16.3537C28.8598 16.2623 28.9817 16.1977 29.1089 16.1493C29.2361 16.1009 29.3686 16.0793 29.4958 16.0793C29.623 16.0793 29.7396 16.1009 29.8403 16.1493C29.941 16.1977 30.0258 16.2676 30.0947 16.3537C30.1583 16.4452 30.2007 16.5474 30.2166 16.6657C30.2325 16.7787 30.2219 16.9024 30.1901 17.0315L30.1848 17.0261Z" fill="#FFCA10"/>
<path id="Vector_29" d="M30.8478 16.8861H30.9008C31.0545 16.8861 31.1605 16.87 31.2241 16.8323C31.2824 16.7947 31.3248 16.7301 31.3513 16.6386C31.3778 16.5364 31.3725 16.4665 31.3248 16.4288C31.2824 16.3912 31.187 16.3697 31.0439 16.3697H30.9909L30.8478 16.8915V16.8861ZM30.7683 17.112L30.5457 17.9244H30.2754L30.7736 16.1115H31.1764C31.293 16.1115 31.3884 16.1222 31.4467 16.133C31.505 16.1491 31.558 16.176 31.5951 16.2137C31.6375 16.2567 31.664 16.3159 31.6746 16.3858C31.6852 16.4557 31.6746 16.5311 31.6587 16.6117C31.6163 16.757 31.5527 16.87 31.4626 16.9507C31.3725 17.0314 31.2559 17.0798 31.1181 17.0959L31.505 17.919H31.1764L30.8054 17.1067H30.7736L30.7683 17.112Z" fill="#FFCA10"/>
<path id="Vector_30" d="M32.2999 16.87H32.3741C32.5331 16.87 32.6497 16.8538 32.708 16.8162C32.7716 16.7785 32.814 16.7193 32.8405 16.6279C32.867 16.5311 32.8564 16.4611 32.814 16.4235C32.7663 16.3858 32.6656 16.3643 32.5119 16.3643H32.4377L32.2999 16.87ZM32.2151 17.112L31.9925 17.9244H31.7222L32.2204 16.1115H32.6603C32.7928 16.1115 32.8829 16.1168 32.9412 16.133C32.9995 16.1491 33.0472 16.1706 33.0843 16.2029C33.1267 16.2459 33.1585 16.2997 33.1691 16.375C33.1797 16.445 33.1744 16.5257 33.1532 16.6117C33.132 16.6978 33.0896 16.7785 33.0419 16.8484C32.9889 16.9184 32.9306 16.9776 32.8617 17.0206C32.8087 17.0529 32.7504 17.0744 32.6815 17.0905C32.6179 17.1013 32.5172 17.112 32.39 17.112H32.2257H32.2151Z" fill="#FFCA10"/>
<path id="Vector_31" d="M34.8223 17.0261C34.8488 16.9347 34.8541 16.8486 34.8435 16.7679C34.8329 16.6872 34.8064 16.6119 34.764 16.5474C34.7216 16.4828 34.6633 16.4344 34.5944 16.4021C34.5255 16.3698 34.446 16.3483 34.3559 16.3483C34.2658 16.3483 34.181 16.3645 34.0909 16.3967C34.0008 16.429 33.9213 16.4774 33.8365 16.542C33.757 16.6065 33.6881 16.6765 33.6351 16.7625C33.5821 16.8432 33.5397 16.9347 33.5132 17.0261C33.4867 17.1176 33.4814 17.2037 33.492 17.2844C33.5026 17.3651 33.5291 17.4404 33.5715 17.5049C33.6139 17.5695 33.6722 17.6179 33.7411 17.6502C33.81 17.6825 33.8895 17.6986 33.9796 17.6986C34.0697 17.6986 34.1545 17.6825 34.2393 17.6502C34.3241 17.6179 34.4089 17.5641 34.4937 17.5049C34.5732 17.4404 34.6421 17.3651 34.6951 17.2844C34.7481 17.2037 34.7905 17.1176 34.817 17.0261H34.8223ZM35.1244 17.0261C35.0873 17.1553 35.0343 17.279 34.9548 17.392C34.8753 17.5049 34.7799 17.6071 34.6633 17.6986C34.5467 17.79 34.4248 17.8546 34.2976 17.903C34.1704 17.9514 34.0432 17.973 33.916 17.973C33.7888 17.973 33.6722 17.9514 33.5662 17.903C33.4655 17.8546 33.3807 17.7847 33.3118 17.6986C33.2482 17.6071 33.2058 17.5049 33.1899 17.392C33.174 17.279 33.1846 17.1553 33.2164 17.0261C33.2535 16.897 33.3065 16.7733 33.386 16.6603C33.4655 16.5474 33.5609 16.4452 33.6775 16.3537C33.7941 16.2623 33.916 16.1977 34.0432 16.1493C34.1704 16.1009 34.3029 16.0793 34.4301 16.0793C34.5573 16.0793 34.6739 16.1009 34.7746 16.1493C34.8753 16.1977 34.9601 16.2676 35.029 16.3537C35.0926 16.4452 35.135 16.5474 35.1509 16.6657C35.1668 16.7787 35.1562 16.9024 35.1244 17.0315V17.0261Z" fill="#FFCA10"/>
<path id="Vector_32" d="M35.6862 16.8861H35.7392C35.8929 16.8861 35.9989 16.87 36.0572 16.8323C36.1155 16.7947 36.1632 16.7301 36.1844 16.6386C36.2109 16.5364 36.2056 16.4665 36.1579 16.4288C36.1155 16.3912 36.0201 16.3697 35.877 16.3697H35.824L35.6809 16.8915L35.6862 16.8861ZM35.6067 17.112L35.3841 17.9244H35.1138L35.612 16.1115H36.0148C36.1314 16.1115 36.2215 16.1222 36.2851 16.133C36.3487 16.1491 36.3964 16.176 36.4335 16.2137C36.4759 16.2567 36.5024 16.3159 36.5183 16.3858C36.5289 16.4557 36.5183 16.5311 36.5024 16.6117C36.4653 16.757 36.3964 16.87 36.3063 16.9507C36.2162 17.0314 36.0996 17.0798 35.9618 17.0959L36.3487 17.919H36.0201L35.6491 17.1067H35.6173L35.6067 17.112Z" fill="#FFCA10"/>
<path id="Vector_33" d="M37.181 17.2146H37.6792L37.6103 16.8004L37.5997 16.7089V16.596L37.5361 16.7036L37.4778 16.8004L37.181 17.2146ZM37.7905 17.9247L37.7163 17.4567H37.0114L36.6775 17.9247H36.3701L37.7481 16.0419L38.0979 17.9247H37.7905Z" fill="#FFCA10"/>
<path id="Vector_34" d="M38.9829 16.3643L38.5536 17.9244H38.2621L38.6914 16.3643H38.2144L38.2833 16.1115H39.5235L39.4546 16.3643H38.9829Z" fill="#FFCA10"/>
<path id="Vector_35" d="M39.3013 17.9244L39.7995 16.1115H40.091L39.5928 17.9244H39.3013Z" fill="#FFCA10"/>
<path id="Vector_36" d="M41.6859 17.0261C41.7124 16.9347 41.7177 16.8486 41.7071 16.7679C41.6965 16.6872 41.67 16.6119 41.6276 16.5474C41.5852 16.4828 41.5269 16.4344 41.458 16.4021C41.3891 16.3698 41.3096 16.3483 41.2195 16.3483C41.1294 16.3483 41.0446 16.3645 40.9545 16.3967C40.8644 16.429 40.7849 16.4774 40.7054 16.542C40.6259 16.6065 40.557 16.6765 40.504 16.7625C40.451 16.8432 40.4086 16.9347 40.3821 17.0261C40.3556 17.1176 40.3503 17.2037 40.3609 17.2844C40.3715 17.3651 40.398 17.4404 40.4404 17.5049C40.4828 17.5695 40.5411 17.6179 40.61 17.6502C40.6789 17.6825 40.7584 17.6986 40.8485 17.6986C40.9386 17.6986 41.0234 17.6825 41.1082 17.6502C41.193 17.6179 41.2778 17.5641 41.3626 17.5049C41.4421 17.4404 41.511 17.3651 41.564 17.2844C41.617 17.2037 41.6594 17.1176 41.6859 17.0261ZM41.988 17.0261C41.9509 17.1553 41.8979 17.279 41.8184 17.392C41.7389 17.5049 41.6435 17.6071 41.5269 17.6986C41.4103 17.79 41.2884 17.8546 41.1612 17.903C41.034 17.9514 40.9068 17.973 40.7796 17.973C40.6524 17.973 40.5358 17.9514 40.4298 17.903C40.3238 17.8546 40.2443 17.7847 40.1754 17.6986C40.1065 17.6071 40.0694 17.5049 40.0535 17.392C40.0376 17.279 40.0482 17.1553 40.0853 17.0261C40.1224 16.897 40.1754 16.7733 40.2549 16.6603C40.3344 16.5474 40.4298 16.4452 40.5464 16.3537C40.663 16.2623 40.7849 16.1977 40.9121 16.1493C41.0393 16.1009 41.1718 16.0793 41.299 16.0793C41.4262 16.0793 41.5428 16.1009 41.6435 16.1493C41.7442 16.1977 41.829 16.2676 41.8979 16.3537C41.9668 16.4452 42.0039 16.5474 42.0198 16.6657C42.0357 16.7787 42.0251 16.9024 41.9933 17.0315L41.988 17.0261Z" fill="#FFCA10"/>
<path id="Vector_37" d="M41.9722 17.9247L42.4863 16.0419L43.3184 17.1501L43.3873 17.2523L43.4509 17.3706L43.7954 16.1118H44.0657L43.5516 17.9947L42.6983 16.8703L42.64 16.7735L42.5817 16.6659L42.2372 17.9247H41.9722Z" fill="#FFCA10"/>
<path id="Vector_38" d="M46.3075 17.0261C46.334 16.9347 46.3393 16.8486 46.3287 16.7679C46.3181 16.6872 46.2916 16.6119 46.2492 16.5474C46.2068 16.4828 46.1485 16.4344 46.0796 16.4021C46.0107 16.3698 45.9312 16.3483 45.8411 16.3483C45.751 16.3483 45.6662 16.3645 45.5761 16.3967C45.486 16.429 45.4065 16.4774 45.327 16.542C45.2475 16.6065 45.1786 16.6765 45.1256 16.7625C45.0726 16.8432 45.0302 16.9347 45.0037 17.0261C44.9772 17.1176 44.9719 17.2037 44.9825 17.2844C44.9931 17.3651 45.0196 17.4404 45.062 17.5049C45.1044 17.5695 45.1627 17.6179 45.2316 17.6502C45.3005 17.6825 45.38 17.6986 45.4701 17.6986C45.5602 17.6986 45.645 17.6825 45.7298 17.6502C45.8199 17.6179 45.8994 17.5641 45.9842 17.5049C46.0637 17.4404 46.1326 17.3651 46.1856 17.2844C46.2386 17.2037 46.281 17.1176 46.3075 17.0261ZM46.6096 17.0261C46.5725 17.1553 46.5195 17.279 46.44 17.392C46.3605 17.5049 46.2651 17.6071 46.1485 17.6986C46.0319 17.79 45.91 17.8546 45.7828 17.903C45.6556 17.9514 45.5284 17.973 45.4012 17.973C45.274 17.973 45.1574 17.9514 45.0514 17.903C44.9507 17.8546 44.8659 17.7847 44.797 17.6986C44.7334 17.6071 44.691 17.5049 44.6751 17.392C44.6592 17.279 44.6698 17.1553 44.7069 17.0261C44.744 16.897 44.797 16.7733 44.8765 16.6603C44.956 16.5474 45.0514 16.4452 45.168 16.3537C45.2846 16.2623 45.4065 16.1977 45.5337 16.1493C45.6609 16.1009 45.7881 16.0793 45.9206 16.0793C46.0531 16.0793 46.1644 16.1009 46.2651 16.1493C46.3658 16.1977 46.4506 16.2676 46.5195 16.3537C46.5831 16.4452 46.6255 16.5474 46.6414 16.6657C46.6573 16.7787 46.6467 16.9024 46.6096 17.0315V17.0261Z" fill="#FFCA10"/>
<path id="Vector_39" d="M46.5938 17.9244L47.092 16.1115H48.0884L48.0194 16.3643H47.3145L47.1874 16.8162H47.8923L47.8234 17.0744H47.1185L46.8853 17.9244H46.5938Z" fill="#FFCA10"/>
<path id="Vector_40" d="M48.666 17.9244L49.1589 16.1115H49.4504L48.9522 17.9244H48.666Z" fill="#FFCA10"/>
<path id="Vector_41" d="M49.2227 17.9247L49.7368 16.0419L50.5689 17.1501L50.6325 17.2523L50.7014 17.3706L51.0459 16.1118H51.3109L50.7968 17.9947L49.9488 16.8703L49.8852 16.7735L49.8322 16.6659L49.4877 17.9247H49.2227Z" fill="#FFCA10"/>
<path id="Vector_42" d="M51.4907 17.6608H51.7345C51.867 17.6608 51.973 17.65 52.0419 17.6339C52.1161 17.6177 52.1797 17.5854 52.2433 17.5424C52.3281 17.4832 52.397 17.4133 52.4553 17.3219C52.5136 17.2358 52.556 17.1336 52.5878 17.0206C52.6196 16.9076 52.6302 16.8054 52.6196 16.714C52.609 16.6279 52.5772 16.5526 52.5295 16.4988C52.4924 16.4557 52.4394 16.4235 52.3758 16.4073C52.3122 16.3912 52.2009 16.3804 52.0525 16.3804H51.8405L51.4907 17.6608ZM51.125 17.9244L51.6232 16.1115H52.0154C52.2698 16.1115 52.4447 16.1222 52.5401 16.1491C52.6355 16.176 52.715 16.219 52.7786 16.2782C52.8581 16.3589 52.9111 16.4611 52.927 16.5849C52.9482 16.7086 52.9323 16.8538 52.8899 17.0152C52.8475 17.1766 52.7786 17.3165 52.6938 17.4402C52.6037 17.5639 52.4977 17.6661 52.3758 17.7468C52.2804 17.806 52.1797 17.849 52.0737 17.8759C51.9677 17.9028 51.8087 17.9136 51.5967 17.9136H51.125V17.9244Z" fill="#FFCA10"/>
<path id="Vector_43" d="M52.832 17.9244L53.3249 16.1115H53.6164L53.1235 17.9244H52.832Z" fill="#FFCA10"/>
<path id="Vector_44" d="M54.1088 17.2146H54.607L54.5381 16.8004L54.5275 16.7089V16.596L54.4639 16.7036L54.4056 16.8004L54.1088 17.2146ZM54.7183 17.9247L54.6441 17.4567H53.9339L53.6 17.9247H53.2979L54.6758 16.0419L55.0257 17.9247H54.7183Z" fill="#FFCA10"/>
</g>
<defs>
<clipPath id="clip0_60_1105">
<rect width="57.913" height="18" fill="white" transform="translate(0.436523 -6.10352e-05)"/>
</clipPath>
</defs>
</svg>
