<svg width="64" height="20" viewBox="0 0 64 20" fill="none" xmlns="http://www.w3.org/2000/svg">
<g clip-path="url(#clip0_1506_3188)">
<path d="M49.2036 11.1831C49.1099 11.5298 48.9108 11.8227 48.6121 12.0618C48.3134 12.3009 47.9912 12.4145 47.6515 12.4145H35.5391C35.1994 12.4145 34.9476 12.2949 34.7836 12.0618C34.6137 11.8227 34.5786 11.5298 34.6723 11.1831L37.3665 1.25487C37.4603 0.908185 37.6535 0.609321 37.9522 0.37023C38.251 0.125161 38.5672 0.00561523 38.9069 0.00561523H51.0193C51.3708 0.00561523 51.6285 0.125161 51.7983 0.358275C51.9623 0.597367 51.9975 0.896231 51.8979 1.25487L51.5816 2.43239H39.4692L37.4193 9.98768H49.5316L49.2095 11.1831H49.2036Z" fill="#9B9B9B"/>
<path d="M52.9931 12.4148H50.58L53.9419 0.0239258H56.355L52.9931 12.4148Z" fill="#9B9B9B"/>
<path d="M19.7835 -0.000244141H17.3645L15.1623 8.11691L5.44544 0.0176877L2.07178 12.4445H4.49074L6.68128 4.37513L16.3981 12.4744L19.7835 -0.000244141Z" fill="#9B9B9B"/>
<path d="M35.5564 0.36389C35.3866 0.130776 35.1289 0.0112305 34.7775 0.0112305H21.4819L20.826 2.43801H32.9208L32.2179 5.03215H20.129L18.12 12.4201H20.539L21.8861 7.45893H32.7626C33.1023 7.45893 33.4186 7.33938 33.7232 7.10627C34.0219 6.86718 34.221 6.58027 34.3147 6.22761L35.6619 1.26646C35.7614 0.907823 35.7263 0.608959 35.5623 0.369868L35.5564 0.36389Z" fill="#9B9B9B"/>
<path d="M60.9348 0.0112305L63.9981 6.22761L57.5612 12.438L60.9348 0.0112305Z" fill="#008B45"/>
<path d="M58.7913 0.0112305L61.8486 6.22761L55.4117 12.438L58.7913 0.0112305Z" fill="#FF6E0C"/>
<path d="M55.0194 13.9083C55.1307 13.8306 55.2478 13.7948 55.3649 13.7948C55.4821 13.7948 55.5992 13.8247 55.7222 13.8785C55.7867 13.9024 55.8452 13.9382 55.9038 13.9801C56.0444 14.0697 56.1674 14.1833 56.2786 14.3148L56.3079 14.3507L56.3782 14.4403H54.8144L54.8027 14.3925V14.3806C54.791 14.3148 54.791 14.255 54.8027 14.2012C54.832 14.0757 54.9081 13.9801 55.0194 13.9083ZM61.1049 14.6376L60.9409 15.2652H60.156L60.32 14.6376H61.1049ZM56.7238 14.4403C56.6769 14.3746 56.6242 14.3088 56.5774 14.2371C56.4192 14.0518 56.2669 13.9203 56.1205 13.8187C56.0092 13.747 55.8979 13.6872 55.7925 13.6513C55.6812 13.6155 55.5582 13.5916 55.4411 13.5916C55.2244 13.5916 55.0311 13.6394 54.8671 13.735C54.709 13.8306 54.6035 13.9741 54.5508 14.1594C54.5332 14.2311 54.5274 14.3029 54.5508 14.3686L54.5625 14.4343H54.1584L54.1057 14.6316H54.504L54.0295 16.4128H54.3107L54.7851 14.6316H56.6711L56.5481 15.0859H55.3942L55.2654 15.1098C55.2185 15.1277 55.1834 15.1636 55.1658 15.2234C55.16 15.2532 55.1658 15.307 55.2888 15.4684L55.3064 15.4864C55.4118 15.6238 55.4879 15.6836 55.5407 15.6836C55.6227 15.6836 55.6578 15.6477 55.6695 15.6179L55.7574 15.2831H56.4895L56.1908 16.4128H56.4719L56.9464 14.6316H57.9538L57.8015 15.1994H57.5438L57.4969 15.2114C57.4325 15.2234 57.3973 15.2532 57.3856 15.2951C57.3681 15.3728 57.4091 15.4624 57.5262 15.588C57.6433 15.7075 57.7371 15.7673 57.8132 15.7673C57.8776 15.7673 57.9245 15.7374 57.9538 15.6776L57.9772 15.5999L58.229 14.6436H58.9085L58.434 16.4248H58.721L59.1955 14.6436H60.0389L59.8749 15.2712H59.6875L59.6055 15.2891C59.5586 15.3011 59.5293 15.3309 59.5117 15.3847C59.4942 15.4445 59.541 15.5222 59.6523 15.6477C59.7577 15.7673 59.8397 15.8271 59.91 15.8271C59.9627 15.8271 60.0037 15.8091 60.0272 15.7733L60.0447 15.7195L60.1092 15.4684H60.894L60.6422 16.4188H60.9233L61.3977 14.6376H61.7726L61.8253 14.4403H56.7355H56.7238Z" fill="#9B9B9B"/>
<path d="M43.8794 14.6323H44.4066L44.225 15.3197H43.5397L43.6861 14.7518C43.7154 14.6442 43.6862 14.5605 43.6159 14.4888C43.5456 14.4231 43.4402 14.3872 43.3113 14.3872C43.1824 14.3872 43.0653 14.4171 42.9599 14.4769C42.8603 14.5366 42.79 14.6323 42.7549 14.7458C42.7432 14.7817 42.7432 14.8235 42.7549 14.8893V14.9013L42.7783 14.955V14.967H43.0477L43.0243 14.9311L43.0126 14.9072V14.7578C43.0243 14.704 43.0536 14.6622 43.1004 14.6263C43.1414 14.5964 43.1942 14.5785 43.2527 14.5785C43.3289 14.5785 43.3757 14.5904 43.3992 14.6203L43.4167 14.7279L43.2586 15.3197H42.995L42.9072 15.3496L42.831 15.4332C42.8252 15.4691 42.831 15.5348 43.0009 15.7142C43.1649 15.8995 43.2293 15.9174 43.2644 15.9174L43.3816 15.8696L43.405 15.7919L43.4753 15.5348H44.1606L43.938 16.3717C43.8501 16.3896 43.7681 16.4135 43.6861 16.4553C43.6451 16.4793 43.5924 16.5091 43.528 16.551L43.5046 16.5689L43.6861 16.7423L43.7037 16.7303L43.7974 16.6586C43.8677 16.6108 43.9439 16.5868 44.0083 16.5868C44.0844 16.5868 44.1371 16.6048 44.1723 16.6466C44.2074 16.6885 44.2191 16.7363 44.2016 16.7901C44.1781 16.8797 44.1196 16.9515 44.02 17.0053C43.9204 17.0591 43.815 17.0889 43.692 17.0889C43.4987 17.0889 43.3289 17.0232 43.1824 16.8977C43.1297 16.8558 43.077 16.7961 43.0126 16.7124L42.995 16.6944L42.7666 16.8797L42.7842 16.8977C42.872 16.9873 42.9423 17.0591 43.0126 17.1009C43.2176 17.2324 43.4343 17.2922 43.6803 17.2922C43.8794 17.2922 44.061 17.2503 44.2016 17.1607C44.348 17.071 44.4417 16.9574 44.4827 16.808C44.512 16.6885 44.4886 16.5809 44.4066 16.4972C44.3539 16.4434 44.2894 16.4075 44.2133 16.3896L44.676 14.6502H45.6951L45.5428 15.218H45.2676L45.2383 15.224C45.1973 15.23 45.1446 15.2479 45.127 15.3077C45.1094 15.3794 45.1504 15.4751 45.2617 15.6006C45.3788 15.7201 45.4725 15.7799 45.5487 15.7799C45.6073 15.7799 45.66 15.75 45.6893 15.6903L45.7127 15.6066L45.9645 14.6502H46.644L46.1695 16.4314H46.4565L46.931 14.6502H48.8521L48.7525 15.0328H47.8154C47.6807 15.0328 47.5635 15.0626 47.4639 15.1344C47.3644 15.2001 47.2941 15.2958 47.2648 15.4213C47.2062 15.6365 47.2648 15.8636 47.4464 16.1087C47.5108 16.1923 47.6045 16.294 47.7275 16.4016L47.7392 16.4135L47.9618 16.2581L47.9384 16.2402C47.8329 16.1445 47.7509 16.0549 47.6924 15.9831C47.5459 15.7799 47.4932 15.5946 47.5401 15.4153C47.5577 15.3496 47.5928 15.3077 47.6455 15.2718C47.7041 15.236 47.7861 15.218 47.8915 15.218H48.7056L48.3835 16.4314H48.6646L49.1391 14.6502H49.8185L49.3441 16.4314H49.6252L50.0996 14.6502H51.9856L51.8685 15.1045H50.7146L50.5916 15.1284C50.5448 15.1463 50.5096 15.1882 50.492 15.2479C50.4862 15.2778 50.492 15.3376 50.6326 15.5169C50.7439 15.6544 50.8142 15.7142 50.8669 15.7142C50.9313 15.7142 50.9723 15.6903 51.0016 15.6484L51.0895 15.3137H51.8216L51.5229 16.4434H51.804L52.2784 14.6622H52.6533L52.706 14.4649H43.9321L43.8794 14.6622V14.6323Z" fill="#9B9B9B"/>
<path d="M37.1963 14.6324L37.0967 15.003H36.4934C36.3528 15.003 36.224 15.0328 36.1068 15.0986L36.0307 15.1464C35.9663 15.1883 35.9194 15.2361 35.8843 15.2839L35.3279 14.6324H37.1904H37.1963ZM35.7789 15.4871V15.5051L35.7671 15.5648L35.6969 15.5947C35.5973 15.6366 35.4977 15.6605 35.3923 15.6605C35.2751 15.6605 35.1931 15.6306 35.1346 15.5768C35.076 15.523 35.0643 15.4572 35.0877 15.3676L35.2283 14.8236L35.7906 15.4871H35.7789ZM37.577 13.9031C37.6414 13.8493 37.7175 13.8254 37.823 13.8254C37.8932 13.8254 37.9577 13.8374 38.0162 13.8553C38.1334 13.9031 38.2154 13.9928 38.2798 14.1363C38.3091 14.202 38.3325 14.3036 38.3501 14.4291H37.4833L37.454 14.3634V14.3514C37.4247 14.2678 37.4247 14.1841 37.454 14.1004C37.4774 14.0107 37.5184 13.939 37.577 13.8912V13.9031ZM39.8964 14.74L39.8554 14.6383H40.5758L40.3356 15.5529C40.2654 15.6186 40.2126 15.6605 40.1716 15.6844C40.0194 15.774 39.8729 15.8218 39.7206 15.8278H39.7089C39.5215 15.8278 39.3927 15.7681 39.3224 15.6485C39.3048 15.6186 39.2931 15.5648 39.2814 15.4871C39.3927 15.4692 39.4805 15.4393 39.5508 15.4154C39.7499 15.3317 39.8788 15.1942 39.9256 15.0149C39.9491 14.9312 39.9374 14.8356 39.9022 14.7459L39.8964 14.74ZM38.52 14.0585C38.4262 13.8434 38.2798 13.7119 38.069 13.664C38.0104 13.6461 37.9401 13.6401 37.8522 13.6401C37.6824 13.6401 37.5418 13.676 37.4247 13.7537C37.3017 13.8314 37.2197 13.945 37.1845 14.1064C37.1611 14.1841 37.167 14.2737 37.2021 14.3694L37.2255 14.4411H31.9425L31.8898 14.6383H33.0378L32.9206 15.0866C32.903 15.1524 32.8679 15.2062 32.8035 15.248C32.739 15.2899 32.6629 15.3078 32.5692 15.3078C32.5106 15.3078 32.4638 15.3018 32.4228 15.2839C32.37 15.26 32.3583 15.242 32.3583 15.2301L32.2353 14.9492L31.9776 15.0807L31.9893 15.1046C32.0186 15.1703 32.0421 15.2241 32.0596 15.2719C32.1123 15.4034 32.1885 15.5469 32.2881 15.7202C32.3525 15.8278 32.4345 15.9533 32.5282 16.0908C32.6043 16.1984 32.6863 16.306 32.78 16.4196L32.7918 16.4375L33.0378 16.2761L33.0202 16.2582L32.9499 16.1745L32.8913 16.1088L32.7859 15.9713C32.7449 15.9175 32.7039 15.8697 32.6805 15.8338L32.4872 15.4931C32.5985 15.517 32.7273 15.4931 32.862 15.4453C32.9616 15.4094 33.0436 15.3616 33.0905 15.3018C33.1432 15.242 33.1783 15.1823 33.1959 15.1165L33.3247 14.6383H34.0627L33.5883 16.4196H33.8695L34.3439 14.6383H34.9823L34.7949 15.3496C34.7539 15.4991 34.7949 15.6186 34.9062 15.7202C35.0174 15.8159 35.1639 15.8637 35.3454 15.8637C35.4216 15.8637 35.5036 15.8517 35.5914 15.8278C35.6441 15.8159 35.7027 15.792 35.7613 15.7681C35.7789 15.8577 35.814 15.9414 35.8784 16.0191L35.9311 16.0789H35.937C36.0424 16.1865 36.1713 16.2582 36.3177 16.2941L35.363 16.9635H35.7789L36.4876 16.3957L36.8683 16.9635H37.208L36.7218 16.318C36.8507 16.306 36.9561 16.2761 37.0498 16.2343C37.1904 16.1745 37.3251 16.0908 37.454 15.9653L37.4774 15.9414L37.2665 15.8218L37.2548 15.8338C37.0674 16.0191 36.8507 16.1088 36.593 16.1088C36.3997 16.1088 36.2474 16.049 36.142 15.9354C36.0483 15.8398 36.0131 15.7322 36.0248 15.6067L36.0366 15.5409L36.0541 15.4871C36.0834 15.4214 36.1361 15.3616 36.2123 15.3138C36.3001 15.254 36.3997 15.2181 36.511 15.2181H37.3251L37.4774 14.6383H38.315L37.8464 16.4196H38.1275L38.602 14.6383H39.5332L39.6094 14.7459C39.6562 14.8416 39.6679 14.9193 39.6504 14.991C39.6211 15.0986 39.5625 15.1763 39.4747 15.2301C39.3985 15.2719 39.3048 15.2958 39.1877 15.2958L39.1232 15.2839H39.0822L39.0412 15.266H39.0237V15.2839C38.9768 15.4692 39.0061 15.6366 39.1174 15.786C39.2287 15.9354 39.4161 16.0131 39.6796 16.0131H39.6914C39.8495 16.0131 39.9959 15.9832 40.1424 15.9235L40.2595 15.8637L40.1131 16.4196H40.3942L40.8686 14.6383H41.2435L41.2962 14.4411H38.6195C38.602 14.2678 38.5668 14.1422 38.5258 14.0585H38.52Z" fill="#9B9B9B"/>
<path d="M26.7944 13.9031C26.8588 13.8493 26.935 13.8254 27.0346 13.8254C27.1048 13.8254 27.1693 13.8374 27.2278 13.8553C27.345 13.9031 27.4328 13.9988 27.4973 14.1363C27.5266 14.196 27.5441 14.2857 27.5675 14.4351H26.7007L26.6714 14.3634C26.648 14.2797 26.648 14.196 26.6714 14.1123C26.6948 14.0227 26.7417 13.951 26.8003 13.9031H26.7944ZM29.1138 14.74L29.0728 14.6383H29.7932L29.5531 15.5529C29.4828 15.6186 29.4242 15.6605 29.3832 15.6844C29.2368 15.774 29.0845 15.8218 28.9322 15.8278H28.9205C28.7331 15.8278 28.6042 15.7681 28.5398 15.6485C28.5222 15.6126 28.5105 15.5529 28.4988 15.4811C28.6101 15.4572 28.7038 15.4333 28.7682 15.4094C28.9674 15.3257 29.0904 15.1883 29.1372 15.0089C29.1607 14.9312 29.149 14.8356 29.1138 14.74ZM27.7374 14.0585C27.6437 13.8434 27.4914 13.7119 27.2864 13.664C27.2278 13.6461 27.1576 13.6401 27.0697 13.6401C26.8998 13.6401 26.7593 13.676 26.6421 13.7537C26.5191 13.8314 26.4371 13.951 26.3961 14.1064C26.3786 14.1781 26.3844 14.2737 26.4137 14.3694L26.4371 14.4411H21.1541L21.1014 14.6383H21.6285L21.4469 15.3257H20.7617L20.9139 14.7579C20.9432 14.6563 20.9139 14.5666 20.8437 14.4949C20.7734 14.4291 20.6738 14.3933 20.5391 14.3933C20.4044 14.3933 20.2931 14.4232 20.1877 14.4829C20.0881 14.5427 20.0178 14.6324 19.9885 14.7519V14.8894L20.012 14.9551V14.9671H20.2814L20.2521 14.9312L20.2404 14.9073V14.7639C20.2521 14.7101 20.2814 14.6623 20.3224 14.6324C20.3634 14.6025 20.4161 14.5845 20.4747 14.5845C20.5508 14.5845 20.6035 14.5965 20.6211 14.6264L20.6328 14.734L20.4747 15.3257H20.217L20.1232 15.3496L20.053 15.4333C20.053 15.4333 20.0295 15.511 20.2228 15.7143C20.3927 15.8996 20.4571 15.9175 20.4922 15.9175L20.6094 15.8697L20.6328 15.792L20.7031 15.5349H21.3884L21.1541 16.4196H21.4352L21.9096 14.6383H22.5832L22.1146 16.4196H22.3958L22.8702 14.6383H24.2935L24.1763 15.0866C24.1587 15.1524 24.1236 15.2062 24.0592 15.248C23.9947 15.2899 23.9186 15.3078 23.8249 15.3078C23.7722 15.3078 23.7195 15.3018 23.6785 15.2839L23.6082 15.2301L23.4852 14.9492L23.2333 15.0807V15.0986C23.2626 15.1524 23.286 15.2122 23.3095 15.2719C23.3622 15.4034 23.4383 15.5469 23.532 15.7143C23.5906 15.8099 23.6668 15.9235 23.778 16.0848C23.8717 16.2104 23.9537 16.318 24.0299 16.4136L24.0416 16.4315L24.2935 16.2701L24.27 16.2462C24.2173 16.1865 24.1763 16.1446 24.147 16.1088L24.106 16.055C24.0299 15.9653 23.9772 15.8936 23.9362 15.8338L23.7429 15.4931C23.8542 15.517 23.983 15.4931 24.1177 15.4453C24.2173 15.4094 24.2993 15.3616 24.352 15.3018C24.4047 15.242 24.4399 15.1823 24.4575 15.1165L24.5863 14.6383H26.5719L26.4723 15.0209H25.5352C25.4004 15.0209 25.2833 15.0568 25.1837 15.1225C25.0842 15.1883 25.0139 15.2839 24.9846 15.4094C24.926 15.6246 24.9846 15.8517 25.1662 16.0968C25.2306 16.1805 25.3302 16.2821 25.4473 16.3897L25.459 16.4016L25.6816 16.2462L25.6582 16.2283C25.5469 16.1267 25.4649 16.037 25.4122 15.9713C25.2657 15.774 25.213 15.5828 25.2599 15.4034C25.2774 15.3377 25.3126 15.2899 25.3594 15.26C25.4239 15.2241 25.5059 15.2062 25.6054 15.2062H26.4196L26.0974 16.4196H26.3786L26.853 14.6383H27.5266L27.058 16.4196H27.3391L27.8135 14.6383H28.7448L28.821 14.7459C28.8678 14.8356 28.8795 14.9133 28.862 14.991C28.8327 15.0986 28.7741 15.1763 28.6862 15.2301C28.6101 15.2719 28.5105 15.2958 28.3993 15.2958L28.3348 15.2839H28.2997L28.2587 15.266H28.2411V15.2839C28.1943 15.4632 28.2235 15.6306 28.3348 15.786C28.4461 15.9354 28.6335 16.0131 28.8971 16.0131H28.9088C29.067 16.0131 29.2134 15.9832 29.3657 15.9235L29.4828 15.8697L29.3364 16.4256H29.6175L30.0919 14.6443H30.4668L30.5195 14.4471H27.8428C27.8253 14.2737 27.7901 14.1482 27.7491 14.0645L27.7374 14.0585Z" fill="#9B9B9B"/>
<path d="M-0.00170898 19.9163L0.566425 17.8242L1.48598 19.0555L1.56212 19.1691L1.63241 19.3006L2.01312 17.9019H2.31183L1.73784 19.994L0.800707 18.7447L0.730422 18.6371L0.671852 18.5176L0.291144 19.9163H-0.00170898Z" fill="#9B9B9B"/>
<path d="M2.90333 19.1273H3.45389L3.37775 18.667L3.36604 18.5654V18.4399L3.29575 18.5594L3.23133 18.667L2.90333 19.1273ZM3.57689 19.9163L3.49489 19.3962H2.71591L2.34691 19.9163H2.0072L3.53004 17.8242L3.9166 19.9163H3.57689Z" fill="#9B9B9B"/>
<path d="M4.88907 18.1823L4.42051 19.9157H4.09837L4.57279 18.1823H4.04565L4.1218 17.9014H5.48649L5.41035 18.1823H4.88907Z" fill="#9B9B9B"/>
<path d="M5.24609 19.9157L5.7908 17.9014H6.11294L5.56823 19.9157H5.24609Z" fill="#9B9B9B"/>
<path d="M7.87625 18.9182C7.90554 18.8166 7.9114 18.721 7.89968 18.6313C7.88797 18.5416 7.85868 18.458 7.81183 18.3862C7.76497 18.3145 7.70054 18.2607 7.6244 18.2248C7.54826 18.189 7.4604 18.1651 7.36083 18.1651C7.26126 18.1651 7.16755 18.183 7.06798 18.2189C6.96841 18.2547 6.88055 18.3085 6.78684 18.3803C6.69899 18.452 6.62284 18.5297 6.56427 18.6253C6.5057 18.715 6.45885 18.8166 6.42956 18.9182C6.40028 19.0198 6.39442 19.1155 6.40613 19.2051C6.41785 19.2948 6.44713 19.3785 6.49399 19.4502C6.54085 19.5219 6.60527 19.5757 6.68141 19.6116C6.75756 19.6474 6.84541 19.6654 6.94498 19.6654C7.04455 19.6654 7.13827 19.6474 7.23198 19.6116C7.33155 19.5757 7.4194 19.5159 7.51312 19.4502C7.60097 19.3785 7.67711 19.2948 7.73568 19.2051C7.79425 19.1155 7.84111 19.0198 7.8704 18.9182H7.87625ZM8.21011 18.9182C8.16911 19.0617 8.11054 19.1991 8.02268 19.3247C7.93482 19.4502 7.8294 19.5638 7.70054 19.6654C7.57169 19.767 7.43697 19.8387 7.29641 19.8925C7.15584 19.9463 7.01527 19.9702 6.8747 19.9702C6.73413 19.9702 6.60527 19.9463 6.48813 19.8925C6.37685 19.8387 6.28314 19.761 6.20699 19.6654C6.13085 19.5638 6.08985 19.4502 6.07228 19.3247C6.05471 19.1991 6.06642 19.0617 6.10157 18.9182C6.14257 18.7748 6.20699 18.6373 6.28899 18.5118C6.37685 18.3862 6.48228 18.2727 6.61113 18.1711C6.73999 18.0694 6.8747 17.9977 7.01527 17.9439C7.15584 17.8901 7.30226 17.8662 7.44283 17.8662C7.5834 17.8662 7.71226 17.8901 7.82354 17.9439C7.93482 17.9977 8.02854 18.0754 8.10468 18.1711C8.18082 18.2727 8.22182 18.3862 8.23939 18.5177C8.25696 18.6433 8.24525 18.7807 8.21011 18.9242V18.9182Z" fill="#9B9B9B"/>
<path d="M8.2511 19.9163L8.82509 17.8242L9.73879 19.0555L9.81493 19.1691L9.88522 19.3006L10.2659 17.9019H10.5646L9.9965 19.994L9.05937 18.7447L8.98909 18.6371L8.93052 18.5176L8.54981 19.9163H8.2511Z" fill="#9B9B9B"/>
<path d="M11.1563 19.1273H11.7068L11.6307 18.667L11.619 18.5654V18.4399L11.5487 18.5594L11.4843 18.667L11.1563 19.1273ZM11.8298 19.9163L11.7478 19.3962H10.9688L10.5998 19.9163H10.2601L11.783 17.8242L12.1695 19.9163H11.8298Z" fill="#9B9B9B"/>
<path d="M12.4038 19.9157L12.9544 17.9014H13.2765L12.8079 19.6228H13.5225L13.4464 19.9157H12.4038Z" fill="#9B9B9B"/>
<path d="M15.2325 18.7442H15.3145C15.4902 18.7442 15.6191 18.7262 15.6835 18.6844C15.7538 18.6426 15.8007 18.5768 15.83 18.4752C15.8592 18.3676 15.8475 18.2899 15.7948 18.248C15.7421 18.2062 15.6308 18.1823 15.461 18.1823H15.379L15.2267 18.7442H15.2325ZM15.1388 19.0131L14.8928 19.9157H14.5941L15.1447 17.9014H15.6308C15.7772 17.9014 15.8768 17.9073 15.9412 17.9253C16.0057 17.9432 16.0584 17.9671 16.0994 18.003C16.1462 18.0508 16.1814 18.1106 16.1931 18.1943C16.2048 18.272 16.1989 18.3616 16.1755 18.4573C16.1521 18.5529 16.1052 18.6426 16.0525 18.7203C15.994 18.798 15.9295 18.8637 15.8534 18.9115C15.7948 18.9474 15.7245 18.9713 15.6542 18.9892C15.584 19.0012 15.4727 19.0131 15.3321 19.0131H15.1505H15.1388Z" fill="#9B9B9B"/>
<path d="M16.3745 19.1273H16.9251L16.8489 18.667L16.8372 18.5654V18.4399L16.7669 18.5594L16.7025 18.667L16.3745 19.1273ZM17.0481 19.9163L16.9661 19.3962H16.1871L15.8181 19.9163H15.4843L17.0071 17.8242L17.3937 19.9163H17.0539H17.0481Z" fill="#9B9B9B"/>
<path d="M17.5695 19.9157L17.8214 18.9952L17.4524 17.9014H17.7862L18.0147 18.5888L18.0381 18.6545L18.0557 18.7501L18.1201 18.6605L18.1845 18.5768L18.7937 17.9014H19.1158L18.1377 18.9952L17.8858 19.9157H17.5695Z" fill="#9B9B9B"/>
<path d="M20.492 18.9235C20.492 18.9235 20.4978 18.8638 20.5096 18.792C20.5154 18.7323 20.5271 18.6845 20.5271 18.6486L20.4568 18.7861L20.3631 18.9235L19.5549 19.9935L19.3381 18.8996L19.3206 18.7681V18.6426L19.2679 18.7741L19.2034 18.9176L18.7232 19.9098H18.4303L19.467 17.8118L19.7013 19.079L19.713 19.1806C19.713 19.2284 19.7247 19.2822 19.7306 19.3539C19.7657 19.2941 19.8126 19.2224 19.8828 19.1327L19.9238 19.079L20.8375 17.8118L20.7438 19.9098H20.4451L20.4978 18.9176L20.492 18.9235Z" fill="#9B9B9B"/>
<path d="M21.0486 19.9157L21.5991 17.9014H22.7003L22.6241 18.1823H21.8451L21.7046 18.6844H22.4894L22.4074 18.9713H21.6284L21.4527 19.6228H22.2317L22.1497 19.9157H21.0486Z" fill="#9B9B9B"/>
<path d="M22.5713 19.9163L23.1453 17.8242L24.059 19.0555L24.1351 19.1691L24.2113 19.3006L24.592 17.9019H24.8848L24.3167 19.994L23.3796 18.7447L23.3093 18.6371L23.2507 18.5176L22.87 19.9163H22.5713Z" fill="#9B9B9B"/>
<path d="M25.9565 18.1823L25.482 19.9157H25.1599L25.6343 18.1823H25.113L25.1892 17.9014H26.5539L26.4777 18.1823H25.9565Z" fill="#9B9B9B"/>
<path d="M26.3024 19.5154L26.5894 19.3959C26.5894 19.4856 26.6128 19.5513 26.6655 19.5991C26.7182 19.6469 26.7944 19.6709 26.8939 19.6709C26.9876 19.6709 27.0696 19.641 27.1399 19.5872C27.2102 19.5334 27.2571 19.4616 27.2805 19.372C27.3098 19.2524 27.2454 19.1449 27.0814 19.0552L27.0286 19.0253C26.8412 18.9177 26.7241 18.8161 26.6772 18.7324C26.6304 18.6428 26.6187 18.5411 26.6538 18.4096C26.7007 18.2483 26.7885 18.1108 26.9232 18.0092C27.0579 17.9076 27.2161 17.8538 27.3918 17.8538C27.5382 17.8538 27.6495 17.8836 27.7315 17.9374C27.8135 17.9972 27.8604 18.0749 27.8662 18.1825L27.5792 18.314C27.5558 18.2483 27.5265 18.2064 27.4855 18.1765C27.4445 18.1466 27.3976 18.1347 27.3332 18.1347C27.2454 18.1347 27.1751 18.1586 27.1106 18.2004C27.0462 18.2483 27.0052 18.308 26.9818 18.3857C26.9466 18.5053 27.0286 18.6189 27.2219 18.7264L27.2571 18.7444C27.4269 18.834 27.5382 18.9237 27.5851 19.0134C27.6319 19.103 27.6378 19.2106 27.6026 19.3421C27.5499 19.5334 27.4504 19.6828 27.3039 19.7964C27.1575 19.9099 26.9818 19.9637 26.7827 19.9637C26.6128 19.9637 26.4898 19.9219 26.4019 19.8442C26.3141 19.7665 26.2789 19.6529 26.2848 19.5035L26.3024 19.5154Z" fill="#9B9B9B"/>
<path d="M30.5954 18.3918C30.5251 18.3141 30.449 18.2544 30.3553 18.2125C30.2674 18.1707 30.162 18.1527 30.0507 18.1527C29.834 18.1527 29.6407 18.2245 29.465 18.3679C29.2893 18.5114 29.1721 18.6907 29.1136 18.9178C29.055 19.133 29.0726 19.3123 29.1663 19.4558C29.26 19.5992 29.4064 19.665 29.6055 19.665C29.7227 19.665 29.8398 19.6411 29.957 19.5992C30.0741 19.5574 30.1913 19.4917 30.3143 19.408L30.2147 19.7786C30.1093 19.8443 30.0038 19.8862 29.8925 19.922C29.7813 19.9519 29.67 19.9698 29.547 19.9698C29.3947 19.9698 29.2658 19.9459 29.1487 19.8921C29.0316 19.8443 28.9437 19.7666 28.8734 19.671C28.8031 19.5753 28.7621 19.4618 28.7446 19.3303C28.727 19.1988 28.7446 19.0613 28.7797 18.9119C28.8207 18.7624 28.8851 18.6249 28.973 18.4934C29.0608 18.3619 29.1663 18.2484 29.2893 18.1527C29.4123 18.0571 29.547 17.9794 29.6875 17.9256C29.8281 17.8718 29.9745 17.8479 30.121 17.8479C30.2381 17.8479 30.3435 17.8658 30.4373 17.9017C30.531 17.9376 30.6188 17.9854 30.7008 18.0571L30.5954 18.3859V18.3918Z" fill="#9B9B9B"/>
<path d="M32.5402 18.9182C32.5694 18.8166 32.5753 18.721 32.5636 18.6313C32.5519 18.5416 32.5226 18.458 32.4757 18.3862C32.4289 18.3145 32.3644 18.2607 32.2883 18.2248C32.2122 18.189 32.1243 18.1651 32.0247 18.1651C31.9252 18.1651 31.8314 18.183 31.7319 18.2189C31.6323 18.2547 31.5386 18.3085 31.4507 18.3803C31.3629 18.452 31.2867 18.5297 31.2282 18.6253C31.1637 18.715 31.1227 18.8166 31.0935 18.9182C31.0642 19.0198 31.0583 19.1155 31.07 19.2051C31.0817 19.2948 31.111 19.3785 31.1579 19.4502C31.2047 19.5219 31.2692 19.5757 31.3453 19.6116C31.4215 19.6474 31.5093 19.6654 31.6089 19.6654C31.7084 19.6654 31.8022 19.6474 31.8959 19.6116C31.9954 19.5757 32.0833 19.5159 32.177 19.4502C32.2649 19.3785 32.341 19.2948 32.3996 19.2051C32.4582 19.1155 32.505 19.0198 32.5343 18.9182H32.5402ZM32.874 18.9182C32.833 19.0617 32.7744 19.1991 32.6866 19.3247C32.5987 19.4502 32.4933 19.5638 32.3644 19.6654C32.2356 19.767 32.1009 19.8387 31.9603 19.8925C31.8197 19.9463 31.6792 19.9702 31.5386 19.9702C31.398 19.9702 31.2692 19.9463 31.152 19.8925C31.0349 19.8387 30.947 19.761 30.8709 19.6654C30.7947 19.5638 30.7537 19.4502 30.7362 19.3247C30.7186 19.1991 30.7303 19.0617 30.7713 18.9182C30.8123 18.7748 30.8709 18.6373 30.9587 18.5118C31.0466 18.3862 31.152 18.2727 31.2809 18.1711C31.4097 18.0694 31.5445 17.9977 31.685 17.9439C31.8256 17.8901 31.972 17.8662 32.1126 17.8662C32.2532 17.8662 32.382 17.8901 32.4933 17.9439C32.6046 17.9977 32.6983 18.0754 32.7744 18.1711C32.8447 18.2727 32.8916 18.3862 32.9091 18.5177C32.9267 18.6433 32.915 18.7807 32.8799 18.9242L32.874 18.9182Z" fill="#9B9B9B"/>
<path d="M33.6061 18.7621H33.6646C33.8345 18.7621 33.9516 18.7442 34.0219 18.7023C34.0864 18.6605 34.1332 18.5888 34.1625 18.4871C34.1918 18.3736 34.1859 18.2959 34.1332 18.254C34.0864 18.2122 33.9809 18.1883 33.8228 18.1883H33.7642L33.6061 18.7681V18.7621ZM33.5182 19.0131L33.2722 19.9157H32.9735L33.5241 17.9014H33.9692C34.0981 17.9014 34.2035 17.9133 34.2679 17.9253C34.3323 17.9432 34.3909 17.9731 34.4319 18.0149C34.4788 18.0628 34.5081 18.1285 34.5198 18.2062C34.5315 18.2839 34.5198 18.3676 34.5022 18.4573C34.4553 18.6186 34.3851 18.7442 34.2855 18.8338C34.1859 18.9235 34.0571 18.9773 33.9048 18.9952L34.3323 19.9097H33.9692L33.5592 19.0072H33.5241L33.5182 19.0131Z" fill="#9B9B9B"/>
<path d="M35.2109 18.7442H35.2929C35.4686 18.7442 35.5975 18.7262 35.6619 18.6844C35.7322 18.6426 35.7791 18.5768 35.8083 18.4752C35.8376 18.3676 35.8259 18.2899 35.7791 18.248C35.7263 18.2062 35.6151 18.1823 35.4452 18.1823H35.3632L35.2109 18.7442ZM35.1172 19.0131L34.8712 19.9157H34.5725L35.1231 17.9014H35.6092C35.7556 17.9014 35.8552 17.9073 35.9196 17.9253C35.9841 17.9432 36.0368 17.9671 36.0778 18.003C36.1246 18.0508 36.1598 18.1106 36.1715 18.1943C36.1832 18.272 36.1773 18.3616 36.1539 18.4573C36.1305 18.5529 36.0836 18.6426 36.0309 18.7203C35.9723 18.798 35.9079 18.8637 35.8318 18.9115C35.7732 18.9474 35.7088 18.9713 35.6326 18.9892C35.5624 19.0012 35.4511 19.0131 35.3105 19.0131H35.1289H35.1172Z" fill="#9B9B9B"/>
<path d="M37.9988 18.9182C38.0281 18.8166 38.034 18.721 38.0222 18.6313C38.0105 18.5416 37.9812 18.458 37.9344 18.3862C37.8875 18.3145 37.8231 18.2607 37.747 18.2248C37.6708 18.189 37.583 18.1651 37.4834 18.1651C37.3838 18.1651 37.2901 18.183 37.1905 18.2189C37.091 18.2547 37.0031 18.3085 36.9094 18.3803C36.8215 18.452 36.7454 18.5297 36.6868 18.6253C36.6283 18.715 36.5814 18.8166 36.5521 18.9182C36.5228 19.0198 36.517 19.1155 36.5287 19.2051C36.5404 19.2948 36.5697 19.3785 36.6165 19.4502C36.6634 19.5219 36.7278 19.5757 36.804 19.6116C36.8801 19.6474 36.968 19.6654 37.0675 19.6654C37.1671 19.6654 37.2608 19.6474 37.3545 19.6116C37.4482 19.5757 37.542 19.5159 37.6357 19.4502C37.7235 19.3785 37.7997 19.2948 37.8582 19.2051C37.9168 19.1155 37.9637 19.0198 37.993 18.9182H37.9988ZM38.3327 18.9182C38.2917 19.0617 38.2331 19.1991 38.1452 19.3247C38.0574 19.4502 37.952 19.5638 37.8231 19.6654C37.6942 19.767 37.5595 19.8387 37.419 19.8925C37.2784 19.9463 37.1378 19.9702 36.9973 19.9702C36.8567 19.9702 36.7278 19.9463 36.6107 19.8925C36.4994 19.8387 36.4057 19.761 36.3296 19.6654C36.2593 19.5638 36.2124 19.4502 36.1948 19.3247C36.1773 19.1991 36.189 19.0617 36.2241 18.9182C36.2651 18.7748 36.3237 18.6373 36.4116 18.5118C36.4994 18.3862 36.6048 18.2727 36.7337 18.1711C36.8625 18.0694 36.9973 17.9977 37.1378 17.9439C37.2784 17.8901 37.4248 17.8662 37.5654 17.8662C37.706 17.8662 37.8348 17.8901 37.9461 17.9439C38.0574 17.9977 38.1511 18.0754 38.2272 18.1711C38.2975 18.2727 38.3444 18.3862 38.3619 18.5177C38.3795 18.6433 38.3678 18.7807 38.3327 18.9242V18.9182Z" fill="#9B9B9B"/>
<path d="M38.9536 18.7621H39.0122C39.182 18.7621 39.2992 18.7442 39.3636 18.7023C39.428 18.6605 39.4807 18.5888 39.5042 18.4871C39.5335 18.3736 39.5276 18.2959 39.4749 18.254C39.428 18.2122 39.3226 18.1883 39.1645 18.1883H39.1059L38.9477 18.7681L38.9536 18.7621ZM38.8658 19.0131L38.6198 19.9157H38.321L38.8716 17.9014H39.3167C39.4456 17.9014 39.5452 17.9133 39.6155 17.9253C39.6857 17.9432 39.7385 17.9731 39.7794 18.0149C39.8263 18.0628 39.8556 18.1285 39.8732 18.2062C39.8849 18.2839 39.8732 18.3676 39.8556 18.4573C39.8146 18.6186 39.7385 18.7442 39.6389 18.8338C39.5393 18.9235 39.4105 18.9773 39.2582 18.9952L39.6857 19.9097H39.3226L38.9126 19.0072H38.8775L38.8658 19.0131Z" fill="#9B9B9B"/>
<path d="M40.605 19.1273H41.1556L41.0794 18.667L41.0677 18.5654V18.4399L40.9974 18.5594L40.933 18.667L40.605 19.1273ZM41.2786 19.9163L41.1965 19.3962H40.4176L40.0486 19.9163H39.7089L41.2317 17.8242L41.6183 19.9163H41.2786Z" fill="#9B9B9B"/>
<path d="M42.5966 18.1823L42.1222 19.9157H41.8L42.2745 18.1823H41.7473L41.8235 17.9014H43.194L43.1179 18.1823H42.5966Z" fill="#9B9B9B"/>
<path d="M42.9482 19.9157L43.4988 17.9014H43.8209L43.2704 19.9157H42.9482Z" fill="#9B9B9B"/>
<path d="M45.5839 18.9182C45.6131 18.8166 45.619 18.721 45.6073 18.6313C45.5956 18.5416 45.5663 18.458 45.5194 18.3862C45.4726 18.3145 45.4081 18.2607 45.332 18.2248C45.2559 18.189 45.168 18.1651 45.0684 18.1651C44.9689 18.1651 44.8751 18.183 44.7756 18.2189C44.676 18.2547 44.5882 18.3085 44.5003 18.3803C44.4124 18.452 44.3363 18.5297 44.2777 18.6253C44.2192 18.715 44.1723 18.8166 44.143 18.9182C44.1137 19.0198 44.1079 19.1155 44.1196 19.2051C44.1313 19.2948 44.1606 19.3785 44.2074 19.4502C44.2543 19.5219 44.3187 19.5757 44.3949 19.6116C44.471 19.6474 44.5589 19.6654 44.6584 19.6654C44.758 19.6654 44.8517 19.6474 44.9454 19.6116C45.0391 19.5757 45.1329 19.5159 45.2266 19.4502C45.3144 19.3785 45.3906 19.2948 45.4491 19.2051C45.5077 19.1155 45.5546 19.0198 45.5839 18.9182ZM45.9177 18.9182C45.8767 19.0617 45.8181 19.1991 45.7303 19.3247C45.6424 19.4502 45.537 19.5638 45.4081 19.6654C45.2793 19.767 45.1446 19.8387 45.004 19.8925C44.8634 19.9463 44.7229 19.9702 44.5823 19.9702C44.4417 19.9702 44.3129 19.9463 44.1957 19.8925C44.0786 19.8387 43.9907 19.761 43.9146 19.6654C43.8385 19.5638 43.7975 19.4502 43.7799 19.3247C43.7623 19.1991 43.774 19.0617 43.815 18.9182C43.856 18.7748 43.9146 18.6373 44.0024 18.5118C44.0903 18.3862 44.1957 18.2727 44.3246 18.1711C44.4534 18.0694 44.5882 17.9977 44.7287 17.9439C44.8693 17.8901 45.0157 17.8662 45.1563 17.8662C45.2969 17.8662 45.4257 17.8901 45.537 17.9439C45.6483 17.9977 45.742 18.0754 45.8181 18.1711C45.8943 18.2727 45.9353 18.3862 45.9528 18.5177C45.9704 18.6433 45.9587 18.7807 45.9236 18.9242L45.9177 18.9182Z" fill="#9B9B9B"/>
<path d="M45.9 19.9163L46.4682 17.8242L47.3877 19.0555L47.4639 19.1691L47.5341 19.3006L47.9148 17.9019H48.2136L47.6454 19.994L46.7024 18.7447L46.638 18.6371L46.5736 18.5176L46.1929 19.9163H45.9Z" fill="#9B9B9B"/>
<path d="M50.6913 18.9182C50.7206 18.8166 50.7264 18.721 50.7147 18.6313C50.703 18.5416 50.6737 18.458 50.6268 18.3862C50.58 18.3145 50.5156 18.2607 50.4394 18.2248C50.3633 18.189 50.2754 18.1651 50.1759 18.1651C50.0763 18.1651 49.9826 18.183 49.883 18.2189C49.7834 18.2547 49.6956 18.3085 49.6077 18.3803C49.5199 18.452 49.4437 18.5297 49.3852 18.6253C49.3266 18.715 49.2797 18.8166 49.2504 18.9182C49.2212 19.0198 49.2153 19.1155 49.227 19.2051C49.2387 19.2948 49.268 19.3785 49.3149 19.4502C49.3617 19.5219 49.4261 19.5757 49.5023 19.6116C49.5784 19.6474 49.6663 19.6654 49.7659 19.6654C49.8654 19.6654 49.9591 19.6474 50.0529 19.6116C50.1524 19.5757 50.2403 19.5159 50.334 19.4502C50.4219 19.3785 50.498 19.2948 50.5566 19.2051C50.6151 19.1155 50.662 19.0198 50.6913 18.9182ZM51.0251 18.9182C50.9841 19.0617 50.9256 19.1991 50.8377 19.3247C50.7498 19.4502 50.6444 19.5638 50.5156 19.6654C50.3867 19.767 50.252 19.8387 50.1114 19.8925C49.9709 19.9463 49.8303 19.9702 49.6897 19.9702C49.5491 19.9702 49.4203 19.9463 49.3032 19.8925C49.1919 19.8387 49.0982 19.761 49.022 19.6654C48.9517 19.5638 48.9049 19.4502 48.8873 19.3247C48.8697 19.1991 48.8814 19.0617 48.9224 18.9182C48.9634 18.7748 49.022 18.6373 49.1099 18.5118C49.1977 18.3862 49.3032 18.2727 49.432 18.1711C49.5609 18.0694 49.6956 17.9977 49.8361 17.9439C49.9767 17.8901 50.1173 17.8662 50.2637 17.8662C50.4101 17.8662 50.5331 17.8901 50.6444 17.9439C50.7557 17.9977 50.8494 18.0754 50.9256 18.1711C50.9958 18.2727 51.0427 18.3862 51.0603 18.5177C51.0778 18.6433 51.0661 18.7807 51.0251 18.9242V18.9182Z" fill="#9B9B9B"/>
<path d="M51.0071 19.9157L51.5576 17.9014H52.6588L52.5826 18.1823H51.8036L51.6631 18.6844H52.4421L52.3659 18.9713H51.5869L51.3292 19.9157H51.0071Z" fill="#9B9B9B"/>
<path d="M53.2974 19.9157L53.8421 17.9014H54.1642L53.6136 19.9157H53.2974Z" fill="#9B9B9B"/>
<path d="M53.9124 19.9163L54.4805 17.8242L55.4 19.0555L55.4703 19.1691L55.5465 19.3006L55.9272 17.9019H56.22L55.6519 19.994L54.7148 18.7447L54.6445 18.6371L54.5859 18.5176L54.2052 19.9163H53.9124Z" fill="#9B9B9B"/>
<path d="M56.4194 19.6228H56.6888C56.8352 19.6228 56.9524 19.6109 57.0285 19.5929C57.1105 19.575 57.1808 19.5391 57.2511 19.4913C57.3448 19.4256 57.421 19.3479 57.4854 19.2463C57.5498 19.1506 57.5967 19.0371 57.6318 18.9115C57.6669 18.786 57.6787 18.6724 57.6669 18.5708C57.6552 18.4752 57.6201 18.3915 57.5674 18.3317C57.5264 18.2839 57.4678 18.248 57.3975 18.2301C57.3272 18.2122 57.2042 18.2002 57.0402 18.2002H56.806L56.4194 19.6228ZM56.0153 19.9157L56.5658 17.9014H56.9992C57.2804 17.9014 57.4737 17.9133 57.5791 17.9432C57.6845 17.9731 57.7724 18.0209 57.8427 18.0867C57.9305 18.1763 57.9891 18.2899 58.0067 18.4274C58.0301 18.5648 58.0125 18.7262 57.9657 18.9056C57.9188 19.0849 57.8427 19.2403 57.7489 19.3778C57.6494 19.5152 57.5322 19.6288 57.3975 19.7185C57.2921 19.7842 57.1808 19.832 57.0637 19.8619C56.9465 19.8918 56.7708 19.9038 56.5365 19.9038H56.0153V19.9157Z" fill="#9B9B9B"/>
<path d="M57.9014 19.9157L58.4461 17.9014H58.7682L58.2235 19.9157H57.9014Z" fill="#9B9B9B"/>
<path d="M59.3129 19.1273H59.8634L59.7873 18.667L59.7756 18.5654V18.4399L59.7053 18.5594L59.6409 18.667L59.3129 19.1273ZM59.9864 19.9163L59.9044 19.3962H59.1196L58.7506 19.9163H58.4167L59.9396 17.8242L60.3261 19.9163H59.9864Z" fill="#9B9B9B"/>
</g>
<defs>
<clipPath id="clip0_1506_3188">
<rect width="64" height="20" fill="white" transform="translate(-0.00170898)"/>
</clipPath>
</defs>
</svg>
