<svg width="60" height="28" viewBox="0 0 60 28" fill="none" xmlns="http://www.w3.org/2000/svg">
<g id="PCI DSS">
<g id="Page-1">
<g id="Group">
<g id="Group_2">
<path id="Vector" d="M40.9595 15.9842L41.5594 16.1627C41.5194 16.3312 41.4594 16.47 41.3695 16.5791C41.2795 16.6882 41.1795 16.7774 41.0495 16.827C40.9195 16.8865 40.7596 16.9162 40.5596 16.9162C40.3196 16.9162 40.1297 16.8865 39.9697 16.8171C39.8197 16.7476 39.6897 16.6287 39.5798 16.4502C39.4698 16.2817 39.4098 16.0536 39.4098 15.7859C39.4098 15.429 39.5098 15.1514 39.6997 14.9531C39.8897 14.7548 40.1697 14.6655 40.5196 14.6655C40.7996 14.6655 41.0095 14.725 41.1695 14.8341C41.3295 14.9431 41.4494 15.1117 41.5194 15.3497L40.9195 15.4785C40.8995 15.4091 40.8795 15.3596 40.8495 15.3298C40.8096 15.2802 40.7696 15.2406 40.7096 15.2108C40.6496 15.1811 40.5896 15.1712 40.5296 15.1712C40.3796 15.1712 40.2596 15.2307 40.1797 15.3596C40.1197 15.4488 40.0897 15.5975 40.0897 15.7859C40.0897 16.0239 40.1297 16.1924 40.1997 16.2816C40.2696 16.3709 40.3796 16.4205 40.5096 16.4205C40.6396 16.4205 40.7396 16.3808 40.7996 16.3114C40.8795 16.2222 40.9295 16.123 40.9595 15.9842Z" fill="#9B9B9B"/>
<path id="Vector_2" d="M41.7992 15.7853C41.7992 15.4284 41.8992 15.1508 42.0991 14.9525C42.2991 14.7542 42.5791 14.655 42.939 14.655C43.2989 14.655 43.5889 14.7542 43.7889 14.9426C43.9888 15.1409 44.0888 15.4086 44.0888 15.7655C44.0888 16.0233 44.0488 16.2315 43.9588 16.3901C43.8689 16.5488 43.7489 16.6777 43.5789 16.7669C43.4189 16.8561 43.209 16.9057 42.969 16.9057C42.729 16.9057 42.5191 16.866 42.3491 16.7867C42.1891 16.7074 42.0592 16.5884 41.9492 16.41C41.8392 16.2315 41.7992 16.0431 41.7992 15.7853ZM42.4791 15.7853C42.4791 16.0034 42.5191 16.1621 42.5991 16.2612C42.679 16.3604 42.789 16.41 42.939 16.41C43.089 16.41 43.199 16.3604 43.2789 16.2712C43.3589 16.172 43.3989 16.0035 43.3989 15.7655C43.3989 15.5573 43.3589 15.4086 43.2689 15.3193C43.189 15.2202 43.069 15.1805 42.929 15.1805C42.789 15.1805 42.679 15.2301 42.5991 15.3292C42.5191 15.4086 42.4791 15.5672 42.4791 15.7853Z" fill="#9B9B9B"/>
<path id="Vector_3" d="M44.4391 14.6953H45.3289L45.6689 16.0239L46.0088 14.6953H46.8987V16.8766H46.3387V15.2109L45.9088 16.8766H45.4089L44.979 15.2109V16.8766H44.4191V14.6953H44.4391Z" fill="#9B9B9B"/>
<path id="Vector_4" d="M47.3381 14.6953H48.4679C48.7179 14.6953 48.8979 14.7548 49.0179 14.8738C49.1378 14.9928 49.1978 15.1514 49.1978 15.3695C49.1978 15.5876 49.1278 15.7661 48.9979 15.8851C48.8679 16.014 48.6579 16.0735 48.388 16.0735H48.018V16.8865H47.3381V14.6953ZM48.018 15.6273H48.188C48.318 15.6273 48.408 15.6075 48.4679 15.5579C48.5179 15.5083 48.5479 15.4588 48.5479 15.3894C48.5479 15.3199 48.5279 15.2605 48.4779 15.2109C48.428 15.1613 48.348 15.1415 48.218 15.1415H48.028V15.6273H48.018Z" fill="#9B9B9B"/>
<path id="Vector_5" d="M49.5582 14.6953H50.2381V16.3412H51.2979V16.8766H49.5582V14.6953Z" fill="#9B9B9B"/>
<path id="Vector_6" d="M51.6378 14.6953H52.3177V16.8766H51.6378V14.6953Z" fill="#9B9B9B"/>
<path id="Vector_7" d="M54.1568 16.5091H53.3869L53.2769 16.8661H52.587L53.4169 14.6848H54.1568L54.9866 16.8661H54.2768L54.1568 16.5091ZM54.0168 16.0432L53.7768 15.2599L53.5369 16.0432H54.0168Z" fill="#9B9B9B"/>
<path id="Vector_8" d="M55.1968 14.6953H55.8267L56.6565 15.9049V14.6953H57.2964V16.8766H56.6565L55.8367 15.6769V16.8766H55.1968V14.6953Z" fill="#9B9B9B"/>
<path id="Vector_9" d="M57.5964 14.6953H59.6661V15.2307H58.9762V16.8766H58.2963V15.2307H57.6064V14.6953H57.5964Z" fill="#9B9B9B"/>
</g>
<g id="Rectangle-3-+-Letters">
<path id="Rectangle-3" d="M32.7812 18.0177L34.7509 17.403L34.111 15.995C33.6411 16.58 33.1712 17.3336 32.7812 18.0177ZM32.1114 11.5829L28.252 3.05615L-0.0032959 4.64253L7.8254 25.8207L22.8929 21.1111C21.9331 19.7429 21.5831 18.1168 22.6929 17.3236C23.9327 16.4313 25.8024 17.4624 26.9922 18.9199C28.142 17.0163 31.3715 12.5843 32.1114 11.5829Z" fill="#9B9B9B"/>
<g id="Letters">
<path id="Oval-1" d="M27.3723 9.21849C28.5521 9.21849 29.512 8.32616 29.512 7.21569C29.512 6.10523 28.5521 5.21289 27.3723 5.21289C26.1925 5.21289 25.2327 6.10523 25.2327 7.21569C25.2327 8.31624 26.1925 9.21849 27.3723 9.21849ZM25.6226 10.0811H29.122V19.1532H25.6226V10.0811Z" fill="black"/>
<path id="Path-3" d="M23.8933 12.7283C23.9233 12.7382 23.9433 12.7283 23.9433 12.6986V10.3983C23.9433 10.3686 23.9233 10.3389 23.8933 10.319C23.8933 10.319 23.4334 10.0216 22.0336 9.94226C21.9636 9.9026 20.7338 9.89268 20.4039 9.94226C15.3047 10.3488 15.1147 14.0073 15.1147 14.166V15.0583C15.1147 15.1674 15.1147 18.9053 20.4039 19.2325C20.9238 19.2721 21.9336 19.2325 22.0336 19.2325C23.2534 19.2325 24.0933 18.8656 24.0933 18.8656C24.1232 18.8557 24.1432 18.826 24.1432 18.7962V16.6447C24.1432 16.615 24.1232 16.605 24.1032 16.6249C24.1032 16.6249 23.7233 16.9223 22.0636 17.0909C21.5937 17.1404 21.3637 17.1206 21.1937 17.0909C18.8341 16.6943 18.7241 14.9889 18.7241 14.9889C18.7241 14.9592 18.7141 14.9096 18.7141 14.8898V14.2354C18.7141 14.2056 18.7141 14.1561 18.7241 14.1362C18.7241 14.1362 18.8841 12.302 21.1937 12.1037H22.0636C23.0734 12.2326 23.8933 12.7283 23.8933 12.7283Z" fill="black"/>
<path id="Path-1" d="M5.39624 19.1236C5.39624 19.1534 5.41624 19.1732 5.44623 19.1732H8.85566C8.88566 19.1732 8.90566 19.1534 8.90566 19.1236V16.4863C8.90566 16.4565 8.92565 16.4367 8.95565 16.4367C8.95565 16.4367 14.4047 16.8234 14.4047 13.2044C14.4047 10.339 10.9853 10.0317 9.8655 10.0813H5.44623C5.41624 10.0813 5.39624 10.1011 5.39624 10.1308V19.1236ZM8.84567 14.424V12.0543H9.68553C9.68553 12.0543 10.8953 12.1039 10.9953 12.9268C11.0153 12.9863 11.0153 13.3928 10.9953 13.4126C10.8353 14.3744 9.78551 14.424 9.78551 14.424H8.84567Z" fill="black"/>
</g>
<path id="Path-7" d="M27.4723 23.5304C27.7522 23.5304 27.9722 23.5304 28.3321 23.3717C29.5719 22.7273 33.7612 12.5844 38.1805 9.46119C38.2105 9.44136 38.2405 9.41162 38.2605 9.38187C38.2905 9.34221 38.2905 9.30255 38.2905 9.30255C38.2905 9.30255 38.2905 9.09434 37.6406 9.09434C33.7112 8.98528 29.6219 17.165 27.4723 20.3973C27.4423 20.4369 27.3023 20.3973 27.3023 20.3973C27.3023 20.3973 25.8625 18.7118 24.6127 18.0673C24.5827 18.0574 24.4428 18.0078 24.2928 18.0177C24.1928 18.0177 23.6129 18.1367 23.3429 18.4143C23.023 18.7514 23.033 18.9398 23.033 19.3463C23.033 19.3761 23.053 19.5149 23.093 19.5843C23.4029 20.1197 24.7927 22.0233 25.9425 23.0743C26.1125 23.2032 26.3824 23.5304 27.4723 23.5304Z" fill="#9B9B9B"/>
</g>
<g id="Group_3">
<path id="Vector_10" d="M39.3403 6.39673H42.6098C43.2597 6.39673 43.7796 6.48596 44.1695 6.65451C44.5695 6.83298 44.8994 7.08085 45.1494 7.39813C45.4093 7.72532 45.5993 8.10208 45.7093 8.52842C45.8293 8.95476 45.8892 9.41085 45.8892 9.89667C45.8892 10.6502 45.7993 11.2352 45.6293 11.6516C45.4593 12.068 45.2194 12.415 44.9094 12.7026C44.5995 12.9802 44.2695 13.1686 43.9196 13.2677C43.4396 13.3966 42.9997 13.4561 42.6098 13.4561H39.3403V6.39673ZM41.54 7.99302V11.8499H42.0799C42.5398 11.8499 42.8697 11.8003 43.0597 11.7012C43.2497 11.602 43.4097 11.4236 43.5196 11.1757C43.6296 10.9278 43.6896 10.5114 43.6896 9.94625C43.6896 9.19272 43.5696 8.68706 43.3197 8.40944C43.0697 8.13183 42.6698 7.99302 42.0899 7.99302H41.54Z" fill="#9B9B9B"/>
<path id="Vector_11" d="M46.4989 11.1266L48.5986 10.9977C48.6485 11.3348 48.7385 11.5926 48.8785 11.7711C49.1085 12.0586 49.4284 12.1974 49.8483 12.1974C50.1583 12.1974 50.4082 12.128 50.5782 11.9793C50.7482 11.8305 50.8382 11.662 50.8382 11.4736C50.8382 11.2951 50.7582 11.1266 50.5982 10.9779C50.4382 10.8291 50.0583 10.7003 49.4684 10.5714C48.4986 10.3532 47.8187 10.0657 47.3988 9.70877C46.9788 9.35183 46.7789 8.89575 46.7789 8.34052C46.7789 7.97367 46.8888 7.63656 47.0988 7.30937C47.3088 6.98218 47.6287 6.73431 48.0586 6.54593C48.4886 6.35754 49.0685 6.26831 49.8084 6.26831C50.7182 6.26831 51.4181 6.43686 51.888 6.77397C52.3679 7.11107 52.6479 7.64648 52.7379 8.38018L50.6582 8.49915C50.5982 8.18188 50.4882 7.95384 50.3083 7.80511C50.1283 7.65639 49.8883 7.58699 49.5784 7.58699C49.3184 7.58699 49.1285 7.63656 48.9985 7.74562C48.8685 7.85469 48.8085 7.98358 48.8085 8.14222C48.8085 8.25128 48.8585 8.36035 48.9685 8.44958C49.0685 8.53881 49.3184 8.62805 49.7084 8.70737C50.6682 8.91558 51.3581 9.12379 51.778 9.332C52.198 9.54021 52.4979 9.80792 52.6879 10.1153C52.8778 10.4226 52.9678 10.7796 52.9678 11.1663C52.9678 11.6223 52.8378 12.0388 52.5879 12.4155C52.3379 12.8022 51.978 13.0897 51.5281 13.288C51.0781 13.4863 50.4982 13.5855 49.8084 13.5855C48.5986 13.5855 47.7587 13.3574 47.2888 12.8914C46.8288 12.4254 46.5689 11.8405 46.4989 11.1266Z" fill="#9B9B9B"/>
</g>
<g id="Group_4">
<path id="Vector_12" d="M53.5273 11.1266L55.627 10.9977C55.677 11.3348 55.767 11.5926 55.9069 11.7711C56.1369 12.0586 56.4569 12.1974 56.8768 12.1974C57.1867 12.1974 57.4367 12.128 57.6067 11.9793C57.7766 11.8305 57.8666 11.662 57.8666 11.4736C57.8666 11.2951 57.7866 11.1266 57.6267 10.9779C57.4667 10.8291 57.0867 10.7003 56.4968 10.5714C55.527 10.3532 54.8471 10.0657 54.4272 9.70877C54.0173 9.35183 53.8073 8.89575 53.8073 8.34052C53.8073 7.97367 53.9173 7.63656 54.1272 7.30937C54.3372 6.98218 54.6572 6.73431 55.0871 6.54593C55.517 6.35754 56.0969 6.26831 56.8368 6.26831C57.7466 6.26831 58.4465 6.43686 58.9164 6.77397C59.3964 7.11107 59.6763 7.64648 59.7663 8.38018L57.6866 8.49915C57.6267 8.18188 57.5167 7.95384 57.3367 7.80511C57.1567 7.65639 56.9168 7.58699 56.6068 7.58699C56.3469 7.58699 56.1569 7.63656 56.0269 7.74562C55.8969 7.85469 55.837 7.98358 55.837 8.14222C55.837 8.25128 55.8869 8.36035 55.9969 8.44958C56.0969 8.53881 56.3469 8.62805 56.7368 8.70737C57.6966 8.91558 58.3865 9.12379 58.8065 9.332C59.2264 9.54021 59.5263 9.80792 59.7163 10.1153C59.9063 10.4226 59.9963 10.7796 59.9963 11.1663C59.9963 11.6223 59.8663 12.0388 59.6163 12.4155C59.3664 12.8022 59.0064 13.0897 58.5565 13.288C58.1066 13.4863 57.5267 13.5855 56.8368 13.5855C55.627 13.5855 54.7871 13.3574 54.3172 12.8914C53.8473 12.4254 53.5873 11.8405 53.5273 11.1266Z" fill="#9B9B9B"/>
</g>
</g>
</g>
</g>
</svg>
