<svg width="52" height="24" viewBox="0 0 52 24" fill="none" xmlns="http://www.w3.org/2000/svg">
<g id="PCI DSS">
<g id="Page-1">
<g id="Group">
<g id="Group_2">
<path id="Vector" d="M35.1937 13.7021L35.7037 13.8551C35.6697 13.9995 35.6187 14.1185 35.5422 14.212C35.4657 14.3055 35.3807 14.382 35.2702 14.4245C35.1598 14.4755 35.0238 14.501 34.8538 14.501C34.6498 14.501 34.4884 14.4755 34.3524 14.416C34.2249 14.3565 34.1144 14.2545 34.0209 14.1015C33.9275 13.957 33.8765 13.7616 33.8765 13.5321C33.8765 13.2262 33.9615 12.9882 34.1229 12.8182C34.2844 12.6483 34.5224 12.5718 34.8198 12.5718C35.0578 12.5718 35.2362 12.6228 35.3722 12.7163C35.5082 12.8097 35.6102 12.9542 35.6697 13.1582L35.1597 13.2687C35.1428 13.2092 35.1258 13.1667 35.1003 13.1412C35.0663 13.0987 35.0323 13.0647 34.9813 13.0392C34.9303 13.0137 34.8793 13.0052 34.8283 13.0052C34.7008 13.0052 34.5988 13.0562 34.5309 13.1667C34.4799 13.2432 34.4544 13.3706 34.4544 13.5321C34.4544 13.7361 34.4884 13.8806 34.5479 13.957C34.6073 14.0335 34.7008 14.076 34.8113 14.076C34.9218 14.076 35.0068 14.042 35.0578 13.9825C35.1258 13.9061 35.1682 13.8211 35.1937 13.7021Z" fill="#FFCA10"/>
<path id="Vector_2" d="M35.9067 13.5321C35.9067 13.2261 35.9917 12.9882 36.1617 12.8182C36.3317 12.6482 36.5696 12.5632 36.8756 12.5632C37.1815 12.5632 37.428 12.6482 37.598 12.8097C37.7679 12.9797 37.8529 13.2091 37.8529 13.5151C37.8529 13.736 37.8189 13.9145 37.7424 14.0505C37.6659 14.1865 37.564 14.2969 37.4195 14.3734C37.2835 14.4499 37.105 14.4924 36.9011 14.4924C36.6971 14.4924 36.5186 14.4584 36.3742 14.3904C36.2382 14.3224 36.1277 14.2205 36.0342 14.0675C35.9407 13.9145 35.9067 13.753 35.9067 13.5321ZM36.4846 13.5321C36.4846 13.719 36.5186 13.855 36.5866 13.94C36.6546 14.025 36.7481 14.0675 36.8756 14.0675C37.0031 14.0675 37.0965 14.025 37.1645 13.9485C37.2325 13.8635 37.2665 13.719 37.2665 13.5151C37.2665 13.3366 37.2325 13.2091 37.156 13.1326C37.088 13.0477 36.9861 13.0137 36.8671 13.0137C36.7481 13.0137 36.6546 13.0562 36.5866 13.1411C36.5186 13.2091 36.4846 13.3451 36.4846 13.5321Z" fill="#FFCA10"/>
<path id="Vector_3" d="M38.1503 12.5974H38.9067L39.1956 13.7362L39.4846 12.5974H40.241V14.467H39.765V13.0393L39.3996 14.467H38.9747L38.6092 13.0393V14.467H38.1333V12.5974H38.1503Z" fill="#FFCA10"/>
<path id="Vector_4" d="M40.6157 12.5974H41.5761C41.7885 12.5974 41.9415 12.6483 42.0435 12.7503C42.1455 12.8523 42.1965 12.9883 42.1965 13.1753C42.1965 13.3622 42.137 13.5152 42.0265 13.6172C41.916 13.7277 41.7375 13.7787 41.5081 13.7787H41.1936V14.4755H40.6157V12.5974ZM41.1936 13.3962H41.3381C41.4486 13.3962 41.5251 13.3792 41.5761 13.3367C41.6186 13.2942 41.6441 13.2517 41.6441 13.1923C41.6441 13.1328 41.6271 13.0818 41.5846 13.0393C41.5421 12.9968 41.4741 12.9798 41.3636 12.9798H41.2021V13.3962H41.1936Z" fill="#FFCA10"/>
<path id="Vector_5" d="M42.5024 12.5974H43.0803V14.0081H43.9812V14.467H42.5024V12.5974Z" fill="#FFCA10"/>
<path id="Vector_6" d="M44.2695 12.5974H44.8474V14.467H44.2695V12.5974Z" fill="#FFCA10"/>
<path id="Vector_7" d="M46.4114 14.1525H45.757L45.6636 14.4585H45.0771L45.7825 12.5888H46.4114L47.1168 14.4585H46.5134L46.4114 14.1525ZM46.2924 13.7531L46.0885 13.0817L45.8845 13.7531H46.2924Z" fill="#FFCA10"/>
<path id="Vector_8" d="M47.2954 12.5974H47.8308L48.5362 13.6342V12.5974H49.0801V14.467H48.5362L47.8393 13.4387V14.467H47.2954V12.5974Z" fill="#FFCA10"/>
<path id="Vector_9" d="M49.3354 12.5974H51.0947V13.0563H50.5083V14.467H49.9304V13.0563H49.344V12.5974H49.3354Z" fill="#FFCA10"/>
</g>
<g id="Rectangle-3-+-Letters">
<path id="Rectangle-3" d="M28.2414 15.4442L29.9156 14.9173L29.3717 13.7105C28.9722 14.2119 28.5728 14.8578 28.2414 15.4442ZM27.672 9.92859L24.3915 2.61981L0.374512 3.97959L7.0289 22.1326L19.8363 18.0957C19.0204 16.9229 18.723 15.5292 19.6663 14.8493C20.7201 14.0844 22.3094 14.9683 23.3207 16.2175C24.298 14.5858 27.0431 10.787 27.672 9.92859Z" fill="#FFCA10"/>
<g id="Letters">
<path id="Oval-1" d="M23.6439 7.90181C24.6467 7.90181 25.4626 7.13694 25.4626 6.1851C25.4626 5.23326 24.6467 4.46838 23.6439 4.46838C22.6411 4.46838 21.8252 5.23326 21.8252 6.1851C21.8252 7.12844 22.6411 7.90181 23.6439 7.90181ZM22.1566 8.64119H25.1311V16.4174H22.1566V8.64119Z" fill="black"/>
<path id="Path-3" d="M20.6864 10.9101C20.7119 10.9186 20.7289 10.9101 20.7289 10.8846V8.91293C20.7289 8.88744 20.7119 8.86194 20.6864 8.84494C20.6864 8.84494 20.2954 8.58998 19.1056 8.522C19.0461 8.488 18.0008 8.4795 17.7204 8.522C13.3861 8.87044 13.2246 12.0064 13.2246 12.1424V12.9073C13.2246 13.0007 13.2246 16.2047 17.7204 16.4852C18.1623 16.5192 19.0206 16.4852 19.1056 16.4852C20.1425 16.4852 20.8563 16.1707 20.8563 16.1707C20.8818 16.1622 20.8988 16.1367 20.8988 16.1112V14.267C20.8988 14.2415 20.8818 14.233 20.8648 14.25C20.8648 14.25 20.5419 14.505 19.1311 14.6495C18.7317 14.692 18.5362 14.675 18.3917 14.6495C16.3861 14.3095 16.2926 12.8478 16.2926 12.8478C16.2926 12.8223 16.2841 12.7798 16.2841 12.7628V12.2019C16.2841 12.1764 16.2841 12.1339 16.2926 12.1169C16.2926 12.1169 16.4286 10.5447 18.3917 10.3747H19.1311C19.9895 10.4852 20.6864 10.9101 20.6864 10.9101Z" fill="black"/>
<path id="Path-1" d="M4.96387 16.3917C4.96387 16.4172 4.98086 16.4342 5.00636 16.4342H7.90438C7.92987 16.4342 7.94687 16.4172 7.94687 16.3917V14.1311C7.94687 14.1056 7.96387 14.0886 7.98936 14.0886C7.98936 14.0886 12.6211 14.4201 12.6211 11.3181C12.6211 8.86199 9.71458 8.59853 8.76273 8.64102H5.00636C4.98086 8.64102 4.96387 8.65802 4.96387 8.68352V16.3917ZM7.89588 12.3634V10.3322H8.60976C8.60976 10.3322 9.63809 10.3747 9.72307 11.0801C9.74007 11.1311 9.74007 11.4796 9.72307 11.4965C9.5871 12.3209 8.69475 12.3634 8.69475 12.3634H7.89588Z" fill="black"/>
</g>
<path id="Path-7" d="M23.729 20.1691C23.9669 20.1691 24.1539 20.1691 24.4598 20.0331C25.5137 19.4807 29.0746 10.7866 32.831 8.10956C32.8564 8.09257 32.8819 8.06707 32.8989 8.04157C32.9244 8.00758 32.9244 7.97359 32.9244 7.97359C32.9244 7.97359 32.9244 7.79512 32.372 7.79512C29.0321 7.70163 25.5562 14.713 23.729 17.4835C23.7035 17.5175 23.5845 17.4835 23.5845 17.4835C23.5845 17.4835 22.3607 16.0387 21.2984 15.4863C21.2729 15.4778 21.1539 15.4353 21.0264 15.4438C20.9414 15.4438 20.4485 15.5458 20.2191 15.7838C19.9471 16.0727 19.9556 16.2342 19.9556 16.5827C19.9556 16.6081 19.9726 16.7271 20.0066 16.7866C20.27 17.2455 21.4513 18.8773 22.4287 19.7781C22.5732 19.8886 22.8026 20.1691 23.729 20.1691Z" fill="#FFCA10"/>
</g>
<g id="Group_3">
<path id="Vector_10" d="M33.8154 5.4845H36.5945C37.1469 5.4845 37.5888 5.56098 37.9202 5.70546C38.2602 5.85843 38.5406 6.0709 38.7531 6.34285C38.9741 6.62331 39.1355 6.94625 39.229 7.31169C39.331 7.67713 39.382 8.06807 39.382 8.4845C39.382 9.13039 39.3055 9.63181 39.161 9.98875C39.0166 10.3457 38.8126 10.6431 38.5491 10.8896C38.2857 11.1276 38.0052 11.289 37.7078 11.374C37.2998 11.4845 36.9259 11.5355 36.5945 11.5355H33.8154V5.4845ZM35.6851 6.85277V10.1587H36.144C36.535 10.1587 36.8154 10.1162 36.9769 10.0312C37.1384 9.94625 37.2744 9.79328 37.3678 9.58081C37.4613 9.36835 37.5123 9.01141 37.5123 8.52699C37.5123 7.8811 37.4103 7.44767 37.1979 7.20971C36.9854 6.97175 36.6455 6.85277 36.1525 6.85277H35.6851Z" fill="#FFCA10"/>
<path id="Vector_11" d="M39.9009 9.53802L41.6856 9.42754C41.7281 9.71649 41.8046 9.93746 41.9235 10.0904C42.119 10.3369 42.391 10.4559 42.7479 10.4559C43.0114 10.4559 43.2238 10.3964 43.3683 10.2689C43.5128 10.1414 43.5893 9.99695 43.5893 9.83547C43.5893 9.6825 43.5213 9.53802 43.3853 9.41055C43.2493 9.28307 42.9264 9.17259 42.425 9.0621C41.6006 8.87513 41.0227 8.62868 40.6658 8.32273C40.3088 8.01678 40.1388 7.62584 40.1388 7.14992C40.1388 6.83547 40.2323 6.54652 40.4108 6.26607C40.5893 5.98562 40.8612 5.77315 41.2267 5.61168C41.5921 5.45021 42.085 5.37372 42.7139 5.37372C43.4873 5.37372 44.0822 5.51819 44.4816 5.80715C44.8895 6.0961 45.1275 6.55502 45.204 7.18392L43.4363 7.2859C43.3853 7.01394 43.2918 6.81848 43.1388 6.691C42.9859 6.56352 42.7819 6.50403 42.5184 6.50403C42.2975 6.50403 42.136 6.54652 42.0255 6.64001C41.915 6.73349 41.8641 6.84397 41.8641 6.97995C41.8641 7.07343 41.9065 7.16692 42 7.24341C42.085 7.31989 42.2975 7.39638 42.6289 7.46437C43.4448 7.64284 44.0312 7.82131 44.3881 7.99978C44.7451 8.17825 45 8.40771 45.1615 8.67117C45.323 8.93462 45.3995 9.24057 45.3995 9.57202C45.3995 9.96295 45.289 10.3199 45.0765 10.6428C44.8641 10.9743 44.5581 11.2207 44.1757 11.3907C43.7932 11.5607 43.3003 11.6457 42.7139 11.6457C41.6856 11.6457 40.9717 11.4502 40.5723 11.0508C40.1813 10.6513 39.9604 10.1499 39.9009 9.53802Z" fill="#FFCA10"/>
</g>
<g id="Group_4">
<path id="Vector_12" d="M45.876 9.53802L47.6607 9.42754C47.7032 9.71649 47.7797 9.93746 47.8986 10.0904C48.0941 10.3369 48.3661 10.4559 48.723 10.4559C48.9865 10.4559 49.1989 10.3964 49.3434 10.2689C49.4879 10.1414 49.5644 9.99695 49.5644 9.83547C49.5644 9.6825 49.4964 9.53802 49.3604 9.41055C49.2244 9.28307 48.9015 9.17259 48.4001 9.0621C47.5757 8.87513 46.9978 8.62868 46.6408 8.32273C46.2924 8.01678 46.1139 7.62584 46.1139 7.14992C46.1139 6.83547 46.2074 6.54652 46.3859 6.26607C46.5644 5.98562 46.8363 5.77315 47.2018 5.61168C47.5672 5.45021 48.0601 5.37372 48.689 5.37372C49.4624 5.37372 50.0573 5.51819 50.4567 5.80715C50.8646 6.0961 51.1026 6.55502 51.1791 7.18392L49.4114 7.2859C49.3604 7.01394 49.2669 6.81848 49.1139 6.691C48.961 6.56352 48.757 6.50403 48.4935 6.50403C48.2726 6.50403 48.1111 6.54652 48.0006 6.64001C47.8901 6.73349 47.8391 6.84397 47.8391 6.97995C47.8391 7.07343 47.8816 7.16692 47.9751 7.24341C48.0601 7.31989 48.2726 7.39638 48.604 7.46437C49.4199 7.64284 50.0063 7.82131 50.3632 7.99978C50.7202 8.17825 50.9751 8.40771 51.1366 8.67117C51.2981 8.93462 51.3746 9.24057 51.3746 9.57202C51.3746 9.96295 51.2641 10.3199 51.0516 10.6428C50.8391 10.9743 50.5332 11.2207 50.1508 11.3907C49.7683 11.5607 49.2754 11.6457 48.689 11.6457C47.6607 11.6457 46.9468 11.4502 46.5474 11.0508C46.1479 10.6513 45.927 10.1499 45.876 9.53802Z" fill="#FFCA10"/>
</g>
</g>
</g>
</g>
</svg>
