<svg width="54" height="14" viewBox="0 0 54 14" fill="none" xmlns="http://www.w3.org/2000/svg">
<g id="Group 14545">
<path id="Vector" d="M30.438 2.83894C30.6925 0.835981 29.157 0.000732422 27.2414 0.000732422H22.2066L19.2352 10.7715H22.4342L23.3339 7.45031L25.883 7.46548C25.883 7.46548 29.8303 7.63113 30.438 2.83778V2.83894ZM27.1487 3.90867C26.7323 5.06355 25.585 4.92707 25.585 4.92707H24.019L24.6372 2.63947C24.6372 2.63947 25.6284 2.64413 26.283 2.64413C27.0842 2.64413 27.3751 3.27757 27.1487 3.9075V3.90867Z" fill="#9B9B9B"/>
<path id="Vector_2" d="M12.163 2.94604H15.0804L13.8781 7.54341C13.8781 7.54341 13.5789 8.56881 14.5432 8.64813C15.3045 8.71113 15.8723 7.80705 16.0576 7.19461C16.3016 6.39086 17.2506 2.94604 17.2506 2.94604H20.256L17.9685 10.7713H15.3444L15.667 9.6537C15.667 9.6537 14.3273 11.2775 12.339 11.0827C10.57 10.9101 10.4187 9.63387 10.7249 8.0427C10.875 7.26111 12.163 2.94604 12.163 2.94604Z" fill="#9B9B9B"/>
<path id="Vector_3" d="M37.5354 6.9121C37.9202 5.61023 38.4058 4.37719 38.014 3.69476C37.4146 2.64953 36.333 2.55737 34.7494 2.55737C32.9992 2.55737 30.8396 2.88751 30.1357 5.20194H33.0484C33.0484 5.20194 33.3135 4.33053 34.4068 4.38535C35.3746 4.43435 35.3218 5.09578 34.9652 5.46208C34.34 6.10368 32.6121 5.74788 30.6988 6.40815C29.0272 6.98443 28.4418 9.17054 28.8055 10.0431C29.1574 10.8889 29.8131 10.9974 30.6964 11.0837C32.117 11.2225 33.2056 10.4351 33.7124 9.97312C33.7124 10.4864 33.7265 10.7734 33.7265 10.7734H36.7917L36.7846 10.4864C36.7846 10.4864 36.5113 10.4141 36.5418 10.0326C36.5641 9.75264 37.0931 8.40878 37.5354 6.91326V6.9121ZM33.1282 9.17754C32.6285 9.30352 32.022 9.37235 31.9024 8.9209C31.5727 7.68319 34.4866 7.32156 34.4866 7.32156C34.5065 8.44961 33.513 9.08188 33.1294 9.1787L33.1282 9.17754Z" fill="#9B9B9B"/>
<path id="Vector_4" d="M11.437 2.50881C11.6916 0.505848 9.91906 0.000732422 8.00346 0.000732422H2.96868L-0.00268555 10.7715H3.19625L4.1957 7.11435L5.99048 7.12834C5.99048 7.12834 6.73068 7.08518 6.74593 7.77695C6.76118 8.5142 6.19577 9.86973 6.23213 10.7703H9.51905L9.51201 10.4833C9.51201 10.4833 9.23869 10.411 9.26919 10.0295C9.28209 9.8709 9.45805 9.36812 9.68915 8.69035C9.82874 8.39172 10.0387 7.68362 10.0188 7.10618C9.99414 6.38525 9.54017 6.05162 8.88443 5.81714C10.9279 5.34119 11.4382 2.50648 11.4382 2.50648L11.437 2.50881ZM8.04334 3.88417C7.62925 4.83724 6.34709 4.72875 6.34709 4.72875L4.85379 4.72175L5.39926 2.70363C5.39926 2.70363 6.73538 2.70829 7.38995 2.70829C8.09144 2.70829 8.3108 3.26823 8.04334 3.88417Z" fill="#9B9B9B"/>
<path id="Vector_5" d="M38.9223 2.94526H41.8937V7.64062L44.465 2.94526H47.1924L41.6943 12.4375C41.6943 12.4375 41.184 13.2342 40.5505 13.6553C40.0297 14.0018 39.3904 13.9866 39.1956 13.9995C38.1094 13.9901 36.7991 13.9866 36.7991 13.9866L37.4314 11.7235L38.4543 11.7212C38.4543 11.7212 38.9223 11.6734 39.103 11.4447C39.2754 11.2266 39.3634 11.0073 39.3634 10.6865C39.3634 10.2059 38.9235 2.94409 38.9235 2.94409L38.9223 2.94526Z" fill="#9B9B9B"/>
<path id="Vector_6" d="M51.0059 1.13843L47.5747 13.0081L53.9972 7.07266L51.0059 1.13843Z" fill="#008B45"/>
<path id="Vector_7" d="M48.8057 1.13843L45.3745 13.0081L51.797 7.07266L48.8057 1.13843Z" fill="#FF6E0C"/>
</g>
</svg>
