<svg width="47" height="12" viewBox="0 0 47 12" fill="none" xmlns="http://www.w3.org/2000/svg">
<g id="Group 14545">
<path id="Vector" d="M26.4158 2.43309C26.6315 0.716283 25.3305 0.000366211 23.7076 0.000366211H19.4422L16.9248 9.2323H19.635L20.3972 6.38563L22.5568 6.39863C22.5568 6.39863 25.901 6.54061 26.4158 2.43209V2.43309ZM23.6291 3.34998C23.2763 4.33986 22.3044 4.22288 22.3044 4.22288H20.9776L21.5014 2.2621C21.5014 2.2621 22.3411 2.2661 22.8957 2.2661C23.5745 2.2661 23.8209 2.80904 23.6291 3.34898V3.34998Z" fill="#FFCA10"/>
<path id="Vector_2" d="M10.9329 2.52496H13.4045L12.3858 6.46551C12.3858 6.46551 12.1324 7.34441 12.9493 7.4124C13.5943 7.46639 14.0753 6.69148 14.2324 6.16654C14.4391 5.47762 15.2431 2.52496 15.2431 2.52496H17.7892L15.8513 9.23219H13.6281L13.9014 8.2743C13.9014 8.2743 12.7665 9.66614 11.0819 9.49916C9.58326 9.35117 9.45505 8.2573 9.71444 6.89346C9.84165 6.22354 10.9329 2.52496 10.9329 2.52496Z" fill="#FFCA10"/>
<path id="Vector_3" d="M32.4281 5.92428C32.7541 4.80841 33.1655 3.75153 32.8336 3.1666C32.3257 2.2707 31.4094 2.19171 30.0678 2.19171C28.585 2.19171 26.7554 2.47468 26.1591 4.45845H28.6267C28.6267 4.45845 28.8513 3.71154 29.7776 3.75853C30.5975 3.80053 30.5528 4.36746 30.2506 4.68142C29.7209 5.23136 28.257 4.9264 26.6361 5.49233C25.2199 5.98627 24.724 7.86006 25.0321 8.60797C25.3302 9.33289 25.8858 9.42588 26.6341 9.49987C27.8376 9.61885 28.7599 8.94393 29.1892 8.54798C29.1892 8.98793 29.2012 9.2339 29.2012 9.2339H31.798L31.792 8.98793C31.792 8.98793 31.5605 8.92593 31.5863 8.59897C31.6052 8.359 32.0534 7.20713 32.4281 5.92528V5.92428ZM28.6943 7.86606C28.2709 7.97404 27.7571 8.03304 27.6558 7.64608C27.3765 6.5852 29.8452 6.27524 29.8452 6.27524C29.862 7.24213 29.0203 7.78407 28.6953 7.86706L28.6943 7.86606Z" fill="#FFCA10"/>
<path id="Vector_4" d="M10.3177 2.15012C10.5334 0.433316 9.03172 0.000366211 7.40881 0.000366211H3.14333L0.625977 9.2323H3.33613L4.18286 6.09766L5.70341 6.10966C5.70341 6.10966 6.33051 6.07266 6.34343 6.6656C6.35635 7.29752 5.87733 8.45939 5.90814 9.2313H8.69282L8.68686 8.98533C8.68686 8.98533 8.4553 8.92334 8.48114 8.59637C8.49207 8.46039 8.64114 8.02944 8.83693 7.44851C8.95519 7.19253 9.13309 6.58561 9.11619 6.09066C9.09532 5.47273 8.71071 5.18677 8.15517 4.98579C9.8864 4.57784 10.3187 2.14812 10.3187 2.14812L10.3177 2.15012ZM7.4426 3.32898C7.09178 4.14589 6.00553 4.0529 6.00553 4.0529L4.7404 4.0469L5.20252 2.3171C5.20252 2.3171 6.33449 2.3211 6.88904 2.3211C7.48334 2.3211 7.66919 2.80104 7.4426 3.32898Z" fill="#FFCA10"/>
<path id="Vector_5" d="M33.6035 2.5245H36.1209V6.54903L38.2993 2.5245H40.6099L35.9519 10.6606C35.9519 10.6606 35.5196 11.3435 34.9829 11.7044C34.5417 12.0014 34 11.9884 33.8351 11.9994C32.9148 11.9914 31.8047 11.9884 31.8047 11.9884L32.3404 10.0486L33.207 10.0466C33.207 10.0466 33.6035 10.0056 33.7566 9.80966C33.9026 9.62268 33.9772 9.4347 33.9772 9.15973C33.9772 8.74778 33.6045 2.5235 33.6045 2.5235L33.6035 2.5245Z" fill="#FFCA10"/>
<path id="Vector_6" d="M43.8405 0.97522L40.9336 11.149L46.3748 6.06163L43.8405 0.97522Z" fill="#008B45"/>
<path id="Vector_7" d="M41.9763 0.97522L39.0693 11.149L44.5105 6.06163L41.9763 0.97522Z" fill="#FF6E0C"/>
</g>
</svg>
