<svg width="26" height="24" viewBox="0 0 26 24" fill="none" xmlns="http://www.w3.org/2000/svg">
<g id="SEBI">
<g id="Group 14544">
<path id="Vector" fill-rule="evenodd" clip-rule="evenodd" d="M17.5232 21.9137H15.5586V18.1911H17.4684C18.0007 18.1911 18.486 18.4298 18.7599 18.7082C18.9243 18.8752 19.0339 19.0184 19.1356 19.2411C19.5427 20.1717 19.1356 21.2535 18.2512 21.7069C18.079 21.7944 17.758 21.9137 17.5232 21.9137ZM17.2258 15.7174H15.5586V12.6868H17.1162C17.5467 12.6868 18.0398 12.8777 18.3059 13.0607C19.2922 13.7447 18.9869 15.0731 17.852 15.5424C17.7032 15.606 17.4215 15.7094 17.2258 15.7094V15.7174ZM0.66316 10.3324C0.66316 11.9153 1.63375 12.3607 2.95657 12.3607H5.46914V17.4991C6.36145 17.4991 10.189 17.5548 10.8152 17.4355C11.0187 17.3957 11.277 17.2764 11.3944 17.1651C11.6997 16.8707 11.8406 16.4889 11.8406 15.8924V14.055H9.46107V15.0811H8.14608V12.7505H13.1791V21.8899H3.85671C3.77061 21.8899 3.14442 21.2058 3.04267 21.1024C2.75306 20.8081 2.36169 20.3786 2.0486 20.1161C1.97032 20.0524 1.91553 19.9888 1.83726 19.9093C1.70419 19.774 0.749261 18.7559 0.624023 18.7241C0.624023 18.8673 0.655333 18.8752 0.655333 19.0263V23.9977H17.9302C18.7208 23.9977 19.5035 23.767 20.0984 23.3693C20.208 23.2977 20.2706 23.25 20.3724 23.1705C20.8733 22.7569 21.1003 22.4944 21.4525 21.8739C21.9065 21.0626 21.9222 20.7126 21.9222 19.8297C21.9222 19.1138 21.5934 18.2945 21.1707 17.7378C20.8655 17.34 20.4272 17.0298 19.981 16.8071C19.8949 16.7673 19.8244 16.7355 19.7383 16.6958C19.6209 16.648 19.5583 16.6719 19.5505 16.5287C19.7305 16.4889 20.0514 16.2424 20.1923 16.131C20.7794 15.6697 21.1629 14.7629 21.1629 13.9197C21.1629 13.0766 21.1238 12.7266 20.7246 12.0266C20.255 11.1994 19.5192 10.6028 18.619 10.2767C18.212 10.1256 17.578 9.94264 17.0301 9.94264H8.14608V7.89045H9.46107V8.89268H11.8406V6.92004C11.8406 6.43483 11.4492 6.03712 11.1518 5.83826C10.8074 5.61555 10.2908 5.47237 9.73503 5.47237H5.39086V9.91877H3.42621V4.50196C3.42621 4.3906 4.72554 3.17361 4.97602 2.91112C5.05429 2.83158 5.45348 2.39409 5.53176 2.39409H20.8655C20.9516 2.39409 21.8596 3.36451 21.9378 3.44405C22.0161 3.52359 22.971 4.44628 22.971 4.53378V7.58819C22.971 7.69955 22.6266 7.95408 22.5562 8.02567L20.6463 9.97445H24.1999C24.6617 9.97445 24.5365 9.89491 25.0374 9.38584C25.1079 9.31425 25.374 9.09153 25.374 9.00404V0.07942C25.374 0.0157863 25.3584 -0.00012207 25.2957 -0.00012207H0.66316V10.3324Z" fill="#FFCA10"/>
<path id="Vector_2" fill-rule="evenodd" clip-rule="evenodd" d="M22.9635 22.0568C22.9635 22.192 22.4156 22.6374 22.2591 22.7886C22.0243 23.0272 21.1554 23.8783 21.0771 23.9976H25.1552C25.2569 23.9976 25.343 24.0215 25.343 23.9181V13.6969H22.9635V22.0568Z" fill="#FFCA10"/>
<path id="Vector_3" fill-rule="evenodd" clip-rule="evenodd" d="M24.1224 10.8258C24.7799 10.8258 25.32 11.3667 25.32 12.0428C25.32 12.7189 24.7877 13.2598 24.1224 13.2598C23.4571 13.2598 22.9248 12.7189 22.9248 12.0428C22.9248 11.3667 23.4571 10.8258 24.1224 10.8258Z" fill="#FFCA10"/>
</g>
</g>
</svg>
