<svg width="44" height="18" viewBox="0 0 44 18" fill="none" xmlns="http://www.w3.org/2000/svg">
<g id="Group 38387">
<path id="Vector 3610" d="M40.9022 17.4498V0.354389C40.9022 0.158665 41.0609 0 41.2566 0H43.4826C43.6783 0 43.837 0.158666 43.837 0.354389V17.4498C43.837 17.6455 43.6783 17.8042 43.4826 17.8042H41.2566C41.0609 17.8042 40.9022 17.6455 40.9022 17.4498Z" fill="#9B9B9B"/>
<path id="Vector 3606" d="M17.6118 14.794L15.3024 17.4113C15.1005 17.6401 15.263 18.0001 15.5682 18.0001H28.5444C28.8485 18.0001 29.0114 17.6421 28.8115 17.4129L26.5299 14.7956C26.4626 14.7184 26.3652 14.6741 26.2628 14.6741H17.8775C17.7758 14.6741 17.6791 14.7177 17.6118 14.794Z" fill="#9B9B9B"/>
<path id="Vector 3602" d="M18.2959 2.79598L16.5894 0.57001C16.4106 0.336878 16.5768 0 16.8706 0H31.0861C31.3799 0 31.5461 0.336879 31.3673 0.570011L29.6608 2.79598C29.5937 2.88346 29.4897 2.93475 29.3795 2.93475H18.5772C18.4669 2.93475 18.363 2.88346 18.2959 2.79598Z" fill="#9B9B9B"/>
<path id="Vector 3605" d="M17.5569 9.98951L16.341 7.76354C16.212 7.52738 16.3829 7.23926 16.652 7.23926H26.6092C26.8783 7.23926 27.0492 7.52738 26.9202 7.76354L25.7043 9.98951C25.6422 10.1033 25.5229 10.174 25.3933 10.174H17.8679C17.7383 10.174 17.619 10.1033 17.5569 9.98951Z" fill="#9B9B9B"/>
<path id="Vector 3600" d="M6.70642 0H13.3381C13.4527 0 13.5608 0.0533186 13.6305 0.144255L15.8589 3.05081H6.19795C4.90618 3.05081 3.85899 4.098 3.85899 5.38977C3.85899 6.68154 4.90618 7.72873 6.19795 7.72873H10.3166C13.1528 7.72873 15.4521 10.028 15.4521 12.8643C15.4521 15.7005 13.1528 17.9998 10.3165 17.9998H-0.00537109L2.12133 15.3898C2.19129 15.3039 2.29617 15.2541 2.40693 15.2541H10.3674C11.5468 15.2541 12.503 14.2979 12.503 13.1185C12.503 11.9391 11.5468 10.9829 10.3674 10.9829H6.70642C3.67357 10.9829 1.21495 8.52432 1.21495 5.49147C1.21495 2.45861 3.67356 0 6.70642 0Z" fill="#9B9B9B"/>
<path id="Vector 3608" d="M28.6664 7.59067L27.2795 9.63464C27.1237 9.86414 27.2881 10.1744 27.5655 10.1744H33.9566C35.1992 10.1744 36.2066 11.1817 36.2066 12.4243C36.2066 13.667 35.1992 14.6743 33.9566 14.6743H29.5413C29.3145 14.6743 29.1913 14.9395 29.3376 15.1129L31.562 17.7492C31.5917 17.7844 31.6354 17.8047 31.6814 17.8047H34.0977C36.9913 17.8047 39.337 15.459 39.337 12.5654V11.7396C39.337 10.0107 37.9355 8.60917 36.2066 8.60917C37.7193 8.60917 38.9457 7.38283 38.9457 5.87006V4.35378C38.9457 2.00359 37.0405 0.0983887 34.6903 0.0983887H33.5319C33.4912 0.0983887 33.4529 0.117109 33.4278 0.14914L31.3524 2.80567C31.2181 2.97761 31.3406 3.22879 31.5588 3.22879H33.9077C35.0693 3.22879 36.0109 4.17044 36.0109 5.33203C36.0109 6.49361 35.0693 7.43527 33.9077 7.43527H28.9597C28.8422 7.43527 28.7324 7.49347 28.6664 7.59067Z" fill="#9B9B9B"/>
</g>
</svg>
