<svg width="72" height="12" viewBox="0 0 72 12" fill="none" xmlns="http://www.w3.org/2000/svg">
<g id="Group 235">
<path id="Vector" d="M15.7674 0.194039C11.2662 7.04512 8.76554 10.8966 6.99127 11.7965C5.16937 12.7084 4.20483 10.3327 3.21648 9.08485C3.15694 9.01286 3.21648 8.91687 3.29984 8.92887C3.74043 9.00086 4.70496 9.13284 5.83621 9.09685C7.16989 9.06085 8.52738 6.84115 15.5768 0.0380597C15.684 -0.0699258 15.8507 0.0740549 15.7674 0.194039Z" fill="#FFCA10"/>
<path id="Vector_2" d="M5.74111 8.72485C4.90756 8.59286 3.9073 8.47288 3.02612 8.46088C2.85941 8.46088 2.7046 8.40089 2.58553 8.2929C1.75198 7.549 1.25185 7.02108 0.704085 6.91309C0.644546 6.91309 0.632638 6.8291 0.68027 6.8171C1.09704 6.62513 2.18066 6.16919 3.21664 6.16919C4.0621 6.16919 5.26479 7.05707 6.14597 7.87296C6.50321 8.20892 6.21742 8.79684 5.74111 8.72485Z" fill="#FFCA10"/>
<path id="Vector_3" d="M17.1484 2.60596H19.1728L20.8994 6.18148L22.6856 2.60596H24.6028L21.8044 7.89725V10.6809H19.9825V7.89725L17.1484 2.60596Z" fill="#FFCA10"/>
<path id="Vector_4" d="M25.1738 2.60596V10.6809H30.7348V9.07309H26.9719V7.23734H30.0322V5.80953H26.96V4.11775H30.4847L31.0206 2.60596H25.1738Z" fill="#FFCA10"/>
<path id="Vector_5" d="M36.9285 2.60624V4.23802H33.8801C33.8801 4.23802 33.3204 4.26201 33.3204 4.77795C33.3204 5.16189 33.9277 5.38986 33.9277 5.38986C33.9277 5.38986 36.4998 6.5777 36.6308 6.6377C36.7618 6.69769 37.3572 7.00965 37.3572 8.34147C37.3572 9.80527 36.2855 10.6692 34.7732 10.6692H31.6057V9.04937H35.047C35.2138 9.04937 35.4757 8.98938 35.4757 8.41346C35.4757 7.83754 34.6898 7.58557 34.535 7.51358C34.3802 7.44159 32.3201 6.5777 32.1177 6.45772C31.9153 6.33774 31.439 6.02578 31.439 4.69396C31.439 3.36214 32.3797 2.59424 33.4276 2.59424H36.9166L36.9285 2.60624Z" fill="#FFCA10"/>
<path id="Vector_6" d="M46.2521 6.52943C46.5855 6.52943 47.2881 5.72554 47.2881 4.59769C47.2881 3.46984 46.2044 2.60596 45.3233 2.60596H41.0483V10.6809H45.3233C46.4664 10.6809 47.6453 9.79299 47.6453 8.50917C47.6453 7.22534 46.5855 6.52943 46.2521 6.52943ZM42.8702 4.15375H44.8112C45.1566 4.15375 45.49 4.41771 45.49 5.02963C45.49 5.64155 45.097 5.90551 44.6921 5.90551H42.8821V4.15375H42.8702ZM44.8827 9.08509H42.8702V7.30933H44.8946C45.3114 7.30933 45.7519 7.68128 45.7519 8.2692C45.7519 8.85712 45.1923 9.09709 44.8827 9.09709V9.08509Z" fill="#FFCA10"/>
<path id="Vector_7" d="M52.576 2.60596H50.5517L47.7891 10.6809H49.6943L50.1944 8.84512H52.9333L53.4334 10.6809H55.3505L52.576 2.60596ZM50.5636 7.63328L51.5758 4.44171L52.5522 7.63328H50.5755H50.5636Z" fill="#FFCA10"/>
<path id="Vector_8" d="M55.9219 10.6809H57.7081V5.90551L61.4114 10.6809H62.7689V2.60596H60.9827V7.30933L57.4342 2.60596H55.9219V10.6809Z" fill="#FFCA10"/>
<path id="Vector_9" d="M64.1016 2.60596H65.9354V6.0495L68.9004 2.60596H70.9486L67.9478 6.25347L71.151 10.6809H69.1148L66.757 7.40531L65.9354 8.32919V10.6809H64.1016V2.60596Z" fill="#FFCA10"/>
</g>
</svg>
