<svg width="256" height="216" viewBox="0 0 256 216" fill="none" xmlns="http://www.w3.org/2000/svg">
<g id="Group 38394">
<g id="Rectangle 5341" filter="url(#filter0_d_1687_852)">
<rect x="8" y="8" width="240" height="200" rx="16" fill="#0E0E0F"/>
<rect x="8.5" y="8.5" width="239" height="199" rx="15.5" stroke="url(#paint0_linear_1687_852)"/>
</g>
<g id="Group 14543">
<path id="Vector" d="M141.882 75.4816H128.077L128 75.3252L127.923 75.4816H87V129.372V156H169V75.4816H141.882ZM141.882 76.1156H168.354V102.11H141.882V76.1156ZM141.882 154.842V129.376H154.838L141.882 154.842ZM114.118 154.842L101.162 129.376H114.118V154.842ZM128 128.742L114.777 102.748H141.228L128.004 128.742H128ZM127.716 129.376L114.759 154.842V129.376H127.716ZM128.28 129.376H141.236V154.842L128.28 129.376ZM114.118 102.934L100.99 128.742H87.6457V102.748H114.118V102.934ZM141.236 76.1198V101.349L128.4 76.1198H141.236ZM127.6 76.1198L114.764 101.349V76.1198H127.6ZM87.6457 76.1198H114.118V102.114H87.6457V76.1198ZM100.602 129.376L87.6457 154.838V129.372H100.602V129.376ZM168.354 154.842L155.398 129.376H168.354V154.842ZM155.01 128.742L141.882 102.934V102.748H168.354V128.742H155.01Z" fill="#9B9B9B"/>
<path id="Vector_2" d="M96.0118 68.3773H101.513L98.9259 62.8403L96.0118 68.3773ZM90.2352 74.1002V73.1154C90.8421 73.0267 91.3328 72.8491 91.7073 72.5871C92.0818 72.3208 92.452 71.8601 92.8265 71.2007L98.9819 60H102.236L108.228 71.429C108.533 72.0165 108.878 72.4222 109.252 72.6589C109.627 72.8914 110.161 73.0478 110.845 73.1197V74.1045H101.018V73.1197C101.896 73.0816 102.503 73.0013 102.843 72.8745C103.179 72.7477 103.351 72.5406 103.351 72.2616C103.351 72.1475 103.286 71.9446 103.161 71.6572C103.144 71.6234 103.136 71.598 103.136 71.5938L102.133 69.3663H95.5211L94.6946 71.1204L94.6688 71.1881C94.4406 71.6445 94.333 71.9742 94.333 72.1686C94.333 72.4518 94.4837 72.6632 94.7893 72.7984C95.0992 72.9379 95.6588 73.0478 96.4724 73.1197V74.1045H90.2352V74.1002Z" fill="#9B9B9B"/>
<path id="Vector_3" d="M115.451 60.9637H115.193V71.4924C115.193 72.1475 115.352 72.5702 115.671 72.7604C115.985 72.9464 116.725 73.0647 117.892 73.1197V74.1045H110.815V73.1197C111.982 73.0689 112.722 72.9506 113.032 72.7604C113.342 72.5702 113.501 72.1475 113.501 71.4924V62.6079C113.501 61.9527 113.342 61.5301 113.032 61.3399C112.722 61.1539 111.982 61.0355 110.815 60.9806V60H119.639L124.086 69.4805L128.244 60H137.15V60.9848C135.975 61.0355 135.23 61.1539 134.916 61.3483C134.597 61.5385 134.438 61.9612 134.438 62.6079V71.4924C134.438 72.1391 134.602 72.5617 134.92 72.7519C135.239 72.9464 135.983 73.0647 137.15 73.1154V74.1002H126.914V73.1154C128.08 73.0647 128.821 72.9464 129.131 72.7562C129.441 72.566 129.6 72.1433 129.6 71.4881V60.9637H129.38L123.634 74.1002H121.602L115.447 60.9637H115.451Z" fill="#9B9B9B"/>
<path id="Vector_4" d="M146.029 71.4924C146.029 72.1222 146.193 72.5321 146.515 72.7308C146.843 72.9252 147.57 73.052 148.698 73.1197V74.1045H138.625V73.1197C139.628 73.0563 140.278 72.9252 140.575 72.7308C140.868 72.5321 141.014 72.1264 141.014 71.4924V62.6079C141.014 61.9781 140.868 61.5681 140.575 61.3694C140.278 61.175 139.633 61.0482 138.625 60.9806V60H157.079L157.47 64.7423H155.938C155.615 63.4532 154.896 62.5022 153.79 61.8978C152.679 61.2891 151.125 60.9848 149.115 60.9848C147.841 60.9848 147.006 61.082 146.61 61.2722C146.218 61.4667 146.02 61.9105 146.02 62.6121V66.2978H147.157C148.332 66.2978 149.214 66.0738 149.808 65.6257C150.402 65.1777 150.76 64.4676 150.884 63.4912H152.266V70.1187H150.884C150.76 69.1423 150.398 68.4322 149.808 67.9842C149.214 67.5362 148.332 67.3122 147.157 67.3122H146.02V71.4924H146.029Z" fill="#9B9B9B"/>
<path id="Vector_5" d="M160.947 62.6079C160.947 61.9781 160.8 61.5681 160.508 61.3694C160.211 61.175 159.565 61.0482 158.558 60.9806V60H168.32V60.9848C167.335 61.044 166.697 61.1666 166.4 61.3568C166.108 61.547 165.961 61.9654 165.961 62.6079V71.4924C165.961 72.1348 166.108 72.5533 166.4 72.7435C166.697 72.9379 167.335 73.0605 168.32 73.1154V74.1002H158.558V73.1154C159.561 73.052 160.211 72.921 160.508 72.7266C160.8 72.5279 160.947 72.1179 160.947 71.4882V62.6079Z" fill="#9B9B9B"/>
</g>
</g>
<defs>
<filter id="filter0_d_1687_852" x="0" y="0" width="256" height="216" filterUnits="userSpaceOnUse" color-interpolation-filters="sRGB">
<feFlood flood-opacity="0" result="BackgroundImageFix"/>
<feColorMatrix in="SourceAlpha" type="matrix" values="0 0 0 0 0 0 0 0 0 0 0 0 0 0 0 0 0 0 127 0" result="hardAlpha"/>
<feOffset/>
<feGaussianBlur stdDeviation="4"/>
<feComposite in2="hardAlpha" operator="out"/>
<feColorMatrix type="matrix" values="0 0 0 0 0 0 0 0 0 0 0 0 0 0 0 0 0 0 1 0"/>
<feBlend mode="normal" in2="BackgroundImageFix" result="effect1_dropShadow_1687_852"/>
<feBlend mode="normal" in="SourceGraphic" in2="effect1_dropShadow_1687_852" result="shape"/>
</filter>
<linearGradient id="paint0_linear_1687_852" x1="0.842101" y1="8" x2="256.266" y2="196.817" gradientUnits="userSpaceOnUse">
<stop stop-color="#D9D9D9"/>
<stop offset="0.31" stop-color="#0C0C0D"/>
<stop offset="0.76" stop-color="#0C0C0D"/>
<stop offset="1" stop-color="#737373"/>
</linearGradient>
</defs>
</svg>
