<svg width="256" height="216" viewBox="0 0 256 216" fill="none" xmlns="http://www.w3.org/2000/svg">
<g id="Group 38393">
<g id="Rectangle 5339" filter="url(#filter0_d_1687_769)">
<rect x="8" y="8" width="240" height="200" rx="16" fill="#0E0E0F"/>
<rect x="8.5" y="8.5" width="239" height="199" rx="15.5" stroke="url(#paint0_linear_1687_769)"/>
</g>
<g id="Group 236">
<g id="Group">
<path id="Vector" d="M163.64 117.259L172.055 135.651L172.107 117.259H175.796V134.152H183.484V136.601H168.731L166.185 131.453H161.977V129.154H165.406L161.977 121.957V117.309H163.64V117.259ZM161.977 131.403H157.665L155.172 136.551H148.263V117.408H152.211V136.001L160.99 117.259H161.977V121.907L161.821 121.507L158.601 129.104H161.977V131.403ZM66.806 136.651V135.301L67.6372 136.601L66.806 136.651ZM66.806 133.402C68.4164 136.201 72.0009 137.051 74.8582 137.101C78.4427 137.151 81.6116 135.401 82.6506 134.052C84.4168 131.603 83.8454 123.556 83.8454 119.508C89.7676 119.108 95.7418 120.007 95.0145 127.454C94.2872 134.252 89.4559 135.051 83.0142 134.801C82.5986 135.551 81.8713 136.151 80.8323 136.601C96.3652 137.75 97.3003 133.152 98.9627 129.504V136.601L115.119 136.701V122.706L127.483 136.601H130.496V119.508H137.301V136.601H141.301V119.558H148.626V117.458H127.483V131.303L115.119 117.458H112.314V134.552H102.287V127.754H110.755V125.705H102.287L102.339 119.458H111.171V117.408H98.651V123.856C98.1315 122.756 97.5081 121.607 96.7808 120.657C93.5599 116.809 87.4299 117.558 80.3128 117.558V127.155C80.3128 130.403 80.0011 134.851 74.9101 134.901C70.4944 134.951 69.6113 132.402 69.4554 128.154C69.5074 125.305 69.3515 120.657 69.3515 117.558H66.806V133.402ZM66.806 117.608V133.402C66.1826 132.402 65.9229 131.203 65.9229 129.704V117.558H66.806V117.608ZM66.806 135.301L62.0786 128.204C64.6241 126.855 65.9229 124.656 65.0917 121.457C64.2605 118.508 62.2344 117.808 58.3902 117.758H58.0785V119.458H59.585C61.8708 120.307 62.1825 125.105 60.2084 126.255C59.7409 126.605 58.9616 126.705 58.0785 126.755V129.004H58.4941L63.5332 136.751L66.806 136.601V135.301ZM58.1304 117.758V119.458H54.7537V126.705C55.533 126.705 56.9356 126.805 58.1304 126.755V129.004H54.7537V136.751H50.7536L50.8056 117.708H58.1304V117.758ZM43.0651 129.454C43.9483 129.454 44.8833 129.404 45.6626 129.254C45.9743 129.204 47.4289 128.604 47.5847 128.504C50.9095 126.505 50.9095 120.507 47.5847 118.508C46.5977 117.958 44.9353 117.708 43.0651 117.658V119.658H44.26C46.9613 120.057 47.2211 124.056 46.0262 126.105C45.5067 127.005 44.26 127.354 43.0651 127.454V129.454ZM43.0651 117.658V119.658H39.3767V127.404C40.2599 127.454 41.7144 127.554 43.0651 127.454V129.454C42.3378 129.454 41.6105 129.454 40.9352 129.404H39.3767V136.851H36V117.808C37.9741 117.758 40.6754 117.608 43.0651 117.658Z" fill="#9B9B9B"/>
<g id="Group_2">
<path id="Vector_2" d="M195.43 123.804C195.43 123.804 195.534 124.004 196.107 124.403C196.679 124.803 196.887 124.853 196.887 124.853C196.887 124.853 196.731 125.453 196.731 126.403C196.731 127.402 197.148 129.252 197.148 129.202C197.148 129.152 196.523 128.452 195.95 126.852C195.326 125.053 195.43 123.804 195.43 123.804Z" fill="#9B9B9B"/>
<path id="Vector_3" d="M192.001 128.602C192.001 128.602 192.261 128.252 192.365 127.802C192.469 127.353 192.469 127.003 192.469 127.003C192.469 127.003 192.937 126.953 193.56 126.453C194.183 125.953 194.599 125.503 194.599 125.503C194.599 125.503 194.443 126.603 193.716 127.453C192.729 128.702 192.001 128.602 192.001 128.602Z" fill="#9B9B9B"/>
<path id="Vector_4" d="M194.7 127.604C195.22 127.604 195.22 130.952 195.22 130.902C195.22 130.852 197.35 132.002 197.35 133.052C197.35 134.451 194.7 135.401 194.7 135.401C194.7 135.401 194.544 136.55 194.285 137.65C194.025 138.749 193.765 140.199 193.765 140.199C193.765 140.199 193.609 139.099 193.609 138V136.3C193.609 136.3 192.207 136.75 192.207 137.75C192.207 138.749 192.57 138.449 192.57 138.999C192.57 139.549 192.207 140.199 192.207 140.199C192.207 140.199 192.363 139.199 191.428 138.649C190.492 138.1 190.752 137.1 191.479 136.7C192.207 136.3 193.557 135.8 193.557 135.8C193.557 135.8 193.609 134.851 193.609 133.601C193.609 132.352 193.661 131.752 193.661 131.752C193.661 131.752 191.168 131.402 191.116 130.553C191.116 130.353 191.791 130.253 192.57 130.253C193.142 130.253 193.817 130.403 193.817 130.403C193.817 130.403 194.389 127.604 194.7 127.604ZM195.168 132.002C195.168 132.002 195.064 133.002 194.96 133.751C194.856 134.501 194.752 134.901 194.752 134.901C194.752 134.901 196.259 134.451 196.311 133.301C196.415 132.252 195.168 132.002 195.168 132.002Z" fill="#9B9B9B"/>
<path id="Vector_5" d="M201.98 121.606V123.406C201.98 123.406 202.136 122.956 204.37 122.256C206.604 121.507 208.006 121.457 208.006 121.457L201.98 121.606Z" fill="#9B9B9B"/>
<path id="Vector_6" d="M203.535 124.503V123.403C203.535 123.403 204.47 123.253 205.353 123.253C206.912 123.253 207.899 123.553 207.899 123.553C207.899 123.553 207.431 123.503 207.016 123.503C206.6 123.503 206.496 123.603 206.496 123.603C206.496 123.603 206.756 124.303 206.237 124.503C205.717 124.703 205.665 124.653 205.457 124.703C205.249 124.753 204.938 124.753 204.938 124.753L205.249 124.453C205.249 124.453 205.353 124.403 205.146 124.203C204.938 124.003 205.042 123.703 205.042 123.703C205.042 123.703 204.834 123.853 204.314 124.053C203.899 124.303 203.535 124.503 203.535 124.503Z" fill="#9B9B9B"/>
<path id="Vector_7" d="M205.976 131.604H207.483C207.483 131.604 208.262 130.754 208.522 130.754C208.886 130.754 209.041 131.354 209.457 131.354C209.561 131.354 209.873 130.904 210.132 130.904C210.548 130.904 210.548 131.604 210.704 131.604H211.119V131.704H209.821C209.821 131.704 209.717 131.953 209.457 131.953C209.197 131.953 208.886 131.654 208.886 131.654H205.976V131.604Z" fill="#9B9B9B"/>
<path id="Vector_8" d="M210.443 132.152C210.443 132.152 210.027 132.702 208.936 132.702C208.001 132.702 207.586 132.302 207.326 132.152C207.274 132.102 207.17 132.102 207.066 132.102C206.962 132.102 207.014 132.202 207.118 132.202C207.222 132.202 207.222 132.252 207.274 132.252C207.326 132.352 207.378 132.452 207.534 132.652C207.897 133.102 208.625 133.402 208.936 133.402C209.248 133.402 209.612 133.302 210.183 132.802C210.599 132.402 210.443 132.152 210.443 132.152Z" fill="#9B9B9B"/>
<path id="Vector_9" d="M200.473 133.455C200.473 133.455 205.668 135.804 208.161 135.804C209.616 135.804 209.72 135.554 210.187 135.004C210.655 134.455 213.46 130.756 213.979 128.207C214.551 125.658 214.707 124.958 214.707 124.958C214.707 124.958 214.915 127.657 213.928 130.256C212.992 132.905 210.759 135.654 210.291 136.104C209.824 136.554 209.096 136.654 207.642 136.504C206.187 136.354 203.538 135.454 202.343 134.605C201.096 133.755 200.473 133.455 200.473 133.455Z" fill="#9B9B9B"/>
<path id="Vector_10" d="M213.771 142V140.401C213.771 139.751 214.186 139.101 214.81 138.651C215.433 138.202 215.953 138.152 215.953 136.752C215.953 135.353 215.901 135.553 215.901 134.953C215.901 134.353 216.368 133.753 216.992 133.753C217.615 133.753 218.29 134.553 218.29 134.553C218.29 134.553 217.044 134.553 216.836 136.052C216.628 137.552 216.628 138.002 216.056 138.951C215.485 139.851 214.966 140.251 214.55 140.801C214.082 141.35 213.771 142 213.771 142Z" fill="#9B9B9B"/>
<path id="Vector_11" d="M217.928 136.6L218.811 137.15C218.811 137.15 218.863 136.75 219.331 136.25C219.799 135.75 220.006 135.601 220.006 135.601C220.006 135.601 219.695 135.451 218.863 135.8C218.084 136.2 217.928 136.6 217.928 136.6Z" fill="#9B9B9B"/>
<path id="Vector_12" d="M216.78 139.402L217.923 140.152C217.923 140.152 218.13 139.452 218.858 138.652C219.533 137.902 219.949 137.753 219.949 137.753C219.949 137.753 219.117 137.603 218.13 138.202C217.091 138.852 216.78 139.402 216.78 139.402Z" fill="#9B9B9B"/>
<path id="Vector_13" d="M224 123.154C224 123.154 224.052 120.705 222.909 120.705C222.078 120.705 220.727 121.854 218.909 127.502C217.818 130.951 218.961 132.95 218.961 132.95C218.961 132.95 219.272 129.151 219.896 127.852C220.467 126.552 222.078 122.654 223.272 122.654C223.792 122.654 224 123.154 224 123.154Z" fill="#9B9B9B"/>
<path id="Vector_14" d="M214.134 122.306C214.134 122.306 211.121 122.007 210.913 124.855C210.861 125.605 211.017 125.555 211.017 126.855V128.504C211.017 128.804 211.173 129.254 210.29 129.254H207.225C206.913 129.254 206.757 129.404 207.069 129.504C207.433 129.603 207.589 129.653 207.848 129.753C208.108 129.903 208.316 129.953 208.576 129.803C208.783 129.703 208.835 129.603 209.303 129.603C209.77 129.603 209.718 129.603 209.874 129.753C210.03 129.903 210.082 129.903 210.342 129.903C210.602 129.903 210.757 129.803 211.069 129.454C211.381 129.154 211.589 128.304 211.641 126.855C211.744 125.405 211.796 124.156 212.368 123.356C213.043 122.656 214.134 122.306 214.134 122.306Z" fill="#9B9B9B"/>
<path id="Vector_15" d="M214.033 123.953C214.033 123.553 213.721 123.253 213.304 123.253C212.888 123.253 212.575 123.553 212.575 123.953C212.575 124.153 212.68 124.353 212.888 124.503C212.888 124.553 212.836 124.553 212.836 124.603C212.68 124.753 212.419 124.853 212.419 124.853C212.419 124.853 212.627 124.952 212.94 124.803C213.096 124.753 213.252 124.703 213.356 124.653C213.408 124.653 213.46 124.653 213.513 124.603C213.825 124.553 214.033 124.303 214.033 123.953Z" fill="#9B9B9B"/>
<path id="Vector_16" d="M214.243 120.611V118.862L212.681 118.562C212.681 118.562 213.514 118.862 213.879 119.512C214.243 120.011 214.243 120.611 214.243 120.611Z" fill="#9B9B9B"/>
<path id="Vector_17" d="M215.067 117.809C215.067 118.109 214.963 118.259 214.651 118.659C214.339 119.059 214.235 119.609 213.768 119.309C213.3 119.009 211.898 118.109 205.612 118.109C201.508 118.109 199.118 118.859 198.287 118.859C197.456 118.859 196.365 118.359 196.365 117.11C196.365 115.86 196.728 115.61 196.832 115.61C196.884 115.61 197.456 117.56 199.69 117.56C201.923 117.56 205.04 116.11 209.196 116.11C212.521 116.16 215.067 117.66 215.067 117.809Z" fill="#9B9B9B"/>
<path id="Vector_18" d="M207.118 115.711C207.118 115.711 206.754 112.912 205.352 112.912C204.884 112.912 204.572 113.162 204.209 113.162C203.222 113.162 202.339 111.312 200.936 111.312C200.313 111.312 199.897 111.512 199.533 111.512C198.962 111.512 198.546 110.863 198.546 110.863C198.546 110.863 198.546 112.812 200.936 112.812C201.507 112.812 202.131 112.762 202.754 113.112C205.248 114.561 207.118 115.711 207.118 115.711Z" fill="#9B9B9B"/>
<path id="Vector_19" d="M206.078 110.562C206.078 110.562 205.558 111.361 207.376 112.461C209.195 113.561 209.35 113.161 209.818 114.06C210.285 114.91 210.285 115.06 210.285 115.06C210.285 115.06 210.701 114.56 210.701 113.81C210.701 113.011 210.233 112.511 209.039 112.161C207.844 111.811 207.688 111.811 207.22 111.511C207.013 111.361 206.857 111.162 206.649 110.962C206.389 110.712 206.078 110.562 206.078 110.562Z" fill="#9B9B9B"/>
<path id="Vector_20" d="M212.108 113.006C212.108 113.006 212.368 113.655 212.628 114.155C212.888 114.655 213.251 115.655 213.875 115.655C214.446 115.655 214.55 114.655 213.875 114.355C213.199 114.005 213.043 113.905 212.732 113.655C212.368 113.355 212.108 113.006 212.108 113.006Z" fill="#9B9B9B"/>
<path id="Vector_21" d="M197.093 119.905C197.093 119.905 194.132 117.056 191.95 117.056C189.456 117.056 189.248 118.455 186.391 118.455H186.339C183.69 118.455 183.586 116.956 183.586 116.956C183.586 116.956 182.91 117.656 182.651 118.405C182.339 119.255 182.495 120.204 183.794 120.204C185.196 120.204 187.274 118.505 190.391 118.505H191.69C191.69 118.505 192.261 119.205 193.248 119.505C194.235 119.805 194.911 119.855 195.067 119.855C195.222 119.855 195.222 120.254 195.015 120.254C194.807 120.254 193.976 120.354 193.3 120.354C192.625 120.354 191.378 120.105 190.079 120.105C188.781 120.105 187.586 120.155 186.755 120.604C185.924 121.054 185.872 121.354 185.82 121.854C185.768 122.354 185.975 123.353 185.975 123.353C185.975 123.353 186.859 121.954 188.677 121.954C189.976 121.954 190.651 122.354 191.586 122.354C195.171 122.354 197.093 119.905 197.093 119.905Z" fill="#9B9B9B"/>
</g>
</g>
<g id="Group 231">
<path id="Vector_22" d="M70.3657 102.881L77.4187 83.6804H86.3312L79.3423 102.881H70.3657Z" fill="#9B9B9B"/>
<path id="Vector_23" d="M110.278 102.881L115.568 83.6804H122.252L117.011 102.881H110.278Z" fill="#9B9B9B"/>
<path id="Vector_24" d="M146.201 102.881L151.491 83.6804H158.175L152.934 102.881H146.201Z" fill="#9B9B9B"/>
<path id="Vector_25" fill-rule="evenodd" clip-rule="evenodd" d="M103.31 90.2249H110.113C111.036 85.894 108.12 83.6804 101.463 83.6804C93.737 83.6804 88.5375 87.3376 86.7396 93.6414C85.136 99.3678 88.2945 102.881 95.5349 102.881C102.775 102.881 107.197 100.667 109.044 95.7587H102.241C101.269 97.9242 99.5195 99.0791 97.0899 99.0791C93.7855 99.0791 92.5221 97.058 93.5426 93.4008C94.6116 89.5993 97.0899 87.5301 100.394 87.5301C102.484 87.482 103.456 88.3963 103.31 90.2249Z" fill="#9B9B9B"/>
<path id="Vector_26" fill-rule="evenodd" clip-rule="evenodd" d="M139.234 90.2249H146.037C146.961 85.894 144.045 83.6804 137.388 83.6804C129.662 83.6804 124.462 87.3376 122.664 93.6414C121.061 99.3678 124.219 102.881 131.459 102.881C138.7 102.881 143.122 100.667 144.968 95.7587H138.165C137.193 97.9242 135.444 99.0791 133.014 99.0791C129.71 99.0791 128.447 97.058 129.467 93.4008C130.536 89.5993 133.014 87.5301 136.319 87.5301C138.408 87.482 139.38 88.3963 139.234 90.2249Z" fill="#9B9B9B"/>
</g>
<g id="Group_3">
<path id="Vector_27" fill-rule="evenodd" clip-rule="evenodd" d="M44.3243 82.5C51.5972 75.7028 60.4286 73.9535 63.9612 78.6016C67.4937 83.2497 64.3768 92.546 57.1038 99.2932C49.8309 106.091 40.9995 107.84 37.467 103.192C33.9344 98.5935 36.9994 89.2973 44.3243 82.5Z" fill="#F99D28"/>
<path id="Vector_28" fill-rule="evenodd" clip-rule="evenodd" d="M49.1022 78.9056C48.323 79.4554 47.4918 80.1051 46.7125 80.8548C40.3228 86.7524 37.6733 94.8492 40.8422 98.8975C44.0631 102.946 51.9594 101.496 58.4531 95.4989C61.9337 92.3002 64.3234 88.6017 65.2585 85.1531C65.5702 82.6041 65.1546 80.355 63.9078 78.6557C61.1025 75.0072 55.1283 75.307 49.1022 78.9056Z" fill="#AF2A30"/>
<path id="Vector_29" fill-rule="evenodd" clip-rule="evenodd" d="M52.7397 102.646C49.3111 105.045 45.7785 106.244 42.3499 105.745C43.8044 105.795 44.9473 104.295 45.9344 102.296C46.9214 100.247 47.4928 98.2976 47.9604 96.4983C48.6357 93.6495 48.6877 91.6503 48.324 91.2004C47.7526 90.5007 46.4019 90.6507 44.8954 91.4503C44.1681 91.8002 43.233 91.5503 44.3759 90.3008C45.5188 89.0013 50.0384 85.9026 51.7007 85.4028C53.519 84.903 55.545 85.5527 54.8697 87.402C54.3502 88.8014 48.0643 104.245 52.7397 102.646ZM57.8827 78.7055C58.7139 79.5052 58.1944 81.2545 56.7918 82.6039C55.3372 83.9534 53.4151 84.4532 52.5839 83.6535C51.7007 82.8538 52.2202 81.1045 53.6748 79.7051C55.1294 78.3556 57.0515 77.9058 57.8827 78.7055Z" fill="#E7E7E7"/>
</g>
</g>
</g>
<defs>
<filter id="filter0_d_1687_769" x="0" y="0" width="256" height="216" filterUnits="userSpaceOnUse" color-interpolation-filters="sRGB">
<feFlood flood-opacity="0" result="BackgroundImageFix"/>
<feColorMatrix in="SourceAlpha" type="matrix" values="0 0 0 0 0 0 0 0 0 0 0 0 0 0 0 0 0 0 127 0" result="hardAlpha"/>
<feOffset/>
<feGaussianBlur stdDeviation="4"/>
<feComposite in2="hardAlpha" operator="out"/>
<feColorMatrix type="matrix" values="0 0 0 0 0 0 0 0 0 0 0 0 0 0 0 0 0 0 1 0"/>
<feBlend mode="normal" in2="BackgroundImageFix" result="effect1_dropShadow_1687_769"/>
<feBlend mode="normal" in="SourceGraphic" in2="effect1_dropShadow_1687_769" result="shape"/>
</filter>
<linearGradient id="paint0_linear_1687_769" x1="0.842101" y1="8" x2="256.266" y2="196.817" gradientUnits="userSpaceOnUse">
<stop stop-color="#D9D9D9"/>
<stop offset="0.31" stop-color="#0C0C0D"/>
<stop offset="0.76" stop-color="#0C0C0D"/>
<stop offset="1" stop-color="#737373"/>
</linearGradient>
</defs>
</svg>
