<svg width="256" height="216" viewBox="0 0 256 216" fill="none" xmlns="http://www.w3.org/2000/svg">
<g filter="url(#filter0_d_1687_805)">
<rect x="8" y="8" width="240" height="200" rx="16" fill="#0E0E0F"/>
<rect x="8.5" y="8.5" width="239" height="199" rx="15.5" stroke="url(#paint0_linear_1687_805)"/>
</g>
<g clip-path="url(#clip0_1687_805)">
<path d="M178.003 111.431C177.731 112.436 177.152 113.286 176.284 113.979C175.416 114.672 174.479 115.002 173.492 115.002H138.29C137.303 115.002 136.571 114.655 136.095 113.979C135.601 113.286 135.499 112.436 135.771 111.431L143.601 82.6389C143.874 81.6336 144.435 80.7669 145.304 80.0735C146.172 79.3628 147.091 79.0161 148.078 79.0161H183.28C184.301 79.0161 185.05 79.3628 185.544 80.0388C186.02 80.7322 186.122 81.5989 185.833 82.6389L184.914 86.0538H149.712L143.755 107.964H178.956L178.02 111.431H178.003Z" fill="#9B9B9B"/>
<path d="M189.016 115.003H182.003L191.774 79.0691H198.787L189.016 115.003Z" fill="#9B9B9B"/>
<path d="M92.5008 78.9995H85.4707L79.0704 102.539L50.8308 79.0515L41.0261 115.089H48.0562L54.4224 91.6881L82.662 115.176L92.5008 78.9995Z" fill="#9B9B9B"/>
<path d="M138.341 80.0557C137.847 79.3796 137.098 79.033 136.077 79.033H97.437L95.5305 86.0706H130.681L128.638 93.5936H93.5049L87.6663 115.019H94.6964L98.6115 100.631H130.221C131.209 100.631 132.128 100.285 133.013 99.6086C133.881 98.9152 134.46 98.0832 134.732 97.0605L138.647 82.6731C138.937 81.6331 138.835 80.7664 138.358 80.073L138.341 80.0557Z" fill="#9B9B9B"/>
<path d="M212.097 79.033L220.999 97.0605L202.292 115.071L212.097 79.033Z" fill="#008B45"/>
<path d="M205.867 79.033L214.753 97.0605L196.045 115.071L205.867 79.033Z" fill="#FF6E0C"/>
<path d="M194.905 119.334C195.228 119.109 195.569 119.005 195.909 119.005C196.25 119.005 196.59 119.092 196.948 119.248C197.135 119.317 197.305 119.421 197.475 119.542C197.884 119.802 198.241 120.132 198.565 120.513L198.65 120.617L198.854 120.877H194.309L194.275 120.738V120.704C194.241 120.513 194.241 120.34 194.275 120.184C194.36 119.82 194.582 119.542 194.905 119.334ZM212.591 121.449L212.114 123.269H209.833L210.31 121.449H212.591ZM199.858 120.877C199.722 120.686 199.569 120.496 199.433 120.288C198.973 119.75 198.531 119.369 198.105 119.074C197.782 118.866 197.458 118.693 197.152 118.589C196.829 118.485 196.471 118.416 196.131 118.416C195.501 118.416 194.939 118.554 194.462 118.832C194.003 119.109 193.696 119.525 193.543 120.062C193.492 120.27 193.475 120.478 193.543 120.669L193.577 120.86H192.403L192.25 121.432H193.407L192.028 126.597H192.845L194.224 121.432H199.705L199.348 122.749H195.994L195.62 122.818C195.484 122.87 195.382 122.974 195.331 123.148C195.314 123.234 195.331 123.39 195.688 123.858L195.739 123.91C196.046 124.309 196.267 124.482 196.42 124.482C196.658 124.482 196.76 124.378 196.795 124.292L197.05 123.321H199.178L198.309 126.597H199.127L200.505 121.432H203.433L202.991 123.078H202.242L202.105 123.113C201.918 123.148 201.816 123.234 201.782 123.356C201.731 123.581 201.85 123.841 202.19 124.205C202.531 124.552 202.803 124.725 203.025 124.725C203.212 124.725 203.348 124.638 203.433 124.465L203.501 124.24L204.233 121.466H206.208L204.829 126.632H205.663L207.042 121.466H209.493L209.016 123.286H208.472L208.233 123.338C208.097 123.373 208.012 123.46 207.961 123.616C207.91 123.789 208.046 124.014 208.369 124.378C208.676 124.725 208.914 124.898 209.118 124.898C209.272 124.898 209.391 124.846 209.459 124.742L209.51 124.586L209.697 123.858H211.978L211.246 126.615H212.063L213.442 121.449H214.531L214.685 120.877H199.893H199.858Z" fill="#9B9B9B"/>
<path d="M162.53 121.434H164.062L163.534 123.427H161.542L161.968 121.781C162.053 121.469 161.968 121.226 161.764 121.018C161.559 120.827 161.253 120.723 160.879 120.723C160.504 120.723 160.164 120.81 159.857 120.983C159.568 121.156 159.364 121.434 159.261 121.763C159.227 121.867 159.227 121.989 159.261 122.179V122.214L159.33 122.37V122.405H160.113L160.044 122.301L160.01 122.231V121.798C160.044 121.642 160.13 121.521 160.266 121.417C160.385 121.33 160.538 121.278 160.708 121.278C160.93 121.278 161.066 121.313 161.134 121.399L161.185 121.711L160.725 123.427H159.959L159.704 123.514L159.483 123.757C159.466 123.861 159.483 124.051 159.976 124.571C160.453 125.109 160.64 125.161 160.742 125.161L161.083 125.022L161.151 124.797L161.355 124.051H163.347L162.7 126.478C162.445 126.53 162.206 126.599 161.968 126.721C161.849 126.79 161.696 126.877 161.508 126.998L161.44 127.05L161.968 127.553L162.019 127.518L162.291 127.31C162.496 127.171 162.717 127.102 162.904 127.102C163.125 127.102 163.279 127.154 163.381 127.275C163.483 127.397 163.517 127.535 163.466 127.691C163.398 127.951 163.228 128.159 162.938 128.315C162.649 128.472 162.342 128.558 161.985 128.558C161.423 128.558 160.93 128.367 160.504 128.003C160.351 127.882 160.198 127.709 160.01 127.466L159.959 127.414L159.295 127.951L159.347 128.003C159.602 128.263 159.806 128.472 160.01 128.593C160.606 128.974 161.236 129.148 161.951 129.148C162.53 129.148 163.057 129.026 163.466 128.766C163.891 128.506 164.164 128.177 164.283 127.743C164.368 127.397 164.3 127.085 164.062 126.842C163.908 126.686 163.721 126.582 163.5 126.53L164.845 121.486H167.807L167.364 123.133H166.564L166.479 123.15C166.36 123.167 166.206 123.219 166.155 123.393C166.104 123.601 166.223 123.878 166.547 124.242C166.887 124.589 167.16 124.762 167.381 124.762C167.551 124.762 167.704 124.675 167.789 124.502L167.858 124.259L168.59 121.486H170.564L169.185 126.651H170.019L171.398 121.486H176.981L176.692 122.595H173.968C173.577 122.595 173.237 122.682 172.947 122.89C172.658 123.081 172.454 123.358 172.368 123.722C172.198 124.346 172.368 125.005 172.896 125.715C173.083 125.958 173.356 126.253 173.713 126.565L173.747 126.599L174.394 126.149L174.326 126.097C174.02 125.819 173.781 125.559 173.611 125.351C173.185 124.762 173.032 124.225 173.168 123.705C173.22 123.514 173.322 123.393 173.475 123.289C173.645 123.185 173.883 123.133 174.19 123.133H176.556L175.62 126.651H176.437L177.815 121.486H179.79L178.411 126.651H179.228L180.607 121.486H186.088L185.748 122.803H182.394L182.037 122.873C181.901 122.925 181.799 123.046 181.748 123.219C181.731 123.306 181.748 123.479 182.156 123.999C182.48 124.398 182.684 124.571 182.837 124.571C183.024 124.571 183.143 124.502 183.228 124.381L183.484 123.41H185.612L184.743 126.686H185.561L186.939 121.521H188.029L188.182 120.948H162.683L162.53 121.521V121.434Z" fill="#9B9B9B"/>
<path d="M143.107 121.434L142.817 122.509H141.064C140.655 122.509 140.281 122.595 139.941 122.786L139.719 122.925C139.532 123.046 139.396 123.185 139.294 123.324L137.677 121.434H143.09H143.107ZM138.987 123.913V123.965L138.953 124.138L138.749 124.225C138.46 124.346 138.17 124.416 137.864 124.416C137.523 124.416 137.285 124.329 137.115 124.173C136.945 124.017 136.911 123.826 136.979 123.566L137.387 121.989L139.021 123.913H138.987ZM144.213 119.319C144.4 119.163 144.622 119.094 144.928 119.094C145.132 119.094 145.319 119.129 145.49 119.181C145.83 119.319 146.068 119.579 146.256 119.995C146.341 120.186 146.409 120.481 146.46 120.845H143.941L143.856 120.654V120.619C143.77 120.377 143.77 120.134 143.856 119.891C143.924 119.631 144.043 119.423 144.213 119.285V119.319ZM150.954 121.746L150.835 121.451H152.928L152.23 124.104C152.026 124.294 151.873 124.416 151.754 124.485C151.311 124.745 150.886 124.884 150.443 124.901H150.409C149.864 124.901 149.49 124.728 149.286 124.381C149.235 124.294 149.201 124.138 149.166 123.913C149.49 123.861 149.745 123.774 149.949 123.705C150.528 123.462 150.903 123.064 151.039 122.543C151.107 122.301 151.073 122.023 150.971 121.763L150.954 121.746ZM146.954 119.77C146.681 119.146 146.256 118.765 145.643 118.626C145.473 118.574 145.268 118.557 145.013 118.557C144.519 118.557 144.111 118.661 143.77 118.886C143.413 119.111 143.175 119.441 143.073 119.909C143.004 120.134 143.022 120.394 143.124 120.671L143.192 120.879H127.838L127.685 121.451H131.021L130.681 122.752C130.629 122.942 130.527 123.098 130.34 123.22C130.153 123.341 129.932 123.393 129.659 123.393C129.489 123.393 129.353 123.376 129.234 123.324C129.08 123.254 129.046 123.202 129.046 123.168L128.689 122.353L127.94 122.734L127.974 122.804C128.059 122.994 128.127 123.15 128.178 123.289C128.331 123.67 128.553 124.086 128.842 124.589C129.029 124.901 129.268 125.265 129.54 125.664C129.761 125.976 130 126.288 130.272 126.617L130.306 126.669L131.021 126.201L130.97 126.149L130.766 125.906L130.595 125.716L130.289 125.317C130.17 125.161 130.051 125.022 129.983 124.918L129.421 123.93C129.744 124 130.119 123.93 130.51 123.792C130.8 123.688 131.038 123.549 131.174 123.376C131.327 123.202 131.429 123.029 131.481 122.838L131.855 121.451H134L132.621 126.617H133.438L134.817 121.451H136.672L136.128 123.514C136.008 123.948 136.128 124.294 136.451 124.589C136.774 124.866 137.2 125.005 137.728 125.005C137.949 125.005 138.187 124.97 138.443 124.901C138.596 124.866 138.766 124.797 138.936 124.728C138.987 124.988 139.089 125.23 139.277 125.456L139.43 125.629H139.447C139.753 125.941 140.128 126.149 140.553 126.253L137.779 128.194H138.987L141.047 126.548L142.153 128.194H143.141L141.728 126.322C142.102 126.288 142.409 126.201 142.681 126.08C143.09 125.906 143.481 125.664 143.856 125.3L143.924 125.23L143.311 124.884L143.277 124.918C142.732 125.456 142.102 125.716 141.353 125.716C140.792 125.716 140.349 125.542 140.043 125.213C139.77 124.936 139.668 124.624 139.702 124.26L139.736 124.069L139.787 123.913C139.872 123.722 140.026 123.549 140.247 123.41C140.502 123.237 140.792 123.133 141.115 123.133H143.481L143.924 121.451H146.358L144.996 126.617H145.813L147.192 121.451H149.898L150.12 121.763C150.256 122.041 150.29 122.266 150.239 122.474C150.154 122.786 149.984 123.012 149.728 123.168C149.507 123.289 149.235 123.358 148.894 123.358L148.707 123.324H148.588L148.469 123.272H148.417V123.324C148.281 123.861 148.366 124.346 148.69 124.78C149.013 125.213 149.558 125.438 150.324 125.438H150.358C150.818 125.438 151.243 125.352 151.669 125.178L152.009 125.005L151.584 126.617H152.401L153.779 121.451H154.869L155.022 120.879H147.243C147.192 120.377 147.09 120.013 146.971 119.77H146.954Z" fill="#9B9B9B"/>
<path d="M112.876 119.319C113.064 119.163 113.285 119.094 113.574 119.094C113.779 119.094 113.966 119.129 114.136 119.181C114.476 119.319 114.732 119.597 114.919 119.995C115.004 120.169 115.055 120.429 115.123 120.862H112.604L112.519 120.654C112.451 120.411 112.451 120.169 112.519 119.926C112.587 119.666 112.723 119.458 112.893 119.319H112.876ZM119.617 121.746L119.498 121.451H121.592L120.894 124.104C120.689 124.294 120.519 124.416 120.4 124.485C119.975 124.745 119.532 124.884 119.089 124.901H119.055C118.511 124.901 118.136 124.728 117.949 124.381C117.898 124.277 117.864 124.104 117.83 123.896C118.153 123.826 118.426 123.757 118.613 123.688C119.192 123.445 119.549 123.046 119.685 122.526C119.753 122.301 119.719 122.023 119.617 121.746ZM115.617 119.77C115.345 119.146 114.902 118.765 114.306 118.626C114.136 118.574 113.932 118.557 113.676 118.557C113.183 118.557 112.774 118.661 112.434 118.886C112.076 119.111 111.838 119.458 111.719 119.909C111.668 120.117 111.685 120.394 111.77 120.671L111.838 120.879H96.4841L96.3309 121.451H97.8629L97.3352 123.445H95.3437L95.7862 121.798C95.8713 121.503 95.7862 121.243 95.582 121.035C95.3777 120.845 95.0883 120.741 94.6968 120.741C94.3053 120.741 93.9819 120.827 93.6755 121.001C93.3861 121.174 93.1819 121.434 93.0967 121.781V122.179L93.1648 122.37V122.405H93.9478L93.8627 122.301L93.8287 122.231V121.815C93.8627 121.659 93.9478 121.521 94.067 121.434C94.1862 121.347 94.3393 121.295 94.5096 121.295C94.7309 121.295 94.8841 121.33 94.9351 121.417L94.9692 121.729L94.5096 123.445H93.7606L93.4882 123.514L93.284 123.757C93.284 123.757 93.2159 123.982 93.7776 124.572C94.2713 125.109 94.4585 125.161 94.5606 125.161L94.9011 125.022L94.9692 124.797L95.1734 124.052H97.165L96.4841 126.617H97.3012L98.68 121.451H100.638L99.2757 126.617H100.093L101.472 121.451H105.608L105.268 122.752C105.216 122.942 105.114 123.098 104.927 123.22C104.74 123.341 104.519 123.393 104.246 123.393C104.093 123.393 103.94 123.376 103.821 123.324L103.616 123.168L103.259 122.353L102.527 122.734V122.786C102.612 122.942 102.68 123.116 102.748 123.289C102.901 123.67 103.123 124.086 103.395 124.572C103.565 124.849 103.787 125.178 104.11 125.646C104.382 126.01 104.621 126.322 104.842 126.6L104.876 126.652L105.608 126.184L105.54 126.114C105.387 125.941 105.268 125.82 105.182 125.716L105.063 125.56C104.842 125.3 104.689 125.092 104.57 124.918L104.008 123.93C104.331 124 104.706 123.93 105.097 123.792C105.387 123.688 105.625 123.549 105.778 123.376C105.931 123.202 106.033 123.029 106.085 122.838L106.459 121.451H112.23L111.94 122.561H109.217C108.825 122.561 108.485 122.665 108.195 122.856C107.906 123.046 107.702 123.324 107.617 123.688C107.446 124.312 107.617 124.97 108.144 125.681C108.331 125.924 108.621 126.218 108.961 126.53L108.995 126.565L109.642 126.114L109.574 126.062C109.251 125.768 109.012 125.508 108.859 125.317C108.434 124.745 108.28 124.19 108.417 123.67C108.468 123.48 108.57 123.341 108.706 123.254C108.893 123.15 109.132 123.098 109.421 123.098H111.787L110.851 126.617H111.668L113.047 121.451H115.004L113.642 126.617H114.459L115.838 121.451H118.545L118.766 121.763C118.902 122.023 118.936 122.249 118.885 122.474C118.8 122.786 118.63 123.012 118.374 123.168C118.153 123.289 117.864 123.358 117.54 123.358L117.353 123.324H117.251L117.132 123.272H117.081V123.324C116.945 123.844 117.03 124.329 117.353 124.78C117.677 125.213 118.221 125.438 118.987 125.438H119.021C119.481 125.438 119.906 125.352 120.349 125.178L120.689 125.022L120.264 126.634H121.081L122.46 121.469H123.549L123.702 120.897H115.923C115.872 120.394 115.77 120.03 115.651 119.787L115.617 119.77Z" fill="#9B9B9B"/>
<path d="M34.9999 136.757L36.651 130.69L39.3235 134.261L39.5448 134.59L39.749 134.971L40.8555 130.915H41.7236L40.0554 136.982L37.3319 133.359L37.1276 133.047L36.9574 132.701L35.851 136.757H34.9999Z" fill="#9B9B9B"/>
<path d="M43.4429 134.469H45.0429L44.8217 133.134L44.7876 132.839V132.475L44.5834 132.822L44.3961 133.134L43.4429 134.469ZM45.4004 136.757L45.1621 135.249H42.8982L41.8258 136.757H40.8385L45.2642 130.69L46.3877 136.757H45.4004Z" fill="#9B9B9B"/>
<path d="M49.2139 131.729L47.8521 136.756H46.9159L48.2947 131.729H46.7627L46.984 130.914H50.9501L50.7288 131.729H49.2139Z" fill="#9B9B9B"/>
<path d="M50.2515 136.756L51.8346 130.914H52.7708L51.1877 136.756H50.2515Z" fill="#9B9B9B"/>
<path d="M57.8952 133.863C57.9803 133.568 57.9973 133.291 57.9632 133.031C57.9292 132.771 57.8441 132.528 57.7079 132.32C57.5717 132.112 57.3845 131.956 57.1632 131.852C56.9419 131.748 56.6866 131.678 56.3972 131.678C56.1078 131.678 55.8355 131.73 55.5461 131.834C55.2567 131.938 55.0014 132.094 54.7291 132.303C54.4737 132.511 54.2524 132.736 54.0822 133.013C53.912 133.273 53.7758 133.568 53.6907 133.863C53.6056 134.157 53.5886 134.435 53.6226 134.695C53.6567 134.955 53.7418 135.197 53.878 135.405C54.0141 135.613 54.2014 135.769 54.4227 135.873C54.6439 135.977 54.8993 136.029 55.1887 136.029C55.478 136.029 55.7504 135.977 56.0227 135.873C56.3121 135.769 56.5674 135.596 56.8398 135.405C57.0951 135.197 57.3164 134.955 57.4866 134.695C57.6569 134.435 57.793 134.157 57.8781 133.863H57.8952ZM58.8654 133.863C58.7463 134.279 58.576 134.677 58.3207 135.041C58.0654 135.405 57.759 135.735 57.3845 136.029C57.01 136.324 56.6185 136.532 56.21 136.688C55.8014 136.844 55.3929 136.913 54.9844 136.913C54.5759 136.913 54.2014 136.844 53.8609 136.688C53.5375 136.532 53.2652 136.307 53.0439 136.029C52.8226 135.735 52.7034 135.405 52.6524 135.041C52.6013 134.677 52.6353 134.279 52.7375 133.863C52.8566 133.447 53.0439 133.048 53.2822 132.684C53.5375 132.32 53.8439 131.99 54.2184 131.696C54.5929 131.401 54.9844 131.193 55.3929 131.037C55.8014 130.881 56.227 130.812 56.6355 130.812C57.0441 130.812 57.4185 130.881 57.742 131.037C58.0654 131.193 58.3377 131.418 58.559 131.696C58.7803 131.99 58.8995 132.32 58.9505 132.701C59.0016 133.065 58.9676 133.464 58.8654 133.88V133.863Z" fill="#9B9B9B"/>
<path d="M58.9847 136.757L60.6528 130.69L63.3083 134.261L63.5296 134.59L63.7338 134.971L64.8403 130.915H65.7084L64.0573 136.982L61.3337 133.359L61.1295 133.047L60.9592 132.701L59.8528 136.757H58.9847Z" fill="#9B9B9B"/>
<path d="M67.4277 134.469H69.0277L68.8065 133.134L68.7724 132.839V132.475L68.5682 132.822L68.3809 133.134L67.4277 134.469ZM69.3852 136.757L69.1469 135.249H66.883L65.8106 136.757H64.8233L69.249 130.69L70.3725 136.757H69.3852Z" fill="#9B9B9B"/>
<path d="M71.0536 136.756L72.6537 130.914H73.5899L72.2281 135.906H74.3048L74.0835 136.756H71.0536Z" fill="#9B9B9B"/>
<path d="M79.2744 133.358H79.5127C80.0234 133.358 80.3979 133.306 80.5851 133.185C80.7894 133.063 80.9256 132.873 81.0107 132.578C81.0958 132.266 81.0617 132.041 80.9085 131.919C80.7553 131.798 80.4319 131.729 79.9383 131.729H79.7L79.2574 133.358H79.2744ZM79.0021 134.138L78.2871 136.756H77.419L79.0191 130.914H80.4319C80.8575 130.914 81.1468 130.931 81.3341 130.983C81.5213 131.035 81.6745 131.105 81.7937 131.209C81.9299 131.347 82.032 131.521 82.066 131.763C82.1001 131.989 82.0831 132.249 82.015 132.526C81.9469 132.803 81.8107 133.063 81.6575 133.289C81.4873 133.514 81.3 133.705 81.0787 133.844C80.9085 133.948 80.7043 134.017 80.5 134.069C80.2957 134.104 79.9723 134.138 79.5638 134.138H79.0361H79.0021Z" fill="#9B9B9B"/>
<path d="M82.5933 134.469H84.1934L83.9721 133.134L83.9381 132.839V132.475L83.7338 132.822L83.5466 133.134L82.5933 134.469ZM84.5509 136.757L84.3126 135.249H82.0486L80.9762 136.757H80.006L84.4317 130.69L85.5552 136.757H84.5679H84.5509Z" fill="#9B9B9B"/>
<path d="M86.0665 136.756L86.7985 134.086L85.7261 130.914H86.6963L87.3602 132.907L87.4283 133.098L87.4793 133.376L87.6666 133.115L87.8538 132.873L89.6241 130.914H90.5603L87.7177 134.086L86.9857 136.756H86.0665Z" fill="#9B9B9B"/>
<path d="M94.5599 133.878C94.5599 133.878 94.577 133.705 94.611 133.497C94.628 133.324 94.6621 133.185 94.6621 133.081L94.4578 133.48L94.1855 133.878L91.8364 136.981L91.2066 133.809L91.1555 133.428V133.063L91.0023 133.445L90.8151 133.861L89.4193 136.738H88.5682L91.5811 130.654L92.262 134.329L92.296 134.624C92.296 134.762 92.33 134.918 92.3471 135.126C92.4492 134.953 92.5854 134.745 92.7896 134.485L92.9088 134.329L95.5642 130.654L95.2919 136.738H94.4238L94.577 133.861L94.5599 133.878Z" fill="#9B9B9B"/>
<path d="M96.1774 136.756L97.7775 130.914H100.978L100.756 131.729H98.4924L98.0839 133.185H100.365L100.127 134.017H97.8626L97.352 135.906H99.6159L99.3776 136.756H96.1774Z" fill="#9B9B9B"/>
<path d="M100.603 136.757L102.271 130.69L104.926 134.261L105.147 134.59L105.369 134.971L106.475 130.915H107.326L105.675 136.982L102.952 133.359L102.747 133.047L102.577 132.701L101.471 136.757H100.603Z" fill="#9B9B9B"/>
<path d="M110.441 131.729L109.062 136.756H108.126L109.505 131.729H107.99L108.211 130.914H112.177L111.956 131.729H110.441Z" fill="#9B9B9B"/>
<path d="M111.446 135.595L112.28 135.248C112.28 135.508 112.348 135.699 112.501 135.837C112.655 135.976 112.876 136.045 113.165 136.045C113.438 136.045 113.676 135.959 113.88 135.803C114.084 135.647 114.221 135.439 114.289 135.179C114.374 134.832 114.187 134.52 113.71 134.26L113.557 134.173C113.012 133.861 112.672 133.566 112.535 133.324C112.399 133.064 112.365 132.769 112.467 132.388C112.604 131.92 112.859 131.521 113.25 131.226C113.642 130.932 114.102 130.776 114.612 130.776C115.038 130.776 115.361 130.862 115.599 131.018C115.838 131.192 115.974 131.417 115.991 131.729L115.157 132.11C115.089 131.92 115.004 131.798 114.885 131.712C114.765 131.625 114.629 131.59 114.442 131.59C114.187 131.59 113.982 131.66 113.795 131.781C113.608 131.92 113.489 132.093 113.421 132.318C113.318 132.665 113.557 132.994 114.119 133.306L114.221 133.358C114.714 133.618 115.038 133.878 115.174 134.138C115.31 134.398 115.327 134.71 115.225 135.092C115.072 135.647 114.782 136.08 114.357 136.409C113.931 136.739 113.421 136.895 112.842 136.895C112.348 136.895 111.991 136.773 111.735 136.548C111.48 136.323 111.378 135.993 111.395 135.56L111.446 135.595Z" fill="#9B9B9B"/>
<path d="M123.923 132.336C123.719 132.111 123.497 131.938 123.225 131.816C122.97 131.695 122.663 131.643 122.34 131.643C121.71 131.643 121.148 131.851 120.638 132.267C120.127 132.683 119.787 133.203 119.616 133.862C119.446 134.486 119.497 135.006 119.77 135.422C120.042 135.838 120.468 136.029 121.046 136.029C121.387 136.029 121.727 135.959 122.068 135.838C122.408 135.717 122.748 135.526 123.106 135.283L122.817 136.358C122.51 136.549 122.204 136.67 121.88 136.774C121.557 136.861 121.234 136.913 120.876 136.913C120.433 136.913 120.059 136.843 119.719 136.687C119.378 136.549 119.123 136.323 118.919 136.046C118.714 135.769 118.595 135.439 118.544 135.058C118.493 134.677 118.544 134.278 118.646 133.845C118.765 133.411 118.953 133.012 119.208 132.631C119.463 132.25 119.77 131.92 120.127 131.643C120.485 131.366 120.876 131.14 121.285 130.984C121.693 130.828 122.119 130.759 122.544 130.759C122.885 130.759 123.191 130.811 123.463 130.915C123.736 131.019 123.991 131.158 124.229 131.366L123.923 132.319V132.336Z" fill="#9B9B9B"/>
<path d="M129.575 133.863C129.66 133.568 129.677 133.291 129.643 133.031C129.609 132.771 129.524 132.528 129.387 132.32C129.251 132.112 129.064 131.956 128.843 131.852C128.621 131.748 128.366 131.678 128.077 131.678C127.787 131.678 127.515 131.73 127.226 131.834C126.936 131.938 126.664 132.094 126.409 132.303C126.153 132.511 125.932 132.736 125.762 133.013C125.574 133.273 125.455 133.568 125.37 133.863C125.285 134.157 125.268 134.435 125.302 134.695C125.336 134.955 125.421 135.197 125.557 135.405C125.694 135.613 125.881 135.769 126.102 135.873C126.323 135.977 126.579 136.029 126.868 136.029C127.157 136.029 127.43 135.977 127.702 135.873C127.992 135.769 128.247 135.596 128.519 135.405C128.775 135.197 128.996 134.955 129.166 134.695C129.336 134.435 129.472 134.157 129.558 133.863H129.575ZM130.545 133.863C130.426 134.279 130.255 134.677 130 135.041C129.745 135.405 129.438 135.735 129.064 136.029C128.689 136.324 128.298 136.532 127.889 136.688C127.481 136.844 127.072 136.913 126.664 136.913C126.255 136.913 125.881 136.844 125.54 136.688C125.2 136.532 124.945 136.307 124.723 136.029C124.502 135.735 124.383 135.405 124.332 135.041C124.281 134.677 124.315 134.279 124.434 133.863C124.553 133.447 124.723 133.048 124.979 132.684C125.234 132.32 125.54 131.99 125.915 131.696C126.289 131.401 126.681 131.193 127.089 131.037C127.498 130.881 127.923 130.812 128.332 130.812C128.741 130.812 129.115 130.881 129.438 131.037C129.762 131.193 130.034 131.418 130.255 131.696C130.46 131.99 130.596 132.32 130.647 132.701C130.698 133.065 130.664 133.464 130.562 133.88L130.545 133.863Z" fill="#9B9B9B"/>
<path d="M132.673 133.41H132.843C133.336 133.41 133.677 133.358 133.881 133.237C134.068 133.115 134.205 132.907 134.29 132.613C134.375 132.283 134.358 132.058 134.205 131.937C134.068 131.815 133.762 131.746 133.302 131.746H133.132L132.673 133.428V133.41ZM132.417 134.138L131.702 136.756H130.834L132.434 130.914H133.728C134.102 130.914 134.409 130.949 134.596 130.983C134.783 131.035 134.954 131.122 135.073 131.243C135.209 131.382 135.294 131.573 135.328 131.798C135.362 132.023 135.328 132.266 135.277 132.526C135.141 132.994 134.937 133.358 134.647 133.618C134.358 133.878 133.983 134.034 133.541 134.086L134.783 136.738H133.728L132.536 134.121H132.434L132.417 134.138Z" fill="#9B9B9B"/>
<path d="M137.337 133.358H137.575C138.086 133.358 138.46 133.306 138.648 133.185C138.852 133.063 138.988 132.873 139.073 132.578C139.158 132.266 139.124 132.041 138.988 131.919C138.835 131.798 138.511 131.729 138.018 131.729H137.779L137.337 133.358ZM137.064 134.138L136.35 136.756H135.481L137.082 130.914H138.494C138.92 130.914 139.209 130.931 139.397 130.983C139.584 131.035 139.737 131.105 139.856 131.209C139.992 131.347 140.094 131.521 140.128 131.763C140.163 131.989 140.145 132.249 140.077 132.526C140.009 132.803 139.873 133.063 139.72 133.289C139.55 133.514 139.362 133.705 139.141 133.844C138.971 133.948 138.784 134.017 138.562 134.069C138.358 134.104 138.035 134.138 137.626 134.138H137.099H137.064Z" fill="#9B9B9B"/>
<path d="M145.439 133.863C145.524 133.568 145.541 133.291 145.507 133.031C145.473 132.771 145.388 132.528 145.252 132.32C145.116 132.112 144.928 131.956 144.707 131.852C144.486 131.748 144.23 131.678 143.941 131.678C143.652 131.678 143.379 131.73 143.09 131.834C142.801 131.938 142.545 132.094 142.273 132.303C142.018 132.511 141.796 132.736 141.626 133.013C141.456 133.273 141.32 133.568 141.235 133.863C141.149 134.157 141.132 134.435 141.166 134.695C141.2 134.955 141.286 135.197 141.422 135.405C141.558 135.613 141.745 135.769 141.966 135.873C142.188 135.977 142.443 136.029 142.732 136.029C143.022 136.029 143.294 135.977 143.567 135.873C143.839 135.769 144.111 135.596 144.384 135.405C144.639 135.197 144.86 134.955 145.03 134.695C145.201 134.435 145.337 134.157 145.422 133.863H145.439ZM146.409 133.863C146.29 134.279 146.12 134.677 145.865 135.041C145.609 135.405 145.303 135.735 144.928 136.029C144.554 136.324 144.162 136.532 143.754 136.688C143.345 136.844 142.937 136.913 142.528 136.913C142.12 136.913 141.745 136.844 141.405 136.688C141.081 136.532 140.809 136.307 140.588 136.029C140.383 135.735 140.247 135.405 140.196 135.041C140.145 134.677 140.179 134.279 140.281 133.863C140.4 133.447 140.571 133.048 140.826 132.684C141.081 132.32 141.388 131.99 141.762 131.696C142.137 131.401 142.528 131.193 142.937 131.037C143.345 130.881 143.771 130.812 144.179 130.812C144.588 130.812 144.962 130.881 145.286 131.037C145.609 131.193 145.882 131.418 146.103 131.696C146.307 131.99 146.443 132.32 146.494 132.701C146.545 133.065 146.511 133.464 146.409 133.88V133.863Z" fill="#9B9B9B"/>
<path d="M148.214 133.41H148.384C148.878 133.41 149.218 133.358 149.405 133.237C149.593 133.115 149.746 132.907 149.814 132.613C149.899 132.283 149.882 132.058 149.729 131.937C149.593 131.815 149.286 131.746 148.827 131.746H148.656L148.197 133.428L148.214 133.41ZM147.959 134.138L147.244 136.756H146.375L147.976 130.914H149.269C149.644 130.914 149.933 130.949 150.137 130.983C150.342 131.035 150.495 131.122 150.614 131.243C150.75 131.382 150.835 131.573 150.886 131.798C150.92 132.023 150.886 132.266 150.835 132.526C150.716 132.994 150.495 133.358 150.205 133.618C149.916 133.878 149.542 134.034 149.099 134.086L150.342 136.738H149.286L148.095 134.121H147.993L147.959 134.138Z" fill="#9B9B9B"/>
<path d="M153.013 134.469H154.613L154.392 133.134L154.358 132.839V132.475L154.154 132.822L153.967 133.134L153.013 134.469ZM154.971 136.757L154.733 135.249H152.469L151.396 136.757H150.409L154.835 130.69L155.958 136.757H154.971Z" fill="#9B9B9B"/>
<path d="M158.801 131.729L157.423 136.756H156.486L157.865 131.729H156.333L156.554 130.914H160.538L160.316 131.729H158.801Z" fill="#9B9B9B"/>
<path d="M159.823 136.756L161.423 130.914H162.36L160.76 136.756H159.823Z" fill="#9B9B9B"/>
<path d="M167.483 133.863C167.568 133.568 167.585 133.291 167.551 133.031C167.517 132.771 167.432 132.528 167.296 132.32C167.16 132.112 166.972 131.956 166.751 131.852C166.53 131.748 166.274 131.678 165.985 131.678C165.696 131.678 165.423 131.73 165.134 131.834C164.845 131.938 164.589 132.094 164.334 132.303C164.079 132.511 163.857 132.736 163.687 133.013C163.517 133.273 163.381 133.568 163.296 133.863C163.211 134.157 163.194 134.435 163.228 134.695C163.262 134.955 163.347 135.197 163.483 135.405C163.619 135.613 163.806 135.769 164.028 135.873C164.249 135.977 164.504 136.029 164.794 136.029C165.083 136.029 165.355 135.977 165.628 135.873C165.9 135.769 166.172 135.596 166.445 135.405C166.7 135.197 166.921 134.955 167.092 134.695C167.262 134.435 167.398 134.157 167.483 133.863ZM168.453 133.863C168.334 134.279 168.164 134.677 167.909 135.041C167.653 135.405 167.347 135.735 166.972 136.029C166.598 136.324 166.206 136.532 165.798 136.688C165.389 136.844 164.981 136.913 164.572 136.913C164.164 136.913 163.789 136.844 163.449 136.688C163.108 136.532 162.853 136.307 162.632 136.029C162.41 135.735 162.291 135.405 162.24 135.041C162.189 134.677 162.223 134.279 162.342 133.863C162.462 133.447 162.632 133.048 162.887 132.684C163.142 132.32 163.449 131.99 163.823 131.696C164.198 131.401 164.589 131.193 164.998 131.037C165.406 130.881 165.832 130.812 166.24 130.812C166.649 130.812 167.023 130.881 167.347 131.037C167.67 131.193 167.943 131.418 168.164 131.696C168.385 131.99 168.504 132.32 168.555 132.701C168.607 133.065 168.572 133.464 168.47 133.88L168.453 133.863Z" fill="#9B9B9B"/>
<path d="M168.402 136.757L170.053 130.69L172.726 134.261L172.947 134.59L173.151 134.971L174.258 130.915H175.126L173.475 136.982L170.734 133.359L170.547 133.047L170.36 132.701L169.253 136.757H168.402Z" fill="#9B9B9B"/>
<path d="M182.327 133.863C182.412 133.568 182.429 133.291 182.395 133.031C182.361 132.771 182.276 132.528 182.139 132.32C182.003 132.112 181.816 131.956 181.595 131.852C181.373 131.748 181.118 131.678 180.829 131.678C180.539 131.678 180.267 131.73 179.978 131.834C179.688 131.938 179.433 132.094 179.177 132.303C178.922 132.511 178.701 132.736 178.531 133.013C178.36 133.273 178.224 133.568 178.139 133.863C178.054 134.157 178.037 134.435 178.071 134.695C178.105 134.955 178.19 135.197 178.326 135.405C178.463 135.613 178.65 135.769 178.871 135.873C179.092 135.977 179.348 136.029 179.637 136.029C179.926 136.029 180.199 135.977 180.471 135.873C180.761 135.769 181.016 135.596 181.288 135.405C181.544 135.197 181.765 134.955 181.935 134.695C182.105 134.435 182.241 134.157 182.327 133.863ZM183.297 133.863C183.178 134.279 183.007 134.677 182.752 135.041C182.497 135.405 182.19 135.735 181.816 136.029C181.441 136.324 181.05 136.532 180.641 136.688C180.233 136.844 179.824 136.913 179.416 136.913C179.007 136.913 178.633 136.844 178.292 136.688C177.969 136.532 177.697 136.307 177.475 136.029C177.271 135.735 177.135 135.405 177.084 135.041C177.033 134.677 177.067 134.279 177.186 133.863C177.305 133.447 177.475 133.048 177.731 132.684C177.986 132.32 178.292 131.99 178.667 131.696C179.041 131.401 179.433 131.193 179.841 131.037C180.25 130.881 180.658 130.812 181.084 130.812C181.51 130.812 181.867 130.881 182.19 131.037C182.514 131.193 182.786 131.418 183.007 131.696C183.212 131.99 183.348 132.32 183.399 132.701C183.45 133.065 183.416 133.464 183.297 133.88V133.863Z" fill="#9B9B9B"/>
<path d="M183.244 136.756L184.844 130.914H188.044L187.823 131.729H185.559L185.151 133.185H187.415L187.193 134.017H184.929L184.18 136.756H183.244Z" fill="#9B9B9B"/>
<path d="M189.901 136.756L191.484 130.914H192.42L190.82 136.756H189.901Z" fill="#9B9B9B"/>
<path d="M191.688 136.757L193.339 130.69L196.011 134.261L196.216 134.59L196.437 134.971L197.543 130.915H198.394L196.743 136.982L194.02 133.359L193.816 133.047L193.645 132.701L192.539 136.757H191.688Z" fill="#9B9B9B"/>
<path d="M198.974 135.906H199.757C200.183 135.906 200.523 135.872 200.744 135.82C200.983 135.768 201.187 135.664 201.391 135.525C201.663 135.334 201.885 135.109 202.072 134.814C202.259 134.537 202.395 134.208 202.498 133.844C202.6 133.48 202.634 133.15 202.6 132.855C202.566 132.578 202.463 132.335 202.31 132.162C202.191 132.023 202.021 131.919 201.817 131.867C201.612 131.815 201.255 131.781 200.778 131.781H200.097L198.974 135.906ZM197.799 136.756L199.4 130.914H200.659C201.476 130.914 202.038 130.949 202.344 131.035C202.651 131.122 202.906 131.261 203.11 131.451C203.366 131.711 203.536 132.041 203.587 132.439C203.655 132.838 203.604 133.306 203.468 133.826C203.332 134.346 203.11 134.797 202.838 135.196C202.549 135.594 202.208 135.924 201.817 136.184C201.51 136.374 201.187 136.513 200.846 136.6C200.506 136.686 199.995 136.721 199.314 136.721H197.799V136.756Z" fill="#9B9B9B"/>
<path d="M203.281 136.756L204.864 130.914H205.8L204.217 136.756H203.281Z" fill="#9B9B9B"/>
<path d="M207.383 134.469H208.983L208.762 133.134L208.728 132.839V132.475L208.523 132.822L208.336 133.134L207.383 134.469ZM209.34 136.757L209.102 135.249H206.821L205.749 136.757H204.778L209.204 130.69L210.328 136.757H209.34Z" fill="#9B9B9B"/>
</g>
<defs>
<filter id="filter0_d_1687_805" x="0" y="0" width="256" height="216" filterUnits="userSpaceOnUse" color-interpolation-filters="sRGB">
<feFlood flood-opacity="0" result="BackgroundImageFix"/>
<feColorMatrix in="SourceAlpha" type="matrix" values="0 0 0 0 0 0 0 0 0 0 0 0 0 0 0 0 0 0 127 0" result="hardAlpha"/>
<feOffset/>
<feGaussianBlur stdDeviation="4"/>
<feComposite in2="hardAlpha" operator="out"/>
<feColorMatrix type="matrix" values="0 0 0 0 0 0 0 0 0 0 0 0 0 0 0 0 0 0 1 0"/>
<feBlend mode="normal" in2="BackgroundImageFix" result="effect1_dropShadow_1687_805"/>
<feBlend mode="normal" in="SourceGraphic" in2="effect1_dropShadow_1687_805" result="shape"/>
</filter>
<linearGradient id="paint0_linear_1687_805" x1="0.842101" y1="8" x2="256.266" y2="196.817" gradientUnits="userSpaceOnUse">
<stop stop-color="#D9D9D9"/>
<stop offset="0.31" stop-color="#0C0C0D"/>
<stop offset="0.76" stop-color="#0C0C0D"/>
<stop offset="1" stop-color="#737373"/>
</linearGradient>
<clipPath id="clip0_1687_805">
<rect width="186" height="58" fill="white" transform="translate(35 79)"/>
</clipPath>
</defs>
</svg>
