<svg width="256" height="216" viewBox="0 0 256 216" fill="none" xmlns="http://www.w3.org/2000/svg">
<g id="Group 38396">
<g id="Rectangle 5338" filter="url(#filter0_d_1687_860)">
<rect x="8" y="8" width="240" height="200" rx="16" fill="#0E0E0F"/>
<rect x="8.5" y="8.5" width="239" height="199" rx="15.5" stroke="url(#paint0_linear_1687_860)"/>
</g>
<g id="Group 38395">
<g id="Page-1">
<g id="Group">
<g id="Group_2">
<path id="Vector" d="M153.945 119.474L155.365 119.895C155.27 120.292 155.129 120.619 154.916 120.876C154.703 121.133 154.466 121.344 154.158 121.461C153.851 121.601 153.472 121.671 152.999 121.671C152.431 121.671 151.981 121.601 151.603 121.437C151.248 121.274 150.94 120.993 150.68 120.573C150.42 120.175 150.278 119.638 150.278 119.007C150.278 118.165 150.514 117.511 150.964 117.043C151.413 116.576 152.076 116.366 152.904 116.366C153.567 116.366 154.064 116.506 154.442 116.763C154.821 117.02 155.105 117.417 155.27 117.978L153.851 118.282C153.803 118.119 153.756 118.002 153.685 117.932C153.59 117.815 153.496 117.721 153.354 117.651C153.212 117.581 153.07 117.558 152.928 117.558C152.573 117.558 152.289 117.698 152.1 118.002C151.958 118.212 151.887 118.563 151.887 119.007C151.887 119.568 151.981 119.965 152.147 120.175C152.313 120.386 152.573 120.502 152.881 120.502C153.188 120.502 153.425 120.409 153.567 120.245C153.756 120.035 153.874 119.801 153.945 119.474Z" fill="#9B9B9B"/>
<path id="Vector_2" d="M155.933 119.005C155.933 118.164 156.169 117.509 156.643 117.042C157.116 116.575 157.778 116.341 158.63 116.341C159.482 116.341 160.168 116.575 160.642 117.019C161.115 117.486 161.351 118.117 161.351 118.958C161.351 119.566 161.257 120.057 161.044 120.431C160.831 120.805 160.547 121.109 160.145 121.319C159.766 121.529 159.269 121.646 158.701 121.646C158.133 121.646 157.636 121.553 157.234 121.366C156.856 121.179 156.548 120.898 156.288 120.478C156.027 120.057 155.933 119.613 155.933 119.005ZM157.542 119.005C157.542 119.519 157.636 119.893 157.826 120.127C158.015 120.361 158.275 120.478 158.63 120.478C158.985 120.478 159.245 120.361 159.435 120.15C159.624 119.917 159.719 119.519 159.719 118.958C159.719 118.468 159.624 118.117 159.411 117.907C159.222 117.673 158.938 117.579 158.607 117.579C158.275 117.579 158.015 117.696 157.826 117.93C157.636 118.117 157.542 118.491 157.542 119.005Z" fill="#9B9B9B"/>
<path id="Vector_3" d="M162.18 116.436H164.286L165.091 119.568L165.895 116.436H168.001V121.577H166.676V117.651L165.659 121.577H164.476L163.458 117.651V121.577H162.133V116.436H162.18Z" fill="#9B9B9B"/>
<path id="Vector_4" d="M169.041 116.436H171.715C172.307 116.436 172.733 116.576 173.017 116.856C173.301 117.137 173.443 117.511 173.443 118.025C173.443 118.539 173.277 118.96 172.969 119.24C172.662 119.544 172.165 119.684 171.526 119.684H170.651V121.601H169.041V116.436ZM170.651 118.633H171.053C171.36 118.633 171.573 118.586 171.715 118.469C171.834 118.352 171.905 118.235 171.905 118.072C171.905 117.908 171.857 117.768 171.739 117.651C171.621 117.534 171.431 117.487 171.124 117.487H170.674V118.633H170.651Z" fill="#9B9B9B"/>
<path id="Vector_5" d="M174.295 116.436H175.905V120.315H178.413V121.577H174.295V116.436Z" fill="#9B9B9B"/>
<path id="Vector_6" d="M179.217 116.436H180.826V121.577H179.217V116.436Z" fill="#9B9B9B"/>
<path id="Vector_7" d="M185.179 120.711H183.357L183.097 121.553H181.464L183.428 116.411H185.179L187.143 121.553H185.463L185.179 120.711ZM184.848 119.613L184.28 117.766L183.712 119.613H184.848Z" fill="#9B9B9B"/>
<path id="Vector_8" d="M187.64 116.436H189.131L191.095 119.287V116.436H192.609V121.577H191.095L189.155 118.75V121.577H187.64V116.436Z" fill="#9B9B9B"/>
<path id="Vector_9" d="M193.319 116.436H198.218V117.698H196.585V121.577H194.976V117.698H193.343V116.436H193.319Z" fill="#9B9B9B"/>
</g>
<g id="Rectangle-3-+-Letters">
<path id="Rectangle-3" d="M134.59 124.267L139.252 122.818L137.737 119.499C136.625 120.878 135.513 122.654 134.59 124.267ZM133.005 109.099L123.871 89L57 92.7394L75.5279 142.66L111.188 131.559C108.916 128.334 108.088 124.501 110.714 122.631C113.649 120.528 118.073 122.958 120.889 126.394C123.611 121.907 131.254 111.46 133.005 109.099Z" fill="#9B9B9B"/>
<g id="Letters">
<path id="Oval-1" d="M121.789 103.526C124.581 103.526 126.853 101.423 126.853 98.8049C126.853 96.1874 124.581 94.084 121.789 94.084C118.997 94.084 116.725 96.1874 116.725 98.8049C116.725 101.399 118.997 103.526 121.789 103.526ZM117.648 105.559H125.93V126.944H117.648V105.559Z" fill="black"/>
<path id="Path-3" d="M113.555 111.799C113.626 111.823 113.673 111.799 113.673 111.729V106.307C113.673 106.237 113.626 106.167 113.555 106.12C113.555 106.12 112.467 105.419 109.154 105.232C108.988 105.138 106.078 105.115 105.297 105.232C93.2289 106.19 92.7793 114.814 92.7793 115.188V117.291C92.7793 117.549 92.7793 126.359 105.297 127.131C106.527 127.224 108.917 127.131 109.154 127.131C112.041 127.131 114.028 126.266 114.028 126.266C114.099 126.243 114.147 126.172 114.147 126.102V121.031C114.147 120.961 114.099 120.937 114.052 120.984C114.052 120.984 113.153 121.685 109.225 122.083C108.113 122.199 107.568 122.153 107.166 122.083C101.582 121.148 101.322 117.128 101.322 117.128C101.322 117.058 101.298 116.941 101.298 116.894V115.352C101.298 115.282 101.298 115.165 101.322 115.118C101.322 115.118 101.7 110.794 107.166 110.327H109.225C111.615 110.631 113.555 111.799 113.555 111.799Z" fill="black"/>
<path id="Path-1" d="M69.7788 126.874C69.7788 126.944 69.8261 126.991 69.8971 126.991H77.9661C78.0371 126.991 78.0844 126.944 78.0844 126.874V120.657C78.0844 120.587 78.1317 120.541 78.2027 120.541C78.2027 120.541 91.0989 121.452 91.0989 112.922C91.0989 106.167 83.0063 105.443 80.356 105.56H69.8971C69.8261 105.56 69.7788 105.606 69.7788 105.677V126.874ZM77.9424 115.796V110.211H79.9301C79.9301 110.211 82.7933 110.327 83.0299 112.267C83.0773 112.407 83.0773 113.366 83.0299 113.412C82.6513 115.679 80.1667 115.796 80.1667 115.796H77.9424Z" fill="black"/>
</g>
<path id="Path-7" d="M122.025 137.261C122.688 137.261 123.209 137.261 124.06 136.887C126.995 135.368 136.909 111.46 147.368 104.098C147.439 104.051 147.51 103.981 147.557 103.911C147.628 103.817 147.628 103.724 147.628 103.724C147.628 103.724 147.628 103.233 146.09 103.233C136.791 102.976 127.113 122.257 122.025 129.876C121.954 129.97 121.623 129.876 121.623 129.876C121.623 129.876 118.216 125.903 115.258 124.384C115.187 124.36 114.856 124.244 114.501 124.267C114.264 124.267 112.892 124.547 112.253 125.202C111.495 125.996 111.519 126.441 111.519 127.399C111.519 127.469 111.566 127.796 111.661 127.96C112.395 129.222 115.684 133.709 118.405 136.186C118.807 136.49 119.446 137.261 122.025 137.261Z" fill="#9B9B9B"/>
</g>
<g id="Group_3">
<path id="Vector_10" d="M150.113 96.8745H157.851C159.389 96.8745 160.619 97.0849 161.542 97.4822C162.489 97.9028 163.27 98.4871 163.861 99.235C164.476 100.006 164.926 100.894 165.186 101.899C165.47 102.904 165.612 103.979 165.612 105.125C165.612 106.901 165.399 108.28 164.997 109.261C164.595 110.243 164.027 111.061 163.293 111.739C162.56 112.393 161.779 112.837 160.951 113.071C159.815 113.375 158.774 113.515 157.851 113.515H150.113V96.8745ZM155.319 100.637V109.729H156.597C157.685 109.729 158.466 109.612 158.916 109.378C159.365 109.144 159.744 108.724 160.004 108.139C160.264 107.555 160.406 106.574 160.406 105.241C160.406 103.465 160.122 102.273 159.531 101.619C158.939 100.964 157.993 100.637 156.62 100.637H155.319Z" fill="#9B9B9B"/>
<path id="Vector_11" d="M167.055 108.023L172.025 107.719C172.143 108.514 172.356 109.122 172.687 109.542C173.231 110.22 173.989 110.547 174.982 110.547C175.716 110.547 176.307 110.384 176.71 110.033C177.112 109.682 177.325 109.285 177.325 108.841C177.325 108.42 177.136 108.023 176.757 107.673C176.378 107.322 175.479 107.018 174.083 106.714C171.788 106.2 170.179 105.522 169.185 104.681C168.191 103.84 167.718 102.765 167.718 101.456C167.718 100.591 167.978 99.7965 168.475 99.0253C168.972 98.254 169.729 97.6697 170.747 97.2257C171.764 96.7816 173.137 96.5713 174.888 96.5713C177.041 96.5713 178.697 96.9686 179.81 97.7632C180.945 98.5578 181.608 99.8199 181.821 101.549L176.899 101.83C176.757 101.082 176.497 100.544 176.071 100.194C175.645 99.8432 175.077 99.6796 174.343 99.6796C173.728 99.6796 173.279 99.7965 172.971 100.054C172.663 100.311 172.521 100.614 172.521 100.988C172.521 101.246 172.64 101.503 172.9 101.713C173.137 101.923 173.728 102.134 174.651 102.321C176.923 102.811 178.555 103.302 179.549 103.793C180.543 104.284 181.253 104.915 181.703 105.639C182.152 106.364 182.365 107.205 182.365 108.117C182.365 109.192 182.058 110.173 181.466 111.061C180.874 111.973 180.023 112.651 178.958 113.118C177.893 113.585 176.52 113.819 174.888 113.819C172.025 113.819 170.037 113.282 168.925 112.183C167.836 111.085 167.221 109.706 167.055 108.023Z" fill="#9B9B9B"/>
</g>
<g id="Group_4">
<path id="Vector_12" d="M183.689 108.023L188.658 107.72C188.777 108.514 188.99 109.122 189.321 109.542C189.865 110.22 190.622 110.547 191.616 110.547C192.35 110.547 192.941 110.384 193.344 110.033C193.746 109.683 193.959 109.285 193.959 108.841C193.959 108.421 193.769 108.023 193.391 107.673C193.012 107.322 192.113 107.018 190.717 106.715C188.422 106.2 186.813 105.523 185.819 104.681C184.849 103.84 184.352 102.765 184.352 101.456C184.352 100.591 184.612 99.7967 185.109 99.0255C185.606 98.2543 186.363 97.67 187.381 97.2259C188.398 96.7819 189.77 96.5715 191.522 96.5715C193.675 96.5715 195.331 96.9688 196.443 97.7635C197.579 98.5581 198.242 99.8201 198.455 101.55L193.533 101.83C193.391 101.082 193.131 100.545 192.705 100.194C192.279 99.8435 191.711 99.6799 190.977 99.6799C190.362 99.6799 189.912 99.7967 189.605 100.054C189.297 100.311 189.155 100.615 189.155 100.989C189.155 101.246 189.274 101.503 189.534 101.713C189.77 101.924 190.362 102.134 191.285 102.321C193.556 102.812 195.189 103.302 196.183 103.793C197.177 104.284 197.887 104.915 198.336 105.64C198.786 106.364 198.999 107.205 198.999 108.117C198.999 109.192 198.691 110.174 198.1 111.062C197.508 111.973 196.656 112.651 195.591 113.118C194.527 113.586 193.154 113.819 191.522 113.819C188.658 113.819 186.671 113.282 185.558 112.183C184.446 111.085 183.831 109.706 183.689 108.023Z" fill="#9B9B9B"/>
</g>
</g>
</g>
</g>
</g>
<defs>
<filter id="filter0_d_1687_860" x="0" y="0" width="256" height="216" filterUnits="userSpaceOnUse" color-interpolation-filters="sRGB">
<feFlood flood-opacity="0" result="BackgroundImageFix"/>
<feColorMatrix in="SourceAlpha" type="matrix" values="0 0 0 0 0 0 0 0 0 0 0 0 0 0 0 0 0 0 127 0" result="hardAlpha"/>
<feOffset/>
<feGaussianBlur stdDeviation="4"/>
<feComposite in2="hardAlpha" operator="out"/>
<feColorMatrix type="matrix" values="0 0 0 0 0 0 0 0 0 0 0 0 0 0 0 0 0 0 1 0"/>
<feBlend mode="normal" in2="BackgroundImageFix" result="effect1_dropShadow_1687_860"/>
<feBlend mode="normal" in="SourceGraphic" in2="effect1_dropShadow_1687_860" result="shape"/>
</filter>
<linearGradient id="paint0_linear_1687_860" x1="0.842101" y1="8" x2="256.266" y2="196.817" gradientUnits="userSpaceOnUse">
<stop stop-color="#D9D9D9"/>
<stop offset="0.31" stop-color="#0C0C0D"/>
<stop offset="0.76" stop-color="#0C0C0D"/>
<stop offset="1" stop-color="#737373"/>
</linearGradient>
</defs>
</svg>
