<svg width="256" height="216" viewBox="0 0 256 216" fill="none" xmlns="http://www.w3.org/2000/svg">
<g filter="url(#filter0_d_1687_738)">
<rect x="8" y="8" width="240" height="200" rx="16" fill="#0E0E0F"/>
<rect x="8.5" y="8.5" width="239" height="199" rx="15.5" stroke="url(#paint0_linear_1687_738)"/>
</g>
<path d="M46.6952 139.16L47.41 139.098C47.4439 139.384 47.522 139.62 47.6444 139.805C47.7694 139.987 47.9621 140.135 48.2225 140.25C48.4829 140.362 48.7759 140.418 49.1014 140.418C49.3905 140.418 49.6457 140.375 49.867 140.289C50.0884 140.203 50.2525 140.086 50.3592 139.938C50.4686 139.786 50.5233 139.622 50.5233 139.445C50.5233 139.266 50.4712 139.109 50.367 138.977C50.2629 138.841 50.091 138.728 49.8514 138.637C49.6978 138.577 49.3579 138.484 48.8319 138.359C48.3058 138.232 47.9373 138.112 47.7264 138C47.453 137.857 47.2485 137.68 47.1131 137.469C46.9803 137.255 46.9139 137.017 46.9139 136.754C46.9139 136.465 46.9959 136.195 47.16 135.945C47.3241 135.693 47.5636 135.501 47.8788 135.371C48.1939 135.241 48.5441 135.176 48.9295 135.176C49.354 135.176 49.7277 135.245 50.0506 135.383C50.3761 135.518 50.6261 135.719 50.8006 135.984C50.9751 136.25 51.0689 136.551 51.0819 136.887L50.3553 136.941C50.3163 136.579 50.1834 136.306 49.9569 136.121C49.7329 135.936 49.4009 135.844 48.9608 135.844C48.5025 135.844 48.1678 135.928 47.9569 136.098C47.7485 136.264 47.6444 136.466 47.6444 136.703C47.6444 136.909 47.7186 137.078 47.867 137.211C48.0129 137.344 48.3931 137.48 49.0077 137.621C49.6248 137.759 50.048 137.88 50.2772 137.984C50.6105 138.138 50.8566 138.333 51.0155 138.57C51.1743 138.805 51.2538 139.076 51.2538 139.383C51.2538 139.688 51.1665 139.975 50.992 140.246C50.8176 140.514 50.5663 140.724 50.2381 140.875C49.9126 141.023 49.5454 141.098 49.1366 141.098C48.6183 141.098 48.1834 141.022 47.8319 140.871C47.4829 140.72 47.2082 140.493 47.0077 140.191C46.8097 139.887 46.7056 139.543 46.6952 139.16ZM55.6789 139.664L56.4055 139.754C56.2909 140.178 56.0786 140.508 55.7688 140.742C55.4589 140.977 55.063 141.094 54.5813 141.094C53.9745 141.094 53.4927 140.908 53.1359 140.535C52.7818 140.16 52.6047 139.635 52.6047 138.961C52.6047 138.263 52.7844 137.721 53.1438 137.336C53.5031 136.951 53.9693 136.758 54.5422 136.758C55.0969 136.758 55.55 136.947 55.9016 137.324C56.2531 137.702 56.4289 138.233 56.4289 138.918C56.4289 138.96 56.4276 139.022 56.425 139.105H53.3313C53.3573 139.561 53.4862 139.91 53.718 140.152C53.9497 140.395 54.2388 140.516 54.5852 140.516C54.843 140.516 55.063 140.448 55.2453 140.312C55.4276 140.177 55.5721 139.961 55.6789 139.664ZM53.3703 138.527H55.6867C55.6555 138.178 55.5669 137.917 55.4211 137.742C55.1971 137.471 54.9068 137.336 54.55 137.336C54.2271 137.336 53.955 137.444 53.7336 137.66C53.5148 137.876 53.3938 138.165 53.3703 138.527ZM60.6392 139.48L61.3306 139.57C61.2551 140.047 61.0611 140.421 60.7486 140.691C60.4387 140.96 60.0572 141.094 59.6041 141.094C59.0364 141.094 58.5793 140.909 58.233 140.539C57.8892 140.167 57.7173 139.634 57.7173 138.941C57.7173 138.493 57.7916 138.102 57.94 137.766C58.0884 137.43 58.3137 137.178 58.6158 137.012C58.9205 136.842 59.2512 136.758 59.608 136.758C60.0585 136.758 60.427 136.872 60.7134 137.102C60.9999 137.328 61.1835 137.651 61.2642 138.07L60.5806 138.176C60.5155 137.897 60.3996 137.688 60.233 137.547C60.0689 137.406 59.8697 137.336 59.6353 137.336C59.2811 137.336 58.9934 137.464 58.772 137.719C58.5507 137.971 58.44 138.372 58.44 138.922C58.44 139.479 58.5468 139.884 58.7603 140.137C58.9739 140.389 59.2525 140.516 59.5963 140.516C59.8723 140.516 60.1028 140.431 60.2877 140.262C60.4726 140.092 60.5897 139.832 60.6392 139.48ZM65.2909 141V140.391C64.968 140.859 64.5292 141.094 63.9745 141.094C63.7297 141.094 63.5006 141.047 63.287 140.953C63.0761 140.859 62.9185 140.742 62.8144 140.602C62.7128 140.458 62.6412 140.284 62.5995 140.078C62.5709 139.94 62.5566 139.721 62.5566 139.422V136.852H63.2597V139.152C63.2597 139.52 63.274 139.767 63.3027 139.895C63.3469 140.079 63.4407 140.225 63.5839 140.332C63.7271 140.436 63.9042 140.488 64.1152 140.488C64.3261 140.488 64.524 140.435 64.7089 140.328C64.8938 140.219 65.024 140.072 65.0995 139.887C65.1777 139.699 65.2167 139.428 65.2167 139.074V136.852H65.9198V141H65.2909ZM67.6575 141V136.852H68.2903V137.48C68.4518 137.186 68.6002 136.992 68.7356 136.898C68.8736 136.805 69.0247 136.758 69.1888 136.758C69.4257 136.758 69.6666 136.833 69.9114 136.984L69.6692 137.637C69.4973 137.535 69.3255 137.484 69.1536 137.484C69 137.484 68.8619 137.531 68.7395 137.625C68.6171 137.716 68.5299 137.844 68.4778 138.008C68.3997 138.258 68.3606 138.531 68.3606 138.828V141H67.6575ZM70.9733 136.082V135.273H71.6764V136.082H70.9733ZM70.9733 141V136.852H71.6764V141H70.9733ZM74.9258 140.371L75.0273 140.992C74.8294 141.034 74.6523 141.055 74.4961 141.055C74.2409 141.055 74.043 141.014 73.9023 140.934C73.7617 140.853 73.6628 140.747 73.6055 140.617C73.5482 140.484 73.5195 140.207 73.5195 139.785V137.398H73.0039V136.852H73.5195V135.824L74.2188 135.402V136.852H74.9258V137.398H74.2188V139.824C74.2188 140.025 74.2305 140.154 74.2539 140.211C74.28 140.268 74.3203 140.314 74.375 140.348C74.4323 140.382 74.513 140.398 74.6172 140.398C74.6953 140.398 74.7982 140.389 74.9258 140.371ZM76.2611 136.082V135.273H76.9642V136.082H76.2611ZM76.2611 141V136.852H76.9642V141H76.2611ZM81.5183 139.664L82.2448 139.754C82.1303 140.178 81.918 140.508 81.6081 140.742C81.2982 140.977 80.9024 141.094 80.4206 141.094C79.8139 141.094 79.3321 140.908 78.9753 140.535C78.6211 140.16 78.4441 139.635 78.4441 138.961C78.4441 138.263 78.6238 137.721 78.9831 137.336C79.3425 136.951 79.8086 136.758 80.3816 136.758C80.9363 136.758 81.3894 136.947 81.7409 137.324C82.0925 137.702 82.2683 138.233 82.2683 138.918C82.2683 138.96 82.267 139.022 82.2644 139.105H79.1706C79.1967 139.561 79.3256 139.91 79.5573 140.152C79.7891 140.395 80.0782 140.516 80.4245 140.516C80.6823 140.516 80.9024 140.448 81.0847 140.312C81.267 140.177 81.4115 139.961 81.5183 139.664ZM79.2097 138.527H81.5261C81.4948 138.178 81.4063 137.917 81.2605 137.742C81.0365 137.471 80.7461 137.336 80.3894 137.336C80.0665 137.336 79.7943 137.444 79.573 137.66C79.3542 137.876 79.2331 138.165 79.2097 138.527ZM83.4903 139.762L84.1856 139.652C84.2247 139.931 84.3328 140.145 84.5098 140.293C84.6895 140.441 84.9395 140.516 85.2598 140.516C85.5828 140.516 85.8223 140.451 85.9786 140.32C86.1348 140.188 86.213 140.033 86.213 139.855C86.213 139.697 86.144 139.572 86.0059 139.48C85.9096 139.418 85.67 139.339 85.2872 139.242C84.7716 139.112 84.4135 139 84.213 138.906C84.0151 138.81 83.864 138.678 83.7598 138.512C83.6583 138.342 83.6075 138.156 83.6075 137.953C83.6075 137.768 83.6492 137.598 83.7325 137.441C83.8184 137.283 83.9343 137.151 84.0802 137.047C84.1895 136.966 84.338 136.898 84.5255 136.844C84.7156 136.786 84.9187 136.758 85.1348 136.758C85.4604 136.758 85.7455 136.805 85.9903 136.898C86.2377 136.992 86.42 137.12 86.5372 137.281C86.6544 137.44 86.7351 137.654 86.7794 137.922L86.0919 138.016C86.0606 137.802 85.9695 137.635 85.8184 137.516C85.67 137.396 85.4591 137.336 85.1856 137.336C84.8627 137.336 84.6322 137.389 84.4942 137.496C84.3562 137.603 84.2872 137.728 84.2872 137.871C84.2872 137.962 84.3158 138.044 84.3731 138.117C84.4304 138.193 84.5203 138.255 84.6427 138.305C84.713 138.331 84.92 138.391 85.2638 138.484C85.7611 138.617 86.1075 138.727 86.3028 138.812C86.5007 138.896 86.6557 139.018 86.7677 139.18C86.8796 139.341 86.9356 139.542 86.9356 139.781C86.9356 140.016 86.8666 140.237 86.7286 140.445C86.5932 140.651 86.3966 140.811 86.1388 140.926C85.8809 141.038 85.5893 141.094 85.2638 141.094C84.7247 141.094 84.3132 140.982 84.0294 140.758C83.7481 140.534 83.5684 140.202 83.4903 139.762ZM93.9852 140.488C93.7247 140.71 93.4734 140.866 93.2313 140.957C92.9917 141.048 92.7339 141.094 92.4578 141.094C92.0021 141.094 91.6518 140.983 91.407 140.762C91.1622 140.538 91.0398 140.253 91.0398 139.906C91.0398 139.703 91.0854 139.518 91.1766 139.352C91.2703 139.182 91.3914 139.047 91.5398 138.945C91.6909 138.844 91.8602 138.767 92.0477 138.715C92.1857 138.678 92.394 138.643 92.6727 138.609C93.2404 138.542 93.6583 138.461 93.9266 138.367C93.9292 138.271 93.9305 138.21 93.9305 138.184C93.9305 137.897 93.8641 137.695 93.7313 137.578C93.5516 137.419 93.2846 137.34 92.9305 137.34C92.5997 137.34 92.355 137.398 92.1961 137.516C92.0398 137.63 91.924 137.835 91.8484 138.129L91.1609 138.035C91.2234 137.741 91.3263 137.504 91.4695 137.324C91.6128 137.142 91.8198 137.003 92.0906 136.906C92.3615 136.807 92.6753 136.758 93.032 136.758C93.3862 136.758 93.674 136.799 93.8953 136.883C94.1167 136.966 94.2794 137.072 94.3836 137.199C94.4878 137.324 94.5607 137.483 94.6023 137.676C94.6258 137.796 94.6375 138.012 94.6375 138.324V139.262C94.6375 139.915 94.6518 140.329 94.6805 140.504C94.7117 140.676 94.7716 140.841 94.8602 141H94.1258C94.0529 140.854 94.006 140.684 93.9852 140.488ZM93.9266 138.918C93.6714 139.022 93.2885 139.111 92.7781 139.184C92.4891 139.225 92.2846 139.272 92.1648 139.324C92.0451 139.376 91.9526 139.453 91.8875 139.555C91.8224 139.654 91.7898 139.764 91.7898 139.887C91.7898 140.074 91.8602 140.23 92.0008 140.355C92.144 140.48 92.3523 140.543 92.6258 140.543C92.8966 140.543 93.1375 140.484 93.3484 140.367C93.5594 140.247 93.7143 140.085 93.8133 139.879C93.8888 139.72 93.9266 139.486 93.9266 139.176V138.918ZM96.3713 141V136.852H97.0041V137.441C97.3088 136.986 97.7489 136.758 98.3244 136.758C98.5744 136.758 98.8035 136.803 99.0119 136.895C99.2228 136.983 99.3804 137.1 99.4845 137.246C99.5887 137.392 99.6616 137.565 99.7033 137.766C99.7293 137.896 99.7423 138.124 99.7423 138.449V141H99.0392V138.477C99.0392 138.19 99.0119 137.977 98.9572 137.836C98.9025 137.693 98.8048 137.579 98.6642 137.496C98.5262 137.41 98.3634 137.367 98.1759 137.367C97.8765 137.367 97.6173 137.462 97.3986 137.652C97.1825 137.842 97.0744 138.203 97.0744 138.734V141H96.3713ZM104.156 141V140.477C103.893 140.888 103.506 141.094 102.996 141.094C102.665 141.094 102.36 141.003 102.082 140.82C101.806 140.638 101.591 140.384 101.437 140.059C101.286 139.73 101.21 139.354 101.21 138.93C101.21 138.516 101.279 138.141 101.418 137.805C101.556 137.466 101.763 137.207 102.039 137.027C102.315 136.848 102.623 136.758 102.964 136.758C103.214 136.758 103.437 136.811 103.632 136.918C103.828 137.022 103.987 137.159 104.109 137.328V135.273H104.808V141H104.156ZM101.933 138.93C101.933 139.461 102.045 139.858 102.269 140.121C102.493 140.384 102.757 140.516 103.062 140.516C103.369 140.516 103.63 140.391 103.843 140.141C104.059 139.888 104.168 139.504 104.168 138.988C104.168 138.421 104.058 138.004 103.839 137.738C103.621 137.473 103.351 137.34 103.031 137.34C102.718 137.34 102.457 137.467 102.246 137.723C102.037 137.978 101.933 138.38 101.933 138.93ZM109.53 141V135.273H113.67V135.949H110.287V137.703H113.455V138.375H110.287V140.324H113.803V141H109.53ZM114.931 141L116.447 138.844L115.045 136.852H115.923L116.56 137.824C116.68 138.009 116.776 138.164 116.849 138.289C116.964 138.117 117.069 137.965 117.166 137.832L117.865 136.852H118.705L117.271 138.805L118.814 141H117.951L117.099 139.711L116.873 139.363L115.783 141H114.931ZM122.747 139.48L123.438 139.57C123.363 140.047 123.169 140.421 122.856 140.691C122.547 140.96 122.165 141.094 121.712 141.094C121.144 141.094 120.687 140.909 120.341 140.539C119.997 140.167 119.825 139.634 119.825 138.941C119.825 138.493 119.899 138.102 120.048 137.766C120.196 137.43 120.422 137.178 120.724 137.012C121.028 136.842 121.359 136.758 121.716 136.758C122.166 136.758 122.535 136.872 122.821 137.102C123.108 137.328 123.291 137.651 123.372 138.07L122.688 138.176C122.623 137.897 122.507 137.688 122.341 137.547C122.177 137.406 121.978 137.336 121.743 137.336C121.389 137.336 121.101 137.464 120.88 137.719C120.658 137.971 120.548 138.372 120.548 138.922C120.548 139.479 120.655 139.884 120.868 140.137C121.082 140.389 121.36 140.516 121.704 140.516C121.98 140.516 122.211 140.431 122.395 140.262C122.58 140.092 122.698 139.832 122.747 139.48ZM124.68 141V135.273H125.383V137.328C125.711 136.948 126.125 136.758 126.625 136.758C126.933 136.758 127.2 136.819 127.426 136.941C127.653 137.061 127.814 137.228 127.91 137.441C128.009 137.655 128.059 137.965 128.059 138.371V141H127.356V138.371C127.356 138.02 127.279 137.764 127.125 137.605C126.974 137.444 126.759 137.363 126.481 137.363C126.272 137.363 126.076 137.418 125.891 137.527C125.709 137.634 125.578 137.78 125.5 137.965C125.422 138.15 125.383 138.405 125.383 138.73V141H124.68ZM132.48 140.488C132.22 140.71 131.968 140.866 131.726 140.957C131.487 141.048 131.229 141.094 130.953 141.094C130.497 141.094 130.147 140.983 129.902 140.762C129.657 140.538 129.535 140.253 129.535 139.906C129.535 139.703 129.58 139.518 129.672 139.352C129.765 139.182 129.886 139.047 130.035 138.945C130.186 138.844 130.355 138.767 130.543 138.715C130.681 138.678 130.889 138.643 131.168 138.609C131.735 138.542 132.153 138.461 132.422 138.367C132.424 138.271 132.425 138.21 132.425 138.184C132.425 137.897 132.359 137.695 132.226 137.578C132.047 137.419 131.78 137.34 131.425 137.34C131.095 137.34 130.85 137.398 130.691 137.516C130.535 137.63 130.419 137.835 130.343 138.129L129.656 138.035C129.718 137.741 129.821 137.504 129.965 137.324C130.108 137.142 130.315 137.003 130.586 136.906C130.856 136.807 131.17 136.758 131.527 136.758C131.881 136.758 132.169 136.799 132.39 136.883C132.612 136.966 132.774 137.072 132.879 137.199C132.983 137.324 133.056 137.483 133.097 137.676C133.121 137.796 133.132 138.012 133.132 138.324V139.262C133.132 139.915 133.147 140.329 133.175 140.504C133.207 140.676 133.267 140.841 133.355 141H132.621C132.548 140.854 132.501 140.684 132.48 140.488ZM132.422 138.918C132.166 139.022 131.784 139.111 131.273 139.184C130.984 139.225 130.78 139.272 130.66 139.324C130.54 139.376 130.448 139.453 130.382 139.555C130.317 139.654 130.285 139.764 130.285 139.887C130.285 140.074 130.355 140.23 130.496 140.355C130.639 140.48 130.847 140.543 131.121 140.543C131.392 140.543 131.632 140.484 131.843 140.367C132.054 140.247 132.209 140.085 132.308 139.879C132.384 139.72 132.422 139.486 132.422 139.176V138.918ZM134.866 141V136.852H135.499V137.441C135.804 136.986 136.244 136.758 136.819 136.758C137.069 136.758 137.299 136.803 137.507 136.895C137.718 136.983 137.875 137.1 137.98 137.246C138.084 137.392 138.157 137.565 138.198 137.766C138.224 137.896 138.237 138.124 138.237 138.449V141H137.534V138.477C137.534 138.19 137.507 137.977 137.452 137.836C137.398 137.693 137.3 137.579 137.159 137.496C137.021 137.41 136.858 137.367 136.671 137.367C136.371 137.367 136.112 137.462 135.894 137.652C135.677 137.842 135.569 138.203 135.569 138.734V141H134.866ZM139.83 141.344L140.514 141.445C140.543 141.656 140.622 141.81 140.752 141.906C140.927 142.036 141.165 142.102 141.467 142.102C141.793 142.102 142.044 142.036 142.221 141.906C142.398 141.776 142.518 141.594 142.58 141.359C142.617 141.216 142.634 140.915 142.631 140.457C142.324 140.819 141.941 141 141.483 141C140.913 141 140.471 140.794 140.159 140.383C139.846 139.971 139.69 139.478 139.69 138.902C139.69 138.507 139.761 138.142 139.905 137.809C140.048 137.473 140.255 137.214 140.526 137.031C140.799 136.849 141.12 136.758 141.487 136.758C141.976 136.758 142.38 136.956 142.698 137.352V136.852H143.346V140.438C143.346 141.083 143.28 141.54 143.147 141.809C143.017 142.079 142.808 142.293 142.522 142.449C142.238 142.605 141.888 142.684 141.471 142.684C140.976 142.684 140.577 142.572 140.272 142.348C139.967 142.126 139.82 141.792 139.83 141.344ZM140.413 138.852C140.413 139.396 140.521 139.793 140.737 140.043C140.953 140.293 141.224 140.418 141.549 140.418C141.872 140.418 142.143 140.294 142.362 140.047C142.58 139.797 142.69 139.406 142.69 138.875C142.69 138.367 142.577 137.984 142.35 137.727C142.126 137.469 141.855 137.34 141.538 137.34C141.225 137.34 140.959 137.467 140.741 137.723C140.522 137.975 140.413 138.352 140.413 138.852ZM147.892 139.664L148.619 139.754C148.504 140.178 148.292 140.508 147.982 140.742C147.672 140.977 147.276 141.094 146.795 141.094C146.188 141.094 145.706 140.908 145.349 140.535C144.995 140.16 144.818 139.635 144.818 138.961C144.818 138.263 144.998 137.721 145.357 137.336C145.717 136.951 146.183 136.758 146.756 136.758C147.31 136.758 147.763 136.947 148.115 137.324C148.467 137.702 148.642 138.233 148.642 138.918C148.642 138.96 148.641 139.022 148.638 139.105H145.545C145.571 139.561 145.7 139.91 145.931 140.152C146.163 140.395 146.452 140.516 146.799 140.516C147.056 140.516 147.276 140.448 147.459 140.312C147.641 140.177 147.786 139.961 147.892 139.664ZM145.584 138.527H147.9C147.869 138.178 147.78 137.917 147.635 137.742C147.411 137.471 147.12 137.336 146.763 137.336C146.441 137.336 146.168 137.444 145.947 137.66C145.728 137.876 145.607 138.165 145.584 138.527ZM153.071 141V135.273H155.219C155.657 135.273 156.007 135.332 156.27 135.449C156.536 135.564 156.743 135.742 156.891 135.984C157.042 136.224 157.118 136.475 157.118 136.738C157.118 136.983 157.051 137.214 156.918 137.43C156.786 137.646 156.585 137.82 156.317 137.953C156.663 138.055 156.929 138.228 157.114 138.473C157.301 138.717 157.395 139.007 157.395 139.34C157.395 139.608 157.338 139.858 157.223 140.09C157.111 140.319 156.972 140.496 156.805 140.621C156.638 140.746 156.429 140.841 156.176 140.906C155.926 140.969 155.619 141 155.254 141H153.071ZM153.829 137.68H155.067C155.403 137.68 155.644 137.658 155.79 137.613C155.982 137.556 156.127 137.461 156.223 137.328C156.322 137.195 156.372 137.029 156.372 136.828C156.372 136.638 156.326 136.471 156.235 136.328C156.144 136.182 156.013 136.083 155.844 136.031C155.675 135.977 155.385 135.949 154.973 135.949H153.829V137.68ZM153.829 140.324H155.254C155.499 140.324 155.671 140.315 155.77 140.297C155.944 140.266 156.09 140.214 156.208 140.141C156.325 140.068 156.421 139.962 156.497 139.824C156.572 139.684 156.61 139.522 156.61 139.34C156.61 139.126 156.555 138.941 156.446 138.785C156.336 138.626 156.184 138.516 155.989 138.453C155.796 138.388 155.517 138.355 155.153 138.355H153.829V140.324ZM158.726 138.926C158.726 138.158 158.94 137.589 159.367 137.219C159.724 136.911 160.159 136.758 160.672 136.758C161.242 136.758 161.708 136.945 162.07 137.32C162.432 137.693 162.613 138.208 162.613 138.867C162.613 139.401 162.532 139.822 162.371 140.129C162.212 140.434 161.979 140.671 161.672 140.84C161.367 141.009 161.034 141.094 160.672 141.094C160.091 141.094 159.621 140.908 159.262 140.535C158.905 140.163 158.726 139.626 158.726 138.926ZM159.449 138.926C159.449 139.457 159.565 139.855 159.797 140.121C160.028 140.384 160.32 140.516 160.672 140.516C161.021 140.516 161.311 140.383 161.543 140.117C161.775 139.852 161.89 139.447 161.89 138.902C161.89 138.389 161.773 138.001 161.539 137.738C161.307 137.473 161.018 137.34 160.672 137.34C160.32 137.34 160.028 137.471 159.797 137.734C159.565 137.997 159.449 138.395 159.449 138.926ZM166.788 140.488C166.528 140.71 166.277 140.866 166.034 140.957C165.795 141.048 165.537 141.094 165.261 141.094C164.805 141.094 164.455 140.983 164.21 140.762C163.965 140.538 163.843 140.253 163.843 139.906C163.843 139.703 163.889 139.518 163.98 139.352C164.073 139.182 164.195 139.047 164.343 138.945C164.494 138.844 164.663 138.767 164.851 138.715C164.989 138.678 165.197 138.643 165.476 138.609C166.043 138.542 166.461 138.461 166.73 138.367C166.732 138.271 166.734 138.21 166.734 138.184C166.734 137.897 166.667 137.695 166.534 137.578C166.355 137.419 166.088 137.34 165.734 137.34C165.403 137.34 165.158 137.398 164.999 137.516C164.843 137.63 164.727 137.835 164.652 138.129L163.964 138.035C164.027 137.741 164.129 137.504 164.273 137.324C164.416 137.142 164.623 137.003 164.894 136.906C165.165 136.807 165.478 136.758 165.835 136.758C166.189 136.758 166.477 136.799 166.698 136.883C166.92 136.966 167.083 137.072 167.187 137.199C167.291 137.324 167.364 137.483 167.405 137.676C167.429 137.796 167.441 138.012 167.441 138.324V139.262C167.441 139.915 167.455 140.329 167.484 140.504C167.515 140.676 167.575 140.841 167.663 141H166.929C166.856 140.854 166.809 140.684 166.788 140.488ZM166.73 138.918C166.474 139.022 166.092 139.111 165.581 139.184C165.292 139.225 165.088 139.272 164.968 139.324C164.848 139.376 164.756 139.453 164.691 139.555C164.626 139.654 164.593 139.764 164.593 139.887C164.593 140.074 164.663 140.23 164.804 140.355C164.947 140.48 165.155 140.543 165.429 140.543C165.7 140.543 165.941 140.484 166.152 140.367C166.363 140.247 166.517 140.085 166.616 139.879C166.692 139.72 166.73 139.486 166.73 139.176V138.918ZM169.167 141V136.852H169.799V137.48C169.961 137.186 170.109 136.992 170.245 136.898C170.383 136.805 170.534 136.758 170.698 136.758C170.935 136.758 171.176 136.833 171.42 136.984L171.178 137.637C171.006 137.535 170.835 137.484 170.663 137.484C170.509 137.484 170.371 137.531 170.249 137.625C170.126 137.716 170.039 137.844 169.987 138.008C169.909 138.258 169.87 138.531 169.87 138.828V141H169.167ZM175.17 141V140.477C174.907 140.888 174.52 141.094 174.01 141.094C173.679 141.094 173.374 141.003 173.096 140.82C172.82 140.638 172.605 140.384 172.451 140.059C172.3 139.73 172.225 139.354 172.225 138.93C172.225 138.516 172.294 138.141 172.432 137.805C172.57 137.466 172.777 137.207 173.053 137.027C173.329 136.848 173.637 136.758 173.978 136.758C174.228 136.758 174.451 136.811 174.646 136.918C174.842 137.022 175.001 137.159 175.123 137.328V135.273H175.822V141H175.17ZM172.947 138.93C172.947 139.461 173.059 139.858 173.283 140.121C173.507 140.384 173.771 140.516 174.076 140.516C174.383 140.516 174.644 140.391 174.857 140.141C175.073 139.888 175.182 139.504 175.182 138.988C175.182 138.421 175.072 138.004 174.853 137.738C174.635 137.473 174.365 137.34 174.045 137.34C173.732 137.34 173.471 137.467 173.26 137.723C173.051 137.978 172.947 138.38 172.947 138.93ZM180.176 138.926C180.176 138.158 180.39 137.589 180.817 137.219C181.174 136.911 181.609 136.758 182.122 136.758C182.692 136.758 183.158 136.945 183.52 137.32C183.882 137.693 184.063 138.208 184.063 138.867C184.063 139.401 183.982 139.822 183.821 140.129C183.662 140.434 183.429 140.671 183.122 140.84C182.817 141.009 182.484 141.094 182.122 141.094C181.541 141.094 181.071 140.908 180.712 140.535C180.355 140.163 180.176 139.626 180.176 138.926ZM180.899 138.926C180.899 139.457 181.015 139.855 181.247 140.121C181.478 140.384 181.77 140.516 182.122 140.516C182.471 140.516 182.761 140.383 182.993 140.117C183.225 139.852 183.34 139.447 183.34 138.902C183.34 138.389 183.223 138.001 182.989 137.738C182.757 137.473 182.468 137.34 182.122 137.34C181.77 137.34 181.478 137.471 181.247 137.734C181.015 137.997 180.899 138.395 180.899 138.926ZM185.699 141V137.398H185.078V136.852H185.699V136.41C185.699 136.132 185.724 135.924 185.773 135.789C185.841 135.607 185.96 135.46 186.129 135.348C186.301 135.233 186.54 135.176 186.848 135.176C187.046 135.176 187.264 135.199 187.504 135.246L187.398 135.859C187.253 135.833 187.115 135.82 186.984 135.82C186.771 135.82 186.62 135.866 186.531 135.957C186.443 136.048 186.398 136.219 186.398 136.469V136.852H187.207V137.398H186.398V141H185.699ZM191.483 141V135.273H192.241V141H191.483ZM194.131 141V136.852H194.764V137.441C195.068 136.986 195.509 136.758 196.084 136.758C196.334 136.758 196.563 136.803 196.772 136.895C196.982 136.983 197.14 137.1 197.244 137.246C197.348 137.392 197.421 137.565 197.463 137.766C197.489 137.896 197.502 138.124 197.502 138.449V141H196.799V138.477C196.799 138.19 196.772 137.977 196.717 137.836C196.662 137.693 196.565 137.579 196.424 137.496C196.286 137.41 196.123 137.367 195.936 137.367C195.636 137.367 195.377 137.462 195.158 137.652C194.942 137.842 194.834 138.203 194.834 138.734V141H194.131ZM201.915 141V140.477C201.652 140.888 201.266 141.094 200.755 141.094C200.425 141.094 200.12 141.003 199.841 140.82C199.565 140.638 199.35 140.384 199.197 140.059C199.046 139.73 198.97 139.354 198.97 138.93C198.97 138.516 199.039 138.141 199.177 137.805C199.315 137.466 199.522 137.207 199.798 137.027C200.074 136.848 200.383 136.758 200.724 136.758C200.974 136.758 201.197 136.811 201.392 136.918C201.587 137.022 201.746 137.159 201.869 137.328V135.273H202.568V141H201.915ZM199.693 138.93C199.693 139.461 199.805 139.858 200.029 140.121C200.253 140.384 200.517 140.516 200.822 140.516C201.129 140.516 201.389 140.391 201.603 140.141C201.819 139.888 201.927 139.504 201.927 138.988C201.927 138.421 201.818 138.004 201.599 137.738C201.38 137.473 201.111 137.34 200.79 137.34C200.478 137.34 200.216 137.467 200.005 137.723C199.797 137.978 199.693 138.38 199.693 138.93ZM204.321 136.082V135.273H205.024V136.082H204.321ZM204.321 141V136.852H205.024V141H204.321ZM209.445 140.488C209.185 140.71 208.934 140.866 208.692 140.957C208.452 141.048 208.194 141.094 207.918 141.094C207.462 141.094 207.112 140.983 206.867 140.762C206.623 140.538 206.5 140.253 206.5 139.906C206.5 139.703 206.546 139.518 206.637 139.352C206.731 139.182 206.852 139.047 207 138.945C207.151 138.844 207.32 138.767 207.508 138.715C207.646 138.678 207.854 138.643 208.133 138.609C208.701 138.542 209.119 138.461 209.387 138.367C209.389 138.271 209.391 138.21 209.391 138.184C209.391 137.897 209.324 137.695 209.192 137.578C209.012 137.419 208.745 137.34 208.391 137.34C208.06 137.34 207.815 137.398 207.656 137.516C207.5 137.63 207.384 137.835 207.309 138.129L206.621 138.035C206.684 137.741 206.787 137.504 206.93 137.324C207.073 137.142 207.28 137.003 207.551 136.906C207.822 136.807 208.136 136.758 208.492 136.758C208.847 136.758 209.134 136.799 209.356 136.883C209.577 136.966 209.74 137.072 209.844 137.199C209.948 137.324 210.021 137.483 210.063 137.676C210.086 137.796 210.098 138.012 210.098 138.324V139.262C210.098 139.915 210.112 140.329 210.141 140.504C210.172 140.676 210.232 140.841 210.32 141H209.586C209.513 140.854 209.466 140.684 209.445 140.488ZM209.387 138.918C209.132 139.022 208.749 139.111 208.238 139.184C207.949 139.225 207.745 139.272 207.625 139.324C207.505 139.376 207.413 139.453 207.348 139.555C207.283 139.654 207.25 139.764 207.25 139.887C207.25 140.074 207.32 140.23 207.461 140.355C207.604 140.48 207.813 140.543 208.086 140.543C208.357 140.543 208.598 140.484 208.809 140.367C209.02 140.247 209.175 140.085 209.274 139.879C209.349 139.72 209.387 139.486 209.387 139.176V138.918Z" fill="#9B9B9B"/>
<path d="M177.891 122.917V75.1601C177.891 74.8257 178.058 74.5135 178.336 74.328L179.944 73.2563C180.188 73.0937 180.491 73.0463 180.773 73.1267L185.922 74.5944C186.34 74.7135 186.633 75.0887 186.647 75.5228L188.181 121.548C188.19 121.791 188.109 122.028 187.955 122.216L186.858 123.551C186.668 123.783 186.384 123.917 186.085 123.917H178.891C178.339 123.917 177.891 123.469 177.891 122.917Z" fill="#373737"/>
<path d="M113.605 116.14L107.417 123.349C106.861 123.997 107.322 125 108.176 125H145.773C146.206 125 146.59 124.721 146.724 124.308L147.367 122.321L138.063 115.966C137.897 115.852 137.7 115.792 137.499 115.792H114.364C114.072 115.792 113.795 115.919 113.605 116.14Z" fill="#373737"/>
<path d="M115.841 83.4418L110.325 76.2481C110.076 75.9223 110.05 75.4771 110.262 75.1252L111.223 73.5234C111.415 73.202 111.772 73.0155 112.146 73.0401L150.838 75.5856C151.635 75.6381 152.052 76.5579 151.566 77.1919L146.774 83.4418C146.585 83.6886 146.292 83.8334 145.981 83.8334H116.634C116.323 83.8334 116.03 83.6886 115.841 83.4418Z" fill="#373737"/>
<path d="M114.314 103.353L110.455 96.2521C110.286 95.941 110.294 95.5637 110.476 95.2601L111.483 93.582C111.681 93.2519 112.051 93.0648 112.435 93.1009L139.008 95.6078C139.722 95.6752 140.135 96.4506 139.793 97.0809L136.384 103.353C136.209 103.675 135.872 103.875 135.506 103.875H115.193C114.826 103.875 114.489 103.675 114.314 103.353Z" fill="#373737"/>
<path d="M85.4792 75H102.744L110 81.2147L108.925 83.4746H83.7096C80.1213 83.4746 77.2125 86.3835 77.2125 89.9718C77.2125 93.56 80.1213 96.4689 83.7096 96.4689H93.5844C101.463 96.4689 107.85 102.856 107.85 110.734C107.85 118.613 101.463 125 93.5844 125H68.4766C67.7693 125 67.2855 124.286 67.5481 123.629L68.1804 122.047L72.9125 117.373H94.124C97.4003 117.373 100.056 114.717 100.056 111.441C100.056 108.164 97.4003 105.508 94.124 105.508H85.4792C77.0545 105.508 70.225 98.6789 70.225 90.2542C70.225 81.8296 77.0545 75 85.4792 75Z" fill="#373737"/>
<path d="M144.343 96.706L140.256 102.362C139.799 102.993 140.25 103.875 141.029 103.875H159.13C162.311 103.875 164.891 106.455 164.891 109.636C164.891 113.161 161.754 115.86 158.269 115.333L147.836 113.757L145.598 115.687C145.183 116.045 145.134 116.671 145.487 117.089L152.032 124.847C152.114 124.944 152.235 125 152.363 125H159.052C167.063 125 173.558 118.506 173.558 110.495V108.208C173.558 103.422 169.677 99.5418 164.891 99.5418C169.079 99.5418 172.474 96.1466 172.474 91.9584V87.7605C172.474 81.2539 167.2 75.9792 160.693 75.9792H157.486C157.373 75.9792 157.267 76.0311 157.198 76.1198L151.452 83.4745C151.08 83.9505 151.419 84.6459 152.023 84.6459H158.526C161.742 84.6459 164.349 87.2529 164.349 90.4689C164.349 93.6848 161.742 96.2918 158.526 96.2918H145.154C144.833 96.2918 144.531 96.4459 144.343 96.706Z" fill="#373737"/>
<path d="M180.058 121.292V74C180.058 73.4477 180.505 73 181.058 73H187.183C187.735 73 188.183 73.4477 188.183 74V121.292C188.183 121.844 187.735 122.292 187.183 122.292H181.058C180.505 122.292 180.058 121.844 180.058 121.292Z" fill="#9B9B9B"/>
<path d="M115.571 113.963L109.211 121.172C108.641 121.817 109.1 122.833 109.961 122.833H145.803C146.661 122.833 147.121 121.823 146.557 121.176L140.273 113.968C140.083 113.75 139.808 113.625 139.519 113.625H116.321C116.034 113.625 115.761 113.748 115.571 113.963Z" fill="#9B9B9B"/>
<path d="M117.466 80.7335L112.77 74.6084C112.265 73.9506 112.734 73 113.563 73H152.843C153.672 73 154.141 73.9506 153.637 74.6084L148.941 80.7335C148.752 80.9803 148.458 81.125 148.147 81.125H118.259C117.948 81.125 117.655 80.9803 117.466 80.7335Z" fill="#9B9B9B"/>
<path d="M115.42 100.646L112.074 94.5211C111.71 93.8547 112.192 93.0417 112.951 93.0417H140.455C141.214 93.0417 141.697 93.8547 141.333 94.5211L137.987 100.646C137.812 100.967 137.475 101.167 137.109 101.167H116.297C115.931 101.167 115.595 100.967 115.42 100.646Z" fill="#9B9B9B"/>
<path d="M86.3565 73H103.613C103.928 73 104.225 73.1486 104.413 73.401L110.333 81.3147H84.7961C81.2755 81.3147 78.4215 84.1687 78.4215 87.6893C78.4215 91.2099 81.2755 94.0639 84.7961 94.0639H95.2553C102.985 94.0639 109.252 100.33 109.252 108.06C109.252 115.79 102.985 122.057 95.2553 122.057H68.1447L73.7941 114.951C73.9839 114.713 74.2721 114.573 74.5769 114.573H95.5887C98.8031 114.573 101.409 111.968 101.409 108.753C101.409 105.539 98.8031 102.933 95.5886 102.933H86.3565C78.0907 102.933 71.39 96.2322 71.39 87.9665C71.39 79.7007 78.0907 73 86.3565 73Z" fill="#9B9B9B"/>
<path d="M146.177 94.0218L142.342 99.6724C141.911 100.308 142.366 101.167 143.134 101.167H160.828C164.269 101.167 167.058 103.956 167.058 107.396C167.058 110.836 164.269 113.625 160.828 113.625H148.604C147.976 113.625 147.635 114.359 148.04 114.839L154.199 122.138C154.281 122.235 154.402 122.292 154.529 122.292H161.219C169.23 122.292 175.724 115.797 175.724 107.786V105.5C175.724 100.714 171.844 96.8333 167.058 96.8333C171.246 96.8333 174.641 93.4381 174.641 89.25V85.052C174.641 78.5454 169.366 73.2708 162.86 73.2708H159.653C159.54 73.2708 159.434 73.3226 159.364 73.4113L153.619 80.766C153.247 81.242 153.586 81.9374 154.19 81.9374H160.693C163.909 81.9374 166.516 84.5445 166.516 87.7604C166.516 90.9763 163.909 93.5833 160.693 93.5833H147.004C146.673 93.5833 146.363 93.7475 146.177 94.0218Z" fill="#9B9B9B"/>
<defs>
<filter id="filter0_d_1687_738" x="0" y="0" width="256" height="216" filterUnits="userSpaceOnUse" color-interpolation-filters="sRGB">
<feFlood flood-opacity="0" result="BackgroundImageFix"/>
<feColorMatrix in="SourceAlpha" type="matrix" values="0 0 0 0 0 0 0 0 0 0 0 0 0 0 0 0 0 0 127 0" result="hardAlpha"/>
<feOffset/>
<feGaussianBlur stdDeviation="4"/>
<feComposite in2="hardAlpha" operator="out"/>
<feColorMatrix type="matrix" values="0 0 0 0 0 0 0 0 0 0 0 0 0 0 0 0 0 0 1 0"/>
<feBlend mode="normal" in2="BackgroundImageFix" result="effect1_dropShadow_1687_738"/>
<feBlend mode="normal" in="SourceGraphic" in2="effect1_dropShadow_1687_738" result="shape"/>
</filter>
<linearGradient id="paint0_linear_1687_738" x1="0.842101" y1="8" x2="256.266" y2="196.817" gradientUnits="userSpaceOnUse">
<stop stop-color="#D9D9D9"/>
<stop offset="0.31" stop-color="#0C0C0D"/>
<stop offset="0.76" stop-color="#0C0C0D"/>
<stop offset="1" stop-color="#737373"/>
</linearGradient>
</defs>
</svg>
