<svg width="122" height="52" viewBox="0 0 122 52" fill="none" xmlns="http://www.w3.org/2000/svg">
<g id="Group 38389">
<g id="Group 38388">
<path id="Vector 3611" d="M110.891 49.9167V2.16011C110.891 1.82574 111.058 1.5135 111.336 1.32804L112.944 0.256285C113.188 0.093687 113.491 0.0463001 113.773 0.126656L118.922 1.59445C119.34 1.71352 119.633 2.08868 119.647 2.52283L121.181 48.5477C121.19 48.7905 121.109 49.028 120.955 49.2158L119.858 50.5514C119.668 50.7827 119.384 50.9167 119.085 50.9167H111.891C111.339 50.9167 110.891 50.469 110.891 49.9167Z" fill="#373737"/>
<path id="Vector 3607" d="M46.6052 43.1404L40.4175 50.3486C39.8608 50.9972 40.3215 52 41.1762 52H78.7726C79.2062 52 79.5904 51.7206 79.724 51.3081L80.3672 49.3215L71.0627 42.966C70.8965 42.8525 70.6999 42.7917 70.4987 42.7917H47.364C47.0723 42.7917 46.7952 42.9191 46.6052 43.1404Z" fill="#373737"/>
<path id="Vector 3603" d="M48.8407 10.4418L43.3255 3.24808C43.0758 2.92235 43.0504 2.4771 43.2616 2.12515L44.2226 0.523419C44.4155 0.202043 44.7718 0.015468 45.1458 0.0400717L83.8381 2.58562C84.6352 2.63806 85.0521 3.5579 84.5661 4.19189L79.7745 10.4418C79.5852 10.6886 79.2919 10.8334 78.9809 10.8334H49.6343C49.3232 10.8334 49.0299 10.6886 48.8407 10.4418Z" fill="#373737"/>
<path id="Vector 3604" d="M47.3142 30.3526L43.4554 23.2521C43.2863 22.941 43.2943 22.5637 43.4765 22.2601L44.4834 20.582C44.6815 20.2519 45.0515 20.0648 45.4348 20.1009L72.008 22.6078C72.7222 22.6752 73.1352 23.4506 72.7927 24.0809L69.3843 30.3526C69.2093 30.6746 68.8721 30.8751 68.5056 30.8751H48.1928C47.8263 30.8751 47.4892 30.6746 47.3142 30.3526Z" fill="#373737"/>
<path id="Vector 3601" d="M18.4792 2H35.7437L43 8.21469L41.925 10.4746H16.7096C13.1213 10.4746 10.2125 13.3835 10.2125 16.9718C10.2125 20.56 13.1213 23.4689 16.7096 23.4689H26.5844C34.4631 23.4689 40.85 29.8558 40.85 37.7345C40.85 45.6131 34.4631 52 26.5844 52H1.47663C0.769259 52 0.285504 51.2857 0.548065 50.6288L1.18037 49.047L5.91245 44.3729H27.124C30.4003 44.3729 33.0562 41.7169 33.0562 38.4407C33.0562 35.1644 30.4003 32.5085 27.124 32.5085H18.4792C10.0545 32.5085 3.22495 25.6789 3.22495 17.2542C3.22495 8.82955 10.0545 2 18.4792 2Z" fill="#373737"/>
<path id="Vector 3609" d="M77.3434 23.706L73.2557 29.3616C72.7995 29.9927 73.2505 30.8751 74.0292 30.8751H92.1296C95.3115 30.8751 97.8909 33.4546 97.8909 36.6364C97.8909 40.1612 94.7542 42.8596 91.269 42.3331L80.8356 40.7569L78.598 42.6874C78.1831 43.0454 78.1336 43.6706 78.487 44.0894L85.0321 51.8466C85.1143 51.944 85.2353 52.0002 85.3627 52.0002H92.0522C100.063 52.0002 106.558 45.5059 106.558 37.4948V35.2085C106.558 30.422 102.677 26.5418 97.8909 26.5418C102.079 26.5418 105.474 23.1466 105.474 18.9584V14.7605C105.474 8.25391 100.2 2.97925 93.693 2.97925H90.4859C90.3733 2.97925 90.2671 3.03108 90.1978 3.11976L84.4519 10.4745C84.08 10.9505 84.4192 11.6459 85.0233 11.6459H91.5263C94.7422 11.6459 97.3492 14.2529 97.3492 17.4689C97.3492 20.6848 94.7422 23.2918 91.5263 23.2918H78.1539C77.8329 23.2918 77.5314 23.4459 77.3434 23.706Z" fill="#373737"/>
</g>
<g id="Group 38387">
<path id="Vector 3610" d="M113.058 48.2918V1C113.058 0.447715 113.505 0 114.058 0H120.183C120.735 0 121.183 0.447717 121.183 1V48.2918C121.183 48.8441 120.735 49.2918 120.183 49.2918H114.058C113.505 49.2918 113.058 48.8441 113.058 48.2918Z" fill="#9B9B9B"/>
<path id="Vector 3606" d="M48.5713 40.9634L42.211 48.1717C41.6413 48.8174 42.0997 49.8334 42.9608 49.8334H78.8029C79.6612 49.8334 80.1207 48.8232 79.5567 48.1762L73.273 40.9679C73.0831 40.75 72.8082 40.625 72.5192 40.625H49.3211C49.0342 40.625 48.7611 40.7482 48.5713 40.9634Z" fill="#9B9B9B"/>
<path id="Vector 3602" d="M50.4655 7.73345L45.7697 1.60843C45.2653 0.950589 45.7343 0 46.5633 0H85.8432C86.6721 0 87.1412 0.950589 86.6368 1.60843L81.941 7.73345C81.7517 7.98029 81.4584 8.12502 81.1474 8.12502H51.2591C50.9481 8.12502 50.6548 7.98029 50.4655 7.73345Z" fill="#9B9B9B"/>
<path id="Vector 3605" d="M48.4196 27.6462L45.0738 21.5211C44.7098 20.8547 45.1921 20.0417 45.9514 20.0417H73.455C74.2144 20.0417 74.6967 20.8547 74.3326 21.5211L70.9869 27.6462C70.8115 27.9671 70.475 28.1668 70.1093 28.1668H49.2972C48.9315 28.1668 48.5949 27.9671 48.4196 27.6462Z" fill="#9B9B9B"/>
<path id="Vector 3600" d="M19.3565 0H36.6126C36.9278 0 37.2245 0.148598 37.4133 0.400979L43.3335 8.3147H17.7961C14.2755 8.3147 11.4215 11.1687 11.4215 14.6893C11.4215 18.2099 14.2755 21.0639 17.7961 21.0639H28.2553C35.9853 21.0639 42.2517 27.3303 42.2517 35.0603C42.2517 42.7903 35.9853 49.0567 28.2553 49.0567H1.14471L6.79415 41.9511C6.98386 41.7125 7.27205 41.5735 7.57689 41.5735H28.5887C31.8031 41.5735 34.4089 38.9677 34.4089 35.7532C34.4089 32.5387 31.8031 29.9329 28.5886 29.9329H19.3565C11.0907 29.9329 4.39 23.2322 4.39 14.9665C4.39 6.70071 11.0907 0 19.3565 0Z" fill="#9B9B9B"/>
<path id="Vector 3608" d="M79.1766 21.0218L75.3423 26.6724C74.9111 27.3078 75.3663 28.1666 76.1341 28.1666H93.8284C97.2687 28.1666 100.058 30.9555 100.058 34.3958C100.058 37.8361 97.2687 40.625 93.8284 40.625H81.6044C80.9765 40.625 80.6353 41.3592 81.0403 41.8391L87.1988 49.1381C87.2809 49.2355 87.4019 49.2917 87.5294 49.2917H94.2189C102.23 49.2917 108.724 42.7974 108.724 34.7863V32.5C108.724 27.7135 104.844 23.8333 100.058 23.8333C104.246 23.8333 107.641 20.4381 107.641 16.25V12.052C107.641 5.54541 102.366 0.270752 95.8596 0.270752H92.6525C92.54 0.270752 92.4337 0.322581 92.3644 0.411261L86.6186 7.766C86.2467 8.24203 86.5858 8.93744 87.1899 8.93744H93.693C96.9089 8.93744 99.5159 11.5445 99.5159 14.7604C99.5159 17.9763 96.9089 20.5833 93.693 20.5833H80.0041C79.6727 20.5833 79.3627 20.7475 79.1766 21.0218Z" fill="#9B9B9B"/>
</g>
</g>
</svg>
