<svg width="256" height="216" viewBox="0 0 256 216" fill="none" xmlns="http://www.w3.org/2000/svg">
<g id="Group 38392">
<g id="Rectangle 5336" filter="url(#filter0_d_1687_757)">
<rect x="8" y="8" width="240" height="200" rx="16" fill="#0E0E0F"/>
<rect x="8.5" y="8.5" width="239" height="199" rx="15.5" stroke="url(#paint0_linear_1687_757)"/>
</g>
<g id="Group 235">
<path id="Vector" d="M74.3112 91.5174C62.3081 109.787 55.6397 120.058 50.9083 122.457C46.0499 124.889 43.4778 118.554 40.8422 115.226C40.6834 115.034 40.8422 114.778 41.0645 114.81C42.2394 115.002 44.8115 115.354 47.8282 115.258C51.3846 115.162 55.0046 109.243 73.8032 91.1015C74.0889 90.8135 74.5335 91.1975 74.3112 91.5174Z" fill="#9B9B9B"/>
<path id="Vector_2" d="M47.5739 114.266C45.3511 113.914 42.6838 113.594 40.334 113.562C39.8894 113.562 39.4766 113.402 39.1591 113.114C36.9363 111.131 35.6026 109.723 34.1419 109.435C33.9831 109.435 33.9514 109.211 34.0784 109.179C35.1898 108.667 38.0794 107.451 40.842 107.451C43.0966 107.451 46.3038 109.819 48.6536 111.995C49.6062 112.89 48.8441 114.458 47.5739 114.266Z" fill="#9B9B9B"/>
<path id="Vector_3" d="M77.9951 97.9509H83.3933L87.9977 107.486L92.7608 97.9509H97.8732L90.411 112.061V119.484H85.5526V112.061L77.9951 97.9509Z" fill="#9B9B9B"/>
<path id="Vector_4" d="M99.3951 97.9509V119.484H114.224V115.197H104.19V110.301H112.351V106.494H104.158V101.982H113.557L114.986 97.9509H99.3951Z" fill="#9B9B9B"/>
<path id="Vector_5" d="M130.741 97.9495V102.301H122.611C122.611 102.301 121.119 102.365 121.119 103.741C121.119 104.765 122.738 105.372 122.738 105.372C122.738 105.372 129.597 108.54 129.947 108.7C130.296 108.86 131.884 109.692 131.884 113.243C131.884 117.147 129.026 119.451 124.993 119.451H116.546V115.131H125.723C126.168 115.131 126.867 114.971 126.867 113.435C126.867 111.9 124.771 111.228 124.358 111.036C123.945 110.844 118.452 108.54 117.912 108.22C117.372 107.9 116.102 107.068 116.102 103.517C116.102 99.9652 118.61 97.9175 121.405 97.9175H130.709L130.741 97.9495Z" fill="#9B9B9B"/>
<path id="Vector_6" d="M155.604 108.414C156.493 108.414 158.366 106.27 158.366 103.262C158.366 100.255 155.477 97.9509 153.127 97.9509H141.727V119.484H153.127C156.175 119.484 159.319 117.116 159.319 113.693C159.319 110.269 156.493 108.414 155.604 108.414ZM146.586 102.078H151.762C152.682 102.078 153.572 102.782 153.572 104.414C153.572 106.046 152.524 106.75 151.444 106.75H146.617V102.078H146.586ZM151.952 115.229H146.586V110.493H151.984C153.095 110.493 154.27 111.485 154.27 113.053C154.27 114.621 152.778 115.261 151.952 115.261V115.229Z" fill="#9B9B9B"/>
<path id="Vector_7" d="M172.467 97.9509H167.069L159.702 119.484H164.783L166.116 114.589H173.42L174.753 119.484H179.866L172.467 97.9509ZM167.101 111.357L169.8 102.846L172.404 111.357H167.132H167.101Z" fill="#9B9B9B"/>
<path id="Vector_8" d="M181.389 119.484H186.152V106.75L196.027 119.484H199.647V97.9509H194.884V110.493L185.421 97.9509H181.389V119.484Z" fill="#9B9B9B"/>
<path id="Vector_9" d="M203.201 97.9509H208.092V107.134L215.998 97.9509H221.46L213.458 107.678L222 119.484H216.57L210.283 110.749L208.092 113.213V119.484H203.201V97.9509Z" fill="#9B9B9B"/>
</g>
</g>
<defs>
<filter id="filter0_d_1687_757" x="0" y="0" width="256" height="216" filterUnits="userSpaceOnUse" color-interpolation-filters="sRGB">
<feFlood flood-opacity="0" result="BackgroundImageFix"/>
<feColorMatrix in="SourceAlpha" type="matrix" values="0 0 0 0 0 0 0 0 0 0 0 0 0 0 0 0 0 0 127 0" result="hardAlpha"/>
<feOffset/>
<feGaussianBlur stdDeviation="4"/>
<feComposite in2="hardAlpha" operator="out"/>
<feColorMatrix type="matrix" values="0 0 0 0 0 0 0 0 0 0 0 0 0 0 0 0 0 0 1 0"/>
<feBlend mode="normal" in2="BackgroundImageFix" result="effect1_dropShadow_1687_757"/>
<feBlend mode="normal" in="SourceGraphic" in2="effect1_dropShadow_1687_757" result="shape"/>
</filter>
<linearGradient id="paint0_linear_1687_757" x1="0.842101" y1="8" x2="256.266" y2="196.817" gradientUnits="userSpaceOnUse">
<stop stop-color="#D9D9D9"/>
<stop offset="0.31" stop-color="#0C0C0D"/>
<stop offset="0.76" stop-color="#0C0C0D"/>
<stop offset="1" stop-color="#737373"/>
</linearGradient>
</defs>
</svg>
